<?xml version="1.0" encoding="utf-8"?>
<!-- Generator: Adobe Illustrator 19.2.0, SVG Export Plug-In . SVG Version: 6.00 Build 0)  -->
<svg version="1.1" id="Layer_1" xmlns="http://www.w3.org/2000/svg" xmlns:xlink="http://www.w3.org/1999/xlink" x="0px" y="0px"
	 viewBox="0 0 336.2 310.2" style="enable-background:new 0 0 336.2 310.2;" xml:space="preserve">
<style type="text/css">
	.st0{fill:none;}
	.st1{fill:#58595B;}
	.st2{fill:none;stroke:#2FAED1;stroke-miterlimit:10;}
	.st3{fill:#5E5CA7;}
	.st4{opacity:0.3;fill:url(#SVGID_2_);enable-background:new    ;}
	.st5{enable-background:new    ;}
</style>
<pattern  y="310.2" width="373.8" height="298" patternUnits="userSpaceOnUse" id="SVGID_1_" viewBox="18.7 -313.2 373.8 298" style="overflow:visible;">
	<g>
		<rect x="18.7" y="-313.2" class="st0" width="373.8" height="298"/>
		<g>
			<rect x="18.7" y="-313.2" class="st0" width="373.8" height="298"/>
			<g>
				<path class="st1" d="M375.7-284.9c1.2,1.3,2.4,2.6,3.6,4c0.6,0.7,1.2,1.4,1.8,2c0.5,0.6,1.3,2,2,2.3c0.7,0.4-0.3,0.3,0.4,0
					c0.3-0.1,0.7-0.7,1-0.9c0.7-0.6,1.3-1.2,2-1.9c1.4-1.3,2.7-2.7,4.1-4.1c0.6-0.6,1.4-0.4,1.8,0.2c2.5,3.4,5,6.9,7.5,10.3
					c-0.5-0.1-1.1-0.3-1.6-0.4c3.7-2.4,7.4-4.7,11-7.1c1.4-0.9,2.6,1.3,1.3,2.1c-3.7,2.3-7.4,4.6-11.1,6.9c-0.6,0.4-1.2,0.1-1.6-0.4
					c-2.5-3.4-5-6.9-7.5-10.3c0.6,0.1,1.2,0.2,1.8,0.2c-1.8,1.8-3.5,3.5-5.3,5.3c-1,1-2.3,3-4,2.7c-1.6-0.2-3-2.7-4-3.9
					c-1.6-1.9-3.2-3.8-4.8-5.7C373.2-284.4,374.7-286,375.7-284.9L375.7-284.9z"/>
				<path class="st1" d="M303.1-261.3c0.9-1.5,1.8-3.1,2.7-4.7c0.4-0.8,0.9-1.6,1.3-2.4c0.4-0.7,0.9-2.2,1.5-2.7s-0.4-0.2,0.4-0.1
					c0.3,0.1,0.9,0.5,1.2,0.7c0.8,0.5,1.5,0.9,2.3,1.4c1.6,1,3.2,2.1,4.8,3.1c0.7,0.4,1.4,0.1,1.7-0.6c1.7-3.9,3.5-7.7,5.2-11.6
					c-0.5,0.2-1,0.5-1.5,0.7c4.1,1.5,8.2,3.1,12.3,4.6c1.5,0.6,2.3-1.8,0.8-2.4c-4.1-1.5-8.2-3-12.3-4.5c-0.6-0.2-1.2,0.2-1.5,0.7
					c-1.7,3.9-3.5,7.8-5.2,11.6c0.6-0.2,1.1-0.4,1.7-0.6c-2.1-1.4-4.2-2.7-6.3-4.1c-1.2-0.8-2.9-2.4-4.5-1.9
					c-1.6,0.6-2.4,3.3-3.1,4.6c-1.2,2.2-2.4,4.3-3.5,6.6C300.6-261.3,302.3-260.1,303.1-261.3L303.1-261.3z"/>
				<path class="st1" d="M360.7-252.6c-0.8,0.5-0.8,1.6-0.4,2.4c0.5,0.9,1.6,1.2,2.4,0.6c0.9-0.6,0.9-1.9,0.3-2.7c0,0,0,0-0.1,0
					C362.3-252.9,361.4-253,360.7-252.6z"/>
				<path class="st1" d="M336-265.3c-0.8,0.5-0.8,1.6-0.4,2.4c0.5,0.9,1.6,1.2,2.4,0.6c0.9-0.6,0.9-1.9,0.3-2.7c0,0,0,0-0.1,0
					C337.6-265.7,336.7-265.8,336-265.3z"/>
				<path class="st1" d="M343.7-227.5c-0.8,0.5-0.8,1.6-0.4,2.4c0.5,0.9,1.6,1.2,2.4,0.6c0.9-0.6,0.9-1.9,0.3-2.7c0,0,0,0-0.1,0
					C345.3-227.8,344.4-228,343.7-227.5z"/>
				<path class="st1" d="M364.7-277.9c-0.8,0.5-0.8,1.6-0.4,2.4c0.5,0.9,1.6,1.2,2.4,0.6c0.9-0.6,0.9-1.9,0.3-2.7c0,0,0,0-0.1,0
					C366.3-278.3,365.4-278.4,364.7-277.9z"/>
				<path class="st1" d="M349.5-303c-0.8,0.5-0.8,1.6-0.4,2.4c0.5,0.9,1.6,1.2,2.4,0.6c0.9-0.6,0.9-1.9,0.3-2.7c0,0,0,0-0.1,0
					C351.1-303.4,350.2-303.5,349.5-303z"/>
				<path class="st1" d="M385.3-288.6c-0.8,0.5-0.8,1.6-0.4,2.4c0.5,0.9,1.6,1.2,2.4,0.6c0.9-0.6,0.9-1.9,0.3-2.7c0,0,0,0-0.1,0
					C386.9-288.9,386-289,385.3-288.6z"/>
				<path class="st1" d="M321.1-214.6c-0.8,0.5-0.8,1.6-0.4,2.4c0.5,0.9,1.6,1.2,2.4,0.6c0.9-0.6,0.9-1.9,0.3-2.7c0,0,0,0-0.1,0
					C322.7-214.9,321.8-215,321.1-214.6z"/>
				<path class="st1" d="M306.6-184.6c-0.8,0.5-0.8,1.6-0.4,2.4c0.5,0.9,1.6,1.2,2.4,0.6c0.9-0.6,0.9-1.9,0.3-2.7c0,0,0,0-0.1,0
					C308.2-185,307.3-185.1,306.6-184.6z"/>
				<path class="st1" d="M340.6-189.2c-0.8,0.5-0.8,1.6-0.4,2.4c0.5,0.9,1.6,1.2,2.4,0.6c0.9-0.6,0.9-1.9,0.3-2.7c0,0,0,0-0.1,0
					C342.2-189.5,341.3-189.7,340.6-189.2z"/>
				<path class="st1" d="M373.1-231.8c-0.8,0.5-0.8,1.6-0.4,2.4c0.5,0.9,1.6,1.2,2.4,0.6c0.9-0.6,0.9-1.9,0.3-2.7c0,0,0,0-0.1,0
					C374.7-232.2,373.8-232.3,373.1-231.8z"/>
				<path class="st1" d="M387-198.3c-0.8,0.5-0.8,1.6-0.4,2.4c0.5,0.9,1.6,1.2,2.4,0.6c0.9-0.6,0.9-1.9,0.3-2.7c0,0,0,0-0.1,0
					C388.6-198.7,387.7-198.8,387-198.3z"/>
				<path class="st1" d="M378.2-178.4c-0.8,0.5-0.8,1.6-0.4,2.4c0.5,0.9,1.6,1.2,2.4,0.6c0.9-0.6,0.9-1.9,0.3-2.7c0,0,0,0-0.1,0
					C379.8-178.8,378.9-178.9,378.2-178.4z"/>
				<path class="st1" d="M357.5-199.7c-0.8,0.5-0.8,1.6-0.4,2.4c0.5,0.9,1.6,1.2,2.4,0.6c0.9-0.6,0.9-1.9,0.3-2.7c0,0,0,0-0.1,0
					C359.1-200,358.2-200.2,357.5-199.7z"/>
				<path class="st1" d="M376.8-214.9c0.6,1.5,1.4,2.8,2.2,4.2c0.8,1.4,1.5,2.9,2.6,4c0.7,0.7,1.9-0.1,1.6-1c-0.4-1.4-1.3-2.7-2.1-4
					c-0.8-1.4-1.6-2.8-2.6-4.1C377.9-216.4,376.3-216,376.8-214.9L376.8-214.9z"/>
				<path class="st1" d="M299.6-225.5c-0.7,1.4-1.1,3-1.6,4.5s-1.1,3-1.2,4.6c0,1,1.3,1.4,1.8,0.5c0.8-1.3,1.1-2.8,1.5-4.2
					c0.5-1.5,1-3.1,1.2-4.6C301.5-225.7,300.1-226.6,299.6-225.5L299.6-225.5z"/>
				<path class="st1" d="M352-216.7c0.6,1.5,1.4,2.8,2.2,4.2c0.8,1.4,1.5,2.9,2.6,4c0.7,0.7,1.9-0.1,1.6-1c-0.4-1.4-1.3-2.7-2.1-4
					c-0.8-1.4-1.6-2.8-2.6-4.1C353.2-218.3,351.6-217.8,352-216.7L352-216.7z"/>
				<path class="st1" d="M361.5-271.9c1.7,2.9,3,6.1,2.4,9.5c-0.5,2.9-2.6,5.4-5.4,6.6c-2.6,1.1-5.6,0.9-8-0.6
					c-2.2-1.4-4.7-4.3-4.1-7.1c0.3-1.2,1.8-1.3,2.4-0.3c1.1,1.7,1.3,3.5,3.2,4.7c1.8,1.1,3.9,1.1,5.8,0.1c4.6-2.6,2.9-8,1.4-12
					C358.8-272.3,360.9-273.1,361.5-271.9L361.5-271.9z"/>
				<path class="st1" d="M386.8-309.1c-2.7,0.4-5.3,1.1-7.2,3.2c-1.6,1.8-2.1,4.3-1.5,6.6c0.6,2.2,2.2,4,4.3,4.8
					c2,0.7,5.1,0.9,6.5-0.9c0.6-0.7-0.1-1.8-1-1.7c-1.6,0.2-2.9,0.9-4.6,0.3c-1.6-0.6-2.7-1.9-2.9-3.6c-0.6-4.2,3.6-5.8,6.9-6.8
					C388.4-307.5,387.9-309.2,386.8-309.1L386.8-309.1z"/>
				<path class="st1" d="M338.6-180c1.8,2.4,3.3,5.2,3.1,8.3c-0.2,2.7-1.8,5.1-4.1,6.4c-2.2,1.3-4.9,1.4-7.2,0.3
					c-2.1-1-4.6-3.4-4.3-5.9c0.1-1.1,1.5-1.3,2.1-0.5c1.2,1.5,1.5,3,3.4,3.9c1.7,0.8,3.6,0.6,5.2-0.5c3.8-2.8,1.8-7.4,0-10.8
					C336.1-180.1,337.8-181,338.6-180L338.6-180z"/>
				<path class="st1" d="M347.6-206.4c-2.1,1.1-4.5,2-6.9,1.5c-2.1-0.5-3.8-2-4.6-4c-0.7-1.9-0.5-4,0.6-5.8c1-1.6,3.2-3.3,5.2-2.8
					c0.8,0.2,0.9,1.4,0.2,1.8c-1.3,0.8-2.6,0.9-3.5,2.2s-0.9,2.8-0.2,4.2c1.8,3.4,5.7,2.3,8.6,1.3
					C347.9-208.4,348.4-206.9,347.6-206.4L347.6-206.4z"/>
				<path class="st1" d="M356-227.6c-3.1-3.6-3.6-8.8-0.4-12.5c1.4-1.6,3.4-2.6,5.5-2.7c2.3-0.1,4.5,0.8,6.7,1.3s4.2,0.2,4.9-2.2
					c0.6-1.8,0.6-3.8,0.9-5.7c0.3-1.7,1-3.4,2.4-4.5c1.7-1.4,3.9-1.5,6-1.4c1.3,0,2.7,0.2,3.8-0.3c1.3-0.6,1.9-1.9,2.3-3.2
					c0.4-1.6,0.5-3.3,0.4-4.9c-0.1-1.7-0.8-3.2-1.1-4.8c-0.3-1.5,1.5-2.2,2.4-1c1.4,1.9,1.7,5,1.7,7.3c0,2.3-0.4,4.9-1.6,6.9
					c-1.1,1.9-2.9,2.8-5.1,3c-2.1,0.2-5-0.7-6.8,0.6c-1.4,1-1.6,3.2-1.8,4.8c-0.2,1.8-0.4,3.6-1.2,5.3c-2.1,4.3-6.7,3.3-10.5,2.3
					c-2.8-0.8-5.4-0.8-7.3,1.8c-1.9,2.7-1.2,6.1,0.4,8.8C358.3-227.9,356.8-226.7,356-227.6L356-227.6z"/>
				<path class="st1" d="M294.6-252.9c2.9-1.8,6.7-1.6,8.9,1.2c1,1.2,1.5,2.7,1.3,4.2c-0.2,1.6-1.1,3.1-1.7,4.6s-0.6,2.9,1,3.7
					c1.2,0.6,2.7,0.8,4,1.3c1.2,0.4,2.3,1.1,2.9,2.2c0.8,1.4,0.6,2.9,0.3,4.4c-0.2,0.9-0.5,1.9-0.2,2.8c0.2,1,1.1,1.6,2,2
					c1.1,0.5,2.3,0.8,3.4,0.8c1.2,0.1,2.3-0.2,3.5-0.2c1.1,0,1.4,1.3,0.4,1.8c-1.5,0.8-3.7,0.6-5.4,0.4c-1.6-0.3-3.4-0.9-4.7-1.9
					c-1.2-1-1.6-2.4-1.5-3.9s1.1-3.4,0.3-4.9c-0.6-1.1-2.1-1.5-3.2-1.8c-1.2-0.4-2.5-0.7-3.6-1.5c-2.8-2-1.6-5.1-0.4-7.7
					c0.9-1.9,1.2-3.8-0.4-5.4c-1.7-1.7-4.2-1.5-6.3-0.7C294.5-251.2,293.8-252.4,294.6-252.9L294.6-252.9z"/>
				<path class="st1" d="M364.3-300.8c1.8,3.9,2.7,8.1,3.2,12.4c0.1,0.8-0.4,1.8-1.4,1.8c-4.2-0.4-8.6-1-12.7-2.4
					c-1.6-0.6-0.9-2.9,0.8-2.5c4,0.9,7.9,1.7,12,2.1c-0.5,0.6-1,1.2-1.4,1.8c-0.5-4.2-1.6-8.2-2.5-12.2
					C362-301.2,363.8-302,364.3-300.8L364.3-300.8z"/>
				<path class="st1" d="M341.5-245.6c0.6,3.8,0.3,7.6-0.3,11.3c-0.1,0.8-0.8,1.5-1.7,1.2c-3.5-1.4-7.1-3-10.2-5.1
					c-1.2-0.9,0-2.6,1.3-2c3.2,1.7,6.3,3.4,9.7,4.7c-0.5,0.4-1.1,0.8-1.6,1.2c0.6-3.7,0.6-7.4,0.8-11.1
					C339.6-246.6,341.3-246.8,341.5-245.6L341.5-245.6z"/>
				<path class="st1" d="M383.3-236.5c4.9,0.6,7.8,5.1,12.3,6.5c-0.6,0.6-1.1,1.1-1.7,1.7c-0.6-4.1-1.1-8.1-1.7-12.2
					c-0.2-1.1,1.5-1.7,2.2-0.9c2.3,2.5,4.8,4.7,7.6,6.6c-0.6,0.2-1.2,0.3-1.8,0.5c1.4-3.1,2.2-6.4,2.5-9.8c0-0.5,0.4-1.2,1-1.3
					c1.3-0.2,2.2,0.3,3,1.4c1.1,1.5,1.9,3.3,2.8,4.9c-0.7-0.1-1.4-0.2-2.1-0.3c1.7-2.1,3.4-4.2,5.1-6.2c1.1-1.3,2.9,0.6,1.9,1.9
					c-1.7,2.1-3.4,4.2-5.1,6.2c-0.5,0.7-1.7,0.4-2.1-0.3c-0.3-0.6-2.6-5.1-2.8-5.1c0.3-0.4,0.6-0.8,1-1.3c-0.3,3.9-1.3,7.6-2.9,11.1
					c-0.3,0.6-1.2,0.8-1.8,0.5c-3-2-5.7-4.4-8.1-7c0.7-0.4,1.5-0.9,2.2-1.3c0.6,3.9,1.1,7.9,1.7,11.8c0.1,0.9-0.6,2-1.7,1.7
					c-4.5-1.4-7.4-5.6-11.9-7C381.9-234.7,382.1-236.7,383.3-236.5L383.3-236.5z"/>
				<path class="st1" d="M325.1-296.4c-4.1-0.5-6.4-4.2-10.2-5.4c0.5-0.5,0.9-0.9,1.4-1.4c0.5,3.3,0.9,6.7,1.4,10
					c0.1,0.9-1.3,1.4-1.8,0.8c-1.9-2.1-3.9-3.9-6.2-5.5c0.5-0.1,1-0.3,1.5-0.4c-1.1,2.6-1.8,5.3-2.1,8.1c0,0.4-0.3,1-0.8,1
					c-1.1,0.2-1.8-0.2-2.5-1.1c-0.9-1.3-1.6-2.7-2.3-4c0.6,0.1,1.1,0.1,1.7,0.2c-1.4,1.7-2.8,3.5-4.2,5.1c-0.9,1.1-2.4-0.5-1.5-1.5
					c1.4-1.8,2.8-3.4,4.2-5.1c0.5-0.5,1.4-0.3,1.7,0.2c0.3,0.5,2.1,4.2,2.3,4.2c-0.3,0.3-0.5,0.7-0.8,1c0.3-3.2,1.1-6.2,2.4-9.1
					c0.2-0.5,1-0.7,1.5-0.4c2.4,1.7,4.7,3.6,6.7,5.8c-0.6,0.4-1.2,0.7-1.8,1.1c-0.5-3.2-0.9-6.5-1.4-9.7c-0.1-0.8,0.5-1.7,1.4-1.4
					c3.7,1.2,6.1,4.6,9.8,5.8C326.2-297.9,326.1-296.3,325.1-296.4L325.1-296.4z"/>
				<path class="st1" d="M353-165c2-5.2-0.6-10.1,0.4-15.3c-0.8,0.3-1.6,0.6-2.3,0.9c3.3,2.4,6.7,4.8,10,7.2c0.9,0.7,2.3-0.8,2-1.8
					c-1.1-3.4-1.8-6.9-2.1-10.6c-0.4,0.5-0.9,1-1.3,1.6c3.5,0,6.8,0.7,10,1.9c0.5,0.2,1.2,0.2,1.6-0.4c0.8-1.2,0.9-2.3,0.3-3.6
					c-0.8-1.8-2-3.4-2.9-5.1c-0.3,0.7-0.5,1.5-0.8,2.2c2.7-0.8,5.5-1.5,8.2-2.3c1.7-0.6,1-3.1-0.7-2.7c-2.7,0.7-5.5,1.6-8.2,2.3
					c-0.9,0.3-1.2,1.5-0.8,2.2c0.4,0.6,3.2,4.9,3.1,5.1c0.5-0.1,1.1-0.3,1.6-0.4c-3.6-1.4-7.4-2.1-11.4-2.1c-0.7,0-1.4,0.9-1.3,1.6
					c0.3,3.9,1,7.7,2.1,11.3c0.8-0.5,1.5-1.1,2.3-1.6c-3.2-2.4-6.5-4.7-9.7-7c-0.8-0.6-2.1-0.3-2.3,0.9c-1,5.2,1.3,10,0.2,15.1
					C350.6-164.4,352.5-163.6,353-165L353-165z"/>
				<path class="st1" d="M361.6-219.5c0.2,2.3,0.6,4.6,0.9,6.9c0.2,2.2,0.2,4.5,0.8,6.6c0.4,1.3,2.3,1,2.5-0.2c0.4-2.3,0-4.7-0.2-7
					c-0.3-2.3-0.6-4.7-1.4-6.9C363.7-221.6,361.5-221,361.6-219.5L361.6-219.5z"/>
				<path class="st1" d="M321.9-181.3c-2.1,1-4,2.3-6.1,3.4c-1.9,1.1-4,1.9-5.8,3.3c-1.1,0.8,0,2.5,1.2,2.2c2.3-0.5,4.4-1.8,6.4-2.9
					c2-1.1,4.1-2.4,5.8-3.9C324.6-180.2,323.2-182,321.9-181.3L321.9-181.3z"/>
				<path class="st1" d="M404.7-217.7c-1-3.9-5.1-5.7-8.8-5.2c-4.2,0.6-7.4,4.3-6.1,8.6c1.3,4.4,6.3,6.7,10.5,5.2
					c0.1,0,0.2-0.1,0.3-0.1C403.8-210.8,405.7-214.2,404.7-217.7z M399.4-211.5c-2.9,1.1-6.5-0.7-7.2-3.8c-0.7-3.1,2.1-5.1,4.9-5.1
					c2.4,0,4.8,1.1,5.3,3.6C402.8-214.5,401.4-212.4,399.4-211.5z"/>
				<path class="st1" d="M330.6-246.6c3.1-2.5,3.1-6.8,1.1-10c-2.2-3.5-6.8-4.9-10.2-2c-3.4,2.9-3.5,8.3-0.4,11.5
					c0.1,0.1,0.1,0.1,0.2,0.2C324-244.7,327.8-244.4,330.6-246.6z M322.8-248.9c-2.1-2.2-2-6.1,0.5-8c2.5-1.8,5.4-0.1,6.5,2.3
					c1,2.1,0.9,4.7-1.1,6.2C326.9-247,324.5-247.4,322.8-248.9z"/>
				<path class="st1" d="M392.7-178.7c-3.1-0.6-5.2-3.5-4.6-6.7c0.7-3.2,3.6-4.8,6.6-4.7c1.5,0,3.4,0.6,4.9-0.1
					c1.7-0.9,2.1-3.4,1.9-5.1c-0.6-4.5-4.5-6.2-8.6-6.2c-1.2,0-1.4-1.6-0.3-2.1c7.3-2.8,13.7,5.9,11,12.5c-1.5,3.6-4.6,3.8-8,3.6
					c-1.9-0.1-3.7,0-4.7,1.9c-1.1,2.1,0.3,4.4,2.4,5C394.4-180.3,394-178.5,392.7-178.7L392.7-178.7z"/>
				<path class="st1" d="M329.7-305.4c2.8-1.8,6.6-1.2,8.5,1.7s0.9,6.3-1.6,8.5c-1.2,1.1-3.1,2.1-3.6,3.7c-0.7,2,0.9,4.2,2.4,5.4
					c3.8,3,8.1,1.4,11.2-1.7c0.9-0.9,2.3,0.2,1.8,1.3c-3.5,7.6-14.9,5.7-17.7-1.4c-1.5-3.9,0.7-6.4,3.5-8.7c1.5-1.3,2.8-2.8,2.2-4.9
					c-0.7-2.4-3.5-3.2-5.6-2.1C329.6-303,328.6-304.7,329.7-305.4L329.7-305.4z"/>
				<path class="st1" d="M307.7-201.3c0.5-3.1,3.4-5.3,6.6-4.7s4.9,3.4,4.9,6.5c0,1.5-0.5,3.4,0.2,4.9c0.9,1.7,3.5,2.1,5.2,1.8
					c4.5-0.7,6.1-4.7,6-8.8c0-1.2,1.6-1.4,2-0.4c3,7.2-5.6,13.8-12.2,11.2c-3.6-1.4-3.9-4.5-3.7-8c0.1-1.9-0.1-3.7-2-4.6
					c-2.1-1-4.4,0.4-5,2.5C309.3-199.6,307.4-200.1,307.7-201.3L307.7-201.3z"/>
			</g>
			<g>
				<path class="st1" d="M253.9-277.7c-0.7,1.3-1.5,2.7-2.2,4c-0.4,0.7-0.8,1.3-1.2,2c-0.3,0.6-1.2,1.6-1.3,2.2
					c-0.1,0.7-0.3-0.2,0.1,0.3c0.2,0.2,0.7,0.4,1,0.5c0.7,0.4,1.4,0.7,2,1.1c1.4,0.8,2.9,1.5,4.4,2.2c0.6,0.3,0.7,1,0.3,1.5
					c-2.1,2.9-4.2,5.9-6.3,8.8c0-0.5-0.1-0.9-0.1-1.4c2.9,2.3,5.8,4.7,8.7,7c1.1,0.9-0.3,2.5-1.4,1.6c-2.9-2.4-5.7-4.7-8.6-7.1
					c-0.4-0.4-0.4-1-0.1-1.4c2.1-2.9,4.2-5.9,6.3-8.8c0.1,0.5,0.2,1,0.3,1.5c-1.9-0.9-3.8-1.9-5.7-2.8c-1.1-0.5-3-1.1-3.3-2.5
					c-0.3-1.4,1.4-3.2,2.1-4.3c1.1-1.8,2.2-3.6,3.3-5.4C252.9-279.5,254.5-278.7,253.9-277.7L253.9-277.7z"/>
				<path class="st1" d="M156.8-302c-0.8,0.5-0.8,1.6-0.4,2.4c0.5,0.9,1.6,1.2,2.4,0.6c0.9-0.6,0.9-1.9,0.3-2.7c0,0,0,0-0.1,0
					C158.4-302.3,157.5-302.5,156.8-302z"/>
				<path class="st1" d="M134.1-289.1c-0.8,0.5-0.8,1.6-0.4,2.4c0.5,0.9,1.6,1.2,2.4,0.6c0.9-0.6,0.9-1.9,0.3-2.7c0,0,0,0-0.1,0
					C135.7-289.4,134.8-289.6,134.1-289.1z"/>
				<path class="st1" d="M119.7-259.1c-0.8,0.5-0.8,1.6-0.4,2.4c0.5,0.9,1.6,1.2,2.4,0.6c0.9-0.6,0.9-1.9,0.3-2.7c0,0,0,0-0.1,0
					C121.3-259.5,120.4-259.6,119.7-259.1z"/>
				<path class="st1" d="M153.7-263.7c-0.8,0.5-0.8,1.6-0.4,2.4c0.5,0.9,1.6,1.2,2.4,0.6c0.9-0.6,0.9-1.9,0.3-2.7c0,0,0,0-0.1,0
					C155.3-264.1,154.4-264.2,153.7-263.7z"/>
				<path class="st1" d="M186.2-306.4c-0.8,0.5-0.8,1.6-0.4,2.4c0.5,0.9,1.6,1.2,2.4,0.6c0.9-0.6,0.9-1.9,0.3-2.7c0,0,0,0-0.1,0
					C187.8-306.7,186.9-306.8,186.2-306.4z"/>
				<path class="st1" d="M200.1-272.9c-0.8,0.5-0.8,1.6-0.4,2.4c0.5,0.9,1.6,1.2,2.4,0.6c0.9-0.6,0.9-1.9,0.3-2.7c0,0,0,0-0.1,0
					C201.7-273.2,200.8-273.3,200.1-272.9z"/>
				<path class="st1" d="M219.3-282c-0.8,0.5-0.8,1.6-0.4,2.4c0.5,0.9,1.6,1.2,2.4,0.6c0.9-0.6,0.9-1.9,0.3-2.7c0,0,0,0-0.1,0
					C220.9-282.3,220-282.5,219.3-282z"/>
				<path class="st1" d="M239.1-294.9c-0.8,0.5-0.8,1.6-0.4,2.4c0.5,0.9,1.6,1.2,2.4,0.6c0.9-0.6,0.9-1.9,0.3-2.7c0,0,0,0-0.1,0
					C240.7-295.3,239.8-295.4,239.1-294.9z"/>
				<path class="st1" d="M240.1-260.9c-0.8,0.5-0.8,1.6-0.4,2.4c0.5,0.9,1.6,1.2,2.4,0.6c0.9-0.6,0.9-1.9,0.3-2.7c0,0,0,0-0.1,0
					C241.7-261.3,240.8-261.4,240.1-260.9z"/>
				<path class="st1" d="M263.7-262.7c-0.8,0.5-0.8,1.6-0.4,2.4c0.5,0.9,1.6,1.2,2.4,0.6c0.9-0.6,0.9-1.9,0.3-2.7c0,0,0,0-0.1,0
					C265.3-263.1,264.4-263.2,263.7-262.7z"/>
				<path class="st1" d="M287.2-246.5c-0.8,0.5-0.8,1.6-0.4,2.4c0.5,0.9,1.6,1.2,2.4,0.6c0.9-0.6,0.9-1.9,0.3-2.7c0,0,0,0-0.1,0
					C288.8-246.9,287.9-247,287.2-246.5z"/>
				<path class="st1" d="M211.7-246.5c-0.8,0.5-0.8,1.6-0.4,2.4c0.5,0.9,1.6,1.2,2.4,0.6c0.9-0.6,0.9-1.9,0.3-2.7c0,0,0,0-0.1,0
					C213.2-246.9,212.3-247,211.7-246.5z"/>
				<path class="st1" d="M258.1-306.4c-0.8,0.5-0.8,1.6-0.4,2.4c0.5,0.9,1.6,1.2,2.4,0.6c0.9-0.6,0.9-1.9,0.3-2.7c0,0,0,0-0.1,0
					C259.7-306.7,258.8-306.8,258.1-306.4z"/>
				<path class="st1" d="M274.5-289.7c-0.8,0.5-0.8,1.6-0.4,2.4c0.5,0.9,1.6,1.2,2.4,0.6c0.9-0.6,0.9-1.9,0.3-2.7c0,0,0,0-0.1,0
					C276.1-290.1,275.2-290.2,274.5-289.7z"/>
				<path class="st1" d="M191.3-252.9c-0.8,0.5-0.8,1.6-0.4,2.4c0.5,0.9,1.6,1.2,2.4,0.6c0.9-0.6,0.9-1.9,0.3-2.7c0,0,0,0-0.1,0
					C192.9-253.3,192-253.4,191.3-252.9z"/>
				<path class="st1" d="M170.6-274.2c-0.8,0.5-0.8,1.6-0.4,2.4c0.5,0.9,1.6,1.2,2.4,0.6c0.9-0.6,0.9-1.9,0.3-2.7c0,0,0,0-0.1,0
					C172.2-274.5,171.3-274.7,170.6-274.2z"/>
				<path class="st1" d="M265.5-316.7c0.9,1.7,1.7,3.5,2.4,5.4c0.7,1.8,1.7,3.6,1.9,5.5c0.1,1.2-1.5,1.8-2.2,0.8
					c-1.1-1.5-1.6-3.3-2.2-5c-0.7-1.8-1.5-3.7-1.9-5.6C263.2-316.7,264.8-317.9,265.5-316.7L265.5-316.7z"/>
				<path class="st1" d="M189.8-289.4c0.6,1.5,1.4,2.8,2.2,4.2s1.5,2.9,2.6,4c0.7,0.7,1.9-0.1,1.6-1c-0.4-1.4-1.3-2.7-2.1-4
					c-0.8-1.4-1.6-2.8-2.6-4.1C191-290.9,189.4-290.5,189.8-289.4L189.8-289.4z"/>
				<path class="st1" d="M112.6-300c-0.7,1.4-1.1,3-1.6,4.5s-1.1,3-1.2,4.6c0,1,1.3,1.4,1.8,0.5c0.8-1.3,1.1-2.8,1.5-4.2
					c0.5-1.5,1-3.1,1.2-4.6C114.5-300.2,113.1-301.1,112.6-300L112.6-300z"/>
				<path class="st1" d="M165.1-291.3c0.6,1.5,1.4,2.8,2.2,4.2s1.5,2.9,2.6,4c0.7,0.7,1.9-0.1,1.6-1c-0.4-1.4-1.3-2.7-2.1-4
					c-0.8-1.4-1.6-2.8-2.6-4.1C166.3-292.8,164.7-292.4,165.1-291.3L165.1-291.3z"/>
				<path class="st1" d="M151.6-254.6c1.8,2.4,3.3,5.2,3.1,8.3c-0.2,2.7-1.8,5.1-4.1,6.4c-2.2,1.3-4.9,1.4-7.2,0.3
					c-2.1-1-4.6-3.4-4.3-5.9c0.1-1.1,1.5-1.3,2.1-0.5c1.2,1.5,1.5,3,3.4,3.9c1.7,0.8,3.6,0.6,5.2-0.5c3.8-2.8,1.8-7.4,0-10.8
					C149.1-254.6,150.9-255.5,151.6-254.6L151.6-254.6z"/>
				<path class="st1" d="M263.8-281c-2.7,0.2-5.4,0-7.6-1.7c-1.9-1.4-2.9-3.8-2.8-6.2c0.1-2.3,1.3-4.3,3.3-5.5
					c1.8-1.1,4.8-1.8,6.5-0.4c0.7,0.6,0.2,1.8-0.6,1.8c-1.6,0.2-3-0.3-4.5,0.6c-1.4,0.9-2.2,2.4-2.1,4.1c0.2,4.2,4.7,5,8,5.2
					C265.1-282.8,264.9-281.1,263.8-281L263.8-281z"/>
				<path class="st1" d="M160.7-280.9c-2.1,1.1-4.5,2-6.9,1.5c-2.1-0.5-3.8-2-4.6-4c-0.7-1.9-0.5-4,0.6-5.8c1-1.6,3.2-3.3,5.2-2.8
					c0.8,0.2,0.9,1.4,0.2,1.8c-1.3,0.8-2.6,0.9-3.5,2.2s-0.9,2.8-0.2,4.2c1.8,3.4,5.7,2.3,8.6,1.3
					C161-282.9,161.5-281.4,160.7-280.9L160.7-280.9z"/>
				<path class="st1" d="M232.6-309.5c1.6-2.1,3.5-4,6.2-4.6c2.3-0.5,4.7,0.3,6.4,1.9c1.6,1.6,2.4,3.8,2,6c-0.3,2-1.7,4.8-3.9,5.1
					c-0.9,0.2-1.5-1-1-1.7c0.9-1.3,2.1-2,2.4-3.8c0.3-1.7-0.4-3.2-1.7-4.3c-3.3-2.6-6.7,0.3-9.1,2.6
					C233.2-307.3,231.9-308.6,232.6-309.5L232.6-309.5z"/>
				<path class="st1" d="M169.1-302.2c-3.1-3.6-3.6-8.8-0.4-12.5c1.4-1.6,3.4-2.6,5.5-2.7c2.3-0.1,4.5,0.8,6.7,1.3s4.2,0.2,4.9-2.2
					c0.6-1.8,0.6-3.8,0.9-5.7c0.3-1.7,1-3.4,2.4-4.5c1.7-1.4,3.9-1.5,6-1.4c1.3,0,2.7,0.2,3.8-0.3c1.3-0.6,1.9-1.9,2.3-3.2
					c0.4-1.6,0.5-3.3,0.4-4.9c-0.1-1.7-0.8-3.2-1.1-4.8c-0.3-1.5,1.5-2.2,2.4-1c1.4,1.9,1.7,5,1.7,7.3c0,2.3-0.4,4.9-1.6,6.9
					c-1.1,1.9-2.9,2.8-5.1,3c-2.1,0.2-5-0.7-6.8,0.6c-1.4,1-1.6,3.2-1.8,4.8c-0.2,1.8-0.4,3.6-1.2,5.3c-2.1,4.3-6.7,3.3-10.5,2.3
					c-2.8-0.8-5.4-0.8-7.3,1.8c-1.9,2.7-1.2,6.1,0.4,8.8C171.4-302.4,169.9-301.2,169.1-302.2L169.1-302.2z"/>
				<path class="st1" d="M107.7-327.4c2.9-1.8,6.7-1.6,8.9,1.2c1,1.2,1.5,2.7,1.3,4.2c-0.2,1.6-1.1,3.1-1.7,4.6s-0.6,2.9,1,3.7
					c1.2,0.6,2.7,0.8,4,1.3c1.2,0.4,2.3,1.1,2.9,2.2c0.8,1.4,0.6,2.9,0.3,4.4c-0.2,0.9-0.5,1.9-0.2,2.8c0.2,1,1.1,1.6,2,2
					c1.1,0.5,2.3,0.8,3.4,0.8c1.2,0.1,2.3-0.2,3.5-0.2c1.1,0,1.4,1.3,0.4,1.8c-1.5,0.8-3.7,0.6-5.4,0.4c-1.6-0.3-3.4-0.9-4.7-1.9
					c-1.2-1-1.6-2.4-1.5-3.9s1.1-3.4,0.3-4.9c-0.6-1.1-2.1-1.5-3.2-1.8c-1.2-0.4-2.5-0.7-3.6-1.5c-2.8-2-1.6-5.1-0.4-7.7
					c0.9-1.9,1.2-3.8-0.4-5.4c-1.7-1.7-4.2-1.5-6.3-0.7C107.6-325.8,106.9-326.9,107.7-327.4L107.7-327.4z"/>
				<path class="st1" d="M154.6-320.2c0.6,3.8,0.3,7.6-0.3,11.3c-0.1,0.8-0.8,1.5-1.7,1.2c-3.5-1.4-7.1-3-10.2-5.1
					c-1.2-0.9,0-2.6,1.3-2c3.2,1.7,6.3,3.4,9.7,4.7c-0.5,0.4-1.1,0.8-1.6,1.2c0.6-3.7,0.6-7.4,0.8-11.1
					C152.6-321.1,154.4-321.3,154.6-320.2L154.6-320.2z"/>
				<path class="st1" d="M224.1-247.7c0-3.7,1-7.4,2.2-10.9c0.2-0.7,1-1.3,1.8-0.8c3.2,1.9,6.4,4.1,9,6.7c1,1-0.4,2.6-1.5,1.7
					c-2.8-2.2-5.5-4.3-8.6-6.2c0.6-0.3,1.2-0.6,1.8-0.8c-1.2,3.5-1.8,7-2.7,10.5C225.8-246.5,224.1-246.6,224.1-247.7L224.1-247.7z"
					/>
				<path class="st1" d="M286.8-318.4c0.8,2.5,1,5.1,1,7.7c0,0.5-0.4,1.1-1,1c-2.5-0.6-5.2-1.3-7.5-2.4c-0.9-0.5-0.3-1.8,0.7-1.5
					c2.4,0.8,4.6,1.6,7.1,2.2c-0.3,0.3-0.7,0.6-1,1c0-2.6-0.4-5.1-0.6-7.6C285.4-318.8,286.5-319.2,286.8-318.4L286.8-318.4z"/>
				<path class="st1" d="M245.1-285.6c-2.5,2.8-5.6,5-8.8,6.9c-0.6,0.4-1.6,0.3-1.9-0.5c-1.2-3.5-2.2-7.3-2.5-11
					c-0.1-1.5,2-1.7,2.3-0.3c0.7,3.5,1.4,6.9,2.5,10.3c-0.6-0.2-1.3-0.4-1.9-0.5c3.2-1.8,6-4.1,8.9-6.3
					C244.6-287.6,245.9-286.4,245.1-285.6L245.1-285.6z"/>
				<path class="st1" d="M196.4-311c4.9,0.6,7.8,5.1,12.3,6.5c-0.6,0.6-1.1,1.1-1.7,1.7c-0.6-4.1-1.1-8.1-1.7-12.2
					c-0.2-1.1,1.5-1.7,2.2-0.9c2.3,2.5,4.8,4.7,7.6,6.6c-0.6,0.2-1.2,0.3-1.8,0.5c1.4-3.1,2.2-6.4,2.5-9.8c0-0.5,0.4-1.2,1-1.3
					c1.3-0.2,2.2,0.3,3,1.4c1.1,1.5,1.9,3.3,2.8,4.9c-0.7-0.1-1.4-0.2-2.1-0.3c1.7-2.1,3.4-4.2,5.1-6.2c1.1-1.3,2.9,0.6,1.9,1.9
					c-1.7,2.1-3.4,4.2-5.1,6.2c-0.5,0.7-1.7,0.4-2.1-0.3c-0.3-0.6-2.6-5.1-2.8-5.1c0.3-0.4,0.6-0.8,1-1.3c-0.3,3.9-1.3,7.6-2.9,11.1
					c-0.3,0.6-1.2,0.8-1.8,0.5c-3-2-5.7-4.4-8.1-7c0.7-0.4,1.5-0.9,2.2-1.3c0.6,3.9,1.1,7.9,1.7,11.8c0.1,0.9-0.6,2-1.7,1.7
					c-4.5-1.4-7.4-5.6-11.9-7C195-309.2,195.1-311.2,196.4-311L196.4-311z"/>
				<path class="st1" d="M166.1-239.5c2-5.2-0.6-10.1,0.4-15.3c-0.8,0.3-1.6,0.6-2.3,0.9c3.3,2.4,6.7,4.8,10,7.2
					c0.9,0.7,2.3-0.8,2-1.8c-1.1-3.4-1.8-6.9-2.1-10.6c-0.4,0.5-0.9,1-1.3,1.6c3.5,0,6.8,0.7,10,1.9c0.5,0.2,1.2,0.2,1.6-0.4
					c0.8-1.2,0.9-2.3,0.3-3.6c-0.8-1.8-2-3.4-2.9-5.1c-0.3,0.7-0.5,1.5-0.8,2.2c2.7-0.8,5.5-1.5,8.2-2.3c1.7-0.6,1-3.1-0.7-2.7
					c-2.7,0.7-5.5,1.6-8.2,2.3c-0.9,0.3-1.2,1.5-0.8,2.2c0.4,0.6,3.2,4.9,3.1,5.1c0.5-0.1,1.1-0.3,1.6-0.4
					c-3.6-1.4-7.4-2.1-11.4-2.1c-0.7,0-1.4,0.9-1.3,1.6c0.3,3.9,1,7.7,2.1,11.3c0.8-0.5,1.5-1.1,2.3-1.6c-3.2-2.4-6.5-4.7-9.7-7
					c-0.8-0.6-2.1-0.3-2.3,0.9c-1,5.2,1.3,10,0.2,15.1C163.7-238.9,165.6-238.1,166.1-239.5L166.1-239.5z"/>
				<path class="st1" d="M174.6-294c0.2,2.3,0.6,4.6,0.9,6.9c0.2,2.2,0.2,4.5,0.8,6.6c0.4,1.3,2.3,1,2.5-0.2c0.4-2.3,0-4.7-0.2-7
					c-0.3-2.3-0.6-4.7-1.4-6.9C176.7-296.1,174.5-295.5,174.6-294L174.6-294z"/>
				<path class="st1" d="M236.4-274.1c-1.6-0.1-3.2,0.1-4.8,0.2c-1.6,0.1-3.2,0.1-4.7,0.6c-0.9,0.3-0.8,1.8,0.2,1.9
					c1.5,0.2,3-0.1,4.5-0.2c1.6-0.2,3.2-0.3,4.8-0.6C237.3-272.4,237.6-274.1,236.4-274.1L236.4-274.1z"/>
				<path class="st1" d="M237.1-271.2c-2.1,1-4,2.3-6.1,3.4c-1.9,1.1-4,1.9-5.8,3.3c-1.1,0.8,0,2.5,1.2,2.2c2.3-0.5,4.4-1.8,6.4-2.9
					s4.1-2.4,5.8-3.9C239.8-270,238.5-271.9,237.1-271.2L237.1-271.2z"/>
				<path class="st1" d="M285.8-255.9c-2.1,1-4,2.3-6.1,3.4c-1.9,1.1-4,1.9-5.8,3.3c-1.1,0.8,0,2.5,1.2,2.2c2.3-0.5,4.4-1.8,6.4-2.9
					c2-1.1,4.1-2.4,5.8-3.9C288.5-254.7,287.1-256.5,285.8-255.9L285.8-255.9z"/>
				<path class="st1" d="M294.1-303.2c-2.1,1-4,2.3-6.1,3.4c-1.9,1.1-4,1.9-5.8,3.3c-1.1,0.8,0,2.5,1.2,2.2c2.3-0.5,4.4-1.8,6.4-2.9
					s4.1-2.4,5.8-3.9C296.8-302.1,295.5-303.9,294.1-303.2L294.1-303.2z"/>
				<path class="st1" d="M135-255.9c-2.1,1-4,2.3-6.1,3.4c-1.9,1.1-4,1.9-5.8,3.3c-1.1,0.8,0,2.5,1.2,2.2c2.3-0.5,4.4-1.8,6.4-2.9
					c2-1.1,4.1-2.4,5.8-3.9C137.6-254.7,136.3-256.5,135-255.9L135-255.9z"/>
				<path class="st1" d="M217.8-292.3c-1-3.9-5.1-5.7-8.8-5.2c-4.2,0.6-7.4,4.3-6.1,8.6c1.3,4.4,6.3,6.7,10.5,5.2
					c0.1,0,0.2-0.1,0.3-0.1C216.9-285.3,218.7-288.8,217.8-292.3z M212.5-286c-2.9,1.1-6.5-0.7-7.2-3.8c-0.7-3.1,2.1-5.1,4.9-5.1
					c2.4,0,4.8,1.1,5.3,3.6C215.9-289,214.5-287,212.5-286z"/>
				<path class="st1" d="M205.8-253.2c-3.1-0.6-5.2-3.5-4.6-6.7c0.7-3.2,3.6-4.8,6.6-4.7c1.5,0,3.4,0.6,4.9-0.1
					c1.7-0.9,2.1-3.4,1.9-5.1c-0.6-4.5-4.5-6.2-8.6-6.2c-1.2,0-1.4-1.6-0.3-2.1c7.3-2.8,13.7,5.9,11,12.5c-1.5,3.6-4.6,3.8-8,3.6
					c-1.9-0.1-3.7,0-4.7,1.9c-1.1,2.1,0.3,4.4,2.4,5C207.5-254.8,207-253,205.8-253.2L205.8-253.2z"/>
				<path class="st1" d="M120.7-275.8c0.5-3.1,3.4-5.3,6.6-4.7c3.2,0.6,4.9,3.4,4.9,6.5c0,1.5-0.5,3.4,0.2,4.9
					c0.9,1.7,3.5,2.1,5.2,1.8c4.5-0.7,6.1-4.7,6-8.8c0-1.2,1.6-1.4,2-0.4c3,7.2-5.6,13.8-12.2,11.2c-3.6-1.4-3.9-4.5-3.7-8
					c0.1-1.9-0.1-3.7-2-4.6c-2.1-1-4.4,0.4-5,2.5C122.3-274.2,120.5-274.6,120.7-275.8L120.7-275.8z"/>
				<path class="st1" d="M267.9-275.8c0.5-3.1,3.4-5.3,6.6-4.7s4.9,3.4,4.9,6.5c0,1.5-0.5,3.4,0.2,4.9c0.9,1.7,3.5,2.1,5.2,1.8
					c4.5-0.7,6.1-4.7,6-8.8c0-1.2,1.6-1.4,2-0.4c3,7.2-5.6,13.8-12.2,11.2c-3.6-1.4-3.9-4.5-3.7-8c0.1-1.9-0.1-3.7-2-4.6
					c-2.1-1-4.4,0.4-5,2.5C269.5-274.2,267.7-274.6,267.9-275.8L267.9-275.8z"/>
			</g>
			<g>
				<path class="st1" d="M1.8-284.9c1.2,1.3,2.4,2.6,3.6,4c0.6,0.7,1.2,1.4,1.8,2c0.5,0.6,1.3,2,2,2.3c0.7,0.4-0.3,0.3,0.4,0
					c0.3-0.1,0.7-0.7,1-0.9c0.7-0.6,1.3-1.2,2-1.9c1.4-1.3,2.7-2.7,4.1-4.1c0.6-0.6,1.4-0.4,1.8,0.2c2.5,3.4,5,6.9,7.5,10.3
					c-0.5-0.1-1.1-0.3-1.6-0.4c3.7-2.4,7.4-4.7,11-7.1c1.4-0.9,2.6,1.3,1.3,2.1c-3.7,2.3-7.4,4.6-11.1,6.9c-0.6,0.4-1.2,0.1-1.6-0.4
					c-2.5-3.4-5-6.9-7.5-10.3c0.6,0.1,1.2,0.2,1.8,0.2c-1.8,1.8-3.5,3.5-5.3,5.3c-1,1-2.3,3-4,2.7c-1.6-0.2-3-2.7-4-3.9
					c-1.6-1.9-3.2-3.8-4.8-5.7C-0.6-284.4,0.8-286,1.8-284.9L1.8-284.9z"/>
				<path class="st1" d="M78.5-261.3c0.9-1.5,1.8-3.1,2.7-4.7c0.4-0.8,0.9-1.6,1.3-2.4c0.4-0.7,0.9-2.2,1.5-2.7s-0.4-0.2,0.4-0.1
					c0.3,0.1,0.9,0.5,1.2,0.7c0.8,0.5,1.5,0.9,2.3,1.4c1.6,1,3.2,2.1,4.8,3.1c0.7,0.4,1.4,0.1,1.7-0.6c1.7-3.9,3.5-7.7,5.2-11.6
					c-0.5,0.2-1,0.5-1.5,0.7c4.1,1.5,8.2,3.1,12.3,4.6c1.5,0.6,2.3-1.8,0.8-2.4c-4.1-1.5-8.2-3-12.3-4.5c-0.6-0.2-1.2,0.2-1.5,0.7
					c-1.7,3.9-3.5,7.8-5.2,11.6c0.6-0.2,1.1-0.4,1.7-0.6c-2.1-1.4-4.2-2.7-6.3-4.1c-1.2-0.8-2.9-2.4-4.5-1.9
					c-1.6,0.6-2.4,3.3-3.1,4.6c-1.2,2.2-2.4,4.3-3.5,6.6C76.1-261.3,77.8-260.1,78.5-261.3L78.5-261.3z"/>
				<path class="st1" d="M67-203.1c-0.7,1.3-1.5,2.7-2.2,4c-0.4,0.7-0.8,1.3-1.2,2c-0.3,0.6-1.2,1.6-1.3,2.2
					c-0.1,0.7-0.3-0.2,0.1,0.3c0.2,0.2,0.7,0.4,1,0.5c0.7,0.4,1.4,0.7,2,1.1c1.4,0.8,2.9,1.5,4.4,2.2c0.6,0.3,0.7,1,0.3,1.5
					c-2.1,2.9-4.2,5.9-6.3,8.8c0-0.5-0.1-0.9-0.1-1.4c2.9,2.3,5.8,4.7,8.7,7c1.1,0.9-0.3,2.5-1.4,1.6c-2.9-2.4-5.7-4.7-8.6-7.1
					c-0.4-0.4-0.4-1-0.1-1.4c2.1-2.9,4.2-5.9,6.3-8.8c0.1,0.5,0.2,1,0.3,1.5c-1.9-0.9-3.8-1.9-5.7-2.8c-1.1-0.5-3-1.1-3.3-2.5
					s1.4-3.2,2.1-4.3c1.1-1.8,2.2-3.6,3.3-5.4C66-205,67.6-204.2,67-203.1L67-203.1z"/>
				<path class="st1" d="M80-309.6c-0.8,0.5-0.8,1.6-0.4,2.4c0.5,0.9,1.6,1.2,2.4,0.6c0.9-0.6,0.9-1.9,0.3-2.7c0,0,0,0-0.1,0
					C81.6-310,80.7-310.1,80-309.6z"/>
				<path class="st1" d="M20.4-268.8c-0.8,0.5-0.8,1.6-0.4,2.4c0.5,0.9,1.6,1.2,2.4,0.6c0.9-0.6,0.9-1.9,0.3-2.7c0,0,0,0-0.1,0
					C22-269.2,21.1-269.3,20.4-268.8z"/>
				<path class="st1" d="M44.5-285c-0.8,0.5-0.8,1.6-0.4,2.4c0.5,0.9,1.6,1.2,2.4,0.6c0.9-0.6,0.9-1.9,0.3-2.7c0,0,0,0-0.1,0
					C46.1-285.3,45.2-285.5,44.5-285z"/>
				<path class="st1" d="M47.8-253.1c-0.8,0.5-0.8,1.6-0.4,2.4c0.5,0.9,1.6,1.2,2.4,0.6c0.9-0.6,0.9-1.9,0.3-2.7c0,0,0,0-0.1,0
					C49.4-253.4,48.5-253.6,47.8-253.1z"/>
				<path class="st1" d="M65.4-267.1c-0.8,0.5-0.8,1.6-0.4,2.4c0.5,0.9,1.6,1.2,2.4,0.6c0.9-0.6,0.9-1.9,0.3-2.7c0,0,0,0-0.1,0
					C67-267.5,66.1-267.6,65.4-267.1z"/>
				<path class="st1" d="M82.9-285.8c-0.8,0.5-0.8,1.6-0.4,2.4c0.5,0.9,1.6,1.2,2.4,0.6c0.9-0.7,0.9-1.9,0.3-2.7c0,0,0,0-0.1,0
					C84.5-286.1,83.6-286.3,82.9-285.8z"/>
				<path class="st1" d="M32.4-207.5c-0.8,0.5-0.8,1.6-0.4,2.4c0.5,0.9,1.6,1.2,2.4,0.6c0.9-0.6,0.9-1.9,0.3-2.7c0,0,0,0-0.1,0
					C34-207.8,33.1-207.9,32.4-207.5z"/>
				<path class="st1" d="M52.2-220.4c-0.8,0.5-0.8,1.6-0.4,2.4c0.5,0.9,1.6,1.2,2.4,0.6c0.9-0.6,0.9-1.9,0.3-2.7c0,0,0,0-0.1,0
					C53.8-220.7,52.9-220.9,52.2-220.4z"/>
				<path class="st1" d="M53.2-186.4c-0.8,0.5-0.8,1.6-0.4,2.4c0.5,0.9,1.6,1.2,2.4,0.6c0.9-0.6,0.9-1.9,0.3-2.7c0,0,0,0-0.1,0
					C54.8-186.8,53.9-186.9,53.2-186.4z"/>
				<path class="st1" d="M76.8-188.2c-0.8,0.5-0.8,1.6-0.4,2.4c0.5,0.9,1.6,1.2,2.4,0.6c0.9-0.6,0.9-1.9,0.3-2.7c0,0,0,0-0.1,0
					C78.4-188.5,77.5-188.7,76.8-188.2z"/>
				<path class="st1" d="M100.3-172c-0.8,0.5-0.8,1.6-0.4,2.4c0.5,0.9,1.6,1.2,2.4,0.6c0.9-0.6,0.9-1.9,0.3-2.7c0,0,0,0-0.1,0
					C101.9-172.4,101-172.5,100.3-172z"/>
				<path class="st1" d="M24.7-172c-0.8,0.5-0.8,1.6-0.4,2.4c0.5,0.9,1.6,1.2,2.4,0.6c0.9-0.6,0.9-1.9,0.3-2.7c0,0,0,0-0.1,0
					C26.3-172.4,25.4-172.5,24.7-172z"/>
				<path class="st1" d="M71.2-231.8c-0.8,0.5-0.8,1.6-0.4,2.4c0.5,0.9,1.6,1.2,2.4,0.6c0.9-0.6,0.9-1.9,0.3-2.7c0,0,0,0-0.1,0
					C72.7-232.2,71.8-232.3,71.2-231.8z"/>
				<path class="st1" d="M87.6-215.2c-0.8,0.5-0.8,1.6-0.4,2.4c0.5,0.9,1.6,1.2,2.4,0.6c0.9-0.6,0.9-1.9,0.3-2.7c0,0,0,0-0.1,0
					C89.2-215.6,88.3-215.7,87.6-215.2z"/>
				<path class="st1" d="M78.6-242.1c0.9,1.7,1.7,3.5,2.4,5.4c0.7,1.8,1.7,3.6,1.9,5.5c0.1,1.2-1.5,1.8-2.2,0.8
					c-1.1-1.5-1.6-3.3-2.2-5c-0.7-1.8-1.5-3.7-1.9-5.6C76.3-242.2,77.9-243.4,78.6-242.1L78.6-242.1z"/>
				<path class="st1" d="M50.4-273c-0.7,1.4-1.1,3-1.6,4.5s-1.1,3-1.2,4.6c0,1,1.3,1.4,1.8,0.5c0.8-1.3,1.1-2.8,1.5-4.2
					c0.5-1.5,1-3.1,1.2-4.6C52.3-273.2,50.9-274.1,50.4-273L50.4-273z"/>
				<path class="st1" d="M76.9-206.5c-2.7,0.2-5.4,0-7.6-1.7c-1.9-1.4-2.9-3.8-2.8-6.2c0.1-2.3,1.3-4.3,3.3-5.5
					c1.8-1.1,4.8-1.8,6.5-0.4c0.7,0.6,0.2,1.8-0.6,1.8c-1.6,0.2-3-0.3-4.5,0.6c-1.4,0.9-2.2,2.4-2.1,4.1c0.2,4.2,4.7,5,8,5.2
					C78.2-208.3,78-206.5,76.9-206.5L76.9-206.5z"/>
				<path class="st1" d="M45.7-235c1.6-2.1,3.5-4,6.2-4.6c2.3-0.5,4.7,0.3,6.4,1.9c1.6,1.6,2.4,3.8,2,6c-0.3,2-1.7,4.8-3.9,5.1
					c-0.9,0.2-1.5-1-1-1.7c0.9-1.3,2.1-2,2.4-3.8c0.3-1.7-0.4-3.2-1.7-4.3c-3.3-2.6-6.7,0.3-9.1,2.6C46.2-232.8,45-234.1,45.7-235
					L45.7-235z"/>
				<path class="st1" d="M101.2-255.6c-0.8,2.5-2,5-4.3,6.5c-2,1.3-4.5,1.3-6.7,0.4c-2-0.9-3.5-2.8-3.9-5c-0.4-2,0-5.1,2-6.2
					c0.8-0.5,1.7,0.4,1.5,1.2c-0.4,1.6-1.3,2.6-1,4.4c0.3,1.7,1.5,2.9,3,3.4c4,1.3,6.3-2.6,7.7-5.6
					C100-257.4,101.6-256.6,101.2-255.6L101.2-255.6z"/>
				<path class="st1" d="M72.9-272c3-3.2,3.3-7.9,0-10.9c-1.4-1.3-3.4-2.2-5.5-2.2c-2.3,0-4.4,0.8-6.6,1.3c-2.2,0.5-4.1,0.3-4.9-1.7
					c-0.7-1.6-0.7-3.3-1.1-5c-0.4-1.5-1.1-2.9-2.5-3.8c-1.7-1.2-3.9-1.2-5.9-1c-1.2,0.1-2.6,0.3-3.8-0.1c-1.3-0.4-1.9-1.6-2.3-2.8
					c-0.5-1.4-0.6-2.8-0.5-4.3s0.7-2.8,1-4.2c0.2-1.3-1.6-1.9-2.4-0.8c-1.3,1.7-1.5,4.4-1.5,6.4c0.1,2,0.6,4.3,1.8,6
					c1.2,1.6,3,2.3,5.1,2.5c2.1,0.1,4.9-0.8,6.8,0.3c1.4,0.8,1.6,2.7,1.9,4.1c0.3,1.6,0.5,3.2,1.3,4.6c2.2,3.7,6.7,2.7,10.5,1.6
					c2.7-0.8,5.3-0.8,7.2,1.3c2,2.3,1.4,5.3-0.1,7.7C70.7-272.1,72.2-271.1,72.9-272L72.9-272z"/>
				<path class="st1" d="M58.5-248.2c2.7-2.6,6-4.4,9.4-6c0.7-0.3,1.6-0.1,1.8,0.7c0.8,3.6,1.5,7.4,1.4,11.1c0,1.5-2.1,1.5-2.3,0
					c-0.4-3.5-0.7-7-1.5-10.5c0.6,0.2,1.2,0.5,1.8,0.7c-3.3,1.5-6.3,3.5-9.4,5.4C58.8-246.1,57.7-247.4,58.5-248.2L58.5-248.2z"/>
				<path class="st1" d="M37.1-173.2c0-3.7,1-7.4,2.2-10.9c0.2-0.7,1-1.3,1.8-0.8c3.2,1.9,6.4,4.1,9,6.7c1,1-0.4,2.6-1.5,1.7
					c-2.8-2.2-5.5-4.3-8.6-6.2c0.6-0.3,1.2-0.6,1.8-0.8c-1.2,3.5-1.8,7-2.7,10.5C38.9-172,37.1-172.1,37.1-173.2L37.1-173.2z"/>
				<path class="st1" d="M99.9-243.9c0.8,2.5,1,5.1,1,7.7c0,0.5-0.4,1.1-1,1c-2.5-0.6-5.2-1.3-7.5-2.4c-0.9-0.5-0.3-1.8,0.7-1.5
					c2.4,0.8,4.6,1.6,7.1,2.2c-0.3,0.3-0.7,0.6-1,1c0-2.6-0.4-5.1-0.6-7.6C98.4-244.3,99.6-244.6,99.9-243.9L99.9-243.9z"/>
				<path class="st1" d="M58.2-211.1c-2.5,2.8-5.6,5-8.8,6.9c-0.6,0.4-1.6,0.3-1.9-0.5c-1.2-3.5-2.2-7.3-2.5-11
					c-0.1-1.5,2-1.7,2.3-0.3c0.7,3.5,1.4,6.9,2.5,10.3c-0.6-0.2-1.3-0.4-1.9-0.5c3.2-1.8,6-4.1,8.9-6.3
					C57.7-213.1,59-211.9,58.2-211.1L58.2-211.1z"/>
				<path class="st1" d="M9.5-236.5c4.9,0.6,7.8,5.1,12.3,6.5c-0.6,0.6-1.1,1.1-1.7,1.7c-0.6-4.1-1.1-8.1-1.7-12.2
					c-0.2-1.1,1.5-1.7,2.2-0.9c2.3,2.5,4.8,4.7,7.6,6.6c-0.6,0.2-1.2,0.3-1.8,0.5c1.4-3.1,2.2-6.4,2.5-9.8c0-0.5,0.4-1.2,1-1.3
					c1.3-0.2,2.2,0.3,3,1.4c1.1,1.5,1.9,3.3,2.8,4.9c-0.7-0.1-1.4-0.2-2.1-0.3c1.7-2.1,3.4-4.2,5.1-6.2c1.1-1.3,2.9,0.6,1.9,1.9
					c-1.7,2.1-3.4,4.2-5.1,6.2c-0.5,0.7-1.7,0.4-2.1-0.3c-0.3-0.6-2.6-5.1-2.8-5.1c0.3-0.4,0.6-0.8,1-1.3c-0.3,3.9-1.3,7.6-2.9,11.1
					c-0.3,0.6-1.2,0.8-1.8,0.5c-3-2-5.7-4.4-8.1-7c0.7-0.4,1.5-0.9,2.2-1.3c0.6,3.9,1.1,7.9,1.7,11.8c0.1,0.9-0.6,2-1.7,1.7
					c-4.5-1.4-7.4-5.6-11.9-7C8.1-234.7,8.2-236.7,9.5-236.5L9.5-236.5z"/>
				<path class="st1" d="M105-299.7c-4.1-0.5-6.4-4.2-10.2-5.4c0.5-0.5,0.9-0.9,1.4-1.4c0.5,3.3,0.9,6.7,1.4,10
					c0.1,0.9-1.3,1.4-1.8,0.8c-1.9-2.1-3.9-3.9-6.2-5.5c0.5-0.1,1-0.3,1.5-0.4c-1.1,2.6-1.8,5.3-2.1,8.1c0,0.4-0.3,1-0.8,1
					c-1.1,0.2-1.8-0.2-2.5-1.1c-0.9-1.3-1.6-2.7-2.3-4c0.6,0.1,1.1,0.1,1.7,0.2c-1.4,1.7-2.8,3.5-4.2,5.1c-0.9,1.1-2.4-0.5-1.5-1.5
					c1.4-1.8,2.8-3.4,4.2-5.1c0.4-0.5,1.4-0.3,1.7,0.2c0.3,0.5,2.1,4.2,2.3,4.2c-0.3,0.3-0.5,0.7-0.8,1c0.3-3.2,1.1-6.2,2.4-9.1
					c0.2-0.5,1-0.7,1.5-0.4c2.4,1.7,4.7,3.6,6.7,5.8c-0.6,0.4-1.2,0.7-1.8,1.1c-0.5-3.2-0.9-6.5-1.4-9.7c-0.1-0.8,0.5-1.7,1.4-1.4
					c3.7,1.2,6.1,4.6,9.8,5.8C106.1-301.2,106-299.6,105-299.7L105-299.7z"/>
				<path class="st1" d="M53.4-272.5c0.2,2.3,0.6,4.6,0.9,6.9c0.2,2.2,0.2,4.5,0.8,6.6c0.4,1.3,2.3,1,2.5-0.2c0.4-2.3,0-4.7-0.2-7
					c-0.3-2.3-0.6-4.7-1.4-6.9C55.5-274.6,53.3-274,53.4-272.5L53.4-272.5z"/>
				<path class="st1" d="M20.7-300.8c1.3,1.9,2.8,3.7,4.2,5.6c1.3,1.8,2.4,3.8,4,5.3c1,0.9,2.5-0.3,2.1-1.4
					c-0.7-2.2-2.3-4.1-3.7-5.9c-1.4-1.9-2.9-3.8-4.6-5.3C21.5-303.6,19.9-302.1,20.7-300.8L20.7-300.8z"/>
				<path class="st1" d="M49.5-199.6c-1.6-0.1-3.2,0.1-4.8,0.2c-1.6,0.1-3.2,0.1-4.7,0.6c-0.9,0.3-0.8,1.8,0.2,1.9
					c1.5,0.2,3-0.1,4.5-0.2c1.6-0.2,3.2-0.3,4.8-0.6C50.4-197.9,50.7-199.6,49.5-199.6L49.5-199.6z"/>
				<path class="st1" d="M50.2-196.7c-2.1,1-4,2.3-6.1,3.4c-1.9,1.1-4,1.9-5.8,3.3c-1.1,0.8,0,2.5,1.2,2.2c2.3-0.5,4.4-1.8,6.4-2.9
					c2-1.1,4.1-2.4,5.8-3.9C52.9-195.5,51.6-197.4,50.2-196.7L50.2-196.7z"/>
				<path class="st1" d="M98.9-181.3c-2.1,1-4,2.3-6.1,3.4c-1.9,1.1-4,1.9-5.8,3.3c-1.1,0.8,0,2.5,1.2,2.2c2.3-0.5,4.4-1.8,6.4-2.9
					c2-1.1,4.1-2.4,5.8-3.9C101.6-180.2,100.2-182,98.9-181.3L98.9-181.3z"/>
				<path class="st1" d="M107.2-228.7c-2.1,1-4,2.3-6.1,3.4c-1.9,1.1-4,1.9-5.8,3.3c-1.1,0.8,0,2.5,1.2,2.2c2.3-0.5,4.4-1.8,6.4-2.9
					c2-1.1,4.1-2.4,5.8-3.9C109.9-227.6,108.6-229.4,107.2-228.7L107.2-228.7z"/>
				<path class="st1" d="M41.8-260.6c-1.1-4.3-5.7-6.4-9.9-5.8c-4.7,0.6-8.2,4.8-6.8,9.6c1.5,4.9,7,7.5,11.8,5.8
					c0.1,0,0.2-0.1,0.3-0.1C40.7-252.9,42.8-256.7,41.8-260.6z M35.8-253.7c-3.3,1.2-7.3-0.8-8.1-4.3c-0.8-3.4,2.4-5.7,5.5-5.7
					c2.7,0,5.3,1.3,5.9,4.1C39.6-257,38.1-254.7,35.8-253.7z"/>
				<path class="st1" d="M65.1-309.2c-1.5-3.5-5.5-4.8-9-3.8c-3.9,1.1-6.4,5-4.7,8.9c1.8,4,6.8,5.6,10.6,3.6c0.1,0,0.2-0.1,0.2-0.2
					C65.1-302.5,66.4-306,65.1-309.2z M60.8-302.6c-2.6,1.4-6.3,0.2-7.3-2.7c-1-2.8,1.4-5.1,4-5.5c2.2-0.3,4.7,0.5,5.5,2.8
					C63.7-305.9,62.7-303.7,60.8-302.6z"/>
				<path class="st1" d="M30.9-217.7c-1-3.9-5.1-5.7-8.8-5.2c-4.2,0.6-7.4,4.3-6.1,8.6c1.3,4.4,6.3,6.7,10.5,5.2
					c0.1,0,0.2-0.1,0.3-0.1C29.9-210.8,31.8-214.2,30.9-217.7z M25.5-211.5c-2.9,1.1-6.5-0.7-7.2-3.8c-0.7-3.1,2.1-5.1,4.9-5.1
					c2.4,0,4.8,1.1,5.3,3.6C29-214.5,27.6-212.4,25.5-211.5z"/>
				<path class="st1" d="M18.9-178.7c-3.1-0.6-5.2-3.5-4.6-6.7c0.7-3.2,3.6-4.8,6.6-4.7c1.5,0,3.4,0.6,4.9-0.1
					c1.7-0.9,2.1-3.4,1.9-5.1c-0.6-4.5-4.5-6.2-8.6-6.2c-1.2,0-1.4-1.6-0.3-2.1c7.3-2.8,13.7,5.9,11,12.5c-1.5,3.6-4.6,3.8-8,3.6
					c-1.9-0.1-3.7,0-4.7,1.9c-1.1,2.1,0.3,4.4,2.4,5C20.6-180.3,20.1-178.5,18.9-178.7L18.9-178.7z"/>
				<path class="st1" d="M81-201.3c0.5-3.1,3.4-5.3,6.6-4.7s4.9,3.4,4.9,6.5c0,1.5-0.5,3.4,0.2,4.9c0.9,1.7,3.5,2.1,5.2,1.8
					c4.5-0.7,6.1-4.7,6-8.8c0-1.2,1.6-1.4,2-0.4c3,7.2-5.6,13.8-12.2,11.2c-3.6-1.4-3.9-4.5-3.7-8c0.1-1.9-0.1-3.7-2-4.6
					c-2.1-1-4.4,0.4-5,2.5C82.6-199.6,80.8-200.1,81-201.3L81-201.3z"/>
			</g>
			<g>
				<path class="st1" d="M375.7-135.9c1.2,1.3,2.4,2.6,3.6,4c0.6,0.7,1.2,1.4,1.8,2c0.5,0.6,1.3,2,2,2.3c0.7,0.4-0.3,0.3,0.4,0
					c0.3-0.1,0.7-0.7,1-0.9c0.7-0.6,1.3-1.2,2-1.9c1.4-1.3,2.7-2.7,4.1-4.1c0.6-0.6,1.4-0.4,1.8,0.2c2.5,3.4,5,6.9,7.5,10.3
					c-0.5-0.1-1.1-0.3-1.6-0.4c3.7-2.4,7.4-4.7,11-7.1c1.4-0.9,2.6,1.3,1.3,2.1c-3.7,2.3-7.4,4.6-11.1,6.9c-0.6,0.4-1.2,0.1-1.6-0.4
					c-2.5-3.4-5-6.9-7.5-10.3c0.6,0.1,1.2,0.2,1.8,0.2c-1.8,1.8-3.5,3.5-5.3,5.3c-1,1-2.3,3-4,2.7c-1.6-0.2-3-2.7-4-3.9
					c-1.6-1.9-3.2-3.8-4.8-5.7C373.2-135.4,374.7-136.9,375.7-135.9L375.7-135.9z"/>
				<path class="st1" d="M303.1-112.3c0.9-1.5,1.8-3.1,2.7-4.7c0.4-0.8,0.9-1.6,1.3-2.4c0.4-0.7,0.9-2.2,1.5-2.7s-0.4-0.2,0.4-0.1
					c0.3,0.1,0.9,0.5,1.2,0.7c0.8,0.5,1.5,0.9,2.3,1.4c1.6,1,3.2,2.1,4.8,3.1c0.7,0.4,1.4,0.1,1.7-0.6c1.7-3.9,3.5-7.7,5.2-11.6
					c-0.5,0.2-1,0.5-1.5,0.7c4.1,1.5,8.2,3.1,12.3,4.6c1.5,0.6,2.3-1.8,0.8-2.4c-4.1-1.5-8.2-3-12.3-4.5c-0.6-0.2-1.2,0.2-1.5,0.7
					c-1.7,3.9-3.5,7.8-5.2,11.6c0.6-0.2,1.1-0.4,1.7-0.6c-2.1-1.4-4.2-2.7-6.3-4.1c-1.2-0.8-2.9-2.4-4.5-1.9
					c-1.6,0.6-2.4,3.3-3.1,4.6c-1.2,2.2-2.4,4.3-3.5,6.6C300.6-112.2,302.3-111.1,303.1-112.3L303.1-112.3z"/>
				<path class="st1" d="M360.7-103.5c-0.8,0.5-0.8,1.6-0.4,2.4c0.5,0.9,1.6,1.2,2.4,0.6c0.9-0.6,0.9-1.9,0.3-2.7c0,0,0,0-0.1,0
					C362.3-103.9,361.4-104,360.7-103.5z"/>
				<path class="st1" d="M336-116.3c-0.8,0.5-0.8,1.6-0.4,2.4c0.5,0.9,1.6,1.2,2.4,0.6c0.9-0.6,0.9-1.9,0.3-2.7c0,0,0,0-0.1,0
					C337.6-116.6,336.7-116.8,336-116.3z"/>
				<path class="st1" d="M343.7-78.4c-0.8,0.5-0.8,1.6-0.4,2.4c0.5,0.9,1.6,1.2,2.4,0.6c0.9-0.6,0.9-1.9,0.3-2.7c0,0,0,0-0.1,0
					C345.3-78.8,344.4-78.9,343.7-78.4z"/>
				<path class="st1" d="M364.7-128.9c-0.8,0.5-0.8,1.6-0.4,2.4c0.5,0.9,1.6,1.2,2.4,0.6c0.9-0.6,0.9-1.9,0.3-2.7c0,0,0,0-0.1,0
					C366.3-129.3,365.4-129.4,364.7-128.9z"/>
				<path class="st1" d="M349.5-154c-0.8,0.5-0.8,1.6-0.4,2.4c0.5,0.9,1.6,1.2,2.4,0.6c0.9-0.6,0.9-1.9,0.3-2.7c0,0,0,0-0.1,0
					C351.1-154.4,350.2-154.5,349.5-154z"/>
				<path class="st1" d="M385.3-139.5c-0.8,0.5-0.8,1.6-0.4,2.4c0.5,0.9,1.6,1.2,2.4,0.6c0.9-0.6,0.9-1.9,0.3-2.7c0,0,0,0-0.1,0
					C386.9-139.9,386-140,385.3-139.5z"/>
				<path class="st1" d="M321.1-65.5c-0.8,0.5-0.8,1.6-0.4,2.4c0.5,0.9,1.6,1.2,2.4,0.6c0.9-0.6,0.9-1.9,0.3-2.7c0,0,0,0-0.1,0
					C322.7-65.9,321.8-66,321.1-65.5z"/>
				<path class="st1" d="M306.6-35.6c-0.8,0.5-0.8,1.6-0.4,2.4c0.5,0.9,1.6,1.2,2.4,0.6c0.9-0.6,0.9-1.9,0.3-2.7c0,0,0,0-0.1,0
					C308.2-35.9,307.3-36.1,306.6-35.6z"/>
				<path class="st1" d="M340.6-40.2c-0.8,0.5-0.8,1.6-0.4,2.4c0.5,0.9,1.6,1.2,2.4,0.6c0.9-0.6,0.9-1.9,0.3-2.7c0,0,0,0-0.1,0
					C342.2-40.5,341.3-40.7,340.6-40.2z"/>
				<path class="st1" d="M373.1-82.8c-0.8,0.5-0.8,1.6-0.4,2.4c0.5,0.9,1.6,1.2,2.4,0.6c0.9-0.6,0.9-1.9,0.3-2.7c0,0,0,0-0.1,0
					C374.7-83.2,373.8-83.3,373.1-82.8z"/>
				<path class="st1" d="M387-49.3c-0.8,0.5-0.8,1.6-0.4,2.4c0.5,0.9,1.6,1.2,2.4,0.6c0.9-0.6,0.9-1.9,0.3-2.7c0,0,0,0-0.1,0
					C388.6-49.7,387.7-49.8,387-49.3z"/>
				<path class="st1" d="M378.2-29.4c-0.8,0.5-0.8,1.6-0.4,2.4c0.5,0.9,1.6,1.2,2.4,0.6c0.9-0.6,0.9-1.9,0.3-2.7c0,0,0,0-0.1,0
					C379.8-29.7,378.9-29.9,378.2-29.4z"/>
				<path class="st1" d="M357.5-50.6c-0.8,0.5-0.8,1.6-0.4,2.4c0.5,0.9,1.6,1.2,2.4,0.6c0.9-0.6,0.9-1.9,0.3-2.7c0,0,0,0-0.1,0
					C359.1-51,358.2-51.1,357.5-50.6z"/>
				<path class="st1" d="M376.8-65.8c0.6,1.5,1.4,2.8,2.2,4.2c0.8,1.4,1.5,2.9,2.6,4c0.7,0.7,1.9-0.1,1.6-1c-0.4-1.4-1.3-2.7-2.1-4
					c-0.8-1.4-1.6-2.8-2.6-4.1C377.9-67.4,376.3-66.9,376.8-65.8L376.8-65.8z"/>
				<path class="st1" d="M299.6-76.5c-0.7,1.4-1.1,3-1.6,4.5s-1.1,3-1.2,4.6c0,1,1.3,1.4,1.8,0.5c0.8-1.3,1.1-2.8,1.5-4.2
					c0.5-1.5,1-3.1,1.2-4.6C301.5-76.7,300.1-77.5,299.6-76.5L299.6-76.5z"/>
				<path class="st1" d="M352-67.7c0.6,1.5,1.4,2.8,2.2,4.2c0.8,1.4,1.5,2.9,2.6,4c0.7,0.7,1.9-0.1,1.6-1c-0.4-1.4-1.3-2.7-2.1-4
					c-0.8-1.4-1.6-2.8-2.6-4.1C353.2-69.2,351.6-68.8,352-67.7L352-67.7z"/>
				<path class="st1" d="M361.5-122.9c1.7,2.9,3,6.1,2.4,9.5c-0.5,2.9-2.6,5.4-5.4,6.6c-2.6,1.1-5.6,0.9-8-0.6
					c-2.2-1.4-4.7-4.3-4.1-7.1c0.3-1.2,1.8-1.3,2.4-0.3c1.1,1.7,1.3,3.5,3.2,4.7c1.8,1.1,3.9,1.1,5.8,0.1c4.6-2.6,2.9-8,1.4-12
					C358.8-123.3,360.9-124.1,361.5-122.9L361.5-122.9z"/>
				<path class="st1" d="M386.8-160.1c-2.7,0.4-5.3,1.1-7.2,3.2c-1.6,1.8-2.1,4.3-1.5,6.6c0.6,2.2,2.2,4,4.3,4.8
					c2,0.7,5.1,0.9,6.5-0.9c0.6-0.7-0.1-1.8-1-1.7c-1.6,0.2-2.9,0.9-4.6,0.3c-1.6-0.6-2.7-1.9-2.9-3.6c-0.6-4.2,3.6-5.8,6.9-6.8
					C388.4-158.5,387.9-160.2,386.8-160.1L386.8-160.1z"/>
				<path class="st1" d="M338.6-31c1.8,2.4,3.3,5.2,3.1,8.3c-0.2,2.7-1.8,5.1-4.1,6.4c-2.2,1.3-4.9,1.4-7.2,0.3
					c-2.1-1-4.6-3.4-4.3-5.9c0.1-1.1,1.5-1.3,2.1-0.5c1.2,1.5,1.5,3,3.4,3.9c1.7,0.8,3.6,0.6,5.2-0.5c3.8-2.8,1.8-7.4,0-10.8
					C336.1-31.1,337.8-32,338.6-31L338.6-31z"/>
				<path class="st1" d="M347.6-57.4c-2.1,1.1-4.5,2-6.9,1.5c-2.1-0.5-3.8-2-4.6-4c-0.7-1.9-0.5-4,0.6-5.8c1-1.6,3.2-3.3,5.2-2.8
					c0.8,0.2,0.9,1.4,0.2,1.8c-1.3,0.8-2.6,0.9-3.5,2.2c-0.9,1.3-0.9,2.8-0.2,4.2c1.8,3.4,5.7,2.3,8.6,1.3
					C347.9-59.4,348.4-57.8,347.6-57.4L347.6-57.4z"/>
				<path class="st1" d="M356-78.6c-3.1-3.6-3.6-8.8-0.4-12.5c1.4-1.6,3.4-2.6,5.5-2.7c2.3-0.1,4.5,0.8,6.7,1.3s4.2,0.2,4.9-2.2
					c0.6-1.8,0.6-3.8,0.9-5.7c0.3-1.7,1-3.4,2.4-4.5c1.7-1.4,3.9-1.5,6-1.4c1.3,0,2.7,0.2,3.8-0.3c1.3-0.6,1.9-1.9,2.3-3.2
					c0.4-1.6,0.5-3.3,0.4-4.9c-0.1-1.7-0.8-3.2-1.1-4.8c-0.3-1.5,1.5-2.2,2.4-1c1.4,1.9,1.7,5,1.7,7.3s-0.4,4.9-1.6,6.9
					c-1.1,1.9-2.9,2.8-5.1,3c-2.1,0.2-5-0.7-6.8,0.6c-1.4,1-1.6,3.2-1.8,4.8c-0.2,1.8-0.4,3.6-1.2,5.3c-2.1,4.3-6.7,3.3-10.5,2.3
					c-2.8-0.8-5.4-0.8-7.3,1.8c-1.9,2.7-1.2,6.1,0.4,8.8C358.3-78.9,356.8-77.7,356-78.6L356-78.6z"/>
				<path class="st1" d="M294.6-103.9c2.9-1.8,6.7-1.6,8.9,1.2c1,1.2,1.5,2.7,1.3,4.2c-0.2,1.6-1.1,3.1-1.7,4.6s-0.6,2.9,1,3.7
					c1.2,0.6,2.7,0.8,4,1.3c1.2,0.4,2.3,1.1,2.9,2.2c0.8,1.4,0.6,2.9,0.3,4.4c-0.2,0.9-0.5,1.9-0.2,2.8c0.2,1,1.1,1.6,2,2
					c1.1,0.5,2.3,0.8,3.4,0.8c1.2,0.1,2.3-0.2,3.5-0.2c1.1,0,1.4,1.3,0.4,1.8c-1.5,0.8-3.7,0.6-5.4,0.4c-1.6-0.3-3.4-0.9-4.7-1.9
					c-1.2-1-1.6-2.4-1.5-3.9s1.1-3.4,0.3-4.9c-0.6-1.1-2.1-1.5-3.2-1.8c-1.2-0.4-2.5-0.7-3.6-1.5c-2.8-2-1.6-5.1-0.4-7.7
					c0.9-1.9,1.2-3.8-0.4-5.4c-1.7-1.7-4.2-1.5-6.3-0.7C294.5-102.2,293.8-103.4,294.6-103.9L294.6-103.9z"/>
				<path class="st1" d="M364.3-151.8c1.8,3.9,2.7,8.1,3.2,12.4c0.1,0.8-0.4,1.8-1.4,1.8c-4.2-0.4-8.6-1-12.7-2.4
					c-1.6-0.6-0.9-2.9,0.8-2.5c4,0.9,7.9,1.7,12,2.1c-0.5,0.6-1,1.2-1.4,1.8c-0.5-4.2-1.6-8.2-2.5-12.2
					C362-152.2,363.8-153,364.3-151.8L364.3-151.8z"/>
				<path class="st1" d="M341.5-96.6c0.6,3.8,0.3,7.6-0.3,11.3c-0.1,0.8-0.8,1.5-1.7,1.2c-3.5-1.4-7.1-3-10.2-5.1
					c-1.2-0.9,0-2.6,1.3-2c3.2,1.7,6.3,3.4,9.7,4.7c-0.5,0.4-1.1,0.8-1.6,1.2c0.6-3.7,0.6-7.4,0.8-11.1
					C339.6-97.6,341.3-97.8,341.5-96.6L341.5-96.6z"/>
				<path class="st1" d="M383.3-87.5c4.9,0.6,7.8,5.1,12.3,6.5c-0.6,0.6-1.1,1.1-1.7,1.7c-0.6-4.1-1.1-8.1-1.7-12.2
					c-0.2-1.1,1.5-1.7,2.2-0.9c2.3,2.5,4.8,4.7,7.6,6.6c-0.6,0.2-1.2,0.3-1.8,0.5c1.4-3.1,2.2-6.4,2.5-9.8c0-0.5,0.4-1.2,1-1.3
					c1.3-0.2,2.2,0.3,3,1.4c1.1,1.5,1.9,3.3,2.8,4.9c-0.7-0.1-1.4-0.2-2.1-0.3c1.7-2.1,3.4-4.2,5.1-6.2c1.1-1.3,2.9,0.6,1.9,1.9
					c-1.7,2.1-3.4,4.2-5.1,6.2c-0.5,0.7-1.7,0.4-2.1-0.3c-0.3-0.6-2.6-5.1-2.8-5.1c0.3-0.4,0.6-0.8,1-1.3c-0.3,3.9-1.3,7.6-2.9,11.1
					c-0.3,0.6-1.2,0.8-1.8,0.5c-3-2-5.7-4.4-8.1-7c0.7-0.4,1.5-0.9,2.2-1.3c0.6,3.9,1.1,7.9,1.7,11.8c0.1,0.9-0.6,2-1.7,1.7
					c-4.5-1.4-7.4-5.6-11.9-7C381.9-85.7,382.1-87.7,383.3-87.5L383.3-87.5z"/>
				<path class="st1" d="M325.1-147.4c-4.1-0.5-6.4-4.2-10.2-5.4c0.5-0.5,0.9-0.9,1.4-1.4c0.5,3.3,0.9,6.7,1.4,10
					c0.1,0.9-1.3,1.4-1.8,0.8c-1.9-2.1-3.9-3.9-6.2-5.5c0.5-0.1,1-0.3,1.5-0.4c-1.1,2.6-1.8,5.3-2.1,8.1c0,0.4-0.3,1-0.8,1
					c-1.1,0.2-1.8-0.2-2.5-1.1c-0.9-1.3-1.6-2.7-2.3-4c0.6,0.1,1.1,0.1,1.7,0.2c-1.4,1.7-2.8,3.5-4.2,5.1c-0.9,1.1-2.4-0.5-1.5-1.5
					c1.4-1.8,2.8-3.4,4.2-5.1c0.5-0.5,1.4-0.3,1.7,0.2c0.3,0.5,2.1,4.2,2.3,4.2c-0.3,0.3-0.5,0.7-0.8,1c0.3-3.2,1.1-6.2,2.4-9.1
					c0.2-0.5,1-0.7,1.5-0.4c2.4,1.7,4.7,3.6,6.7,5.8c-0.6,0.4-1.2,0.7-1.8,1.1c-0.5-3.2-0.9-6.5-1.4-9.7c-0.1-0.8,0.5-1.7,1.4-1.4
					c3.7,1.2,6.1,4.6,9.8,5.8C326.2-148.9,326.1-147.3,325.1-147.4L325.1-147.4z"/>
				<path class="st1" d="M353-16c2-5.2-0.6-10.1,0.4-15.3c-0.8,0.3-1.6,0.6-2.3,0.9c3.3,2.4,6.7,4.8,10,7.2c0.9,0.7,2.3-0.8,2-1.8
					c-1.1-3.4-1.8-6.9-2.1-10.6c-0.4,0.5-0.9,1-1.3,1.6c3.5,0,6.8,0.7,10,1.9c0.5,0.2,1.2,0.2,1.6-0.4c0.8-1.2,0.9-2.3,0.3-3.6
					c-0.8-1.8-2-3.4-2.9-5.1c-0.3,0.7-0.5,1.5-0.8,2.2c2.7-0.8,5.5-1.5,8.2-2.3c1.7-0.6,1-3.1-0.7-2.7c-2.7,0.7-5.5,1.6-8.2,2.3
					c-0.9,0.3-1.2,1.5-0.8,2.2c0.4,0.6,3.2,4.9,3.1,5.1c0.5-0.1,1.1-0.3,1.6-0.4c-3.6-1.4-7.4-2.1-11.4-2.1c-0.7,0-1.4,0.9-1.3,1.6
					c0.3,3.9,1,7.7,2.1,11.3c0.8-0.5,1.5-1.1,2.3-1.6c-3.2-2.4-6.5-4.7-9.7-7c-0.8-0.6-2.1-0.3-2.3,0.9c-1,5.2,1.3,10,0.2,15.1
					C350.6-15.4,352.5-14.6,353-16L353-16z"/>
				<path class="st1" d="M361.6-70.5c0.2,2.3,0.6,4.6,0.9,6.9c0.2,2.2,0.2,4.5,0.8,6.6c0.4,1.3,2.3,1,2.5-0.2c0.4-2.3,0-4.7-0.2-7
					c-0.3-2.3-0.6-4.7-1.4-6.9C363.7-72.5,361.5-72,361.6-70.5L361.6-70.5z"/>
				<path class="st1" d="M321.9-32.3c-2.1,1-4,2.3-6.1,3.4c-1.9,1.1-4,1.9-5.8,3.3c-1.1,0.8,0,2.5,1.2,2.2c2.3-0.5,4.4-1.8,6.4-2.9
					s4.1-2.4,5.8-3.9C324.6-31.2,323.2-33,321.9-32.3L321.9-32.3z"/>
				<path class="st1" d="M404.7-68.7c-1-3.9-5.1-5.7-8.8-5.2c-4.2,0.6-7.4,4.3-6.1,8.6c1.3,4.4,6.3,6.7,10.5,5.2
					c0.1,0,0.2-0.1,0.3-0.1C403.8-61.8,405.7-65.2,404.7-68.7z M399.4-62.5c-2.9,1.1-6.5-0.7-7.2-3.8c-0.7-3.1,2.1-5.1,4.9-5.1
					c2.4,0,4.8,1.1,5.3,3.6C402.8-65.5,401.4-63.4,399.4-62.5z"/>
				<path class="st1" d="M330.6-97.6c3.1-2.5,3.1-6.8,1.1-10c-2.2-3.5-6.8-4.9-10.2-2c-3.4,2.9-3.5,8.3-0.4,11.5
					c0.1,0.1,0.1,0.1,0.2,0.2C324-95.7,327.8-95.3,330.6-97.6z M322.8-99.9c-2.1-2.2-2-6.1,0.5-8c2.5-1.8,5.4-0.1,6.5,2.3
					c1,2.1,0.9,4.7-1.1,6.2C326.9-98,324.5-98.4,322.8-99.9z"/>
				<path class="st1" d="M392.7-29.7c-3.1-0.6-5.2-3.5-4.6-6.7c0.7-3.2,3.6-4.8,6.6-4.7c1.5,0,3.4,0.6,4.9-0.1
					c1.7-0.9,2.1-3.4,1.9-5.1c-0.6-4.5-4.5-6.2-8.6-6.2c-1.2,0-1.4-1.6-0.3-2.1c7.3-2.8,13.7,5.9,11,12.5c-1.5,3.6-4.6,3.8-8,3.6
					c-1.9-0.1-3.7,0-4.7,1.9c-1.1,2.1,0.3,4.4,2.4,5C394.4-31.3,394-29.5,392.7-29.7L392.7-29.7z"/>
				<path class="st1" d="M329.7-156.4c2.8-1.8,6.6-1.2,8.5,1.7s0.9,6.3-1.6,8.5c-1.2,1.1-3.1,2.1-3.6,3.7c-0.7,2,0.9,4.2,2.4,5.4
					c3.8,3,8.1,1.4,11.2-1.7c0.9-0.9,2.3,0.2,1.8,1.3c-3.5,7.6-14.9,5.7-17.7-1.4c-1.5-3.9,0.7-6.4,3.5-8.7c1.5-1.3,2.8-2.8,2.2-4.9
					c-0.7-2.4-3.5-3.2-5.6-2.1C329.6-153.9,328.6-155.7,329.7-156.4L329.7-156.4z"/>
				<path class="st1" d="M307.7-52.3c0.5-3.1,3.4-5.3,6.6-4.7c3.2,0.6,4.9,3.4,4.9,6.5c0,1.5-0.5,3.4,0.2,4.9
					c0.9,1.7,3.5,2.1,5.2,1.8c4.5-0.7,6.1-4.7,6-8.8c0-1.2,1.6-1.4,2-0.4c3,7.2-5.6,13.8-12.2,11.2c-3.6-1.4-3.9-4.5-3.7-8
					c0.1-1.9-0.1-3.7-2-4.6c-2.1-1-4.4,0.4-5,2.5C309.3-50.6,307.4-51,307.7-52.3L307.7-52.3z"/>
			</g>
			<g>
				<path class="st1" d="M188.7-210.4c1.2,1.3,2.4,2.6,3.6,4c0.6,0.7,1.2,1.4,1.8,2c0.5,0.6,1.3,2,2,2.3c0.7,0.4-0.3,0.3,0.4,0
					c0.3-0.1,0.7-0.7,1-0.9c0.7-0.6,1.3-1.2,2-1.9c1.4-1.3,2.7-2.7,4.1-4.1c0.6-0.6,1.4-0.4,1.8,0.2c2.5,3.4,5,6.9,7.5,10.3
					c-0.5-0.1-1.1-0.3-1.6-0.4c3.7-2.4,7.4-4.7,11-7.1c1.4-0.9,2.6,1.3,1.3,2.1c-3.7,2.3-7.4,4.6-11.1,6.9c-0.6,0.4-1.2,0.1-1.6-0.4
					c-2.5-3.4-5-6.9-7.5-10.3c0.6,0.1,1.2,0.2,1.8,0.2c-1.8,1.8-3.5,3.5-5.3,5.3c-1,1-2.3,3-4,2.7c-1.6-0.2-3-2.7-4-3.9
					c-1.6-1.9-3.2-3.8-4.8-5.7C186.3-209.9,187.8-211.5,188.7-210.4L188.7-210.4z"/>
				<path class="st1" d="M265.5-186.8c0.9-1.5,1.8-3.1,2.7-4.7c0.4-0.8,0.9-1.6,1.3-2.4c0.4-0.7,0.9-2.2,1.5-2.7s-0.4-0.2,0.4-0.1
					c0.3,0.1,0.9,0.5,1.2,0.7c0.8,0.5,1.5,0.9,2.3,1.4c1.6,1,3.2,2.1,4.8,3.1c0.7,0.4,1.4,0.1,1.7-0.6c1.7-3.9,3.5-7.7,5.2-11.6
					c-0.5,0.2-1,0.5-1.5,0.7c4.1,1.5,8.2,3.1,12.3,4.6c1.5,0.6,2.3-1.8,0.8-2.4c-4.1-1.5-8.2-3-12.3-4.5c-0.6-0.2-1.2,0.2-1.5,0.7
					c-1.7,3.9-3.5,7.8-5.2,11.6c0.6-0.2,1.1-0.4,1.7-0.6c-2.1-1.4-4.2-2.7-6.3-4.1c-1.2-0.8-2.9-2.4-4.5-1.9
					c-1.6,0.6-2.4,3.3-3.1,4.6c-1.2,2.2-2.4,4.3-3.5,6.6C263-186.8,264.7-185.6,265.5-186.8L265.5-186.8z"/>
				<path class="st1" d="M116.1-186.8c0.9-1.5,1.8-3.1,2.7-4.7c0.4-0.8,0.9-1.6,1.3-2.4c0.4-0.7,0.9-2.2,1.5-2.7s-0.4-0.2,0.4-0.1
					c0.3,0.1,0.9,0.5,1.2,0.7c0.8,0.5,1.5,0.9,2.3,1.4c1.6,1,3.2,2.1,4.8,3.1c0.7,0.4,1.4,0.1,1.7-0.6c1.7-3.9,3.5-7.7,5.2-11.6
					c-0.5,0.2-1,0.5-1.5,0.7c4.1,1.5,8.2,3.1,12.3,4.6c1.5,0.6,2.3-1.8,0.8-2.4c-4.1-1.5-8.2-3-12.3-4.5c-0.6-0.2-1.2,0.2-1.5,0.7
					c-1.7,3.9-3.5,7.8-5.2,11.6c0.6-0.2,1.1-0.4,1.7-0.6c-2.1-1.4-4.2-2.7-6.3-4.1c-1.2-0.8-2.9-2.4-4.5-1.9
					c-1.6,0.6-2.4,3.3-3.1,4.6c-1.2,2.2-2.4,4.3-3.5,6.6C113.7-186.8,115.4-185.6,116.1-186.8L116.1-186.8z"/>
				<path class="st1" d="M253.9-128.6c-0.7,1.3-1.5,2.7-2.2,4c-0.4,0.7-0.8,1.3-1.2,2c-0.3,0.6-1.2,1.6-1.3,2.2
					c-0.1,0.7-0.3-0.2,0.1,0.3c0.2,0.2,0.7,0.4,1,0.5c0.7,0.4,1.4,0.7,2,1.1c1.4,0.8,2.9,1.5,4.4,2.2c0.6,0.3,0.7,1,0.3,1.5
					c-2.1,2.9-4.2,5.9-6.3,8.8c0-0.5-0.1-0.9-0.1-1.4c2.9,2.3,5.8,4.7,8.7,7c1.1,0.9-0.3,2.5-1.4,1.6c-2.9-2.4-5.7-4.7-8.6-7.1
					c-0.4-0.4-0.4-1-0.1-1.4c2.1-2.9,4.2-5.9,6.3-8.8c0.1,0.5,0.2,1,0.3,1.5c-1.9-0.9-3.8-1.9-5.7-2.8c-1.1-0.5-3-1.1-3.3-2.5
					s1.4-3.2,2.1-4.3c1.1-1.8,2.2-3.6,3.3-5.4C252.9-130.5,254.5-129.7,253.9-128.6L253.9-128.6z"/>
				<path class="st1" d="M173.8-178c-0.8,0.5-0.8,1.6-0.4,2.4c0.5,0.9,1.6,1.2,2.4,0.6c0.9-0.6,0.9-1.9,0.3-2.7c0,0,0,0-0.1,0
					C175.4-178.4,174.5-178.5,173.8-178z"/>
				<path class="st1" d="M149.1-190.8c-0.8,0.5-0.8,1.6-0.4,2.4c0.5,0.9,1.6,1.2,2.4,0.6c0.9-0.6,0.9-1.9,0.3-2.7c0,0,0,0-0.1,0
					C150.7-191.1,149.8-191.3,149.1-190.8z"/>
				<path class="st1" d="M156.8-153c-0.8,0.5-0.8,1.6-0.4,2.4c0.5,0.9,1.6,1.2,2.4,0.6c0.9-0.6,0.9-1.9,0.3-2.7c0,0,0,0-0.1,0
					C158.4-153.3,157.5-153.4,156.8-153z"/>
				<path class="st1" d="M177.8-203.4c-0.8,0.5-0.8,1.6-0.4,2.4c0.5,0.9,1.6,1.2,2.4,0.6c0.9-0.6,0.9-1.9,0.3-2.7c0,0,0,0-0.1,0
					C179.4-203.8,178.5-203.9,177.8-203.4z"/>
				<path class="st1" d="M162.6-228.5c-0.8,0.5-0.8,1.6-0.4,2.4c0.5,0.9,1.6,1.2,2.4,0.6c0.9-0.6,0.9-1.9,0.3-2.7c0,0,0,0-0.1,0
					C164.1-228.9,163.2-229,162.6-228.5z"/>
				<path class="st1" d="M266.9-235.1c-0.8,0.5-0.8,1.6-0.4,2.4c0.5,0.9,1.6,1.2,2.4,0.6c0.9-0.6,0.9-1.9,0.3-2.7c0,0,0,0-0.1,0
					C268.5-235.5,267.6-235.6,266.9-235.1z"/>
				<path class="st1" d="M207.3-194.3c-0.8,0.5-0.8,1.6-0.4,2.4c0.5,0.9,1.6,1.2,2.4,0.6c0.9-0.6,0.9-1.9,0.3-2.7c0,0,0,0-0.1,0
					C208.9-194.7,208-194.8,207.3-194.3z"/>
				<path class="st1" d="M198.4-214c-0.8,0.5-0.8,1.6-0.4,2.4c0.5,0.9,1.6,1.2,2.4,0.6c0.9-0.6,0.9-1.9,0.3-2.7c0,0,0,0-0.1,0
					C200-214.4,199.1-214.5,198.4-214z"/>
				<path class="st1" d="M231.4-210.5c-0.8,0.5-0.8,1.6-0.4,2.4c0.5,0.9,1.6,1.2,2.4,0.6c0.9-0.6,0.9-1.9,0.3-2.7c0,0,0,0-0.1,0
					C233-210.8,232.1-210.9,231.4-210.5z"/>
				<path class="st1" d="M234.7-178.6c-0.8,0.5-0.8,1.6-0.4,2.4c0.5,0.9,1.6,1.2,2.4,0.6c0.9-0.6,0.9-1.9,0.3-2.7c0,0,0,0-0.1,0
					C236.3-178.9,235.4-179.1,234.7-178.6z"/>
				<path class="st1" d="M252.3-192.6c-0.8,0.5-0.8,1.6-0.4,2.4c0.5,0.9,1.6,1.2,2.4,0.6c0.9-0.6,0.9-1.9,0.3-2.7c0,0,0,0-0.1,0
					C253.9-192.9,253-193.1,252.3-192.6z"/>
				<path class="st1" d="M269.8-211.2c-0.8,0.5-0.8,1.6-0.4,2.4c0.5,0.9,1.6,1.2,2.4,0.6c0.9-0.7,0.9-1.9,0.3-2.7c0,0,0,0-0.1,0
					C271.4-211.6,270.5-211.7,269.8-211.2z"/>
				<path class="st1" d="M134.1-140c-0.8,0.5-0.8,1.6-0.4,2.4c0.5,0.9,1.6,1.2,2.4,0.6c0.9-0.6,0.9-1.9,0.3-2.7c0,0,0,0-0.1,0
					C135.7-140.4,134.8-140.5,134.1-140z"/>
				<path class="st1" d="M119.7-110.1c-0.8,0.5-0.8,1.6-0.4,2.4c0.5,0.9,1.6,1.2,2.4,0.6c0.9-0.6,0.9-1.9,0.3-2.7c0,0,0,0-0.1,0
					C121.3-110.5,120.4-110.6,119.7-110.1z"/>
				<path class="st1" d="M153.7-114.7c-0.8,0.5-0.8,1.6-0.4,2.4c0.5,0.9,1.6,1.2,2.4,0.6c0.9-0.6,0.9-1.9,0.3-2.7c0,0,0,0-0.1,0
					C155.3-115,154.4-115.2,153.7-114.7z"/>
				<path class="st1" d="M186.2-157.3c-0.8,0.5-0.8,1.6-0.4,2.4c0.5,0.9,1.6,1.2,2.4,0.6c0.9-0.6,0.9-1.9,0.3-2.7c0,0,0,0-0.1,0
					C187.8-157.7,186.9-157.8,186.2-157.3z"/>
				<path class="st1" d="M200.1-123.8c-0.8,0.5-0.8,1.6-0.4,2.4c0.5,0.9,1.6,1.2,2.4,0.6c0.9-0.6,0.9-1.9,0.3-2.7c0,0,0,0-0.1,0
					C201.7-124.2,200.8-124.3,200.1-123.8z"/>
				<path class="st1" d="M219.3-132.9c-0.8,0.5-0.8,1.6-0.4,2.4c0.5,0.9,1.6,1.2,2.4,0.6c0.9-0.6,0.9-1.9,0.3-2.7c0,0,0,0-0.1,0
					C220.9-133.3,220-133.4,219.3-132.9z"/>
				<path class="st1" d="M239.1-145.9c-0.8,0.5-0.8,1.6-0.4,2.4c0.5,0.9,1.6,1.2,2.4,0.6c0.9-0.6,0.9-1.9,0.3-2.7c0,0,0,0-0.1,0
					C240.7-146.2,239.8-146.4,239.1-145.9z"/>
				<path class="st1" d="M240.1-111.9c-0.8,0.5-0.8,1.6-0.4,2.4c0.5,0.9,1.6,1.2,2.4,0.6c0.9-0.6,0.9-1.9,0.3-2.7c0,0,0,0-0.1,0
					C241.7-112.2,240.8-112.4,240.1-111.9z"/>
				<path class="st1" d="M263.7-113.7c-0.8,0.5-0.8,1.6-0.4,2.4c0.5,0.9,1.6,1.2,2.4,0.6c0.9-0.6,0.9-1.9,0.3-2.7c0,0,0,0-0.1,0
					C265.3-114,264.4-114.2,263.7-113.7z"/>
				<path class="st1" d="M287.2-97.5c-0.8,0.5-0.8,1.6-0.4,2.4c0.5,0.9,1.6,1.2,2.4,0.6c0.9-0.6,0.9-1.9,0.3-2.7c0,0,0,0-0.1,0
					C288.8-97.8,287.9-98,287.2-97.5z"/>
				<path class="st1" d="M211.7-97.5c-0.8,0.5-0.8,1.6-0.4,2.4c0.5,0.9,1.6,1.2,2.4,0.6c0.9-0.6,0.9-1.9,0.3-2.7c0,0,0,0-0.1,0
					C213.2-97.8,212.3-98,211.7-97.5z"/>
				<path class="st1" d="M258.1-157.3c-0.8,0.5-0.8,1.6-0.4,2.4c0.5,0.9,1.6,1.2,2.4,0.6c0.9-0.6,0.9-1.9,0.3-2.7c0,0,0,0-0.1,0
					C259.7-157.7,258.8-157.8,258.1-157.3z"/>
				<path class="st1" d="M274.5-140.7c-0.8,0.5-0.8,1.6-0.4,2.4c0.5,0.9,1.6,1.2,2.4,0.6c0.9-0.6,0.9-1.9,0.3-2.7c0,0,0,0-0.1,0
					C276.1-141.1,275.2-141.2,274.5-140.7z"/>
				<path class="st1" d="M191.3-103.9c-0.8,0.5-0.8,1.6-0.4,2.4c0.5,0.9,1.6,1.2,2.4,0.6c0.9-0.6,0.9-1.9,0.3-2.7c0,0,0,0-0.1,0
					C192.9-104.3,192-104.4,191.3-103.9z"/>
				<path class="st1" d="M170.6-125.2c-0.8,0.5-0.8,1.6-0.4,2.4c0.5,0.9,1.6,1.2,2.4,0.6c0.9-0.6,0.9-1.9,0.3-2.7c0,0,0,0-0.1,0
					C172.2-125.5,171.3-125.7,170.6-125.2z"/>
				<path class="st1" d="M265.5-167.6c0.9,1.7,1.7,3.5,2.4,5.4c0.7,1.8,1.7,3.6,1.9,5.5c0.1,1.2-1.5,1.8-2.2,0.8
					c-1.1-1.5-1.6-3.3-2.2-5c-0.7-1.8-1.5-3.7-1.9-5.6C263.2-167.7,264.8-168.9,265.5-167.6L265.5-167.6z"/>
				<path class="st1" d="M189.8-140.3c0.6,1.5,1.4,2.8,2.2,4.2s1.5,2.9,2.6,4c0.7,0.7,1.9-0.1,1.6-1c-0.4-1.4-1.3-2.7-2.1-4
					c-0.8-1.4-1.6-2.8-2.6-4.1C191-141.9,189.4-141.4,189.8-140.3L189.8-140.3z"/>
				<path class="st1" d="M237.3-198.5c-0.7,1.4-1.1,3-1.6,4.5s-1.1,3-1.2,4.6c0,1,1.3,1.4,1.8,0.5c0.8-1.3,1.1-2.8,1.5-4.2
					c0.5-1.5,1-3.1,1.2-4.6C239.2-198.7,237.8-199.5,237.3-198.5L237.3-198.5z"/>
				<path class="st1" d="M112.6-151c-0.7,1.4-1.1,3-1.6,4.5s-1.1,3-1.2,4.6c0,1,1.3,1.4,1.8,0.5c0.8-1.3,1.1-2.8,1.5-4.2
					c0.5-1.5,1-3.1,1.2-4.6C114.5-151.2,113.1-152.1,112.6-151L112.6-151z"/>
				<path class="st1" d="M165.1-142.2c0.6,1.5,1.4,2.8,2.2,4.2s1.5,2.9,2.6,4c0.7,0.7,1.9-0.1,1.6-1c-0.4-1.4-1.3-2.7-2.1-4
					c-0.8-1.4-1.6-2.8-2.6-4.1C166.3-143.8,164.7-143.3,165.1-142.2L165.1-142.2z"/>
				<path class="st1" d="M174.6-197.4c1.7,2.9,3,6.1,2.4,9.5c-0.5,2.9-2.6,5.4-5.4,6.6c-2.6,1.1-5.6,0.9-8-0.6
					c-2.2-1.4-4.7-4.3-4.1-7.1c0.3-1.2,1.8-1.3,2.4-0.3c1.1,1.7,1.3,3.5,3.2,4.7c1.8,1.1,3.9,1.1,5.8,0.1c4.6-2.6,2.9-8,1.4-12
					C171.9-197.8,173.9-198.6,174.6-197.4L174.6-197.4z"/>
				<path class="st1" d="M199.9-234.6c-2.7,0.4-5.3,1.1-7.2,3.2c-1.6,1.8-2.1,4.3-1.5,6.6c0.6,2.2,2.2,4,4.3,4.8
					c2,0.7,5.1,0.9,6.5-0.9c0.6-0.7-0.1-1.8-1-1.7c-1.6,0.2-2.9,0.9-4.6,0.3c-1.6-0.6-2.7-1.9-2.9-3.6c-0.6-4.2,3.6-5.8,6.9-6.8
					C201.5-233,200.9-234.7,199.9-234.6L199.9-234.6z"/>
				<path class="st1" d="M151.6-105.5c1.8,2.4,3.3,5.2,3.1,8.3c-0.2,2.7-1.8,5.1-4.1,6.4c-2.2,1.3-4.9,1.4-7.2,0.3
					c-2.1-1-4.6-3.4-4.3-5.9c0.1-1.1,1.5-1.3,2.1-0.5c1.2,1.5,1.5,3,3.4,3.9c1.7,0.8,3.6,0.6,5.2-0.5c3.8-2.8,1.8-7.4,0-10.8
					C149.1-105.6,150.9-106.5,151.6-105.5L151.6-105.5z"/>
				<path class="st1" d="M263.8-132c-2.7,0.2-5.4,0-7.6-1.7c-1.9-1.4-2.9-3.8-2.8-6.2c0.1-2.3,1.3-4.3,3.3-5.5
					c1.8-1.1,4.8-1.8,6.5-0.4c0.7,0.6,0.2,1.8-0.6,1.8c-1.6,0.2-3-0.3-4.5,0.6c-1.4,0.9-2.2,2.4-2.1,4.1c0.2,4.2,4.7,5,8,5.2
					C265.1-133.8,264.9-132,263.8-132L263.8-132z"/>
				<path class="st1" d="M160.7-131.9c-2.1,1.1-4.5,2-6.9,1.5c-2.1-0.5-3.8-2-4.6-4c-0.7-1.9-0.5-4,0.6-5.8c1-1.6,3.2-3.3,5.2-2.8
					c0.8,0.2,0.9,1.4,0.2,1.8c-1.3,0.8-2.6,0.9-3.5,2.2s-0.9,2.8-0.2,4.2c1.8,3.4,5.7,2.3,8.6,1.3
					C161-133.9,161.5-132.4,160.7-131.9L160.7-131.9z"/>
				<path class="st1" d="M232.6-160.5c1.6-2.1,3.5-4,6.2-4.6c2.3-0.5,4.7,0.3,6.4,1.9c1.6,1.6,2.4,3.8,2,6c-0.3,2-1.7,4.8-3.9,5.1
					c-0.9,0.2-1.5-1-1-1.7c0.9-1.3,2.1-2,2.4-3.8c0.3-1.7-0.4-3.2-1.7-4.3c-3.3-2.6-6.7,0.3-9.1,2.6
					C233.2-158.3,231.9-159.6,232.6-160.5L232.6-160.5z"/>
				<path class="st1" d="M288.2-181.1c-0.8,2.5-2,5-4.3,6.5c-2,1.3-4.5,1.3-6.7,0.4c-2-0.9-3.5-2.8-3.9-5c-0.4-2,0-5.1,2-6.2
					c0.8-0.5,1.7,0.4,1.5,1.2c-0.4,1.6-1.3,2.6-1,4.4c0.3,1.7,1.5,2.9,3,3.4c4,1.3,6.3-2.6,7.7-5.6
					C286.9-182.9,288.5-182.1,288.2-181.1L288.2-181.1z"/>
				<path class="st1" d="M169.1-153.1c-3.1-3.6-3.6-8.8-0.4-12.5c1.4-1.6,3.4-2.6,5.5-2.7c2.3-0.1,4.5,0.8,6.7,1.3s4.2,0.2,4.9-2.2
					c0.6-1.8,0.6-3.8,0.9-5.7c0.3-1.7,1-3.4,2.4-4.5c1.7-1.4,3.9-1.5,6-1.4c1.3,0,2.7,0.2,3.8-0.3c1.3-0.6,1.9-1.9,2.3-3.2
					c0.4-1.6,0.5-3.3,0.4-4.9c-0.1-1.7-0.8-3.2-1.1-4.8c-0.3-1.5,1.5-2.2,2.4-1c1.4,1.9,1.7,5,1.7,7.3s-0.4,4.9-1.6,6.9
					c-1.1,1.9-2.9,2.8-5.1,3c-2.1,0.2-5-0.7-6.8,0.6c-1.4,1-1.6,3.2-1.8,4.8c-0.2,1.8-0.4,3.6-1.2,5.3c-2.1,4.3-6.7,3.3-10.5,2.3
					c-2.8-0.8-5.4-0.8-7.3,1.8c-1.9,2.7-1.2,6.1,0.4,8.8C171.4-153.4,169.9-152.2,169.1-153.1L169.1-153.1z"/>
				<path class="st1" d="M107.7-178.4c2.9-1.8,6.7-1.6,8.9,1.2c1,1.2,1.5,2.7,1.3,4.2c-0.2,1.6-1.1,3.1-1.7,4.6s-0.6,2.9,1,3.7
					c1.2,0.6,2.7,0.8,4,1.3c1.2,0.4,2.3,1.1,2.9,2.2c0.8,1.4,0.6,2.9,0.3,4.4c-0.2,0.9-0.5,1.9-0.2,2.8c0.2,1,1.1,1.6,2,2
					c1.1,0.5,2.3,0.8,3.4,0.8c1.2,0.1,2.3-0.2,3.5-0.2c1.1,0,1.4,1.3,0.4,1.8c-1.5,0.8-3.7,0.6-5.4,0.4c-1.6-0.3-3.4-0.9-4.7-1.9
					c-1.2-1-1.6-2.4-1.5-3.9s1.1-3.4,0.3-4.9c-0.6-1.1-2.1-1.5-3.2-1.8c-1.2-0.4-2.5-0.7-3.6-1.5c-2.8-2-1.6-5.1-0.4-7.7
					c0.9-1.9,1.2-3.8-0.4-5.4c-1.7-1.7-4.2-1.5-6.3-0.7C107.6-176.7,106.9-177.9,107.7-178.4L107.7-178.4z"/>
				<path class="st1" d="M259.9-197.5c3-3.2,3.3-7.9,0-10.9c-1.4-1.3-3.4-2.2-5.5-2.2c-2.3,0-4.4,0.8-6.6,1.3
					c-2.2,0.5-4.1,0.3-4.9-1.7c-0.7-1.6-0.7-3.3-1.1-5c-0.4-1.5-1.1-2.9-2.5-3.8c-1.7-1.2-3.9-1.2-5.9-1c-1.2,0.1-2.6,0.3-3.8-0.1
					c-1.3-0.4-1.9-1.6-2.3-2.8c-0.5-1.4-0.6-2.8-0.5-4.3s0.7-2.8,1-4.2c0.2-1.3-1.6-1.9-2.4-0.8c-1.3,1.7-1.5,4.4-1.5,6.4
					c0.1,2,0.6,4.3,1.8,6c1.2,1.6,3,2.3,5.1,2.5c2.1,0.1,4.9-0.8,6.8,0.3c1.4,0.8,1.6,2.7,1.9,4.1c0.3,1.6,0.5,3.2,1.3,4.6
					c2.2,3.7,6.7,2.7,10.5,1.6c2.7-0.8,5.3-0.8,7.2,1.3c2,2.3,1.4,5.3-0.1,7.7C257.6-197.6,259.1-196.6,259.9-197.5L259.9-197.5z"/>
				<path class="st1" d="M177.4-226.3c1.8,3.9,2.7,8.1,3.2,12.4c0.1,0.8-0.4,1.8-1.4,1.8c-4.2-0.4-8.6-1-12.7-2.4
					c-1.6-0.6-0.9-2.9,0.8-2.5c4,0.9,7.9,1.7,12,2.1c-0.5,0.6-1,1.2-1.4,1.8c-0.5-4.2-1.6-8.2-2.5-12.2
					C175-226.7,176.9-227.5,177.4-226.3L177.4-226.3z"/>
				<path class="st1" d="M154.6-171.1c0.6,3.8,0.3,7.6-0.3,11.3c-0.1,0.8-0.8,1.5-1.7,1.2c-3.5-1.4-7.1-3-10.2-5.1
					c-1.2-0.9,0-2.6,1.3-2c3.2,1.7,6.3,3.4,9.7,4.7c-0.5,0.4-1.1,0.8-1.6,1.2c0.6-3.7,0.6-7.4,0.8-11.1
					C152.6-172.1,154.4-172.3,154.6-171.1L154.6-171.1z"/>
				<path class="st1" d="M245.5-173.6c2.7-2.6,6-4.4,9.4-6c0.7-0.3,1.6-0.1,1.8,0.7c0.8,3.6,1.5,7.4,1.4,11.1c0,1.5-2.1,1.5-2.3,0
					c-0.4-3.5-0.7-7-1.5-10.5c0.6,0.2,1.2,0.5,1.8,0.7c-3.3,1.5-6.3,3.5-9.4,5.4C245.7-171.6,244.6-172.9,245.5-173.6L245.5-173.6z"
					/>
				<path class="st1" d="M224.1-98.7c0-3.7,1-7.4,2.2-10.9c0.2-0.7,1-1.3,1.8-0.8c3.2,1.9,6.4,4.1,9,6.7c1,1-0.4,2.6-1.5,1.7
					c-2.8-2.2-5.5-4.3-8.6-6.2c0.6-0.3,1.2-0.6,1.8-0.8c-1.2,3.5-1.8,7-2.7,10.5C225.8-97.5,224.1-97.6,224.1-98.7L224.1-98.7z"/>
				<path class="st1" d="M286.8-169.4c0.8,2.5,1,5.1,1,7.7c0,0.5-0.4,1.1-1,1c-2.5-0.6-5.2-1.3-7.5-2.4c-0.9-0.5-0.3-1.8,0.7-1.5
					c2.4,0.8,4.6,1.6,7.1,2.2c-0.3,0.3-0.7,0.6-1,1c0-2.6-0.4-5.1-0.6-7.6C285.4-169.8,286.5-170.1,286.8-169.4L286.8-169.4z"/>
				<path class="st1" d="M245.1-136.5c-2.5,2.8-5.6,5-8.8,6.9c-0.6,0.4-1.6,0.3-1.9-0.5c-1.2-3.5-2.2-7.3-2.5-11
					c-0.1-1.5,2-1.7,2.3-0.3c0.7,3.5,1.4,6.9,2.5,10.3c-0.6-0.2-1.3-0.4-1.9-0.5c3.2-1.8,6-4.1,8.9-6.3
					C244.6-138.6,245.9-137.4,245.1-136.5L245.1-136.5z"/>
				<path class="st1" d="M196.4-162c4.9,0.6,7.8,5.1,12.3,6.5c-0.6,0.6-1.1,1.1-1.7,1.7c-0.6-4.1-1.1-8.1-1.7-12.2
					c-0.2-1.1,1.5-1.7,2.2-0.9c2.3,2.5,4.8,4.7,7.6,6.6c-0.6,0.2-1.2,0.3-1.8,0.5c1.4-3.1,2.2-6.4,2.5-9.8c0-0.5,0.4-1.2,1-1.3
					c1.3-0.2,2.2,0.3,3,1.4c1.1,1.5,1.9,3.3,2.8,4.9c-0.7-0.1-1.4-0.2-2.1-0.3c1.7-2.1,3.4-4.2,5.1-6.2c1.1-1.3,2.9,0.6,1.9,1.9
					c-1.7,2.1-3.4,4.2-5.1,6.2c-0.5,0.7-1.7,0.4-2.1-0.3c-0.3-0.6-2.6-5.1-2.8-5.1c0.3-0.4,0.6-0.8,1-1.3c-0.3,3.9-1.3,7.6-2.9,11.1
					c-0.3,0.6-1.2,0.8-1.8,0.5c-3-2-5.7-4.4-8.1-7c0.7-0.4,1.5-0.9,2.2-1.3c0.6,3.9,1.1,7.9,1.7,11.8c0.1,0.9-0.6,2-1.7,1.7
					c-4.5-1.4-7.4-5.6-11.9-7C195-160.2,195.1-162.2,196.4-162L196.4-162z"/>
				<path class="st1" d="M291.9-225.2c-4.1-0.5-6.4-4.2-10.2-5.4c0.5-0.5,0.9-0.9,1.4-1.4c0.5,3.3,0.9,6.7,1.4,10
					c0.1,0.9-1.3,1.4-1.8,0.8c-1.9-2.1-3.9-3.9-6.2-5.5c0.5-0.1,1-0.3,1.5-0.4c-1.1,2.6-1.8,5.3-2.1,8.1c0,0.4-0.3,1-0.8,1
					c-1.1,0.2-1.8-0.2-2.5-1.1c-0.9-1.3-1.6-2.7-2.3-4c0.6,0.1,1.1,0.1,1.7,0.2c-1.4,1.7-2.8,3.5-4.2,5.1c-0.9,1.1-2.4-0.5-1.5-1.5
					c1.4-1.8,2.8-3.4,4.2-5.1c0.4-0.5,1.4-0.3,1.7,0.2c0.3,0.5,2.1,4.2,2.3,4.2c-0.3,0.3-0.5,0.7-0.8,1c0.3-3.2,1.1-6.2,2.4-9.1
					c0.2-0.5,1-0.7,1.5-0.4c2.4,1.7,4.7,3.6,6.7,5.8c-0.6,0.4-1.2,0.7-1.8,1.1c-0.5-3.2-0.9-6.5-1.4-9.7c-0.1-0.8,0.5-1.7,1.4-1.4
					c3.7,1.2,6.1,4.6,9.8,5.8C293.1-226.7,292.9-225.1,291.9-225.2L291.9-225.2z"/>
				<path class="st1" d="M138.1-221.9c-4.1-0.5-6.4-4.2-10.2-5.4c0.5-0.5,0.9-0.9,1.4-1.4c0.5,3.3,0.9,6.7,1.4,10
					c0.1,0.9-1.3,1.4-1.8,0.8c-1.9-2.1-3.9-3.9-6.2-5.5c0.5-0.1,1-0.3,1.5-0.4c-1.1,2.6-1.8,5.3-2.1,8.1c0,0.4-0.3,1-0.8,1
					c-1.1,0.2-1.8-0.2-2.5-1.1c-0.9-1.3-1.6-2.7-2.3-4c0.6,0.1,1.1,0.1,1.7,0.2c-1.4,1.7-2.8,3.5-4.2,5.1c-0.9,1.1-2.4-0.5-1.5-1.5
					c1.4-1.8,2.8-3.4,4.2-5.1c0.5-0.5,1.4-0.3,1.7,0.2c0.3,0.5,2.1,4.2,2.3,4.2c-0.3,0.3-0.5,0.7-0.8,1c0.3-3.2,1.1-6.2,2.4-9.1
					c0.2-0.5,1-0.7,1.5-0.4c2.4,1.7,4.7,3.6,6.7,5.8c-0.6,0.4-1.2,0.7-1.8,1.1c-0.5-3.2-0.9-6.5-1.4-9.7c-0.1-0.8,0.5-1.7,1.4-1.4
					c3.7,1.2,6.1,4.6,9.8,5.8C139.3-223.4,139.2-221.8,138.1-221.9L138.1-221.9z"/>
				<path class="st1" d="M166.1-90.5c2-5.2-0.6-10.1,0.4-15.3c-0.8,0.3-1.6,0.6-2.3,0.9c3.3,2.4,6.7,4.8,10,7.2
					c0.9,0.7,2.3-0.8,2-1.8c-1.1-3.4-1.8-6.9-2.1-10.6c-0.4,0.5-0.9,1-1.3,1.6c3.5,0,6.8,0.7,10,1.9c0.5,0.2,1.2,0.2,1.6-0.4
					c0.8-1.2,0.9-2.3,0.3-3.6c-0.8-1.8-2-3.4-2.9-5.1c-0.3,0.7-0.5,1.5-0.8,2.2c2.7-0.8,5.5-1.5,8.2-2.3c1.7-0.6,1-3.1-0.7-2.7
					c-2.7,0.7-5.5,1.6-8.2,2.3c-0.9,0.3-1.2,1.5-0.8,2.2c0.4,0.6,3.2,4.9,3.1,5.1c0.5-0.1,1.1-0.3,1.6-0.4
					c-3.6-1.4-7.4-2.1-11.4-2.1c-0.7,0-1.4,0.9-1.3,1.6c0.3,3.9,1,7.7,2.1,11.3c0.8-0.5,1.5-1.1,2.3-1.6c-3.2-2.4-6.5-4.7-9.7-7
					c-0.8-0.6-2.1-0.3-2.3,0.9c-1,5.2,1.3,10,0.2,15.1C163.7-89.9,165.6-89.1,166.1-90.5L166.1-90.5z"/>
				<path class="st1" d="M174.6-145c0.2,2.3,0.6,4.6,0.9,6.9c0.2,2.2,0.2,4.5,0.8,6.6c0.4,1.3,2.3,1,2.5-0.2c0.4-2.3,0-4.7-0.2-7
					c-0.3-2.3-0.6-4.7-1.4-6.9C176.7-147.1,174.5-146.5,174.6-145L174.6-145z"/>
				<path class="st1" d="M240.3-198c0.2,2.3,0.6,4.6,0.9,6.9c0.2,2.2,0.2,4.5,0.8,6.6c0.4,1.3,2.3,1,2.5-0.2c0.4-2.3,0-4.7-0.2-7
					c-0.3-2.3-0.6-4.7-1.4-6.9C242.4-200,240.2-199.5,240.3-198L240.3-198z"/>
				<path class="st1" d="M207.6-226.3c1.3,1.9,2.8,3.7,4.2,5.6c1.3,1.8,2.4,3.8,4,5.3c1,0.9,2.5-0.3,2.1-1.4
					c-0.7-2.2-2.3-4.1-3.7-5.9c-1.4-1.9-2.9-3.8-4.6-5.3C208.5-229.1,206.8-227.6,207.6-226.3L207.6-226.3z"/>
				<path class="st1" d="M236.4-125.1c-1.6-0.1-3.2,0.1-4.8,0.2c-1.6,0.1-3.2,0.1-4.7,0.6c-0.9,0.3-0.8,1.8,0.2,1.9
					c1.5,0.2,3-0.1,4.5-0.2c1.6-0.2,3.2-0.3,4.8-0.6C237.3-123.4,237.6-125.1,236.4-125.1L236.4-125.1z"/>
				<path class="st1" d="M237.1-122.2c-2.1,1-4,2.3-6.1,3.4c-1.9,1.1-4,1.9-5.8,3.3c-1.1,0.8,0,2.5,1.2,2.2c2.3-0.5,4.4-1.8,6.4-2.9
					c2-1.1,4.1-2.4,5.8-3.9C239.8-121,238.5-122.8,237.1-122.2L237.1-122.2z"/>
				<path class="st1" d="M285.8-106.8c-2.1,1-4,2.3-6.1,3.4c-1.9,1.1-4,1.9-5.8,3.3c-1.1,0.8,0,2.5,1.2,2.2c2.3-0.5,4.4-1.8,6.4-2.9
					c2-1.1,4.1-2.4,5.8-3.9C288.5-105.7,287.1-107.5,285.8-106.8L285.8-106.8z"/>
				<path class="st1" d="M294.1-154.2c-2.1,1-4,2.3-6.1,3.4c-1.9,1.1-4,1.9-5.8,3.3c-1.1,0.8,0,2.5,1.2,2.2c2.3-0.5,4.4-1.8,6.4-2.9
					c2-1.1,4.1-2.4,5.8-3.9C296.8-153,295.5-154.9,294.1-154.2L294.1-154.2z"/>
				<path class="st1" d="M135-106.8c-2.1,1-4,2.3-6.1,3.4c-1.9,1.1-4,1.9-5.8,3.3c-1.1,0.8,0,2.5,1.2,2.2c2.3-0.5,4.4-1.8,6.4-2.9
					c2-1.1,4.1-2.4,5.8-3.9C137.6-105.7,136.3-107.5,135-106.8L135-106.8z"/>
				<path class="st1" d="M228.7-186.1c-1.1-4.3-5.7-6.4-9.9-5.8c-4.7,0.6-8.2,4.8-6.8,9.6c1.5,4.9,7,7.5,11.8,5.8
					c0.1,0,0.2-0.1,0.3-0.1C227.6-178.4,229.7-182.2,228.7-186.1z M222.7-179.2c-3.3,1.2-7.3-0.8-8.1-4.3c-0.8-3.4,2.4-5.7,5.5-5.7
					c2.7,0,5.3,1.3,5.9,4.1C226.5-182.5,225-180.2,222.7-179.2z"/>
				<path class="st1" d="M252-234.7c-1.5-3.5-5.5-4.8-9-3.8c-3.9,1.1-6.4,5-4.7,8.9c1.8,4,6.8,5.6,10.6,3.6c0.1,0,0.2-0.1,0.2-0.2
					C252-228,253.4-231.5,252-234.7z M247.7-228.1c-2.6,1.4-6.3,0.2-7.3-2.7c-1-2.8,1.4-5.1,4-5.5c2.2-0.3,4.7,0.5,5.5,2.8
					C250.6-231.4,249.6-229.2,247.7-228.1z"/>
				<path class="st1" d="M217.8-143.2c-1-3.9-5.1-5.7-8.8-5.2c-4.2,0.6-7.4,4.3-6.1,8.6c1.3,4.4,6.3,6.7,10.5,5.2
					c0.1,0,0.2-0.1,0.3-0.1C216.9-136.3,218.7-139.7,217.8-143.2z M212.5-137c-2.9,1.1-6.5-0.7-7.2-3.8s2.1-5.1,4.9-5.1
					c2.4,0,4.8,1.1,5.3,3.6C215.9-140,214.5-137.9,212.5-137z"/>
				<path class="st1" d="M143.7-172.1c3.1-2.5,3.1-6.8,1.1-10c-2.2-3.5-6.8-4.9-10.2-2s-3.5,8.3-0.4,11.5c0.1,0.1,0.1,0.1,0.2,0.2
					C137.1-170.2,140.9-169.9,143.7-172.1z M135.9-174.4c-2.1-2.2-2-6.1,0.5-8c2.5-1.8,5.4-0.1,6.5,2.3c1,2.1,0.9,4.7-1.1,6.2
					C140-172.5,137.6-172.9,135.9-174.4z"/>
				<path class="st1" d="M205.8-104.2c-3.1-0.6-5.2-3.5-4.6-6.7c0.7-3.2,3.6-4.8,6.6-4.7c1.5,0,3.4,0.6,4.9-0.1
					c1.7-0.9,2.1-3.4,1.9-5.1c-0.6-4.5-4.5-6.2-8.6-6.2c-1.2,0-1.4-1.6-0.3-2.1c7.3-2.8,13.7,5.9,11,12.5c-1.5,3.6-4.6,3.8-8,3.6
					c-1.9-0.1-3.7,0-4.7,1.9c-1.1,2.1,0.3,4.4,2.4,5C207.5-105.8,207-104,205.8-104.2L205.8-104.2z"/>
				<path class="st1" d="M142.8-230.9c2.8-1.8,6.6-1.2,8.5,1.7c1.9,2.9,0.9,6.3-1.6,8.5c-1.2,1.1-3.1,2.1-3.6,3.7
					c-0.7,2,0.9,4.2,2.4,5.4c3.8,3,8.1,1.4,11.2-1.7c0.9-0.9,2.3,0.2,1.8,1.3c-3.5,7.6-14.9,5.7-17.7-1.4c-1.5-3.9,0.7-6.4,3.5-8.7
					c1.5-1.3,2.8-2.8,2.2-4.9c-0.7-2.4-3.5-3.2-5.6-2.1C142.7-228.4,141.7-230.2,142.8-230.9L142.8-230.9z"/>
				<path class="st1" d="M120.7-126.8c0.5-3.1,3.4-5.3,6.6-4.7c3.2,0.6,4.9,3.4,4.9,6.5c0,1.5-0.5,3.4,0.2,4.9
					c0.9,1.7,3.5,2.1,5.2,1.8c4.5-0.7,6.1-4.7,6-8.8c0-1.2,1.6-1.4,2-0.4c3,7.2-5.6,13.8-12.2,11.2c-3.6-1.4-3.9-4.5-3.7-8
					c0.1-1.9-0.1-3.7-2-4.6c-2.1-1-4.4,0.4-5,2.5C122.3-125.1,120.5-125.6,120.7-126.8L120.7-126.8z"/>
				<path class="st1" d="M267.9-126.8c0.5-3.1,3.4-5.3,6.6-4.7s4.9,3.4,4.9,6.5c0,1.5-0.5,3.4,0.2,4.9c0.9,1.7,3.5,2.1,5.2,1.8
					c4.5-0.7,6.1-4.7,6-8.8c0-1.2,1.6-1.4,2-0.4c3,7.2-5.6,13.8-12.2,11.2c-3.6-1.4-3.9-4.5-3.7-8c0.1-1.9-0.1-3.7-2-4.6
					c-2.1-1-4.4,0.4-5,2.5C269.5-125.1,267.7-125.6,267.9-126.8L267.9-126.8z"/>
			</g>
			<g>
				<path class="st1" d="M1.8-135.9c1.2,1.3,2.4,2.6,3.6,4c0.6,0.7,1.2,1.4,1.8,2c0.5,0.6,1.3,2,2,2.3c0.7,0.4-0.3,0.3,0.4,0
					c0.3-0.1,0.7-0.7,1-0.9c0.7-0.6,1.3-1.2,2-1.9c1.4-1.3,2.7-2.7,4.1-4.1c0.6-0.6,1.4-0.4,1.8,0.2c2.5,3.4,5,6.9,7.5,10.3
					c-0.5-0.1-1.1-0.3-1.6-0.4c3.7-2.4,7.4-4.7,11-7.1c1.4-0.9,2.6,1.3,1.3,2.1c-3.7,2.3-7.4,4.6-11.1,6.9c-0.6,0.4-1.2,0.1-1.6-0.4
					c-2.5-3.4-5-6.9-7.5-10.3c0.6,0.1,1.2,0.2,1.8,0.2c-1.8,1.8-3.5,3.5-5.3,5.3c-1,1-2.3,3-4,2.7c-1.6-0.2-3-2.7-4-3.9
					c-1.6-1.9-3.2-3.8-4.8-5.7C-0.6-135.4,0.8-136.9,1.8-135.9L1.8-135.9z"/>
				<path class="st1" d="M78.5-112.3c0.9-1.5,1.8-3.1,2.7-4.7c0.4-0.8,0.9-1.6,1.3-2.4c0.4-0.7,0.9-2.2,1.5-2.7s-0.4-0.2,0.4-0.1
					c0.3,0.1,0.9,0.5,1.2,0.7c0.8,0.5,1.5,0.9,2.3,1.4c1.6,1,3.2,2.1,4.8,3.1c0.7,0.4,1.4,0.1,1.7-0.6c1.7-3.9,3.5-7.7,5.2-11.6
					c-0.5,0.2-1,0.5-1.5,0.7c4.1,1.5,8.2,3.1,12.3,4.6c1.5,0.6,2.3-1.8,0.8-2.4c-4.1-1.5-8.2-3-12.3-4.5c-0.6-0.2-1.2,0.2-1.5,0.7
					c-1.7,3.9-3.5,7.8-5.2,11.6c0.6-0.2,1.1-0.4,1.7-0.6c-2.1-1.4-4.2-2.7-6.3-4.1c-1.2-0.8-2.9-2.4-4.5-1.9
					c-1.6,0.6-2.4,3.3-3.1,4.6c-1.2,2.2-2.4,4.3-3.5,6.6C76.1-112.2,77.8-111.1,78.5-112.3L78.5-112.3z"/>
				<path class="st1" d="M67-54.1c-0.7,1.3-1.5,2.7-2.2,4c-0.4,0.7-0.8,1.3-1.2,2c-0.3,0.6-1.2,1.6-1.3,2.2
					c-0.1,0.7-0.3-0.2,0.1,0.3c0.2,0.2,0.7,0.4,1,0.5c0.7,0.4,1.4,0.7,2,1.1c1.4,0.8,2.9,1.5,4.4,2.2c0.6,0.3,0.7,1,0.3,1.5
					c-2.1,2.9-4.2,5.9-6.3,8.8c0-0.5-0.1-0.9-0.1-1.4c2.9,2.3,5.8,4.7,8.7,7c1.1,0.9-0.3,2.5-1.4,1.6c-2.9-2.4-5.7-4.7-8.6-7.1
					c-0.4-0.4-0.4-1-0.1-1.4c2.1-2.9,4.2-5.9,6.3-8.8c0.1,0.5,0.2,1,0.3,1.5C67-41,65.1-42,63.2-42.9c-1.1-0.5-3-1.1-3.3-2.5
					s1.4-3.2,2.1-4.3c1.1-1.8,2.2-3.6,3.3-5.4C66-56,67.6-55.2,67-54.1L67-54.1z"/>
				<path class="st1" d="M80-160.6c-0.8,0.5-0.8,1.6-0.4,2.4c0.5,0.9,1.6,1.2,2.4,0.6c0.9-0.6,0.9-1.9,0.3-2.7c0,0,0,0-0.1,0
					C81.6-161,80.7-161.1,80-160.6z"/>
				<path class="st1" d="M20.4-119.8c-0.8,0.5-0.8,1.6-0.4,2.4c0.5,0.9,1.6,1.2,2.4,0.6c0.9-0.6,0.9-1.9,0.3-2.7c0,0,0,0-0.1,0
					C22-120.1,21.1-120.3,20.4-119.8z"/>
				<path class="st1" d="M44.5-135.9c-0.8,0.5-0.8,1.6-0.4,2.4c0.5,0.9,1.6,1.2,2.4,0.6c0.9-0.6,0.9-1.9,0.3-2.7c0,0,0,0-0.1,0
					C46.1-136.3,45.2-136.4,44.5-135.9z"/>
				<path class="st1" d="M47.8-104.1c-0.8,0.5-0.8,1.6-0.4,2.4c0.5,0.9,1.6,1.2,2.4,0.6c0.9-0.6,0.9-1.9,0.3-2.7c0,0,0,0-0.1,0
					C49.4-104.4,48.5-104.6,47.8-104.1z"/>
				<path class="st1" d="M65.4-118.1c-0.8,0.5-0.8,1.6-0.4,2.4c0.5,0.9,1.6,1.2,2.4,0.6c0.9-0.6,0.9-1.9,0.3-2.7c0,0,0,0-0.1,0
					C67-118.4,66.1-118.6,65.4-118.1z"/>
				<path class="st1" d="M82.9-136.7c-0.8,0.5-0.8,1.6-0.4,2.4c0.5,0.9,1.6,1.2,2.4,0.6c0.9-0.7,0.9-1.9,0.3-2.7c0,0,0,0-0.1,0
					C84.5-137.1,83.6-137.2,82.9-136.7z"/>
				<path class="st1" d="M32.4-58.4c-0.8,0.5-0.8,1.6-0.4,2.4c0.5,0.9,1.6,1.2,2.4,0.6c0.9-0.6,0.9-1.9,0.3-2.7c0,0,0,0-0.1,0
					C34-58.8,33.1-58.9,32.4-58.4z"/>
				<path class="st1" d="M52.2-71.4c-0.8,0.5-0.8,1.6-0.4,2.4c0.5,0.9,1.6,1.2,2.4,0.6c0.9-0.6,0.9-1.9,0.3-2.7c0,0,0,0-0.1,0
					C53.8-71.7,52.9-71.9,52.2-71.4z"/>
				<path class="st1" d="M53.2-37.4c-0.8,0.5-0.8,1.6-0.4,2.4c0.5,0.9,1.6,1.2,2.4,0.6c0.9-0.6,0.9-1.9,0.3-2.7c0,0,0,0-0.1,0
					C54.8-37.7,53.9-37.9,53.2-37.4z"/>
				<path class="st1" d="M76.8-39.2c-0.8,0.5-0.8,1.6-0.4,2.4c0.5,0.9,1.6,1.2,2.4,0.6c0.9-0.6,0.9-1.9,0.3-2.7c0,0,0,0-0.1,0
					C78.4-39.5,77.5-39.7,76.8-39.2z"/>
				<path class="st1" d="M100.3-23c-0.8,0.5-0.8,1.6-0.4,2.4c0.5,0.9,1.6,1.2,2.4,0.6c0.9-0.6,0.9-1.9,0.3-2.7c0,0,0,0-0.1,0
					C101.9-23.3,101-23.5,100.3-23z"/>
				<path class="st1" d="M24.7-23c-0.8,0.5-0.8,1.6-0.4,2.4c0.5,0.9,1.6,1.2,2.4,0.6c0.9-0.6,0.9-1.9,0.3-2.7c0,0,0,0-0.1,0
					C26.3-23.3,25.4-23.5,24.7-23z"/>
				<path class="st1" d="M71.2-82.8c-0.8,0.5-0.8,1.6-0.4,2.4c0.5,0.9,1.6,1.2,2.4,0.6c0.9-0.6,0.9-1.9,0.3-2.7c0,0,0,0-0.1,0
					C72.7-83.2,71.8-83.3,71.2-82.8z"/>
				<path class="st1" d="M87.6-66.2c-0.8,0.5-0.8,1.6-0.4,2.4c0.5,0.9,1.6,1.2,2.4,0.6c0.9-0.6,0.9-1.9,0.3-2.7c0,0,0,0-0.1,0
					C89.2-66.6,88.3-66.7,87.6-66.2z"/>
				<path class="st1" d="M78.6-93.1c0.9,1.7,1.7,3.5,2.4,5.4c0.7,1.8,1.7,3.6,1.9,5.5c0.1,1.2-1.5,1.8-2.2,0.8
					c-1.1-1.5-1.6-3.3-2.2-5c-0.7-1.8-1.5-3.7-1.9-5.6C76.3-93.2,77.9-94.4,78.6-93.1L78.6-93.1z"/>
				<path class="st1" d="M50.4-124c-0.7,1.4-1.1,3-1.6,4.5s-1.1,3-1.2,4.6c0,1,1.3,1.4,1.8,0.5c0.8-1.3,1.1-2.8,1.5-4.2
					c0.5-1.5,1-3.1,1.2-4.6C52.3-124.1,50.9-125,50.4-124L50.4-124z"/>
				<path class="st1" d="M76.9-57.5c-2.7,0.2-5.4,0-7.6-1.7c-1.9-1.4-2.9-3.8-2.8-6.2c0.1-2.3,1.3-4.3,3.3-5.5
					c1.8-1.1,4.8-1.8,6.5-0.4c0.7,0.6,0.2,1.8-0.6,1.8c-1.6,0.2-3-0.3-4.5,0.6c-1.4,0.9-2.2,2.4-2.1,4.1c0.2,4.2,4.7,5,8,5.2
					C78.2-59.3,78-57.5,76.9-57.5L76.9-57.5z"/>
				<path class="st1" d="M45.7-85.9c1.6-2.1,3.5-4,6.2-4.6c2.3-0.5,4.7,0.3,6.4,1.9c1.6,1.6,2.4,3.8,2,6c-0.3,2-1.7,4.8-3.9,5.1
					c-0.9,0.2-1.5-1-1-1.7c0.9-1.3,2.1-2,2.4-3.8c0.3-1.7-0.4-3.2-1.7-4.3c-3.3-2.6-6.7,0.3-9.1,2.6C46.2-83.8,45-85.1,45.7-85.9
					L45.7-85.9z"/>
				<path class="st1" d="M101.2-106.6c-0.8,2.5-2,5-4.3,6.5c-2,1.3-4.5,1.3-6.7,0.4c-2-0.9-3.5-2.8-3.9-5c-0.4-2,0-5.1,2-6.2
					c0.8-0.5,1.7,0.4,1.5,1.2c-0.4,1.6-1.3,2.6-1,4.4c0.3,1.7,1.5,2.9,3,3.4c4,1.3,6.3-2.6,7.7-5.6
					C100-108.4,101.6-107.6,101.2-106.6L101.2-106.6z"/>
				<path class="st1" d="M72.9-123c3-3.2,3.3-7.9,0-10.9c-1.4-1.3-3.4-2.2-5.5-2.2c-2.3,0-4.4,0.8-6.6,1.3c-2.2,0.5-4.1,0.3-4.9-1.7
					c-0.7-1.6-0.7-3.3-1.1-5c-0.4-1.5-1.1-2.9-2.5-3.8c-1.7-1.2-3.9-1.2-5.9-1c-1.2,0.1-2.6,0.3-3.8-0.1c-1.3-0.4-1.9-1.6-2.3-2.8
					c-0.5-1.4-0.6-2.8-0.5-4.3s0.7-2.8,1-4.2c0.2-1.3-1.6-1.9-2.4-0.8c-1.3,1.7-1.5,4.4-1.5,6.4c0.1,2,0.6,4.3,1.8,6
					c1.2,1.6,3,2.3,5.1,2.5c2.1,0.1,4.9-0.8,6.8,0.3c1.4,0.8,1.6,2.7,1.9,4.1c0.3,1.6,0.5,3.2,1.3,4.6c2.2,3.7,6.7,2.7,10.5,1.6
					c2.7-0.8,5.3-0.8,7.2,1.3c2,2.3,1.4,5.3-0.1,7.7C70.7-123.1,72.2-122.1,72.9-123L72.9-123z"/>
				<path class="st1" d="M58.5-99.1c2.7-2.6,6-4.4,9.4-6c0.7-0.3,1.6-0.1,1.8,0.7c0.8,3.6,1.5,7.4,1.4,11.1c0,1.5-2.1,1.5-2.3,0
					c-0.4-3.5-0.7-7-1.5-10.5c0.6,0.2,1.2,0.5,1.8,0.7c-3.3,1.5-6.3,3.5-9.4,5.4C58.8-97,57.7-98.3,58.5-99.1L58.5-99.1z"/>
				<path class="st1" d="M37.1-24.2c0-3.7,1-7.4,2.2-10.9c0.2-0.7,1-1.3,1.8-0.8c3.2,1.9,6.4,4.1,9,6.7c1,1-0.4,2.6-1.5,1.7
					c-2.8-2.2-5.5-4.3-8.6-6.2c0.6-0.3,1.2-0.6,1.8-0.8c-1.2,3.5-1.8,7-2.7,10.5C38.9-23,37.1-23,37.1-24.2L37.1-24.2z"/>
				<path class="st1" d="M99.9-94.9c0.8,2.5,1,5.1,1,7.7c0,0.5-0.4,1.1-1,1c-2.5-0.6-5.2-1.3-7.5-2.4c-0.9-0.5-0.3-1.8,0.7-1.5
					c2.4,0.8,4.6,1.6,7.1,2.2c-0.3,0.3-0.7,0.6-1,1c0-2.6-0.4-5.1-0.6-7.6C98.4-95.3,99.6-95.6,99.9-94.9L99.9-94.9z"/>
				<path class="st1" d="M58.2-62c-2.5,2.8-5.6,5-8.8,6.9c-0.6,0.4-1.6,0.3-1.9-0.5c-1.2-3.5-2.2-7.3-2.5-11c-0.1-1.5,2-1.7,2.3-0.3
					c0.7,3.5,1.4,6.9,2.5,10.3c-0.6-0.2-1.3-0.4-1.9-0.5c3.2-1.8,6-4.1,8.9-6.3C57.7-64.1,59-62.9,58.2-62L58.2-62z"/>
				<path class="st1" d="M9.5-87.5c4.9,0.6,7.8,5.1,12.3,6.5c-0.6,0.6-1.1,1.1-1.7,1.7c-0.6-4.1-1.1-8.1-1.7-12.2
					c-0.2-1.1,1.5-1.7,2.2-0.9c2.3,2.5,4.8,4.7,7.6,6.6c-0.6,0.2-1.2,0.3-1.8,0.5c1.4-3.1,2.2-6.4,2.5-9.8c0-0.5,0.4-1.2,1-1.3
					c1.3-0.2,2.2,0.3,3,1.4c1.1,1.5,1.9,3.3,2.8,4.9c-0.7-0.1-1.4-0.2-2.1-0.3c1.7-2.1,3.4-4.2,5.1-6.2c1.1-1.3,2.9,0.6,1.9,1.9
					c-1.7,2.1-3.4,4.2-5.1,6.2c-0.5,0.7-1.7,0.4-2.1-0.3c-0.3-0.6-2.6-5.1-2.8-5.1c0.3-0.4,0.6-0.8,1-1.3c-0.3,3.9-1.3,7.6-2.9,11.1
					c-0.3,0.6-1.2,0.8-1.8,0.5c-3-2-5.7-4.4-8.1-7c0.7-0.4,1.5-0.9,2.2-1.3c0.6,3.9,1.1,7.9,1.7,11.8c0.1,0.9-0.6,2-1.7,1.7
					c-4.5-1.4-7.4-5.6-11.9-7C8.1-85.7,8.2-87.7,9.5-87.5L9.5-87.5z"/>
				<path class="st1" d="M105-150.7c-4.1-0.5-6.4-4.2-10.2-5.4c0.5-0.5,0.9-0.9,1.4-1.4c0.5,3.3,0.9,6.7,1.4,10
					c0.1,0.9-1.3,1.4-1.8,0.8c-1.9-2.1-3.9-3.9-6.2-5.5c0.5-0.1,1-0.3,1.5-0.4c-1.1,2.6-1.8,5.3-2.1,8.1c0,0.4-0.3,1-0.8,1
					c-1.1,0.2-1.8-0.2-2.5-1.1c-0.9-1.3-1.6-2.7-2.3-4c0.6,0.1,1.1,0.1,1.7,0.2c-1.4,1.7-2.8,3.5-4.2,5.1c-0.9,1.1-2.4-0.5-1.5-1.5
					c1.4-1.8,2.8-3.4,4.2-5.1c0.4-0.5,1.4-0.3,1.7,0.2c0.3,0.5,2.1,4.2,2.3,4.2c-0.3,0.3-0.5,0.7-0.8,1c0.3-3.2,1.1-6.2,2.4-9.1
					c0.2-0.5,1-0.7,1.5-0.4c2.4,1.7,4.7,3.6,6.7,5.8c-0.6,0.4-1.2,0.7-1.8,1.1c-0.5-3.2-0.9-6.5-1.4-9.7c-0.1-0.8,0.5-1.7,1.4-1.4
					c3.7,1.2,6.1,4.6,9.8,5.8C106.1-152.2,106-150.6,105-150.7L105-150.7z"/>
				<path class="st1" d="M53.4-123.5c0.2,2.3,0.6,4.6,0.9,6.9c0.2,2.2,0.2,4.5,0.8,6.6c0.4,1.3,2.3,1,2.5-0.2c0.4-2.3,0-4.7-0.2-7
					c-0.3-2.3-0.6-4.7-1.4-6.9C55.5-125.5,53.3-125,53.4-123.5L53.4-123.5z"/>
				<path class="st1" d="M20.7-151.8c1.3,1.9,2.8,3.7,4.2,5.6c1.3,1.8,2.4,3.8,4,5.3c1,0.9,2.5-0.3,2.1-1.4
					c-0.7-2.2-2.3-4.1-3.7-5.9c-1.4-1.9-2.9-3.8-4.6-5.3C21.5-154.6,19.9-153,20.7-151.8L20.7-151.8z"/>
				<path class="st1" d="M49.5-50.6c-1.6-0.1-3.2,0.1-4.8,0.2s-3.2,0.1-4.7,0.6c-0.9,0.3-0.8,1.8,0.2,1.9c1.5,0.2,3-0.1,4.5-0.2
					c1.6-0.2,3.2-0.3,4.8-0.6C50.4-48.9,50.7-50.5,49.5-50.6L49.5-50.6z"/>
				<path class="st1" d="M50.2-47.7c-2.1,1-4,2.3-6.1,3.4c-1.9,1.1-4,1.9-5.8,3.3c-1.1,0.8,0,2.5,1.2,2.2c2.3-0.5,4.4-1.8,6.4-2.9
					s4.1-2.4,5.8-3.9C52.9-46.5,51.6-48.3,50.2-47.7L50.2-47.7z"/>
				<path class="st1" d="M98.9-32.3c-2.1,1-4,2.3-6.1,3.4c-1.9,1.1-4,1.9-5.8,3.3c-1.1,0.8,0,2.5,1.2,2.2c2.3-0.5,4.4-1.8,6.4-2.9
					s4.1-2.4,5.8-3.9C101.6-31.2,100.2-33,98.9-32.3L98.9-32.3z"/>
				<path class="st1" d="M107.2-79.7c-2.1,1-4,2.3-6.1,3.4c-1.9,1.1-4,1.9-5.8,3.3c-1.1,0.8,0,2.5,1.2,2.2c2.3-0.5,4.4-1.8,6.4-2.9
					s4.1-2.4,5.8-3.9C109.9-78.5,108.6-80.4,107.2-79.7L107.2-79.7z"/>
				<path class="st1" d="M41.8-111.6c-1.1-4.3-5.7-6.4-9.9-5.8c-4.7,0.6-8.2,4.8-6.8,9.6c1.5,4.9,7,7.5,11.8,5.8
					c0.1,0,0.2-0.1,0.3-0.1C40.7-103.9,42.8-107.7,41.8-111.6z M35.8-104.7c-3.3,1.2-7.3-0.8-8.1-4.3c-0.8-3.4,2.4-5.7,5.5-5.7
					c2.7,0,5.3,1.3,5.9,4.1C39.6-108,38.1-105.7,35.8-104.7z"/>
				<path class="st1" d="M65.1-160.2c-1.5-3.5-5.5-4.8-9-3.8c-3.9,1.1-6.4,5-4.7,8.9c1.8,4,6.8,5.6,10.6,3.6c0.1,0,0.2-0.1,0.2-0.2
					C65.1-153.5,66.4-156.9,65.1-160.2z M60.8-153.6c-2.6,1.4-6.3,0.2-7.3-2.7c-1-2.8,1.4-5.1,4-5.5c2.2-0.3,4.7,0.5,5.5,2.8
					C63.7-156.9,62.7-154.7,60.8-153.6z"/>
				<path class="st1" d="M30.9-68.7c-1-3.9-5.1-5.7-8.8-5.2c-4.2,0.6-7.4,4.3-6.1,8.6c1.3,4.4,6.3,6.7,10.5,5.2
					c0.1,0,0.2-0.1,0.3-0.1C29.9-61.8,31.8-65.2,30.9-68.7z M25.5-62.5c-2.9,1.1-6.5-0.7-7.2-3.8c-0.7-3.1,2.1-5.1,4.9-5.1
					c2.4,0,4.8,1.1,5.3,3.6C29-65.5,27.6-63.4,25.5-62.5z"/>
				<path class="st1" d="M18.9-29.7c-3.1-0.6-5.2-3.5-4.6-6.7c0.7-3.2,3.6-4.8,6.6-4.7c1.5,0,3.4,0.6,4.9-0.1
					c1.7-0.9,2.1-3.4,1.9-5.1c-0.6-4.5-4.5-6.2-8.6-6.2c-1.2,0-1.4-1.6-0.3-2.1c7.3-2.8,13.7,5.9,11,12.5c-1.5,3.6-4.6,3.8-8,3.6
					c-1.9-0.1-3.7,0-4.7,1.9c-1.1,2.1,0.3,4.4,2.4,5C20.6-31.3,20.1-29.5,18.9-29.7L18.9-29.7z"/>
				<path class="st1" d="M81-52.3c0.5-3.1,3.4-5.3,6.6-4.7c3.2,0.6,4.9,3.4,4.9,6.5c0,1.5-0.5,3.4,0.2,4.9c0.9,1.7,3.5,2.1,5.2,1.8
					c4.5-0.7,6.1-4.7,6-8.8c0-1.2,1.6-1.4,2-0.4c3,7.2-5.6,13.8-12.2,11.2c-3.6-1.4-3.9-4.5-3.7-8c0.1-1.9-0.1-3.7-2-4.6
					c-2.1-1-4.4,0.4-5,2.5C82.6-50.6,80.8-51,81-52.3L81-52.3z"/>
			</g>
			<g>
				<path class="st1" d="M188.7-61.4c1.2,1.3,2.4,2.6,3.6,4c0.6,0.7,1.2,1.4,1.8,2c0.5,0.6,1.3,2,2,2.3c0.7,0.4-0.3,0.3,0.4,0
					c0.3-0.1,0.7-0.7,1-0.9c0.7-0.6,1.3-1.2,2-1.9c1.4-1.3,2.7-2.7,4.1-4.1c0.6-0.6,1.4-0.4,1.8,0.2c2.5,3.4,5,6.9,7.5,10.3
					c-0.5-0.1-1.1-0.3-1.6-0.4c3.7-2.4,7.4-4.7,11-7.1c1.4-0.9,2.6,1.3,1.3,2.1c-3.7,2.3-7.4,4.6-11.1,6.9c-0.6,0.4-1.2,0.1-1.6-0.4
					c-2.5-3.4-5-6.9-7.5-10.3c0.6,0.1,1.2,0.2,1.8,0.2c-1.8,1.8-3.5,3.5-5.3,5.3c-1,1-2.3,3-4,2.7c-1.6-0.2-3-2.7-4-3.9
					c-1.6-1.9-3.2-3.8-4.8-5.7C186.3-60.9,187.8-62.4,188.7-61.4L188.7-61.4z"/>
				<path class="st1" d="M265.5-37.8c0.9-1.5,1.8-3.1,2.7-4.7c0.4-0.8,0.9-1.6,1.3-2.4c0.4-0.7,0.9-2.2,1.5-2.7s-0.4-0.2,0.4-0.1
					c0.3,0.1,0.9,0.5,1.2,0.7c0.8,0.5,1.5,0.9,2.3,1.4c1.6,1,3.2,2.1,4.8,3.1c0.7,0.4,1.4,0.1,1.7-0.6c1.7-3.9,3.5-7.7,5.2-11.6
					c-0.5,0.2-1,0.5-1.5,0.7c4.1,1.5,8.2,3.1,12.3,4.6c1.5,0.6,2.3-1.8,0.8-2.4c-4.1-1.5-8.2-3-12.3-4.5c-0.6-0.2-1.2,0.2-1.5,0.7
					c-1.7,3.9-3.5,7.8-5.2,11.6c0.6-0.2,1.1-0.4,1.7-0.6c-2.1-1.4-4.2-2.7-6.3-4.1c-1.2-0.8-2.9-2.4-4.5-1.9
					c-1.6,0.6-2.4,3.3-3.1,4.6c-1.2,2.2-2.4,4.3-3.5,6.6C263-37.7,264.7-36.5,265.5-37.8L265.5-37.8z"/>
				<path class="st1" d="M116.1-37.8c0.9-1.5,1.8-3.1,2.7-4.7c0.4-0.8,0.9-1.6,1.3-2.4c0.4-0.7,0.9-2.2,1.5-2.7s-0.4-0.2,0.4-0.1
					c0.3,0.1,0.9,0.5,1.2,0.7c0.8,0.5,1.5,0.9,2.3,1.4c1.6,1,3.2,2.1,4.8,3.1c0.7,0.4,1.4,0.1,1.7-0.6c1.7-3.9,3.5-7.7,5.2-11.6
					c-0.5,0.2-1,0.5-1.5,0.7c4.1,1.5,8.2,3.1,12.3,4.6c1.5,0.6,2.3-1.8,0.8-2.4c-4.1-1.5-8.2-3-12.3-4.5c-0.6-0.2-1.2,0.2-1.5,0.7
					c-1.7,3.9-3.5,7.8-5.2,11.6c0.6-0.2,1.1-0.4,1.7-0.6c-2.1-1.4-4.2-2.7-6.3-4.1c-1.2-0.8-2.9-2.4-4.5-1.9
					c-1.6,0.6-2.4,3.3-3.1,4.6c-1.2,2.2-2.4,4.3-3.5,6.6C113.7-37.7,115.4-36.5,116.1-37.8L116.1-37.8z"/>
				<path class="st1" d="M173.8-29c-0.8,0.5-0.8,1.6-0.4,2.4c0.5,0.9,1.6,1.2,2.4,0.6c0.9-0.6,0.9-1.9,0.3-2.7c0,0,0,0-0.1,0
					C175.4-29.4,174.5-29.5,173.8-29z"/>
				<path class="st1" d="M149.1-41.8c-0.8,0.5-0.8,1.6-0.4,2.4c0.5,0.9,1.6,1.2,2.4,0.6c0.9-0.6,0.9-1.9,0.3-2.7c0,0,0,0-0.1,0
					C150.7-42.1,149.8-42.3,149.1-41.8z"/>
				<path class="st1" d="M177.8-54.4c-0.8,0.5-0.8,1.6-0.4,2.4c0.5,0.9,1.6,1.2,2.4,0.6c0.9-0.6,0.9-1.9,0.3-2.7c0,0,0,0-0.1,0
					C179.4-54.7,178.5-54.9,177.8-54.4z"/>
				<path class="st1" d="M162.6-79.5c-0.8,0.5-0.8,1.6-0.4,2.4c0.5,0.9,1.6,1.2,2.4,0.6c0.9-0.6,0.9-1.9,0.3-2.7c0,0,0,0-0.1,0
					C164.1-79.9,163.2-80,162.6-79.5z"/>
				<path class="st1" d="M266.9-86.1c-0.8,0.5-0.8,1.6-0.4,2.4c0.5,0.9,1.6,1.2,2.4,0.6c0.9-0.6,0.9-1.9,0.3-2.7c0,0,0,0-0.1,0
					C268.5-86.5,267.6-86.6,266.9-86.1z"/>
				<path class="st1" d="M207.3-45.3c-0.8,0.5-0.8,1.6-0.4,2.4c0.5,0.9,1.6,1.2,2.4,0.6c0.9-0.6,0.9-1.9,0.3-2.7c0,0,0,0-0.1,0
					C208.9-45.6,208-45.8,207.3-45.3z"/>
				<path class="st1" d="M198.4-65c-0.8,0.5-0.8,1.6-0.4,2.4c0.5,0.9,1.6,1.2,2.4,0.6c0.9-0.6,0.9-1.9,0.3-2.7c0,0,0,0-0.1,0
					C200-65.4,199.1-65.5,198.4-65z"/>
				<path class="st1" d="M231.4-61.4c-0.8,0.5-0.8,1.6-0.4,2.4c0.5,0.9,1.6,1.2,2.4,0.6c0.9-0.6,0.9-1.9,0.3-2.7c0,0,0,0-0.1,0
					C233-61.8,232.1-61.9,231.4-61.4z"/>
				<path class="st1" d="M234.7-29.6c-0.8,0.5-0.8,1.6-0.4,2.4c0.5,0.9,1.6,1.2,2.4,0.6c0.9-0.6,0.9-1.9,0.3-2.7c0,0,0,0-0.1,0
					C236.3-29.9,235.4-30,234.7-29.6z"/>
				<path class="st1" d="M252.3-43.6c-0.8,0.5-0.8,1.6-0.4,2.4c0.5,0.9,1.6,1.2,2.4,0.6c0.9-0.6,0.9-1.9,0.3-2.7c0,0,0,0-0.1,0
					C253.9-43.9,253-44.1,252.3-43.6z"/>
				<path class="st1" d="M269.8-62.2c-0.8,0.5-0.8,1.6-0.4,2.4c0.5,0.9,1.6,1.2,2.4,0.6c0.9-0.7,0.9-1.9,0.3-2.7c0,0,0,0-0.1,0
					C271.4-62.6,270.5-62.7,269.8-62.2z"/>
				<path class="st1" d="M265.5-18.6c0.9,1.7,1.7,3.5,2.4,5.4c0.7,1.8,1.7,3.6,1.9,5.5c0.1,1.2-1.5,1.8-2.2,0.8
					c-1.1-1.5-1.6-3.3-2.2-5c-0.7-1.8-1.5-3.7-1.9-5.6C263.2-18.7,264.8-19.9,265.5-18.6L265.5-18.6z"/>
				<path class="st1" d="M237.3-49.4c-0.7,1.4-1.1,3-1.6,4.5s-1.1,3-1.2,4.6c0,1,1.3,1.4,1.8,0.5c0.8-1.3,1.1-2.8,1.5-4.2
					c0.5-1.5,1-3.1,1.2-4.6C239.2-49.6,237.8-50.5,237.3-49.4L237.3-49.4z"/>
				<path class="st1" d="M174.6-48.4c1.7,2.9,3,6.1,2.4,9.5c-0.5,2.9-2.6,5.4-5.4,6.6c-2.6,1.1-5.6,0.9-8-0.6
					c-2.2-1.4-4.7-4.3-4.1-7.1c0.3-1.2,1.8-1.3,2.4-0.3c1.1,1.7,1.3,3.5,3.2,4.7c1.8,1.1,3.9,1.1,5.8,0.1c4.6-2.6,2.9-8,1.4-12
					C171.9-48.8,173.9-49.6,174.6-48.4L174.6-48.4z"/>
				<path class="st1" d="M199.9-85.6c-2.7,0.4-5.3,1.1-7.2,3.2c-1.6,1.8-2.1,4.3-1.5,6.6c0.6,2.2,2.2,4,4.3,4.8
					c2,0.7,5.1,0.9,6.5-0.9c0.6-0.7-0.1-1.8-1-1.7c-1.6,0.2-2.9,0.9-4.6,0.3c-1.6-0.6-2.7-1.9-2.9-3.6c-0.6-4.2,3.6-5.8,6.9-6.8
					C201.5-84,200.9-85.7,199.9-85.6L199.9-85.6z"/>
				<path class="st1" d="M232.6-11.4c1.6-2.1,3.5-4,6.2-4.6c2.3-0.5,4.7,0.3,6.4,1.9c1.6,1.6,2.4,3.8,2,6c-0.3,2-1.7,4.8-3.9,5.1
					c-0.9,0.2-1.5-1-1-1.7c0.9-1.3,2.1-2,2.4-3.8c0.3-1.7-0.4-3.2-1.7-4.3c-3.3-2.6-6.7,0.3-9.1,2.6
					C233.2-9.3,231.9-10.6,232.6-11.4L232.6-11.4z"/>
				<path class="st1" d="M288.2-32.1c-0.8,2.5-2,5-4.3,6.5c-2,1.3-4.5,1.3-6.7,0.4c-2-0.9-3.5-2.8-3.9-5c-0.4-2,0-5.1,2-6.2
					c0.8-0.5,1.7,0.4,1.5,1.2c-0.4,1.6-1.3,2.6-1,4.4c0.3,1.7,1.5,2.9,3,3.4c4,1.3,6.3-2.6,7.7-5.6
					C286.9-33.9,288.5-33.1,288.2-32.1L288.2-32.1z"/>
				<path class="st1" d="M169.1-4.1c-3.1-3.6-3.6-8.8-0.4-12.5c1.4-1.6,3.4-2.6,5.5-2.7c2.3-0.1,4.5,0.8,6.7,1.3s4.2,0.2,4.9-2.2
					c0.6-1.8,0.6-3.8,0.9-5.7c0.3-1.7,1-3.4,2.4-4.5c1.7-1.4,3.9-1.5,6-1.4c1.3,0,2.7,0.2,3.8-0.3c1.3-0.6,1.9-1.9,2.3-3.2
					c0.4-1.6,0.5-3.3,0.4-4.9c-0.1-1.7-0.8-3.2-1.1-4.8c-0.3-1.5,1.5-2.2,2.4-1c1.4,1.9,1.7,5,1.7,7.3s-0.4,4.9-1.6,6.9
					c-1.1,1.9-2.9,2.8-5.1,3c-2.1,0.2-5-0.7-6.8,0.6c-1.4,1-1.6,3.2-1.8,4.8c-0.2,1.8-0.4,3.6-1.2,5.3c-2.1,4.3-6.7,3.3-10.5,2.3
					c-2.8-0.8-5.4-0.8-7.3,1.8c-1.9,2.7-1.2,6.1,0.4,8.8C171.4-4.4,169.9-3.2,169.1-4.1L169.1-4.1z"/>
				<path class="st1" d="M107.7-29.4c2.9-1.8,6.7-1.6,8.9,1.2c1,1.2,1.5,2.7,1.3,4.2c-0.2,1.6-1.1,3.1-1.7,4.6s-0.6,2.9,1,3.7
					c1.2,0.6,2.7,0.8,4,1.3c1.2,0.4,2.3,1.1,2.9,2.2c0.8,1.4,0.6,2.9,0.3,4.4c-0.2,0.9-0.5,1.9-0.2,2.8c0.2,1,1.1,1.6,2,2
					c1.1,0.5,2.3,0.8,3.4,0.8c1.2,0.1,2.3-0.2,3.5-0.2c1.1,0,1.4,1.3,0.4,1.8c-1.5,0.8-3.7,0.6-5.4,0.4c-1.6-0.3-3.4-0.9-4.7-1.9
					c-1.2-1-1.6-2.4-1.5-3.9s1.1-3.4,0.3-4.9c-0.6-1.1-2.1-1.5-3.2-1.8c-1.2-0.4-2.5-0.7-3.6-1.5c-2.8-2-1.6-5.1-0.4-7.7
					c0.9-1.9,1.2-3.8-0.4-5.4c-1.7-1.7-4.2-1.5-6.3-0.7C107.6-27.7,106.9-28.9,107.7-29.4L107.7-29.4z"/>
				<path class="st1" d="M259.9-48.4c3-3.2,3.3-7.9,0-10.9c-1.4-1.3-3.4-2.2-5.5-2.2c-2.3,0-4.4,0.8-6.6,1.3
					c-2.2,0.5-4.1,0.3-4.9-1.7c-0.7-1.6-0.7-3.3-1.1-5c-0.4-1.5-1.1-2.9-2.5-3.8c-1.7-1.2-3.9-1.2-5.9-1c-1.2,0.1-2.6,0.3-3.8-0.1
					c-1.3-0.4-1.9-1.6-2.3-2.8c-0.5-1.4-0.6-2.8-0.5-4.3s0.7-2.8,1-4.2c0.2-1.3-1.6-1.9-2.4-0.8c-1.3,1.7-1.5,4.4-1.5,6.4
					c0.1,2,0.6,4.3,1.8,6c1.2,1.6,3,2.3,5.1,2.5c2.1,0.1,4.9-0.8,6.8,0.3c1.4,0.8,1.6,2.7,1.9,4.1c0.3,1.6,0.5,3.2,1.3,4.6
					c2.2,3.7,6.7,2.7,10.5,1.6c2.7-0.8,5.3-0.8,7.2,1.3c2,2.3,1.4,5.3-0.1,7.7C257.6-48.6,259.1-47.6,259.9-48.4L259.9-48.4z"/>
				<path class="st1" d="M177.4-77.3c1.8,3.9,2.7,8.1,3.2,12.4c0.1,0.8-0.4,1.8-1.4,1.8c-4.2-0.4-8.6-1-12.7-2.4
					c-1.6-0.6-0.9-2.9,0.8-2.5c4,0.9,7.9,1.7,12,2.1c-0.5,0.6-1,1.2-1.4,1.8c-0.5-4.2-1.6-8.2-2.5-12.2
					C175-77.7,176.9-78.4,177.4-77.3L177.4-77.3z"/>
				<path class="st1" d="M154.6-22.1c0.6,3.8,0.3,7.6-0.3,11.3c-0.1,0.8-0.8,1.5-1.7,1.2c-3.5-1.4-7.1-3-10.2-5.1
					c-1.2-0.9,0-2.6,1.3-2c3.2,1.7,6.3,3.4,9.7,4.7c-0.5,0.4-1.1,0.8-1.6,1.2c0.6-3.7,0.6-7.4,0.8-11.1
					C152.6-23.1,154.4-23.3,154.6-22.1L154.6-22.1z"/>
				<path class="st1" d="M245.5-24.6c2.7-2.6,6-4.4,9.4-6c0.7-0.3,1.6-0.1,1.8,0.7c0.8,3.6,1.5,7.4,1.4,11.1c0,1.5-2.1,1.5-2.3,0
					c-0.4-3.5-0.7-7-1.5-10.5c0.6,0.2,1.2,0.5,1.8,0.7c-3.3,1.5-6.3,3.5-9.4,5.4C245.7-22.5,244.6-23.8,245.5-24.6L245.5-24.6z"/>
				<path class="st1" d="M286.8-20.3c0.8,2.5,1,5.1,1,7.7c0,0.5-0.4,1.1-1,1c-2.5-0.6-5.2-1.3-7.5-2.4c-0.9-0.5-0.3-1.8,0.7-1.5
					c2.4,0.8,4.6,1.6,7.1,2.2c-0.3,0.3-0.7,0.6-1,1c0-2.6-0.4-5.1-0.6-7.6C285.4-20.8,286.5-21.1,286.8-20.3L286.8-20.3z"/>
				<path class="st1" d="M196.4-13c4.9,0.6,7.8,5.1,12.3,6.5c-0.6,0.6-1.1,1.1-1.7,1.7c-0.6-4.1-1.1-8.1-1.7-12.2
					c-0.2-1.1,1.5-1.7,2.2-0.9c2.3,2.5,4.8,4.7,7.6,6.6c-0.6,0.2-1.2,0.3-1.8,0.5c1.4-3.1,2.2-6.4,2.5-9.8c0-0.5,0.4-1.2,1-1.3
					c1.3-0.2,2.2,0.3,3,1.4c1.1,1.5,1.9,3.3,2.8,4.9c-0.7-0.1-1.4-0.2-2.1-0.3c1.7-2.1,3.4-4.2,5.1-6.2c1.1-1.3,2.9,0.6,1.9,1.9
					c-1.7,2.1-3.4,4.2-5.1,6.2c-0.5,0.7-1.7,0.4-2.1-0.3c-0.3-0.6-2.6-5.1-2.8-5.1c0.3-0.4,0.6-0.8,1-1.3c-0.3,3.9-1.3,7.6-2.9,11.1
					c-0.3,0.6-1.2,0.8-1.8,0.5c-3-2-5.7-4.4-8.1-7c0.7-0.4,1.5-0.9,2.2-1.3c0.6,3.9,1.1,7.9,1.7,11.8c0.1,0.9-0.6,2-1.7,1.7
					c-4.5-1.4-7.4-5.6-11.9-7C195-11.2,195.1-13.1,196.4-13L196.4-13z"/>
				<path class="st1" d="M291.9-76.2c-4.1-0.5-6.4-4.2-10.2-5.4c0.5-0.5,0.9-0.9,1.4-1.4c0.5,3.3,0.9,6.7,1.4,10
					c0.1,0.9-1.3,1.4-1.8,0.8c-1.9-2.1-3.9-3.9-6.2-5.5c0.5-0.1,1-0.3,1.5-0.4c-1.1,2.6-1.8,5.3-2.1,8.1c0,0.4-0.3,1-0.8,1
					c-1.1,0.2-1.8-0.2-2.5-1.1c-0.9-1.3-1.6-2.7-2.3-4c0.6,0.1,1.1,0.1,1.7,0.2c-1.4,1.7-2.8,3.5-4.2,5.1c-0.9,1.1-2.4-0.5-1.5-1.5
					c1.4-1.8,2.8-3.4,4.2-5.1c0.4-0.5,1.4-0.3,1.7,0.2c0.3,0.5,2.1,4.2,2.3,4.2c-0.3,0.3-0.5,0.7-0.8,1c0.3-3.2,1.1-6.2,2.4-9.1
					c0.2-0.5,1-0.7,1.5-0.4c2.4,1.7,4.7,3.6,6.7,5.8c-0.6,0.4-1.2,0.7-1.8,1.1c-0.5-3.2-0.9-6.5-1.4-9.7c-0.1-0.8,0.5-1.7,1.4-1.4
					c3.7,1.2,6.1,4.6,9.8,5.8C293.1-77.7,292.9-76.1,291.9-76.2L291.9-76.2z"/>
				<path class="st1" d="M138.1-72.9c-4.1-0.5-6.4-4.2-10.2-5.4c0.5-0.5,0.9-0.9,1.4-1.4c0.5,3.3,0.9,6.7,1.4,10
					c0.1,0.9-1.3,1.4-1.8,0.8c-1.9-2.1-3.9-3.9-6.2-5.5c0.5-0.1,1-0.3,1.5-0.4c-1.1,2.6-1.8,5.3-2.1,8.1c0,0.4-0.3,1-0.8,1
					c-1.1,0.2-1.8-0.2-2.5-1.1c-0.9-1.3-1.6-2.7-2.3-4c0.6,0.1,1.1,0.1,1.7,0.2c-1.4,1.7-2.8,3.5-4.2,5.1c-0.9,1.1-2.4-0.5-1.5-1.5
					c1.4-1.8,2.8-3.4,4.2-5.1c0.5-0.5,1.4-0.3,1.7,0.2c0.3,0.5,2.1,4.2,2.3,4.2c-0.3,0.3-0.5,0.7-0.8,1c0.3-3.2,1.1-6.2,2.4-9.1
					c0.2-0.5,1-0.7,1.5-0.4c2.4,1.7,4.7,3.6,6.7,5.8c-0.6,0.4-1.2,0.7-1.8,1.1c-0.5-3.2-0.9-6.5-1.4-9.7c-0.1-0.8,0.5-1.7,1.4-1.4
					c3.7,1.2,6.1,4.6,9.8,5.8C139.3-74.4,139.2-72.7,138.1-72.9L138.1-72.9z"/>
				<path class="st1" d="M240.3-49c0.2,2.3,0.6,4.6,0.9,6.9c0.2,2.2,0.2,4.5,0.8,6.6c0.4,1.3,2.3,1,2.5-0.2c0.4-2.3,0-4.7-0.2-7
					c-0.3-2.3-0.6-4.7-1.4-6.9C242.4-51,240.2-50.5,240.3-49L240.3-49z"/>
				<path class="st1" d="M207.6-77.3c1.3,1.9,2.8,3.7,4.2,5.6c1.3,1.8,2.4,3.8,4,5.3c1,0.9,2.5-0.3,2.1-1.4
					c-0.7-2.2-2.3-4.1-3.7-5.9c-1.4-1.9-2.9-3.8-4.6-5.3C208.5-80.1,206.8-78.5,207.6-77.3L207.6-77.3z"/>
				<path class="st1" d="M228.7-37.1c-1.1-4.3-5.7-6.4-9.9-5.8c-4.7,0.6-8.2,4.8-6.8,9.6c1.5,4.9,7,7.5,11.8,5.8
					c0.1,0,0.2-0.1,0.3-0.1C227.6-29.4,229.7-33.2,228.7-37.1z M222.7-30.1c-3.3,1.2-7.3-0.8-8.1-4.3c-0.8-3.4,2.4-5.7,5.5-5.7
					c2.7,0,5.3,1.3,5.9,4.1C226.5-33.5,225-31.2,222.7-30.1z"/>
				<path class="st1" d="M252-85.6c-1.5-3.5-5.5-4.8-9-3.8c-3.9,1.1-6.4,5-4.7,8.9c1.8,4,6.8,5.6,10.6,3.6c0.1,0,0.2-0.1,0.2-0.2
					C252-79,253.4-82.4,252-85.6z M247.7-79.1c-2.6,1.4-6.3,0.2-7.3-2.7c-1-2.8,1.4-5.1,4-5.5c2.2-0.3,4.7,0.5,5.5,2.8
					C250.6-82.4,249.6-80.2,247.7-79.1z"/>
				<path class="st1" d="M143.7-23.1c3.1-2.5,3.1-6.8,1.1-10c-2.2-3.5-6.8-4.9-10.2-2s-3.5,8.3-0.4,11.5c0.1,0.1,0.1,0.1,0.2,0.2
					C137.1-21.2,140.9-20.8,143.7-23.1z M135.9-25.4c-2.1-2.2-2-6.1,0.5-8c2.5-1.8,5.4-0.1,6.5,2.3c1,2.1,0.9,4.7-1.1,6.2
					C140-23.5,137.6-23.9,135.9-25.4z"/>
				<path class="st1" d="M142.8-81.9c2.8-1.8,6.6-1.2,8.5,1.7c1.9,2.9,0.9,6.3-1.6,8.5c-1.2,1.1-3.1,2.1-3.6,3.7
					c-0.7,2,0.9,4.2,2.4,5.4c3.8,3,8.1,1.4,11.2-1.7c0.9-0.9,2.3,0.2,1.8,1.3c-3.5,7.6-14.9,5.7-17.7-1.4c-1.5-3.9,0.7-6.4,3.5-8.7
					c1.5-1.3,2.8-2.8,2.2-4.9c-0.7-2.4-3.5-3.2-5.6-2.1C142.7-79.4,141.7-81.1,142.8-81.9L142.8-81.9z"/>
			</g>
			<g>
				<path class="st1" d="M65.1-11.1c-1.5-3.5-5.5-4.8-9-3.8c-3.9,1.1-6.4,5-4.7,8.9c1.8,4,6.8,5.6,10.6,3.6c0.1,0,0.2-0.1,0.2-0.2
					C65.1-4.4,66.4-7.9,65.1-11.1z M60.8-4.6c-2.6,1.4-6.3,0.2-7.3-2.7c-1-2.8,1.4-5.1,4-5.5c2.2-0.3,4.7,0.5,5.5,2.8
					C63.7-7.8,62.7-5.7,60.8-4.6z"/>
			</g>
		</g>
	</g>
</pattern>
<path class="st2" d="M51.7,247.9c-1.3,0-1.9-0.8-2.2-1.2s-0.6-1.4,0-2.5L167.2,40.3c0.6-1.1,1.6-1.2,2.2-1.2c0.5,0,1.5,0.2,2.2,1.2
	l117.7,203.8c0.6,1.1,0.3,2,0,2.5s-0.9,1.3-2.2,1.3L51.7,247.9L51.7,247.9z"/>
<path class="st3" d="M169.4,48.1l56.7,98.2l56.7,98.2H169.4H56l56.7-98.2L169.4,48.1 M169.4,25.9c-3.7,0-7.3,1.8-9.4,5.4L98.4,138
	L36.8,244.7c-4.2,7.3,1,16.3,9.4,16.3h123.2h123.2c8.4,0,13.6-9.1,9.4-16.3L240.4,138L178.8,31.4C176.7,27.7,173,25.9,169.4,25.9
	L169.4,25.9z"/>
<pattern  id="SVGID_2_" xlink:href="#SVGID_1_" patternTransform="matrix(0.7076 0 0 -0.7076 -4349.1353 -11530.6758)">
</pattern>
<path class="st4" d="M169.4,48.1l56.7,98.2l56.7,98.2H169.4H56l56.7-98.2L169.4,48.1 M169.4,25.9c-3.7,0-7.3,1.8-9.4,5.4L98.4,138
	L36.8,244.7c-4.2,7.3,1,16.3,9.4,16.3h123.2h123.2c8.4,0,13.6-9.1,9.4-16.3L240.4,138L178.8,31.4C176.7,27.7,173,25.9,169.4,25.9
	L169.4,25.9z"/>
<g class="st5">
	<path class="st3" d="M158.4,185.6c-0.2-0.7-0.3-1.7-0.6-3.1c-0.2-1.4-0.5-3-0.7-4.8c-0.3-1.8-0.5-3.6-0.8-5.6
		c-0.3-2-0.6-3.8-0.9-5.6c-0.3-1.8-0.6-3.4-0.8-4.8c-0.2-1.4-0.4-2.4-0.5-3.1c0-0.2,0-0.6-0.1-1.1c0-0.5-0.1-1.1-0.2-1.8
		c-0.1-0.6-0.1-1.3-0.2-1.9c0-0.6-0.1-1.1-0.1-1.4c0-2.2-0.2-4.5-0.6-7c-0.4-2.5-0.7-4.8-0.7-7c0-0.5,0.1-1.1,0.2-2s0.2-1.8,0.2-2.8
		c0-0.9,0.1-1.8,0.1-2.7c0-0.8-0.1-1.4-0.3-1.7l0.7-6.3c-0.1-0.2-0.3-0.5-0.6-0.9s-0.5-0.7-0.6-0.8V121l0.1-0.2
		c0-0.1,0.1-0.2,0.2-0.3s0.2-0.2,0.2-0.3c1.1-0.6,2.4-1.4,4-2.3c1.6-0.9,3.3-1.9,5.1-2.8c1.8-0.9,3.5-1.6,5.3-2.2
		c1.7-0.6,3.2-0.8,4.5-0.7h0.2c0.2,0,0.5,0.1,1,0.2c0.4,0.2,0.9,0.3,1.4,0.5c0.5,0.2,1,0.3,1.4,0.4s0.8,0.2,1,0.3
		c0,0.2,0,0.3,0.1,0.3c0.2,0.2,0.3,0.2,0.3,0.2c1.9,1.4,3.3,3.1,4.2,5.3s1.3,4.4,1.2,6.9c0,0.6-0.1,1.3-0.3,2.1
		c-0.2,0.8,0,1.4,0.5,1.8c-0.6,4.2-1.1,8.2-1.5,12.1c-0.4,3.9-0.5,7.9-0.4,12c0.2,3.9,0.3,7.7,0.5,11.7c0.2,3.9,0,7.8-0.3,11.6
		c-0.2,1.1-0.5,2-1.1,2.8c-0.6,0.8-1.3,1.5-2,2.3c-0.8,0.7-1.5,1.5-2.2,2.3c-0.7,0.8-1.2,1.8-1.5,2.8h-0.1h-0.3l-0.2-0.5
		c-0.1-0.1-0.1-0.2-0.1-0.3h-0.1c-0.1,0-0.2,0-0.2-0.1c-0.3,0-0.5,0.1-0.6,0.4c-0.1,0.3-0.2,0.5-0.2,0.8c-0.1,0.3-0.2,0.6-0.4,0.8
		c-0.2,0.2-0.5,0.3-1,0.1c-0.1-0.1-0.2-0.3-0.5-0.7c-0.2-0.4-0.4-0.6-0.6-0.6c-0.3-0.1-0.9,0.1-1.7,0.4c-0.8,0.3-1.3,0.7-1.5,1
		c-0.2-0.1-0.3-0.2-0.6-0.5c-0.2-0.3-0.4-0.5-0.5-0.6l-0.2-0.1c-0.5,0-0.8,0.3-1.1,0.9c-0.3,0.6-0.8,0.9-1.6,0.8
		c-1.3-0.2-2.1-0.5-2.5-1C159.2,187.9,158.8,187,158.4,185.6z M160.5,213.9c0-1.8,0.5-3.6,1.5-5.3c1-1.7,2.2-3.3,3.8-4.7
		c1.5-1.4,3.3-2.5,5.2-3.3c1.9-0.8,3.8-1.2,5.6-1.2c0.9,0,1.8,0.2,2.8,0.6c1,0.4,1.9,0.9,2.7,1.6c0.8,0.7,1.5,1.5,2,2.4
		c0.5,0.9,0.8,1.9,0.8,2.8v0.2c-0.8,4.1-2.7,7.5-5.5,10.3c-2.8,2.8-6.5,4.1-11,4.1c-2,0-3.8-0.6-5.4-1.9
		C161.3,218.1,160.5,216.3,160.5,213.9z"/>
</g>
</svg>
