<?xml version="1.0" encoding="utf-8"?>
<!-- Generator: Adobe Illustrator 19.0.0, SVG Export Plug-In . SVG Version: 6.00 Build 0)  -->
<svg version="1.1" id="Layer_1" xmlns="http://www.w3.org/2000/svg" xmlns:xlink="http://www.w3.org/1999/xlink" x="0px" y="0px"
	 viewBox="0 0 50 50" style="enable-background:new 0 0 50 50;" xml:space="preserve">
<style type="text/css">
	.st0{fill:#8B8E90;}
</style>
<path id="XMLID_41_" class="st0" d="M47.3,36.8c0-0.3,0-0.7-0.1-1.2c-0.1-0.3-0.1-0.5-0.2-0.8c-0.1-0.3-0.2-0.6-0.3-1
	c-0.2-0.3-0.3-0.7-0.5-1c-0.2-0.3-0.4-0.7-0.7-1c-0.5-0.7-1.1-1.3-1.9-1.9c-0.7-0.6-1.6-1.1-2.5-1.6c-0.2-0.1-0.4-0.2-0.6-0.2
	c2.8-2.4,4.8-6,4.8-9.7c0-6.1-6.5-10.2-12.6-10.2c-5,0-10.2,4.4-10.2,11.8c0,4.1,2.2,7.6,5.5,9.5c-0.6,0.5-1.1,1.1-1.5,1.7
	c-0.6,0.8-1,1.6-1.3,2.3c-0.3,0.8-0.6,1.5-0.7,2.1c-0.1,0.3-0.1,0.6-0.2,0.9c-0.1,0.3-0.1,0.6-0.1,0.9c0,0.1,0,0.2,0,0.2
	c0,0-0.1-0.1-0.1-0.1c0,0,0-0.1,0-0.4c0-0.2,0-0.6-0.1-1.1c-0.2-0.9-0.6-2.2-1.6-3.4c-0.9-1.2-2.3-2.2-3.8-2.9
	c-0.2-0.1-0.4-0.2-0.6-0.2c0.3-0.3,0.6-0.6,0.9-0.9c1.8-1.9,2.9-4.5,2.9-7c0-5.2-5.4-8.6-10.5-8.6c-4.2,0-8.6,3.7-8.6,9.9
	c0,3.4,1.9,6.5,4.7,8c-1.2,0.9-2.2,2-2.9,3.1c-0.8,1.2-1.2,2.5-1.4,3.4c0,0.2-0.1,0.4-0.1,0.6c0,0.2,0,0.4,0,0.5c0,0.2,0,0.3,0,0.3
	c0,0,0,0.1,0,0.1c0,1.3,1,2.4,2.4,2.4c0.4,0,0.7-0.1,1-0.2c0.3,0.4,2.3,0,9.1,0.2c3.4,0.1,7.5-1.2,8.7-2.4c0,0,0,0,0,0
	c0,0,0,0.1,0,0.1c0,1.2,0.8,2.2,1.9,2.4c3,1.3,9.1,0.1,12.5-0.4c3.3-0.5,5.2-1.1,6.3-1.6c0.2,0.1,0.5,0.1,0.7,0.1
	c1.1-0.1,1.9-0.9,1.8-2C47.3,37.2,47.3,37,47.3,36.8z"/>
</svg>
