<?xml version="1.0" encoding="utf-8"?>
<!-- Generator: Adobe Illustrator 19.0.0, SVG Export Plug-In . SVG Version: 6.00 Build 0)  -->
<svg version="1.1" id="Layer_1" xmlns="http://www.w3.org/2000/svg" xmlns:xlink="http://www.w3.org/1999/xlink" x="0px" y="0px"
	 viewBox="0 0 50 50" style="enable-background:new 0 0 50 50;" xml:space="preserve">
<style type="text/css">
	.st0{fill:#5E5CA7;}
</style>
<g id="XMLID_41_">
	<path id="XMLID_49_" class="st0" d="M46.5,36.4c0-0.3,0-0.6-0.1-1.1c-0.1-0.2-0.1-0.5-0.2-0.8c-0.1-0.3-0.2-0.6-0.3-0.9
		c-0.1-0.3-0.3-0.6-0.5-0.9c-0.2-0.3-0.4-0.6-0.6-1c-0.5-0.6-1.1-1.3-1.8-1.8c-0.7-0.6-1.5-1-2.3-1.5c-0.2-0.1-0.4-0.1-0.5-0.2
		c2.6-2.2,4.5-5.6,4.5-9.1c0-5.7-6.1-9.6-11.7-9.6c-4.7,0-9.6,4.1-9.6,11c0,3.8,2.1,7.1,5.1,8.9c-0.5,0.5-1,1-1.4,1.6
		c-0.5,0.7-0.9,1.5-1.2,2.2c-0.3,0.7-0.5,1.4-0.7,2c-0.1,0.3-0.1,0.6-0.2,0.9c0,0.3-0.1,0.6-0.1,0.8c0,0.1,0,0.2,0,0.3
		c0,0.1,0,0.2,0,0.2c0,0.1,0,0.3,0,0.4c0,0.2,0,0.3,0,0.3c0,0,0,0.1,0,0.1c0,1.2,0.9,2.3,2.2,2.3s2.3-0.9,2.3-2.2c0,0,0-0.1,0-0.3
		c0-0.1,0-0.2,0-0.4c0-0.1,0-0.2,0-0.2c0-0.1,0-0.1,0-0.2c0-0.1,0-0.3,0-0.4c0-0.2,0.1-0.4,0.1-0.6c0.1-0.4,0.2-0.8,0.4-1.3
		c0.2-0.5,0.4-1,0.7-1.4c0.3-0.5,0.7-0.9,1.1-1.3c0.4-0.4,0.9-0.7,1.5-0.9c0.5-0.2,1.2-0.3,1.8-0.3l0.6,0l0.5,0.1
		c0.3,0,0.7,0.1,1,0.2c0.7,0.2,1.3,0.4,2,0.7c0.6,0.3,1.2,0.6,1.6,1c0.5,0.3,0.8,0.7,1.2,1.1c0.1,0.2,0.3,0.4,0.4,0.5
		c0.1,0.2,0.2,0.4,0.3,0.5c0.1,0.2,0.1,0.3,0.2,0.5c0.1,0.1,0.1,0.3,0.1,0.4c0.1,0.2,0.1,0.5,0.1,0.6c0,0.1,0,0.2,0,0.2l0,0.3
		c0.1,0.9,0.9,1.6,1.9,1.6c1,0,1.7-0.9,1.7-1.9C46.5,36.8,46.5,36.7,46.5,36.4z M33,13.2c3.8,0,8.1,2.4,8.1,6c0,3.3-2.8,6.9-5.9,7.9
		l-0.1,0c-0.8,0-1.6,0-2.4,0.2C29.5,26.8,27,24,27,20.6C27,17.1,29.3,13.2,33,13.2z"/>
	<path id="XMLID_55_" class="st0" d="M24.7,35.7c-0.1-0.8-0.6-2-1.5-3.1c-0.9-1.1-2.1-2.1-3.6-2.7c-0.2-0.1-0.4-0.2-0.6-0.2
		c2.1-1.9,3.6-4.6,3.6-7.4c0-4.8-5.1-8-9.8-8c-4,0-8,3.4-8,9.2c0,3.2,1.8,6,4.4,7.5c-1.1,0.9-2,1.9-2.7,2.9
		c-0.7,1.2-1.1,2.3-1.3,3.1c0,0.2-0.1,0.4-0.1,0.6c0,0.2,0,0.4,0,0.4c0,0.2,0,0.3,0,0.3c0,0,0,0.1,0,0.1c0,1.2,1,2.2,2.2,2.3
		c1.2,0,2.2-1,2.3-2.2c0,0,0-0.1,0-0.3c0-0.1,0-0.1,0-0.2c0,0,0-0.1,0-0.2c0.1-0.4,0.2-1,0.6-1.7c0.4-0.7,1-1.4,1.9-2
		c0.8-0.6,1.8-0.9,2.8-1c0,0,0.2,0.1,0.1,0.1h0.3c0.2,0,0.2-0.1,0.4-0.1c0.3,0,0.6,0,0.8,0.1c0.6,0.1,1.1,0.2,1.6,0.4
		c1,0.4,1.8,1,2.3,1.5c0.5,0.6,0.7,1.1,0.8,1.5c0,0.2,0.1,0.3,0.1,0.4c0,0.1,0,0.2,0,0.2l0,0.2c0.1,0.9,0.9,1.7,1.8,1.7
		c1,0,1.8-0.8,1.8-1.8c0,0,0-0.1,0-0.3C24.8,36.5,24.7,36.1,24.7,35.7z M12.8,17.7c2.9,0,6.2,1.9,6.2,4.4c0,2.9-3,6.2-5.6,6.2
		c-2.8,0-5-2.3-5-5C8.4,20.6,10.1,17.7,12.8,17.7z"/>
</g>
</svg>
