<?xml version="1.0" encoding="utf-8"?>
<!-- Generator: Adobe Illustrator 19.0.0, SVG Export Plug-In . SVG Version: 6.00 Build 0)  -->
<svg version="1.1" id="Layer_1" xmlns="http://www.w3.org/2000/svg" xmlns:xlink="http://www.w3.org/1999/xlink" x="0px" y="0px"
	 viewBox="0 0 50 50" style="enable-background:new 0 0 50 50;" xml:space="preserve">
<style type="text/css">
	.st0{fill:#0E5F72;}
</style>
<g id="XMLID_2113_">
	<path id="XMLID_42_" class="st0" d="M45.6,32.5c-1.4-4.9-3.6-9.8-5.8-14.5c-1-2.1-2-4.3-2.9-6.5c-1.8-4.3-6.1-5.7-9.9-7
		c-0.9-0.3-1.8-0.6-2.6-1c-1.6-0.6-3.8,0.3-8.6,2.9c-0.7,0.4-1.4,0.7-1.6,0.8c-1,0.4-2,0.8-3.1,1.2c-2.5,0.9-5,1.9-7.3,3.3l-1.4,0.8
		L3,14c0.2,0.5,0.6,1.7,1.2,3.3c1.5,4.2,4,11.1,6.4,17c3.7,9.2,5.2,11.5,6.9,11.6c0.2,0,0.5,0,0.8-0.1c9.7-2.8,19.3-6.8,26.4-11.1
		l1.2-0.7L45.6,32.5z M18.2,41.8C16.6,39.4,13.1,30.8,7.8,16c-0.3-0.7-0.5-1.3-0.7-1.8c1.7-0.8,3.5-1.5,5.3-2.2
		c1.1-0.4,2.1-0.8,3.2-1.2c0.4-0.2,1-0.5,1.9-1c1.3-0.7,4.6-2.4,5.7-2.6c0.3,0.1,0.5,0.2,0.8,0.3c0.2,0.6,0.4,1.2,0.6,1.8
		c0.9,2.4,0.7,3.7,3.4,3.2c1.1-0.2,2.3-1,3.5-1.7c0.8,0.6,1.5,1.4,1.9,2.4c0.9,2.2,1.9,4.4,2.9,6.6c1.9,4.1,3.8,8.4,5.1,12.6
		C35,35.8,26.7,39.3,18.2,41.8z"/>
	<path id="XMLID_41_" class="st0" d="M29.5,25.4c-0.3-0.3-0.7-0.5-1-0.8c-0.6-0.6-0.9-1.5-0.7-2.3c0.1-0.5,0.3-0.9,0.4-1.3
		c0.1-0.5-0.1-1-0.5-1.2c-0.3-0.1-0.6,0-0.8,0.1c-0.6,0.2-1.2,0.5-1.7,0.9c-0.2,0.1-0.3,0.2-0.5,0.3c-0.1,0-0.2,0.1-0.2,0.1
		c-0.4,0.1-0.7-0.2-1-0.4c-1-0.6-2.7-1.9-2.9-0.1c-0.1,0.9,0.5,1.9,0.3,2.7c-0.2,1-1.2,1.6-2,2.3c-0.2,0.1-0.3,0.3-0.4,0.5
		c-0.2,0.6,0.5,1.2,1.1,1.2c0.6,0.1,1.3-0.1,1.9,0.1c1.2,0.4,1.5,1.8,2,2.9c0.1,0.2,0.3,0.5,0.6,0.5c0.2,0,0.4-0.1,0.5-0.2
		c1.1-1,1.4-3,2.8-3.3c0.7-0.2,2.6,0.4,2.7-0.9C30.1,26.1,29.8,25.7,29.5,25.4z"/>
</g>
</svg>
