<?xml version="1.0" encoding="utf-8"?>
<!-- Generator: Adobe Illustrator 19.0.0, SVG Export Plug-In . SVG Version: 6.00 Build 0)  -->
<svg version="1.1" id="Layer_1" xmlns="http://www.w3.org/2000/svg" xmlns:xlink="http://www.w3.org/1999/xlink" x="0px" y="0px"
	 viewBox="0 0 50 50" style="enable-background:new 0 0 50 50;" xml:space="preserve">
<style type="text/css">
	.st0{fill:#0E5F72;}
</style>
<g id="XMLID_63_">
	<path id="XMLID_66_" class="st0" d="M48.2,16.8c-0.3-0.5-0.9-0.8-1.6-0.8c-2.1,0.1-3.5-1.5-5.2-3.3c-1.9-2.1-4.3-4.7-8-4.5
		c-0.6,0-1.2,0.4-1.5,1L25,23.5c-0.7-1.4-1.1-2.3-1.1-2.3c0,0,0,0,0,0L18.1,9.2c-0.3-0.6-0.8-1-1.5-1c-3.8-0.2-6.1,2.4-8,4.5
		c-1.6,1.8-3,3.4-5,3.4c-0.1,0-0.2,0-0.2,0c-0.6,0-1.2,0.3-1.6,0.8c-0.3,0.5-0.4,1.2-0.1,1.7l7.6,16c0.3,0.6,0.8,1,1.5,1
		c0.1,0,0.3,0,0.4,0c3.5,0,5.8-2.5,7.6-4.5c1.4-1.5,2.6-2.8,4.1-3.2c-0.8,1.7-1.8,3.7-2.8,5.6c-0.1,0.2-0.4,0.6-0.8,1.2
		c-2.6,3.7-3.8,5.9-3.2,7.2c0.2,0.3,0.6,0.7,1.4,0.7c0.7,0,1.3-0.4,1.6-1c0.3-0.7,0.9-1.5,1.6-2.5c0.9-1.3,2-2.8,2.9-4.6
		c0.5-1,1-1.9,1.4-2.9c0.2,0.3,0.3,0.6,0.5,0.9c0.9,1.8,1.9,3.3,2.9,4.6c0.7,1,1.3,1.8,1.6,2.5c0.3,0.6,0.9,1,1.6,1
		c0.8,0,1.2-0.4,1.4-0.7c0.6-1.2-0.6-3.5-3.2-7.2c-0.4-0.5-0.7-1-0.8-1.2c-0.6-1.2-1.2-2.5-1.8-3.7c1.5,0.4,2.7,1.7,4,3.2
		c1.8,2,4.1,4.5,7.6,4.5c0.1,0,0.3,0,0.4,0c0.6,0,1.2-0.4,1.5-1l7.6-16C48.6,18,48.5,17.3,48.2,16.8z M41.8,24l-1.4,2.8
		c-0.6-0.2-1.2-0.5-1.7-0.8c-0.5,0.9-0.9,1.9-1.4,2.8c0.5,0.4,1.1,0.6,1.7,0.8l-1,2.2c-0.6-0.1-1.2-0.4-1.7-0.8
		c0.3-0.7,0.7-1.5,1-2.2c-1-0.7-1.9-1.6-2.8-2.6c-0.3,0.7-0.6,1.3-1,2c-0.8-0.9-1.7-1.9-2.8-2.7c0.3-0.7,0.7-1.4,1-2.1
		c-0.7-0.5-1.4-1-2.3-1.2l1.4-2.8c0.8,0.3,1.6,0.7,2.3,1.2c0.5-0.9,0.9-1.9,1.4-2.8c-0.7-0.5-1.4-1-2.3-1.2l1.4-2.8
		c0.8,0.3,1.6,0.7,2.3,1.2c0.3-0.7,0.7-1.4,1-2.1c0.7,0.6,1.3,1.3,2,2c0.2,0.3,0.5,0.5,0.7,0.8c-0.3,0.7-0.6,1.3-0.9,2
		c0.9,1,1.8,1.9,2.8,2.6c0.3-0.7,0.6-1.4,1-2c0.5,0.3,1.1,0.6,1.7,0.8l-1,2c-0.6-0.2-1.2-0.5-1.7-0.8c-0.5,0.9-0.9,1.9-1.4,2.8
		C40.6,23.6,41.2,23.9,41.8,24z M15.5,26.4c-0.9,1-1.8,1.9-2.8,2.6c0.3,0.7,0.7,1.5,1,2.2c-0.5,0.4-1.1,0.7-1.7,0.8l-1-2.2
		c0.6-0.2,1.2-0.5,1.7-0.8c-0.5-0.9-0.9-1.9-1.4-2.8c-0.5,0.4-1.1,0.6-1.7,0.8L8.2,24c0.6-0.2,1.2-0.5,1.7-0.8
		c-0.5-0.9-0.9-1.9-1.4-2.8C8,20.7,7.5,21,6.9,21.2l-1-2c0.6-0.2,1.2-0.5,1.7-0.8c0.3,0.7,0.6,1.4,1,2c1-0.7,1.9-1.6,2.8-2.6
		c-0.3-0.7-0.6-1.3-0.9-2c0.2-0.3,0.5-0.5,0.7-0.8c0.7-0.7,1.3-1.4,2-2c0.3,0.7,0.7,1.4,1,2.1c0.7-0.5,1.4-1,2.3-1.2l1.4,2.8
		C17,17,16.3,17.4,15.6,18c0.5,0.9,0.9,1.9,1.4,2.8c0.7-0.5,1.4-1,2.3-1.2l1.4,2.8c-0.8,0.3-1.6,0.7-2.3,1.2c0.3,0.7,0.7,1.4,1,2.1
		c-1.1,0.8-2,1.7-2.8,2.7C16.1,27.7,15.8,27,15.5,26.4z"/>
	<path id="XMLID_90_" class="st0" d="M37.2,20.7c0.5-0.9,0.9-1.9,1.4-2.8c-0.9-1-1.8-1.9-2.8-2.7c-0.5,0.9-0.9,1.9-1.4,2.8
		C35.4,18.7,36.3,19.7,37.2,20.7z"/>
	<path id="XMLID_91_" class="st0" d="M33.1,20.8c-0.5,0.9-0.9,1.9-1.4,2.8c1,0.8,1.9,1.7,2.8,2.7c0.5-0.9,0.9-1.9,1.4-2.8
		C34.9,22.6,34,21.6,33.1,20.8z"/>
	<path id="XMLID_92_" class="st0" d="M37.2,20.7c-0.5,0.9-0.9,1.9-1.4,2.8c0.9,1,1.8,1.9,2.8,2.6c0.5-0.9,0.9-1.9,1.4-2.8
		C39,22.5,38.1,21.6,37.2,20.7z"/>
	<path id="XMLID_93_" class="st0" d="M15.6,18c-0.5-0.9-0.9-1.9-1.4-2.8c-1,0.8-1.9,1.7-2.8,2.7c0.5,0.9,0.9,1.9,1.4,2.8
		C13.7,19.7,14.6,18.7,15.6,18z"/>
	<path id="XMLID_94_" class="st0" d="M18.3,23.7c-0.5-1-0.9-1.9-1.4-2.8c-1,0.8-1.9,1.7-2.8,2.7c0.5,0.9,0.9,1.9,1.4,2.8
		C16.4,25.4,17.3,24.4,18.3,23.7z"/>
	<path id="XMLID_95_" class="st0" d="M14.1,23.5c-0.5-0.9-0.9-1.9-1.4-2.8c-0.9,1-1.8,1.9-2.8,2.6c0.5,0.9,0.9,1.9,1.4,2.8
		C12.3,25.4,13.2,24.5,14.1,23.5z"/>
</g>
</svg>
