<?xml version="1.0" encoding="utf-8"?>
<!-- Generator: Adobe Illustrator 19.0.0, SVG Export Plug-In . SVG Version: 6.00 Build 0)  -->
<svg version="1.1" id="Layer_1" xmlns="http://www.w3.org/2000/svg" xmlns:xlink="http://www.w3.org/1999/xlink" x="0px" y="0px"
	 viewBox="0 0 50 50" style="enable-background:new 0 0 50 50;" xml:space="preserve">
<style type="text/css">
	.st0{fill:#FFFFFF;}
</style>
<g id="XMLID_4324_">
	<g id="XMLID_4325_">
		<path id="XMLID_4622_" class="st0" d="M4.6,36.1v7.4c0,0.5,0.4,0.8,0.8,0.8h5.7c0.5,0,0.8-0.4,0.8-0.8V30.4l-4.2,4.2
			C7,35.5,5.8,36,4.6,36.1z"/>
		<path id="XMLID_4621_" class="st0" d="M14.9,30.3v13.2c0,0.5,0.4,0.8,0.8,0.8h5.7c0.5,0,0.8-0.4,0.8-0.8v-7.8
			c-1.3,0-2.5-0.5-3.5-1.5L14.9,30.3z"/>
		<path id="XMLID_4620_" class="st0" d="M25.1,34.9v8.6c0,0.5,0.4,0.8,0.8,0.8h5.7c0.5,0,0.8-0.4,0.8-0.8V27.7L26,34.3
			C25.7,34.5,25.4,34.8,25.1,34.9z"/>
		<path id="XMLID_4619_" class="st0" d="M42.3,18l-6.8,6.8v18.7c0,0.5,0.4,0.8,0.8,0.8H42c0.5,0,0.8-0.4,0.8-0.8v-25
			c-0.2-0.2-0.3-0.3-0.4-0.4L42.3,18z"/>
		<path id="XMLID_4618_" class="st0" d="M47,5.8c-0.3-0.3-0.7-0.4-1.2-0.4c0,0-0.1,0-0.2,0c-2.7,0.1-5.3,0.3-8,0.4
			c-0.4,0-0.8,0-1.2,0.4c-0.1,0.1-0.2,0.3-0.3,0.4c-0.4,0.9,0.2,1.4,0.4,1.7L37.1,9c0.5,0.5,0.9,0.9,1.4,1.4L22.4,26.6l-7.3-7.3
			c-0.4-0.4-1-0.7-1.6-0.7s-1.2,0.2-1.6,0.7L2.2,29c-0.9,0.9-0.9,2.4,0,3.3l0.4,0.4c0.4,0.4,1,0.7,1.6,0.7s1.2-0.2,1.6-0.7l7.6-7.6
			l7.3,7.3c0.4,0.4,1,0.7,1.6,0.7c0.6,0,1.2-0.2,1.6-0.7l18.2-18.2l2.1,2.1c0.2,0.2,0.6,0.6,1.1,0.6c0.2,0,0.4-0.1,0.7-0.2
			c0.2-0.1,0.3-0.2,0.4-0.3c0.4-0.4,0.5-0.9,0.5-1.3c0.1-1.7,0.2-3.5,0.2-5.2l0.1-2.6C47.4,6.6,47.3,6.1,47,5.8z"/>
	</g>
</g>
</svg>
