<?xml version="1.0" encoding="utf-8"?>
<!-- Generator: Adobe Illustrator 19.2.0, SVG Export Plug-In . SVG Version: 6.00 Build 0)  -->
<svg version="1.1" id="Layer_1" xmlns="http://www.w3.org/2000/svg" xmlns:xlink="http://www.w3.org/1999/xlink" x="0px" y="0px"
	 viewBox="0 0 50 50" style="enable-background:new 0 0 50 50;" xml:space="preserve">
<style type="text/css">
	.st0{fill:#30AED1;}
	.st1{fill:#FFFFFF;}
</style>
<circle class="st0" cx="25.7" cy="25" r="24.3"/>
<g id="XMLID_4324_">
	<g id="XMLID_4325_">
		<path id="XMLID_4622_" class="st1" d="M13.8,29.5v4.2c0,0.3,0.2,0.5,0.5,0.5h3.3c0.3,0,0.5-0.2,0.5-0.5v-7.5l-2.4,2.4
			C15.2,29.2,14.5,29.4,13.8,29.5z"/>
		<path id="XMLID_4621_" class="st1" d="M19.7,26.2v7.5c0,0.3,0.2,0.5,0.5,0.5h3.3c0.3,0,0.5-0.2,0.5-0.5v-4.5c-0.7,0-1.4-0.3-2-0.9
			L19.7,26.2z"/>
		<path id="XMLID_4620_" class="st1" d="M25.5,28.8v4.9c0,0.3,0.2,0.5,0.5,0.5h3.3c0.3,0,0.5-0.2,0.5-0.5v-9L26,28.5
			C25.8,28.6,25.7,28.8,25.5,28.8z"/>
		<path id="XMLID_4619_" class="st1" d="M35.3,19.2L31.4,23v10.7c0,0.3,0.2,0.5,0.5,0.5h3.3c0.3,0,0.5-0.2,0.5-0.5V19.4
			C35.5,19.3,35.4,19.3,35.3,19.2L35.3,19.2z"/>
		<path id="XMLID_4618_" class="st1" d="M38,12.2C37.8,12,37.6,12,37.3,12c0,0-0.1,0-0.1,0c-1.5,0.1-3,0.2-4.6,0.2
			c-0.2,0-0.5,0-0.7,0.2c-0.1,0.1-0.1,0.2-0.2,0.2c-0.2,0.5,0.1,0.8,0.2,1l0.3,0.4c0.3,0.3,0.5,0.5,0.8,0.8L24,24.1l-4.2-4.2
			c-0.2-0.2-0.6-0.4-0.9-0.4c-0.3,0-0.7,0.1-0.9,0.4l-5.5,5.5c-0.5,0.5-0.5,1.4,0,1.9l0.2,0.2c0.2,0.2,0.6,0.4,0.9,0.4
			s0.7-0.1,0.9-0.4l4.3-4.3l4.2,4.2c0.2,0.2,0.6,0.4,0.9,0.4c0.3,0,0.7-0.1,0.9-0.4L35.2,17l1.2,1.2c0.1,0.1,0.3,0.3,0.6,0.3
			c0.1,0,0.2-0.1,0.4-0.1c0.1-0.1,0.2-0.1,0.2-0.2c0.2-0.2,0.3-0.5,0.3-0.7c0.1-1,0.1-2,0.1-3l0.1-1.5C38.2,12.6,38.2,12.4,38,12.2z
			"/>
	</g>
</g>
</svg>
