<?xml version="1.0" encoding="utf-8"?>
<!-- Generator: Adobe Illustrator 19.2.0, SVG Export Plug-In . SVG Version: 6.00 Build 0)  -->
<svg version="1.1" id="Layer_1" xmlns="http://www.w3.org/2000/svg" xmlns:xlink="http://www.w3.org/1999/xlink" x="0px" y="0px"
	 viewBox="0 0 50 50" style="enable-background:new 0 0 50 50;" xml:space="preserve">
<style type="text/css">
	.st0{fill:#5E5CA7;}
	.st1{fill:#FFFFFF;}
</style>
<circle class="st0" cx="25" cy="25" r="24.3"/>
<path id="XMLID_4623_" class="st1" d="M33.7,20.5c0,0.1,0,0.3-0.1,0.4L21.7,32.8c-0.2,0.2-0.5,0.2-0.7,0L17.4,29
	c-0.2-0.2-0.2-0.5,0-0.7l11.9-11.9c0.1-0.1,0.2-0.1,0.4-0.1c0.1,0,0.3,0,0.4,0.1l3.6,3.6C33.6,20.2,33.7,20.5,33.7,20.5z M29.5,10.9
	c-0.3,0-0.5,0.1-0.7,0.3L13.2,26.7c-0.2,0.2-0.3,0.4-0.3,0.7v8.7c0,0.6,0.4,1,1,1h8.7c0.3,0,0.5-0.1,0.7-0.3l15.5-15.6
	c0.2-0.2,0.3-0.4,0.3-0.7c0-0.3-0.1-0.5-0.3-0.7l-8.7-8.7l0,0C30,10.9,29.8,10.9,29.5,10.9L29.5,10.9z"/>
</svg>
