<?xml version="1.0" encoding="utf-8"?>
<!-- Generator: Adobe Illustrator 19.0.0, SVG Export Plug-In . SVG Version: 6.00 Build 0)  -->
<svg version="1.1" id="Layer_1" xmlns="http://www.w3.org/2000/svg" xmlns:xlink="http://www.w3.org/1999/xlink" x="0px" y="0px"
	 viewBox="0 0 50 50" style="enable-background:new 0 0 50 50;" xml:space="preserve">
<style type="text/css">
	.st0{fill:#D04386;}
</style>
<g id="XMLID_41_">
	<g id="XMLID_42_">
		<path id="XMLID_57_" class="st0" d="M8.3,4.2C8.3,4.2,8.3,4.2,8.3,4.2C8.3,4,8.2,4,8.3,4.2z"/>
	</g>
	<g id="XMLID_50_">
		<path id="XMLID_55_" class="st0" d="M34.6,16.6c2.6-1.9,6-11.1,6.5-12.4c-0.6,1.4-8.1,4.1-10.8,8.5c-2.3,3.9-2.5,11.6-2.4,13.5
			C27,26,26,25.9,25,25.9v0c0,0,0,0,0,0c0,0,0,0,0,0v0c-1,0-2.5,0.2-3.7,0.5c0-1.4,0.2-9.6-2.2-13.7c-2.6-4.4-10.2-7-10.8-8.5
			c0.5,1.3,3.9,10.5,6.5,12.4c3.8,2.7,5.7,8.5,5.1,10c0,0.1,0,0.1,0,0.2c-1.1,0.4-2.2,0.9-3.1,1.6c-0.9,0.6-1.7,1.4-2.4,2.3
			c-1.8,2.1-2.5,4.9-1.4,7.7c1.4,3.7,4.8,5.1,8.4,5.6c0.9,0.1,1.8,0.2,2.7,0.2c0.2,0,1,0,1,0v0c0,0-0.1,0-0.1,0c0.1,0,0.1,0,0.1,0v0
			c1,0,0.6,0,0.8,0c0.9,0,1.9-0.1,2.8-0.2c3.6-0.5,7-1.9,8.4-5.6c1.1-2.8,0.4-5.6-1.4-7.7c-0.7-0.9-1.5-1.6-2.4-2.3
			c-1.2-0.8-2.5-1.4-3.9-1.9C29.1,24.8,31,19.3,34.6,16.6z"/>
	</g>
	<g id="XMLID_51_">
		<path id="XMLID_53_" class="st0" d="M41.1,4.2C41.1,4.2,41.1,4.2,41.1,4.2C41.2,4,41.2,4,41.1,4.2z"/>
	</g>
</g>
</svg>
