<?xml version="1.0" encoding="utf-8"?>
<!-- Generator: Adobe Illustrator 19.0.0, SVG Export Plug-In . SVG Version: 6.00 Build 0)  -->
<svg version="1.1" id="Layer_1" xmlns="http://www.w3.org/2000/svg" xmlns:xlink="http://www.w3.org/1999/xlink" x="0px" y="0px"
	 viewBox="0 0 50 50" style="enable-background:new 0 0 50 50;" xml:space="preserve">
<style type="text/css">
	.st0{fill:#8B8E90;}
</style>
<g id="XMLID_42_">
	<g id="XMLID_43_">
		<path id="XMLID_57_" class="st0" d="M7.5,5L7.5,5C7.5,4.8,7.4,4.8,7.5,5z"/>
	</g>
	<g id="XMLID_50_">
		<path id="XMLID_55_" class="st0" d="M33.8,17.4c2.6-1.9,6-11.1,6.5-12.4c-0.6,1.4-8.1,4.1-10.8,8.5C27.2,17.4,27,25.1,27.1,27
			c-0.9-0.2-1.9-0.3-2.9-0.3l0,0l0,0l0,0l0,0c-1,0-2.5,0.2-3.7,0.5c0-1.4,0.2-9.6-2.2-13.7C15.7,9.1,8.1,6.5,7.5,5
			C8,6.3,11.4,15.5,14,17.4c3.8,2.7,5.7,8.5,5.1,10c0,0.1,0,0.1,0,0.2C18,28,16.9,28.5,16,29.2c-0.9,0.6-1.7,1.4-2.4,2.3
			c-1.8,2.1-2.5,4.9-1.4,7.7c1.4,3.7,4.8,5.1,8.4,5.6c0.9,0.1,1.8,0.2,2.7,0.2c0.2,0,1,0,1,0l0,0h-0.1c0.1,0,0.1,0,0.1,0l0,0
			c1,0,0.6,0,0.8,0c0.9,0,1.9-0.1,2.8-0.2c3.6-0.5,7-1.9,8.4-5.6c1.1-2.8,0.4-5.6-1.4-7.7c-0.7-0.9-1.5-1.6-2.4-2.3
			c-1.2-0.8-2.5-1.4-3.9-1.9C28.3,25.6,30.2,20.1,33.8,17.4z"/>
	</g>
	<g id="XMLID_51_">
		<path id="XMLID_53_" class="st0" d="M40.3,5L40.3,5C40.4,4.8,40.4,4.8,40.3,5z"/>
	</g>
</g>
</svg>
