<?xml version="1.0" encoding="utf-8"?>
<!-- Generator: Adobe Illustrator 19.0.0, SVG Export Plug-In . SVG Version: 6.00 Build 0)  -->
<svg version="1.1" id="Layer_1" xmlns="http://www.w3.org/2000/svg" xmlns:xlink="http://www.w3.org/1999/xlink" x="0px" y="0px"
	 viewBox="0 0 50 50" style="enable-background:new 0 0 50 50;" xml:space="preserve">
<style type="text/css">
	.st0{fill:#FFFFFF;}
</style>
<g id="XMLID_4395_">
	<path id="XMLID_4396_" class="st0" d="M6.6,23.3c0,0,4.2-10.2,14-13.7c2.2-0.8,7.2-2,9,2.5c0,0,0.9,1.8,1.2,3.7
		c0.3,1.9,0.9,5.2,1.1,5.7c0.2,0.5,1.3,2.7,3.1,2.5c1.8-0.2,2.2-2.3,2.5-3.5c0.3-1.2,0.7-8,3.2-8.5c2.5-0.5,4.6,6.1,4.6,6.1
		s1.1,4.5,1.2,5.4c0.1,0.8,0.7,4.6,0.3,8.4c-0.3,3.8-1.8,7.7-3.6,7.9c-0.6,0-0.8-0.1-0.2-2.4c0.6-2.2,1.4-6,0-6.5
		c-1.4-0.5-3.7,2.5-4.7,5c-1.1,2.4-2.8,3.6-5.6,3.4c-2.8-0.2-3-2.6-2.6-6.6c0.4-4,0-8.4-3.9-9.8c-3.9-1.5-8.3,10.1-8.6,10.6
		c-0.3,0.5-1.5,8-7.8,6.8C3.6,39.1,2.2,31.8,6.6,23.3z"/>
	<path id="XMLID_4399_" class="st0" d="M3.7,33.9c0,0,0-0.2-0.1-0.4c0-0.3-0.1-0.7-0.1-1.3c-0.1-1.1,0-2.7,0.3-4.5
		c0.2-0.9,0.4-1.9,0.8-3c0.3-1,0.8-2.1,1.3-3.2c0.5-1.1,1.1-2.1,1.9-3.2c0.7-1,1.5-2,2.3-3c0.8-0.9,1.7-1.8,2.7-2.7
		c0.9-0.8,1.9-1.6,2.9-2.2c1-0.7,2-1.2,3-1.6c1-0.4,2-0.7,3-0.9c0.9-0.2,1.8-0.2,2.6-0.1C25,8,25.6,8.2,26.1,8.4
		C26.7,8.6,27,8.8,27.3,9c0.2,0.2,0.4,0.3,0.4,0.3S27.5,9.2,27.2,9c-0.3-0.1-0.7-0.3-1.2-0.5c-0.5-0.2-1.2-0.3-1.9-0.3
		c-0.7,0-1.6,0-2.5,0.2c-0.9,0.2-1.8,0.5-2.8,1c-0.9,0.4-1.9,1-2.8,1.7c-0.9,0.7-1.9,1.4-2.7,2.2c-0.9,0.8-1.8,1.7-2.6,2.6
		c-0.8,0.9-1.6,1.9-2.3,2.9c-0.7,1-1.3,2-1.9,3c-0.5,1-1,2-1.4,3c-0.4,1-0.7,1.9-0.9,2.8c-0.4,1.8-0.6,3.3-0.7,4.4c0,0.5,0,1,0,1.3
		C3.7,33.7,3.7,33.9,3.7,33.9z"/>
	<path id="XMLID_4400_" class="st0" d="M3.2,33.4c0,0-0.2-0.4-0.3-1.1C2.8,32,2.7,31.5,2.7,31c0-0.5-0.1-1.1-0.1-1.7
		c0-0.6,0-1.3,0.1-2c0.1-0.7,0.2-1.5,0.4-2.2c0.2-0.8,0.5-1.5,0.7-2.3c0.3-0.8,0.7-1.5,1.1-2.3l0.3-0.6l0.3-0.5
		c0.1-0.2,0.2-0.4,0.3-0.5c0.1-0.2,0.2-0.3,0.4-0.5c0.1-0.2,0.2-0.3,0.4-0.5c0.1-0.2,0.2-0.3,0.4-0.5c0.1-0.2,0.2-0.3,0.4-0.5
		c0.1-0.2,0.3-0.3,0.4-0.5c0.5-0.6,1-1.2,1.5-1.7c0.5-0.5,1-1,1.5-1.4c0.2-0.2,0.5-0.4,0.7-0.6c0.2-0.2,0.4-0.3,0.6-0.5
		c0.2-0.2,0.4-0.3,0.6-0.4c0.2-0.1,0.3-0.2,0.5-0.3c0.3-0.2,0.5-0.4,0.7-0.5c0.2-0.1,0.2-0.2,0.2-0.2s-0.1,0.1-0.2,0.2
		c-0.1,0.1-0.3,0.3-0.6,0.6c-0.1,0.1-0.3,0.3-0.4,0.4c-0.2,0.2-0.3,0.3-0.5,0.5c-0.2,0.2-0.4,0.4-0.6,0.6c-0.2,0.2-0.4,0.4-0.6,0.6
		c-0.4,0.4-0.9,0.9-1.4,1.4c-0.5,0.5-1,1.1-1.4,1.7C8.2,17,8,17.2,7.9,17.3c-0.1,0.2-0.2,0.3-0.3,0.5c-0.1,0.2-0.2,0.3-0.4,0.5
		c-0.1,0.2-0.2,0.3-0.3,0.5c-0.1,0.2-0.2,0.3-0.3,0.5c-0.1,0.2-0.2,0.3-0.3,0.5l-0.3,0.5l-0.3,0.5c-0.4,0.7-0.7,1.4-1.1,2.2
		c-0.3,0.7-0.6,1.5-0.8,2.2c-0.2,0.7-0.4,1.4-0.5,2.1c-0.1,0.7-0.2,1.3-0.3,2c-0.1,1.2,0,2.3,0,3C3.1,33,3.2,33.4,3.2,33.4z"/>
	<path id="XMLID_4401_" class="st0" d="M33.5,22.9c0,0,0.1,0,0.2,0.1c0.1,0.1,0.3,0.2,0.5,0.2c0.2,0.1,0.5,0.1,0.8-0.1
		c0.3-0.1,0.5-0.4,0.7-0.8c0.2-0.3,0.4-0.8,0.5-1.2c0.1-0.4,0.3-0.9,0.4-1.4c0.1-0.5,0.2-1,0.3-1.6c0.1-0.5,0.1-1.1,0.2-1.6
		c0.1-0.6,0.2-1.1,0.3-1.7c0.1-0.5,0.3-1.1,0.5-1.6c0.2-0.5,0.5-1,0.8-1.4c0.2-0.2,0.4-0.4,0.6-0.5c0.2-0.1,0.5-0.3,0.7-0.3
		c0.5-0.1,0.9,0,1.3,0.2c0.3,0.2,0.6,0.4,0.8,0.5c0.2,0.2,0.3,0.3,0.4,0.4c0.1,0.1,0.1,0.2,0.1,0.2l0,0c0,0-0.1,0-0.2-0.1
		c-0.1-0.1-0.3-0.2-0.5-0.3c-0.2-0.1-0.5-0.3-0.8-0.4c-0.3-0.1-0.7-0.1-1,0c-0.3,0.1-0.6,0.4-0.9,0.7c-0.3,0.4-0.5,0.8-0.6,1.3
		c-0.2,0.5-0.3,1-0.4,1.5c-0.1,0.5-0.2,1.1-0.3,1.6c-0.1,0.5-0.2,1.1-0.3,1.6c-0.1,0.5-0.2,1.1-0.4,1.6c-0.1,0.5-0.3,1-0.5,1.5
		c-0.2,0.5-0.4,0.9-0.7,1.2c-0.3,0.4-0.6,0.6-0.9,0.8c-0.4,0.1-0.7,0.1-0.9,0c-0.2-0.1-0.4-0.2-0.5-0.3C33.6,23,33.5,22.9,33.5,22.9
		z"/>
	<path id="XMLID_4402_" class="st0" d="M34.1,22.9c0,0,0,0,0.1,0c0.1,0,0.2,0,0.3-0.1c0.1-0.1,0.3-0.2,0.4-0.3
		c0.1-0.2,0.2-0.4,0.3-0.6c0.2-0.5,0.3-1,0.4-1.7c0.1-0.3,0.1-0.6,0.2-1c0-0.3,0.1-0.7,0.1-1c0-0.3,0.1-0.7,0.1-1
		c0.1-0.3,0.1-0.7,0.2-1c0.1-0.3,0.1-0.6,0.2-0.9c0.1-0.3,0.2-0.6,0.2-0.8c0.1-0.3,0.2-0.5,0.3-0.7c0.1-0.2,0.2-0.3,0.3-0.5
		c0.1-0.1,0.2-0.2,0.2-0.3c0.1-0.1,0.1-0.1,0.1-0.1s0,0-0.1,0.1c0,0.1-0.1,0.2-0.2,0.3c0,0.1-0.1,0.1-0.1,0.2c0,0.1-0.1,0.2-0.1,0.3
		c-0.1,0.2-0.1,0.4-0.2,0.7c-0.1,0.3-0.1,0.5-0.2,0.8c0,0.3-0.1,0.6-0.1,0.9c-0.1,0.6-0.1,1.3-0.2,2c0,0.3-0.1,0.7-0.1,1
		c-0.1,0.3-0.1,0.7-0.2,1c-0.2,0.7-0.3,1.3-0.6,1.7c-0.1,0.2-0.3,0.4-0.5,0.6c-0.2,0.2-0.4,0.2-0.5,0.3c-0.2,0-0.3,0-0.4,0
		C34.1,22.9,34.1,22.9,34.1,22.9z"/>
	<path id="XMLID_4403_" class="st0" d="M42.4,31c0,0,0,0,0.1,0c0.1,0,0.2,0,0.3,0c0.1,0,0.1,0,0.2,0.1c0.1,0,0.1,0.1,0.2,0.2
		c0.1,0.1,0.3,0.3,0.3,0.5c0.2,0.4,0.2,0.9,0.2,1.4c0,0.5-0.1,1.1-0.2,1.6c-0.2,1.1-0.5,2.1-0.7,2.8c-0.2,0.8-0.4,1.3-0.4,1.3
		s0.1-0.5,0.2-1.3c0.1-0.4,0.2-0.9,0.3-1.3c0.1-0.5,0.2-1,0.3-1.5c0-0.3,0.1-0.5,0.1-0.8c0-0.3,0-0.5,0-0.7c0-0.5,0-0.9-0.2-1.3
		c-0.1-0.2-0.1-0.3-0.2-0.4c0-0.1-0.1-0.1-0.1-0.2c0,0-0.1-0.1-0.1-0.1c0,0-0.1-0.1-0.1-0.1C42.5,31.1,42.5,31.1,42.4,31
		C42.4,31,42.4,31,42.4,31z"/>
	<path id="XMLID_4404_" class="st0" d="M42,31.1C42,31.1,42,31.1,42,31.1c0.1,0,0.2,0.1,0.2,0.1c0.1,0,0.1,0.1,0.2,0.2
		c0.1,0.1,0.2,0.2,0.2,0.3c0.2,0.2,0.3,0.5,0.3,0.9c0.1,0.3,0,0.7,0,1c0,0.3-0.1,0.7-0.2,1c-0.1,0.3-0.2,0.6-0.2,0.9
		c-0.1,0.2-0.1,0.4-0.2,0.6c0,0.1-0.1,0.2-0.1,0.2l0,0c0,0,0-0.1,0-0.2c0-0.1,0-0.4,0.1-0.6c0-0.3,0.1-0.5,0.1-0.9
		c0-0.3,0.1-0.6,0.1-1c0-0.2,0-0.3,0-0.5c0-0.2,0-0.3,0-0.5c0-0.1,0-0.3-0.1-0.4c0-0.1-0.1-0.3-0.1-0.4c0-0.1-0.1-0.2-0.1-0.3
		c-0.1-0.1-0.1-0.2-0.1-0.2C42.1,31.3,42.1,31.2,42,31.1C42,31.2,42,31.1,42,31.1L42,31.1z"/>
	<path id="XMLID_4405_" class="st0" d="M25.8,23.3c0,0,0.1,0,0.2,0c0.1,0,0.1,0,0.2,0.1c0.1,0,0.2,0.1,0.3,0.1
		c0.2,0.1,0.5,0.2,0.8,0.4c0.3,0.2,0.6,0.4,0.8,0.7c0.3,0.3,0.5,0.7,0.8,1.1c0.2,0.4,0.4,0.9,0.6,1.3c0.3,1,0.5,2,0.4,3.1
		c0,0.3,0,0.5-0.1,0.8l0,0.4c0,0.1,0,0.2,0,0.4c-0.1,0.5-0.1,1-0.1,1.5c0,0.5,0,0.9,0,1.4c0,0.4,0,0.8,0,1.2c0,0.8,0.1,1.4,0.2,1.8
		c0.1,0.2,0.1,0.4,0.1,0.5c0,0.1,0.1,0.2,0.1,0.2s0,0-0.1-0.1c-0.1-0.1-0.2-0.2-0.3-0.5c-0.2-0.4-0.5-1-0.6-1.8
		c-0.2-0.8-0.3-1.7-0.3-2.7c0-0.5,0-1,0.1-1.5c0-0.1,0-0.3,0-0.4l0-0.4c0-0.2,0.1-0.5,0.1-0.7c0-0.5,0-1,0-1.5c0-0.5-0.1-1-0.2-1.4
		c-0.1-0.5-0.2-0.9-0.4-1.3c-0.2-0.4-0.4-0.7-0.6-1c-0.2-0.3-0.4-0.6-0.6-0.8c-0.2-0.2-0.4-0.4-0.6-0.5c-0.1-0.1-0.2-0.1-0.3-0.1
		c-0.1,0-0.1-0.1-0.2-0.1C25.9,23.3,25.8,23.3,25.8,23.3L25.8,23.3z"/>
	<path id="XMLID_4406_" class="st0" d="M26.9,24.9c0,0,0,0,0.1,0.1c0.1,0.1,0.2,0.2,0.3,0.3c0.3,0.3,0.6,0.8,0.8,1.4
		c0.2,0.6,0.3,1.4,0.3,2.2c0,0.4,0,0.8-0.1,1.2c0,0.4-0.1,0.8-0.1,1.2c0,0.4,0,0.8,0,1.2c0,0.4,0,0.8,0.1,1.2
		c0.1,0.8,0.2,1.5,0.3,2.1c0.1,0.3,0.1,0.6,0.2,0.8c0.1,0.2,0.2,0.4,0.2,0.6c0.1,0.2,0.2,0.3,0.2,0.3c0,0,0.1,0.1,0.1,0.1
		c0,0,0,0,0,0l-0.1,0.1c0,0,0,0,0,0c0,0-0.1,0-0.1-0.1c-0.1-0.1-0.2-0.2-0.3-0.3c-0.2-0.3-0.5-0.8-0.7-1.4c-0.1-0.3-0.2-0.6-0.3-1
		c-0.1-0.4-0.2-0.7-0.2-1.1c-0.1-0.4-0.1-0.8-0.1-1.2c0-0.4,0-0.8,0-1.3c0-0.4,0-0.9,0.1-1.2c0-0.4,0-0.8,0-1.2c0-0.4,0-0.7-0.1-1.1
		c0-0.3-0.1-0.7-0.2-0.9c-0.1-0.6-0.3-1-0.4-1.4c-0.1-0.2-0.1-0.3-0.2-0.4C26.8,25,26.8,24.9,26.9,24.9L26.9,24.9z"/>
</g>
</svg>
