<?xml version="1.0" encoding="utf-8"?>
<!-- Generator: Adobe Illustrator 19.2.0, SVG Export Plug-In . SVG Version: 6.00 Build 0)  -->
<svg version="1.1" id="Layer_1" xmlns="http://www.w3.org/2000/svg" xmlns:xlink="http://www.w3.org/1999/xlink" x="0px" y="0px"
	 viewBox="0 0 336.2 310.2" style="enable-background:new 0 0 336.2 310.2;" xml:space="preserve">
<style type="text/css">
	.st0{fill:#FFFFFF;stroke:#929497;stroke-width:1.5189;stroke-miterlimit:10;}
	.st1{fill:#333642;}
	.st2{fill:#ECE7E1;}
	.st3{fill:none;stroke:#58595B;stroke-width:1.5189;stroke-miterlimit:10;}
	.st4{fill:#DDDDDD;}
	.st5{opacity:0.5;clip-path:url(#SVGID_2_);fill:#B2B1B1;}
	.st6{opacity:0.5;fill:#B2B1B1;}
	.st7{opacity:0.3;fill:#7A7B7B;}
	.st8{fill:#2DADD1;}
	.st9{fill:#B4D034;}
	.st10{fill:#F89E1C;}
	.st11{fill:#F1F1F2;}
</style>
<g>
	<path class="st0" d="M161.2,82c-4.4,0-8.8,0.3-13,0.8c6.3-8.4,16.4-11.4,26.3-13.6c0.2,0,0.4,0,0.5,0c0.7,0.1,1.4,0,1.9-0.3
		c1.4-0.2,2.5-1.6,2.1-3.1c-2.7-10.2-8.2-26.1-21-26c-6.4,0.1-14.2,5.5-19.3,8.8c-6,3.9-11.2,8.9-14.2,15.4c-1,0.9-1.4,2.4-0.2,3.6
		c5,5,7.8,11.2,10.2,17.7c-39.2,9.9-67.7,41-67.7,77.7c0,44.8,42.3,81.1,94.5,81.1c52.2,0,94.5-36.3,94.5-81.1S213.4,82,161.2,82z"
		/>
	<ellipse class="st1" cx="161.8" cy="160.7" rx="82" ry="74.2"/>
	<path class="st2" d="M205.1,145.7c-0.5,32.3-30.8,57.6-61.2,50c-32.8-7.6-50.5-40.4-37.9-70.8c7.6-17.7,25.3-25.3,43-27.8
		c22.7-2.5,43,10.1,52.1,29.9C203.7,132.8,205.1,139.1,205.1,145.7z"/>
	<path class="st3" d="M139.7,84.5c0,0,6.8,16.1,7.2,31.1"/>
	<path class="st4" d="M139.9,88.3c0,0-8.8-20.7-12.2-22.3c-3.3-1.6,22.6-26,32.4-23.8c7.2,1.6,15.8,24,15.6,24.8
		C175.6,67.8,154.5,65.8,139.9,88.3z"/>
	<g>
		<defs>
			<path id="SVGID_1_" d="M205.1,145.7c-0.5,32.3-30.8,57.6-61.2,50c-32.8-7.6-50.5-40.4-37.9-70.8c7.6-17.7,25.3-25.3,43-27.8
				c22.7-2.5,43,10.1,52.1,29.9C203.7,132.8,205.1,139.1,205.1,145.7z"/>
		</defs>
		<clipPath id="SVGID_2_">
			<use xlink:href="#SVGID_1_"  style="overflow:visible;"/>
		</clipPath>
		<path class="st5" d="M186.1,170.6c-13.3,4.2-23,8.2-37.2,5.4c-4.1-0.8-8-2.2-11.6-4.1c0.5-0.4,0.8-1,0.8-1.8v-0.9
			c0-3.3-5.1-3.3-5.1,0v0.3c-7.5-4.7-14.1-11.1-20.1-17.7c-2.3-7-3.1-14.5-1.9-21c3.9-20.3-26.2-27.1-30.2-6.7
			c-2.8,14.2-0.9,28,4,40.7c0.2,0.5,0.3,1.1,0.6,1.6c0.1,0.3,0.3,0.7,0.5,1c2.7,6.5,6.3,12.7,10.4,18.5c4.3,6.1,9.3,10.4,14.7,13.8
			c13,10.4,29,16.8,46,17.7c6.5,0.4,11.1-4,13.3-9.6c8.3-1.6,16.5-4.2,25-6.8C214.5,195.1,205.3,164.5,186.1,170.6z"/>
	</g>
	<path class="st6" d="M147.4,115c-1,0.5-1.6,0.6-2.1-0.5c-0.7-1.5-2.8-0.2-2.2,1.3c1.1,2.4,3.4,2.4,5.5,1.4
		C150.2,116.5,148.9,114.4,147.4,115z"/>
	<path class="st6" d="M178.5,128.7c-1.2-0.7-2.9-0.3-3.6,0.9c-0.6,1-0.4,2.1,0.3,2.9c0.3,1.1,1.2,1.9,2.5,1.9c1.4,0,2.7-1.2,2.6-2.6
		C180.2,130.5,179.7,129.4,178.5,128.7z"/>
	<path class="st6" d="M128.7,119c0-0.9-0.9-1.9-1.8-1.2c-1.1,0.8-1.3,2-1.3,3.3c0,1.2,1.4,1.5,2.1,0.9c0.4-0.1,0.8-0.3,1-0.9
		c0.1-0.3,0.2-0.6,0.3-0.9C129.2,119.7,129,119.3,128.7,119z"/>
	<path class="st7" d="M158.1,107.1c0.3-0.5,0-1.3-0.7-1c-0.5,0.2-0.6,0.5-0.6,1c0,0.3,0.1,0.4,0.3,0.5c0.1,0.1,0.2,0.1,0.4,0.1
		c0.3,0,0.4-0.1,0.5-0.3C158,107.3,158.1,107.2,158.1,107.1z"/>
	<path class="st7" d="M131.3,152.9v0.6c0,1.6,2.5,1.6,2.5,0v-0.6C133.9,151.3,131.3,151.3,131.3,152.9z"/>
	<path class="st7" d="M191.6,139.1c-1.7,0-1.7,3.8,0,3.8C193.4,142.9,193.4,139.1,191.6,139.1z"/>
	<path class="st7" d="M119.5,122.3v0.3c0,1.6,2.5,1.6,2.5,0v-0.3C122,120.6,119.5,120.6,119.5,122.3z"/>
	<path class="st7" d="M166.7,153.2c-1.6,0-1.6,2.5,0,2.5C168.3,155.7,168.3,153.2,166.7,153.2z"/>
	<g>
		<path class="st8" d="M142,66.8c0,0-1-5.7,2.5-10c0.8-1,2.7-2.9,4.7-1.4c0,0,0.9,0.5,1.6,1.3c0.7,0.8,1.8,2.1,2,2.2
			c0.2,0.2,1.3,0.9,2.1,0.3c0.7-0.6,0.3-1.6,0.1-2.3c-0.2-0.6-1.9-3.8-0.9-4.7c1-0.9,3.7,1.5,3.7,1.5s1.8,1.7,2,2
			c0.3,0.4,1.6,1.9,2.5,3.6c0.9,1.8,1.3,3.9,0.6,4.5c-0.2,0.2-0.4,0.2-0.7-1c-0.4-1.2-1-3-1.8-2.9c-0.8,0.2-0.9,2.2-0.7,3.5
			c0.2,1.4-0.3,2.4-1.6,3.1c-1.3,0.7-2-0.3-3-2.2c-0.9-1.9-2.3-3.7-4.5-3.3c-2.1,0.4-0.9,6.8-0.9,7.1c0,0.3,1.5,4-1.6,5.2
			C145,74.6,142.4,71.8,142,66.8z"/>
		<g>
			<path class="st9" d="M143.6,72.3c0,0-0.2-0.2-0.5-0.7c-0.3-0.5-0.7-1.2-1.1-2.1c-0.2-0.5-0.3-1-0.5-1.5c-0.1-0.6-0.2-1.1-0.3-1.8
				c0-0.6-0.1-1.3,0-1.9c0-0.6,0.1-1.3,0.2-2c0.1-0.6,0.3-1.3,0.5-1.9c0.2-0.6,0.4-1.2,0.7-1.8c0.5-1.1,1.2-2.1,1.9-2.8
				c0.4-0.3,0.8-0.6,1.1-0.8c0.4-0.2,0.7-0.3,1-0.3c0.6-0.1,0.9-0.1,0.9-0.1s-0.3,0-0.9,0.1c-0.3,0.1-0.6,0.2-0.9,0.4
				c-0.3,0.2-0.7,0.4-1.1,0.8c-0.7,0.7-1.3,1.6-1.8,2.7c-0.2,0.6-0.5,1.1-0.6,1.8c-0.2,0.6-0.3,1.2-0.4,1.9
				c-0.1,0.6-0.2,1.3-0.2,1.9c0,0.6,0,1.3,0,1.9c0,0.6,0.1,1.2,0.2,1.7c0.1,0.5,0.3,1.1,0.4,1.5c0.3,0.9,0.7,1.7,1,2.1
				C143.4,72,143.6,72.3,143.6,72.3z"/>
		</g>
		<g>
			<path class="st10" d="M143.2,72.2c0,0-0.7-0.6-1.4-1.7c-0.2-0.3-0.3-0.6-0.5-0.9c-0.2-0.3-0.3-0.7-0.4-1.1
				c-0.1-0.4-0.2-0.8-0.3-1.2c0-0.4-0.1-0.9-0.1-1.3c0-0.4-0.1-0.9,0-1.3c0-0.4,0-0.9,0.1-1.3c0.1-0.4,0.1-0.8,0.2-1.2
				c0.1-0.4,0.2-0.7,0.3-1c0.1-0.6,0.4-1.1,0.5-1.5c0.1-0.4,0.2-0.6,0.2-0.6s-0.1,0.2-0.2,0.6c-0.1,0.4-0.3,0.9-0.4,1.5
				c-0.1,0.3-0.1,0.7-0.2,1c-0.1,0.4-0.1,0.8-0.2,1.2c-0.1,0.4-0.1,0.8-0.1,1.2c0,0.4,0,0.9,0,1.3c0,0.4,0.1,0.9,0.1,1.3
				c0.1,0.4,0.2,0.8,0.3,1.2c0.1,0.4,0.2,0.8,0.4,1.1c0.1,0.3,0.3,0.7,0.4,0.9C142.6,71.6,143.2,72.2,143.2,72.2z"/>
		</g>
		<g>
			<path class="st9" d="M153.9,59.2c0,0,0.1,0.1,0.4,0c0.1,0,0.3-0.1,0.3-0.3c0.1-0.1,0.1-0.3,0.1-0.5c0-0.9-0.5-1.9-1-3
				c-0.2-0.5-0.4-1.1-0.5-1.7c-0.1-0.5-0.1-1.1,0.3-1.5c0.2-0.2,0.4-0.2,0.6-0.3c0.2,0,0.3,0,0.5,0c0.3,0,0.4,0.1,0.4,0.1l0,0
				c0,0-0.1,0-0.4,0c-0.2,0-0.7,0-0.9,0.3c-0.3,0.3-0.3,0.8-0.2,1.4c0.1,0.5,0.3,1.1,0.5,1.6c0.5,1.1,0.9,2.2,0.9,3.1
				c0,0.2-0.1,0.4-0.2,0.6c-0.1,0.2-0.3,0.2-0.4,0.2C154,59.2,153.9,59.2,153.9,59.2z"/>
		</g>
		<g>
			<path class="st10" d="M154.1,59c0,0,0.1,0,0.2-0.2c0.1-0.1,0.1-0.4,0.1-0.6c-0.1-0.5-0.4-1.2-0.7-1.9c-0.3-0.7-0.6-1.3-0.7-1.9
				c-0.1-0.5,0-0.9,0-0.9s-0.1,0.4,0.1,0.9c0.2,0.5,0.5,1.2,0.8,1.8c0.3,0.7,0.6,1.4,0.6,1.9c0,0.3-0.1,0.5-0.2,0.7
				C154.2,59,154.1,59,154.1,59z"/>
		</g>
		<g>
			<path class="st9" d="M160.1,60.3c0,0,0.1,0,0.2-0.1c0.1,0,0.3,0,0.5,0.1c0.4,0.3,0.6,0.8,0.8,1.3c0.2,0.5,0.4,1.1,0.5,1.5
				c0.1,0.4,0.2,0.7,0.2,0.7s-0.1-0.3-0.2-0.7c-0.2-0.4-0.3-0.9-0.5-1.4c-0.2-0.5-0.5-1-0.8-1.3C160.4,60.2,160.1,60.3,160.1,60.3z"
				/>
		</g>
		<g>
			<path class="st10" d="M160,60.5c0,0,0.2-0.1,0.4,0.1c0.3,0.1,0.5,0.4,0.6,0.7c0.2,0.3,0.3,0.7,0.4,0.9c0.1,0.3,0.1,0.4,0.1,0.4
				l0,0c0,0-0.1-0.2-0.2-0.4c-0.1-0.2-0.2-0.6-0.4-0.9c-0.2-0.3-0.3-0.6-0.6-0.7C160.2,60.5,160,60.5,160,60.5L160,60.5z"/>
		</g>
		<g>
			<path class="st9" d="M150.5,61.4c0,0,0.1,0,0.4-0.1c0.2,0,0.6,0,1,0.1c0.8,0.2,1.7,1,2.3,2c0.3,0.5,0.5,1,0.7,1.4
				c0.3,0.4,0.5,0.8,0.8,1.1c0.2,0.3,0.5,0.6,0.7,0.7c0.2,0.2,0.3,0.2,0.3,0.2s-0.1,0-0.3-0.2c-0.2-0.1-0.5-0.3-0.7-0.7
				c-0.3-0.3-0.6-0.7-0.9-1.1c-0.1-0.2-0.3-0.4-0.4-0.7c-0.1-0.2-0.2-0.5-0.4-0.7c-0.5-0.9-1.3-1.7-2.1-2c-0.4-0.1-0.7-0.2-0.9-0.2
				C150.7,61.4,150.5,61.5,150.5,61.4L150.5,61.4z"/>
		</g>
		<g>
			<path class="st10" d="M151.5,61.9c0,0,0.1,0,0.3,0.1c0.2,0.1,0.4,0.2,0.7,0.4c0.3,0.2,0.5,0.5,0.7,0.9c0.2,0.4,0.4,0.8,0.6,1.1
				c0.4,0.8,1,1.4,1.4,1.9c0.2,0.2,0.4,0.4,0.6,0.5c0.2,0.1,0.2,0.1,0.2,0.1v0c0,0-0.1,0-0.3-0.1c-0.2-0.1-0.4-0.2-0.6-0.4
				c-0.5-0.4-1.1-1.1-1.5-1.9c-0.2-0.4-0.4-0.8-0.6-1.1c-0.2-0.3-0.5-0.6-0.7-0.8C151.9,62.1,151.4,61.9,151.5,61.9L151.5,61.9z"/>
		</g>
	</g>
	<ellipse class="st11" cx="182.4" cy="204.9" rx="1.1" ry="1.1"/>
	<ellipse class="st11" cx="86.6" cy="156.9" rx="0.7" ry="1.2"/>
	<ellipse class="st11" cx="112.5" cy="189.2" rx="0.9" ry="0.6"/>
	<ellipse class="st11" cx="117.9" cy="212.5" rx="1.6" ry="0.7"/>
	<ellipse class="st11" cx="142.4" cy="204.9" rx="0.9" ry="1.2"/>
	<ellipse class="st11" cx="154.5" cy="225.2" rx="0.9" ry="0.6"/>
	<ellipse class="st11" cx="167.9" cy="212.5" rx="0.5" ry="0.7"/>
	<ellipse class="st11" cx="215.3" cy="156.9" rx="0.9" ry="0.7"/>
	<ellipse class="st11" cx="208.8" cy="177.1" rx="1.3" ry="0.8"/>
	<ellipse class="st11" cx="224.5" cy="184.7" rx="0.9" ry="1.4"/>
	<ellipse class="st11" cx="203.1" cy="211.7" rx="1.3" ry="0.7"/>
	<ellipse class="st11" cx="205.6" cy="197.1" rx="1.2" ry="1.2"/>
	<ellipse class="st11" cx="183.4" cy="94.7" rx="0.9" ry="0.8"/>
	<ellipse class="st11" cx="199.3" cy="118.9" rx="0.8" ry="1.1"/>
	<ellipse class="st11" cx="214.5" cy="107.8" rx="0.8" ry="0.9"/>
	<ellipse class="st11" cx="216" cy="132" rx="0.6" ry="0.6"/>
	<ellipse class="st11" cx="234.6" cy="150.4" rx="0.9" ry="1.2"/>
	<ellipse class="st11" cx="228.4" cy="163.8" rx="0.8" ry="0.7"/>
	<ellipse class="st11" cx="106.8" cy="113.2" rx="0.7" ry="0.7"/>
	<ellipse class="st11" cx="101.5" cy="167.6" rx="0.5" ry="0.5"/>
</g>
</svg>
