<?xml version="1.0" encoding="utf-8"?>
<!-- Generator: Adobe Illustrator 19.2.0, SVG Export Plug-In . SVG Version: 6.00 Build 0)  -->
<svg version="1.1" id="Layer_1" xmlns="http://www.w3.org/2000/svg" xmlns:xlink="http://www.w3.org/1999/xlink" x="0px" y="0px"
	 viewBox="0 0 336.2 310.2" style="enable-background:new 0 0 336.2 310.2;" xml:space="preserve">
<style type="text/css">
	.st0{fill:#929497;stroke:#929497;stroke-width:1.5189;stroke-miterlimit:10;}
</style>
<path class="st0" d="M164.8,82.7c-4.3,0-8.5,0.3-12.7,0.8c6.1-8.1,15.9-11.1,25.5-13.2c0.2,0,0.4,0,0.5,0c0.7,0.1,1.3,0,1.9-0.3
	c1.4-0.2,2.5-1.6,2.1-3.1c-2.6-9.9-7.9-25.4-20.4-25.3c-6.2,0.1-13.8,5.4-18.7,8.5c-5.9,3.8-10.9,8.7-13.8,15
	c-1,0.8-1.4,2.4-0.2,3.5c4.9,4.8,7.6,10.9,9.9,17.2c-38.1,9.6-65.8,39.8-65.8,75.6c0,43.5,41.1,78.8,91.9,78.8
	c50.8,0,91.9-35.3,91.9-78.8S215.5,82.7,164.8,82.7z"/>
</svg>
