<?xml version="1.0" encoding="utf-8"?>
<!-- Generator: Adobe Illustrator 19.2.0, SVG Export Plug-In . SVG Version: 6.00 Build 0)  -->
<svg version="1.1" id="Layer_1" xmlns="http://www.w3.org/2000/svg" xmlns:xlink="http://www.w3.org/1999/xlink" x="0px" y="0px"
	 viewBox="0 0 336.2 310.2" style="enable-background:new 0 0 336.2 310.2;" xml:space="preserve">
<style type="text/css">
	.st0{fill:#FFFFFF;stroke:#929497;stroke-miterlimit:10;}
	.st1{fill:#5D5CA7;}
	.st2{fill:#929497;stroke:#929497;stroke-miterlimit:10;}
</style>
<g>
	<path class="st0" d="M446.5,747.5c-0.3-12.4-6.9-24.6-17.3-30.7c5.8-5.4,8-12.5,4.1-20.9c-4.2-9.1-16.9-10.4-25-6.7
		c-10.2,4.6-13.1,22.9-5.1,29.6c-6.6,5.4-11.9,12.6-16,20c-1.4,2.4-2.3,5.1-3.2,7.7c-0.6-3.7-2.8-7.2-6.6-9.1
		c-6.5-3.3-14.4-0.5-18,5.6c-2.9,4.9-1.8,10.8,1.8,14.6c-2.3,1.7-4.3,3.7-5.9,6.1c-2.8,4.3-3.1,9.8-3.2,14.7c0,3.7,3.6,5,6.2,4
		c-0.2,7.5-0.6,15-0.5,22.6c0,9.6,7,16.6,16.8,15c8.8-1.4,7.6-14.5,8-20.7c0.7-9,2.1-17.9,1.9-26.9c3.3-0.7,6.8-2.9,9.5-5.3
		c1.5-1.3,3-2.8,4.3-4.4c0.2,2.9,0.4,5.7,0.7,8.6c0.8,8.3,0.8,16.7,1.4,25c0.3,5.5-0.4,12.6,3.3,17.2c1.7,2.2,4.3,4,7.2,4
		c1.5,0,2.9-0.6,4-1.5c0.2-0.1,0.3-0.2,0.4-0.3c3.8,2.7,8.2,3.8,12.3,0.2c4.4-4,4.6-12.3,4.9-17.7c0.3-6.1-0.1-12.2-0.1-18.2
		c0-4.7-0.1-9.4-0.2-14.1c3,1,6.5,0.7,9.2-1.5C446.2,760.6,446.6,753.2,446.5,747.5z"/>
	<g>
		<g>
			<g>
				<circle class="st1" cx="417" cy="704.8" r="12.7"/>
				<path class="st1" d="M425.2,720.2c-0.4-0.3-0.9-0.4-1.4-0.6c-1.2-0.6-2.4-1.1-3.7-1.4l-3.2,3.2l-3.1-3.2c0,0,0,0,0,0
					c-1.6,0.4-3.2,1.1-4.6,2c-0.3,0.1-0.5,0.2-0.8,0.4c-9.6,5.9-15.3,18.1-22.4,33.6c-0.8,1.8-0.5,3.9,0.7,5.3
					c-3.9,3.4-13.5-2.2-14.3-2.4l-2,2l-2-2.1c0,0,0,0,0,0c-1.4,0.3-5.2,2.9-6.6,3.7c-0.1,0-0.3,0.1-0.4,0.2c-0.3,0.2-7,4.1-7,15.8
					c0,1.6,1.3,2.9,2.9,2.9c1.6,0,2.9-1.3,2.9-2.9c0-3.8,0.9-6.4,1.9-8.1V782c0,0.8,0.2,1.6,0.5,2.4c0,0.2,0,0.3,0,0.5l0,26.6
					c0,2.1,1.7,3.7,3.7,3.7c2.1,0,3.7-1.7,3.7-3.7l0-22.3c0.1,0,0.3,0,0.4,0c0,0,0.1,0,0.1,0l0,22.3c0,2.1,1.7,3.7,3.7,3.7
					c2.1,0,3.7-1.7,3.7-3.7l0-26.4c0.5-0.9,0.8-1.9,0.8-3v-14.8c1.2,0.4,2.4,0.7,3.7,0.7c2.8,0,5.9-1.2,9.5-4.6
					c0.8-0.7,1.1-1.7,0.9-2.7c0.9-0.5,1.6-1.2,2.1-2.2c3.2-6.9,6.1-13.1,9-18.1v17.1c0,1.3,0.3,2.6,0.7,3.7c0,0.3-0.1,0.5-0.1,0.8
					l0,47.2c0,3.2,2.6,5.8,5.8,5.8c3.2,0,5.8-2.6,5.8-5.8l0-40.5c0.2,0,0.5,0,0.7,0c0,0,0.1,0,0.1,0v40.5c0,3.2,2.6,5.8,5.8,5.8
					c0,0,0,0,0,0c3.2,0,5.8-2.6,5.8-5.8l0-46.9c0.8-1.4,1.2-3,1.2-4.8v-17.9c1.5,3.9,2,9,1.3,16.4c-0.3,2.7,1.7,5.1,4.4,5.4
					c0.2,0,0.3,0,0.5,0c2.5,0,4.6-1.9,4.9-4.4C443.4,734.6,434.8,726.1,425.2,720.2z"/>
				<circle class="st1" cx="370.5" cy="748.5" r="8.1"/>
			</g>
		</g>
	</g>
</g>
<path class="st2" d="M256.7,143.3c-0.6-23.3-12.9-46.2-32.5-57.7c10.9-10.2,15-23.4,7.7-39.2c-7.9-17-31.7-19.5-46.9-12.6
	c-19.2,8.7-24.6,43-9.5,55.6c-12.4,10.2-22.2,23.6-30.1,37.5c-2.6,4.6-4.3,9.5-6.1,14.5c-1.2-7-5.2-13.5-12.3-17.2
	c-12.2-6.2-27-1-33.7,10.6c-5.4,9.2-3.5,20.3,3.4,27.5c-4.3,3.2-8.1,6.9-11.1,11.5c-5.2,8-5.8,18.4-5.9,27.6
	c-0.1,6.9,6.7,9.4,11.7,7.5c-0.4,14.1-1,28.3-1,42.4c0.1,18,13.1,31.2,31.5,28.2c16.5-2.6,14.2-27.1,15.1-38.8
	c1.3-16.8,4-33.6,3.6-50.4c6.2-1.4,12.7-5.5,17.9-9.9c2.9-2.4,5.6-5.2,8-8.3c0.3,5.4,0.8,10.7,1.4,16.1c1.6,15.6,1.6,31.3,2.5,46.9
	c0.6,10.4-0.7,23.6,6.2,32.2c3.3,4.1,8,7.5,13.5,7.5c2.8,0,5.4-1.1,7.6-2.8c0.3-0.2,0.5-0.4,0.8-0.6c7.1,5,15.4,7.2,23,0.3
	c8.4-7.5,8.7-23,9.2-33.2c0.6-11.4-0.2-22.8-0.2-34.3c0-8.8-0.3-17.6-0.4-26.4c5.7,1.8,12.1,1.3,17.3-2.8
	C256.1,167.9,257,153.9,256.7,143.3z"/>
</svg>
