<?xml version="1.0" encoding="utf-8"?>
<!-- Generator: Adobe Illustrator 19.2.0, SVG Export Plug-In . SVG Version: 6.00 Build 0)  -->
<svg version="1.1" id="Layer_1" xmlns="http://www.w3.org/2000/svg" xmlns:xlink="http://www.w3.org/1999/xlink" x="0px" y="0px"
	 viewBox="0 0 336.2 310.2" style="enable-background:new 0 0 336.2 310.2;" xml:space="preserve">
<style type="text/css">
	.st0{fill:#FFFFFF;stroke:#929497;stroke-miterlimit:10;}
	.st1{fill:#5D5CA7;}
</style>
<g>
	<path class="st0" d="M446.5,747.5c-0.3-12.4-6.9-24.6-17.3-30.7c5.8-5.4,8-12.5,4.1-20.9c-4.2-9.1-16.9-10.4-25-6.7
		c-10.2,4.6-13.1,22.9-5.1,29.6c-6.6,5.4-11.9,12.6-16,20c-1.4,2.4-2.3,5.1-3.2,7.7c-0.6-3.7-2.8-7.2-6.6-9.1
		c-6.5-3.3-14.4-0.5-18,5.6c-2.9,4.9-1.8,10.8,1.8,14.6c-2.3,1.7-4.3,3.7-5.9,6.1c-2.8,4.3-3.1,9.8-3.2,14.7c0,3.7,3.6,5,6.2,4
		c-0.2,7.5-0.6,15-0.5,22.6c0,9.6,7,16.6,16.8,15c8.8-1.4,7.6-14.5,8-20.7c0.7-9,2.1-17.9,1.9-26.9c3.3-0.7,6.8-2.9,9.5-5.3
		c1.5-1.3,3-2.8,4.3-4.4c0.2,2.9,0.4,5.7,0.7,8.6c0.8,8.3,0.8,16.7,1.4,25c0.3,5.5-0.4,12.6,3.3,17.2c1.7,2.2,4.3,4,7.2,4
		c1.5,0,2.9-0.6,4-1.5c0.2-0.1,0.3-0.2,0.4-0.3c3.8,2.7,8.2,3.8,12.3,0.2c4.4-4,4.6-12.3,4.9-17.7c0.3-6.1-0.1-12.2-0.1-18.2
		c0-4.7-0.1-9.4-0.2-14.1c3,1,6.5,0.7,9.2-1.5C446.2,760.6,446.6,753.2,446.5,747.5z"/>
	<g>
		<g>
			<g>
				<circle class="st1" cx="417" cy="704.8" r="12.7"/>
				<path class="st1" d="M425.2,720.2c-0.4-0.3-0.9-0.4-1.4-0.6c-1.2-0.6-2.4-1.1-3.7-1.4l-3.2,3.2l-3.1-3.2c0,0,0,0,0,0
					c-1.6,0.4-3.2,1.1-4.6,2c-0.3,0.1-0.5,0.2-0.8,0.4c-9.6,5.9-15.3,18.1-22.4,33.6c-0.8,1.8-0.5,3.9,0.7,5.3
					c-3.9,3.4-13.5-2.2-14.3-2.4l-2,2l-2-2.1c0,0,0,0,0,0c-1.4,0.3-5.2,2.9-6.6,3.7c-0.1,0-0.3,0.1-0.4,0.2c-0.3,0.2-7,4.1-7,15.8
					c0,1.6,1.3,2.9,2.9,2.9c1.6,0,2.9-1.3,2.9-2.9c0-3.8,0.9-6.4,1.9-8.1V782c0,0.8,0.2,1.6,0.5,2.4c0,0.2,0,0.3,0,0.5l0,26.6
					c0,2.1,1.7,3.7,3.7,3.7c2.1,0,3.7-1.7,3.7-3.7l0-22.3c0.1,0,0.3,0,0.4,0c0,0,0.1,0,0.1,0l0,22.3c0,2.1,1.7,3.7,3.7,3.7
					c2.1,0,3.7-1.7,3.7-3.7l0-26.4c0.5-0.9,0.8-1.9,0.8-3v-14.8c1.2,0.4,2.4,0.7,3.7,0.7c2.8,0,5.9-1.2,9.5-4.6
					c0.8-0.7,1.1-1.7,0.9-2.7c0.9-0.5,1.6-1.2,2.1-2.2c3.2-6.9,6.1-13.1,9-18.1v17.1c0,1.3,0.3,2.6,0.7,3.7c0,0.3-0.1,0.5-0.1,0.8
					l0,47.2c0,3.2,2.6,5.8,5.8,5.8c3.2,0,5.8-2.6,5.8-5.8l0-40.5c0.2,0,0.5,0,0.7,0c0,0,0.1,0,0.1,0v40.5c0,3.2,2.6,5.8,5.8,5.8
					c0,0,0,0,0,0c3.2,0,5.8-2.6,5.8-5.8l0-46.9c0.8-1.4,1.2-3,1.2-4.8v-17.9c1.5,3.9,2,9,1.3,16.4c-0.3,2.7,1.7,5.1,4.4,5.4
					c0.2,0,0.3,0,0.5,0c2.5,0,4.6-1.9,4.9-4.4C443.4,734.6,434.8,726.1,425.2,720.2z"/>
				<circle class="st1" cx="370.5" cy="748.5" r="8.1"/>
			</g>
		</g>
	</g>
</g>
<g>
	<path class="st0" d="M249.5,137.8c-0.6-21.4-11.9-42.5-29.9-53c10-9.3,13.8-21.5,7.1-36c-7.3-15.6-29.1-17.9-43.1-11.6
		c-17.6,8-22.6,39.5-8.8,51.1c-11.4,9.3-20.4,21.7-27.7,34.4c-2.4,4.2-3.9,8.8-5.6,13.3c-1.1-6.4-4.8-12.4-11.3-15.8
		c-11.2-5.7-24.8-0.9-31,9.7c-4.9,8.5-3.2,18.7,3.1,25.2c-3.9,2.9-7.5,6.3-10.2,10.6c-4.8,7.3-5.4,16.9-5.4,25.3
		c-0.1,6.4,6.2,8.7,10.8,6.9c-0.4,13-1,26-0.9,39c0.1,16.5,12.1,28.7,29,26c15.1-2.4,13-24.9,13.8-35.7c1.2-15.4,3.6-30.9,3.3-46.3
		c5.7-1.2,11.7-5.1,16.4-9.1c2.7-2.2,5.1-4.8,7.4-7.6c0.3,4.9,0.7,9.9,1.2,14.8c1.4,14.3,1.4,28.8,2.3,43.1
		c0.6,9.6-0.7,21.7,5.7,29.6c3,3.7,7.4,6.9,12.4,6.9c2.6,0,5-1.1,7-2.6c0.3-0.2,0.5-0.4,0.7-0.6c6.5,4.6,14.2,6.6,21.1,0.3
		c7.7-6.9,7.9-21.1,8.4-30.5c0.5-10.5-0.2-21-0.2-31.5c0-8.1-0.2-16.2-0.4-24.3c5.2,1.7,11.1,1.1,15.9-2.6
		C249,160.3,249.8,147.5,249.5,137.8z"/>
	<g>
		<g>
			<g>
				<circle class="st1" cx="198.7" cy="64.1" r="21.9"/>
				<path class="st1" d="M212.8,90.7c-0.7-0.5-1.5-0.7-2.4-1c-2-1.1-4.1-2-6.3-2.5l-5.5,5.5l-5.3-5.6c0,0,0,0-0.1,0
					c-2.8,0.7-5.5,1.8-8,3.5c-0.5,0.2-0.9,0.4-1.4,0.7c-16.6,10.2-26.4,31.3-38.7,58c-1.4,3.1-0.8,6.7,1.3,9.1
					c-6.7,5.8-23.3-3.9-24.7-4.2l-3.5,3.5l-3.4-3.5c0,0,0,0,0,0c-2.4,0.6-9,4.9-11.3,6.3c-0.2,0.1-0.4,0.2-0.7,0.3
					C102.6,161,91,167.9,91,188c0,2.8,2.2,5,5,5c2.7,0,5-2.2,5-5c0-6.6,1.5-11.1,3.2-14v23.3c0,1.5,0.3,2.8,0.8,4.1
					c0,0.3-0.1,0.6-0.1,0.9l0,45.8c0,3.5,2.9,6.4,6.4,6.4c3.5,0,6.4-2.9,6.4-6.4l0-38.5c0.3,0,0.5,0,0.8,0c0,0,0.1,0,0.2,0l0,38.4
					c0,3.5,2.9,6.4,6.4,6.4c3.5,0,6.4-2.9,6.4-6.4l0-45.5c0.8-1.6,1.3-3.3,1.3-5.3v-25.5c2,0.7,4.1,1.2,6.4,1.2c4.8,0,10.2-2,16.4-8
					c1.3-1.3,1.8-3,1.6-4.7c1.5-0.8,2.8-2.1,3.6-3.9c5.5-11.9,10.4-22.6,15.5-31.3v29.4c0,2.3,0.4,4.4,1.2,6.4
					c-0.1,0.4-0.1,0.9-0.1,1.3l0,81.4c0,5.6,4.5,10,10,10c5.6,0,10-4.5,10-10l0-69.9c0.4,0,0.8,0.1,1.2,0.1c0.1,0,0.2,0,0.2,0v69.8
					c0,5.5,4.5,10,10,10c0,0,0,0,0,0c5.5,0,10-4.5,10-10l0-80.9c1.3-2.4,2.1-5.2,2.1-8.2v-30.9c2.5,6.6,3.5,15.6,2.3,28.3
					c-0.5,4.7,2.9,8.8,7.6,9.3c0.3,0,0.6,0,0.9,0c4.3,0,8-3.3,8.4-7.7C244.1,115.4,229.4,100.8,212.8,90.7z"/>
				<circle class="st1" cx="118.5" cy="139.4" r="14"/>
			</g>
		</g>
	</g>
</g>
</svg>
