<?xml version="1.0" encoding="utf-8"?>
<!-- Generator: Adobe Illustrator 19.2.0, SVG Export Plug-In . SVG Version: 6.00 Build 0)  -->
<svg version="1.1" xmlns="http://www.w3.org/2000/svg" xmlns:xlink="http://www.w3.org/1999/xlink" x="0px" y="0px"
	 viewBox="0 0 204 157" style="enable-background:new 0 0 204 157;" xml:space="preserve">
<style type="text/css">
	.st0{fill:none;}
	.st1{fill:#EDEDED;}
	.st2{fill:#FFFFFF;}
	.st3{fill:url(#Principal_sem_cor);}
</style>
<pattern  width="373.8" height="298" patternUnits="userSpaceOnUse" id="Principal_sem_cor" viewBox="18.7 -329.5 373.8 298" style="overflow:visible;">
	<g>
		<rect x="18.7" y="-329.5" class="st0" width="373.8" height="298"/>
		<g>
			<path class="st1" d="M375.7-59.8c1.2-1.3,2.4-2.6,3.6-4c0.6-0.7,1.2-1.4,1.8-2c0.5-0.6,1.3-2,2-2.3c0.7-0.4-0.3-0.3,0.4,0
				c0.3,0.1,0.7,0.7,1,0.9c0.7,0.6,1.3,1.2,2,1.9c1.4,1.3,2.7,2.7,4.1,4.1c0.6,0.6,1.4,0.4,1.8-0.2c2.5-3.4,5-6.9,7.5-10.3
				c-0.5,0.1-1.1,0.3-1.6,0.4c3.7,2.4,7.4,4.7,11,7.1c1.4,0.9,2.6-1.3,1.3-2.1c-3.7-2.3-7.4-4.6-11.1-6.9c-0.6-0.4-1.2-0.1-1.6,0.4
				c-2.5,3.4-5,6.9-7.5,10.3c0.6-0.1,1.2-0.2,1.8-0.2c-1.8-1.8-3.5-3.5-5.3-5.3c-1-1-2.3-3-4-2.7c-1.6,0.2-3,2.7-4,3.9
				c-1.6,1.9-3.2,3.8-4.8,5.7C373.2-60.3,374.7-58.7,375.7-59.8L375.7-59.8z"/>
			<path class="st1" d="M303.1-83.4c0.9,1.5,1.8,3.1,2.7,4.7c0.4,0.8,0.9,1.6,1.3,2.4c0.4,0.7,0.9,2.2,1.5,2.7
				c0.6,0.5-0.4,0.2,0.4,0.1c0.3-0.1,0.9-0.5,1.2-0.7c0.8-0.5,1.5-0.9,2.3-1.4c1.6-1,3.2-2.1,4.8-3.1c0.7-0.4,1.4-0.1,1.7,0.6
				c1.7,3.9,3.5,7.7,5.2,11.6c-0.5-0.2-1-0.5-1.5-0.7c4.1-1.5,8.2-3.1,12.3-4.6c1.5-0.6,2.3,1.8,0.8,2.4c-4.1,1.5-8.2,3-12.3,4.5
				c-0.6,0.2-1.2-0.2-1.5-0.7c-1.7-3.9-3.5-7.8-5.2-11.6c0.6,0.2,1.1,0.4,1.7,0.6c-2.1,1.4-4.2,2.7-6.3,4.1
				c-1.2,0.8-2.9,2.4-4.5,1.9c-1.6-0.6-2.4-3.3-3.1-4.6c-1.2-2.2-2.4-4.3-3.5-6.6C300.6-83.4,302.3-84.6,303.1-83.4L303.1-83.4z"/>
			<path class="st1" d="M360.7-92.1c-0.8-0.5-0.8-1.6-0.4-2.4c0.5-0.9,1.6-1.2,2.4-0.6c0.9,0.6,0.9,1.9,0.3,2.7c0,0,0,0-0.1,0
				C362.3-91.8,361.4-91.7,360.7-92.1z"/>
			<path class="st1" d="M336-79.4c-0.8-0.5-0.8-1.6-0.4-2.4c0.5-0.9,1.6-1.2,2.4-0.6c0.9,0.6,0.9,1.9,0.3,2.7c0,0,0,0-0.1,0
				C337.6-79,336.7-78.9,336-79.4z"/>
			<path class="st1" d="M343.7-117.2c-0.8-0.5-0.8-1.6-0.4-2.4c0.5-0.9,1.6-1.2,2.4-0.6c0.9,0.6,0.9,1.9,0.3,2.7c0,0,0,0-0.1,0
				C345.3-116.9,344.4-116.7,343.7-117.2z"/>
			<path class="st1" d="M364.7-66.8c-0.8-0.5-0.8-1.6-0.4-2.4c0.5-0.9,1.6-1.2,2.4-0.6c0.9,0.6,0.9,1.9,0.3,2.7c0,0,0,0-0.1,0
				C366.3-66.4,365.4-66.3,364.7-66.8z"/>
			<path class="st1" d="M349.5-41.7c-0.8-0.5-0.8-1.6-0.4-2.4c0.5-0.9,1.6-1.2,2.4-0.6c0.9,0.6,0.9,1.9,0.3,2.7c0,0,0,0-0.1,0
				C351.1-41.3,350.2-41.2,349.5-41.7z"/>
			<path class="st1" d="M385.3-56.1c-0.8-0.5-0.8-1.6-0.4-2.4c0.5-0.9,1.6-1.2,2.4-0.6c0.9,0.6,0.9,1.9,0.3,2.7c0,0,0,0-0.1,0
				C386.9-55.8,386-55.7,385.3-56.1z"/>
			<path class="st1" d="M321.1-130.1c-0.8-0.5-0.8-1.6-0.4-2.4c0.5-0.9,1.6-1.2,2.4-0.6c0.9,0.6,0.9,1.9,0.3,2.7c0,0,0,0-0.1,0
				C322.7-129.8,321.8-129.7,321.1-130.1z"/>
			<path class="st1" d="M306.6-160.1c-0.8-0.5-0.8-1.6-0.4-2.4c0.5-0.9,1.6-1.2,2.4-0.6c0.9,0.6,0.9,1.9,0.3,2.7c0,0,0,0-0.1,0
				C308.2-159.7,307.3-159.6,306.6-160.1z"/>
			<path class="st1" d="M340.6-155.5c-0.8-0.5-0.8-1.6-0.4-2.4c0.5-0.9,1.6-1.2,2.4-0.6c0.9,0.6,0.9,1.9,0.3,2.7c0,0,0,0-0.1,0
				C342.2-155.2,341.3-155,340.6-155.5z"/>
			<path class="st1" d="M373.1-112.9c-0.8-0.5-0.8-1.6-0.4-2.4c0.5-0.9,1.6-1.2,2.4-0.6c0.9,0.6,0.9,1.9,0.3,2.7c0,0,0,0-0.1,0
				C374.7-112.5,373.8-112.4,373.1-112.9z"/>
			<path class="st1" d="M387-146.4c-0.8-0.5-0.8-1.6-0.4-2.4c0.5-0.9,1.6-1.2,2.4-0.6c0.9,0.6,0.9,1.9,0.3,2.7c0,0,0,0-0.1,0
				C388.6-146,387.7-145.9,387-146.4z"/>
			<path class="st1" d="M378.2-166.3c-0.8-0.5-0.8-1.6-0.4-2.4c0.5-0.9,1.6-1.2,2.4-0.6c0.9,0.6,0.9,1.9,0.3,2.7c0,0,0,0-0.1,0
				C379.8-165.9,378.9-165.8,378.2-166.3z"/>
			<path class="st1" d="M357.5-145c-0.8-0.5-0.8-1.6-0.4-2.4c0.5-0.9,1.6-1.2,2.4-0.6c0.9,0.6,0.9,1.9,0.3,2.7c0,0,0,0-0.1,0
				C359.1-144.7,358.2-144.5,357.5-145z"/>
			<path class="st1" d="M376.8-129.8c0.6-1.5,1.4-2.8,2.2-4.2c0.8-1.4,1.5-2.9,2.6-4c0.7-0.7,1.9,0.1,1.6,1c-0.4,1.4-1.3,2.7-2.1,4
				c-0.8,1.4-1.6,2.8-2.6,4.1C377.9-128.3,376.3-128.7,376.8-129.8L376.8-129.8z"/>
			<path class="st1" d="M299.6-119.2c-0.7-1.4-1.1-3-1.6-4.5c-0.5-1.5-1.1-3-1.2-4.6c0-1,1.3-1.4,1.8-0.5c0.8,1.3,1.1,2.8,1.5,4.2
				c0.5,1.5,1,3.1,1.2,4.6C301.5-119,300.1-118.1,299.6-119.2L299.6-119.2z"/>
			<path class="st1" d="M352-128c0.6-1.5,1.4-2.8,2.2-4.2c0.8-1.4,1.5-2.9,2.6-4c0.7-0.7,1.9,0.1,1.6,1c-0.4,1.4-1.3,2.7-2.1,4
				c-0.8,1.4-1.6,2.8-2.6,4.1C353.2-126.4,351.6-126.9,352-128L352-128z"/>
			<path class="st1" d="M361.5-72.8c1.7-2.9,3-6.1,2.4-9.5c-0.5-2.9-2.6-5.4-5.4-6.6c-2.6-1.1-5.6-0.9-8,0.6
				c-2.2,1.4-4.7,4.3-4.1,7.1c0.3,1.2,1.8,1.3,2.4,0.3c1.1-1.7,1.3-3.5,3.2-4.7c1.8-1.1,3.9-1.1,5.8-0.1c4.6,2.6,2.9,8,1.4,12
				C358.8-72.4,360.9-71.6,361.5-72.8L361.5-72.8z"/>
			<path class="st1" d="M386.8-35.6c-2.7-0.4-5.3-1.1-7.2-3.2c-1.6-1.8-2.1-4.3-1.5-6.6c0.6-2.2,2.2-4,4.3-4.8
				c2-0.7,5.1-0.9,6.5,0.9c0.6,0.7-0.1,1.8-1,1.7c-1.6-0.2-2.9-0.9-4.6-0.3c-1.6,0.6-2.7,1.9-2.9,3.6c-0.6,4.2,3.6,5.8,6.9,6.8
				C388.4-37.2,387.9-35.5,386.8-35.6L386.8-35.6z"/>
			<path class="st1" d="M338.6-164.7c1.8-2.4,3.3-5.2,3.1-8.3c-0.2-2.7-1.8-5.1-4.1-6.4c-2.2-1.3-4.9-1.4-7.2-0.3
				c-2.1,1-4.6,3.4-4.3,5.9c0.1,1.1,1.5,1.3,2.1,0.5c1.2-1.5,1.5-3,3.4-3.9c1.7-0.8,3.6-0.6,5.2,0.5c3.8,2.8,1.8,7.4,0,10.8
				C336.1-164.6,337.8-163.7,338.6-164.7L338.6-164.7z"/>
			<path class="st1" d="M347.6-138.3c-2.1-1.1-4.5-2-6.9-1.5c-2.1,0.5-3.8,2-4.6,4c-0.7,1.9-0.5,4,0.6,5.8c1,1.6,3.2,3.3,5.2,2.8
				c0.8-0.2,0.9-1.4,0.2-1.8c-1.3-0.8-2.6-0.9-3.5-2.2c-0.9-1.3-0.9-2.8-0.2-4.2c1.8-3.4,5.7-2.3,8.6-1.3
				C347.9-136.3,348.4-137.8,347.6-138.3L347.6-138.3z"/>
			<path class="st1" d="M356-117.1c-3.1,3.6-3.6,8.8-0.4,12.5c1.4,1.6,3.4,2.6,5.5,2.7c2.3,0.1,4.5-0.8,6.7-1.3
				c2.2-0.5,4.2-0.2,4.9,2.2c0.6,1.8,0.6,3.8,0.9,5.7c0.3,1.7,1,3.4,2.4,4.5c1.7,1.4,3.9,1.5,6,1.4c1.3,0,2.7-0.2,3.8,0.3
				c1.3,0.6,1.9,1.9,2.3,3.2c0.4,1.6,0.5,3.3,0.4,4.9c-0.1,1.7-0.8,3.2-1.1,4.8c-0.3,1.5,1.5,2.2,2.4,1c1.4-1.9,1.7-5,1.7-7.3
				c0-2.3-0.4-4.9-1.6-6.9c-1.1-1.9-2.9-2.8-5.1-3c-2.1-0.2-5,0.7-6.8-0.6c-1.4-1-1.6-3.2-1.8-4.8c-0.2-1.8-0.4-3.6-1.2-5.3
				c-2.1-4.3-6.7-3.3-10.5-2.3c-2.8,0.8-5.4,0.8-7.3-1.8c-1.9-2.7-1.2-6.1,0.4-8.8C358.3-116.8,356.8-118,356-117.1L356-117.1z"/>
			<path class="st1" d="M294.6-91.8c2.9,1.8,6.7,1.6,8.9-1.2c1-1.2,1.5-2.7,1.3-4.2c-0.2-1.6-1.1-3.1-1.7-4.6
				c-0.6-1.5-0.6-2.9,1-3.7c1.2-0.6,2.7-0.8,4-1.3c1.2-0.4,2.3-1.1,2.9-2.2c0.8-1.4,0.6-2.9,0.3-4.4c-0.2-0.9-0.5-1.9-0.2-2.8
				c0.2-1,1.1-1.6,2-2c1.1-0.5,2.3-0.8,3.4-0.8c1.2-0.1,2.3,0.2,3.5,0.2c1.1,0,1.4-1.3,0.4-1.8c-1.5-0.8-3.7-0.6-5.4-0.4
				c-1.6,0.3-3.4,0.9-4.7,1.9c-1.2,1-1.6,2.4-1.5,3.9c0.1,1.5,1.1,3.4,0.3,4.9c-0.6,1.1-2.1,1.5-3.2,1.8c-1.2,0.4-2.5,0.7-3.6,1.5
				c-2.8,2-1.6,5.1-0.4,7.7c0.9,1.9,1.2,3.8-0.4,5.4c-1.7,1.7-4.2,1.5-6.3,0.7C294.5-93.5,293.8-92.3,294.6-91.8L294.6-91.8z"/>
			<path class="st1" d="M364.3-43.9c1.8-3.9,2.7-8.1,3.2-12.4c0.1-0.8-0.4-1.8-1.4-1.8c-4.2,0.4-8.6,1-12.7,2.4
				c-1.6,0.6-0.9,2.9,0.8,2.5c4-0.9,7.9-1.7,12-2.1c-0.5-0.6-1-1.2-1.4-1.8c-0.5,4.2-1.6,8.2-2.5,12.2
				C362-43.5,363.8-42.7,364.3-43.9L364.3-43.9z"/>
			<path class="st1" d="M341.5-99.1c0.6-3.8,0.3-7.6-0.3-11.3c-0.1-0.8-0.8-1.5-1.7-1.2c-3.5,1.4-7.1,3-10.2,5.1
				c-1.2,0.9,0,2.6,1.3,2c3.2-1.7,6.3-3.4,9.7-4.7c-0.5-0.4-1.1-0.8-1.6-1.2c0.6,3.7,0.6,7.4,0.8,11.1
				C339.6-98.1,341.3-97.9,341.5-99.1L341.5-99.1z"/>
			<path class="st1" d="M383.3-108.2c4.9-0.6,7.8-5.1,12.3-6.5c-0.6-0.6-1.1-1.1-1.7-1.7c-0.6,4.1-1.1,8.1-1.7,12.2
				c-0.2,1.1,1.5,1.7,2.2,0.9c2.3-2.5,4.8-4.7,7.6-6.6c-0.6-0.2-1.2-0.3-1.8-0.5c1.4,3.1,2.2,6.4,2.5,9.8c0,0.5,0.4,1.2,1,1.3
				c1.3,0.2,2.2-0.3,3-1.4c1.1-1.5,1.9-3.3,2.8-4.9c-0.7,0.1-1.4,0.2-2.1,0.3c1.7,2.1,3.4,4.2,5.1,6.2c1.1,1.3,2.9-0.6,1.9-1.9
				c-1.7-2.1-3.4-4.2-5.1-6.2c-0.5-0.7-1.7-0.4-2.1,0.3c-0.3,0.6-2.6,5.1-2.8,5.1c0.3,0.4,0.6,0.8,1,1.3c-0.3-3.9-1.3-7.6-2.9-11.1
				c-0.3-0.6-1.2-0.8-1.8-0.5c-3,2-5.7,4.4-8.1,7c0.7,0.4,1.5,0.9,2.2,1.3c0.6-3.9,1.1-7.9,1.7-11.8c0.1-0.9-0.6-2-1.7-1.7
				c-4.5,1.4-7.4,5.6-11.9,7C381.9-110,382.1-108,383.3-108.2L383.3-108.2z"/>
			<path class="st1" d="M325.1-48.3c-4.1,0.5-6.4,4.2-10.2,5.4c0.5,0.5,0.9,0.9,1.4,1.4c0.5-3.3,0.9-6.7,1.4-10
				c0.1-0.9-1.3-1.4-1.8-0.8c-1.9,2.1-3.9,3.9-6.2,5.5c0.5,0.1,1,0.3,1.5,0.4c-1.1-2.6-1.8-5.3-2.1-8.1c0-0.4-0.3-1-0.8-1
				c-1.1-0.2-1.8,0.2-2.5,1.1c-0.9,1.3-1.6,2.7-2.3,4c0.6-0.1,1.1-0.1,1.7-0.2c-1.4-1.7-2.8-3.5-4.2-5.1c-0.9-1.1-2.4,0.5-1.5,1.5
				c1.4,1.8,2.8,3.4,4.2,5.1c0.5,0.5,1.4,0.3,1.7-0.2c0.3-0.5,2.1-4.2,2.3-4.2c-0.3-0.3-0.5-0.7-0.8-1c0.3,3.2,1.1,6.2,2.4,9.1
				c0.2,0.5,1,0.7,1.5,0.4c2.4-1.7,4.7-3.6,6.7-5.8c-0.6-0.4-1.2-0.7-1.8-1.1c-0.5,3.2-0.9,6.5-1.4,9.7c-0.1,0.8,0.5,1.7,1.4,1.4
				c3.7-1.2,6.1-4.6,9.8-5.8C326.2-46.8,326.1-48.4,325.1-48.3L325.1-48.3z"/>
			<path class="st1" d="M353-179.7c2,5.2-0.6,10.1,0.4,15.3c-0.8-0.3-1.6-0.6-2.3-0.9c3.3-2.4,6.7-4.8,10-7.2c0.9-0.7,2.3,0.8,2,1.8
				c-1.1,3.4-1.8,6.9-2.1,10.6c-0.4-0.5-0.9-1-1.3-1.6c3.5,0,6.8-0.7,10-1.9c0.5-0.2,1.2-0.2,1.6,0.4c0.8,1.2,0.9,2.3,0.3,3.6
				c-0.8,1.8-2,3.4-2.9,5.1c-0.3-0.7-0.5-1.5-0.8-2.2c2.7,0.8,5.5,1.5,8.2,2.3c1.7,0.6,1,3.1-0.7,2.7c-2.7-0.7-5.5-1.6-8.2-2.3
				c-0.9-0.3-1.2-1.5-0.8-2.2c0.4-0.6,3.2-4.9,3.1-5.1c0.5,0.1,1.1,0.3,1.6,0.4c-3.6,1.4-7.4,2.1-11.4,2.1c-0.7,0-1.4-0.9-1.3-1.6
				c0.3-3.9,1-7.7,2.1-11.3c0.8,0.5,1.5,1.1,2.3,1.6c-3.2,2.4-6.5,4.7-9.7,7c-0.8,0.6-2.1,0.3-2.3-0.9c-1-5.2,1.3-10,0.2-15.1
				C350.6-180.3,352.5-181.1,353-179.7L353-179.7z"/>
			<path class="st1" d="M361.6-125.2c0.2-2.3,0.6-4.6,0.9-6.9c0.2-2.2,0.2-4.5,0.8-6.6c0.4-1.3,2.3-1,2.5,0.2c0.4,2.3,0,4.7-0.2,7
				c-0.3,2.3-0.6,4.7-1.4,6.9C363.7-123.1,361.5-123.7,361.6-125.2L361.6-125.2z"/>
			<path class="st1" d="M321.9-163.4c-2.1-1-4-2.3-6.1-3.4c-1.9-1.1-4-1.9-5.8-3.3c-1.1-0.8,0-2.5,1.2-2.2c2.3,0.5,4.4,1.8,6.4,2.9
				c2,1.1,4.1,2.4,5.8,3.9C324.6-164.5,323.2-162.7,321.9-163.4L321.9-163.4z"/>
			<path class="st1" d="M404.7-127c-1,3.9-5.1,5.7-8.8,5.2c-4.2-0.6-7.4-4.3-6.1-8.6c1.3-4.4,6.3-6.7,10.5-5.2
				c0.1,0,0.2,0.1,0.3,0.1C403.8-133.9,405.7-130.5,404.7-127z M399.4-133.2c-2.9-1.1-6.5,0.7-7.2,3.8c-0.7,3.1,2.1,5.1,4.9,5.1
				c2.4,0,4.8-1.1,5.3-3.6C402.8-130.2,401.4-132.3,399.4-133.2z"/>
			<path class="st1" d="M330.6-98.1c3.1,2.5,3.1,6.8,1.1,10c-2.2,3.5-6.8,4.9-10.2,2c-3.4-2.9-3.5-8.3-0.4-11.5
				c0.1-0.1,0.1-0.1,0.2-0.2C324-100,327.8-100.3,330.6-98.1z M322.8-95.8c-2.1,2.2-2,6.1,0.5,8c2.5,1.8,5.4,0.1,6.5-2.3
				c1-2.1,0.9-4.7-1.1-6.2C326.9-97.7,324.5-97.3,322.8-95.8z"/>
			<path class="st1" d="M392.7-166c-3.1,0.6-5.2,3.5-4.6,6.7c0.7,3.2,3.6,4.8,6.6,4.7c1.5,0,3.4-0.6,4.9,0.1
				c1.7,0.9,2.1,3.4,1.9,5.1c-0.6,4.5-4.5,6.2-8.6,6.2c-1.2,0-1.4,1.6-0.3,2.1c7.3,2.8,13.7-5.9,11-12.5c-1.5-3.6-4.6-3.8-8-3.6
				c-1.9,0.1-3.7,0-4.7-1.9c-1.1-2.1,0.3-4.4,2.4-5C394.4-164.4,394-166.2,392.7-166L392.7-166z"/>
			<path class="st1" d="M329.7-39.3c2.8,1.8,6.6,1.2,8.5-1.7c1.9-2.9,0.9-6.3-1.6-8.5c-1.2-1.1-3.1-2.1-3.6-3.7
				c-0.7-2,0.9-4.2,2.4-5.4c3.8-3,8.1-1.4,11.2,1.7c0.9,0.9,2.3-0.2,1.8-1.3c-3.5-7.6-14.9-5.7-17.7,1.4c-1.5,3.9,0.7,6.4,3.5,8.7
				c1.5,1.3,2.8,2.8,2.2,4.9c-0.7,2.4-3.5,3.2-5.6,2.1C329.6-41.7,328.6-40,329.7-39.3L329.7-39.3z"/>
			<path class="st1" d="M307.7-143.4c0.5,3.1,3.4,5.3,6.6,4.7c3.2-0.6,4.9-3.4,4.9-6.5c0-1.5-0.5-3.4,0.2-4.9
				c0.9-1.7,3.5-2.1,5.2-1.8c4.5,0.7,6.1,4.7,6,8.8c0,1.2,1.6,1.4,2,0.4c3-7.2-5.6-13.8-12.2-11.2c-3.6,1.4-3.9,4.5-3.7,8
				c0.1,1.9-0.1,3.7-2,4.6c-2.1,1-4.4-0.4-5-2.5C309.3-145.1,307.4-144.6,307.7-143.4L307.7-143.4z"/>
		</g>
		<g>
			<path class="st1" d="M253.9-67c-0.7-1.3-1.5-2.7-2.2-4c-0.4-0.7-0.8-1.3-1.2-2c-0.3-0.6-1.2-1.6-1.3-2.2
				c-0.1-0.7-0.3,0.2,0.1-0.3c0.2-0.2,0.7-0.4,1-0.5c0.7-0.4,1.4-0.7,2-1.1c1.4-0.8,2.9-1.5,4.4-2.2c0.6-0.3,0.7-1,0.3-1.5
				c-2.1-2.9-4.2-5.9-6.3-8.8c0,0.5-0.1,0.9-0.1,1.4c2.9-2.3,5.8-4.7,8.7-7c1.1-0.9-0.3-2.5-1.4-1.6c-2.9,2.4-5.7,4.7-8.6,7.1
				c-0.4,0.4-0.4,1-0.1,1.4c2.1,2.9,4.2,5.9,6.3,8.8c0.1-0.5,0.2-1,0.3-1.5c-1.9,0.9-3.8,1.9-5.7,2.8c-1.1,0.5-3,1.1-3.3,2.5
				c-0.3,1.4,1.4,3.2,2.1,4.3c1.1,1.8,2.2,3.6,3.3,5.4C252.9-65.2,254.5-66,253.9-67L253.9-67z"/>
			<path class="st1" d="M156.8-42.7c-0.8-0.5-0.8-1.6-0.4-2.4c0.5-0.9,1.6-1.2,2.4-0.6c0.9,0.6,0.9,1.9,0.3,2.7c0,0,0,0-0.1,0
				C158.4-42.4,157.5-42.2,156.8-42.7z"/>
			<path class="st1" d="M134.1-55.6c-0.8-0.5-0.8-1.6-0.4-2.4c0.5-0.9,1.6-1.2,2.4-0.6c0.9,0.6,0.9,1.9,0.3,2.7c0,0,0,0-0.1,0
				C135.7-55.3,134.8-55.1,134.1-55.6z"/>
			<path class="st1" d="M119.7-85.6c-0.8-0.5-0.8-1.6-0.4-2.4c0.5-0.9,1.6-1.2,2.4-0.6c0.9,0.6,0.9,1.9,0.3,2.7c0,0,0,0-0.1,0
				C121.3-85.2,120.4-85.1,119.7-85.6z"/>
			<path class="st1" d="M153.7-81c-0.8-0.5-0.8-1.6-0.4-2.4c0.5-0.9,1.6-1.2,2.4-0.6c0.9,0.6,0.9,1.9,0.3,2.7c0,0,0,0-0.1,0
				C155.3-80.6,154.4-80.5,153.7-81z"/>
			<path class="st1" d="M186.2-38.3c-0.8-0.5-0.8-1.6-0.4-2.4c0.5-0.9,1.6-1.2,2.4-0.6c0.9,0.6,0.9,1.9,0.3,2.7c0,0,0,0-0.1,0
				C187.8-38,186.9-37.9,186.2-38.3z"/>
			<path class="st1" d="M200.1-71.8c-0.8-0.5-0.8-1.6-0.4-2.4c0.5-0.9,1.6-1.2,2.4-0.6c0.9,0.6,0.9,1.9,0.3,2.7c0,0,0,0-0.1,0
				C201.7-71.5,200.8-71.4,200.1-71.8z"/>
			<path class="st1" d="M219.3-62.7c-0.8-0.5-0.8-1.6-0.4-2.4c0.5-0.9,1.6-1.2,2.4-0.6c0.9,0.6,0.9,1.9,0.3,2.7c0,0,0,0-0.1,0
				C220.9-62.4,220-62.2,219.3-62.7z"/>
			<path class="st1" d="M239.1-49.8c-0.8-0.5-0.8-1.6-0.4-2.4c0.5-0.9,1.6-1.2,2.4-0.6c0.9,0.6,0.9,1.9,0.3,2.7c0,0,0,0-0.1,0
				C240.7-49.4,239.8-49.3,239.1-49.8z"/>
			<path class="st1" d="M240.1-83.8c-0.8-0.5-0.8-1.6-0.4-2.4c0.5-0.9,1.6-1.2,2.4-0.6c0.9,0.6,0.9,1.9,0.3,2.7c0,0,0,0-0.1,0
				C241.7-83.4,240.8-83.3,240.1-83.8z"/>
			<path class="st1" d="M263.7-82c-0.8-0.5-0.8-1.6-0.4-2.4c0.5-0.9,1.6-1.2,2.4-0.6c0.9,0.6,0.9,1.9,0.3,2.7c0,0,0,0-0.1,0
				C265.3-81.6,264.4-81.5,263.7-82z"/>
			<path class="st1" d="M287.2-98.2c-0.8-0.5-0.8-1.6-0.4-2.4c0.5-0.9,1.6-1.2,2.4-0.6c0.9,0.6,0.9,1.9,0.3,2.7c0,0,0,0-0.1,0
				C288.8-97.8,287.9-97.7,287.2-98.2z"/>
			<path class="st1" d="M211.7-98.2c-0.8-0.5-0.8-1.6-0.4-2.4c0.5-0.9,1.6-1.2,2.4-0.6c0.9,0.6,0.9,1.9,0.3,2.7c0,0,0,0-0.1,0
				C213.2-97.8,212.3-97.7,211.7-98.2z"/>
			<path class="st1" d="M258.1-38.3c-0.8-0.5-0.8-1.6-0.4-2.4c0.5-0.9,1.6-1.2,2.4-0.6c0.9,0.6,0.9,1.9,0.3,2.7c0,0,0,0-0.1,0
				C259.7-38,258.8-37.9,258.1-38.3z"/>
			<path class="st1" d="M274.5-55c-0.8-0.5-0.8-1.6-0.4-2.4c0.5-0.9,1.6-1.2,2.4-0.6c0.9,0.6,0.9,1.9,0.3,2.7c0,0,0,0-0.1,0
				C276.1-54.6,275.2-54.5,274.5-55z"/>
			<path class="st1" d="M191.3-91.8c-0.8-0.5-0.8-1.6-0.4-2.4c0.5-0.9,1.6-1.2,2.4-0.6c0.9,0.6,0.9,1.9,0.3,2.7c0,0,0,0-0.1,0
				C192.9-91.4,192-91.3,191.3-91.8z"/>
			<path class="st1" d="M170.6-70.5c-0.8-0.5-0.8-1.6-0.4-2.4c0.5-0.9,1.6-1.2,2.4-0.6c0.9,0.6,0.9,1.9,0.3,2.7c0,0,0,0-0.1,0
				C172.2-70.2,171.3-70,170.6-70.5z"/>
			<path class="st1" d="M265.5-28c0.9-1.7,1.7-3.5,2.4-5.4c0.7-1.8,1.7-3.6,1.9-5.5c0.1-1.2-1.5-1.8-2.2-0.8c-1.1,1.5-1.6,3.3-2.2,5
				c-0.7,1.8-1.5,3.7-1.9,5.6C263.2-28,264.8-26.8,265.5-28L265.5-28z"/>
			<path class="st1" d="M189.8-55.3c0.6-1.5,1.4-2.8,2.2-4.2c0.8-1.4,1.5-2.9,2.6-4c0.7-0.7,1.9,0.1,1.6,1c-0.4,1.4-1.3,2.7-2.1,4
				c-0.8,1.4-1.6,2.8-2.6,4.1C191-53.8,189.4-54.2,189.8-55.3L189.8-55.3z"/>
			<path class="st1" d="M112.6-44.7c-0.7-1.4-1.1-3-1.6-4.5c-0.5-1.5-1.1-3-1.2-4.6c0-1,1.3-1.4,1.8-0.5c0.8,1.3,1.1,2.8,1.5,4.2
				c0.5,1.5,1,3.1,1.2,4.6C114.5-44.5,113.1-43.6,112.6-44.7L112.6-44.7z"/>
			<path class="st1" d="M165.1-53.4c0.6-1.5,1.4-2.8,2.2-4.2c0.8-1.4,1.5-2.9,2.6-4c0.7-0.7,1.9,0.1,1.6,1c-0.4,1.4-1.3,2.7-2.1,4
				c-0.8,1.4-1.6,2.8-2.6,4.1C166.3-51.9,164.7-52.3,165.1-53.4L165.1-53.4z"/>
			<path class="st1" d="M151.6-90.1c1.8-2.4,3.3-5.2,3.1-8.3c-0.2-2.7-1.8-5.1-4.1-6.4c-2.2-1.3-4.9-1.4-7.2-0.3
				c-2.1,1-4.6,3.4-4.3,5.9c0.1,1.1,1.5,1.3,2.1,0.5c1.2-1.5,1.5-3,3.4-3.9c1.7-0.8,3.6-0.6,5.2,0.5c3.8,2.8,1.8,7.4,0,10.8
				C149.1-90.1,150.9-89.2,151.6-90.1L151.6-90.1z"/>
			<path class="st1" d="M263.8-63.7c-2.7-0.2-5.4,0-7.6,1.7c-1.9,1.4-2.9,3.8-2.8,6.2c0.1,2.3,1.3,4.3,3.3,5.5
				c1.8,1.1,4.8,1.8,6.5,0.4c0.7-0.6,0.2-1.8-0.6-1.8c-1.6-0.2-3,0.3-4.5-0.6c-1.4-0.9-2.2-2.4-2.1-4.1c0.2-4.2,4.7-5,8-5.2
				C265.1-61.9,264.9-63.6,263.8-63.7L263.8-63.7z"/>
			<path class="st1" d="M160.7-63.8c-2.1-1.1-4.5-2-6.9-1.5c-2.1,0.5-3.8,2-4.6,4c-0.7,1.9-0.5,4,0.6,5.8c1,1.6,3.2,3.3,5.2,2.8
				c0.8-0.2,0.9-1.4,0.2-1.8c-1.3-0.8-2.6-0.9-3.5-2.2c-0.9-1.3-0.9-2.8-0.2-4.2c1.8-3.4,5.7-2.3,8.6-1.3
				C161-61.8,161.5-63.3,160.7-63.8L160.7-63.8z"/>
			<path class="st1" d="M232.6-35.2c1.6,2.1,3.5,4,6.2,4.6c2.3,0.5,4.7-0.3,6.4-1.9c1.6-1.6,2.4-3.8,2-6c-0.3-2-1.7-4.8-3.9-5.1
				c-0.9-0.2-1.5,1-1,1.7c0.9,1.3,2.1,2,2.4,3.8c0.3,1.7-0.4,3.2-1.7,4.3c-3.3,2.6-6.7-0.3-9.1-2.6
				C233.2-37.4,231.9-36.1,232.6-35.2L232.6-35.2z"/>
			<path class="st1" d="M169.1-42.5c-3.1,3.6-3.6,8.8-0.4,12.5c1.4,1.6,3.4,2.6,5.5,2.7c2.3,0.1,4.5-0.8,6.7-1.3
				c2.2-0.5,4.2-0.2,4.9,2.2c0.6,1.8,0.6,3.8,0.9,5.7c0.3,1.7,1,3.4,2.4,4.5c1.7,1.4,3.9,1.5,6,1.4c1.3,0,2.7-0.2,3.8,0.3
				c1.3,0.6,1.9,1.9,2.3,3.2c0.4,1.6,0.5,3.3,0.4,4.9c-0.1,1.7-0.8,3.2-1.1,4.8c-0.3,1.5,1.5,2.2,2.4,1c1.4-1.9,1.7-5,1.7-7.3
				c0-2.3-0.4-4.9-1.6-6.9c-1.1-1.9-2.9-2.8-5.1-3c-2.1-0.2-5,0.7-6.8-0.6c-1.4-1-1.6-3.2-1.8-4.8c-0.2-1.8-0.4-3.6-1.2-5.3
				c-2.1-4.3-6.7-3.3-10.5-2.3c-2.8,0.8-5.4,0.8-7.3-1.8c-1.9-2.7-1.2-6.1,0.4-8.8C171.4-42.3,169.9-43.5,169.1-42.5L169.1-42.5z"/>
			<path class="st1" d="M107.7-17.3c2.9,1.8,6.7,1.6,8.9-1.2c1-1.2,1.5-2.7,1.3-4.2c-0.2-1.6-1.1-3.1-1.7-4.6
				c-0.6-1.5-0.6-2.9,1-3.7c1.2-0.6,2.7-0.8,4-1.3c1.2-0.4,2.3-1.1,2.9-2.2c0.8-1.4,0.6-2.9,0.3-4.4c-0.2-0.9-0.5-1.9-0.2-2.8
				c0.2-1,1.1-1.6,2-2c1.1-0.5,2.3-0.8,3.4-0.8c1.2-0.1,2.3,0.2,3.5,0.2c1.1,0,1.4-1.3,0.4-1.8c-1.5-0.8-3.7-0.6-5.4-0.4
				c-1.6,0.3-3.4,0.9-4.7,1.9c-1.2,1-1.6,2.4-1.5,3.9c0.1,1.5,1.1,3.4,0.3,4.9c-0.6,1.1-2.1,1.5-3.2,1.8c-1.2,0.4-2.5,0.7-3.6,1.5
				c-2.8,2-1.6,5.1-0.4,7.7c0.9,1.9,1.2,3.8-0.4,5.4c-1.7,1.7-4.2,1.5-6.3,0.7C107.6-18.9,106.9-17.8,107.7-17.3L107.7-17.3z"/>
			<path class="st1" d="M154.6-24.5c0.6-3.8,0.3-7.6-0.3-11.3c-0.1-0.8-0.8-1.5-1.7-1.2c-3.5,1.4-7.1,3-10.2,5.1
				c-1.2,0.9,0,2.6,1.3,2c3.2-1.7,6.3-3.4,9.7-4.7c-0.5-0.4-1.1-0.8-1.6-1.2c0.6,3.7,0.6,7.4,0.8,11.1
				C152.6-23.6,154.4-23.4,154.6-24.5L154.6-24.5z"/>
			<path class="st1" d="M224.1-97c0,3.7,1,7.4,2.2,10.9c0.2,0.7,1,1.3,1.8,0.8c3.2-1.9,6.4-4.1,9-6.7c1-1-0.4-2.6-1.5-1.7
				c-2.8,2.2-5.5,4.3-8.6,6.2c0.6,0.3,1.2,0.6,1.8,0.8c-1.2-3.5-1.8-7-2.7-10.5C225.8-98.2,224.1-98.1,224.1-97L224.1-97z"/>
			<path class="st1" d="M286.8-26.3c0.8-2.5,1-5.1,1-7.7c0-0.5-0.4-1.1-1-1c-2.5,0.6-5.2,1.3-7.5,2.4c-0.9,0.5-0.3,1.8,0.7,1.5
				c2.4-0.8,4.6-1.6,7.1-2.2c-0.3-0.3-0.7-0.6-1-1c0,2.6-0.4,5.1-0.6,7.6C285.4-25.9,286.5-25.5,286.8-26.3L286.8-26.3z"/>
			<path class="st1" d="M245.1-59.1c-2.5-2.8-5.6-5-8.8-6.9c-0.6-0.4-1.6-0.3-1.9,0.5c-1.2,3.5-2.2,7.3-2.5,11
				c-0.1,1.5,2,1.7,2.3,0.3c0.7-3.5,1.4-6.9,2.5-10.3c-0.6,0.2-1.3,0.4-1.9,0.5c3.2,1.8,6,4.1,8.9,6.3
				C244.6-57.1,245.9-58.3,245.1-59.1L245.1-59.1z"/>
			<path class="st1" d="M196.4-33.7c4.9-0.6,7.8-5.1,12.3-6.5c-0.6-0.6-1.1-1.1-1.7-1.7c-0.6,4.1-1.1,8.1-1.7,12.2
				c-0.2,1.1,1.5,1.7,2.2,0.9c2.3-2.5,4.8-4.7,7.6-6.6c-0.6-0.2-1.2-0.3-1.8-0.5c1.4,3.1,2.2,6.4,2.5,9.8c0,0.5,0.4,1.2,1,1.3
				c1.3,0.2,2.2-0.3,3-1.4c1.1-1.5,1.9-3.3,2.8-4.9c-0.7,0.1-1.4,0.2-2.1,0.3c1.7,2.1,3.4,4.2,5.1,6.2c1.1,1.3,2.9-0.6,1.9-1.9
				c-1.7-2.1-3.4-4.2-5.1-6.2c-0.5-0.7-1.7-0.4-2.1,0.3c-0.3,0.6-2.6,5.1-2.8,5.1c0.3,0.4,0.6,0.8,1,1.3c-0.3-3.9-1.3-7.6-2.9-11.1
				c-0.3-0.6-1.2-0.8-1.8-0.5c-3,2-5.7,4.4-8.1,7c0.7,0.4,1.5,0.9,2.2,1.3c0.6-3.9,1.1-7.9,1.7-11.8c0.1-0.9-0.6-2-1.7-1.7
				c-4.5,1.4-7.4,5.6-11.9,7C195-35.5,195.1-33.5,196.4-33.7L196.4-33.7z"/>
			<path class="st1" d="M166.1-105.2c2,5.2-0.6,10.1,0.4,15.3c-0.8-0.3-1.6-0.6-2.3-0.9c3.3-2.4,6.7-4.8,10-7.2
				c0.9-0.7,2.3,0.8,2,1.8c-1.1,3.4-1.8,6.9-2.1,10.6c-0.4-0.5-0.9-1-1.3-1.6c3.5,0,6.8-0.7,10-1.9c0.5-0.2,1.2-0.2,1.6,0.4
				c0.8,1.2,0.9,2.3,0.3,3.6c-0.8,1.8-2,3.4-2.9,5.1c-0.3-0.7-0.5-1.5-0.8-2.2c2.7,0.8,5.5,1.5,8.2,2.3c1.7,0.6,1,3.1-0.7,2.7
				c-2.7-0.7-5.5-1.6-8.2-2.3c-0.9-0.3-1.2-1.5-0.8-2.2c0.4-0.6,3.2-4.9,3.1-5.1c0.5,0.1,1.1,0.3,1.6,0.4c-3.6,1.4-7.4,2.1-11.4,2.1
				c-0.7,0-1.4-0.9-1.3-1.6c0.3-3.9,1-7.7,2.1-11.3c0.8,0.5,1.5,1.1,2.3,1.6c-3.2,2.4-6.5,4.7-9.7,7c-0.8,0.6-2.1,0.3-2.3-0.9
				c-1-5.2,1.3-10,0.2-15.1C163.7-105.8,165.6-106.6,166.1-105.2L166.1-105.2z"/>
			<path class="st1" d="M174.6-50.7c0.2-2.3,0.6-4.6,0.9-6.9c0.2-2.2,0.2-4.5,0.8-6.6c0.4-1.3,2.3-1,2.5,0.2c0.4,2.3,0,4.7-0.2,7
				c-0.3,2.3-0.6,4.7-1.4,6.9C176.7-48.6,174.5-49.2,174.6-50.7L174.6-50.7z"/>
			<path class="st1" d="M236.4-70.6c-1.6,0.1-3.2-0.1-4.8-0.2c-1.6-0.1-3.2-0.1-4.7-0.6c-0.9-0.3-0.8-1.8,0.2-1.9
				c1.5-0.2,3,0.1,4.5,0.2c1.6,0.2,3.2,0.3,4.8,0.6C237.3-72.3,237.6-70.6,236.4-70.6L236.4-70.6z"/>
			<path class="st1" d="M237.1-73.5c-2.1-1-4-2.3-6.1-3.4c-1.9-1.1-4-1.9-5.8-3.3c-1.1-0.8,0-2.5,1.2-2.2c2.3,0.5,4.4,1.8,6.4,2.9
				c2,1.1,4.1,2.4,5.8,3.9C239.8-74.7,238.5-72.8,237.1-73.5L237.1-73.5z"/>
			<path class="st1" d="M285.8-88.8c-2.1-1-4-2.3-6.1-3.4c-1.9-1.1-4-1.9-5.8-3.3c-1.1-0.8,0-2.5,1.2-2.2c2.3,0.5,4.4,1.8,6.4,2.9
				c2,1.1,4.1,2.4,5.8,3.9C288.5-90,287.1-88.2,285.8-88.8L285.8-88.8z"/>
			<path class="st1" d="M294.1-41.5c-2.1-1-4-2.3-6.1-3.4c-1.9-1.1-4-1.9-5.8-3.3c-1.1-0.8,0-2.5,1.2-2.2c2.3,0.5,4.4,1.8,6.4,2.9
				c2,1.1,4.1,2.4,5.8,3.9C296.8-42.6,295.5-40.8,294.1-41.5L294.1-41.5z"/>
			<path class="st1" d="M135-88.8c-2.1-1-4-2.3-6.1-3.4c-1.9-1.1-4-1.9-5.8-3.3c-1.1-0.8,0-2.5,1.2-2.2c2.3,0.5,4.4,1.8,6.4,2.9
				c2,1.1,4.1,2.4,5.8,3.9C137.6-90,136.3-88.2,135-88.8L135-88.8z"/>
			<path class="st1" d="M217.8-52.4c-1,3.9-5.1,5.7-8.8,5.2c-4.2-0.6-7.4-4.3-6.1-8.6c1.3-4.4,6.3-6.7,10.5-5.2
				c0.1,0,0.2,0.1,0.3,0.1C216.9-59.4,218.7-55.9,217.8-52.4z M212.5-58.7c-2.9-1.1-6.5,0.7-7.2,3.8c-0.7,3.1,2.1,5.1,4.9,5.1
				c2.4,0,4.8-1.1,5.3-3.6C215.9-55.7,214.5-57.7,212.5-58.7z"/>
			<path class="st1" d="M205.8-91.5c-3.1,0.6-5.2,3.5-4.6,6.7c0.7,3.2,3.6,4.8,6.6,4.7c1.5,0,3.4-0.6,4.9,0.1
				c1.7,0.9,2.1,3.4,1.9,5.1c-0.6,4.5-4.5,6.2-8.6,6.2c-1.2,0-1.4,1.6-0.3,2.1c7.3,2.8,13.7-5.9,11-12.5c-1.5-3.6-4.6-3.8-8-3.6
				c-1.9,0.1-3.7,0-4.7-1.9c-1.1-2.1,0.3-4.4,2.4-5C207.5-89.9,207-91.7,205.8-91.5L205.8-91.5z"/>
			<path class="st1" d="M120.7-68.9c0.5,3.1,3.4,5.3,6.6,4.7c3.2-0.6,4.9-3.4,4.9-6.5c0-1.5-0.5-3.4,0.2-4.9
				c0.9-1.7,3.5-2.1,5.2-1.8c4.5,0.7,6.1,4.7,6,8.8c0,1.2,1.6,1.4,2,0.4c3-7.2-5.6-13.8-12.2-11.2c-3.6,1.4-3.9,4.5-3.7,8
				c0.1,1.9-0.1,3.7-2,4.6c-2.1,1-4.4-0.4-5-2.5C122.3-70.5,120.5-70.1,120.7-68.9L120.7-68.9z"/>
			<path class="st1" d="M267.9-68.9c0.5,3.1,3.4,5.3,6.6,4.7c3.2-0.6,4.9-3.4,4.9-6.5c0-1.5-0.5-3.4,0.2-4.9
				c0.9-1.7,3.5-2.1,5.2-1.8c4.5,0.7,6.1,4.7,6,8.8c0,1.2,1.6,1.4,2,0.4c3-7.2-5.6-13.8-12.2-11.2c-3.6,1.4-3.9,4.5-3.7,8
				c0.1,1.9-0.1,3.7-2,4.6c-2.1,1-4.4-0.4-5-2.5C269.5-70.5,267.7-70.1,267.9-68.9L267.9-68.9z"/>
		</g>
		<g>
			<path class="st1" d="M1.8-59.8c1.2-1.3,2.4-2.6,3.6-4c0.6-0.7,1.2-1.4,1.8-2c0.5-0.6,1.3-2,2-2.3c0.7-0.4-0.3-0.3,0.4,0
				c0.3,0.1,0.7,0.7,1,0.9c0.7,0.6,1.3,1.2,2,1.9c1.4,1.3,2.7,2.7,4.1,4.1c0.6,0.6,1.4,0.4,1.8-0.2c2.5-3.4,5-6.9,7.5-10.3
				c-0.5,0.1-1.1,0.3-1.6,0.4c3.7,2.4,7.4,4.7,11,7.1c1.4,0.9,2.6-1.3,1.3-2.1c-3.7-2.3-7.4-4.6-11.1-6.9c-0.6-0.4-1.2-0.1-1.6,0.4
				c-2.5,3.4-5,6.9-7.5,10.3c0.6-0.1,1.2-0.2,1.8-0.2c-1.8-1.8-3.5-3.5-5.3-5.3c-1-1-2.3-3-4-2.7c-1.6,0.2-3,2.7-4,3.9
				c-1.6,1.9-3.2,3.8-4.8,5.7C-0.6-60.3,0.8-58.7,1.8-59.8L1.8-59.8z"/>
			<path class="st1" d="M78.5-83.4c0.9,1.5,1.8,3.1,2.7,4.7c0.4,0.8,0.9,1.6,1.3,2.4c0.4,0.7,0.9,2.2,1.5,2.7
				c0.6,0.5-0.4,0.2,0.4,0.1c0.3-0.1,0.9-0.5,1.2-0.7c0.8-0.5,1.5-0.9,2.3-1.4c1.6-1,3.2-2.1,4.8-3.1c0.7-0.4,1.4-0.1,1.7,0.6
				c1.7,3.9,3.5,7.7,5.2,11.6c-0.5-0.2-1-0.5-1.5-0.7c4.1-1.5,8.2-3.1,12.3-4.6c1.5-0.6,2.3,1.8,0.8,2.4c-4.1,1.5-8.2,3-12.3,4.5
				c-0.6,0.2-1.2-0.2-1.5-0.7c-1.7-3.9-3.5-7.8-5.2-11.6c0.6,0.2,1.1,0.4,1.7,0.6c-2.1,1.4-4.2,2.7-6.3,4.1
				c-1.2,0.8-2.9,2.4-4.5,1.9c-1.6-0.6-2.4-3.3-3.1-4.6c-1.2-2.2-2.4-4.3-3.5-6.6C76.1-83.4,77.8-84.6,78.5-83.4L78.5-83.4z"/>
			<path class="st1" d="M67-141.6c-0.7-1.3-1.5-2.7-2.2-4c-0.4-0.7-0.8-1.3-1.2-2c-0.3-0.6-1.2-1.6-1.3-2.2
				c-0.1-0.7-0.3,0.2,0.1-0.3c0.2-0.2,0.7-0.4,1-0.5c0.7-0.4,1.4-0.7,2-1.1c1.4-0.8,2.9-1.5,4.4-2.2c0.6-0.3,0.7-1,0.3-1.5
				c-2.1-2.9-4.2-5.9-6.3-8.8c0,0.5-0.1,0.9-0.1,1.4c2.9-2.3,5.8-4.7,8.7-7c1.1-0.9-0.3-2.5-1.4-1.6c-2.9,2.4-5.7,4.7-8.6,7.1
				c-0.4,0.4-0.4,1-0.1,1.4c2.1,2.9,4.2,5.9,6.3,8.8c0.1-0.5,0.2-1,0.3-1.5c-1.9,0.9-3.8,1.9-5.7,2.8c-1.1,0.5-3,1.1-3.3,2.5
				c-0.3,1.4,1.4,3.2,2.1,4.3c1.1,1.8,2.2,3.6,3.3,5.4C66-139.7,67.6-140.5,67-141.6L67-141.6z"/>
			<path class="st1" d="M80-35.1c-0.8-0.5-0.8-1.6-0.4-2.4c0.5-0.9,1.6-1.2,2.4-0.6c0.9,0.6,0.9,1.9,0.3,2.7c0,0,0,0-0.1,0
				C81.6-34.7,80.7-34.6,80-35.1z"/>
			<path class="st1" d="M20.4-75.9c-0.8-0.5-0.8-1.6-0.4-2.4c0.5-0.9,1.6-1.2,2.4-0.6c0.9,0.6,0.9,1.9,0.3,2.7c0,0,0,0-0.1,0
				C22-75.5,21.1-75.4,20.4-75.9z"/>
			<path class="st1" d="M44.5-59.7c-0.8-0.5-0.8-1.6-0.4-2.4c0.5-0.9,1.6-1.2,2.4-0.6c0.9,0.6,0.9,1.9,0.3,2.7c0,0,0,0-0.1,0
				C46.1-59.4,45.2-59.2,44.5-59.7z"/>
			<path class="st1" d="M47.8-91.6c-0.8-0.5-0.8-1.6-0.4-2.4c0.5-0.9,1.6-1.2,2.4-0.6c0.9,0.6,0.9,1.9,0.3,2.7c0,0,0,0-0.1,0
				C49.4-91.3,48.5-91.1,47.8-91.6z"/>
			<path class="st1" d="M65.4-77.6c-0.8-0.5-0.8-1.6-0.4-2.4c0.5-0.9,1.6-1.2,2.4-0.6c0.9,0.6,0.9,1.9,0.3,2.7c0,0,0,0-0.1,0
				C67-77.2,66.1-77.1,65.4-77.6z"/>
			<path class="st1" d="M82.9-58.9c-0.8-0.5-0.8-1.6-0.4-2.4c0.5-0.9,1.6-1.2,2.4-0.6c0.9,0.7,0.9,1.9,0.3,2.7c0,0,0,0-0.1,0
				C84.5-58.6,83.6-58.4,82.9-58.9z"/>
			<path class="st1" d="M32.4-137.2c-0.8-0.5-0.8-1.6-0.4-2.4c0.5-0.9,1.6-1.2,2.4-0.6c0.9,0.6,0.9,1.9,0.3,2.7c0,0,0,0-0.1,0
				C34-136.9,33.1-136.8,32.4-137.2z"/>
			<path class="st1" d="M52.2-124.3c-0.8-0.5-0.8-1.6-0.4-2.4c0.5-0.9,1.6-1.2,2.4-0.6c0.9,0.6,0.9,1.9,0.3,2.7c0,0,0,0-0.1,0
				C53.8-124,52.9-123.8,52.2-124.3z"/>
			<path class="st1" d="M53.2-158.3c-0.8-0.5-0.8-1.6-0.4-2.4c0.5-0.9,1.6-1.2,2.4-0.6c0.9,0.6,0.9,1.9,0.3,2.7c0,0,0,0-0.1,0
				C54.8-157.9,53.9-157.8,53.2-158.3z"/>
			<path class="st1" d="M76.8-156.5c-0.8-0.5-0.8-1.6-0.4-2.4c0.5-0.9,1.6-1.2,2.4-0.6c0.9,0.6,0.9,1.9,0.3,2.7c0,0,0,0-0.1,0
				C78.4-156.2,77.5-156,76.8-156.5z"/>
			<path class="st1" d="M100.3-172.7c-0.8-0.5-0.8-1.6-0.4-2.4c0.5-0.9,1.6-1.2,2.4-0.6c0.9,0.6,0.9,1.9,0.3,2.7c0,0,0,0-0.1,0
				C101.9-172.3,101-172.2,100.3-172.7z"/>
			<path class="st1" d="M24.7-172.7c-0.8-0.5-0.8-1.6-0.4-2.4c0.5-0.9,1.6-1.2,2.4-0.6c0.9,0.6,0.9,1.9,0.3,2.7c0,0,0,0-0.1,0
				C26.3-172.3,25.4-172.2,24.7-172.7z"/>
			<path class="st1" d="M71.2-112.9c-0.8-0.5-0.8-1.6-0.4-2.4c0.5-0.9,1.6-1.2,2.4-0.6c0.9,0.6,0.9,1.9,0.3,2.7c0,0,0,0-0.1,0
				C72.7-112.5,71.8-112.4,71.2-112.9z"/>
			<path class="st1" d="M87.6-129.5c-0.8-0.5-0.8-1.6-0.4-2.4c0.5-0.9,1.6-1.2,2.4-0.6c0.9,0.6,0.9,1.9,0.3,2.7c0,0,0,0-0.1,0
				C89.2-129.1,88.3-129,87.6-129.5z"/>
			<path class="st1" d="M78.6-102.6c0.9-1.7,1.7-3.5,2.4-5.4c0.7-1.8,1.7-3.6,1.9-5.5c0.1-1.2-1.5-1.8-2.2-0.8
				c-1.1,1.5-1.6,3.3-2.2,5c-0.7,1.8-1.5,3.7-1.9,5.6C76.3-102.5,77.9-101.3,78.6-102.6L78.6-102.6z"/>
			<path class="st1" d="M50.4-71.7c-0.7-1.4-1.1-3-1.6-4.5c-0.5-1.5-1.1-3-1.2-4.6c0-1,1.3-1.4,1.8-0.5c0.8,1.3,1.1,2.8,1.5,4.2
				c0.5,1.5,1,3.1,1.2,4.6C52.3-71.5,50.9-70.6,50.4-71.7L50.4-71.7z"/>
			<path class="st1" d="M76.9-138.2c-2.7-0.2-5.4,0-7.6,1.7c-1.9,1.4-2.9,3.8-2.8,6.2c0.1,2.3,1.3,4.3,3.3,5.5
				c1.8,1.1,4.8,1.8,6.5,0.4c0.7-0.6,0.2-1.8-0.6-1.8c-1.6-0.2-3,0.3-4.5-0.6c-1.4-0.9-2.2-2.4-2.1-4.1c0.2-4.2,4.7-5,8-5.2
				C78.2-136.4,78-138.2,76.9-138.2L76.9-138.2z"/>
			<path class="st1" d="M45.7-109.7c1.6,2.1,3.5,4,6.2,4.6c2.3,0.5,4.7-0.3,6.4-1.9c1.6-1.6,2.4-3.8,2-6c-0.3-2-1.7-4.8-3.9-5.1
				c-0.9-0.2-1.5,1-1,1.7c0.9,1.3,2.1,2,2.4,3.8c0.3,1.7-0.4,3.2-1.7,4.3c-3.3,2.6-6.7-0.3-9.1-2.6C46.2-111.9,45-110.6,45.7-109.7
				L45.7-109.7z"/>
			<path class="st1" d="M101.2-89.1c-0.8-2.5-2-5-4.3-6.5c-2-1.3-4.5-1.3-6.7-0.4c-2,0.9-3.5,2.8-3.9,5c-0.4,2,0,5.1,2,6.2
				c0.8,0.5,1.7-0.4,1.5-1.2c-0.4-1.6-1.3-2.6-1-4.4c0.3-1.7,1.5-2.9,3-3.4c4-1.3,6.3,2.6,7.7,5.6C100-87.3,101.6-88.1,101.2-89.1
				L101.2-89.1z"/>
			<path class="st1" d="M72.9-72.7c3,3.2,3.3,7.9,0,10.9c-1.4,1.3-3.4,2.2-5.5,2.2c-2.3,0-4.4-0.8-6.6-1.3c-2.2-0.5-4.1-0.3-4.9,1.7
				c-0.7,1.6-0.7,3.3-1.1,5c-0.4,1.5-1.1,2.9-2.5,3.8c-1.7,1.2-3.9,1.2-5.9,1c-1.2-0.1-2.6-0.3-3.8,0.1c-1.3,0.4-1.9,1.6-2.3,2.8
				c-0.5,1.4-0.6,2.8-0.5,4.3c0.1,1.5,0.7,2.8,1,4.2c0.2,1.3-1.6,1.9-2.4,0.8c-1.3-1.7-1.5-4.4-1.5-6.4c0.1-2,0.6-4.3,1.8-6
				c1.2-1.6,3-2.3,5.1-2.5c2.1-0.1,4.9,0.8,6.8-0.3c1.4-0.8,1.6-2.7,1.9-4.1c0.3-1.6,0.5-3.2,1.3-4.6c2.2-3.7,6.7-2.7,10.5-1.6
				c2.7,0.8,5.3,0.8,7.2-1.3c2-2.3,1.4-5.3-0.1-7.7C70.7-72.6,72.2-73.6,72.9-72.7L72.9-72.7z"/>
			<path class="st1" d="M58.5-96.5c2.7,2.6,6,4.4,9.4,6c0.7,0.3,1.6,0.1,1.8-0.7c0.8-3.6,1.5-7.4,1.4-11.1c0-1.5-2.1-1.5-2.3,0
				c-0.4,3.5-0.7,7-1.5,10.5c0.6-0.2,1.2-0.5,1.8-0.7c-3.3-1.5-6.3-3.5-9.4-5.4C58.8-98.6,57.7-97.3,58.5-96.5L58.5-96.5z"/>
			<path class="st1" d="M37.1-171.5c0,3.7,1,7.4,2.2,10.9c0.2,0.7,1,1.3,1.8,0.8c3.2-1.9,6.4-4.1,9-6.7c1-1-0.4-2.6-1.5-1.7
				c-2.8,2.2-5.5,4.3-8.6,6.2c0.6,0.3,1.2,0.6,1.8,0.8c-1.2-3.5-1.8-7-2.7-10.5C38.9-172.7,37.1-172.6,37.1-171.5L37.1-171.5z"/>
			<path class="st1" d="M99.9-100.8c0.8-2.5,1-5.1,1-7.7c0-0.5-0.4-1.1-1-1c-2.5,0.6-5.2,1.3-7.5,2.4c-0.9,0.5-0.3,1.8,0.7,1.5
				c2.4-0.8,4.6-1.6,7.1-2.2c-0.3-0.3-0.7-0.6-1-1c0,2.6-0.4,5.1-0.6,7.6C98.4-100.4,99.6-100.1,99.9-100.8L99.9-100.8z"/>
			<path class="st1" d="M58.2-133.6c-2.5-2.8-5.6-5-8.8-6.9c-0.6-0.4-1.6-0.3-1.9,0.5c-1.2,3.5-2.2,7.3-2.5,11
				c-0.1,1.5,2,1.7,2.3,0.3c0.7-3.5,1.4-6.9,2.5-10.3c-0.6,0.2-1.3,0.4-1.9,0.5c3.2,1.8,6,4.1,8.9,6.3
				C57.7-131.6,59-132.8,58.2-133.6L58.2-133.6z"/>
			<path class="st1" d="M9.5-108.2c4.9-0.6,7.8-5.1,12.3-6.5c-0.6-0.6-1.1-1.1-1.7-1.7c-0.6,4.1-1.1,8.1-1.7,12.2
				c-0.2,1.1,1.5,1.7,2.2,0.9c2.3-2.5,4.8-4.7,7.6-6.6c-0.6-0.2-1.2-0.3-1.8-0.5c1.4,3.1,2.2,6.4,2.5,9.8c0,0.5,0.4,1.2,1,1.3
				c1.3,0.2,2.2-0.3,3-1.4c1.1-1.5,1.9-3.3,2.8-4.9c-0.7,0.1-1.4,0.2-2.1,0.3c1.7,2.1,3.4,4.2,5.1,6.2c1.1,1.3,2.9-0.6,1.9-1.9
				c-1.7-2.1-3.4-4.2-5.1-6.2c-0.5-0.7-1.7-0.4-2.1,0.3c-0.3,0.6-2.6,5.1-2.8,5.1c0.3,0.4,0.6,0.8,1,1.3c-0.3-3.9-1.3-7.6-2.9-11.1
				c-0.3-0.6-1.2-0.8-1.8-0.5c-3,2-5.7,4.4-8.1,7c0.7,0.4,1.5,0.9,2.2,1.3c0.6-3.9,1.1-7.9,1.7-11.8c0.1-0.9-0.6-2-1.7-1.7
				c-4.5,1.4-7.4,5.6-11.9,7C8.1-110,8.2-108,9.5-108.2L9.5-108.2z"/>
			<path class="st1" d="M105-45c-4.1,0.5-6.4,4.2-10.2,5.4c0.5,0.5,0.9,0.9,1.4,1.4c0.5-3.3,0.9-6.7,1.4-10c0.1-0.9-1.3-1.4-1.8-0.8
				c-1.9,2.1-3.9,3.9-6.2,5.5c0.5,0.1,1,0.3,1.5,0.4c-1.1-2.6-1.8-5.3-2.1-8.1c0-0.4-0.3-1-0.8-1c-1.1-0.2-1.8,0.2-2.5,1.1
				c-0.9,1.3-1.6,2.7-2.3,4c0.6-0.1,1.1-0.1,1.7-0.2c-1.4-1.7-2.8-3.5-4.2-5.1c-0.9-1.1-2.4,0.5-1.5,1.5c1.4,1.8,2.8,3.4,4.2,5.1
				c0.4,0.5,1.4,0.3,1.7-0.2c0.3-0.5,2.1-4.2,2.3-4.2c-0.3-0.3-0.5-0.7-0.8-1c0.3,3.2,1.1,6.2,2.4,9.1c0.2,0.5,1,0.7,1.5,0.4
				c2.4-1.7,4.7-3.6,6.7-5.8c-0.6-0.4-1.2-0.7-1.8-1.1c-0.5,3.2-0.9,6.5-1.4,9.7c-0.1,0.8,0.5,1.7,1.4,1.4c3.7-1.2,6.1-4.6,9.8-5.8
				C106.1-43.5,106-45.1,105-45L105-45z"/>
			<path class="st1" d="M53.4-72.2c0.2-2.3,0.6-4.6,0.9-6.9c0.2-2.2,0.2-4.5,0.8-6.6c0.4-1.3,2.3-1,2.5,0.2c0.4,2.3,0,4.7-0.2,7
				c-0.3,2.3-0.6,4.7-1.4,6.9C55.5-70.1,53.3-70.7,53.4-72.2L53.4-72.2z"/>
			<path class="st1" d="M20.7-43.9c1.3-1.9,2.8-3.7,4.2-5.6c1.3-1.8,2.4-3.8,4-5.3c1-0.9,2.5,0.3,2.1,1.4c-0.7,2.2-2.3,4.1-3.7,5.9
				c-1.4,1.9-2.9,3.8-4.6,5.3C21.5-41.1,19.9-42.6,20.7-43.9L20.7-43.9z"/>
			<path class="st1" d="M49.5-145.1c-1.6,0.1-3.2-0.1-4.8-0.2c-1.6-0.1-3.2-0.1-4.7-0.6c-0.9-0.3-0.8-1.8,0.2-1.9
				c1.5-0.2,3,0.1,4.5,0.2c1.6,0.2,3.2,0.3,4.8,0.6C50.4-146.8,50.7-145.1,49.5-145.1L49.5-145.1z"/>
			<path class="st1" d="M50.2-148c-2.1-1-4-2.3-6.1-3.4c-1.9-1.1-4-1.9-5.8-3.3c-1.1-0.8,0-2.5,1.2-2.2c2.3,0.5,4.4,1.8,6.4,2.9
				c2,1.1,4.1,2.4,5.8,3.9C52.9-149.2,51.6-147.3,50.2-148L50.2-148z"/>
			<path class="st1" d="M98.9-163.4c-2.1-1-4-2.3-6.1-3.4c-1.9-1.1-4-1.9-5.8-3.3c-1.1-0.8,0-2.5,1.2-2.2c2.3,0.5,4.4,1.8,6.4,2.9
				c2,1.1,4.1,2.4,5.8,3.9C101.6-164.5,100.2-162.7,98.9-163.4L98.9-163.4z"/>
			<path class="st1" d="M107.2-116c-2.1-1-4-2.3-6.1-3.4c-1.9-1.1-4-1.9-5.8-3.3c-1.1-0.8,0-2.5,1.2-2.2c2.3,0.5,4.4,1.8,6.4,2.9
				c2,1.1,4.1,2.4,5.8,3.9C109.9-117.1,108.6-115.3,107.2-116L107.2-116z"/>
			<path class="st1" d="M41.8-84.1c-1.1,4.3-5.7,6.4-9.9,5.8c-4.7-0.6-8.2-4.8-6.8-9.6c1.5-4.9,7-7.5,11.8-5.8
				c0.1,0,0.2,0.1,0.3,0.1C40.7-91.8,42.8-88,41.8-84.1z M35.8-91c-3.3-1.2-7.3,0.8-8.1,4.3c-0.8,3.4,2.4,5.7,5.5,5.7
				c2.7,0,5.3-1.3,5.9-4.1C39.6-87.7,38.1-90,35.8-91z"/>
			<path class="st1" d="M65.1-35.5c-1.5,3.5-5.5,4.8-9,3.8c-3.9-1.1-6.4-5-4.7-8.9c1.8-4,6.8-5.6,10.6-3.6c0.1,0,0.2,0.1,0.2,0.2
				C65.1-42.2,66.4-38.7,65.1-35.5z M60.8-42.1c-2.6-1.4-6.3-0.2-7.3,2.7c-1,2.8,1.4,5.1,4,5.5c2.2,0.3,4.7-0.5,5.5-2.8
				C63.7-38.8,62.7-41,60.8-42.1z"/>
			<path class="st1" d="M30.9-127c-1,3.9-5.1,5.7-8.8,5.2c-4.2-0.6-7.4-4.3-6.1-8.6c1.3-4.4,6.3-6.7,10.5-5.2c0.1,0,0.2,0.1,0.3,0.1
				C29.9-133.9,31.8-130.5,30.9-127z M25.6-133.2c-2.9-1.1-6.5,0.7-7.2,3.8c-0.7,3.1,2.1,5.1,4.9,5.1c2.4,0,4.8-1.1,5.3-3.6
				C29-130.2,27.6-132.3,25.6-133.2z"/>
			<path class="st1" d="M18.9-166c-3.1,0.6-5.2,3.5-4.6,6.7c0.7,3.2,3.6,4.8,6.6,4.7c1.5,0,3.4-0.6,4.9,0.1c1.7,0.9,2.1,3.4,1.9,5.1
				c-0.6,4.5-4.5,6.2-8.6,6.2c-1.2,0-1.4,1.6-0.3,2.1c7.3,2.8,13.7-5.9,11-12.5c-1.5-3.6-4.6-3.8-8-3.6c-1.9,0.1-3.7,0-4.7-1.9
				c-1.1-2.1,0.3-4.4,2.4-5C20.6-164.4,20.1-166.2,18.9-166L18.9-166z"/>
			<path class="st1" d="M81-143.4c0.5,3.1,3.4,5.3,6.6,4.7c3.2-0.6,4.9-3.4,4.9-6.5c0-1.5-0.5-3.4,0.2-4.9c0.9-1.7,3.5-2.1,5.2-1.8
				c4.5,0.7,6.1,4.7,6,8.8c0,1.2,1.6,1.4,2,0.4c3-7.2-5.6-13.8-12.2-11.2c-3.6,1.4-3.9,4.5-3.7,8c0.1,1.9-0.1,3.7-2,4.6
				c-2.1,1-4.4-0.4-5-2.5C82.6-145.1,80.8-144.6,81-143.4L81-143.4z"/>
		</g>
		<g>
			<path class="st1" d="M375.7-208.8c1.2-1.3,2.4-2.6,3.6-4c0.6-0.7,1.2-1.4,1.8-2c0.5-0.6,1.3-2,2-2.3c0.7-0.4-0.3-0.3,0.4,0
				c0.3,0.1,0.7,0.7,1,0.9c0.7,0.6,1.3,1.2,2,1.9c1.4,1.3,2.7,2.7,4.1,4.1c0.6,0.6,1.4,0.4,1.8-0.2c2.5-3.4,5-6.9,7.5-10.3
				c-0.5,0.1-1.1,0.3-1.6,0.4c3.7,2.4,7.4,4.7,11,7.1c1.4,0.9,2.6-1.3,1.3-2.1c-3.7-2.3-7.4-4.6-11.1-6.9c-0.6-0.4-1.2-0.1-1.6,0.4
				c-2.5,3.4-5,6.9-7.5,10.3c0.6-0.1,1.2-0.2,1.8-0.2c-1.8-1.8-3.5-3.5-5.3-5.3c-1-1-2.3-3-4-2.7c-1.6,0.2-3,2.7-4,3.9
				c-1.6,1.9-3.2,3.8-4.8,5.7C373.2-209.3,374.7-207.8,375.7-208.8L375.7-208.8z"/>
			<path class="st1" d="M303.1-232.4c0.9,1.5,1.8,3.1,2.7,4.7c0.4,0.8,0.9,1.6,1.3,2.4c0.4,0.7,0.9,2.2,1.5,2.7
				c0.6,0.5-0.4,0.2,0.4,0.1c0.3-0.1,0.9-0.5,1.2-0.7c0.8-0.5,1.5-0.9,2.3-1.4c1.6-1,3.2-2.1,4.8-3.1c0.7-0.4,1.4-0.1,1.7,0.6
				c1.7,3.9,3.5,7.7,5.2,11.6c-0.5-0.2-1-0.5-1.5-0.7c4.1-1.5,8.2-3.1,12.3-4.6c1.5-0.6,2.3,1.8,0.8,2.4c-4.1,1.5-8.2,3-12.3,4.5
				c-0.6,0.2-1.2-0.2-1.5-0.7c-1.7-3.9-3.5-7.8-5.2-11.6c0.6,0.2,1.1,0.4,1.7,0.6c-2.1,1.4-4.2,2.7-6.3,4.1
				c-1.2,0.8-2.9,2.4-4.5,1.9c-1.6-0.6-2.4-3.3-3.1-4.6c-1.2-2.2-2.4-4.3-3.5-6.6C300.6-232.5,302.3-233.6,303.1-232.4L303.1-232.4z
				"/>
			<path class="st1" d="M360.7-241.2c-0.8-0.5-0.8-1.6-0.4-2.4c0.5-0.9,1.6-1.2,2.4-0.6c0.9,0.6,0.9,1.9,0.3,2.7c0,0,0,0-0.1,0
				C362.3-240.8,361.4-240.7,360.7-241.2z"/>
			<path class="st1" d="M336-228.4c-0.8-0.5-0.8-1.6-0.4-2.4c0.5-0.9,1.6-1.2,2.4-0.6c0.9,0.6,0.9,1.9,0.3,2.7c0,0,0,0-0.1,0
				C337.6-228.1,336.7-227.9,336-228.4z"/>
			<path class="st1" d="M343.7-266.3c-0.8-0.5-0.8-1.6-0.4-2.4c0.5-0.9,1.6-1.2,2.4-0.6c0.9,0.6,0.9,1.9,0.3,2.7c0,0,0,0-0.1,0
				C345.3-265.9,344.4-265.8,343.7-266.3z"/>
			<path class="st1" d="M364.7-215.8c-0.8-0.5-0.8-1.6-0.4-2.4c0.5-0.9,1.6-1.2,2.4-0.6c0.9,0.6,0.9,1.9,0.3,2.7c0,0,0,0-0.1,0
				C366.3-215.4,365.4-215.3,364.7-215.8z"/>
			<path class="st1" d="M349.5-190.7c-0.8-0.5-0.8-1.6-0.4-2.4c0.5-0.9,1.6-1.2,2.4-0.6c0.9,0.6,0.9,1.9,0.3,2.7c0,0,0,0-0.1,0
				C351.1-190.3,350.2-190.2,349.5-190.7z"/>
			<path class="st1" d="M385.3-205.2c-0.8-0.5-0.8-1.6-0.4-2.4c0.5-0.9,1.6-1.2,2.4-0.6c0.9,0.6,0.9,1.9,0.3,2.7c0,0,0,0-0.1,0
				C386.9-204.8,386-204.7,385.3-205.2z"/>
			<path class="st1" d="M321.1-279.2c-0.8-0.5-0.8-1.6-0.4-2.4c0.5-0.9,1.6-1.2,2.4-0.6c0.9,0.6,0.9,1.9,0.3,2.7c0,0,0,0-0.1,0
				C322.7-278.8,321.8-278.7,321.1-279.2z"/>
			<path class="st1" d="M306.6-309.1c-0.8-0.5-0.8-1.6-0.4-2.4c0.5-0.9,1.6-1.2,2.4-0.6c0.9,0.6,0.9,1.9,0.3,2.7c0,0,0,0-0.1,0
				C308.2-308.8,307.3-308.6,306.6-309.1z"/>
			<path class="st1" d="M340.6-304.5c-0.8-0.5-0.8-1.6-0.4-2.4c0.5-0.9,1.6-1.2,2.4-0.6c0.9,0.6,0.9,1.9,0.3,2.7c0,0,0,0-0.1,0
				C342.2-304.2,341.3-304,340.6-304.5z"/>
			<path class="st1" d="M373.1-261.9c-0.8-0.5-0.8-1.6-0.4-2.4c0.5-0.9,1.6-1.2,2.4-0.6c0.9,0.6,0.9,1.9,0.3,2.7c0,0,0,0-0.1,0
				C374.7-261.5,373.8-261.4,373.1-261.9z"/>
			<path class="st1" d="M387-295.4c-0.8-0.5-0.8-1.6-0.4-2.4c0.5-0.9,1.6-1.2,2.4-0.6c0.9,0.6,0.9,1.9,0.3,2.7c0,0,0,0-0.1,0
				C388.6-295,387.7-294.9,387-295.4z"/>
			<path class="st1" d="M378.2-315.3c-0.8-0.5-0.8-1.6-0.4-2.4c0.5-0.9,1.6-1.2,2.4-0.6c0.9,0.6,0.9,1.9,0.3,2.7c0,0,0,0-0.1,0
				C379.8-315,378.9-314.8,378.2-315.3z"/>
			<path class="st1" d="M357.5-294.1c-0.8-0.5-0.8-1.6-0.4-2.4c0.5-0.9,1.6-1.2,2.4-0.6c0.9,0.6,0.9,1.9,0.3,2.7c0,0,0,0-0.1,0
				C359.1-293.7,358.2-293.6,357.5-294.1z"/>
			<path class="st1" d="M376.8-278.9c0.6-1.5,1.4-2.8,2.2-4.2c0.8-1.4,1.5-2.9,2.6-4c0.7-0.7,1.9,0.1,1.6,1c-0.4,1.4-1.3,2.7-2.1,4
				c-0.8,1.4-1.6,2.8-2.6,4.1C377.9-277.3,376.3-277.8,376.8-278.9L376.8-278.9z"/>
			<path class="st1" d="M299.6-268.2c-0.7-1.4-1.1-3-1.6-4.5c-0.5-1.5-1.1-3-1.2-4.6c0-1,1.3-1.4,1.8-0.5c0.8,1.3,1.1,2.8,1.5,4.2
				c0.5,1.5,1,3.1,1.2,4.6C301.5-268,300.1-267.2,299.6-268.2L299.6-268.2z"/>
			<path class="st1" d="M352-277c0.6-1.5,1.4-2.8,2.2-4.2c0.8-1.4,1.5-2.9,2.6-4c0.7-0.7,1.9,0.1,1.6,1c-0.4,1.4-1.3,2.7-2.1,4
				c-0.8,1.4-1.6,2.8-2.6,4.1C353.2-275.5,351.6-275.9,352-277L352-277z"/>
			<path class="st1" d="M361.5-221.8c1.7-2.9,3-6.1,2.4-9.5c-0.5-2.9-2.6-5.4-5.4-6.6c-2.6-1.1-5.6-0.9-8,0.6
				c-2.2,1.4-4.7,4.3-4.1,7.1c0.3,1.2,1.8,1.3,2.4,0.3c1.1-1.7,1.3-3.5,3.2-4.7c1.8-1.1,3.9-1.1,5.8-0.1c4.6,2.6,2.9,8,1.4,12
				C358.8-221.4,360.9-220.6,361.5-221.8L361.5-221.8z"/>
			<path class="st1" d="M386.8-184.6c-2.7-0.4-5.3-1.1-7.2-3.2c-1.6-1.8-2.1-4.3-1.5-6.6c0.6-2.2,2.2-4,4.3-4.8
				c2-0.7,5.1-0.9,6.5,0.9c0.6,0.7-0.1,1.8-1,1.7c-1.6-0.2-2.9-0.9-4.6-0.3c-1.6,0.6-2.7,1.9-2.9,3.6c-0.6,4.2,3.6,5.8,6.9,6.8
				C388.4-186.2,387.9-184.5,386.8-184.6L386.8-184.6z"/>
			<path class="st1" d="M338.6-313.7c1.8-2.4,3.3-5.2,3.1-8.3c-0.2-2.7-1.8-5.1-4.1-6.4c-2.2-1.3-4.9-1.4-7.2-0.3
				c-2.1,1-4.6,3.4-4.3,5.9c0.1,1.1,1.5,1.3,2.1,0.5c1.2-1.5,1.5-3,3.4-3.9c1.7-0.8,3.6-0.6,5.2,0.5c3.8,2.8,1.8,7.4,0,10.8
				C336.1-313.6,337.8-312.7,338.6-313.7L338.6-313.7z"/>
			<path class="st1" d="M347.6-287.3c-2.1-1.1-4.5-2-6.9-1.5c-2.1,0.5-3.8,2-4.6,4c-0.7,1.9-0.5,4,0.6,5.8c1,1.6,3.2,3.3,5.2,2.8
				c0.8-0.2,0.9-1.4,0.2-1.8c-1.3-0.8-2.6-0.9-3.5-2.2c-0.9-1.3-0.9-2.8-0.2-4.2c1.8-3.4,5.7-2.3,8.6-1.3
				C347.9-285.3,348.4-286.9,347.6-287.3L347.6-287.3z"/>
			<path class="st1" d="M356-266.1c-3.1,3.6-3.6,8.8-0.4,12.5c1.4,1.6,3.4,2.6,5.5,2.7c2.3,0.1,4.5-0.8,6.7-1.3
				c2.2-0.5,4.2-0.2,4.9,2.2c0.6,1.8,0.6,3.8,0.9,5.7c0.3,1.7,1,3.4,2.4,4.5c1.7,1.4,3.9,1.5,6,1.4c1.3,0,2.7-0.2,3.8,0.3
				c1.3,0.6,1.9,1.9,2.3,3.2c0.4,1.6,0.5,3.3,0.4,4.9c-0.1,1.7-0.8,3.2-1.1,4.8c-0.3,1.5,1.5,2.2,2.4,1c1.4-1.9,1.7-5,1.7-7.3
				c0-2.3-0.4-4.9-1.6-6.9c-1.1-1.9-2.9-2.8-5.1-3c-2.1-0.2-5,0.7-6.8-0.6c-1.4-1-1.6-3.2-1.8-4.8c-0.2-1.8-0.4-3.6-1.2-5.3
				c-2.1-4.3-6.7-3.3-10.5-2.3c-2.8,0.8-5.4,0.8-7.3-1.8c-1.9-2.7-1.2-6.1,0.4-8.8C358.3-265.8,356.8-267,356-266.1L356-266.1z"/>
			<path class="st1" d="M294.6-240.8c2.9,1.8,6.7,1.6,8.9-1.2c1-1.2,1.5-2.7,1.3-4.2c-0.2-1.6-1.1-3.1-1.7-4.6
				c-0.6-1.5-0.6-2.9,1-3.7c1.2-0.6,2.7-0.8,4-1.3c1.2-0.4,2.3-1.1,2.9-2.2c0.8-1.4,0.6-2.9,0.3-4.4c-0.2-0.9-0.5-1.9-0.2-2.8
				c0.2-1,1.1-1.6,2-2c1.1-0.5,2.3-0.8,3.4-0.8c1.2-0.1,2.3,0.2,3.5,0.2c1.1,0,1.4-1.3,0.4-1.8c-1.5-0.8-3.7-0.6-5.4-0.4
				c-1.6,0.3-3.4,0.9-4.7,1.9c-1.2,1-1.6,2.4-1.5,3.9c0.1,1.5,1.1,3.4,0.3,4.9c-0.6,1.1-2.1,1.5-3.2,1.8c-1.2,0.4-2.5,0.7-3.6,1.5
				c-2.8,2-1.6,5.1-0.4,7.7c0.9,1.9,1.2,3.8-0.4,5.4c-1.7,1.7-4.2,1.5-6.3,0.7C294.5-242.5,293.8-241.3,294.6-240.8L294.6-240.8z"/>
			<path class="st1" d="M364.3-192.9c1.8-3.9,2.7-8.1,3.2-12.4c0.1-0.8-0.4-1.8-1.4-1.8c-4.2,0.4-8.6,1-12.7,2.4
				c-1.6,0.6-0.9,2.9,0.8,2.5c4-0.9,7.9-1.7,12-2.1c-0.5-0.6-1-1.2-1.4-1.8c-0.5,4.2-1.6,8.2-2.5,12.2
				C362-192.5,363.8-191.7,364.3-192.9L364.3-192.9z"/>
			<path class="st1" d="M341.5-248.1c0.6-3.8,0.3-7.6-0.3-11.3c-0.1-0.8-0.8-1.5-1.7-1.2c-3.5,1.4-7.1,3-10.2,5.1
				c-1.2,0.9,0,2.6,1.3,2c3.2-1.7,6.3-3.4,9.7-4.7c-0.5-0.4-1.1-0.8-1.6-1.2c0.6,3.7,0.6,7.4,0.8,11.1
				C339.6-247.1,341.3-246.9,341.5-248.1L341.5-248.1z"/>
			<path class="st1" d="M383.3-257.2c4.9-0.6,7.8-5.1,12.3-6.5c-0.6-0.6-1.1-1.1-1.7-1.7c-0.6,4.1-1.1,8.1-1.7,12.2
				c-0.2,1.1,1.5,1.7,2.2,0.9c2.3-2.5,4.8-4.7,7.6-6.6c-0.6-0.2-1.2-0.3-1.8-0.5c1.4,3.1,2.2,6.4,2.5,9.8c0,0.5,0.4,1.2,1,1.3
				c1.3,0.2,2.2-0.3,3-1.4c1.1-1.5,1.9-3.3,2.8-4.9c-0.7,0.1-1.4,0.2-2.1,0.3c1.7,2.1,3.4,4.2,5.1,6.2c1.1,1.3,2.9-0.6,1.9-1.9
				c-1.7-2.1-3.4-4.2-5.1-6.2c-0.5-0.7-1.7-0.4-2.1,0.3c-0.3,0.6-2.6,5.1-2.8,5.1c0.3,0.4,0.6,0.8,1,1.3c-0.3-3.9-1.3-7.6-2.9-11.1
				c-0.3-0.6-1.2-0.8-1.8-0.5c-3,2-5.7,4.4-8.1,7c0.7,0.4,1.5,0.9,2.2,1.3c0.6-3.9,1.1-7.9,1.7-11.8c0.1-0.9-0.6-2-1.7-1.7
				c-4.5,1.4-7.4,5.6-11.9,7C381.9-259,382.1-257,383.3-257.2L383.3-257.2z"/>
			<path class="st1" d="M325.1-197.3c-4.1,0.5-6.4,4.2-10.2,5.4c0.5,0.5,0.9,0.9,1.4,1.4c0.5-3.3,0.9-6.7,1.4-10
				c0.1-0.9-1.3-1.4-1.8-0.8c-1.9,2.1-3.9,3.9-6.2,5.5c0.5,0.1,1,0.3,1.5,0.4c-1.1-2.6-1.8-5.3-2.1-8.1c0-0.4-0.3-1-0.8-1
				c-1.1-0.2-1.8,0.2-2.5,1.1c-0.9,1.3-1.6,2.7-2.3,4c0.6-0.1,1.1-0.1,1.7-0.2c-1.4-1.7-2.8-3.5-4.2-5.1c-0.9-1.1-2.4,0.5-1.5,1.5
				c1.4,1.8,2.8,3.4,4.2,5.1c0.5,0.5,1.4,0.3,1.7-0.2c0.3-0.5,2.1-4.2,2.3-4.2c-0.3-0.3-0.5-0.7-0.8-1c0.3,3.2,1.1,6.2,2.4,9.1
				c0.2,0.5,1,0.7,1.5,0.4c2.4-1.7,4.7-3.6,6.7-5.8c-0.6-0.4-1.2-0.7-1.8-1.1c-0.5,3.2-0.9,6.5-1.4,9.7c-0.1,0.8,0.5,1.7,1.4,1.4
				c3.7-1.2,6.1-4.6,9.8-5.8C326.2-195.8,326.1-197.4,325.1-197.3L325.1-197.3z"/>
			<path class="st1" d="M353-328.7c2,5.2-0.6,10.1,0.4,15.3c-0.8-0.3-1.6-0.6-2.3-0.9c3.3-2.4,6.7-4.8,10-7.2c0.9-0.7,2.3,0.8,2,1.8
				c-1.1,3.4-1.8,6.9-2.1,10.6c-0.4-0.5-0.9-1-1.3-1.6c3.5,0,6.8-0.7,10-1.9c0.5-0.2,1.2-0.2,1.6,0.4c0.8,1.2,0.9,2.3,0.3,3.6
				c-0.8,1.8-2,3.4-2.9,5.1c-0.3-0.7-0.5-1.5-0.8-2.2c2.7,0.8,5.5,1.5,8.2,2.3c1.7,0.6,1,3.1-0.7,2.7c-2.7-0.7-5.5-1.6-8.2-2.3
				c-0.9-0.3-1.2-1.5-0.8-2.2c0.4-0.6,3.2-4.9,3.1-5.1c0.5,0.1,1.1,0.3,1.6,0.4c-3.6,1.4-7.4,2.1-11.4,2.1c-0.7,0-1.4-0.9-1.3-1.6
				c0.3-3.9,1-7.7,2.1-11.3c0.8,0.5,1.5,1.1,2.3,1.6c-3.2,2.4-6.5,4.7-9.7,7c-0.8,0.6-2.1,0.3-2.3-0.9c-1-5.2,1.3-10,0.2-15.1
				C350.6-329.3,352.5-330.1,353-328.7L353-328.7z"/>
			<path class="st1" d="M361.6-274.2c0.2-2.3,0.6-4.6,0.9-6.9c0.2-2.2,0.2-4.5,0.8-6.6c0.4-1.3,2.3-1,2.5,0.2c0.4,2.3,0,4.7-0.2,7
				c-0.3,2.3-0.6,4.7-1.4,6.9C363.7-272.2,361.5-272.7,361.6-274.2L361.6-274.2z"/>
			<path class="st1" d="M321.9-312.4c-2.1-1-4-2.3-6.1-3.4c-1.9-1.1-4-1.9-5.8-3.3c-1.1-0.8,0-2.5,1.2-2.2c2.3,0.5,4.4,1.8,6.4,2.9
				c2,1.1,4.1,2.4,5.8,3.9C324.6-313.5,323.2-311.7,321.9-312.4L321.9-312.4z"/>
			<path class="st1" d="M404.7-276c-1,3.9-5.1,5.7-8.8,5.2c-4.2-0.6-7.4-4.3-6.1-8.6c1.3-4.4,6.3-6.7,10.5-5.2
				c0.1,0,0.2,0.1,0.3,0.1C403.8-282.9,405.7-279.5,404.7-276z M399.4-282.2c-2.9-1.1-6.5,0.7-7.2,3.8c-0.7,3.1,2.1,5.1,4.9,5.1
				c2.4,0,4.8-1.1,5.3-3.6C402.8-279.2,401.4-281.3,399.4-282.2z"/>
			<path class="st1" d="M330.6-247.1c3.1,2.5,3.1,6.8,1.1,10c-2.2,3.5-6.8,4.9-10.2,2c-3.4-2.9-3.5-8.3-0.4-11.5
				c0.1-0.1,0.1-0.1,0.2-0.2C324-249,327.8-249.4,330.6-247.1z M322.8-244.8c-2.1,2.2-2,6.1,0.5,8c2.5,1.8,5.4,0.1,6.5-2.3
				c1-2.1,0.9-4.7-1.1-6.2C326.9-246.7,324.5-246.3,322.8-244.8z"/>
			<path class="st1" d="M392.7-315c-3.1,0.6-5.2,3.5-4.6,6.7c0.7,3.2,3.6,4.8,6.6,4.7c1.5,0,3.4-0.6,4.9,0.1
				c1.7,0.9,2.1,3.4,1.9,5.1c-0.6,4.5-4.5,6.2-8.6,6.2c-1.2,0-1.4,1.6-0.3,2.1c7.3,2.8,13.7-5.9,11-12.5c-1.5-3.6-4.6-3.8-8-3.6
				c-1.9,0.1-3.7,0-4.7-1.9c-1.1-2.1,0.3-4.4,2.4-5C394.4-313.4,394-315.2,392.7-315L392.7-315z"/>
			<path class="st1" d="M329.7-188.3c2.8,1.8,6.6,1.2,8.5-1.7c1.9-2.9,0.9-6.3-1.6-8.5c-1.2-1.1-3.1-2.1-3.6-3.7
				c-0.7-2,0.9-4.2,2.4-5.4c3.8-3,8.1-1.4,11.2,1.7c0.9,0.9,2.3-0.2,1.8-1.3c-3.5-7.6-14.9-5.7-17.7,1.4c-1.5,3.9,0.7,6.4,3.5,8.7
				c1.5,1.3,2.8,2.8,2.2,4.9c-0.7,2.4-3.5,3.2-5.6,2.1C329.6-190.8,328.6-189,329.7-188.3L329.7-188.3z"/>
			<path class="st1" d="M307.7-292.4c0.5,3.1,3.4,5.3,6.6,4.7c3.2-0.6,4.9-3.4,4.9-6.5c0-1.5-0.5-3.4,0.2-4.9
				c0.9-1.7,3.5-2.1,5.2-1.8c4.5,0.7,6.1,4.7,6,8.8c0,1.2,1.6,1.4,2,0.4c3-7.2-5.6-13.8-12.2-11.2c-3.6,1.4-3.9,4.5-3.7,8
				c0.1,1.9-0.1,3.7-2,4.6c-2.1,1-4.4-0.4-5-2.5C309.3-294.1,307.4-293.7,307.7-292.4L307.7-292.4z"/>
		</g>
		<g>
			<path class="st1" d="M188.7-134.3c1.2-1.3,2.4-2.6,3.6-4c0.6-0.7,1.2-1.4,1.8-2c0.5-0.6,1.3-2,2-2.3c0.7-0.4-0.3-0.3,0.4,0
				c0.3,0.1,0.7,0.7,1,0.9c0.7,0.6,1.3,1.2,2,1.9c1.4,1.3,2.7,2.7,4.1,4.1c0.6,0.6,1.4,0.4,1.8-0.2c2.5-3.4,5-6.9,7.5-10.3
				c-0.5,0.1-1.1,0.3-1.6,0.4c3.7,2.4,7.4,4.7,11,7.1c1.4,0.9,2.6-1.3,1.3-2.1c-3.7-2.3-7.4-4.6-11.1-6.9c-0.6-0.4-1.2-0.1-1.6,0.4
				c-2.5,3.4-5,6.9-7.5,10.3c0.6-0.1,1.2-0.2,1.8-0.2c-1.8-1.8-3.5-3.5-5.3-5.3c-1-1-2.3-3-4-2.7c-1.6,0.2-3,2.7-4,3.9
				c-1.6,1.9-3.2,3.8-4.8,5.7C186.3-134.8,187.8-133.2,188.7-134.3L188.7-134.3z"/>
			<path class="st1" d="M265.5-157.9c0.9,1.5,1.8,3.1,2.7,4.7c0.4,0.8,0.9,1.6,1.3,2.4c0.4,0.7,0.9,2.2,1.5,2.7
				c0.6,0.5-0.4,0.2,0.4,0.1c0.3-0.1,0.9-0.5,1.2-0.7c0.8-0.5,1.5-0.9,2.3-1.4c1.6-1,3.2-2.1,4.8-3.1c0.7-0.4,1.4-0.1,1.7,0.6
				c1.7,3.9,3.5,7.7,5.2,11.6c-0.5-0.2-1-0.5-1.5-0.7c4.1-1.5,8.2-3.1,12.3-4.6c1.5-0.6,2.3,1.8,0.8,2.4c-4.1,1.5-8.2,3-12.3,4.5
				c-0.6,0.2-1.2-0.2-1.5-0.7c-1.7-3.9-3.5-7.8-5.2-11.6c0.6,0.2,1.1,0.4,1.7,0.6c-2.1,1.4-4.2,2.7-6.3,4.1
				c-1.2,0.8-2.9,2.4-4.5,1.9c-1.6-0.6-2.4-3.3-3.1-4.6c-1.2-2.2-2.4-4.3-3.5-6.6C263-157.9,264.7-159.1,265.5-157.9L265.5-157.9z"
				/>
			<path class="st1" d="M116.1-157.9c0.9,1.5,1.8,3.1,2.7,4.7c0.4,0.8,0.9,1.6,1.3,2.4c0.4,0.7,0.9,2.2,1.5,2.7
				c0.6,0.5-0.4,0.2,0.4,0.1c0.3-0.1,0.9-0.5,1.2-0.7c0.8-0.5,1.5-0.9,2.3-1.4c1.6-1,3.2-2.1,4.8-3.1c0.7-0.4,1.4-0.1,1.7,0.6
				c1.7,3.9,3.5,7.7,5.2,11.6c-0.5-0.2-1-0.5-1.5-0.7c4.1-1.5,8.2-3.1,12.3-4.6c1.5-0.6,2.3,1.8,0.8,2.4c-4.1,1.5-8.2,3-12.3,4.5
				c-0.6,0.2-1.2-0.2-1.5-0.7c-1.7-3.9-3.5-7.8-5.2-11.6c0.6,0.2,1.1,0.4,1.7,0.6c-2.1,1.4-4.2,2.7-6.3,4.1
				c-1.2,0.8-2.9,2.4-4.5,1.9c-1.6-0.6-2.4-3.3-3.1-4.6c-1.2-2.2-2.4-4.3-3.5-6.6C113.7-157.9,115.4-159.1,116.1-157.9L116.1-157.9z
				"/>
			<path class="st1" d="M253.9-216.1c-0.7-1.3-1.5-2.7-2.2-4c-0.4-0.7-0.8-1.3-1.2-2c-0.3-0.6-1.2-1.6-1.3-2.2
				c-0.1-0.7-0.3,0.2,0.1-0.3c0.2-0.2,0.7-0.4,1-0.5c0.7-0.4,1.4-0.7,2-1.1c1.4-0.8,2.9-1.5,4.4-2.2c0.6-0.3,0.7-1,0.3-1.5
				c-2.1-2.9-4.2-5.9-6.3-8.8c0,0.5-0.1,0.9-0.1,1.4c2.9-2.3,5.8-4.7,8.7-7c1.1-0.9-0.3-2.5-1.4-1.6c-2.9,2.4-5.7,4.7-8.6,7.1
				c-0.4,0.4-0.4,1-0.1,1.4c2.1,2.9,4.2,5.9,6.3,8.8c0.1-0.5,0.2-1,0.3-1.5c-1.9,0.9-3.8,1.9-5.7,2.8c-1.1,0.5-3,1.1-3.3,2.5
				c-0.3,1.4,1.4,3.2,2.1,4.3c1.1,1.8,2.2,3.6,3.3,5.4C252.9-214.2,254.5-215,253.9-216.1L253.9-216.1z"/>
			<path class="st1" d="M173.8-166.7c-0.8-0.5-0.8-1.6-0.4-2.4c0.5-0.9,1.6-1.2,2.4-0.6c0.9,0.6,0.9,1.9,0.3,2.7c0,0,0,0-0.1,0
				C175.4-166.3,174.5-166.2,173.8-166.7z"/>
			<path class="st1" d="M149.1-153.9c-0.8-0.5-0.8-1.6-0.4-2.4c0.5-0.9,1.6-1.2,2.4-0.6c0.9,0.6,0.9,1.9,0.3,2.7c0,0,0,0-0.1,0
				C150.7-153.6,149.8-153.4,149.1-153.9z"/>
			<path class="st1" d="M156.8-191.7c-0.8-0.5-0.8-1.6-0.4-2.4c0.5-0.9,1.6-1.2,2.4-0.6c0.9,0.6,0.9,1.9,0.3,2.7c0,0,0,0-0.1,0
				C158.4-191.4,157.5-191.3,156.8-191.7z"/>
			<path class="st1" d="M177.8-141.3c-0.8-0.5-0.8-1.6-0.4-2.4c0.5-0.9,1.6-1.2,2.4-0.6c0.9,0.6,0.9,1.9,0.3,2.7c0,0,0,0-0.1,0
				C179.4-140.9,178.5-140.8,177.8-141.3z"/>
			<path class="st1" d="M162.6-116.2c-0.8-0.5-0.8-1.6-0.4-2.4c0.5-0.9,1.6-1.2,2.4-0.6c0.9,0.6,0.9,1.9,0.3,2.7c0,0,0,0-0.1,0
				C164.1-115.8,163.2-115.7,162.6-116.2z"/>
			<path class="st1" d="M266.9-109.6c-0.8-0.5-0.8-1.6-0.4-2.4c0.5-0.9,1.6-1.2,2.4-0.6c0.9,0.6,0.9,1.9,0.3,2.7c0,0,0,0-0.1,0
				C268.5-109.2,267.6-109.1,266.9-109.6z"/>
			<path class="st1" d="M207.3-150.4c-0.8-0.5-0.8-1.6-0.4-2.4c0.5-0.9,1.6-1.2,2.4-0.6c0.9,0.6,0.9,1.9,0.3,2.7c0,0,0,0-0.1,0
				C208.9-150,208-149.9,207.3-150.4z"/>
			<path class="st1" d="M198.4-130.7c-0.8-0.5-0.8-1.6-0.4-2.4c0.5-0.9,1.6-1.2,2.4-0.6c0.9,0.6,0.9,1.9,0.3,2.7c0,0,0,0-0.1,0
				C200-130.3,199.1-130.2,198.4-130.7z"/>
			<path class="st1" d="M231.4-134.2c-0.8-0.5-0.8-1.6-0.4-2.4c0.5-0.9,1.6-1.2,2.4-0.6c0.9,0.6,0.9,1.9,0.3,2.7c0,0,0,0-0.1,0
				C233-133.9,232.1-133.8,231.4-134.2z"/>
			<path class="st1" d="M234.7-166.1c-0.8-0.5-0.8-1.6-0.4-2.4c0.5-0.9,1.6-1.2,2.4-0.6c0.9,0.6,0.9,1.9,0.3,2.7c0,0,0,0-0.1,0
				C236.3-165.8,235.4-165.6,234.7-166.1z"/>
			<path class="st1" d="M252.3-152.1c-0.8-0.5-0.8-1.6-0.4-2.4c0.5-0.9,1.6-1.2,2.4-0.6c0.9,0.6,0.9,1.9,0.3,2.7c0,0,0,0-0.1,0
				C253.9-151.8,253-151.6,252.3-152.1z"/>
			<path class="st1" d="M269.8-133.5c-0.8-0.5-0.8-1.6-0.4-2.4c0.5-0.9,1.6-1.2,2.4-0.6c0.9,0.7,0.9,1.9,0.3,2.7c0,0,0,0-0.1,0
				C271.4-133.1,270.5-133,269.8-133.5z"/>
			<path class="st1" d="M134.1-204.7c-0.8-0.5-0.8-1.6-0.4-2.4c0.5-0.9,1.6-1.2,2.4-0.6c0.9,0.6,0.9,1.9,0.3,2.7c0,0,0,0-0.1,0
				C135.7-204.3,134.8-204.2,134.1-204.7z"/>
			<path class="st1" d="M119.7-234.6c-0.8-0.5-0.8-1.6-0.4-2.4c0.5-0.9,1.6-1.2,2.4-0.6c0.9,0.6,0.9,1.9,0.3,2.7c0,0,0,0-0.1,0
				C121.3-234.2,120.4-234.1,119.7-234.6z"/>
			<path class="st1" d="M153.7-230c-0.8-0.5-0.8-1.6-0.4-2.4c0.5-0.9,1.6-1.2,2.4-0.6c0.9,0.6,0.9,1.9,0.3,2.7c0,0,0,0-0.1,0
				C155.3-229.7,154.4-229.5,153.7-230z"/>
			<path class="st1" d="M186.2-187.4c-0.8-0.5-0.8-1.6-0.4-2.4c0.5-0.9,1.6-1.2,2.4-0.6c0.9,0.6,0.9,1.9,0.3,2.7c0,0,0,0-0.1,0
				C187.8-187,186.9-186.9,186.2-187.4z"/>
			<path class="st1" d="M200.1-220.9c-0.8-0.5-0.8-1.6-0.4-2.4c0.5-0.9,1.6-1.2,2.4-0.6c0.9,0.6,0.9,1.9,0.3,2.7c0,0,0,0-0.1,0
				C201.7-220.5,200.8-220.4,200.1-220.9z"/>
			<path class="st1" d="M219.3-211.8c-0.8-0.5-0.8-1.6-0.4-2.4c0.5-0.9,1.6-1.2,2.4-0.6c0.9,0.6,0.9,1.9,0.3,2.7c0,0,0,0-0.1,0
				C220.9-211.4,220-211.3,219.3-211.8z"/>
			<path class="st1" d="M239.1-198.8c-0.8-0.5-0.8-1.6-0.4-2.4c0.5-0.9,1.6-1.2,2.4-0.6c0.9,0.6,0.9,1.9,0.3,2.7c0,0,0,0-0.1,0
				C240.7-198.5,239.8-198.3,239.1-198.8z"/>
			<path class="st1" d="M240.1-232.8c-0.8-0.5-0.8-1.6-0.4-2.4c0.5-0.9,1.6-1.2,2.4-0.6c0.9,0.6,0.9,1.9,0.3,2.7c0,0,0,0-0.1,0
				C241.7-232.5,240.8-232.3,240.1-232.8z"/>
			<path class="st1" d="M263.7-231c-0.8-0.5-0.8-1.6-0.4-2.4c0.5-0.9,1.6-1.2,2.4-0.6c0.9,0.6,0.9,1.9,0.3,2.7c0,0,0,0-0.1,0
				C265.3-230.7,264.4-230.5,263.7-231z"/>
			<path class="st1" d="M287.2-247.2c-0.8-0.5-0.8-1.6-0.4-2.4c0.5-0.9,1.6-1.2,2.4-0.6c0.9,0.6,0.9,1.9,0.3,2.7c0,0,0,0-0.1,0
				C288.8-246.9,287.9-246.7,287.2-247.2z"/>
			<path class="st1" d="M211.7-247.2c-0.8-0.5-0.8-1.6-0.4-2.4c0.5-0.9,1.6-1.2,2.4-0.6c0.9,0.6,0.9,1.9,0.3,2.7c0,0,0,0-0.1,0
				C213.2-246.9,212.3-246.7,211.7-247.2z"/>
			<path class="st1" d="M258.1-187.4c-0.8-0.5-0.8-1.6-0.4-2.4c0.5-0.9,1.6-1.2,2.4-0.6c0.9,0.6,0.9,1.9,0.3,2.7c0,0,0,0-0.1,0
				C259.7-187,258.8-186.9,258.1-187.4z"/>
			<path class="st1" d="M274.5-204c-0.8-0.5-0.8-1.6-0.4-2.4c0.5-0.9,1.6-1.2,2.4-0.6c0.9,0.6,0.9,1.9,0.3,2.7c0,0,0,0-0.1,0
				C276.1-203.6,275.2-203.5,274.5-204z"/>
			<path class="st1" d="M191.3-240.8c-0.8-0.5-0.8-1.6-0.4-2.4c0.5-0.9,1.6-1.2,2.4-0.6c0.9,0.6,0.9,1.9,0.3,2.7c0,0,0,0-0.1,0
				C192.9-240.4,192-240.3,191.3-240.8z"/>
			<path class="st1" d="M170.6-219.5c-0.8-0.5-0.8-1.6-0.4-2.4c0.5-0.9,1.6-1.2,2.4-0.6c0.9,0.6,0.9,1.9,0.3,2.7c0,0,0,0-0.1,0
				C172.2-219.2,171.3-219,170.6-219.5z"/>
			<path class="st1" d="M265.5-177.1c0.9-1.7,1.7-3.5,2.4-5.4c0.7-1.8,1.7-3.6,1.9-5.5c0.1-1.2-1.5-1.8-2.2-0.8
				c-1.1,1.5-1.6,3.3-2.2,5c-0.7,1.8-1.5,3.7-1.9,5.6C263.2-177,264.8-175.8,265.5-177.1L265.5-177.1z"/>
			<path class="st1" d="M189.8-204.4c0.6-1.5,1.4-2.8,2.2-4.2c0.8-1.4,1.5-2.9,2.6-4c0.7-0.7,1.9,0.1,1.6,1c-0.4,1.4-1.3,2.7-2.1,4
				c-0.8,1.4-1.6,2.8-2.6,4.1C191-202.8,189.4-203.3,189.8-204.4L189.8-204.4z"/>
			<path class="st1" d="M237.3-146.2c-0.7-1.4-1.1-3-1.6-4.5c-0.5-1.5-1.1-3-1.2-4.6c0-1,1.3-1.4,1.8-0.5c0.8,1.3,1.1,2.8,1.5,4.2
				c0.5,1.5,1,3.1,1.2,4.6C239.2-146,237.8-145.2,237.3-146.2L237.3-146.2z"/>
			<path class="st1" d="M112.6-193.7c-0.7-1.4-1.1-3-1.6-4.5c-0.5-1.5-1.1-3-1.2-4.6c0-1,1.3-1.4,1.8-0.5c0.8,1.3,1.1,2.8,1.5,4.2
				c0.5,1.5,1,3.1,1.2,4.6C114.5-193.5,113.1-192.6,112.6-193.7L112.6-193.7z"/>
			<path class="st1" d="M165.1-202.5c0.6-1.5,1.4-2.8,2.2-4.2c0.8-1.4,1.5-2.9,2.6-4c0.7-0.7,1.9,0.1,1.6,1c-0.4,1.4-1.3,2.7-2.1,4
				c-0.8,1.4-1.6,2.8-2.6,4.1C166.3-200.9,164.7-201.4,165.1-202.5L165.1-202.5z"/>
			<path class="st1" d="M174.6-147.3c1.7-2.9,3-6.1,2.4-9.5c-0.5-2.9-2.6-5.4-5.4-6.6c-2.6-1.1-5.6-0.9-8,0.6
				c-2.2,1.4-4.7,4.3-4.1,7.1c0.3,1.2,1.8,1.3,2.4,0.3c1.1-1.7,1.3-3.5,3.2-4.7c1.8-1.1,3.9-1.1,5.8-0.1c4.6,2.6,2.9,8,1.4,12
				C171.9-146.9,173.9-146.1,174.6-147.3L174.6-147.3z"/>
			<path class="st1" d="M199.9-110.1c-2.7-0.4-5.3-1.1-7.2-3.2c-1.6-1.8-2.1-4.3-1.5-6.6c0.6-2.2,2.2-4,4.3-4.8
				c2-0.7,5.1-0.9,6.5,0.9c0.6,0.7-0.1,1.8-1,1.7c-1.6-0.2-2.9-0.9-4.6-0.3c-1.6,0.6-2.7,1.9-2.9,3.6c-0.6,4.2,3.6,5.8,6.9,6.8
				C201.5-111.7,200.9-110,199.9-110.1L199.9-110.1z"/>
			<path class="st1" d="M151.6-239.2c1.8-2.4,3.3-5.2,3.1-8.3c-0.2-2.7-1.8-5.1-4.1-6.4c-2.2-1.3-4.9-1.4-7.2-0.3
				c-2.1,1-4.6,3.4-4.3,5.9c0.1,1.1,1.5,1.3,2.1,0.5c1.2-1.5,1.5-3,3.4-3.9c1.7-0.8,3.6-0.6,5.2,0.5c3.8,2.8,1.8,7.4,0,10.8
				C149.1-239.1,150.9-238.2,151.6-239.2L151.6-239.2z"/>
			<path class="st1" d="M263.8-212.7c-2.7-0.2-5.4,0-7.6,1.7c-1.9,1.4-2.9,3.8-2.8,6.2c0.1,2.3,1.3,4.3,3.3,5.5
				c1.8,1.1,4.8,1.8,6.5,0.4c0.7-0.6,0.2-1.8-0.6-1.8c-1.6-0.2-3,0.3-4.5-0.6c-1.4-0.9-2.2-2.4-2.1-4.1c0.2-4.2,4.7-5,8-5.2
				C265.1-210.9,264.9-212.7,263.8-212.7L263.8-212.7z"/>
			<path class="st1" d="M160.7-212.8c-2.1-1.1-4.5-2-6.9-1.5c-2.1,0.5-3.8,2-4.6,4c-0.7,1.9-0.5,4,0.6,5.8c1,1.6,3.2,3.3,5.2,2.8
				c0.8-0.2,0.9-1.4,0.2-1.8c-1.3-0.8-2.6-0.9-3.5-2.2c-0.9-1.3-0.9-2.8-0.2-4.2c1.8-3.4,5.7-2.3,8.6-1.3
				C161-210.8,161.5-212.3,160.7-212.8L160.7-212.8z"/>
			<path class="st1" d="M232.6-184.2c1.6,2.1,3.5,4,6.2,4.6c2.3,0.5,4.7-0.3,6.4-1.9c1.6-1.6,2.4-3.8,2-6c-0.3-2-1.7-4.8-3.9-5.1
				c-0.9-0.2-1.5,1-1,1.7c0.9,1.3,2.1,2,2.4,3.8c0.3,1.7-0.4,3.2-1.7,4.3c-3.3,2.6-6.7-0.3-9.1-2.6
				C233.2-186.4,231.9-185.1,232.6-184.2L232.6-184.2z"/>
			<path class="st1" d="M288.2-163.6c-0.8-2.5-2-5-4.3-6.5c-2-1.3-4.5-1.3-6.7-0.4c-2,0.9-3.5,2.8-3.9,5c-0.4,2,0,5.1,2,6.2
				c0.8,0.5,1.7-0.4,1.5-1.2c-0.4-1.6-1.3-2.6-1-4.4c0.3-1.7,1.5-2.9,3-3.4c4-1.3,6.3,2.6,7.7,5.6
				C286.9-161.8,288.5-162.6,288.2-163.6L288.2-163.6z"/>
			<path class="st1" d="M169.1-191.6c-3.1,3.6-3.6,8.8-0.4,12.5c1.4,1.6,3.4,2.6,5.5,2.7c2.3,0.1,4.5-0.8,6.7-1.3
				c2.2-0.5,4.2-0.2,4.9,2.2c0.6,1.8,0.6,3.8,0.9,5.7c0.3,1.7,1,3.4,2.4,4.5c1.7,1.4,3.9,1.5,6,1.4c1.3,0,2.7-0.2,3.8,0.3
				c1.3,0.6,1.9,1.9,2.3,3.2c0.4,1.6,0.5,3.3,0.4,4.9c-0.1,1.7-0.8,3.2-1.1,4.8c-0.3,1.5,1.5,2.2,2.4,1c1.4-1.9,1.7-5,1.7-7.3
				c0-2.3-0.4-4.9-1.6-6.9c-1.1-1.9-2.9-2.8-5.1-3c-2.1-0.2-5,0.7-6.8-0.6c-1.4-1-1.6-3.2-1.8-4.8c-0.2-1.8-0.4-3.6-1.2-5.3
				c-2.1-4.3-6.7-3.3-10.5-2.3c-2.8,0.8-5.4,0.8-7.3-1.8c-1.9-2.7-1.2-6.1,0.4-8.8C171.4-191.3,169.9-192.5,169.1-191.6L169.1-191.6
				z"/>
			<path class="st1" d="M107.7-166.3c2.9,1.8,6.7,1.6,8.9-1.2c1-1.2,1.5-2.7,1.3-4.2c-0.2-1.6-1.1-3.1-1.7-4.6
				c-0.6-1.5-0.6-2.9,1-3.7c1.2-0.6,2.7-0.8,4-1.3c1.2-0.4,2.3-1.1,2.9-2.2c0.8-1.4,0.6-2.9,0.3-4.4c-0.2-0.9-0.5-1.9-0.2-2.8
				c0.2-1,1.1-1.6,2-2c1.1-0.5,2.3-0.8,3.4-0.8c1.2-0.1,2.3,0.2,3.5,0.2c1.1,0,1.4-1.3,0.4-1.8c-1.5-0.8-3.7-0.6-5.4-0.4
				c-1.6,0.3-3.4,0.9-4.7,1.9c-1.2,1-1.6,2.4-1.5,3.9c0.1,1.5,1.1,3.4,0.3,4.9c-0.6,1.1-2.1,1.5-3.2,1.8c-1.2,0.4-2.5,0.7-3.6,1.5
				c-2.8,2-1.6,5.1-0.4,7.7c0.9,1.9,1.2,3.8-0.4,5.4c-1.7,1.7-4.2,1.5-6.3,0.7C107.6-168,106.9-166.8,107.7-166.3L107.7-166.3z"/>
			<path class="st1" d="M259.9-147.2c3,3.2,3.3,7.9,0,10.9c-1.4,1.3-3.4,2.2-5.5,2.2c-2.3,0-4.4-0.8-6.6-1.3
				c-2.2-0.5-4.1-0.3-4.9,1.7c-0.7,1.6-0.7,3.3-1.1,5c-0.4,1.5-1.1,2.9-2.5,3.8c-1.7,1.2-3.9,1.2-5.9,1c-1.2-0.1-2.6-0.3-3.8,0.1
				c-1.3,0.4-1.9,1.6-2.3,2.8c-0.5,1.4-0.6,2.8-0.5,4.3c0.1,1.5,0.7,2.8,1,4.2c0.2,1.3-1.6,1.9-2.4,0.8c-1.3-1.7-1.5-4.4-1.5-6.4
				c0.1-2,0.6-4.3,1.8-6c1.2-1.6,3-2.3,5.1-2.5c2.1-0.1,4.9,0.8,6.8-0.3c1.4-0.8,1.6-2.7,1.9-4.1c0.3-1.6,0.5-3.2,1.3-4.6
				c2.2-3.7,6.7-2.7,10.5-1.6c2.7,0.8,5.3,0.8,7.2-1.3c2-2.3,1.4-5.3-0.1-7.7C257.6-147.1,259.1-148.1,259.9-147.2L259.9-147.2z"/>
			<path class="st1" d="M177.4-118.4c1.8-3.9,2.7-8.1,3.2-12.4c0.1-0.8-0.4-1.8-1.4-1.8c-4.2,0.4-8.6,1-12.7,2.4
				c-1.6,0.6-0.9,2.9,0.8,2.5c4-0.9,7.9-1.7,12-2.1c-0.5-0.6-1-1.2-1.4-1.8c-0.5,4.2-1.6,8.2-2.5,12.2
				C175-118,176.9-117.2,177.4-118.4L177.4-118.4z"/>
			<path class="st1" d="M154.6-173.6c0.6-3.8,0.3-7.6-0.3-11.3c-0.1-0.8-0.8-1.5-1.7-1.2c-3.5,1.4-7.1,3-10.2,5.1
				c-1.2,0.9,0,2.6,1.3,2c3.2-1.7,6.3-3.4,9.7-4.7c-0.5-0.4-1.1-0.8-1.6-1.2c0.6,3.7,0.6,7.4,0.8,11.1
				C152.6-172.6,154.4-172.4,154.6-173.6L154.6-173.6z"/>
			<path class="st1" d="M245.5-171.1c2.7,2.6,6,4.4,9.4,6c0.7,0.3,1.6,0.1,1.8-0.7c0.8-3.6,1.5-7.4,1.4-11.1c0-1.5-2.1-1.5-2.3,0
				c-0.4,3.5-0.7,7-1.5,10.5c0.6-0.2,1.2-0.5,1.8-0.7c-3.3-1.5-6.3-3.5-9.4-5.4C245.7-173.1,244.6-171.8,245.5-171.1L245.5-171.1z"
				/>
			<path class="st1" d="M224.1-246c0,3.7,1,7.4,2.2,10.9c0.2,0.7,1,1.3,1.8,0.8c3.2-1.9,6.4-4.1,9-6.7c1-1-0.4-2.6-1.5-1.7
				c-2.8,2.2-5.5,4.3-8.6,6.2c0.6,0.3,1.2,0.6,1.8,0.8c-1.2-3.5-1.8-7-2.7-10.5C225.8-247.2,224.1-247.1,224.1-246L224.1-246z"/>
			<path class="st1" d="M286.8-175.3c0.8-2.5,1-5.1,1-7.7c0-0.5-0.4-1.1-1-1c-2.5,0.6-5.2,1.3-7.5,2.4c-0.9,0.5-0.3,1.8,0.7,1.5
				c2.4-0.8,4.6-1.6,7.1-2.2c-0.3-0.3-0.7-0.6-1-1c0,2.6-0.4,5.1-0.6,7.6C285.4-174.9,286.5-174.6,286.8-175.3L286.8-175.3z"/>
			<path class="st1" d="M245.1-208.2c-2.5-2.8-5.6-5-8.8-6.9c-0.6-0.4-1.6-0.3-1.9,0.5c-1.2,3.5-2.2,7.3-2.5,11
				c-0.1,1.5,2,1.7,2.3,0.3c0.7-3.5,1.4-6.9,2.5-10.3c-0.6,0.2-1.3,0.4-1.9,0.5c3.2,1.8,6,4.1,8.9,6.3
				C244.6-206.1,245.9-207.3,245.1-208.2L245.1-208.2z"/>
			<path class="st1" d="M196.4-182.7c4.9-0.6,7.8-5.1,12.3-6.5c-0.6-0.6-1.1-1.1-1.7-1.7c-0.6,4.1-1.1,8.1-1.7,12.2
				c-0.2,1.1,1.5,1.7,2.2,0.9c2.3-2.5,4.8-4.7,7.6-6.6c-0.6-0.2-1.2-0.3-1.8-0.5c1.4,3.1,2.2,6.4,2.5,9.8c0,0.5,0.4,1.2,1,1.3
				c1.3,0.2,2.2-0.3,3-1.4c1.1-1.5,1.9-3.3,2.8-4.9c-0.7,0.1-1.4,0.2-2.1,0.3c1.7,2.1,3.4,4.2,5.1,6.2c1.1,1.3,2.9-0.6,1.9-1.9
				c-1.7-2.1-3.4-4.2-5.1-6.2c-0.5-0.7-1.7-0.4-2.1,0.3c-0.3,0.6-2.6,5.1-2.8,5.1c0.3,0.4,0.6,0.8,1,1.3c-0.3-3.9-1.3-7.6-2.9-11.1
				c-0.3-0.6-1.2-0.8-1.8-0.5c-3,2-5.7,4.4-8.1,7c0.7,0.4,1.5,0.9,2.2,1.3c0.6-3.9,1.1-7.9,1.7-11.8c0.1-0.9-0.6-2-1.7-1.7
				c-4.5,1.4-7.4,5.6-11.9,7C195-184.5,195.1-182.5,196.4-182.7L196.4-182.7z"/>
			<path class="st1" d="M291.9-119.5c-4.1,0.5-6.4,4.2-10.2,5.4c0.5,0.5,0.9,0.9,1.4,1.4c0.5-3.3,0.9-6.7,1.4-10
				c0.1-0.9-1.3-1.4-1.8-0.8c-1.9,2.1-3.9,3.9-6.2,5.5c0.5,0.1,1,0.3,1.5,0.4c-1.1-2.6-1.8-5.3-2.1-8.1c0-0.4-0.3-1-0.8-1
				c-1.1-0.2-1.8,0.2-2.5,1.1c-0.9,1.3-1.6,2.7-2.3,4c0.6-0.1,1.1-0.1,1.7-0.2c-1.4-1.7-2.8-3.5-4.2-5.1c-0.9-1.1-2.4,0.5-1.5,1.5
				c1.4,1.8,2.8,3.4,4.2,5.1c0.4,0.5,1.4,0.3,1.7-0.2c0.3-0.5,2.1-4.2,2.3-4.2c-0.3-0.3-0.5-0.7-0.8-1c0.3,3.2,1.1,6.2,2.4,9.1
				c0.2,0.5,1,0.7,1.5,0.4c2.4-1.7,4.7-3.6,6.7-5.8c-0.6-0.4-1.2-0.7-1.8-1.1c-0.5,3.2-0.9,6.5-1.4,9.7c-0.1,0.8,0.5,1.7,1.4,1.4
				c3.7-1.2,6.1-4.6,9.8-5.8C293.1-118,292.9-119.6,291.9-119.5L291.9-119.5z"/>
			<path class="st1" d="M138.1-122.8c-4.1,0.5-6.4,4.2-10.2,5.4c0.5,0.5,0.9,0.9,1.4,1.4c0.5-3.3,0.9-6.7,1.4-10
				c0.1-0.9-1.3-1.4-1.8-0.8c-1.9,2.1-3.9,3.9-6.2,5.5c0.5,0.1,1,0.3,1.5,0.4c-1.1-2.6-1.8-5.3-2.1-8.1c0-0.4-0.3-1-0.8-1
				c-1.1-0.2-1.8,0.2-2.5,1.1c-0.9,1.3-1.6,2.7-2.3,4c0.6-0.1,1.1-0.1,1.7-0.2c-1.4-1.7-2.8-3.5-4.2-5.1c-0.9-1.1-2.4,0.5-1.5,1.5
				c1.4,1.8,2.8,3.4,4.2,5.1c0.5,0.5,1.4,0.3,1.7-0.2c0.3-0.5,2.1-4.2,2.3-4.2c-0.3-0.3-0.5-0.7-0.8-1c0.3,3.2,1.1,6.2,2.4,9.1
				c0.2,0.5,1,0.7,1.5,0.4c2.4-1.7,4.7-3.6,6.7-5.8c-0.6-0.4-1.2-0.7-1.8-1.1c-0.5,3.2-0.9,6.5-1.4,9.7c-0.1,0.8,0.5,1.7,1.4,1.4
				c3.7-1.2,6.1-4.6,9.8-5.8C139.3-121.3,139.2-122.9,138.1-122.8L138.1-122.8z"/>
			<path class="st1" d="M166.1-254.2c2,5.2-0.6,10.1,0.4,15.3c-0.8-0.3-1.6-0.6-2.3-0.9c3.3-2.4,6.7-4.8,10-7.2
				c0.9-0.7,2.3,0.8,2,1.8c-1.1,3.4-1.8,6.9-2.1,10.6c-0.4-0.5-0.9-1-1.3-1.6c3.5,0,6.8-0.7,10-1.9c0.5-0.2,1.2-0.2,1.6,0.4
				c0.8,1.2,0.9,2.3,0.3,3.6c-0.8,1.8-2,3.4-2.9,5.1c-0.3-0.7-0.5-1.5-0.8-2.2c2.7,0.8,5.5,1.5,8.2,2.3c1.7,0.6,1,3.1-0.7,2.7
				c-2.7-0.7-5.5-1.6-8.2-2.3c-0.9-0.3-1.2-1.5-0.8-2.2c0.4-0.6,3.2-4.9,3.1-5.1c0.5,0.1,1.1,0.3,1.6,0.4c-3.6,1.4-7.4,2.1-11.4,2.1
				c-0.7,0-1.4-0.9-1.3-1.6c0.3-3.9,1-7.7,2.1-11.3c0.8,0.5,1.5,1.1,2.3,1.6c-3.2,2.4-6.5,4.7-9.7,7c-0.8,0.6-2.1,0.3-2.3-0.9
				c-1-5.2,1.3-10,0.2-15.1C163.7-254.8,165.6-255.6,166.1-254.2L166.1-254.2z"/>
			<path class="st1" d="M174.6-199.7c0.2-2.3,0.6-4.6,0.9-6.9c0.2-2.2,0.2-4.5,0.8-6.6c0.4-1.3,2.3-1,2.5,0.2c0.4,2.3,0,4.7-0.2,7
				c-0.3,2.3-0.6,4.7-1.4,6.9C176.7-197.6,174.5-198.2,174.6-199.7L174.6-199.7z"/>
			<path class="st1" d="M240.3-146.7c0.2-2.3,0.6-4.6,0.9-6.9c0.2-2.2,0.2-4.5,0.8-6.6c0.4-1.3,2.3-1,2.5,0.2c0.4,2.3,0,4.7-0.2,7
				c-0.3,2.3-0.6,4.7-1.4,6.9C242.4-144.7,240.2-145.2,240.3-146.7L240.3-146.7z"/>
			<path class="st1" d="M207.6-118.4c1.3-1.9,2.8-3.7,4.2-5.6c1.3-1.8,2.4-3.8,4-5.3c1-0.9,2.5,0.3,2.1,1.4
				c-0.7,2.2-2.3,4.1-3.7,5.9c-1.4,1.9-2.9,3.8-4.6,5.3C208.5-115.6,206.8-117.1,207.6-118.4L207.6-118.4z"/>
			<path class="st1" d="M236.4-219.6c-1.6,0.1-3.2-0.1-4.8-0.2c-1.6-0.1-3.2-0.1-4.7-0.6c-0.9-0.3-0.8-1.8,0.2-1.9
				c1.5-0.2,3,0.1,4.5,0.2c1.6,0.2,3.2,0.3,4.8,0.6C237.3-221.3,237.6-219.6,236.4-219.6L236.4-219.6z"/>
			<path class="st1" d="M237.1-222.5c-2.1-1-4-2.3-6.1-3.4c-1.9-1.1-4-1.9-5.8-3.3c-1.1-0.8,0-2.5,1.2-2.2c2.3,0.5,4.4,1.8,6.4,2.9
				c2,1.1,4.1,2.4,5.8,3.9C239.8-223.7,238.5-221.9,237.1-222.5L237.1-222.5z"/>
			<path class="st1" d="M285.8-237.9c-2.1-1-4-2.3-6.1-3.4c-1.9-1.1-4-1.9-5.8-3.3c-1.1-0.8,0-2.5,1.2-2.2c2.3,0.5,4.4,1.8,6.4,2.9
				c2,1.1,4.1,2.4,5.8,3.9C288.5-239,287.1-237.2,285.8-237.9L285.8-237.9z"/>
			<path class="st1" d="M294.1-190.5c-2.1-1-4-2.3-6.1-3.4c-1.9-1.1-4-1.9-5.8-3.3c-1.1-0.8,0-2.5,1.2-2.2c2.3,0.5,4.4,1.8,6.4,2.9
				c2,1.1,4.1,2.4,5.8,3.9C296.8-191.7,295.5-189.8,294.1-190.5L294.1-190.5z"/>
			<path class="st1" d="M135-237.9c-2.1-1-4-2.3-6.1-3.4c-1.9-1.1-4-1.9-5.8-3.3c-1.1-0.8,0-2.5,1.2-2.2c2.3,0.5,4.4,1.8,6.4,2.9
				c2,1.1,4.1,2.4,5.8,3.9C137.6-239,136.3-237.2,135-237.9L135-237.9z"/>
			<path class="st1" d="M228.7-158.6c-1.1,4.3-5.7,6.4-9.9,5.8c-4.7-0.6-8.2-4.8-6.8-9.6c1.5-4.9,7-7.5,11.8-5.8
				c0.1,0,0.2,0.1,0.3,0.1C227.6-166.3,229.7-162.5,228.7-158.6z M222.7-165.5c-3.3-1.2-7.3,0.8-8.1,4.3c-0.8,3.4,2.4,5.7,5.5,5.7
				c2.7,0,5.3-1.3,5.9-4.1C226.5-162.2,225-164.5,222.7-165.5z"/>
			<path class="st1" d="M252.1-110c-1.5,3.5-5.5,4.8-9,3.8c-3.9-1.1-6.4-5-4.7-8.9c1.8-4,6.8-5.6,10.6-3.6c0.1,0,0.2,0.1,0.2,0.2
				C252-116.7,253.4-113.2,252.1-110z M247.7-116.6c-2.6-1.4-6.3-0.2-7.3,2.7c-1,2.8,1.4,5.1,4,5.5c2.2,0.3,4.7-0.5,5.5-2.8
				C250.6-113.3,249.6-115.5,247.7-116.6z"/>
			<path class="st1" d="M217.8-201.5c-1,3.9-5.1,5.7-8.8,5.2c-4.2-0.6-7.4-4.3-6.1-8.6c1.3-4.4,6.3-6.7,10.5-5.2
				c0.1,0,0.2,0.1,0.3,0.1C216.9-208.4,218.7-205,217.8-201.5z M212.5-207.7c-2.9-1.1-6.5,0.7-7.2,3.8c-0.7,3.1,2.1,5.1,4.9,5.1
				c2.4,0,4.8-1.1,5.3-3.6C215.9-204.7,214.5-206.8,212.5-207.7z"/>
			<path class="st1" d="M143.7-172.6c3.1,2.5,3.1,6.8,1.1,10c-2.2,3.5-6.8,4.9-10.2,2c-3.4-2.9-3.5-8.3-0.4-11.5
				c0.1-0.1,0.1-0.1,0.2-0.2C137.1-174.5,140.9-174.8,143.7-172.6z M135.9-170.3c-2.1,2.2-2,6.1,0.5,8c2.5,1.8,5.4,0.1,6.5-2.3
				c1-2.1,0.9-4.7-1.1-6.2C140-172.2,137.6-171.8,135.9-170.3z"/>
			<path class="st1" d="M205.8-240.5c-3.1,0.6-5.2,3.5-4.6,6.7c0.7,3.2,3.6,4.8,6.6,4.7c1.5,0,3.4-0.6,4.9,0.1
				c1.7,0.9,2.1,3.4,1.9,5.1c-0.6,4.5-4.5,6.2-8.6,6.2c-1.2,0-1.4,1.6-0.3,2.1c7.3,2.8,13.7-5.9,11-12.5c-1.5-3.6-4.6-3.8-8-3.6
				c-1.9,0.1-3.7,0-4.7-1.9c-1.1-2.1,0.3-4.4,2.4-5C207.5-238.9,207-240.7,205.8-240.5L205.8-240.5z"/>
			<path class="st1" d="M142.8-113.8c2.8,1.8,6.6,1.2,8.5-1.7c1.9-2.9,0.9-6.3-1.6-8.5c-1.2-1.1-3.1-2.1-3.6-3.7
				c-0.7-2,0.9-4.2,2.4-5.4c3.8-3,8.1-1.4,11.2,1.7c0.9,0.9,2.3-0.2,1.8-1.3c-3.5-7.6-14.9-5.7-17.7,1.4c-1.5,3.9,0.7,6.4,3.5,8.7
				c1.5,1.3,2.8,2.8,2.2,4.9c-0.7,2.4-3.5,3.2-5.6,2.1C142.7-116.3,141.7-114.5,142.8-113.8L142.8-113.8z"/>
			<path class="st1" d="M120.7-217.9c0.5,3.1,3.4,5.3,6.6,4.7c3.2-0.6,4.9-3.4,4.9-6.5c0-1.5-0.5-3.4,0.2-4.9
				c0.9-1.7,3.5-2.1,5.2-1.8c4.5,0.7,6.1,4.7,6,8.8c0,1.2,1.6,1.4,2,0.4c3-7.2-5.6-13.8-12.2-11.2c-3.6,1.4-3.9,4.5-3.7,8
				c0.1,1.9-0.1,3.7-2,4.6c-2.1,1-4.4-0.4-5-2.5C122.3-219.6,120.5-219.1,120.7-217.9L120.7-217.9z"/>
			<path class="st1" d="M267.9-217.9c0.5,3.1,3.4,5.3,6.6,4.7c3.2-0.6,4.9-3.4,4.9-6.5c0-1.5-0.5-3.4,0.2-4.9
				c0.9-1.7,3.5-2.1,5.2-1.8c4.5,0.7,6.1,4.7,6,8.8c0,1.2,1.6,1.4,2,0.4c3-7.2-5.6-13.8-12.2-11.2c-3.6,1.4-3.9,4.5-3.7,8
				c0.1,1.9-0.1,3.7-2,4.6c-2.1,1-4.4-0.4-5-2.5C269.5-219.6,267.7-219.1,267.9-217.9L267.9-217.9z"/>
		</g>
		<g>
			<path class="st1" d="M1.8-208.8c1.2-1.3,2.4-2.6,3.6-4c0.6-0.7,1.2-1.4,1.8-2c0.5-0.6,1.3-2,2-2.3c0.7-0.4-0.3-0.3,0.4,0
				c0.3,0.1,0.7,0.7,1,0.9c0.7,0.6,1.3,1.2,2,1.9c1.4,1.3,2.7,2.7,4.1,4.1c0.6,0.6,1.4,0.4,1.8-0.2c2.5-3.4,5-6.9,7.5-10.3
				c-0.5,0.1-1.1,0.3-1.6,0.4c3.7,2.4,7.4,4.7,11,7.1c1.4,0.9,2.6-1.3,1.3-2.1c-3.7-2.3-7.4-4.6-11.1-6.9c-0.6-0.4-1.2-0.1-1.6,0.4
				c-2.5,3.4-5,6.9-7.5,10.3c0.6-0.1,1.2-0.2,1.8-0.2c-1.8-1.8-3.5-3.5-5.3-5.3c-1-1-2.3-3-4-2.7c-1.6,0.2-3,2.7-4,3.9
				c-1.6,1.9-3.2,3.8-4.8,5.7C-0.6-209.3,0.8-207.8,1.8-208.8L1.8-208.8z"/>
			<path class="st1" d="M78.5-232.4c0.9,1.5,1.8,3.1,2.7,4.7c0.4,0.8,0.9,1.6,1.3,2.4c0.4,0.7,0.9,2.2,1.5,2.7
				c0.6,0.5-0.4,0.2,0.4,0.1c0.3-0.1,0.9-0.5,1.2-0.7c0.8-0.5,1.5-0.9,2.3-1.4c1.6-1,3.2-2.1,4.8-3.1c0.7-0.4,1.4-0.1,1.7,0.6
				c1.7,3.9,3.5,7.7,5.2,11.6c-0.5-0.2-1-0.5-1.5-0.7c4.1-1.5,8.2-3.1,12.3-4.6c1.5-0.6,2.3,1.8,0.8,2.4c-4.1,1.5-8.2,3-12.3,4.5
				c-0.6,0.2-1.2-0.2-1.5-0.7c-1.7-3.9-3.5-7.8-5.2-11.6c0.6,0.2,1.1,0.4,1.7,0.6c-2.1,1.4-4.2,2.7-6.3,4.1
				c-1.2,0.8-2.9,2.4-4.5,1.9c-1.6-0.6-2.4-3.3-3.1-4.6c-1.2-2.2-2.4-4.3-3.5-6.6C76.1-232.5,77.8-233.6,78.5-232.4L78.5-232.4z"/>
			<path class="st1" d="M67-290.6c-0.7-1.3-1.5-2.7-2.2-4c-0.4-0.7-0.8-1.3-1.2-2c-0.3-0.6-1.2-1.6-1.3-2.2
				c-0.1-0.7-0.3,0.2,0.1-0.3c0.2-0.2,0.7-0.4,1-0.5c0.7-0.4,1.4-0.7,2-1.1c1.4-0.8,2.9-1.5,4.4-2.2c0.6-0.3,0.7-1,0.3-1.5
				c-2.1-2.9-4.2-5.9-6.3-8.8c0,0.5-0.1,0.9-0.1,1.4c2.9-2.3,5.8-4.7,8.7-7c1.1-0.9-0.3-2.5-1.4-1.6c-2.9,2.4-5.7,4.7-8.6,7.1
				c-0.4,0.4-0.4,1-0.1,1.4c2.1,2.9,4.2,5.9,6.3,8.8c0.1-0.5,0.2-1,0.3-1.5c-1.9,0.9-3.8,1.9-5.7,2.8c-1.1,0.5-3,1.1-3.3,2.5
				c-0.3,1.4,1.4,3.2,2.1,4.3c1.1,1.8,2.2,3.6,3.3,5.4C66-288.7,67.6-289.5,67-290.6L67-290.6z"/>
			<path class="st1" d="M80-184.1c-0.8-0.5-0.8-1.6-0.4-2.4c0.5-0.9,1.6-1.2,2.4-0.6c0.9,0.6,0.9,1.9,0.3,2.7c0,0,0,0-0.1,0
				C81.6-183.7,80.7-183.6,80-184.1z"/>
			<path class="st1" d="M20.4-224.9c-0.8-0.5-0.8-1.6-0.4-2.4c0.5-0.9,1.6-1.2,2.4-0.6c0.9,0.6,0.9,1.9,0.3,2.7c0,0,0,0-0.1,0
				C22-224.6,21.1-224.4,20.4-224.9z"/>
			<path class="st1" d="M44.5-208.8c-0.8-0.5-0.8-1.6-0.4-2.4c0.5-0.9,1.6-1.2,2.4-0.6c0.9,0.6,0.9,1.9,0.3,2.7c0,0,0,0-0.1,0
				C46.1-208.4,45.2-208.3,44.5-208.8z"/>
			<path class="st1" d="M47.8-240.6c-0.8-0.5-0.8-1.6-0.4-2.4c0.5-0.9,1.6-1.2,2.4-0.6c0.9,0.6,0.9,1.9,0.3,2.7c0,0,0,0-0.1,0
				C49.4-240.3,48.5-240.1,47.8-240.6z"/>
			<path class="st1" d="M65.4-226.6c-0.8-0.5-0.8-1.6-0.4-2.4c0.5-0.9,1.6-1.2,2.4-0.6c0.9,0.6,0.9,1.9,0.3,2.7c0,0,0,0-0.1,0
				C67-226.3,66.1-226.1,65.4-226.6z"/>
			<path class="st1" d="M82.9-208c-0.8-0.5-0.8-1.6-0.4-2.4c0.5-0.9,1.6-1.2,2.4-0.6c0.9,0.7,0.9,1.9,0.3,2.7c0,0,0,0-0.1,0
				C84.5-207.6,83.6-207.5,82.9-208z"/>
			<path class="st1" d="M32.4-286.3c-0.8-0.5-0.8-1.6-0.4-2.4c0.5-0.9,1.6-1.2,2.4-0.6c0.9,0.6,0.9,1.9,0.3,2.7c0,0,0,0-0.1,0
				C34-285.9,33.1-285.8,32.4-286.3z"/>
			<path class="st1" d="M52.2-273.3c-0.8-0.5-0.8-1.6-0.4-2.4c0.5-0.9,1.6-1.2,2.4-0.6c0.9,0.6,0.9,1.9,0.3,2.7c0,0,0,0-0.1,0
				C53.8-273,52.9-272.8,52.2-273.3z"/>
			<path class="st1" d="M53.2-307.3c-0.8-0.5-0.8-1.6-0.4-2.4c0.5-0.9,1.6-1.2,2.4-0.6c0.9,0.6,0.9,1.9,0.3,2.7c0,0,0,0-0.1,0
				C54.8-307,53.9-306.8,53.2-307.3z"/>
			<path class="st1" d="M76.8-305.5c-0.8-0.5-0.8-1.6-0.4-2.4c0.5-0.9,1.6-1.2,2.4-0.6c0.9,0.6,0.9,1.9,0.3,2.7c0,0,0,0-0.1,0
				C78.4-305.2,77.5-305,76.8-305.5z"/>
			<path class="st1" d="M100.3-321.7c-0.8-0.5-0.8-1.6-0.4-2.4c0.5-0.9,1.6-1.2,2.4-0.6c0.9,0.6,0.9,1.9,0.3,2.7c0,0,0,0-0.1,0
				C101.9-321.4,101-321.2,100.3-321.7z"/>
			<path class="st1" d="M24.7-321.7c-0.8-0.5-0.8-1.6-0.4-2.4c0.5-0.9,1.6-1.2,2.4-0.6c0.9,0.6,0.9,1.9,0.3,2.7c0,0,0,0-0.1,0
				C26.3-321.4,25.4-321.2,24.7-321.7z"/>
			<path class="st1" d="M71.2-261.9c-0.8-0.5-0.8-1.6-0.4-2.4c0.5-0.9,1.6-1.2,2.4-0.6c0.9,0.6,0.9,1.9,0.3,2.7c0,0,0,0-0.1,0
				C72.7-261.5,71.8-261.4,71.2-261.9z"/>
			<path class="st1" d="M87.6-278.5c-0.8-0.5-0.8-1.6-0.4-2.4c0.5-0.9,1.6-1.2,2.4-0.6c0.9,0.6,0.9,1.9,0.3,2.7c0,0,0,0-0.1,0
				C89.2-278.1,88.3-278,87.6-278.5z"/>
			<path class="st1" d="M78.6-251.6c0.9-1.7,1.7-3.5,2.4-5.4c0.7-1.8,1.7-3.6,1.9-5.5c0.1-1.2-1.5-1.8-2.2-0.8
				c-1.1,1.5-1.6,3.3-2.2,5c-0.7,1.8-1.5,3.7-1.9,5.6C76.3-251.5,77.9-250.3,78.6-251.6L78.6-251.6z"/>
			<path class="st1" d="M50.4-220.7c-0.7-1.4-1.1-3-1.6-4.5c-0.5-1.5-1.1-3-1.2-4.6c0-1,1.3-1.4,1.8-0.5c0.8,1.3,1.1,2.8,1.5,4.2
				c0.5,1.5,1,3.1,1.2,4.6C52.3-220.6,50.9-219.7,50.4-220.7L50.4-220.7z"/>
			<path class="st1" d="M76.9-287.2c-2.7-0.2-5.4,0-7.6,1.7c-1.9,1.4-2.9,3.8-2.8,6.2c0.1,2.3,1.3,4.3,3.3,5.5
				c1.8,1.1,4.8,1.8,6.5,0.4c0.7-0.6,0.2-1.8-0.6-1.8c-1.6-0.2-3,0.3-4.5-0.6c-1.4-0.9-2.2-2.4-2.1-4.1c0.2-4.2,4.7-5,8-5.2
				C78.2-285.4,78-287.2,76.9-287.2L76.9-287.2z"/>
			<path class="st1" d="M45.7-258.8c1.6,2.1,3.5,4,6.2,4.6c2.3,0.5,4.7-0.3,6.4-1.9c1.6-1.6,2.4-3.8,2-6c-0.3-2-1.7-4.8-3.9-5.1
				c-0.9-0.2-1.5,1-1,1.7c0.9,1.3,2.1,2,2.4,3.8c0.3,1.7-0.4,3.2-1.7,4.3c-3.3,2.6-6.7-0.3-9.1-2.6C46.2-260.9,45-259.6,45.7-258.8
				L45.7-258.8z"/>
			<path class="st1" d="M101.2-238.1c-0.8-2.5-2-5-4.3-6.5c-2-1.3-4.5-1.3-6.7-0.4c-2,0.9-3.5,2.8-3.9,5c-0.4,2,0,5.1,2,6.2
				c0.8,0.5,1.7-0.4,1.5-1.2c-0.4-1.6-1.3-2.6-1-4.4c0.3-1.7,1.5-2.9,3-3.4c4-1.3,6.3,2.6,7.7,5.6
				C100-236.3,101.6-237.1,101.2-238.1L101.2-238.1z"/>
			<path class="st1" d="M72.9-221.7c3,3.2,3.3,7.9,0,10.9c-1.4,1.3-3.4,2.2-5.5,2.2c-2.3,0-4.4-0.8-6.6-1.3
				c-2.2-0.5-4.1-0.3-4.9,1.7c-0.7,1.6-0.7,3.3-1.1,5c-0.4,1.5-1.1,2.9-2.5,3.8c-1.7,1.2-3.9,1.2-5.9,1c-1.2-0.1-2.6-0.3-3.8,0.1
				c-1.3,0.4-1.9,1.6-2.3,2.8c-0.5,1.4-0.6,2.8-0.5,4.3c0.1,1.5,0.7,2.8,1,4.2c0.2,1.3-1.6,1.9-2.4,0.8c-1.3-1.7-1.5-4.4-1.5-6.4
				c0.1-2,0.6-4.3,1.8-6c1.2-1.6,3-2.3,5.1-2.5c2.1-0.1,4.9,0.8,6.8-0.3c1.4-0.8,1.6-2.7,1.9-4.1c0.3-1.6,0.5-3.2,1.3-4.6
				c2.2-3.7,6.7-2.7,10.5-1.6c2.7,0.8,5.3,0.8,7.2-1.3c2-2.3,1.4-5.3-0.1-7.7C70.7-221.6,72.2-222.6,72.9-221.7L72.9-221.7z"/>
			<path class="st1" d="M58.5-245.6c2.7,2.6,6,4.4,9.4,6c0.7,0.3,1.6,0.1,1.8-0.7c0.8-3.6,1.5-7.4,1.4-11.1c0-1.5-2.1-1.5-2.3,0
				c-0.4,3.5-0.7,7-1.5,10.5c0.6-0.2,1.2-0.5,1.8-0.7c-3.3-1.5-6.3-3.5-9.4-5.4C58.8-247.7,57.7-246.4,58.5-245.6L58.5-245.6z"/>
			<path class="st1" d="M37.1-320.5c0,3.7,1,7.4,2.2,10.9c0.2,0.7,1,1.3,1.8,0.8c3.2-1.9,6.4-4.1,9-6.7c1-1-0.4-2.6-1.5-1.7
				c-2.8,2.2-5.5,4.3-8.6,6.2c0.6,0.3,1.2,0.6,1.8,0.8c-1.2-3.5-1.8-7-2.7-10.5C38.9-321.7,37.1-321.7,37.1-320.5L37.1-320.5z"/>
			<path class="st1" d="M99.9-249.8c0.8-2.5,1-5.1,1-7.7c0-0.5-0.4-1.1-1-1c-2.5,0.6-5.2,1.3-7.5,2.4c-0.9,0.5-0.3,1.8,0.7,1.5
				c2.4-0.8,4.6-1.6,7.1-2.2c-0.3-0.3-0.7-0.6-1-1c0,2.6-0.4,5.1-0.6,7.6C98.4-249.4,99.6-249.1,99.9-249.8L99.9-249.8z"/>
			<path class="st1" d="M58.2-282.7c-2.5-2.8-5.6-5-8.8-6.9c-0.6-0.4-1.6-0.3-1.9,0.5c-1.2,3.5-2.2,7.3-2.5,11
				c-0.1,1.5,2,1.7,2.3,0.3c0.7-3.5,1.4-6.9,2.5-10.3c-0.6,0.2-1.3,0.4-1.9,0.5c3.2,1.8,6,4.1,8.9,6.3
				C57.7-280.6,59-281.8,58.2-282.7L58.2-282.7z"/>
			<path class="st1" d="M9.5-257.2c4.9-0.6,7.8-5.1,12.3-6.5c-0.6-0.6-1.1-1.1-1.7-1.7c-0.6,4.1-1.1,8.1-1.7,12.2
				c-0.2,1.1,1.5,1.7,2.2,0.9c2.3-2.5,4.8-4.7,7.6-6.6c-0.6-0.2-1.2-0.3-1.8-0.5c1.4,3.1,2.2,6.4,2.5,9.8c0,0.5,0.4,1.2,1,1.3
				c1.3,0.2,2.2-0.3,3-1.4c1.1-1.5,1.9-3.3,2.8-4.9c-0.7,0.1-1.4,0.2-2.1,0.3c1.7,2.1,3.4,4.2,5.1,6.2c1.1,1.3,2.9-0.6,1.9-1.9
				c-1.7-2.1-3.4-4.2-5.1-6.2c-0.5-0.7-1.7-0.4-2.1,0.3c-0.3,0.6-2.6,5.1-2.8,5.1c0.3,0.4,0.6,0.8,1,1.3c-0.3-3.9-1.3-7.6-2.9-11.1
				c-0.3-0.6-1.2-0.8-1.8-0.5c-3,2-5.7,4.4-8.1,7c0.7,0.4,1.5,0.9,2.2,1.3c0.6-3.9,1.1-7.9,1.7-11.8c0.1-0.9-0.6-2-1.7-1.7
				c-4.5,1.4-7.4,5.6-11.9,7C8.1-259,8.2-257,9.5-257.2L9.5-257.2z"/>
			<path class="st1" d="M105-194c-4.1,0.5-6.4,4.2-10.2,5.4c0.5,0.5,0.9,0.9,1.4,1.4c0.5-3.3,0.9-6.7,1.4-10
				c0.1-0.9-1.3-1.4-1.8-0.8c-1.9,2.1-3.9,3.9-6.2,5.5c0.5,0.1,1,0.3,1.5,0.4c-1.1-2.6-1.8-5.3-2.1-8.1c0-0.4-0.3-1-0.8-1
				c-1.1-0.2-1.8,0.2-2.5,1.1c-0.9,1.3-1.6,2.7-2.3,4c0.6-0.1,1.1-0.1,1.7-0.2c-1.4-1.7-2.8-3.5-4.2-5.1c-0.9-1.1-2.4,0.5-1.5,1.5
				c1.4,1.8,2.8,3.4,4.2,5.1c0.4,0.5,1.4,0.3,1.7-0.2c0.3-0.5,2.1-4.2,2.3-4.2c-0.3-0.3-0.5-0.7-0.8-1c0.3,3.2,1.1,6.2,2.4,9.1
				c0.2,0.5,1,0.7,1.5,0.4c2.4-1.7,4.7-3.6,6.7-5.8c-0.6-0.4-1.2-0.7-1.8-1.1c-0.5,3.2-0.9,6.5-1.4,9.7c-0.1,0.8,0.5,1.7,1.4,1.4
				c3.7-1.2,6.1-4.6,9.8-5.8C106.1-192.5,106-194.1,105-194L105-194z"/>
			<path class="st1" d="M53.4-221.2c0.2-2.3,0.6-4.6,0.9-6.9c0.2-2.2,0.2-4.5,0.8-6.6c0.4-1.3,2.3-1,2.5,0.2c0.4,2.3,0,4.7-0.2,7
				c-0.3,2.3-0.6,4.7-1.4,6.9C55.5-219.2,53.3-219.7,53.4-221.2L53.4-221.2z"/>
			<path class="st1" d="M20.7-192.9c1.3-1.9,2.8-3.7,4.2-5.6c1.3-1.8,2.4-3.8,4-5.3c1-0.9,2.5,0.3,2.1,1.4c-0.7,2.2-2.3,4.1-3.7,5.9
				c-1.4,1.9-2.9,3.8-4.6,5.3C21.5-190.1,19.9-191.7,20.7-192.9L20.7-192.9z"/>
			<path class="st1" d="M49.5-294.1c-1.6,0.1-3.2-0.1-4.8-0.2c-1.6-0.1-3.2-0.1-4.7-0.6c-0.9-0.3-0.8-1.8,0.2-1.9
				c1.5-0.2,3,0.1,4.5,0.2c1.6,0.2,3.2,0.3,4.8,0.6C50.4-295.8,50.7-294.2,49.5-294.1L49.5-294.1z"/>
			<path class="st1" d="M50.2-297c-2.1-1-4-2.3-6.1-3.4c-1.9-1.1-4-1.9-5.8-3.3c-1.1-0.8,0-2.5,1.2-2.2c2.3,0.5,4.4,1.8,6.4,2.9
				c2,1.1,4.1,2.4,5.8,3.9C52.9-298.2,51.6-296.4,50.2-297L50.2-297z"/>
			<path class="st1" d="M98.9-312.4c-2.1-1-4-2.3-6.1-3.4c-1.9-1.1-4-1.9-5.8-3.3c-1.1-0.8,0-2.5,1.2-2.2c2.3,0.5,4.4,1.8,6.4,2.9
				c2,1.1,4.1,2.4,5.8,3.9C101.6-313.5,100.2-311.7,98.9-312.4L98.9-312.4z"/>
			<path class="st1" d="M107.2-265c-2.1-1-4-2.3-6.1-3.4c-1.9-1.1-4-1.9-5.8-3.3c-1.1-0.8,0-2.5,1.2-2.2c2.3,0.5,4.4,1.8,6.4,2.9
				c2,1.1,4.1,2.4,5.8,3.9C109.9-266.2,108.6-264.3,107.2-265L107.2-265z"/>
			<path class="st1" d="M41.8-233.1c-1.1,4.3-5.7,6.4-9.9,5.8c-4.7-0.6-8.2-4.8-6.8-9.6c1.5-4.9,7-7.5,11.8-5.8
				c0.1,0,0.2,0.1,0.3,0.1C40.7-240.8,42.8-237,41.8-233.1z M35.8-240c-3.3-1.2-7.3,0.8-8.1,4.3c-0.8,3.4,2.4,5.7,5.5,5.7
				c2.7,0,5.3-1.3,5.9-4.1C39.6-236.7,38.1-239,35.8-240z"/>
			<path class="st1" d="M65.1-184.5c-1.5,3.5-5.5,4.8-9,3.8c-3.9-1.1-6.4-5-4.7-8.9c1.8-4,6.8-5.6,10.6-3.6c0.1,0,0.2,0.1,0.2,0.2
				C65.1-191.2,66.4-187.8,65.1-184.5z M60.8-191.1c-2.6-1.4-6.3-0.2-7.3,2.7c-1,2.8,1.4,5.1,4,5.5c2.2,0.3,4.7-0.5,5.5-2.8
				C63.7-187.8,62.7-190,60.8-191.1z"/>
			<path class="st1" d="M30.9-276c-1,3.9-5.1,5.7-8.8,5.2c-4.2-0.6-7.4-4.3-6.1-8.6c1.3-4.4,6.3-6.7,10.5-5.2c0.1,0,0.2,0.1,0.3,0.1
				C29.9-282.9,31.8-279.5,30.9-276z M25.6-282.2c-2.9-1.1-6.5,0.7-7.2,3.8c-0.7,3.1,2.1,5.1,4.9,5.1c2.4,0,4.8-1.1,5.3-3.6
				C29-279.2,27.6-281.3,25.6-282.2z"/>
			<path class="st1" d="M18.9-315c-3.1,0.6-5.2,3.5-4.6,6.7c0.7,3.2,3.6,4.8,6.6,4.7c1.5,0,3.4-0.6,4.9,0.1c1.7,0.9,2.1,3.4,1.9,5.1
				c-0.6,4.5-4.5,6.2-8.6,6.2c-1.2,0-1.4,1.6-0.3,2.1c7.3,2.8,13.7-5.9,11-12.5c-1.5-3.6-4.6-3.8-8-3.6c-1.9,0.1-3.7,0-4.7-1.9
				c-1.1-2.1,0.3-4.4,2.4-5C20.6-313.4,20.1-315.2,18.9-315L18.9-315z"/>
			<path class="st1" d="M81-292.4c0.5,3.1,3.4,5.3,6.6,4.7c3.2-0.6,4.9-3.4,4.9-6.5c0-1.5-0.5-3.4,0.2-4.9c0.9-1.7,3.5-2.1,5.2-1.8
				c4.5,0.7,6.1,4.7,6,8.8c0,1.2,1.6,1.4,2,0.4c3-7.2-5.6-13.8-12.2-11.2c-3.6,1.4-3.9,4.5-3.7,8c0.1,1.9-0.1,3.7-2,4.6
				c-2.1,1-4.4-0.4-5-2.5C82.6-294.1,80.8-293.7,81-292.4L81-292.4z"/>
		</g>
		<g>
			<path class="st1" d="M188.7-283.3c1.2-1.3,2.4-2.6,3.6-4c0.6-0.7,1.2-1.4,1.8-2c0.5-0.6,1.3-2,2-2.3c0.7-0.4-0.3-0.3,0.4,0
				c0.3,0.1,0.7,0.7,1,0.9c0.7,0.6,1.3,1.2,2,1.9c1.4,1.3,2.7,2.7,4.1,4.1c0.6,0.6,1.4,0.4,1.8-0.2c2.5-3.4,5-6.9,7.5-10.3
				c-0.5,0.1-1.1,0.3-1.6,0.4c3.7,2.4,7.4,4.7,11,7.1c1.4,0.9,2.6-1.3,1.3-2.1c-3.7-2.3-7.4-4.6-11.1-6.9c-0.6-0.4-1.2-0.1-1.6,0.4
				c-2.5,3.4-5,6.9-7.5,10.3c0.6-0.1,1.2-0.2,1.8-0.2c-1.8-1.8-3.5-3.5-5.3-5.3c-1-1-2.3-3-4-2.7c-1.6,0.2-3,2.7-4,3.9
				c-1.6,1.9-3.2,3.8-4.8,5.7C186.3-283.8,187.8-282.3,188.7-283.3L188.7-283.3z"/>
			<path class="st1" d="M265.5-306.9c0.9,1.5,1.8,3.1,2.7,4.7c0.4,0.8,0.9,1.6,1.3,2.4c0.4,0.7,0.9,2.2,1.5,2.7
				c0.6,0.5-0.4,0.2,0.4,0.1c0.3-0.1,0.9-0.5,1.2-0.7c0.8-0.5,1.5-0.9,2.3-1.4c1.6-1,3.2-2.1,4.8-3.1c0.7-0.4,1.4-0.1,1.7,0.6
				c1.7,3.9,3.5,7.7,5.2,11.6c-0.5-0.2-1-0.5-1.5-0.7c4.1-1.5,8.2-3.1,12.3-4.6c1.5-0.6,2.3,1.8,0.8,2.4c-4.1,1.5-8.2,3-12.3,4.5
				c-0.6,0.2-1.2-0.2-1.5-0.7c-1.7-3.9-3.5-7.8-5.2-11.6c0.6,0.2,1.1,0.4,1.7,0.6c-2.1,1.4-4.2,2.7-6.3,4.1
				c-1.2,0.8-2.9,2.4-4.5,1.9c-1.6-0.6-2.4-3.3-3.1-4.6c-1.2-2.2-2.4-4.3-3.5-6.6C263-307,264.7-308.2,265.5-306.9L265.5-306.9z"/>
			<path class="st1" d="M116.1-306.9c0.9,1.5,1.8,3.1,2.7,4.7c0.4,0.8,0.9,1.6,1.3,2.4c0.4,0.7,0.9,2.2,1.5,2.7
				c0.6,0.5-0.4,0.2,0.4,0.1c0.3-0.1,0.9-0.5,1.2-0.7c0.8-0.5,1.5-0.9,2.3-1.4c1.6-1,3.2-2.1,4.8-3.1c0.7-0.4,1.4-0.1,1.7,0.6
				c1.7,3.9,3.5,7.7,5.2,11.6c-0.5-0.2-1-0.5-1.5-0.7c4.1-1.5,8.2-3.1,12.3-4.6c1.5-0.6,2.3,1.8,0.8,2.4c-4.1,1.5-8.2,3-12.3,4.5
				c-0.6,0.2-1.2-0.2-1.5-0.7c-1.7-3.9-3.5-7.8-5.2-11.6c0.6,0.2,1.1,0.4,1.7,0.6c-2.1,1.4-4.2,2.7-6.3,4.1
				c-1.2,0.8-2.9,2.4-4.5,1.9c-1.6-0.6-2.4-3.3-3.1-4.6c-1.2-2.2-2.4-4.3-3.5-6.6C113.7-307,115.4-308.2,116.1-306.9L116.1-306.9z"
				/>
			<path class="st1" d="M173.8-315.7c-0.8-0.5-0.8-1.6-0.4-2.4c0.5-0.9,1.6-1.2,2.4-0.6c0.9,0.6,0.9,1.9,0.3,2.7c0,0,0,0-0.1,0
				C175.4-315.3,174.5-315.2,173.8-315.7z"/>
			<path class="st1" d="M149.1-302.9c-0.8-0.5-0.8-1.6-0.4-2.4c0.5-0.9,1.6-1.2,2.4-0.6c0.9,0.6,0.9,1.9,0.3,2.7c0,0,0,0-0.1,0
				C150.7-302.6,149.8-302.4,149.1-302.9z"/>
			<path class="st1" d="M177.8-290.3c-0.8-0.5-0.8-1.6-0.4-2.4c0.5-0.9,1.6-1.2,2.4-0.6c0.9,0.6,0.9,1.9,0.3,2.7c0,0,0,0-0.1,0
				C179.4-290,178.5-289.8,177.8-290.3z"/>
			<path class="st1" d="M162.6-265.2c-0.8-0.5-0.8-1.6-0.4-2.4c0.5-0.9,1.6-1.2,2.4-0.6c0.9,0.6,0.9,1.9,0.3,2.7c0,0,0,0-0.1,0
				C164.1-264.8,163.2-264.7,162.6-265.2z"/>
			<path class="st1" d="M266.9-258.6c-0.8-0.5-0.8-1.6-0.4-2.4c0.5-0.9,1.6-1.2,2.4-0.6c0.9,0.6,0.9,1.9,0.3,2.7c0,0,0,0-0.1,0
				C268.5-258.2,267.6-258.1,266.9-258.6z"/>
			<path class="st1" d="M207.3-299.4c-0.8-0.5-0.8-1.6-0.4-2.4c0.5-0.9,1.6-1.2,2.4-0.6c0.9,0.6,0.9,1.9,0.3,2.7c0,0,0,0-0.1,0
				C208.9-299.1,208-298.9,207.3-299.4z"/>
			<path class="st1" d="M198.4-279.7c-0.8-0.5-0.8-1.6-0.4-2.4c0.5-0.9,1.6-1.2,2.4-0.6c0.9,0.6,0.9,1.9,0.3,2.7c0,0,0,0-0.1,0
				C200-279.3,199.1-279.2,198.4-279.7z"/>
			<path class="st1" d="M231.4-283.3c-0.8-0.5-0.8-1.6-0.4-2.4c0.5-0.9,1.6-1.2,2.4-0.6c0.9,0.6,0.9,1.9,0.3,2.7c0,0,0,0-0.1,0
				C233-282.9,232.1-282.8,231.4-283.3z"/>
			<path class="st1" d="M234.7-315.1c-0.8-0.5-0.8-1.6-0.4-2.4c0.5-0.9,1.6-1.2,2.4-0.6c0.9,0.6,0.9,1.9,0.3,2.7c0,0,0,0-0.1,0
				C236.3-314.8,235.4-314.7,234.7-315.1z"/>
			<path class="st1" d="M252.3-301.1c-0.8-0.5-0.8-1.6-0.4-2.4c0.5-0.9,1.6-1.2,2.4-0.6c0.9,0.6,0.9,1.9,0.3,2.7c0,0,0,0-0.1,0
				C253.9-300.8,253-300.6,252.3-301.1z"/>
			<path class="st1" d="M269.8-282.5c-0.8-0.5-0.8-1.6-0.4-2.4c0.5-0.9,1.6-1.2,2.4-0.6c0.9,0.7,0.9,1.9,0.3,2.7c0,0,0,0-0.1,0
				C271.4-282.1,270.5-282,269.8-282.5z"/>
			<path class="st1" d="M265.5-326.1c0.9-1.7,1.7-3.5,2.4-5.4c0.7-1.8,1.7-3.6,1.9-5.5c0.1-1.2-1.5-1.8-2.2-0.8
				c-1.1,1.5-1.6,3.3-2.2,5c-0.7,1.8-1.5,3.7-1.9,5.6C263.2-326,264.8-324.8,265.5-326.1L265.5-326.1z"/>
			<path class="st1" d="M237.3-295.3c-0.7-1.4-1.1-3-1.6-4.5c-0.5-1.5-1.1-3-1.2-4.6c0-1,1.3-1.4,1.8-0.5c0.8,1.3,1.1,2.8,1.5,4.2
				c0.5,1.5,1,3.1,1.2,4.6C239.2-295.1,237.8-294.2,237.3-295.3L237.3-295.3z"/>
			<path class="st1" d="M174.6-296.3c1.7-2.9,3-6.1,2.4-9.5c-0.5-2.9-2.6-5.4-5.4-6.6c-2.6-1.1-5.6-0.9-8,0.6
				c-2.2,1.4-4.7,4.3-4.1,7.1c0.3,1.2,1.8,1.3,2.4,0.3c1.1-1.7,1.3-3.5,3.2-4.7c1.8-1.1,3.9-1.1,5.8-0.1c4.6,2.6,2.9,8,1.4,12
				C171.9-295.9,173.9-295.1,174.6-296.3L174.6-296.3z"/>
			<path class="st1" d="M199.9-259.1c-2.7-0.4-5.3-1.1-7.2-3.2c-1.6-1.8-2.1-4.3-1.5-6.6c0.6-2.2,2.2-4,4.3-4.8
				c2-0.7,5.1-0.9,6.5,0.9c0.6,0.7-0.1,1.8-1,1.7c-1.6-0.2-2.9-0.9-4.6-0.3c-1.6,0.6-2.7,1.9-2.9,3.6c-0.6,4.2,3.6,5.8,6.9,6.8
				C201.5-260.7,200.9-259,199.9-259.1L199.9-259.1z"/>
			<path class="st1" d="M232.6-333.3c1.6,2.1,3.5,4,6.2,4.6c2.3,0.5,4.7-0.3,6.4-1.9c1.6-1.6,2.4-3.8,2-6c-0.3-2-1.7-4.8-3.9-5.1
				c-0.9-0.2-1.5,1-1,1.7c0.9,1.3,2.1,2,2.4,3.8c0.3,1.7-0.4,3.2-1.7,4.3c-3.3,2.6-6.7-0.3-9.1-2.6
				C233.2-335.4,231.9-334.1,232.6-333.3L232.6-333.3z"/>
			<path class="st1" d="M288.2-312.6c-0.8-2.5-2-5-4.3-6.5c-2-1.3-4.5-1.3-6.7-0.4c-2,0.9-3.5,2.8-3.9,5c-0.4,2,0,5.1,2,6.2
				c0.8,0.5,1.7-0.4,1.5-1.2c-0.4-1.6-1.3-2.6-1-4.4c0.3-1.7,1.5-2.9,3-3.4c4-1.3,6.3,2.6,7.7,5.6
				C286.9-310.8,288.5-311.6,288.2-312.6L288.2-312.6z"/>
			<path class="st1" d="M169.1-340.6c-3.1,3.6-3.6,8.8-0.4,12.5c1.4,1.6,3.4,2.6,5.5,2.7c2.3,0.1,4.5-0.8,6.7-1.3
				c2.2-0.5,4.2-0.2,4.9,2.2c0.6,1.8,0.6,3.8,0.9,5.7c0.3,1.7,1,3.4,2.4,4.5c1.7,1.4,3.9,1.5,6,1.4c1.3,0,2.7-0.2,3.8,0.3
				c1.3,0.6,1.9,1.9,2.3,3.2c0.4,1.6,0.5,3.3,0.4,4.9c-0.1,1.7-0.8,3.2-1.1,4.8c-0.3,1.5,1.5,2.2,2.4,1c1.4-1.9,1.7-5,1.7-7.3
				c0-2.3-0.4-4.9-1.6-6.9c-1.1-1.9-2.9-2.8-5.1-3c-2.1-0.2-5,0.7-6.8-0.6c-1.4-1-1.6-3.2-1.8-4.8c-0.2-1.8-0.4-3.6-1.2-5.3
				c-2.1-4.3-6.7-3.3-10.5-2.3c-2.8,0.8-5.4,0.8-7.3-1.8c-1.9-2.7-1.2-6.1,0.4-8.8C171.4-340.3,169.9-341.5,169.1-340.6L169.1-340.6
				z"/>
			<path class="st1" d="M107.7-315.3c2.9,1.8,6.7,1.6,8.9-1.2c1-1.2,1.5-2.7,1.3-4.2c-0.2-1.6-1.1-3.1-1.7-4.6
				c-0.6-1.5-0.6-2.9,1-3.7c1.2-0.6,2.7-0.8,4-1.3c1.2-0.4,2.3-1.1,2.9-2.2c0.8-1.4,0.6-2.9,0.3-4.4c-0.2-0.9-0.5-1.9-0.2-2.8
				c0.2-1,1.1-1.6,2-2c1.1-0.5,2.3-0.8,3.4-0.8c1.2-0.1,2.3,0.2,3.5,0.2c1.1,0,1.4-1.3,0.4-1.8c-1.5-0.8-3.7-0.6-5.4-0.4
				c-1.6,0.3-3.4,0.9-4.7,1.9c-1.2,1-1.6,2.4-1.5,3.9c0.1,1.5,1.1,3.4,0.3,4.9c-0.6,1.1-2.1,1.5-3.2,1.8c-1.2,0.4-2.5,0.7-3.6,1.5
				c-2.8,2-1.6,5.1-0.4,7.7c0.9,1.9,1.2,3.8-0.4,5.4c-1.7,1.7-4.2,1.5-6.3,0.7C107.6-317,106.9-315.8,107.7-315.3L107.7-315.3z"/>
			<path class="st1" d="M259.9-296.3c3,3.2,3.3,7.9,0,10.9c-1.4,1.3-3.4,2.2-5.5,2.2c-2.3,0-4.4-0.8-6.6-1.3
				c-2.2-0.5-4.1-0.3-4.9,1.7c-0.7,1.6-0.7,3.3-1.1,5c-0.4,1.5-1.1,2.9-2.5,3.8c-1.7,1.2-3.9,1.2-5.9,1c-1.2-0.1-2.6-0.3-3.8,0.1
				c-1.3,0.4-1.9,1.6-2.3,2.8c-0.5,1.4-0.6,2.8-0.5,4.3c0.1,1.5,0.7,2.8,1,4.2c0.2,1.3-1.6,1.9-2.4,0.8c-1.3-1.7-1.5-4.4-1.5-6.4
				c0.1-2,0.6-4.3,1.8-6c1.2-1.6,3-2.3,5.1-2.5c2.1-0.1,4.9,0.8,6.8-0.3c1.4-0.8,1.6-2.7,1.9-4.1c0.3-1.6,0.5-3.2,1.3-4.6
				c2.2-3.7,6.7-2.7,10.5-1.6c2.7,0.8,5.3,0.8,7.2-1.3c2-2.3,1.4-5.3-0.1-7.7C257.6-296.1,259.1-297.1,259.9-296.3L259.9-296.3z"/>
			<path class="st1" d="M177.4-267.4c1.8-3.9,2.7-8.1,3.2-12.4c0.1-0.8-0.4-1.8-1.4-1.8c-4.2,0.4-8.6,1-12.7,2.4
				c-1.6,0.6-0.9,2.9,0.8,2.5c4-0.9,7.9-1.7,12-2.1c-0.5-0.6-1-1.2-1.4-1.8c-0.5,4.2-1.6,8.2-2.5,12.2
				C175-267,176.9-266.3,177.4-267.4L177.4-267.4z"/>
			<path class="st1" d="M154.6-322.6c0.6-3.8,0.3-7.6-0.3-11.3c-0.1-0.8-0.8-1.5-1.7-1.2c-3.5,1.4-7.1,3-10.2,5.1
				c-1.2,0.9,0,2.6,1.3,2c3.2-1.7,6.3-3.4,9.7-4.7c-0.5-0.4-1.1-0.8-1.6-1.2c0.6,3.7,0.6,7.4,0.8,11.1
				C152.6-321.6,154.4-321.4,154.6-322.6L154.6-322.6z"/>
			<path class="st1" d="M245.5-320.1c2.7,2.6,6,4.4,9.4,6c0.7,0.3,1.6,0.1,1.8-0.7c0.8-3.6,1.5-7.4,1.4-11.1c0-1.5-2.1-1.5-2.3,0
				c-0.4,3.5-0.7,7-1.5,10.5c0.6-0.2,1.2-0.5,1.8-0.7c-3.3-1.5-6.3-3.5-9.4-5.4C245.7-322.2,244.6-320.9,245.5-320.1L245.5-320.1z"
				/>
			<path class="st1" d="M286.8-324.4c0.8-2.5,1-5.1,1-7.7c0-0.5-0.4-1.1-1-1c-2.5,0.6-5.2,1.3-7.5,2.4c-0.9,0.5-0.3,1.8,0.7,1.5
				c2.4-0.8,4.6-1.6,7.1-2.2c-0.3-0.3-0.7-0.6-1-1c0,2.6-0.4,5.1-0.6,7.6C285.4-323.9,286.5-323.6,286.8-324.4L286.8-324.4z"/>
			<path class="st1" d="M196.4-331.7c4.9-0.6,7.8-5.1,12.3-6.5c-0.6-0.6-1.1-1.1-1.7-1.7c-0.6,4.1-1.1,8.1-1.7,12.2
				c-0.2,1.1,1.5,1.7,2.2,0.9c2.3-2.5,4.8-4.7,7.6-6.6c-0.6-0.2-1.2-0.3-1.8-0.5c1.4,3.1,2.2,6.4,2.5,9.8c0,0.5,0.4,1.2,1,1.3
				c1.3,0.2,2.2-0.3,3-1.4c1.1-1.5,1.9-3.3,2.8-4.9c-0.7,0.1-1.4,0.2-2.1,0.3c1.7,2.1,3.4,4.2,5.1,6.2c1.1,1.3,2.9-0.6,1.9-1.9
				c-1.7-2.1-3.4-4.2-5.1-6.2c-0.5-0.7-1.7-0.4-2.1,0.3c-0.3,0.6-2.6,5.1-2.8,5.1c0.3,0.4,0.6,0.8,1,1.3c-0.3-3.9-1.3-7.6-2.9-11.1
				c-0.3-0.6-1.2-0.8-1.8-0.5c-3,2-5.7,4.4-8.1,7c0.7,0.4,1.5,0.9,2.2,1.3c0.6-3.9,1.1-7.9,1.7-11.8c0.1-0.9-0.6-2-1.7-1.7
				c-4.5,1.4-7.4,5.6-11.9,7C195-333.5,195.1-331.6,196.4-331.7L196.4-331.7z"/>
			<path class="st1" d="M291.9-268.5c-4.1,0.5-6.4,4.2-10.2,5.4c0.5,0.5,0.9,0.9,1.4,1.4c0.5-3.3,0.9-6.7,1.4-10
				c0.1-0.9-1.3-1.4-1.8-0.8c-1.9,2.1-3.9,3.9-6.2,5.5c0.5,0.1,1,0.3,1.5,0.4c-1.1-2.6-1.8-5.3-2.1-8.1c0-0.4-0.3-1-0.8-1
				c-1.1-0.2-1.8,0.2-2.5,1.1c-0.9,1.3-1.6,2.7-2.3,4c0.6-0.1,1.1-0.1,1.7-0.2c-1.4-1.7-2.8-3.5-4.2-5.1c-0.9-1.1-2.4,0.5-1.5,1.5
				c1.4,1.8,2.8,3.4,4.2,5.1c0.4,0.5,1.4,0.3,1.7-0.2c0.3-0.5,2.1-4.2,2.3-4.2c-0.3-0.3-0.5-0.7-0.8-1c0.3,3.2,1.1,6.2,2.4,9.1
				c0.2,0.5,1,0.7,1.5,0.4c2.4-1.7,4.7-3.6,6.7-5.8c-0.6-0.4-1.2-0.7-1.8-1.1c-0.5,3.2-0.9,6.5-1.4,9.7c-0.1,0.8,0.5,1.7,1.4,1.4
				c3.7-1.2,6.1-4.6,9.8-5.8C293.1-267,292.9-268.6,291.9-268.5L291.9-268.5z"/>
			<path class="st1" d="M138.1-271.8c-4.1,0.5-6.4,4.2-10.2,5.4c0.5,0.5,0.9,0.9,1.4,1.4c0.5-3.3,0.9-6.7,1.4-10
				c0.1-0.9-1.3-1.4-1.8-0.8c-1.9,2.1-3.9,3.9-6.2,5.5c0.5,0.1,1,0.3,1.5,0.4c-1.1-2.6-1.8-5.3-2.1-8.1c0-0.4-0.3-1-0.8-1
				c-1.1-0.2-1.8,0.2-2.5,1.1c-0.9,1.3-1.6,2.7-2.3,4c0.6-0.1,1.1-0.1,1.7-0.2c-1.4-1.7-2.8-3.5-4.2-5.1c-0.9-1.1-2.4,0.5-1.5,1.5
				c1.4,1.8,2.8,3.4,4.2,5.1c0.5,0.5,1.4,0.3,1.7-0.2c0.3-0.5,2.1-4.2,2.3-4.2c-0.3-0.3-0.5-0.7-0.8-1c0.3,3.2,1.1,6.2,2.4,9.1
				c0.2,0.5,1,0.7,1.5,0.4c2.4-1.7,4.7-3.6,6.7-5.8c-0.6-0.4-1.2-0.7-1.8-1.1c-0.5,3.2-0.9,6.5-1.4,9.7c-0.1,0.8,0.5,1.7,1.4,1.4
				c3.7-1.2,6.1-4.6,9.8-5.8C139.3-270.3,139.2-272,138.1-271.8L138.1-271.8z"/>
			<path class="st1" d="M240.3-295.7c0.2-2.3,0.6-4.6,0.9-6.9c0.2-2.2,0.2-4.5,0.8-6.6c0.4-1.3,2.3-1,2.5,0.2c0.4,2.3,0,4.7-0.2,7
				c-0.3,2.3-0.6,4.7-1.4,6.9C242.4-293.7,240.2-294.2,240.3-295.7L240.3-295.7z"/>
			<path class="st1" d="M207.6-267.4c1.3-1.9,2.8-3.7,4.2-5.6c1.3-1.8,2.4-3.8,4-5.3c1-0.9,2.5,0.3,2.1,1.4
				c-0.7,2.2-2.3,4.1-3.7,5.9c-1.4,1.9-2.9,3.8-4.6,5.3C208.5-264.6,206.8-266.2,207.6-267.4L207.6-267.4z"/>
			<path class="st1" d="M228.7-307.6c-1.1,4.3-5.7,6.4-9.9,5.8c-4.7-0.6-8.2-4.8-6.8-9.6c1.5-4.9,7-7.5,11.8-5.8
				c0.1,0,0.2,0.1,0.3,0.1C227.6-315.3,229.7-311.5,228.7-307.6z M222.7-314.6c-3.3-1.2-7.3,0.8-8.1,4.3c-0.8,3.4,2.4,5.7,5.5,5.7
				c2.7,0,5.3-1.3,5.9-4.1C226.5-311.2,225-313.5,222.7-314.6z"/>
			<path class="st1" d="M252.1-259.1c-1.5,3.5-5.5,4.8-9,3.8c-3.9-1.1-6.4-5-4.7-8.9c1.8-4,6.8-5.6,10.6-3.6c0.1,0,0.2,0.1,0.2,0.2
				C252-265.7,253.4-262.3,252.1-259.1z M247.7-265.6c-2.6-1.4-6.3-0.2-7.3,2.7c-1,2.8,1.4,5.1,4,5.5c2.2,0.3,4.7-0.5,5.5-2.8
				C250.6-262.3,249.6-264.5,247.7-265.6z"/>
			<path class="st1" d="M143.7-321.6c3.1,2.5,3.1,6.8,1.1,10c-2.2,3.5-6.8,4.9-10.2,2c-3.4-2.9-3.5-8.3-0.4-11.5
				c0.1-0.1,0.1-0.1,0.2-0.2C137.1-323.5,140.9-323.9,143.7-321.6z M135.9-319.3c-2.1,2.2-2,6.1,0.5,8c2.5,1.8,5.4,0.1,6.5-2.3
				c1-2.1,0.9-4.7-1.1-6.2C140-321.2,137.6-320.8,135.9-319.3z"/>
			<path class="st1" d="M142.8-262.8c2.8,1.8,6.6,1.2,8.5-1.7c1.9-2.9,0.9-6.3-1.6-8.5c-1.2-1.1-3.1-2.1-3.6-3.7
				c-0.7-2,0.9-4.2,2.4-5.4c3.8-3,8.1-1.4,11.2,1.7c0.9,0.9,2.3-0.2,1.8-1.3c-3.5-7.6-14.9-5.7-17.7,1.4c-1.5,3.9,0.7,6.4,3.5,8.7
				c1.5,1.3,2.8,2.8,2.2,4.9c-0.7,2.4-3.5,3.2-5.6,2.1C142.7-265.3,141.7-263.6,142.8-262.8L142.8-262.8z"/>
		</g>
		<g>
			<path class="st1" d="M65.1-333.6c-1.5,3.5-5.5,4.8-9,3.8c-3.9-1.1-6.4-5-4.7-8.9c1.8-4,6.8-5.6,10.6-3.6c0.1,0,0.2,0.1,0.2,0.2
				C65.1-340.3,66.4-336.8,65.1-333.6z M60.8-340.1c-2.6-1.4-6.3-0.2-7.3,2.7c-1,2.8,1.4,5.1,4,5.5c2.2,0.3,4.7-0.5,5.5-2.8
				C63.7-336.9,62.7-339,60.8-340.1z"/>
		</g>
	</g>
</pattern>
<g id="Layer_2">
	<rect class="st2" width="204" height="157"/>
</g>
<g id="Layer_1">
	<path class="st3" d="M204,153.9c0,1.7-1.4,3.1-3.1,3.1H3.1c-1.7,0-3.1-1.4-3.1-3.1V3.1C0,1.4,1.4,0,3.1,0h197.8
		c1.7,0,3.1,1.4,3.1,3.1V153.9z"/>
</g>
</svg>
