<?xml version="1.0" encoding="utf-8"?>
<!-- Generator: Adobe Illustrator 19.0.0, SVG Export Plug-In . SVG Version: 6.00 Build 0)  -->
<svg version="1.1" id="Layer_1" xmlns="http://www.w3.org/2000/svg" xmlns:xlink="http://www.w3.org/1999/xlink" x="0px" y="0px"
	 viewBox="0 0 50 50" style="enable-background:new 0 0 50 50;" xml:space="preserve">
<style type="text/css">
	.st0{fill:#FFFFFF;}
</style>
<g id="XMLID_4407_">
	<path id="XMLID_4231_" class="st0" d="M35.7,13.9c0-2.3,0-4.7,0.1-7c0-0.8,0-1.6-0.5-2.2c-0.6-0.7-1.7-0.8-2.6-0.8
		c-5.7,0-29.2-3.7-29.4,4.3c-0.1,5.7-4.6,28.7,1.4,31.8c5.5,2.8,11,5.7,16.5,8.5c0.5,0.3,1.1,0.5,1.7,0.2c0.5-0.3,0.6-1,0.6-1.6
		c0-2.6-0.1-5.1,0.2-7.6c2.5,0,9.5,0.6,11.2-1.7c1.4-1.8,1.5-4.3,1.4-6.5c-0.1-3-1.5-6.9-4.5-6.6c-1.2,1.8-0.4,4.1-0.4,6.3
		c0.1,4.9-8,3.9-8,3.6c0-5.6,0-11.3,0-16.9c0-1.1,0-2.3-0.6-3.2c-0.6-0.9-1.5-1.4-2.5-1.9c-2.6-1.3-5.2-2.7-7.8-4
		c4-0.1,8-0.3,12-0.4c1.8-0.1,3.7-0.1,5.2,0.8c1.6,0.9,2.5,3,1.5,4.5c1.4,0.6,2.9,0.8,4.4,0.6C35.7,14,35.7,13.9,35.7,13.9z"/>
	<path id="XMLID_4230_" class="st0" d="M41.4,10.3c0.5,0.3,1,0.7,1.4,1.1c1.6,1.6,3.3,3.3,4.9,4.9c4.3,4.3-3.2,8.8-6.2,11.7
		c-0.9,0.9-2.4,1-3.3,0c-0.9-0.9-0.8-2.4,0.1-3.3c0,0,3.3-3.2,3.3-3.3c-2.8,2.7-19.4,0-12.7-4.7c2.3-1.6,9.9-0.4,12.7-0.2
		c-0.7-1.2-2-1.9-2.9-2.9c-0.9-1-1.5-2.7-0.5-3.7C39,9.2,40.3,9.6,41.4,10.3z"/>
</g>
</svg>
