<?xml version="1.0" encoding="utf-8"?>
<!-- Generator: Adobe Illustrator 19.2.0, SVG Export Plug-In . SVG Version: 6.00 Build 0)  -->
<svg version="1.1" id="Layer_1" xmlns="http://www.w3.org/2000/svg" xmlns:xlink="http://www.w3.org/1999/xlink" x="0px" y="0px"
	 viewBox="0 0 50 50" style="enable-background:new 0 0 50 50;" xml:space="preserve">
<style type="text/css">
	.st0{fill:#FFFFFF;}
</style>
<g id="XMLID_2125_">
	<path class="st0" d="M20.9,33.6c-2.7,0-5.4-0.6-7.7-1.9c-4.3-2.5-6.7-6.8-6.7-12.2c0-9.1,7.1-13.7,13.8-14.1
		c6.6-0.4,14.2,3.3,15.4,12.3c0.1,0.6,0.1,1.2,0.1,1.7v0c0.1,5.1-2.3,9.4-6.6,12C26.7,32.8,23.8,33.6,20.9,33.6z M21.3,11.3
		c-0.2,0-0.4,0-0.6,0c-4,0.2-8.1,2.9-8.1,8.1c0,3.2,1.3,5.6,3.7,7c2.9,1.6,7,1.6,9.9-0.2c1.7-1,3.7-3,3.6-6.7c0-0.4,0-0.7-0.1-1.1
		C29.1,13.4,25.1,11.3,21.3,11.3z"/>
</g>
<g id="XMLID_2126_">
	<path class="st0" d="M42.6,45.5c-0.8,0-1.5-0.3-2.1-0.9c-1.2-1.2-2.4-2.1-3.6-3.2c-1.3-1.1-2.7-2.2-4.1-3.6
		c-1.2-1.2-2.3-2.5-3.4-3.9c-1-1.3-2-2.5-2.9-3.4c-1.2-1.2-1.2-3.1,0-4.2c1.2-1.2,3.1-1.2,4.2,0c1.2,1.2,2.3,2.5,3.4,3.9
		c1,1.3,2,2.5,2.9,3.4c1.2,1.2,2.4,2.2,3.6,3.2c1.3,1.1,2.7,2.2,4.1,3.6c1.2,1.2,1.2,3.1,0,4.2C44.1,45.2,43.3,45.5,42.6,45.5z"/>
</g>
</svg>
