<?xml version="1.0" encoding="utf-8"?>
<!-- Generator: Adobe Illustrator 19.2.0, SVG Export Plug-In . SVG Version: 6.00 Build 0)  -->
<svg version="1.1" id="Layer_1" xmlns="http://www.w3.org/2000/svg" xmlns:xlink="http://www.w3.org/1999/xlink" x="0px" y="0px"
	 viewBox="0 0 336.2 310.2" style="enable-background:new 0 0 336.2 310.2;" xml:space="preserve">
<style type="text/css">
	.st0{fill:#929497;stroke:#929497;stroke-width:1.3272;stroke-miterlimit:10;}
</style>
<path class="st0" d="M274.2,162.6c-5.3-1.6-10.8-1.9-16.3-2.3c-8.1-0.5-13.9-4.7-20.1-9.6c-10.8-8.6-21.1-17.6-30.5-27.8
	c-4.5-4.8-8.8-9.3-13.8-13.5c-3.8-3.2-8.6-6.5-11.7-10.8c0,0,0,0,0-0.1c-0.4-0.7-0.6-1.5-0.8-2.2c13.8-2,28.1-11.3,26.6-26.8
	c-0.2-2-1.6-4-3.9-3.9c-13.4,0.7-5.6-15.3-4.1-23.4c1.5-8,0.3-16.1-8.4-18.7c-2-0.6-4.2,0.7-4.8,2.7c-3,10.4-13.5,11.1-22.7,11.6
	c-12.7,0.7-19.4-5.5-27-14.8c-1.3-1.5-4.2-1.5-5.5,0c-7.3,8.8-7.4,26.1,1,34.7c-0.7,4.7-1.4,9.6-7.5,9.2c-2.8-0.2-4.1,2.6-3.7,4.9
	c2.2,14.6,14,21.3,26.2,26.7c-3-1.4-20.1,17.8-22.9,20.7c-5.3,5.4-9.7,15-16.3,19.4c-5.8-3.5,1.2-15.1,2.8-20.1
	c2.3-7.2,0.4-15.7-4-21.6c-2.9-4-9.7-0.1-6.7,3.9c0.1,0.1,0.1,0.1,0.1,0.2c-0.1,0.4-0.2,0.8-0.2,1.2c0,2.3,0.1,4.6-0.1,6.9
	c-0.1,0.8-0.3,2-0.6,2.6c-0.2,0.4,0.2,0.4-0.3,0.3c-0.2,0-0.5-0.1-0.7-0.1c-1.1-2.6-2.5-5-4.2-7.4c-2.9-4-9.7-0.1-6.7,3.9
	c6.7,9,7.6,19.7,7.7,30.5c-5.7,3-8.3,10.2-5,16.6c1.2,2.4,2.7,4.5,4.2,6.7c3.3,4.8,3.2,11.4,3.7,16.9c0.9,8.8,2.4,17.6,3.8,26.3
	c2.3,14.5,4.2,29,5.8,43.5c0.5,4.8,1,9.6,1.4,14.5c0.2,2.6,0.3,5.1,0.3,7.7c0,1.2-1,4.9,0.3,3.9c-3.1,2.3-1.4,7,1.5,7.4
	c1.4,0.8,3.1,0.9,4.7-0.3c2.6-2.1,10.2-1.3,13.3-1.4c5.8-0.2,11.7-0.1,17.5,0.1c11.6,0.3,23.5,2.2,35,1.1
	c11.4-1.1,13.5-9.2,10.5-18.9c-2.9-9.5-3.6-17.1-2.2-27c1.2-8.7,2.9-17.2,3.4-26c19.2-3.2,32.6-21.2,51.4-27.7
	c9.3-3.2,18,0.7,27.3,1.3c5.3,0.4,12.2-0.7,13.6-6.7C287.3,171,279.7,164.3,274.2,162.6z"/>
</svg>
