<?xml version="1.0" encoding="utf-8"?>
<!-- Generator: Adobe Illustrator 19.2.0, SVG Export Plug-In . SVG Version: 6.00 Build 0)  -->
<svg version="1.1" id="Layer_1" xmlns="http://www.w3.org/2000/svg" xmlns:xlink="http://www.w3.org/1999/xlink" x="0px" y="0px"
	 viewBox="0 0 336.2 310.2" style="enable-background:new 0 0 336.2 310.2;" xml:space="preserve">
<style type="text/css">
	.st0{fill:#929497;stroke:#929497;stroke-width:1.2021;stroke-miterlimit:10;}
</style>
<path class="st0" d="M223.5,192.8c0.6-3.7,1.3-14.7,3.2-19.5c0.6-0.3,1.1-0.7,1.6-1.3c8.5-9.7,39.7-17.7,32-36.7
	c-3.3-8.2-12.7-10.3-20.7-11.7c-15.3-2.6-29.9,4.5-44.9,5c-8.8,0.3-9.7-2.2-2-7.1c4-2.5,8-4.9,12-7.4c7.9-5.1,17.3-12.7,18.7-22.5
	c0.9-6.3-0.6-18-8.9-18.9c-8.8-1-14.6,9.3-19.3,15c-3.8,4.6-8.4,7.4-13.6,10.2c-2.2,1.2-4.6,2.3-6.9,3.3c-1,0.3-2,0.6-3,0.9
	c-0.1,0-0.2-0.1-0.3-0.1c4.6-7.6,8.3-16.2,4.9-25c-1-2.5-2.1-4.8-3.6-6.8c2.9-2,5.9-3.9,8.8-5.9c12.8-8.6,24.8-17.9,36.5-27.8
	c4.3-3.6,11.8-10.7,6.6-16.7c-6.4-7.4-18.1-2.7-24.8,1.5c-1.2,0.7-16.7,10.4-17.8,6.5c-1-3.6,0-8-0.6-11.8c-1.1-7.2-9.2-9.6-15-6.2
	c-4.6,2.7-8.2,7-11.8,10.8c-4.4,4.6-9.7,6.7-15.3,9.6c-16.7,8.5-13,21.8-14.4,37.5c0,0,0,0,0,0.1c-3.2,5.2-7.7,9.8-8.7,16
	c-1.1,6.7-0.8,13.6-1,20.4c0,0.9-0.1,1.9-0.2,2.8c-0.7-1-1.4-1.9-2.2-2.8c-3.8-4.5-9.6-4.8-14.4-2c-13.2,7.8-2.4,24.2,6.9,30.2
	c4.7,3,15.9,1.4,15.7,7.8c-0.2,3.8-1.3,7.5-1.5,11.4c-0.1,2.8,0.5,5.6,1.1,8.5c-20.2,6.3-38.6,37.8-12.4,43.8
	c8.8,2,17.9-0.1,26.8-0.3c6.2-0.1,10.2,0.2,9.4,7.1c-0.6,5.6-2.6,11.1-3.6,16.7c-2.2,13.2,7.4,25.3,3.3,38.8
	c-1.9,6.3-14.6,10.5-19.7,14.1c-15.8,11.2-1.7,25.1,13.4,25.4c11,0.2,21.1-6.1,31.7-8c12.7-2.3,25.7,6,38.7,4
	c7.1-1.1,15.1-4.1,13.4-12.6c-0.7-3.5-3.9-6.8-6-9.7c-5.3-7.2-6.2-17.6-5.9-26.1c0.4-12.4,6.9-22.9,9.5-34.7
	C221.1,210,222.2,201.4,223.5,192.8z"/>
</svg>
