<?xml version="1.0" encoding="utf-8"?>
<!-- Generator: Adobe Illustrator 19.2.0, SVG Export Plug-In . SVG Version: 6.00 Build 0)  -->
<svg version="1.1" id="Layer_1" xmlns="http://www.w3.org/2000/svg" xmlns:xlink="http://www.w3.org/1999/xlink" x="0px" y="0px"
	 viewBox="0 0 336.2 310.2" style="enable-background:new 0 0 336.2 310.2;" xml:space="preserve">
<style type="text/css">
	.st0{fill:#FFFFFF;stroke:#929497;stroke-width:1.3917;stroke-miterlimit:10;}
	.st1{fill:#E8B786;}
	.st2{opacity:0.5;fill:url(#SVGID_1_);}
	.st3{opacity:0.5;fill:url(#SVGID_2_);}
	.st4{fill:#E6B784;}
	.st5{fill:#B17946;}
	.st6{fill:#59422F;}
	.st7{opacity:0.5;fill:#8A5D3B;}
	.st8{fill:#F1F1F2;}
	.st9{fill:#404041;}
	.st10{fill:#603813;}
	.st11{fill:#73553B;}
</style>
<g>
	<path class="st0" d="M297.5,136.5c-4.8-7.5-12.4-4.1-19.5-6.5c-9.3-3.2-15.3-11.9-24.2-15.9c-7.5-3.4-15.6-6.1-23.9-5.8
		c-4.6,0.2-8.5,1.4-12.3,3.1c0-8.9-4-18.9-6.6-25.9c-4.6-12.6-12.2-26.4-23.6-34.3c-6.3-5.2-14.5-7.8-23.1-6.5
		C148,47.2,136.8,63,139.4,80.1c2.6,17.1,18,28.9,34.4,26.4c0.3-0.1,0.7-0.1,1-0.2c5.4,2.2,8,7.7,9.9,13.9c0.8,4.7,1.1,9.7,2,13.9
		c1.6,7.2,4.9,13.7,10.6,17.6c-4,2.7-7.8,5.8-11.3,8.9c-1.1-0.5-2.4-0.8-3.9-0.6c-4.8,0.6-9.1-5.1-12.4-7.9
		c-5.1-4.3-11.5-6.7-18.2-5.2c-9,2.1-6.9,16.3,2.2,14.2c5.2-1.2,9,3.9,12.6,7c2.3,2,4.8,3.6,7.4,4.7c-7.3,7.2-13.9,10.6-24.2,4.4
		c-7-4.2-9.8-14.8-14-21.6c-5.5-8.8-17-15.9-27.7-18.1c-0.3-8-1.1-16.6,5.1-22c4.8-4.2,8.4-10,5.5-16.5c-7.3-16.3-31.3,2.3-38.1,8.9
		c-14.4,13.8-21.3,54.8,1.9,60.8c0.6,4.9,0.8,9.8,1.2,14.8c0.4,4.4,2.1,8.2,3.7,12.1c-7.8,14.3-13.8,28.9-6.1,44.5
		c6.8,14,21.9,23.7,37.3,22.6c9.2-0.7,7-14.9-2.2-14.2c-9.4,0.7-17.5-6.7-22.1-14.2c-3.8-6.3-2.9-13.3-0.4-19.8
		c5.7,10.3,15.5,19.7,23,24.9c16.8,11.6,39,14.1,58.5,9.2c23.7-5.9,41.6-24.2,55.3-43.4c8.1-11.4,13.9-23,19.3-35.8
		c3-7.2,10.6-9.3,15.2-14.9c4.2,1.6,8,4,12.9,4.2c6.2,0.3,12.6-3.1,16.8-7.5C298.4,147,300.8,141.6,297.5,136.5z"/>
	<g>
		<g>
			<path class="st1" d="M93.9,152l-0.2-4.2c0,0-12.4-8.6-12.1-13.8c0.3-5.2-4.8-0.4-4.8-0.4s-0.6,9,0.5,14c1.1,5-0.4,5.7,0.3,7.8
				C79.1,159.7,84.2,161.2,93.9,152z"/>
			<path class="st1" d="M81.7,136.2c0,0,0.2-3.3,0.7-4.3c0.5-1-1.9-2.6-3.3-2.4c0,0-2.4,0.3-2.3,4.8C77,138.7,81.7,136.2,81.7,136.2
				z"/>
			<path class="st1" d="M82.3,138.3c0,0,0.2-3.3,0.7-4.3c0.5-1-1.9-2.6-3.3-2.4c0,0-2.4,0.3-2.3,4.8
				C77.5,140.8,82.3,138.3,82.3,138.3z"/>
		</g>
		<path class="st1" d="M116.2,178.2c0,0,7.8-22.3-22.5-25.9l-1.3-4.9c0,0,27.9-5.7,41.9,27.2C134.3,174.7,131.4,192.9,116.2,178.2z"
			/>
	</g>
	
		<linearGradient id="SVGID_1_" gradientUnits="userSpaceOnUse" x1="48.8128" y1="55.77" x2="86.4956" y2="89.2658" gradientTransform="matrix(0.9886 -0.1508 0.1508 0.9886 23.802 96.1162)">
		<stop  offset="0" style="stop-color:#FFFFFF"/>
		<stop  offset="1" style="stop-color:#895E3B"/>
	</linearGradient>
	<path class="st2" d="M93,147.3c-2.1-1.5-8.4-6.3-10.6-10.5c0.1-1,0.3-2.3,0.5-2.8c0.2-0.4-0.2-1-0.8-1.5c0.1-0.2,0.1-0.5,0.2-0.6
		c0.5-1-1.9-2.6-3.3-2.4c0,0-2.1,0.3-2.2,4c0,0-0.1,0.1-0.1,0.1s-0.6,9,0.5,14c1.1,5-0.4,5.7,0.3,7.8c1.5,4.4,6.5,5.8,16-3.1l0,0.1
		c30.3,3.6,22.5,25.9,22.5,25.9c15.2,14.7,18.1-3.5,18.1-3.5C121.5,144.7,97.4,146.7,93,147.3z"/>
	<path class="st1" d="M167.6,153.8c7.2,7.9,11.2,12.7,23,11.7l-3.2,4.3c0,0-12.6,2.9-21.1-12.8C166.3,157,167,153.2,167.6,153.8z"/>
	<path class="st1" d="M167.6,154.3c0,1.6-3.2,2.9-7.2,3c-4,0.1-7.2-1.2-7.3-2.8c0-1.6,3.2-3,7.1-3
		C164.3,151.5,167.6,152.7,167.6,154.3z"/>
	<path class="st1" d="M165,155.9c0.2,0.5-0.9,1.6-2.6,2.3c-1.7,0.7-3.2,0.9-3.4,0.4c-0.2-0.5,0.9-1.6,2.6-2.3
		C163.2,155.6,164.7,155.4,165,155.9z"/>
	<path class="st1" d="M165.1,156.6c0,0,1,0,1.7,1.3c0.8,1.3,0.4-1.9,0.4-1.9l-1.7-1.2L165.1,156.6z"/>
	
		<linearGradient id="SVGID_2_" gradientUnits="userSpaceOnUse" x1="119.0898" y1="86.3601" x2="154.4118" y2="86.3601" gradientTransform="matrix(0.9886 -0.1508 0.1508 0.9886 23.802 96.1162)">
		<stop  offset="0" style="stop-color:#FFFFFF"/>
		<stop  offset="1" style="stop-color:#895E3B"/>
	</linearGradient>
	<path class="st3" d="M167.6,153.8c0,0-0.1,0-0.1,0c-0.6-1.3-3.6-2.3-7.1-2.3c-4,0.1-7.2,1.4-7.1,3c0,1.5,3,2.7,6.7,2.8
		c-0.6,0.5-1,1-0.9,1.3c0.2,0.5,1.8,0.3,3.4-0.4c1-0.5,1.8-1,2.2-1.5c0.2-0.1,0.3-0.1,0.5-0.2l0,0c0,0,1,0,1.7,1.3
		c0,0.1,0.1,0.1,0.1,0.1c8.5,14.5,20.5,11.8,20.5,11.8l3.2-4.3C178.8,166.6,174.8,161.7,167.6,153.8z"/>
	<path class="st4" d="M260.3,143.3c-2.3,11.6-14.9,18.8-28.1,16.1c-13.2-2.7-18.6-14.7-19.6-25.7c-1.1-11.6,14.9-18.8,28.1-16.1
		C253.9,120.3,262.7,131.8,260.3,143.3z"/>
	<path class="st4" d="M219.2,151.5c0,0-32.4,8.2-46.1,34.5c0,0-28.3,16.6-39.2-12.3c0,0-48.5-4.9-46.8,9
		c1.7,13.9,27.3,63.5,73.6,56.8c53.3-7.7,70.8-46.4,83.3-80.7L219.2,151.5z"/>
	<path class="st4" d="M87,184.1c0,0-3.7-31.6,7.8-54.2l5.9,4.5c0,0-10.4,31.7-3,44.4C101.7,185.8,87,184.1,87,184.1"/>
	<g>
		<path class="st1" d="M95.4,131.7l5-2.4c0,0-1.3-17.3,3.7-20.6c5-3.3-2.7-4.5-2.7-4.5s-8.7,5.7-12.5,10c-3.9,4.4-5.5,3.5-7,5.6
			C78.8,124.2,80.7,129.6,95.4,131.7z"/>
		<path class="st1" d="M102.2,110.3c0,0,3.1-2.1,4.3-2.3c1.2-0.3,1.1-3.4,0.1-4.5c0,0-1.9-1.9-5.9,1.3
			C96.7,107.9,102.2,110.3,102.2,110.3z"/>
		<path class="st1" d="M100.6,112.2c0,0,3.1-2.1,4.4-2.3c1.2-0.3,1.1-3.4,0.1-4.5c0,0-1.9-1.9-5.9,1.3
			C95.2,109.9,100.6,112.2,100.6,112.2z"/>
	</g>
	<path class="st1" d="M100,128.3c0,0,1.4,3.5,0.6,6.1c-0.8,2.6-6-2.3-6-2.3l-2.3-4.1L100,128.3z"/>
	<g>
		<path class="st5" d="M192.2,174c0,0-0.1,0-0.1,0l0,0c-0.4-0.4-1-0.5-1.5-0.6c-0.5-0.1-1.1,0-1.7,0l0,0l0,0
			c-0.1-0.2-0.2-0.3-0.4-0.3c-0.2-0.1-0.3-0.1-0.5-0.2c-0.4-0.1-0.7-0.1-1.1-0.1c-0.7,0-1.5,0.1-2.2,0.2c-0.7,0.2-1.4,0.4-2,0.8
			c-0.1,0.1-0.2,0.3-0.2,0.4c0,0.1,0.1,0.3,0.3,0.3c0.3,0.2,0.7,0.2,1,0.3l0.4,0l-0.3,0.2c-0.8,0.4-1.5,0.8-2.2,1.3
			c-0.7,0.5-1.3,1.1-1.8,1.7c-0.2,0.3-0.4,0.7-0.5,1c-0.1,0.4-0.1,0.7,0.2,1c0.2,0.2,0.5,0.4,0.9,0.5c0.4,0.1,0.8,0.1,1.2,0.1
			c0.8,0,1.6-0.1,2.4-0.3c0.8-0.2,1.6-0.5,2.4-0.8c1.5-0.6,3-1.5,4.1-2.6l0.7-0.7l0.2,1l0,0l-0.7-0.4c0.1,0,0.2,0,0.2-0.1
			c0.1,0,0.1,0,0.2,0c0.1,0,0.3,0,0.4,0c0.3,0,0.5,0.1,0.7,0.1c0.2,0.1,0.5,0.2,0.7,0.3c0.1,0.1,0.2,0.1,0.3,0.2l0.1,0l0,0l0,0
			c-0.1-0.1,0,0-0.1,0l0,0l0,0l0,0l0,0l0,0l0.1,0.1l0,0l0.1,0l1.3,0.9c0.4,0.3,0.8,0.6,1.3,0.9l1.3,0.7c0.4,0.2,0.9,0.5,1.4,0.7
			l1.4,0.6c0.5,0.2,1,0.3,1.4,0.5c0.5,0.1,1,0.3,1.5,0.4l1.5,0.3l1.5,0.2c0.5,0.1,1,0.1,1.5,0.1c0.5,0,1,0,1.5,0
			c0.5,0,1-0.1,1.5-0.2c0.5-0.1,1-0.2,1.5-0.3c0.5-0.1,1-0.3,1.5-0.4c0.5-0.2,1-0.3,1.4-0.6c0.5-0.2,0.9-0.4,1.3-0.7l-0.2,0.3
			l1.4-5.1l0.6,0.5l-1.6,0.7c-0.5,0.3-1.1,0.4-1.6,0.6c-0.5,0.2-1.1,0.4-1.6,0.5c-0.5,0.2-1.1,0.3-1.7,0.4c-0.6,0.1-1.1,0.2-1.7,0.3
			c-0.6,0.1-1.1,0.1-1.7,0.1c-0.6,0-1.1,0-1.7-0.1c-0.6,0-1.1-0.2-1.7-0.2c-0.6-0.1-1.1-0.2-1.7-0.4c-0.5-0.2-1.1-0.3-1.6-0.5
			c-0.5-0.2-1.1-0.4-1.6-0.6c-0.5-0.2-1.1-0.4-1.6-0.7C196.3,176,194.3,175,192.2,174z M192.2,174c2,1,4.1,2,6.2,2.8
			c0.5,0.2,1.1,0.4,1.6,0.6c0.5,0.2,1.1,0.4,1.6,0.5c0.5,0.2,1.1,0.3,1.6,0.4c0.5,0.1,1.1,0.2,1.7,0.3c0.6,0,1.1,0.1,1.7,0.1
			c0.6,0,1.1,0,1.7,0c0.6,0,1.1-0.1,1.7-0.2c0.6-0.1,1.1-0.2,1.6-0.3c0.5-0.1,1.1-0.3,1.6-0.5c0.5-0.2,1.1-0.4,1.6-0.6
			c0.5-0.2,1-0.4,1.5-0.7l1.5-0.8l0.8-0.4l-0.2,0.9l-1.2,5.2l0,0.2l-0.2,0.1c-0.5,0.3-0.9,0.6-1.4,0.8c-0.5,0.2-1,0.4-1.5,0.6
			c-0.5,0.2-1,0.4-1.6,0.5c-0.5,0.1-1.1,0.3-1.6,0.3c-0.5,0.1-1.1,0.2-1.6,0.2c-0.5,0-1.1,0.1-1.6,0.1c-0.5,0-1.1,0-1.6-0.1
			l-1.6-0.2l-1.6-0.4c-0.5-0.1-1-0.3-1.5-0.5c-0.5-0.2-1-0.3-1.5-0.6l-1.5-0.7c-0.5-0.2-1-0.5-1.4-0.8l-1.4-0.8
			c-0.4-0.3-0.9-0.6-1.3-0.9l-1.3-0.9l0.1,0l-0.1-0.1l0,0l-0.1,0l0,0l-0.1,0c-0.1-0.1-0.1-0.1-0.2-0.1c-0.1-0.1-0.3-0.2-0.4-0.2
			c-0.1-0.1-0.3-0.1-0.4-0.1c-0.1,0-0.1,0-0.2,0l-0.1,0c0,0-0.1,0-0.1,0l-0.7-0.4l0,0l0.9,0.3c-1.4,1.2-2.9,2-4.6,2.6
			c-0.8,0.3-1.7,0.6-2.5,0.7c-0.9,0.2-1.7,0.3-2.6,0.2c-0.4,0-0.9-0.1-1.3-0.2c-0.4-0.1-0.9-0.3-1.2-0.8c-0.3-0.4-0.3-1-0.1-1.4
			c0.1-0.4,0.4-0.8,0.7-1.2c0.6-0.7,1.2-1.2,2-1.7c0.7-0.5,1.5-0.9,2.2-1.2l0,0.2c-0.4-0.1-0.7-0.1-1.1-0.3
			c-0.2-0.1-0.4-0.2-0.4-0.5c0-0.2,0.2-0.4,0.3-0.5c0.6-0.5,1.3-0.6,2.1-0.8c0.7-0.1,1.5-0.2,2.2-0.2c0.4,0,0.7,0,1.1,0.1
			c0.2,0,0.4,0.1,0.5,0.2c0.2,0.1,0.3,0.2,0.4,0.4l0,0c0.6-0.1,1.1-0.1,1.7,0c0.5,0.1,1.1,0.2,1.5,0.6l0,0
			C192.1,174,192.2,174,192.2,174z"/>
	</g>
	<path class="st4" d="M225.8,126.1c0,0-21.3,3.6-25.9,0.9c0,0-5.6,0.2-4.4,3.5c1.2,3.3,3,12.6,16.7,19
		C225.8,155.8,225.8,126.1,225.8,126.1z"/>
	<path class="st6" d="M200.9,128.3c1.7-1.2-2.7-6-6.4-2.8c-0.9,0.8-1,3.5,0.5,4.8C195,130.3,196.6,131.5,200.9,128.3z"/>
	<g>
		<path class="st4" d="M92.8,198.4c0,0-0.6,1-1.4,2.7c-0.4,0.9-0.9,2-1.5,3.2c-0.6,1.2-1.1,2.7-1.7,4.2c-0.5,1.6-1.1,3.3-1.6,5.1
			c-0.5,1.8-0.8,3.8-1.1,5.8c-0.3,2-0.2,4.1-0.1,6.2c0.1,2.1,0.7,4.2,1.4,6.2l0.6,1.5c0.2,0.5,0.5,0.9,0.7,1.4
			c0.4,1,1.1,1.8,1.7,2.7c0.3,0.5,0.6,0.8,1,1.2c0.3,0.4,0.6,0.8,1,1.2c0.7,0.7,1.4,1.5,2.2,2.2c0.8,0.6,1.5,1.3,2.3,1.9
			c0.8,0.6,1.6,1.1,2.4,1.7c1.6,0.9,3.1,1.9,4.7,2.6c0.7,0.4,1.5,0.7,2.1,1.1c0.7,0.3,1.4,0.6,2,0.9c0.6,0.3,1.2,0.5,1.8,0.8
			c0.6,0.2,1.1,0.4,1.5,0.6c1.8,0.7,2.9,1.1,2.9,1.1s-1.1-0.2-3.1-0.6c-0.5-0.1-1-0.2-1.6-0.3c-0.6-0.2-1.2-0.3-1.9-0.5
			c-0.7-0.2-1.4-0.4-2.1-0.6c-0.7-0.2-1.5-0.6-2.3-0.9c-1.6-0.6-3.3-1.4-5.1-2.3c-0.9-0.5-1.7-1-2.6-1.6c-0.9-0.6-1.7-1.3-2.6-1.9
			c-0.9-0.7-1.6-1.5-2.5-2.2c-0.8-0.9-1.6-1.7-2.2-2.6c-0.7-1-1.4-1.9-1.9-3c-0.3-0.5-0.6-1-0.8-1.6l-0.7-1.7
			c-0.8-2.3-1.3-4.6-1.4-6.9c-0.2-2.3,0-4.6,0.3-6.8c0.1-1.1,0.4-2.1,0.6-3.1c0.3-1,0.5-2,0.9-2.9c0.6-1.9,1.4-3.6,2.1-5.2
			c1.5-3.1,3-5.5,4.2-7.1C92,199.2,92.8,198.4,92.8,198.4z"/>
	</g>
	<path class="st7" d="M251.7,129c0,0,7.5,17.3,5.6,20.6c-2,3.3,3.1-1.9,4-7.6C262.2,136.3,251.7,129,251.7,129z"/>
	<polygon class="st4" points="205.1,177.8 219.9,182.7 225.8,173.1 215.7,171 	"/>
	<path class="st7" d="M96,174.7l2.3,5.9l1.3-6.4C99.6,174.2,98.6,173.8,96,174.7z"/>
	<path class="st4" d="M254.7,127.7c0,0,3.4,1.3,7.4,1.1c4-0.2,18.2,17.2,27.4,12c9.3-5.3-3.5,10.4-11.5,10.8
		c-8,0.4-19.8-7.9-20.7-13c-1-5.1-5.1-9.5-5.7-9.6C251.1,128.9,254.7,127.7,254.7,127.7z"/>
	<path class="st7" d="M218,149.9c0,0,15.2,6.5,20.7,5.1c0,0-29.4,4.6-29.4,0.4c0-0.7,9.7-3.7,9.7-3.7L218,149.9z"/>
	<g>
		
			<ellipse transform="matrix(0.9886 -0.1507 0.1507 0.9886 -9.2755 26.3109)" class="st8" cx="168.9" cy="74.3" rx="24.1" ry="24.1"/>
		<g>
			<g>
				<g>
					<path class="st9" d="M183.2,54.9c-2.5-1.9-5.3-3.2-8.4-4c-3.1-0.8-6.4-0.9-9.6-0.5c-3.2,0.5-6.2,1.6-9,3.3
						c-2.7,1.6-4.9,3.7-6.8,6.3c-1.9,2.5-3.2,5.3-4,8.4c-0.8,3.1-1,6.4-0.5,9.6c0.5,3.2,1.6,6.2,3.3,9c1.6,2.7,3.7,4.9,6.3,6.8
						c2.5,1.9,5.3,3.2,8.4,4c3.1,0.8,6.4,0.9,9.6,0.5c3.2-0.5,6.2-1.6,9-3.3c2.7-1.6,4.9-3.7,6.8-6.3c1.9-2.5,3.2-5.3,4-8.4
						c0.8-3.1,1-6.4,0.5-9.6c-0.5-3.2-1.6-6.2-3.3-9C187.8,59,185.7,56.7,183.2,54.9z M152.9,57.9c0.2-0.2,0.4-0.4,0.6-0.6
						c1-1,2.2-1.8,3.4-2.6c2.6-1.6,5.5-2.7,8.5-3.1c2-0.3,4.1-0.3,6.1-0.1c-0.7,0.4-1.6,1.2-2.9,2.7c-1.3,0.1-2.7,0.3-4,0.6
						c-1.7,0.4-3.4,1.1-5,1.9c-1.5,0.8-2.6,1.6-3.3,2.2c-1.3-0.3-3-0.5-3.9-0.7C152.6,58.2,152.8,58,152.9,57.9z M175.5,60.5
						l-2.4,11.8l-9.5,3.4l-9.4-7.1c0-3.9,2.1-7.6,2.1-7.6c0,0,1.5-1.5,4.1-2.9c1.5-0.8,3.1-1.4,4.6-1.8c1.3-0.3,2.6-0.5,3.9-0.5
						L175.5,60.5z M146.9,76.9c0,1.7,0.2,3.3,0.6,5c-0.3-0.4-0.5-0.7-0.6-0.9c-0.3-1-0.5-2.1-0.7-3.2c-0.5-3.4-0.3-6.7,0.6-9.7
						c0.1,1.5,0.4,3.1,0.7,4.2C147.1,73.8,146.9,75.3,146.9,76.9z M150.2,85.3c-0.4-0.8-0.8-2-1.2-3.5c-0.4-1.6-0.6-3.3-0.6-4.9
						c0-1.2,0.1-2.5,0.4-3.7c1.4-1.6,3.5-2.8,4.6-3.4l9.2,7l0.5,9.1l-7.4,3.8C153.6,88.5,151.7,86.9,150.2,85.3z M175.8,94.7
						c-1.6,1.4-5.9,2.3-7.7,2.7c-2-0.1-4-0.4-5.9-1c-1.7-0.5-3.3-1.2-4.8-2.1c0,0-0.6-2.4-0.7-3.3l7.4-3.8l9.6,2.5L175.8,94.7
						C175.8,94.7,175.8,94.7,175.8,94.7z M189.6,84.4c-1.1,2.2-2.4,4.2-4.1,5.9c-1.6,1.6-4,2.4-6.1,3.1c-0.2,0-2.2,0.7-2.2,0.6l-2-5
						l5.4-7.6l8.3-2.1c0.3,1.3,0.8,3.3,1.1,4.4C189.8,84,189.7,84.2,189.6,84.4z M188.7,77.7c0,0.1,0,0.1-0.1,0.2l-8.3,2.1l-5.7-7.2
						l2.4-11.8l5.8-0.5c1.4,0.8,2.6,1.8,3.8,2.9c1.4,1.4,2.5,2.9,3.4,4.6C190.2,73.6,189.2,76.6,188.7,77.7z M189.8,64.7
						c-0.6-0.9-1.4-1.7-2.2-2.5c-1.3-1.2-2.7-2.3-4.3-3.2c-0.4-1.2-1.5-3.1-3.7-4.9c0,0,0.1,0,0.1,0.1c0.1,0.1,0.3,0.1,0.4,0.2
						c1.5,0.8,2.8,1.8,4.1,2.9C186.6,59.3,188.5,61.8,189.8,64.7C189.8,64.6,189.8,64.7,189.8,64.7z"/>
				</g>
			</g>
		</g>
	</g>
	<g>
		<path class="st10" d="M195.4,130.2c0,0,0.9,2,2.7,4.6c0.4,0.7,0.9,1.4,1.5,2.1c0.6,0.7,1.2,1.5,1.8,2.2c1.3,1.5,2.9,2.9,4.7,4.1
			c0.9,0.6,1.8,1.1,2.7,1.5c0.9,0.4,1.9,0.7,2.9,1c0.5,0.1,1,0.2,1.4,0.3c0.5,0,0.9,0.1,1.4,0.1c0.5,0,0.9,0,1.3,0
			c0.4,0,0.8-0.1,1.2-0.1c0.8-0.1,1.5-0.2,2.1-0.3c0.6-0.2,1.2-0.3,1.6-0.4c0.9-0.3,1.4-0.4,1.4-0.4s-0.5,0.2-1.4,0.6
			c-0.4,0.2-1,0.3-1.6,0.5c-0.6,0.2-1.4,0.3-2.2,0.5c-0.4,0-0.8,0.1-1.3,0.1c-0.4,0-0.9,0-1.4,0c-0.5,0-0.9-0.1-1.4-0.1
			c-0.5-0.1-1-0.1-1.5-0.2c-1-0.2-2-0.5-3-1c-1-0.4-1.9-1-2.9-1.5c-1.8-1.2-3.4-2.7-4.8-4.2c-1.3-1.5-2.4-3.1-3.2-4.5
			c-0.8-1.4-1.4-2.6-1.8-3.5C195.5,130.7,195.4,130.2,195.4,130.2z"/>
	</g>
	<path class="st8" d="M215.7,122.6c0,0,1.5-1.9,2.7-0.9c1.2,1,1.6,2.3,1,3.8c-0.7,1.6-3,2.3-4.1,1.1
		C213.6,125,215.7,122.6,215.7,122.6z"/>
	<g>
		<g>
			<path class="st11" d="M219,126.2c0,0,0-0.1,0.1-0.4c0.1-0.2,0.1-0.6,0.2-1c0-0.4,0.1-0.9,0-1.4c0-0.3-0.1-0.5-0.2-0.8
				c-0.1-0.2-0.2-0.5-0.4-0.7c-0.1-0.1-0.2-0.2-0.3-0.2c-0.1-0.1-0.2-0.1-0.3-0.2l-0.4,0c-0.1,0-0.2,0-0.4,0.1
				c-0.2,0.1-0.5,0.1-0.7,0.3c-0.2,0.1-0.4,0.2-0.6,0.4c-0.3,0.2-0.6,0.5-0.8,0.7c-0.2,0.2-0.3,0.3-0.3,0.3s0.1-0.1,0.2-0.3
				c0.2-0.2,0.4-0.5,0.7-0.8c0.1-0.2,0.4-0.3,0.6-0.4c0.2-0.1,0.5-0.2,0.7-0.3c0.1,0,0.3,0,0.4-0.1l0.4,0c0.1,0.1,0.3,0.1,0.4,0.2
				c0.1,0.1,0.3,0.2,0.4,0.3c0.2,0.2,0.3,0.5,0.4,0.8c0.1,0.3,0.2,0.6,0.2,0.8c0,0.3,0,0.5,0,0.8c0,0.2-0.1,0.5-0.1,0.7
				c-0.1,0.4-0.2,0.8-0.3,1C219.1,126.1,219,126.2,219,126.2z"/>
		</g>
		<path class="st11" d="M216.9,123.9c-0.8,1.1-1.1,2.4-0.6,2.8c0.4,0.4,1.5-0.1,2.3-1.2c0.8-1.1,1.1-2.4,0.6-2.8
			C218.8,122.2,217.7,122.8,216.9,123.9z"/>
		<path class="st8" d="M217.9,123.5c-0.1,0.2-0.1,0.4,0,0.5c0.1,0.1,0.3,0.1,0.4-0.1c0.1-0.2,0.1-0.4,0-0.5
			C218.2,123.3,218.1,123.4,217.9,123.5z"/>
	</g>
	<path class="st8" d="M235.2,134.7c0,0,1.1-3-1.8-4.5c-2.9-1.5-5.3-1.7-6.8-0.2c-1.7,1.6,0.1,5.3,3.2,6.7
		C234.1,138.7,235.2,134.7,235.2,134.7z"/>
	<g>
		<g>
			<path class="st11" d="M225.8,130.7c0,0,0.2-0.2,0.5-0.4c0.1-0.1,0.3-0.3,0.6-0.4c0.2-0.2,0.5-0.3,0.8-0.5
				c0.2-0.1,0.3-0.1,0.5-0.2c0.2,0,0.4-0.1,0.6-0.2c0.4-0.1,0.8-0.1,1.2-0.2c0.4,0,0.9,0,1.4,0.1c0.5,0.1,0.9,0.2,1.4,0.4l0.6,0.3
				c0.2,0.1,0.4,0.3,0.6,0.4c0.2,0.1,0.3,0.3,0.5,0.5c0.1,0.2,0.3,0.3,0.4,0.5c0.1,0.2,0.2,0.4,0.3,0.6c0.1,0.2,0.1,0.4,0.2,0.6
				c0.1,0.4,0.1,0.8,0.1,1.1c0,0.3-0.1,0.7-0.1,0.9c0,0.3-0.1,0.5-0.2,0.7c-0.1,0.4-0.2,0.6-0.2,0.6s0-0.2,0.1-0.6
				c0-0.2,0.1-0.4,0.1-0.7c0-0.3,0-0.6,0-0.9c-0.1-0.3-0.1-0.7-0.2-1c-0.1-0.2-0.1-0.4-0.2-0.5c-0.1-0.2-0.2-0.3-0.3-0.5
				c-0.1-0.2-0.2-0.3-0.4-0.5c-0.1-0.2-0.3-0.3-0.5-0.4c-0.2-0.1-0.3-0.3-0.5-0.4l-0.6-0.3c-0.4-0.2-0.8-0.3-1.2-0.4
				c-0.4-0.1-0.8-0.1-1.3-0.1c-0.4,0-0.8,0-1.2,0.1c-0.2,0-0.4,0.1-0.5,0.1c-0.2,0.1-0.3,0.1-0.5,0.2c-0.3,0.1-0.6,0.2-0.8,0.4
				c-0.3,0.1-0.5,0.2-0.6,0.4C226,130.6,225.8,130.7,225.8,130.7z"/>
		</g>
		
			<ellipse transform="matrix(0.4131 -0.9107 0.9107 0.4131 14.4017 286.4438)" class="st11" cx="229.4" cy="132" rx="3.3" ry="2.4"/>
		
			<ellipse transform="matrix(0.4111 -0.9116 0.9116 0.4111 16.2166 287.3201)" class="st8" cx="230.5" cy="131.1" rx="0.5" ry="0.6"/>
	</g>
	<g>
		<path class="st11" d="M232.1,122c0,0,0.5-0.3,1.3-0.4c0.4-0.1,0.9-0.1,1.4-0.1c0.3,0,0.5,0.1,0.8,0.2c0.3,0.1,0.5,0.2,0.8,0.3
			c0.2,0.1,0.5,0.3,0.7,0.5c0.2,0.2,0.4,0.4,0.6,0.5c0.2,0.2,0.3,0.4,0.5,0.6c0.1,0.2,0.2,0.4,0.3,0.6c0.2,0.3,0.3,0.7,0.4,0.9
			c0.1,0.2,0.1,0.3,0.1,0.3s-0.1-0.1-0.2-0.3c-0.1-0.2-0.3-0.5-0.5-0.8c-0.1-0.2-0.2-0.3-0.4-0.5c-0.2-0.2-0.3-0.3-0.5-0.5
			c-0.2-0.2-0.4-0.3-0.6-0.5c-0.2-0.1-0.4-0.3-0.6-0.4c-0.2-0.1-0.5-0.2-0.7-0.3c-0.2-0.1-0.5-0.1-0.7-0.2c-0.5-0.1-0.9-0.1-1.3,0
			C232.6,121.9,232.1,122,232.1,122z"/>
	</g>
	<g>
		<path class="st11" d="M224,119.1c0,0-0.1-0.3-0.4-0.6c-0.3-0.3-0.8-0.7-1.4-0.7c-0.1,0-0.3,0-0.4,0c-0.1,0-0.3,0-0.4,0.1
			c-0.3,0.1-0.5,0.1-0.7,0.2c-0.2,0.1-0.4,0.2-0.5,0.2c-0.1,0-0.2,0.1-0.2,0.1s0.1,0,0.2-0.1c0.1-0.1,0.3-0.2,0.5-0.3
			c0.2-0.1,0.5-0.2,0.8-0.3c0.1-0.1,0.3-0.1,0.5-0.1c0.2,0,0.3,0,0.5,0c0.3,0.1,0.7,0.2,0.9,0.4c0.1,0.1,0.2,0.2,0.3,0.3
			c0.1,0.1,0.2,0.2,0.2,0.3C224,118.7,224,119.1,224,119.1z"/>
	</g>
</g>
</svg>
