<?xml version="1.0" encoding="utf-8"?>
<!-- Generator: Adobe Illustrator 19.2.0, SVG Export Plug-In . SVG Version: 6.00 Build 0)  -->
<svg version="1.1" id="Layer_1" xmlns="http://www.w3.org/2000/svg" xmlns:xlink="http://www.w3.org/1999/xlink" x="0px" y="0px"
	 viewBox="0 0 336.2 310.2" style="enable-background:new 0 0 336.2 310.2;" xml:space="preserve">
<style type="text/css">
	.st0{fill:#FFFFFF;stroke:#929497;stroke-width:1.2021;stroke-miterlimit:10;}
	.st1{fill:#E4A2AF;}
	.st2{opacity:0.5;fill:url(#SVGID_1_);}
	.st3{opacity:0.5;fill:url(#SVGID_2_);}
	.st4{opacity:0.3;fill:url(#SVGID_3_);}
	.st5{opacity:0.5;fill:url(#SVGID_4_);}
	.st6{opacity:0.5;fill:url(#SVGID_5_);}
	.st7{fill:#6C1B1D;}
	.st8{fill:#F1F1F2;}
	.st9{fill:#EE4036;}
	.st10{opacity:0.6;fill:#6C1B1D;}
</style>
<g>
	<path class="st0" d="M221.4,190.5c0.6-3.6,1.2-14.4,3.2-19.2c0.5-0.3,1.1-0.7,1.5-1.3c8.4-9.6,39.1-17.4,31.5-36.1
		c-3.3-8-12.5-10.1-20.4-11.5c-15-2.6-29.4,4.5-44.2,4.9c-8.6,0.2-9.5-2.2-2-7c3.9-2.5,7.9-4.8,11.8-7.3c7.8-5,17-12.5,18.4-22.1
		c0.9-6.2-0.6-17.7-8.8-18.6c-8.6-0.9-14.4,9.2-19,14.7c-3.7,4.5-8.3,7.3-13.4,10.1c-2.2,1.2-4.5,2.2-6.8,3.2c-1,0.3-2,0.6-3,0.9
		c-0.1,0-0.2-0.1-0.3-0.1c4.5-7.4,8.1-15.9,4.8-24.6c-1-2.5-2.1-4.7-3.6-6.7c2.9-1.9,5.8-3.9,8.6-5.8c12.6-8.5,24.4-17.6,35.9-27.4
		c4.3-3.6,11.6-10.5,6.5-16.4c-6.3-7.3-17.8-2.6-24.4,1.5c-1.2,0.7-16.4,10.2-17.5,6.4c-1-3.6,0-7.9-0.6-11.6
		c-1.1-7.1-9-9.5-14.8-6.1c-4.5,2.6-8.1,6.9-11.6,10.6c-4.3,4.5-9.5,6.6-15.1,9.4c-16.4,8.4-12.8,21.5-14.1,36.9c0,0,0,0,0,0.1
		c-3.2,5.1-7.6,9.7-8.6,15.7c-1.1,6.6-0.7,13.4-1,20c0,0.9-0.1,1.8-0.2,2.8c-0.7-0.9-1.4-1.9-2.1-2.8c-3.7-4.4-9.4-4.8-14.2-1.9
		c-12.9,7.7-2.4,23.9,6.8,29.7c4.6,2.9,15.7,1.4,15.4,7.7c-0.2,3.8-1.3,7.4-1.4,11.2c-0.1,2.7,0.5,5.5,1,8.3
		c-19.9,6.2-38,37.2-12.2,43c8.7,2,17.6-0.1,26.4-0.3c6.1-0.1,10,0.2,9.3,6.9c-0.6,5.5-2.6,10.9-3.5,16.4
		c-2.2,12.9,7.3,24.9,3.3,38.2c-1.8,6.2-14.3,10.3-19.3,13.9c-15.6,11-1.6,24.7,13.2,25c10.8,0.2,20.7-6,31.1-7.9
		c12.5-2.2,25.3,5.9,38.1,3.9c7-1.1,14.9-4,13.2-12.4c-0.7-3.5-3.9-6.7-5.9-9.5c-5.2-7.1-6.1-17.3-5.8-25.7
		c0.4-12.2,6.8-22.5,9.4-34.1C219.1,207.4,220.1,198.9,221.4,190.5z"/>
	<path class="st1" d="M149.6,73.3c0,0,0.8-13.1,6.8-19.4c6-6.2,44.3-17.4,53.1-26.1c8.9-8.7-24.7,25.3-37.9,28
		C160.9,57.9,151.6,67.9,149.6,73.3z"/>
	<path class="st1" d="M135.2,75.6c0,0-6.6-22.7-2-29.6c4.5-6.8,24.3-17.1,28.3-23.6c4-6.6-15.1,26.5-21.3,32.7
		C133.9,61.3,135.2,75.6,135.2,75.6z"/>
	
		<linearGradient id="SVGID_1_" gradientUnits="userSpaceOnUse" x1="201.636" y1="81.633" x2="195.3513" y2="100.4883" gradientTransform="matrix(0.9968 7.990000e-002 -7.990000e-002 0.9968 -19.8819 -37.2217)">
		<stop  offset="0" style="stop-color:#FFFFFF"/>
		<stop  offset="1" style="stop-color:#6C1B1D"/>
	</linearGradient>
	<path class="st2" d="M149.6,73.3c0,0,0.8-13.1,6.8-19.4c6-6.2,44.3-17.4,53.1-26.1c8.9-8.7-24.7,25.3-37.9,28
		C160.9,57.9,151.6,67.9,149.6,73.3z"/>
	
		<linearGradient id="SVGID_2_" gradientUnits="userSpaceOnUse" x1="168.1712" y1="70.4795" x2="161.8864" y2="89.3349" gradientTransform="matrix(0.9968 7.990000e-002 -7.990000e-002 0.9968 -19.8819 -37.2217)">
		<stop  offset="0" style="stop-color:#FFFFFF"/>
		<stop  offset="1" style="stop-color:#6C1B1D"/>
	</linearGradient>
	<path class="st3" d="M135.2,75.6c0,0-6.6-22.7-2-29.6c4.5-6.8,24.3-17.1,28.3-23.6c4-6.6-15.1,26.5-21.3,32.7
		C133.9,61.3,135.2,75.6,135.2,75.6z"/>
	<path class="st1" d="M207.1,159.6c0,0,0.3-16.7,9.2-14.8c0,0-1.8,2.6,0.6,6c2.5,3.4,5.8,18.6-2.6,18.2
		C206,168.6,207.1,159.6,207.1,159.6z"/>
	
		<linearGradient id="SVGID_3_" gradientUnits="userSpaceOnUse" x1="249.013" y1="162.979" x2="248.0207" y2="184.8085" gradientTransform="matrix(0.9968 7.990000e-002 -7.990000e-002 0.9968 -19.8819 -37.2217)">
		<stop  offset="0" style="stop-color:#FFFFFF"/>
		<stop  offset="1" style="stop-color:#6C1B1D"/>
	</linearGradient>
	<path class="st4" d="M207.1,159.6c0,0,0.3-16.7,9.2-14.8c0,0-1.8,2.6,0.6,6c2.5,3.4,5.8,18.6-2.6,18.2
		C206,168.6,207.1,159.6,207.1,159.6z"/>
	<path class="st1" d="M181.6,202.3c0,0-19.4,18.5-20.7,25.9c-1.3,7.4-10.3,6.9-12.3,4.5c-2-2.4,0.4-38.8,9.9-40.3
		C168.1,191,181.6,202.3,181.6,202.3z"/>
	<path class="st1" d="M160.4,230c0,0,8.5,20.6-0.1,38.7l-8.8-0.7c0,0,1.5-24.1-2.4-33.9C145.3,224.4,160.4,230,160.4,230z"/>
	<path class="st1" d="M139.5,285.7c-0.2,2.3-2.9,4-6,3.8c-3.1-0.2-5.5-2.3-5.3-4.7c0.2-2.3,2.8-3.3,5.9-3.1
		C137.3,282,139.7,283.4,139.5,285.7z"/>
	<path class="st1" d="M136.4,289.1c0,0,18.5-4.2,24.9-4.4c9.3-0.4,0.8-15.9-1-16.1c-1.7-0.1-8.8-0.7-8.8-0.7s-9.4,11.9-15.4,13.6
		C132.3,282.5,136.4,289.1,136.4,289.1z"/>
	
		<linearGradient id="SVGID_4_" gradientUnits="userSpaceOnUse" x1="192.3042" y1="311.0589" x2="199.7469" y2="234.3983" gradientTransform="matrix(0.9968 7.990000e-002 -7.990000e-002 0.9968 -19.8819 -37.2217)">
		<stop  offset="0" style="stop-color:#FFFFFF"/>
		<stop  offset="1" style="stop-color:#6C1B1D"/>
	</linearGradient>
	<path class="st5" d="M160.3,268.6c8.6-18.1,0.1-38.7,0.1-38.7s0,0,0,0c0.2-0.5,0.4-1.1,0.5-1.7c1.3-7.4,20.7-25.9,20.7-25.9
		s-13.5-11.3-23.1-9.9c-9.6,1.5-12,37.9-9.9,40.3c0,0,0.1,0.1,0.1,0.1c0.1,0.4,0.2,0.7,0.4,1.2c3.9,9.8,2.4,33.9,2.4,33.9
		s-9.4,11.9-15.4,13.6c-0.3,0.1-0.6,0.3-0.8,0.4c-0.3-0.1-0.7-0.1-1.1-0.1c-3.1-0.3-5.7,0.7-5.9,3.1c-0.2,2.3,2.2,4.4,5.3,4.7
		c1.2,0.1,2.3-0.1,3.3-0.5c2.8-0.6,18.6-4.1,24.5-4.3C170.6,284.3,162.1,268.8,160.3,268.6z"/>
	<path class="st1" d="M167.5,86.9c-0.9,11.8-8.5,17.9-20.8,21.4c-11.9,3.3-24.8-5.7-23.8-17.5c0.9-11.8,11.7-23.9,24-23
		C159.1,68.8,168.4,75.1,167.5,86.9z"/>
	<path class="st1" d="M159.4,102.4c0,0-3.1,28.9-0.5,32.7c2.7,3.9,39.1,14.1,48.2,24.4c7.3,8.4,9.5,15.7,2.3,31.2
		c-2.2,4.8-9.7,16-34.2,10.4c-24.4-5.6-38.7-18.4-42.4-29.9c-3.7-11.6-9.6-45.6,10.8-62C164,92.7,159.4,102.4,159.4,102.4z"/>
	<path class="st1" d="M187.2,196.8c0,0,0.5,26.6,5.2,30.9c4.6,4.4,6.6,0.5,6.6,0.5s11.8-21.8,11.2-39
		C209.4,172,187.2,196.8,187.2,196.8z"/>
	<path class="st1" d="M190.4,224.1c0,0-11.2,19.7-2,41.9l6,0.5c0,0,1.5-32.1,4.5-38.2C201.9,222.2,190.4,224.1,190.4,224.1z"/>
	<path class="st1" d="M188.4,266c0,0-3.5,13.4-5.8,14.5c-2.2,1.1,1.3,4.4,1.3,4.4s21,3.6,20.3,0.2c-1-5.2-9.8-19.1-9.8-19.1
		L188.4,266z"/>
	<path class="st1" d="M155.2,111.1c0,0,26.5-1.9,31.2-6.3c4.7-4.3,0.7,6.2,0.7,6.2s-28.1,9.4-31,13
		C153.2,127.7,155.2,111.1,155.2,111.1z"/>
	<path class="st1" d="M186.3,104.9c0,0,15.5-10,19-14.2l3.4,1.5c0,0-15.5,19-21.7,18.9C180.9,111,186.3,104.9,186.3,104.9z"/>
	<ellipse transform="matrix(0.1537 -0.9881 0.9881 0.1537 90.8208 277.1136)" class="st1" cx="207.2" cy="85.5" rx="9" ry="4.3"/>
	<ellipse transform="matrix(0.6721 -0.7405 0.7405 0.6721 3.7945 185.4566)" class="st1" cx="211.3" cy="88.4" rx="3.4" ry="1.4"/>
	<g>
		<ellipse transform="matrix(0.816 -0.578 0.578 0.816 -48.2271 79.0134)" class="st1" cx="100" cy="115.3" rx="1.2" ry="2.5"/>
		<path class="st1" d="M137.4,115.7c0,0-12,9.7-15.7,9.4c-3.6-0.3-0.4,5.3-0.4,5.3s9.4,1.6,10.4-1.7
			C132.8,125.4,137.4,115.7,137.4,115.7z"/>
		<path class="st1" d="M121.7,125.1c0,0-12-3.8-14.7-6.8l-4.3,1c0,0,9.8,13.2,19.5,11.3"/>
		
			<ellipse transform="matrix(8.002530e-002 -0.9968 0.9968 8.002530e-002 -16.0561 207.7155)" class="st1" cx="104.5" cy="112.6" rx="7.2" ry="4.6"/>
	</g>
	
		<linearGradient id="SVGID_5_" gradientUnits="userSpaceOnUse" x1="134.6352" y1="134.0915" x2="160.6831" y2="149.3481" gradientTransform="matrix(0.9968 7.990000e-002 -7.990000e-002 0.9968 -19.8819 -37.2217)">
		<stop  offset="0" style="stop-color:#FFFFFF"/>
		<stop  offset="1" style="stop-color:#6C1B1D"/>
	</linearGradient>
	<path class="st6" d="M121.7,125.1c0,0-12-3.8-14.7-6.8l0,0c1.2-1.2,2-3.2,2.2-5.5c0.3-4-1.5-7.4-4.1-7.6c-2.6-0.2-4.9,2.9-5.2,6.8
		c0,0.4,0,0.9,0,1.3c-0.5-0.3-1-0.5-1.3-0.3c-0.5,0.4-0.3,1.6,0.5,2.7c0.5,0.8,1.2,1.3,1.7,1.4c0.5,0.9,1.1,1.6,1.9,2l0,0
		c0,0,9.8,13.2,19.5,11.3l0,0c2.3,0.3,8.7,0.9,9.6-1.9c1.1-3.4,5.6-13,5.6-13S125.3,125.4,121.7,125.1z"/>
	<path class="st1" d="M187.2,287c0.1-0.5,0.3-1,0.3-1.6c0.3-3.2-1.3-6-3.6-6.2c-2.2-0.2-4.3,2.3-4.5,5.6c0,0.5,0,1.1,0,1.6
		L187.2,287z"/>
	<path class="st1" d="M194.6,287.6c0.1-0.5,0.2-1,0.3-1.6c0.3-3.2-1.3-6-3.6-6.2c-2.2-0.2-4.3,2.3-4.5,5.6c0,0.6,0,1.1,0,1.6
		L194.6,287.6z"/>
	<path class="st1" d="M202.1,288.2c0.1-0.5,0.2-1,0.3-1.6c0.3-3.2-1.3-6-3.6-6.2c-2.2-0.2-4.3,2.3-4.5,5.6c0,0.5,0,1.1,0,1.6
		L202.1,288.2z"/>
	<path class="st1" d="M209.6,288.8c0.1-0.5,0.2-1,0.3-1.6c0.3-3.2-1.3-6-3.6-6.2c-2.2-0.2-4.3,2.3-4.5,5.6c0,0.5,0,1.1,0,1.6
		L209.6,288.8z"/>
	<g>
		<path class="st7" d="M142.7,82c0,0,0-0.2,0-0.5c0-0.3,0.1-0.9,0.3-1.4c0.1-0.3,0.3-0.6,0.5-0.9c0.2-0.3,0.5-0.5,0.8-0.8
			c0.3-0.2,0.7-0.4,1.1-0.6c0.4-0.2,0.8-0.2,1.2-0.3c0.4-0.1,0.8-0.1,1.2-0.1c0.4,0,0.8,0,1.2,0.1c0.4,0,0.7,0.1,1.1,0.2
			c0.3,0.1,0.6,0.1,0.9,0.2c0.6,0.2,1,0.4,1.4,0.5c0.3,0.1,0.5,0.2,0.5,0.2s-0.2,0-0.5,0c-0.3,0-0.8-0.1-1.4-0.2
			c-0.6,0-1.2-0.1-2-0.1c-0.4,0-0.7,0-1.1,0c-0.4,0-0.7,0-1.1,0.1c-0.4,0.1-0.7,0.1-1.1,0.3c-0.2,0.1-0.3,0.1-0.5,0.2
			c-0.2,0.1-0.3,0.2-0.5,0.2c-0.2,0.1-0.3,0.2-0.4,0.3c-0.1,0.1-0.3,0.2-0.4,0.3c-0.2,0.2-0.4,0.4-0.6,0.7c-0.3,0.5-0.5,0.9-0.6,1.2
			C142.7,81.8,142.7,82,142.7,82z"/>
	</g>
	<g>
		<path class="st7" d="M134.2,82.2c0,0-0.1-0.1-0.3-0.3c-0.2-0.2-0.5-0.4-0.9-0.6c-0.2-0.1-0.4-0.2-0.6-0.3
			c-0.2-0.1-0.5-0.2-0.7-0.3c-0.3,0-0.5-0.1-0.8-0.1c-0.3,0-0.5,0-0.8,0c-0.3,0-0.5,0.1-0.8,0.2c-0.2,0.1-0.5,0.2-0.7,0.4
			c-0.2,0.2-0.4,0.3-0.6,0.4c-0.2,0.2-0.4,0.3-0.5,0.5c-0.3,0.3-0.6,0.6-0.8,0.7c-0.2,0.2-0.3,0.3-0.3,0.3s0.1-0.1,0.2-0.4
			c0.2-0.2,0.3-0.6,0.6-0.9c0.2-0.2,0.3-0.4,0.5-0.6c0.2-0.2,0.4-0.4,0.7-0.5c0.2-0.2,0.5-0.3,0.8-0.5c0.3-0.1,0.6-0.2,0.9-0.3
			c0.3,0,0.7-0.1,1,0c0.3,0,0.6,0.1,0.9,0.2c0.3,0.1,0.5,0.2,0.8,0.4c0.2,0.1,0.4,0.3,0.6,0.4C133.9,81.6,134.2,82.2,134.2,82.2z"/>
	</g>
	<path class="st7" d="M135.8,86.2c0,0,0.8-1,3.1,0.1c0,0-1.6,1-1.7,1.7C137.1,88.8,135.4,87.3,135.8,86.2z"/>
	<g>
		<path class="st7" d="M150.6,89.4c-0.5,0.4-1,0.8-1.5,1.2c-0.5,0.4-1.1,0.7-1.6,1c-1.1,0.6-2.4,0.9-3.7,1c-1.3,0.1-2.6-0.2-3.8-0.7
			c-1.2-0.5-2.3-1.2-3.1-2.2l0.3-0.1c-0.3,0.7-0.7,1.4-1.2,2c-0.5,0.6-1.1,1.1-1.8,1.5c-0.7,0.3-1.5,0.4-2.3,0.3
			c-0.8-0.1-1.5-0.5-2.1-0.9c0.7,0.4,1.4,0.6,2.2,0.8c0.8,0.1,1.5,0,2.2-0.3c0.7-0.3,1.2-0.8,1.7-1.4c0.5-0.6,0.8-1.3,1.1-2l0.1-0.2
			l0.2,0.2c0.8,0.9,1.9,1.6,3,2.1c1.1,0.5,2.4,0.7,3.6,0.7c1.2-0.1,2.5-0.4,3.6-0.9c0.6-0.3,1.1-0.6,1.7-0.9
			C149.6,90.2,150.1,89.8,150.6,89.4z"/>
	</g>
	<path class="st7" d="M134.2,93c0,0,1.3,2.7,1.5,4.6c0.1,1.1,4.6,2.3,6.8-0.3c2.2-2.6,2.8-5.1,2.5-5c-0.4,0.1-5,0.9-8-2.7
		C137,89.6,136,92.6,134.2,93z"/>
	<path class="st8" d="M137,90.4c0,0,1.4,1.4,2.1,1.3l0.1,1.1l-2.4,0.3l-0.4-1.4C136.4,91.7,137.1,90.8,137,90.4z"/>
	
		<ellipse transform="matrix(0.9955 -9.432157e-002 9.432157e-002 0.9955 -8.5405 13.544)" class="st9" cx="139" cy="97.1" rx="2.8" ry="1.4"/>
	<g>
		<path class="st7" d="M148.3,84.7c0,0,0.6-0.2,1.6-0.4c0.5-0.1,1-0.3,1.6-0.4c0.6-0.1,1.2-0.3,1.9-0.4c1.3-0.2,2.6-0.5,3.6-0.6
			c1-0.1,1.6-0.2,1.6-0.2s-0.6,0.2-1.6,0.4c-1,0.2-2.2,0.5-3.5,0.8c-0.6,0.1-1.3,0.2-1.9,0.3c-0.6,0.1-1.2,0.2-1.7,0.3
			C148.9,84.7,148.3,84.7,148.3,84.7z"/>
	</g>
	<g>
		<path class="st7" d="M149.5,86.6c0,0,0.7-0.1,1.6-0.2c0.5,0,1.1-0.1,1.7-0.1c0.6,0,1.3-0.1,1.9-0.1c1.3,0,2.6-0.1,3.6-0.1
			c1,0,1.6,0,1.6,0s-0.7,0.1-1.6,0.2c-1,0.1-2.3,0.2-3.6,0.2c-0.7,0-1.3,0-1.9,0.1c-0.6,0-1.2,0-1.7,0
			C150.1,86.7,149.5,86.6,149.5,86.6z"/>
	</g>
	<g>
		<path class="st7" d="M125.8,87.5c0,0-0.4,0-1-0.1c-0.6-0.1-1.4-0.2-2.3-0.3c-0.8-0.2-1.6-0.3-2.2-0.5c-0.6-0.2-1-0.3-1-0.3
			s0.4,0,1,0.1c0.6,0.1,1.4,0.2,2.3,0.3c0.8,0.2,1.6,0.3,2.2,0.5C125.4,87.3,125.8,87.5,125.8,87.5z"/>
	</g>
	<g>
		<path class="st7" d="M126.8,90.3c0,0-0.5,0.1-1.1,0.2c-0.7,0.1-1.6,0.2-2.5,0.3c-0.9,0.1-1.8,0.1-2.5,0.1c-0.7,0-1.2,0-1.2,0
			s0.5-0.1,1.1-0.2c0.7-0.1,1.6-0.2,2.5-0.3c0.9-0.1,1.8-0.1,2.5-0.1C126.3,90.2,126.8,90.3,126.8,90.3z"/>
	</g>
	<g>
		<path class="st7" d="M142.7,70.9c0,0,0.3-0.4,1-0.7c0.3-0.2,0.7-0.3,1.2-0.4c0.2-0.1,0.5-0.1,0.7-0.1c0.2,0,0.5,0,0.7,0
			c0.2,0,0.5,0.1,0.7,0.1c0.2,0.1,0.5,0.2,0.7,0.2c0.4,0.2,0.8,0.4,1.1,0.6c0.3,0.2,0.5,0.4,0.7,0.6c0.2,0.1,0.2,0.2,0.2,0.2
			s-0.1-0.1-0.3-0.2c-0.2-0.1-0.4-0.3-0.7-0.5c-0.2-0.1-0.3-0.2-0.5-0.3c-0.2-0.1-0.4-0.2-0.6-0.3c-0.2-0.1-0.4-0.1-0.7-0.2
			c-0.2,0-0.5-0.1-0.7-0.1c-0.9-0.1-1.9,0.1-2.6,0.4C143.1,70.6,142.7,70.9,142.7,70.9z"/>
	</g>
	<g>
		<path class="st7" d="M135.1,70.9c0,0-0.3-0.3-0.8-0.5c-0.5-0.2-1.3-0.3-2.1-0.1c-0.2,0-0.4,0.1-0.5,0.2c-0.2,0.1-0.3,0.2-0.5,0.3
			c-0.3,0.2-0.6,0.4-0.8,0.6c-0.5,0.4-0.8,0.6-0.8,0.6s0.1-0.1,0.2-0.2c0.1-0.1,0.3-0.3,0.5-0.5c0.2-0.2,0.5-0.5,0.8-0.7
			c0.2-0.1,0.3-0.2,0.5-0.3c0.2-0.1,0.4-0.2,0.6-0.2c0.4-0.1,0.8-0.2,1.2-0.1c0.4,0,0.7,0.2,1,0.3C134.9,70.5,135.1,70.9,135.1,70.9
			z"/>
	</g>
	<path class="st10" d="M157.9,122.5c0,0-1.1,0.8-3,2.1c0,0,2.9,0.3,2.9,1.9C157.8,128,157.9,122.5,157.9,122.5z"/>
	<g>
		<path class="st7" d="M183.9,279.2c0.9-0.2,1.8-0.1,2.6,0.2c0.4,0.2,0.8,0.4,1.2,0.7c0.4,0.3,0.7,0.6,1,1l-0.3,0
			c0.5-0.5,1-1,1.7-1.3c0.3-0.2,0.6-0.3,1-0.4c0.2-0.1,0.4-0.1,0.5-0.1c0.2,0,0.4,0,0.6,0c0.2,0,0.4,0,0.6,0.1
			c0.2,0.1,0.4,0.1,0.5,0.1l0.5,0.2c0.2,0.1,0.3,0.2,0.4,0.3c0.3,0.2,0.5,0.5,0.8,0.7c0.2,0.3,0.4,0.6,0.6,0.9l-0.5,0
			c0.3-0.3,0.6-0.6,1-0.8c0.3-0.2,0.7-0.4,1.1-0.6c0.2-0.1,0.4-0.2,0.6-0.2c0.2-0.1,0.4-0.1,0.6-0.1c0.2-0.1,0.4,0,0.6,0
			c0.2,0,0.4,0,0.6,0.1c0.2,0,0.4,0.1,0.6,0.2c0.2,0.1,0.4,0.2,0.6,0.3c0.2,0.1,0.4,0.2,0.5,0.4l0.4,0.4c0.2,0.1,0.2,0.3,0.4,0.5
			l0.4,0.5l0.6,1.1l-0.3,0c0.4-0.6,1-1.1,1.6-1.6c0.3-0.2,0.6-0.4,1-0.5c0.1,0,0.2-0.1,0.3-0.1c0.1,0,0.2,0,0.3,0
			c0.2,0,0.4,0,0.5,0.1c-0.2,0-0.4-0.1-0.5-0.1c-0.1,0-0.2,0-0.3,0.1c-0.1,0-0.2,0.1-0.3,0.1c-0.3,0.1-0.6,0.3-0.9,0.6
			c-0.5,0.5-1,1-1.4,1.6l-0.2,0.2l-0.1-0.2l-0.6-1l-0.4-0.5c-0.1-0.1-0.2-0.3-0.4-0.4L201,281c-0.1-0.1-0.3-0.2-0.5-0.3
			c-0.2-0.1-0.3-0.2-0.5-0.2c-0.2-0.1-0.3-0.1-0.5-0.2c-0.2,0-0.4-0.1-0.5-0.1c-0.2,0-0.4,0-0.5,0c-0.2,0-0.4,0.1-0.5,0.1
			c-0.2,0.1-0.4,0.1-0.5,0.2c-0.3,0.2-0.7,0.4-1,0.6c-0.3,0.2-0.6,0.5-0.9,0.7l-0.3,0.3l-0.2-0.3c-0.2-0.3-0.4-0.5-0.6-0.8
			c-0.2-0.2-0.4-0.5-0.7-0.7c-0.1-0.1-0.3-0.2-0.4-0.3L193,280c-0.1-0.1-0.3-0.1-0.4-0.1c-0.1-0.1-0.3,0-0.5-0.1c-0.2,0-0.3,0-0.5,0
			c-0.2,0-0.3,0-0.5,0.1c-0.3,0.1-0.6,0.2-0.9,0.3c-0.6,0.3-1.1,0.7-1.6,1.1l-0.2,0.2l-0.1-0.2c-0.3-0.3-0.5-0.7-0.9-1
			c-0.3-0.3-0.7-0.5-1.1-0.7C185.6,279.3,184.7,279.1,183.9,279.2z"/>
	</g>
	<path class="st10" d="M144,108.8c0,0,12.5-3.8,15.3-6.4l-0.5,5.3C158.8,107.8,146.4,109.2,144,108.8z"/>
	<g>
		<path class="st7" d="M131.7,167.5c0,0-1,0.4-2.9,1.2c-1.9,0.8-4.6,2-8,3.8c-3.3,1.8-7.4,4-11.4,7.4c-1,0.9-2,1.8-2.9,2.8
			c-0.9,1-1.7,2.2-2.3,3.5c-0.6,1.3-0.9,2.7-0.8,4.1l0,0.3l0,0.1c0,0,0-0.1,0,0l0,0.1c0,0.2,0.1,0.4,0.2,0.5
			c0.1,0.1,0.1,0.3,0.2,0.4c0.1,0.1,0.2,0.3,0.3,0.4c0.4,0.5,1.1,0.8,1.8,1.1c1.4,0.5,3,0.7,4.7,0.8c1.7,0.1,3.4,0,5.1-0.1
			c3.5-0.3,7-0.8,10.7-1.5c7.3-1.4,14.9-3.3,22.7-5.5c7.8-2.2,15.8-4.7,23.9-7.5c4-1.4,8.1-2.9,12.1-4.5c4-1.6,7.9-3.3,11.9-5.2
			c7.9-3.7,15.6-7.6,23.1-11.6c7.5-4.1,14.9-8.2,21.5-12.7c1.7-1.1,3.3-2.3,4.8-3.6c0.7-0.6,1.5-1.3,2-2c0.2-0.2,0.3-0.3,0.4-0.5
			c0.1-0.2,0.2-0.3,0.3-0.5c0.2-0.5,0.4-0.8,0.5-1.3c0.3-0.8,0.4-1.7,0.2-2.4c-0.2-0.7-0.6-1.4-1.2-1.8c-1.3-1-3.2-1.3-4.9-1.5
			c-3.6-0.3-7.2,0-10.7,0.5c-3.5,0.5-6.8,1.2-10,1.8c-12.7,2.8-23.2,5.7-30.5,7.9c-7.3,2.1-11.4,3.4-11.4,3.4s1-0.4,2.9-1
			c1.9-0.7,4.8-1.6,8.4-2.8c3.6-1.2,8-2.6,13.1-4.1c5.1-1.5,10.8-3.1,17.2-4.6c3.2-0.7,6.5-1.5,10-2c3.5-0.5,7.2-1,11-0.7
			c1.9,0.2,3.9,0.5,5.8,1.7c0.9,0.6,1.7,1.7,1.9,2.8c0.3,1.2,0.1,2.3-0.2,3.3c-0.1,0.5-0.4,1.1-0.6,1.5c-0.1,0.2-0.3,0.5-0.4,0.7
			c-0.1,0.3-0.3,0.5-0.5,0.7c-0.7,0.9-1.4,1.6-2.2,2.3c-1.5,1.4-3.2,2.6-4.9,3.7c-6.8,4.7-14.1,8.8-21.7,12.9
			c-7.5,4.1-15.3,8.1-23.2,11.8c-3.9,1.9-7.9,3.7-12,5.3c-4.1,1.6-8.1,3-12.2,4.4c-8.1,2.8-16.2,5.2-24.1,7.4
			c-7.9,2.2-15.6,4-23,5.3c-3.7,0.6-7.3,1.1-10.9,1.4c-1.8,0.1-3.5,0.1-5.3,0c-1.7-0.1-3.5-0.3-5.1-1c-0.8-0.3-1.6-0.8-2.3-1.5
			c-0.2-0.2-0.3-0.4-0.4-0.6c-0.1-0.2-0.2-0.4-0.3-0.7c-0.1-0.3-0.1-0.4-0.2-0.6l0-0.1c0,0,0-0.1,0-0.1l0-0.1l0-0.3
			c-0.1-1.7,0.3-3.3,1-4.7c0.7-1.4,1.6-2.6,2.6-3.7c1-1.1,2-2,3.1-2.8c4.2-3.3,8.4-5.5,11.8-7.1c3.4-1.7,6.2-2.8,8.1-3.5
			C130.7,167.8,131.7,167.5,131.7,167.5z"/>
	</g>
</g>
</svg>
