<?xml version="1.0" encoding="utf-8"?>
<!-- Generator: Adobe Illustrator 19.2.0, SVG Export Plug-In . SVG Version: 6.00 Build 0)  -->
<svg version="1.1" id="Layer_1" xmlns="http://www.w3.org/2000/svg" xmlns:xlink="http://www.w3.org/1999/xlink" x="0px" y="0px"
	 viewBox="0 0 336.2 310.2" style="enable-background:new 0 0 336.2 310.2;" xml:space="preserve">
<style type="text/css">
	.st0{fill:#FFFFFF;stroke:#929497;stroke-width:1.3272;stroke-miterlimit:10;}
	.st1{fill:#E0C889;}
	.st2{fill:url(#SVGID_1_);}
	.st3{fill:url(#SVGID_2_);}
	.st4{opacity:0.8;}
	.st5{fill:#3B2416;}
	.st6{fill:url(#SVGID_3_);}
	.st7{fill:url(#SVGID_4_);}
	.st8{fill:url(#SVGID_5_);}
	.st9{fill:url(#SVGID_6_);}
	.st10{fill:url(#SVGID_7_);}
	.st11{fill:url(#SVGID_8_);}
	.st12{fill:#A87C4F;}
	.st13{fill:#EEDAAE;}
	.st14{fill:#4F311A;}
	.st15{opacity:0.5;fill:url(#SVGID_9_);}
	.st16{opacity:0.5;fill:url(#SVGID_10_);}
	.st17{fill:url(#SVGID_11_);}
	.st18{fill:#663623;}
	.st19{fill:#3B2314;}
	.st20{fill:#603813;}
	.st21{fill:#BE1E2D;}
	.st22{fill:#F1F1F2;}
	.st23{fill:#754C28;}
	.st24{fill:#492316;}
</style>
<g>
	<path class="st0" d="M276.1,162.8c-5.4-1.7-11-1.9-16.6-2.3c-8.2-0.5-14.2-4.8-20.5-9.8c-11-8.7-21.5-18-31.1-28.3
		c-4.6-4.9-8.9-9.5-14.1-13.7c-3.9-3.2-8.8-6.7-11.9-11c0,0,0,0,0-0.1c-0.4-0.7-0.6-1.5-0.8-2.3c14.1-2,28.6-11.5,27.1-27.3
		c-0.2-2-1.7-4.1-3.9-3.9c-13.7,0.7-5.7-15.6-4.2-23.8c1.5-8.2,0.3-16.4-8.6-19c-2.1-0.6-4.3,0.7-4.9,2.8
		c-3,10.6-13.7,11.3-23.2,11.8c-12.9,0.7-19.7-5.6-27.5-15c-1.3-1.6-4.3-1.5-5.6,0c-7.5,8.9-7.5,26.6,1,35.4
		c-0.7,4.8-1.5,9.8-7.6,9.4c-2.8-0.2-4.2,2.6-3.8,5c2.3,14.9,14.2,21.7,26.6,27.2c-3.1-1.4-20.4,18.1-23.4,21.1
		c-5.4,5.5-9.9,15.3-16.6,19.8c-5.9-3.5,1.3-15.4,2.9-20.4c2.4-7.3,0.4-16-4-22.1c-3-4-9.8-0.1-6.8,4c0.1,0.1,0.1,0.2,0.1,0.2
		c-0.1,0.4-0.2,0.8-0.2,1.2c0,2.4,0.1,4.7-0.1,7.1c-0.1,0.9-0.3,2-0.6,2.6c-0.2,0.5,0.2,0.4-0.3,0.3c-0.2,0-0.5-0.1-0.7-0.1
		c-1.1-2.6-2.5-5.1-4.3-7.5c-3-4-9.9-0.1-6.8,4c6.8,9.2,7.7,20.1,7.8,31.1c-5.8,3.1-8.5,10.4-5.1,16.9c1.3,2.4,2.7,4.6,4.3,6.8
		c3.4,4.9,3.2,11.6,3.8,17.2c0.9,9,2.5,17.9,3.9,26.8c2.3,14.8,4.2,29.5,5.9,44.4c0.6,4.9,1,9.8,1.4,14.7c0.2,2.6,0.3,5.2,0.3,7.9
		c0,1.2-1,5,0.3,4c-3.2,2.4-1.4,7.1,1.5,7.5c1.4,0.8,3.2,0.9,4.8-0.3c2.7-2.2,10.3-1.3,13.6-1.4c6-0.2,11.9-0.1,17.9,0.1
		c11.8,0.3,23.9,2.2,35.7,1.1c11.6-1.1,13.7-9.3,10.7-19.2c-2.9-9.6-3.6-17.4-2.2-27.5c1.2-8.9,3-17.5,3.4-26.5
		c19.6-3.2,33.2-21.6,52.3-28.2c9.5-3.3,18.4,0.7,27.8,1.3c5.4,0.4,12.4-0.7,13.9-6.8C289.4,171.3,281.7,164.5,276.1,162.8z"/>
	<g>
		<g>
			<path class="st1" d="M163.5,193.2c0,0,0.3,0.4,0.9,1.1c0.6,0.7,1.5,1.7,2.8,2.8c1.3,1.1,2.9,2.4,4.9,3.6c2,1.2,4.4,2.3,7.2,3
				c2.8,0.7,5.8,1.1,9.1,0.7c3.2-0.3,6.5-1.2,9.8-2.7c3.2-1.4,6.4-3.4,9.4-5.7c0.7-0.6,1.5-1.2,2.2-1.8c0.7-0.6,1.4-1.3,2.1-1.9
				c1.5-1.3,2.9-2.6,4.4-3.9l2.2-2l2.3-1.9c1.5-1.3,3-2.6,4.6-3.8c1.5-1.2,3.1-2.5,4.7-3.6c0.8-0.6,1.6-1.1,2.4-1.7
				c0.8-0.6,1.6-1.1,2.4-1.6c3.2-2.1,6.6-3.8,10-5.3c3.5-1.3,7-2.1,10.4-2.2c0.8,0,1.7,0,2.5,0c0.4,0,0.8,0,1.2,0
				c0.4,0,0.8,0.1,1.1,0.1c0.7,0.1,1.5,0.2,2.2,0.3c0.7,0.1,1.3,0.3,2,0.4c1.3,0.2,2.4,0.6,3.5,0.9c1.1,0.3,2,0.6,2.9,0.9
				c1.7,0.6,3,1,3.9,1.4c0.9,0.3,1.4,0.5,1.4,0.5l-3.2,7.8c0,0-0.4-0.2-1.3-0.6c-0.8-0.4-2-0.9-3.6-1.5c-0.8-0.3-1.6-0.7-2.5-1
				c-0.9-0.3-1.9-0.7-2.9-1c-0.5-0.1-1.1-0.3-1.6-0.5c-0.6-0.1-1.1-0.2-1.7-0.3c-0.3-0.1-0.6-0.1-0.9-0.2c-0.3,0-0.6,0-0.9-0.1
				c-0.6,0-1.2-0.1-1.9-0.1c-2.5,0-5.3,0.4-8.3,1.3c-2.9,1-6,2.3-9.1,4.1c-0.8,0.4-1.6,0.8-2.3,1.3c-0.8,0.5-1.5,1-2.3,1.5
				c-1.6,1-3.1,2.1-4.7,3.2c-1.6,1.1-3.1,2.2-4.6,3.4l-2.3,1.7l-2.3,1.8c-1.5,1.2-3.1,2.4-4.6,3.7c-0.8,0.6-1.6,1.2-2.4,1.8
				c-0.8,0.6-1.6,1.1-2.5,1.7c-3.3,2.2-6.8,4.1-10.4,5.4c-3.6,1.4-7.3,2.1-10.8,2.3c-3.5,0.2-6.9-0.4-9.8-1.4
				c-2.9-0.9-5.4-2.3-7.4-3.7c-2-1.4-3.6-2.8-4.8-4.1c-1.2-1.2-2.1-2.3-2.7-3c-0.6-0.7-0.8-1.2-0.8-1.2L163.5,193.2z"/>
		</g>
		<ellipse class="st1" cx="273.8" cy="174.8" rx="6" ry="6.3"/>
	</g>
	<linearGradient id="SVGID_1_" gradientUnits="userSpaceOnUse" x1="188.3535" y1="198.6071" x2="217.4848" y2="198.6071">
		<stop  offset="0.2167" style="stop-color:#D2B37B"/>
		<stop  offset="1" style="stop-color:#F1F1F2;stop-opacity:0"/>
	</linearGradient>
	<path class="st2" d="M188.5,203.3c0,0-0.2,3.5-0.2,4c0,0.5,14.6,0.3,29.1-12.9l-4.4-4.6C213.1,189.8,197.1,205.5,188.5,203.3z"/>
	<path class="st1" d="M184,148.3c2.1-5,3.3-10.8,3.3-17c0-12.2-1.9-23.6-9-29.9c0,0,0,0,0,0c-1.7-1.7-3.3-9.5-3.3-9.5
		s-5.4-0.7-10.9-1.1c-5.5,0.4-10.9,1.1-10.9,1.1s-1.5,7.8-3.3,9.5c0,0,0,0,0,0c-7.1,6.3-8.6,17.6-8.6,29.9c0,6.2,1.2,11.9,3.3,17
		c-2.6,15.4-9,42.8-4.8,51.3c3.9,7.9,16.8,9,24.4,8.9c7.6,0.1,20.5-1,24.4-8.9C192.7,191.1,186.6,163.7,184,148.3z"/>
	<g>
		<path class="st1" d="M156.7,208.2c0,0-4.2,3.5-6.9,17.5h-6.2c0,0-4.8-14.8-3.4-28.6C140.2,197.1,152.3,192.7,156.7,208.2z"/>
		<path class="st1" d="M149.8,225.7c0,0,7.6,21.8-1.3,35.8h-3.8c0,0,2.3-28.5-1.2-35.8C140.1,218.5,149.8,225.7,149.8,225.7z"/>
		<path class="st1" d="M144.7,261.5h3.8l3.7,13.3h-12C140.2,274.7,145.4,264.4,144.7,261.5z"/>
		<linearGradient id="SVGID_2_" gradientUnits="userSpaceOnUse" x1="146.1044" y1="273.6954" x2="145.2709" y2="265.5294">
			<stop  offset="0.2167" style="stop-color:#D2B37B"/>
			<stop  offset="1" style="stop-color:#F1F1F2;stop-opacity:0"/>
		</linearGradient>
		<path class="st3" d="M144.7,261.5h3.8l3.7,13.3h-12C140.2,274.7,145.4,264.4,144.7,261.5z"/>
		<path class="st1" d="M143.6,279.2c0.1-0.3,0.1-0.5,0.1-0.8v-0.5c0,0.5,0.1,0.9,0.2,1.3h6c0.1-0.4,0.2-0.8,0.2-1.3v0.5
			c0,0.3,0.1,0.6,0.1,0.8h6.2c0.1-0.3,0.1-0.5,0.1-0.8v-2.8c0-1.8-1.4-3.2-3.2-3.2c-1.8,0-3.2,1.5-3.2,3.2v-0.9c0-2-1.5-3.7-3.2-3.7
			c-1.8,0-3.2,1.7-3.2,3.7v0.9c0-1.8-1.5-3.2-3.2-3.2c-1.8,0-3.2,1.5-3.2,3.2v2.8c0,0.3,0,0.6,0.1,0.8H143.6z"/>
	</g>
	<g>
		<path class="st1" d="M171.8,208.2c0,0,4.2,3.5,6.9,17.5h6.2c0,0,4.8-14.8,3.4-28.6C188.3,197.1,176.1,192.7,171.8,208.2z"/>
		<path class="st1" d="M178.7,225.7c0,0-7.6,21.8,1.3,35.8h3.8c0,0-2.3-28.5,1.2-35.8C188.3,218.5,178.7,225.7,178.7,225.7z"/>
	</g>
	<g>
		<path class="st1" d="M182.2,113.7c0,0-5.9-10.9-4.9-12.9c1-2,28.8,24.2,29.1,28.2c0.3,3.9-2.3,4.8-3.3,4.1
			C201.8,132.1,183.8,114.2,182.2,113.7z"/>
		<path class="st1" d="M203.8,125.9l-3.9,4.1c0,0,20.9,21.4,21.9,23.1c0.9,1.7,4.7-1,4.7-1.9C226.3,150.5,207.7,128.8,203.8,125.9z"
			/>
		<path class="st1" d="M221.9,153.9c0,0,1.6,10.1,5.1,10c3.5-0.1-0.2-5.5,0.7-6.3c0.8-0.8,5.3,4.8,6.2,6.1c0.8,1.1,7.3,3.4,5.5-4.5
			c-1.8-8-17.9-9.6-17.9-9.6L221.9,153.9z"/>
	</g>
	<g>
		<path class="st1" d="M147.2,113.7c0,0,5.9-10.9,4.9-12.9c-1-2-28.8,24.2-29.1,28.2c-0.3,3.9,2.3,4.8,3.3,4.1
			C127.6,132.1,145.6,114.2,147.2,113.7z"/>
		<path class="st1" d="M125.6,125.9l3.9,4.1c0,0-15.5,15.2-16.4,17c-0.9,1.7-7.4,1.4-7.3,0.6C105.9,146.8,121.7,128.8,125.6,125.9z"
			/>
	</g>
	<g class="st4">
		<path class="st5" d="M192.4,205.2c-0.4,0-1,0.6-0.4,0.6C192.4,205.8,193,205.2,192.4,205.2z"/>
		<path class="st5" d="M198.9,201.5c-0.6,0-0.7,0.7-0.1,0.7C199.4,202.2,199.6,201.5,198.9,201.5z"/>
		<path class="st5" d="M203.4,201.6c-0.4,0-1,0.6-0.4,0.6C203.4,202.1,204,201.6,203.4,201.6z"/>
		<path class="st5" d="M221.4,183.5c-0.4,0-1,0.6-0.4,0.6C221.4,184.1,222,183.5,221.4,183.5z"/>
		<path class="st5" d="M213.6,192.5c-0.6,0-0.7,0.7-0.1,0.7C214.1,193.2,214.2,192.5,213.6,192.5z"/>
		<path class="st5" d="M232,181.2c-0.4,0-1,0.6-0.4,0.6C232,181.8,232.7,181.2,232,181.2z"/>
	</g>
	<linearGradient id="SVGID_3_" gradientUnits="userSpaceOnUse" x1="164.0814" y1="92.4481" x2="164.0814" y2="97.6875">
		<stop  offset="0.2167" style="stop-color:#D2B37B"/>
		<stop  offset="1" style="stop-color:#F1F1F2;stop-opacity:0"/>
	</linearGradient>
	<path class="st6" d="M153.1,92c0,0,17.3,0.7,21.9,0c0,0,1.7,5.1-9.8,5.8C153.6,98.6,153.1,92,153.1,92z"/>
	<linearGradient id="SVGID_4_" gradientUnits="userSpaceOnUse" x1="143.7309" y1="117.3875" x2="143.7309" y2="121.4748">
		<stop  offset="0.2167" style="stop-color:#D2B37B"/>
		<stop  offset="1" style="stop-color:#F1F1F2;stop-opacity:0"/>
	</linearGradient>
	<path class="st7" d="M142.2,118c0,0,2.7-2.6,3.9-3.5c1.2-0.8-4.4,8.3-4.7,10.5C141,127.5,142.2,118,142.2,118z"/>
	
		<linearGradient id="SVGID_5_" gradientUnits="userSpaceOnUse" x1="413.6454" y1="115.9419" x2="413.6454" y2="120.1887" gradientTransform="matrix(-1 0 0 1 598.2383 0)">
		<stop  offset="0.2167" style="stop-color:#D2B37B"/>
		<stop  offset="1" style="stop-color:#F1F1F2;stop-opacity:0"/>
	</linearGradient>
	<path class="st8" d="M186.2,117.2c0,0-2.7-2.6-3.9-3.5c-1.2-0.8,4.4,8.3,4.7,10.5C187.3,126.7,186.2,117.2,186.2,117.2z"/>
	<linearGradient id="SVGID_6_" gradientUnits="userSpaceOnUse" x1="152.0234" y1="207.4328" x2="150.5023" y2="211.2751">
		<stop  offset="0.2167" style="stop-color:#D2B37B"/>
		<stop  offset="1" style="stop-color:#F1F1F2;stop-opacity:0"/>
	</linearGradient>
	<path class="st9" d="M156.7,208.2c0,0-5.6-1.6-8.4-3.8l4.4,10.7C152.7,215,153.8,211,156.7,208.2z"/>
	
		<linearGradient id="SVGID_7_" gradientUnits="userSpaceOnUse" x1="388.809" y1="207.4327" x2="387.288" y2="211.2747" gradientTransform="matrix(-1 0 0 1 565.2354 0)">
		<stop  offset="0.2167" style="stop-color:#D2B37B"/>
		<stop  offset="1" style="stop-color:#F1F1F2;stop-opacity:0"/>
	</linearGradient>
	<path class="st10" d="M175.7,215c0,0-1-4-3.9-6.8c0,0,5.6-1.6,8.4-3.8"/>
	<path class="st1" d="M183.8,261.5H180l-3.7,13.3h12C188.2,274.7,183.1,264.4,183.8,261.5z"/>
	
		<linearGradient id="SVGID_8_" gradientUnits="userSpaceOnUse" x1="451.845" y1="273.6953" x2="451.0115" y2="265.5294" gradientTransform="matrix(-1 0 0 1 634.2021 0)">
		<stop  offset="0.2167" style="stop-color:#D2B37B"/>
		<stop  offset="1" style="stop-color:#F1F1F2;stop-opacity:0"/>
	</linearGradient>
	<path class="st11" d="M183.8,261.5H180l-3.7,13.3h12C188.2,274.7,183.1,264.4,183.8,261.5z"/>
	<path class="st1" d="M184.8,279.2c-0.1-0.3-0.1-0.5-0.1-0.8v-0.5c0,0.5-0.1,0.9-0.2,1.3h-6c-0.1-0.4-0.2-0.8-0.2-1.3v0.5
		c0,0.3,0,0.6-0.1,0.8h-6.2c-0.1-0.3-0.1-0.5-0.1-0.8v-2.8c0-1.8,1.4-3.2,3.2-3.2c1.8,0,3.2,1.5,3.2,3.2v-0.9c0-2,1.5-3.7,3.2-3.7
		c1.8,0,3.2,1.7,3.2,3.7v0.9c0-1.8,1.5-3.2,3.2-3.2c1.8,0,3.2,1.5,3.2,3.2v2.8c0,0.3-0.1,0.6-0.1,0.8H184.8z"/>
	<g>
		<path class="st12" d="M154.5,41.4c0,0-11.5-3.4-18.4-13.1c-6.4-9.1-9.3,29.4,3.1,27.9C151.7,54.7,154.5,41.4,154.5,41.4z"/>
		<path class="st13" d="M143,45.4c0,0-6-1.2-8.7-6c0,0,0.6,9.2,6.4,9.7C146.5,49.5,143,45.4,143,45.4z"/>
		<g>
			<path class="st14" d="M133.5,38.3c0,0,0.1,0.2,0.3,0.4c0.1,0.1,0.2,0.3,0.4,0.5c0.2,0.2,0.3,0.4,0.5,0.6c0.2,0.2,0.4,0.4,0.7,0.7
				c0.2,0.2,0.5,0.4,0.8,0.7c0.3,0.2,0.6,0.4,0.9,0.7c0.3,0.2,0.6,0.4,1,0.6c1.3,0.8,2.7,1.5,3.8,2c1.1,0.5,1.8,0.8,1.8,0.8
				s-0.8-0.1-1.9-0.4c-0.6-0.2-1.2-0.4-1.9-0.7c-0.7-0.3-1.4-0.7-2.1-1.1c-0.7-0.4-1.3-0.9-1.9-1.4c-0.3-0.3-0.5-0.5-0.8-0.8
				c-0.2-0.3-0.4-0.5-0.6-0.8c-0.3-0.5-0.6-1-0.7-1.3C133.6,38.5,133.5,38.3,133.5,38.3z"/>
		</g>
		<linearGradient id="SVGID_9_" gradientUnits="userSpaceOnUse" x1="145.7879" y1="50.3328" x2="136.6003" y2="33.9264">
			<stop  offset="0.2167" style="stop-color:#603813"/>
			<stop  offset="1" style="stop-color:#F1F1F2;stop-opacity:0"/>
		</linearGradient>
		<path class="st15" d="M154.5,41.4c0,0-11.5-3.4-18.4-13.1c-6.4-9.1-9.3,29.4,3.1,27.9C151.7,54.7,154.5,41.4,154.5,41.4z"/>
	</g>
	<g>
		<path class="st12" d="M172.1,41.4c0,0,11.5-3.4,18.4-13.1c6.4-9.1,9.3,29.4-3.1,27.9C174.9,54.7,172.1,41.4,172.1,41.4z"/>
		<path class="st13" d="M183.5,45.4c0,0,6-1.2,8.7-6c0,0-0.6,9.2-6.4,9.7C180,49.5,183.5,45.4,183.5,45.4z"/>
		<g>
			<path class="st14" d="M193,38.3c0,0-0.1,0.2-0.2,0.5c-0.1,0.3-0.3,0.8-0.7,1.3c-0.2,0.3-0.4,0.5-0.6,0.8
				c-0.2,0.3-0.5,0.5-0.8,0.8c-0.5,0.5-1.2,1-1.9,1.4c-0.7,0.4-1.4,0.8-2.1,1.1c-0.7,0.3-1.4,0.5-1.9,0.7c-1.2,0.3-1.9,0.4-1.9,0.4
				s0.7-0.3,1.8-0.8c1.1-0.5,2.5-1.1,3.8-2c0.3-0.2,0.6-0.4,1-0.6c0.3-0.2,0.6-0.4,0.9-0.7c0.3-0.2,0.6-0.4,0.8-0.7
				c0.2-0.2,0.5-0.4,0.7-0.7c0.2-0.2,0.4-0.4,0.5-0.6c0.2-0.2,0.3-0.4,0.4-0.5C192.9,38.4,193,38.3,193,38.3z"/>
		</g>
		
			<linearGradient id="SVGID_10_" gradientUnits="userSpaceOnUse" x1="364.6297" y1="50.3327" x2="355.4424" y2="33.9266" gradientTransform="matrix(-1 0 0 1 545.3955 0)">
			<stop  offset="0.2167" style="stop-color:#603813"/>
			<stop  offset="1" style="stop-color:#F1F1F2;stop-opacity:0"/>
		</linearGradient>
		<path class="st16" d="M172.1,41.4c0,0,11.5-3.4,18.4-13.1c6.4-9.1,9.3,29.4-3.1,27.9C174.9,54.7,172.1,41.4,172.1,41.4z"/>
	</g>
	<path class="st1" d="M194.7,65.9c-1.9-3.4-2.4-4.9-2.8-6.6c-1.5-8.5-5.7-19.8-27.9-18.9c-22.2-0.9-26.4,10.4-27.9,18.9
		c-0.3,1.7-0.9,3.2-2.8,6.6c-1.9,3.4-8.5,4.1-8.5,4.1c7.5,26.4,39.1,22.8,39.1,22.8l-3.9-4.4l1.9,4.3c0,0,33.6,3.7,41.1-22.7
		C203.2,70,196.6,69.3,194.7,65.9z"/>
	<linearGradient id="SVGID_11_" gradientUnits="userSpaceOnUse" x1="165.0222" y1="75.7242" x2="165.0806" y2="63.0659">
		<stop  offset="0.2167" style="stop-color:#F1F1F2"/>
		<stop  offset="1" style="stop-color:#F1F1F2;stop-opacity:0"/>
	</linearGradient>
	<path class="st17" d="M174.7,60.3l-1.8,0c-9.3,2.9-17.7-0.3-17.7-0.3c1.5,3.7,6.2,4.9-4.8,12.7c0,0,1.9,5.6,7.2,4.9
		c5.3-0.7,7.4-1.9,7.4-1.9s1.9,1.2,7.2,1.9c5.3,0.7,7.4-4.4,7.4-4.4C171.4,66.7,173.2,64.1,174.7,60.3z"/>
	<g class="st4">
		<path class="st5" d="M151,113.4c-1.7,0-2.2,2.2-0.2,2.2C152.5,115.6,152.9,113.4,151,113.4z"/>
		<path class="st5" d="M171.3,125.1c-1.7,0-2.2,2.2-0.2,2.2C172.8,127.3,173.3,125.1,171.3,125.1z"/>
		<path class="st5" d="M166.6,111.4c-1.7,0-2.2,2.3-0.2,2.3C168.1,113.6,168.6,111.4,166.6,111.4z"/>
		<path class="st5" d="M173.1,94.6c-1.2,0-3,1.8-1.1,1.8C173.2,96.4,175,94.6,173.1,94.6z"/>
		<path class="st5" d="M154.8,97.2c-0.9,0-3.1,1.4-1.2,1.4C154.5,98.6,156.7,97.2,154.8,97.2z"/>
		<path class="st5" d="M184.1,121.7c-1.1,0-3.1,1.7-1.1,1.7C184.1,123.4,186,121.7,184.1,121.7z"/>
		<path class="st5" d="M155.1,129.4c-1,0-3.1,1.5-1.2,1.5C155,130.9,157.1,129.4,155.1,129.4z"/>
		<path class="st5" d="M146.5,139.1c-1,0-3.1,1.5-1.2,1.5C146.3,140.6,148.4,139.1,146.5,139.1z"/>
		<path class="st5" d="M160.5,148.1c-1,0-3.1,1.5-1.2,1.5C160.3,149.6,162.4,148.1,160.5,148.1z"/>
		<path class="st5" d="M176.1,138.5c-1.3,0-3,2-1,2C176.3,140.5,178,138.5,176.1,138.5z"/>
		<path class="st5" d="M181.3,163.8c-1.7,0-2.2,2.2-0.2,2.2C182.8,165.9,183.3,163.8,181.3,163.8z"/>
		<path class="st5" d="M148.5,166.8c-1,0-3.1,1.4-1.2,1.4C148.2,168.2,150.4,166.8,148.5,166.8z"/>
		<path class="st5" d="M170.8,156.4c-1,0-3.1,1.6-1.1,1.6C170.7,158,172.7,156.4,170.8,156.4z"/>
		<path class="st5" d="M170.1,180.6c-1.2,0-3,1.9-1.1,1.9C170.3,182.4,172,180.6,170.1,180.6z"/>
		<path class="st5" d="M147.5,193.1c-1,0-3.1,1.5-1.2,1.5C147.3,194.6,149.4,193.1,147.5,193.1z"/>
		<path class="st5" d="M162.1,170.9c-1.3,0-3,2-1,2C162.3,172.8,164,170.9,162.1,170.9z"/>
		<path class="st5" d="M180,201.1c-1.7,0-2.2,2.2-0.2,2.2C181.4,203.3,181.9,201.1,180,201.1z"/>
		<path class="st5" d="M145.1,214c-1.1,0-3.1,1.7-1.1,1.7C145.1,215.7,147.1,214,145.1,214z"/>
		<path class="st5" d="M149.7,231.7c-1.7,0-2.2,2.2-0.2,2.2C151.1,233.9,151.6,231.7,149.7,231.7z"/>
		<path class="st5" d="M148.5,252.8c-0.9,0-3.2,1.3-1.2,1.3C148.1,254.1,150.4,252.8,148.5,252.8z"/>
		<path class="st5" d="M179.4,213.3c-1.1,0-3.1,1.7-1.1,1.7C179.4,215,181.4,213.3,179.4,213.3z"/>
		<path class="st5" d="M181.8,235.5c-0.7,0-3.3,1.3-1.9,1.3C180.6,236.8,183.3,235.5,181.8,235.5z"/>
		<path class="st5" d="M177.7,250.8c-1.7,0-2.2,2.1-0.3,2.1C179.1,252.9,179.6,250.8,177.7,250.8z"/>
		<path class="st5" d="M137.8,114.5c-0.4,0-2.2,0.8-1.3,0.8C137,115.2,138.8,114.5,137.8,114.5z"/>
		<path class="st5" d="M135.9,122.4c-0.6,0-2.1,0.9-0.8,0.9C135.7,123.3,137.2,122.4,135.9,122.4z"/>
		<path class="st5" d="M126.9,126.2c-0.8,0-2,1.2-0.7,1.2C127,127.5,128.2,126.2,126.9,126.2z"/>
		<path class="st5" d="M121.6,134.6c-0.8,0-2,1.2-0.7,1.2C121.6,135.8,122.9,134.6,121.6,134.6z"/>
		<path class="st5" d="M111.6,143c-0.6,0-2.1,1-0.8,1C111.5,144,112.9,143,111.6,143z"/>
		<path class="st5" d="M177.2,102.9c-0.8,0-2,1.3-0.7,1.3C177.4,104.2,178.5,102.9,177.2,102.9z"/>
		<path class="st5" d="M185.5,110.8c-0.4,0-2.2,0.7-1.3,0.7C184.6,111.5,186.4,110.8,185.5,110.8z"/>
		<path class="st5" d="M195.9,117.1c-0.6,0-2.1,0.9-0.8,0.9C195.7,118,197.2,117.1,195.9,117.1z"/>
		<path class="st5" d="M197.9,124c-0.7,0-2.1,1-0.8,1C197.8,125,199.2,124,197.9,124z"/>
		<path class="st5" d="M206.6,132.6c-0.7,0-2.1,1.1-0.8,1.1C206.5,133.7,207.9,132.6,206.6,132.6z"/>
		<path class="st5" d="M215.9,141.3c-0.7,0-2.1,1.1-0.8,1.1C215.9,142.4,217.2,141.3,215.9,141.3z"/>
		<path class="st5" d="M135.2,79.2c-0.8,0-2,1.3-0.7,1.3C135.4,80.5,136.5,79.2,135.2,79.2z"/>
		<path class="st5" d="M162.6,41.4c-0.7,0-2.1,1-0.8,1C162.5,42.4,163.9,41.4,162.6,41.4z"/>
		<path class="st5" d="M168.6,43.5c-1.1,0-1.5,1.4-0.2,1.4C169.5,44.9,169.9,43.5,168.6,43.5z"/>
		<path class="st5" d="M195.2,73.6c-0.8,0-2,1.2-0.7,1.2C195.3,74.8,196.5,73.6,195.2,73.6z"/>
		<path class="st5" d="M190.5,79.5c-0.4,0-2.2,0.8-1.3,0.8C189.6,80.2,191.4,79.5,190.5,79.5z"/>
	</g>
	<g>
		<path class="st1" d="M105.3,152.7l1.2-5.6c0,0-3.2-9.4-7.9-6c0,0-6.1-0.7-6.9,4.4c-0.9,5.1,3.5,8.3,5.5,8.2
			C99,153.6,105.3,152.7,105.3,152.7z"/>
		<g>
			<path class="st18" d="M99.3,141.5c0,0,0,0.7,0.1,1.7c0,0.5,0.1,1.1,0.3,1.8c0.1,0.3,0.1,0.7,0.2,1c0.1,0.3,0.2,0.7,0.3,1
				c0.1,0.3,0.3,0.6,0.5,0.8c0.2,0.2,0.5,0.4,0.7,0.4c0.2,0,0.5-0.3,0.6-0.5c0.2-0.2,0.3-0.5,0.4-0.7c0.4-0.9,0.5-1.6,0.5-1.6
				s0,0.7-0.3,1.7c-0.1,0.3-0.2,0.5-0.4,0.8c-0.2,0.3-0.4,0.6-0.8,0.7c-0.4,0.1-0.8-0.2-1.1-0.4c-0.3-0.3-0.4-0.6-0.6-1
				c-0.1-0.3-0.2-0.7-0.3-1c-0.1-0.3-0.1-0.7-0.2-1c-0.1-0.7-0.1-1.3-0.1-1.8C99.1,142.2,99.3,141.5,99.3,141.5z"/>
		</g>
		<g>
			<path class="st18" d="M99.8,147.9c0,0,0,0.1,0.1,0.2c0,0.1,0.1,0.4,0,0.6c0,0.3-0.1,0.6-0.3,0.9c-0.2,0.3-0.4,0.6-0.6,0.9
				c-0.2,0.3-0.5,0.5-0.7,0.7c-0.2,0.2-0.5,0.4-0.7,0.6c-0.4,0.3-0.7,0.5-0.7,0.5s0.2-0.3,0.5-0.7c0.2-0.2,0.3-0.4,0.6-0.7
				c0.2-0.2,0.4-0.5,0.6-0.7c0.2-0.3,0.4-0.5,0.6-0.8c0.2-0.3,0.3-0.5,0.4-0.7c0.1-0.2,0.1-0.4,0.1-0.6
				C99.8,148,99.8,147.9,99.8,147.9z"/>
		</g>
		<g>
			<path class="st18" d="M99,143.4c0,0-0.1-0.1-0.2-0.2c-0.1-0.1-0.1-0.1-0.2-0.2c-0.1-0.1-0.2-0.1-0.2-0.2
				c-0.1-0.1-0.1-0.2-0.2-0.2c-0.1-0.1-0.1-0.1-0.2-0.2c-0.1-0.1-0.2-0.2-0.2-0.2s0.1,0,0.3,0c0.1,0,0.2,0,0.3,0.1
				c0.1,0.1,0.2,0.1,0.3,0.2c0.1,0.1,0.2,0.2,0.2,0.3c0.1,0.1,0.1,0.2,0.1,0.3C99.1,143.3,99,143.4,99,143.4z"/>
		</g>
	</g>
	<path class="st1" d="M104.8,152.8c0,0,5.3-1.9,8.3-5.7c3-3.8-5.9-1.4-5.9-1.4s-2.1,2.3-2.4,2.3
		C104.5,147.8,104.8,152.8,104.8,152.8z"/>
	<g>
		<path class="st19" d="M156.9,77.9c0,0,7.5,13.5,16.7-0.3c0,0-5.1,0-8.6-1.9C165,75.8,163.9,76.8,156.9,77.9z"/>
		<path class="st12" d="M165.2,70.9c-0.5-0.2-2.5-0.9-2.5,0.6c0,0.3,0.3,0.4,0.5,0.4c0.5,0.1,1.5,0.2,2,1.2l0,0.1c0,0,0,0,0,0
			c0,0,0,0,0,0l0-0.1c0.5-1,1.5-1.1,2-1.2c0.1,0,0.5-0.1,0.5-0.4C167.6,70.1,165.6,70.7,165.2,70.9z"/>
		<g>
			<g>
				<g>
					<path class="st20" d="M173.4,64c0,0,0-0.3,0.1-0.7c0-0.2,0.1-0.5,0.2-0.8c0.1-0.3,0.2-0.7,0.3-1c0.2-0.4,0.4-0.7,0.6-1.1
						c0.3-0.4,0.5-0.8,0.9-1.1c0.2-0.2,0.4-0.4,0.6-0.5c0.2-0.1,0.4-0.3,0.7-0.4c0.2-0.2,0.5-0.2,0.7-0.4c0.2-0.1,0.5-0.2,0.8-0.3
						c0.5-0.2,1.1-0.2,1.6-0.3c0.5,0,1,0,1.5,0.1c0.5,0,1,0.2,1.4,0.3c0.4,0.2,0.8,0.3,1.2,0.5c0.4,0.2,0.7,0.3,0.9,0.6
						c0.3,0.2,0.5,0.3,0.6,0.5c0.3,0.3,0.5,0.5,0.5,0.5s-0.2-0.1-0.6-0.4c-0.2-0.1-0.4-0.2-0.7-0.4c-0.3-0.2-0.6-0.3-0.9-0.4
						c-0.3-0.2-0.7-0.2-1.2-0.4c-0.4-0.1-0.9-0.2-1.3-0.2c-0.5-0.1-0.9,0-1.4,0c-0.5,0.1-1,0.1-1.4,0.3c-0.2,0.1-0.5,0.1-0.7,0.2
						c-0.2,0.1-0.5,0.2-0.7,0.3c-0.2,0.1-0.4,0.3-0.6,0.4c-0.2,0.1-0.4,0.3-0.5,0.4c-0.4,0.3-0.6,0.7-0.9,1c-0.2,0.3-0.5,0.7-0.7,1
						c-0.1,0.3-0.3,0.6-0.4,0.9c-0.1,0.3-0.2,0.6-0.3,0.8C173.5,63.8,173.4,64,173.4,64z"/>
				</g>
			</g>
			<g>
				<g>
					<path class="st20" d="M173.4,63.5c0,0,0.1-0.2,0.2-0.6c0.1-0.2,0.1-0.4,0.2-0.7c0.1-0.2,0.2-0.6,0.4-0.8
						c0.2-0.3,0.4-0.6,0.7-0.9c0.3-0.3,0.6-0.6,0.9-0.8c0.3-0.3,0.8-0.5,1.2-0.7c0.4-0.2,0.9-0.3,1.3-0.4c0.5-0.1,0.9-0.1,1.4-0.2
						c0.5,0,0.9,0,1.3,0.1c0.4,0,0.8,0.2,1.2,0.3c0.4,0.1,0.7,0.3,1,0.4c0.3,0.2,0.6,0.3,0.8,0.5c0.2,0.2,0.4,0.3,0.5,0.5
						c0.3,0.3,0.4,0.5,0.4,0.5s-0.2-0.1-0.5-0.4c-0.1-0.1-0.4-0.2-0.6-0.4c-0.2-0.2-0.5-0.2-0.8-0.4c-0.3-0.1-0.6-0.2-1-0.3
						c-0.4-0.1-0.8-0.1-1.2-0.2c-0.4-0.1-0.8,0-1.3,0c-0.4,0-0.9,0.1-1.3,0.2c-0.4,0.1-0.8,0.2-1.2,0.4c-0.4,0.2-0.8,0.3-1.1,0.6
						c-0.4,0.2-0.6,0.5-0.9,0.7c-0.3,0.2-0.5,0.5-0.7,0.8c-0.2,0.3-0.3,0.5-0.5,0.7c-0.2,0.2-0.2,0.5-0.3,0.6
						C173.5,63.3,173.4,63.5,173.4,63.5z"/>
				</g>
			</g>
		</g>
		<g>
			<g>
				<g>
					<path class="st20" d="M156.9,64c0,0-0.1-0.2-0.2-0.7c-0.1-0.2-0.1-0.5-0.3-0.8c-0.1-0.3-0.3-0.6-0.4-0.9
						c-0.2-0.3-0.4-0.7-0.7-1c-0.3-0.3-0.5-0.7-0.9-1c-0.2-0.1-0.3-0.3-0.5-0.4c-0.2-0.1-0.4-0.3-0.6-0.4c-0.2-0.1-0.4-0.2-0.7-0.3
						c-0.2-0.1-0.4-0.2-0.7-0.2c-0.5-0.2-0.9-0.2-1.4-0.3c-0.5,0-1-0.1-1.4,0c-0.5,0-0.9,0.1-1.3,0.2c-0.4,0.1-0.8,0.2-1.2,0.4
						c-0.3,0.2-0.7,0.3-0.9,0.4c-0.3,0.1-0.5,0.3-0.7,0.4c-0.4,0.3-0.6,0.4-0.6,0.4s0.2-0.2,0.5-0.5c0.2-0.2,0.4-0.3,0.6-0.5
						c0.2-0.2,0.6-0.4,0.9-0.6c0.3-0.2,0.8-0.3,1.2-0.5c0.4-0.1,0.9-0.3,1.4-0.3c0.5-0.1,1-0.1,1.5-0.1c0.5,0.1,1.1,0.1,1.6,0.3
						c0.3,0.1,0.5,0.2,0.8,0.3c0.2,0.1,0.5,0.2,0.7,0.4c0.2,0.1,0.4,0.3,0.7,0.4c0.2,0.2,0.4,0.3,0.6,0.5c0.4,0.3,0.6,0.8,0.9,1.1
						c0.2,0.4,0.4,0.8,0.6,1.1c0.1,0.4,0.2,0.7,0.3,1c0.1,0.3,0.1,0.6,0.2,0.8C156.9,63.8,156.9,64,156.9,64z"/>
				</g>
			</g>
			<g>
				<g>
					<path class="st20" d="M156.9,63.5c0,0-0.1-0.2-0.3-0.6c-0.1-0.2-0.2-0.4-0.3-0.6c-0.2-0.2-0.3-0.5-0.5-0.7
						c-0.2-0.2-0.4-0.5-0.7-0.8c-0.3-0.2-0.6-0.5-0.9-0.7c-0.3-0.2-0.7-0.4-1.1-0.6c-0.4-0.1-0.8-0.3-1.2-0.4
						c-0.4-0.1-0.9-0.2-1.3-0.2c-0.4,0-0.8,0-1.3,0c-0.4,0-0.8,0.1-1.2,0.2c-0.4,0.1-0.7,0.2-1,0.3c-0.3,0.2-0.6,0.2-0.8,0.4
						c-0.2,0.1-0.4,0.2-0.6,0.4c-0.3,0.3-0.5,0.4-0.5,0.4s0.1-0.2,0.4-0.5c0.1-0.2,0.3-0.3,0.5-0.5c0.2-0.2,0.5-0.3,0.8-0.5
						c0.3-0.1,0.7-0.3,1-0.4c0.4-0.1,0.8-0.2,1.2-0.3c0.4-0.1,0.9-0.1,1.3-0.1c0.5,0,0.9,0.1,1.4,0.2c0.5,0.1,0.9,0.3,1.3,0.4
						c0.4,0.2,0.8,0.4,1.2,0.7c0.4,0.2,0.7,0.5,0.9,0.8c0.3,0.3,0.5,0.6,0.7,0.9c0.2,0.3,0.3,0.6,0.4,0.8c0.1,0.2,0.2,0.5,0.2,0.7
						C156.8,63.3,156.9,63.5,156.9,63.5z"/>
				</g>
			</g>
		</g>
		<g>
			<path class="st20" d="M157.8,50.6c0,0-0.1-0.2-0.3-0.4c-0.1-0.1-0.2-0.3-0.3-0.5c-0.1-0.2-0.3-0.4-0.5-0.6
				c-0.4-0.4-0.8-0.9-1.3-1.3c-0.3-0.2-0.6-0.4-0.9-0.6l-0.5-0.2l-0.5-0.1c-0.3-0.1-0.7-0.1-1-0.1c-0.3,0-0.7,0-1,0.1
				c-0.3,0.1-0.7,0.1-1,0.2c-0.3,0.1-0.6,0.2-0.8,0.3c-0.3,0.1-0.5,0.2-0.7,0.3c-0.2,0.1-0.4,0.2-0.5,0.3c-0.3,0.2-0.5,0.3-0.5,0.3
				s0.1-0.1,0.4-0.4c0.1-0.1,0.3-0.3,0.5-0.4c0.2-0.1,0.4-0.3,0.7-0.5c0.3-0.1,0.5-0.3,0.8-0.4c0.3-0.1,0.6-0.3,1-0.4
				c0.4-0.1,0.8-0.2,1.2-0.2c0.4,0,0.8,0,1.2,0.1l0.6,0.2l0.5,0.3c0.3,0.2,0.7,0.4,0.9,0.7c0.3,0.2,0.5,0.5,0.7,0.8
				c0.2,0.3,0.4,0.5,0.5,0.8c0.3,0.5,0.5,1,0.6,1.3C157.7,50.4,157.8,50.6,157.8,50.6z"/>
		</g>
		<g>
			<path class="st20" d="M174.4,50.5c0,0,0.1-0.2,0.2-0.5c0.1-0.3,0.3-0.8,0.6-1.3c0.2-0.2,0.3-0.5,0.5-0.8c0.2-0.3,0.4-0.5,0.7-0.8
				c0.3-0.3,0.6-0.5,1-0.7l0.6-0.3l0.6-0.2c0.4-0.1,0.8-0.1,1.2-0.1c0.4,0,0.8,0.1,1.2,0.2c0.4,0.1,0.7,0.2,1,0.4
				c0.3,0.1,0.6,0.3,0.8,0.5c0.3,0.1,0.5,0.3,0.6,0.5c0.2,0.1,0.3,0.3,0.5,0.4c0.2,0.2,0.4,0.4,0.4,0.4s-0.2-0.1-0.5-0.3
				c-0.1-0.1-0.3-0.2-0.5-0.3c-0.2-0.1-0.4-0.2-0.7-0.3c-0.3-0.1-0.5-0.2-0.8-0.3c-0.3-0.1-0.6-0.2-1-0.3c-0.3-0.1-0.7-0.1-1-0.1
				c-0.4,0-0.7,0-1,0.1l-0.5,0.1l-0.5,0.2c-0.3,0.2-0.6,0.3-0.9,0.6c-0.6,0.4-1,0.9-1.3,1.3c-0.2,0.2-0.3,0.4-0.5,0.6
				c-0.1,0.2-0.2,0.4-0.3,0.5C174.5,50.3,174.4,50.5,174.4,50.5z"/>
		</g>
		<ellipse class="st21" cx="164.9" cy="81.8" rx="3.4" ry="1.2"/>
		<path class="st22" d="M167.6,77c0,0,0.6,1.2,0.4,1.7c-0.3,0.6,1.8-1.2,1.1-1.7C168.4,76.5,167.6,77,167.6,77z"/>
		<path class="st22" d="M162.1,77c0,0-0.6,1.2-0.4,1.7c0.3,0.6-1.8-1.2-1.1-1.7C161.3,76.5,162.1,77,162.1,77z"/>
		<g>
			<path class="st23" d="M156.6,63c0.2,0.5,0.4,1,0.6,1.5c0.1,0.5,0.2,1.1,0,1.6c-0.2,0.5-0.5,1-0.8,1.4c-0.3,0.4-0.7,0.8-1.1,1.2
				c-1.5,1.5-3.2,2.8-4.7,4.3l0.1-0.3c0.2,0.6,0.6,1.2,1,1.8c0.4,0.6,0.9,1.1,1.4,1.5c1,0.9,2.4,1.4,3.7,1.4c0.7,0,1.4-0.1,2.1-0.2
				c0.7-0.1,1.4-0.2,2.1-0.3c1.4-0.3,2.8-0.5,4.1-1.1c-0.6,0.4-1.3,0.7-2,0.9c-0.7,0.2-1.4,0.4-2.1,0.6c-0.7,0.2-1.4,0.3-2.1,0.4
				c-0.7,0.1-1.4,0.3-2.2,0.2c-1.5,0-3-0.6-4.1-1.5c-0.6-0.5-1.1-1-1.5-1.6c-0.4-0.6-0.8-1.2-1-2l-0.1-0.2l0.2-0.1l2.4-2.1l2.4-2
				c0.8-0.7,1.6-1.4,2-2.3C157.3,65.1,156.9,64,156.6,63z"/>
		</g>
		<g>
			<path class="st23" d="M165,75.8c0.7,0.3,1.4,0.5,2.1,0.6c0.7,0.2,1.4,0.3,2.1,0.4l2.1,0.3l1.1,0.1c0.3,0,0.7,0.1,1,0.1
				c1.4,0,2.7-0.5,3.8-1.4c0.5-0.4,1-1,1.4-1.5c0.4-0.6,0.8-1.2,1-1.8l0.1,0.3c-1.6-1.4-3.1-2.8-4.7-4.3c-0.4-0.4-0.8-0.7-1.1-1.2
				c-0.3-0.4-0.7-0.9-0.8-1.4c-0.2-0.5-0.1-1.1,0-1.6c0.1-0.5,0.3-1,0.6-1.5c-0.3,1-0.7,2.1-0.4,3c0.4,1,1.2,1.7,2,2.4
				c1.6,1.4,3.2,2.7,4.8,4.1l0.1,0.1l-0.1,0.2c-0.3,0.7-0.6,1.4-1.1,2c-0.4,0.6-0.9,1.2-1.5,1.7c-0.6,0.5-1.2,0.9-2,1.2
				c-0.7,0.3-1.5,0.4-2.2,0.4c-0.4,0-0.7,0-1.1-0.1l-1.1-0.2c-0.7-0.1-1.4-0.3-2.1-0.4c-0.7-0.2-1.4-0.4-2.1-0.6
				C166.4,76.4,165.7,76.1,165,75.8z"/>
		</g>
	</g>
	<g>
		<path class="st24" d="M91.5,106.8c0,0,0.2,0.7,0.6,1.9c0.4,1.2,0.9,3,1.5,5.3c0.6,2.3,1.4,5.1,2.2,8.3c0.8,3.2,1.7,6.8,2.6,10.9
			c0.8,4,1.7,8.4,2.2,13.1c0.6,4.6,1.2,9.5,1.8,14.6c0.6,5.1,1.3,10.3,1.9,15.6c0.6,5.3,1.2,10.7,1.9,16.1
			c0.6,5.4,1.2,10.8,1.7,16.1c0.6,5.3,1.1,10.6,1.6,15.6c1,10.2,1.7,19.7,2.3,27.8c0.3,4.1,0.5,7.8,0.7,11.1
			c0.1,3.3,0.2,6.2,0.3,8.6c0,2.4,0,4.3-0.2,5.5c-0.1,0.6-0.1,1.1-0.2,1.4c-0.1,0.3-0.2,0.5-0.2,0.5c0,0,0.1-0.1,0.2-0.5
			c0.1-0.3,0.1-0.8,0.1-1.4c0-1.3-0.1-3.1-0.2-5.5c-0.3-4.7-1.1-11.5-1.9-19.6c-0.8-8.1-2-17.6-3.1-27.7
			c-1.2-10.1-2.4-20.9-3.6-31.7c-0.6-5.4-1.2-10.8-1.8-16.1c-0.6-5.3-1.1-10.6-1.7-15.6c-0.5-5.1-1-10-1.4-14.7
			c-0.3-4.6-1.1-9-1.8-13c-1.5-8-2.8-14.7-3.8-19.3C92.1,109.4,91.5,106.8,91.5,106.8z"/>
	</g>
	<g>
		<path class="st24" d="M97.7,133.3c0,0,0-0.5,0.1-1.5c0.1-0.9,0.2-2.3,0.5-3.8c0.1-0.8,0.3-1.7,0.5-2.6c0.2-0.9,0.4-1.9,0.6-2.8
			c0.3-1,0.5-2,0.9-3c0.3-1,0.7-2,1.2-3c0.2-0.5,0.6-1,0.8-1.4l0.4-0.7c0.1-0.2,0.2-0.4,0.3-0.7c0.4-0.9,0.6-1.8,0.7-2.8
			c0.2-1.9,0-3.7-0.3-5.3c-0.3-1.5-0.7-2.8-1-3.7c-0.3-0.9-0.5-1.4-0.5-1.4s0.1,0.1,0.2,0.3c0.1,0.2,0.3,0.5,0.5,1
			c0.4,0.8,1,2.1,1.5,3.6c0.5,1.6,0.9,3.5,0.7,5.6c-0.1,1-0.3,2.1-0.7,3.2c-0.1,0.3-0.2,0.5-0.3,0.8l-0.4,0.7
			c-0.3,0.5-0.5,0.9-0.7,1.4c-0.5,0.9-0.9,1.9-1.2,2.9c-0.3,1-0.7,1.9-1,2.9c-0.6,1.9-1.1,3.7-1.5,5.2c-0.4,1.5-0.7,2.8-1,3.7
			C97.8,132.7,97.7,133.3,97.7,133.3z"/>
	</g>
</g>
</svg>
