<?xml version="1.0" encoding="utf-8"?>
<!-- Generator: Adobe Illustrator 19.2.0, SVG Export Plug-In . SVG Version: 6.00 Build 0)  -->
<svg version="1.1" id="Layer_1" xmlns="http://www.w3.org/2000/svg" xmlns:xlink="http://www.w3.org/1999/xlink" x="0px" y="0px"
	 viewBox="0 0 336.2 310.2" style="enable-background:new 0 0 336.2 310.2;" xml:space="preserve">
<style type="text/css">
	.st0{fill:#929497;stroke:#929497;stroke-width:1.3531;stroke-miterlimit:10;}
</style>
<path class="st0" d="M264.7,173.1c-7.9-8.8-16.7-9.1-27.5-6.5c-5.5,1.3-12.4-5.3-17.5-6.6c-9.4-2.4-18.8-4-28.5-4.8
	c-3.7-0.3-14.7,1.4-16.5-2.1c-3.2-6.3-6.6-13-3.6-19.8c2.6-5.9,7.1-11.1,10.1-16.8c3.6-6.8,3.1-15.1,3.8-22.6
	c10.1,0.9,20.9-1.8,30.2-7.5c21.4-12.9,21.2-40.4,8.3-59c-13.5-19.6-40.1-22.5-58.5-8.8c-8.8,6.5-13.5,16.8-15.8,27.2
	c-1.1,5-0.7,10.4,1,15.2c1,2.8,2.1,5.5,3.2,8.2c0.2,0.5,0.4,1,0.6,1.6c0,4.3-0.8,8.8-3.2,12.1c-1.4,0-2.7,0.5-3.9,1.2
	c-15.9-1.3-31.6,6.4-38.1,22.8c-7.6,2.5-13.7,6.9-22.1,7.9c-6.3,0.7-11.8,3.8-12.8,10.5c-1.2,7.8,8.3,15,14.5,17.4
	c5.1,2,14.1-1.4,16.1,6.3c0.8,3.2,0.9,6.5,0.7,9.8c-20.5,3.2-54.4,14.5-39.2,38.9c3.8,6.1,7.2,10.3,9.3,17.4c3,10.5,5.6,21,6.9,31.9
	c0.8,6.6,0.6,13.2,1,19.8c0.4,6.7,3.1,13.2,3.2,19.8c0.1,4.2,6,7.5,9.6,5.4c4.4-2.5,7.9-5.9,11.8-9.1c-1,0.8,5.4,6.8,7.7,9.3
	c3.2,3.6,7.7,3.4,11,0c1.8-1.8,3.2-3.9,4.6-6c2.2-3.2,1.3-2.1,4.2,0.1c4,3.1,8.6,6.5,13.8,6.8c4,0.2,8.6-2.8,11.9-5.1
	c0.2,0.6,1.6,1.3,4.4,2c2.3,1.4,4.9,3.7,7.8,3.9c5,0.3,8.7-0.9,12.8-3.7c0.7-0.5,1.4-1.2,2-2c0.3,0.2,0.6,0.5,0.9,0.7
	c0.4,1.7,2.3,3.1,3.9,4.8c3.1,3.1,7.8,5.1,12.1,3.6c3.8-1.4,5.6-4.3,7.7-6.9c0.9,1.2,1.9,2.5,2.9,3.7c0.5,0.6,1,1,1.5,1.3
	c1.2,1.4,2.7,2.6,4.5,3.6c1.9,1,4.1,0.7,5.9-0.3c2.5,0,5.1-1.4,6.6-4.1c1.4-2.4,0.7-5.9,0.6-8.5c-0.3-5.7,0.8-11.1,1.6-16.8
	c2.1-14.1,0.8-28.5,1.2-42.6c0.3-10.3,0.7-34.2,14.9-35.2C259.8,190.7,272.2,181.6,264.7,173.1z"/>
</svg>
