<?xml version="1.0" encoding="utf-8"?>
<!-- Generator: Adobe Illustrator 19.2.0, SVG Export Plug-In . SVG Version: 6.00 Build 0)  -->
<svg version="1.1" id="Layer_1" xmlns="http://www.w3.org/2000/svg" xmlns:xlink="http://www.w3.org/1999/xlink" x="0px" y="0px"
	 viewBox="0 0 336.2 310.2" style="enable-background:new 0 0 336.2 310.2;" xml:space="preserve">
<style type="text/css">
	.st0{fill:#FFFFFF;stroke:#929497;stroke-width:1.1914;stroke-miterlimit:10;}
	.st1{fill:#E4A2AF;}
	.st2{opacity:0.3;fill:url(#SVGID_1_);}
	.st3{opacity:0.3;fill:url(#SVGID_2_);}
	.st4{opacity:0.5;fill:url(#SVGID_3_);}
	.st5{opacity:0.5;fill:url(#SVGID_4_);}
	.st6{opacity:0.5;fill:url(#SVGID_5_);}
	.st7{fill:#6C1B1D;}
	.st8{fill:#F1F1F2;}
	.st9{fill:#EE4036;}
	.st10{opacity:0.5;fill:#6C1B1D;}
	.st11{fill:none;stroke:#6C1B1D;stroke-width:1.1914;stroke-miterlimit:10;}
</style>
<g>
	<path class="st0" d="M264.8,127.2c-3.1-6.1-8.8-10.2-12.5-16.2c-4.4-7.2-8.3-14.7-12.2-22.2c-8-15.4-16.1-30.8-27.4-44.2
		c-23.9-28.3-62.2-32-96.7-29.3c-12.1,1-26.1,3.1-34.9,12.3c-9.2,9.5-7.8,25.7-0.9,36.1c7.5,11.3,19.8,19,30.1,27.6
		c6.4,5.4,12.6,10.9,17.9,17.3c7.1,8.6,4.6,15.9,0.6,24.1c0,0,0,0,0,0c-0.5,0.8-0.8,1.6-1.2,2.4c-0.4,0.9-0.9,1.7-1.3,2.6
		c-0.5,1-0.7,1.9-0.7,2.7c-0.1,0.3-0.2,0.5-0.3,0.8c-1.5,3.5,0.9,6.7,3.9,8.3c4.4,2.3,9.4,2.8,14.3,3.4c2.6,0.4,5.1,0.8,7.4,2.3
		c1.8,1.1,1.3,0.2,0.4,1.8c-4.2,6.8-4.8,12.6-0.9,18.9c-3,18.7,2.1,35.4,11.1,51.8c-9.6,1.2-17.7,4.7-24.7,12.3
		c-17.6-4-15.2,21.3-11.8,33.3c1.8,6.5,3.8,15.9,9.9,19.7c3.9,2.3,8.8,1.9,13.1,2c8.5,0.1,15.6,3.6,23.5,6.2
		c9.5,3.2,19.5,2,23.6-8.1c5.1-12.4-13.2-23.2-1.8-35.5c8.4-9.1,20-12.7,26.1-24.3c3-5.8,5.1-12.6,5.9-19.4
		c17.7-11.1,20.4-35.5,15.1-56.2c2.1,0.4,4.3,0.2,6.5-0.9c3.7-1.8,6.3-4.1,8.8-7.3c2.7-3.5,1.8-11.9,6-13.8
		C265,134.4,266.4,130.3,264.8,127.2z"/>
	<path class="st1" d="M188.1,92.2c0,0-13.8,4.6-18.1,10.1c-4.3,5.4-21.2,23.5-34.1,22.8c-12.9-0.7,28.3,5,34.3-6.1
		C176,107.8,185.9,92.7,188.1,92.2z"/>
	<path class="st1" d="M197,87.3c0,0-12.8-5.2-19.3-4c-6.5,1.2-29.9,3.7-38.7-4.8c-8.8-8.5,17.1,21.2,28.3,16.9
		C178.6,91.1,195.1,86.3,197,87.3z"/>
	
		<linearGradient id="SVGID_1_" gradientUnits="userSpaceOnUse" x1="185.5521" y1="142.5924" x2="204.1793" y2="115.9042" gradientTransform="matrix(0.9968 7.990000e-002 -7.990000e-002 0.9968 -19.8819 -37.2217)">
		<stop  offset="0" style="stop-color:#FFFFFF"/>
		<stop  offset="1" style="stop-color:#6C1B1D"/>
	</linearGradient>
	<path class="st2" d="M188.1,92.2c0,0-13.8,4.6-18.1,10.1c-4.3,5.4-21.2,23.5-34.1,22.8c-12.9-0.7,28.3,5,34.3-6.1
		C176,107.8,185.9,92.7,188.1,92.2z"/>
	
		<linearGradient id="SVGID_2_" gradientUnits="userSpaceOnUse" x1="162.5063" y1="109.1177" x2="224.8343" y2="110.9091" gradientTransform="matrix(0.9968 7.990000e-002 -7.990000e-002 0.9968 -19.8819 -37.2217)">
		<stop  offset="0" style="stop-color:#FFFFFF"/>
		<stop  offset="1" style="stop-color:#6C1B1D"/>
	</linearGradient>
	<path class="st3" d="M197,87.3c0,0-12.8-5.2-19.3-4c-6.5,1.2-29.9,3.7-38.7-4.8c-8.8-8.5,17.1,21.2,28.3,16.9
		C178.6,91.1,195.1,86.3,197,87.3z"/>
	<path class="st1" d="M158.7,171.2c0,0-4.5-7.6-0.6-10c3.8-2.4,5.1-3.6,3.4-5.3c-1.8-1.6,11,5.7,8.4,8.4
		C167.1,167,158.7,171.2,158.7,171.2z"/>
	
		<linearGradient id="SVGID_3_" gradientUnits="userSpaceOnUse" x1="187.5125" y1="176.1138" x2="205.4211" y2="194.2007" gradientTransform="matrix(0.9968 7.990000e-002 -7.990000e-002 0.9968 -19.8819 -37.2217)">
		<stop  offset="0" style="stop-color:#FFFFFF"/>
		<stop  offset="1" style="stop-color:#6C1B1D"/>
	</linearGradient>
	<path class="st4" d="M158.7,171.2c0,0-4.5-7.6-0.6-10c3.8-2.4,5.1-3.6,3.4-5.3c-1.8-1.6,11,5.7,8.4,8.4
		C167.1,167,158.7,171.2,158.7,171.2z"/>
	<path class="st1" d="M218.5,128c0,0,14.7,15.3,18.2,15.7c3.5,0.4-0.5,6.3-0.5,6.3s-14.3-3.9-18.4-12.3
		C213.5,129.3,218.5,128,218.5,128z"/>
	<path class="st1" d="M236.6,143.7c0,0,10.6-4.4,12.2-11.3c1.6-6.9,4.6,1.2,4.6,1.2s-10.7,19.4-17.3,16.4
		C229.3,147,236.6,143.7,236.6,143.7z"/>
	<ellipse transform="matrix(0.3812 -0.9245 0.9245 0.3812 38.6834 312.8)" class="st1" cx="253" cy="127.5" rx="3.3" ry="5.7"/>
	<ellipse transform="matrix(0.2916 -0.9566 0.9566 0.2916 53.8655 328.7608)" class="st1" cx="248.9" cy="128" rx="0.9" ry="2.3"/>
	<path class="st1" d="M248.8,128.9c0,0,0.4,2.6,0,3.9c-0.5,1.3,3.3,2,3.3,2s9.7-2.4,4.7-8.8L248.8,128.9z"/>
	
		<linearGradient id="SVGID_4_" gradientUnits="userSpaceOnUse" x1="287.8498" y1="143.0995" x2="257.4011" y2="158.3238" gradientTransform="matrix(0.9968 7.990000e-002 -7.990000e-002 0.9968 -19.8819 -37.2217)">
		<stop  offset="0" style="stop-color:#FFFFFF"/>
		<stop  offset="1" style="stop-color:#6C1B1D"/>
	</linearGradient>
	<path class="st5" d="M256.7,126.2C256.7,126.2,256.7,126.2,256.7,126.2L256.7,126.2c-0.7-0.6-1.5-1.1-2.5-1.5
		c-2.9-1.2-5.9-0.8-6.6,0.8c-0.2,0.5-0.2,1.1,0,1.6c-0.6,0-1,0.1-1.1,0.4c-0.1,0.5,0.8,1.1,2,1.5c0.1,0,0.1,0,0.2,0l0,0
		c0,0,0.4,2.3,0,3.6c-1.7,6.8-12.2,11.2-12.2,11.2c-3.5-0.4-18.2-15.7-18.2-15.7s-4.9,1.3-0.8,9.7c4.2,8.4,18.4,12.3,18.4,12.3
		c5.7,2.6,14.7-11.9,16.8-15.6c1.6-0.6,4.8-2,5.2-4.5c0.1-0.1,0.1-0.2,0.2-0.3C258.8,128.8,258.1,127.4,256.7,126.2z"/>
	<path class="st1" d="M195.3,214.8c5,8.3,1.5,24.3,9.4,27.3c7.9,3,16.5-24.1,13.2-34.8c-3.3-10.7-23.9,5.2-23.9,5.2"/>
	<path class="st1" d="M200.2,236.5c0,0-16.8,2-23.9,21l0.9,4.5l3.5-0.7c0,0,16.6-18.4,25.3-18.9L200.2,236.5z"/>
	
		<ellipse transform="matrix(9.318861e-002 -0.9956 0.9956 9.318861e-002 -116.5946 443.7802)" class="st1" cx="185.3" cy="285.9" rx="4.8" ry="3.3"/>
	
		<ellipse transform="matrix(9.348246e-002 -0.9956 0.9956 9.348246e-002 -120.3719 440.9185)" class="st1" cx="181.9" cy="286.6" rx="4.8" ry="3.3"/>
	<path class="st1" d="M181.9,287.5c-0.2,2.6-1.9,4.6-3.7,4.5c-1.8-0.2-3.1-2.4-2.8-5.1c0.2-2.6,1.9-4.6,3.7-4.5
		C180.8,282.6,182.1,284.9,181.9,287.5z"/>
	
		<ellipse transform="matrix(9.267171e-002 -0.9957 0.9957 9.267171e-002 -127.7182 435.6157)" class="st1" cx="175.2" cy="287.9" rx="4.8" ry="3.3"/>
	<path class="st1" d="M186.3,284.5c0,0-6.7-19.5-5.7-22.3c1-2.7-1.6-3.4-2.3-4.2c-1.3-1.5-0.4-3.6-6.4-1.2c-7,2.9,1.3,28.8,1.3,28.8
		L186.3,284.5z"/>
	
		<linearGradient id="SVGID_5_" gradientUnits="userSpaceOnUse" x1="215.1209" y1="319.1231" x2="245.2101" y2="233.1537" gradientTransform="matrix(0.9968 7.990000e-002 -7.990000e-002 0.9968 -19.8819 -37.2217)">
		<stop  offset="0" style="stop-color:#FFFFFF"/>
		<stop  offset="1" style="stop-color:#6C1B1D"/>
	</linearGradient>
	<path class="st6" d="M218,207.3c-3.3-10.7-23.9,5.2-23.9,5.2l1.3,2.3c3.5,5.8,2.9,15.5,4.9,21.7l0,0c0,0-15.9,1.9-23.3,19.6
		c-0.7-0.5-1.9-0.4-5,0.8c-6.2,2.5-0.4,23,1,27.8c-0.5,0.8-0.9,1.8-1,2.9c-0.2,2.6,1,4.9,2.9,5.1c0.9,0.1,1.7-0.3,2.3-1
		c0.3,0.2,0.7,0.3,1.1,0.4c0.9,0.1,1.7-0.3,2.3-1c0.3,0.2,0.7,0.4,1.1,0.4c0.9,0.1,1.7-0.3,2.3-1.1c0.3,0.2,0.7,0.4,1.1,0.4
		c1.8,0.2,3.5-1.8,3.7-4.5c0.2-2.6-1-4.9-2.9-5.1c-0.2,0-0.4,0-0.6,0c-1.9-5.7-5.3-16.9-4.6-18.9c0.1-0.4,0.2-0.7,0.2-1
		c0.4-0.4,16.6-18.4,25.2-18.8l0,0C213.5,242.3,221,217.4,218,207.3z"/>
	<path class="st1" d="M225.8,100.1c1.8,9.9-2.5,15.8-15.4,20.5c-11.8,4.3-27.1-2.6-28.8-12.7c-1.6-10,3.7-19.5,16.1-22.3
		C211.1,82.6,224,90.2,225.8,100.1z"/>
	<path class="st1" d="M196.9,119.4c0,0,3.3,28-4.7,34.1c-8,6.1-46.3,5.5-35.4,41.1c11.1,36.5,54,21.5,65.2,9.1
		c12.8-14.2,16.2-38.7-8.4-85.2L196.9,119.4z"/>
	<path class="st1" d="M157.4,196.5c0,0,12.5,43.9,21,48.1c8.6,4.2,12-14.8,9.4-27.1c-2.5-12.3-31.1-22.9-31.1-22.9"/>
	<path class="st1" d="M172,236.2c0,0-20-4.7-33.6,13.6l-0.4,5.1l4,0.3c0,0,28.5-12.2,38-10L172,236.2z"/>
	
		<ellipse transform="matrix(4.818267e-002 -0.9988 0.9988 4.818267e-002 -137.3663 415.0339)" class="st1" cx="149.1" cy="279.6" rx="5.4" ry="3.7"/>
	<path class="st1" d="M149,280.7c-0.1,3-1.9,5.3-4,5.2c-2.1-0.1-3.6-2.6-3.5-5.6c0.1-3,1.9-5.3,4-5.2
		C147.6,275.2,149.2,277.7,149,280.7z"/>
	
		<ellipse transform="matrix(4.819304e-002 -0.9988 0.9988 4.819304e-002 -146.3673 409.2457)" class="st1" cx="141.6" cy="281.4" rx="5.4" ry="3.7"/>
	
		<ellipse transform="matrix(4.761240e-002 -0.9989 0.9989 4.761240e-002 -150.7948 406.5211)" class="st1" cx="137.8" cy="282.3" rx="5.4" ry="3.7"/>
	<path class="st1" d="M150.1,277.9c0,0-8.1-20.1-7.2-23.2c0.9-3.1-2-4.2-2-4.2s-2-6.1-8.4-2.8c-7.5,4,2.9,32.2,2.9,32.2L150.1,277.9
		z"/>
	<path class="st1" d="M197.7,127.8c0,0-17.1,22.1-20.1,22.6c-3,0.6,2.5,5,2.5,5s14.4-7.5,18.9-16.6
		C203.5,129.8,197.7,127.8,197.7,127.8z"/>
	<path class="st1" d="M177.6,150.5c0,0-25.1-7.9-28-10.3c-2.7-2.2-2.6,1.9-2.6,1.9s28.9,21,34.6,11.9
		C188.4,143.3,177.6,150.5,177.6,150.5z"/>
	<ellipse transform="matrix(0.613 -0.7901 0.7901 0.613 -52.807 165.2132)" class="st1" cx="142.3" cy="136.5" rx="8.3" ry="4.6"/>
	
		<ellipse transform="matrix(0.8243 -0.5662 0.5662 0.8243 -49.9717 107.9494)" class="st1" cx="148.9" cy="134.5" rx="3.1" ry="1.4"/>
	<path class="st1" d="M140.4,142.4c0,0,6.7-0.2,7.8,0.6c1.1,0.7,2.1-2.3,2.1-2.3l-2.9-6.7L140.4,142.4z"/>
	<g>
		<path class="st7" d="M247.7,127c0,0,0.5,0.4,1.2,0.8c0.7,0.5,1.7,1.1,2.7,1.5c0.5,0.2,1.1,0.4,1.6,0.6c0.5,0.1,1,0.2,1.4,0.3
			c0.4,0,0.8,0,1,0c0.3,0,0.4,0,0.4,0s-0.1,0-0.4,0.1c-0.2,0.1-0.6,0.1-1,0.1c-0.4,0-1,0-1.5-0.2c-0.5-0.1-1.1-0.3-1.6-0.5
			c-0.5-0.2-1-0.5-1.5-0.8c-0.5-0.3-0.9-0.6-1.2-0.9C248.1,127.4,247.7,127,247.7,127z"/>
	</g>
	<g>
		<path class="st7" d="M205.7,96.5c0,0-0.1-0.2-0.2-0.4c-0.2-0.2-0.4-0.5-0.8-0.8c-0.2-0.1-0.4-0.3-0.7-0.4
			c-0.2-0.1-0.5-0.2-0.8-0.3c-0.3-0.1-0.6-0.1-0.9-0.1c-0.3,0-0.6,0.1-0.9,0.1c-0.3,0-0.6,0.2-0.9,0.2c-0.3,0.1-0.6,0.2-0.9,0.3
			c-0.6,0.2-1.1,0.5-1.6,0.7c-0.9,0.5-1.5,0.7-1.5,0.7s0.1-0.1,0.4-0.3c0.2-0.2,0.6-0.5,1-0.8c0.4-0.3,0.9-0.6,1.5-0.9
			c0.3-0.1,0.6-0.3,0.9-0.4c0.3-0.1,0.7-0.2,1-0.3c0.4,0,0.7-0.1,1-0.1c0.4,0,0.7,0.1,1,0.1c0.3,0.1,0.6,0.2,0.9,0.4
			c0.3,0.2,0.5,0.4,0.7,0.5c0.4,0.4,0.6,0.8,0.7,1.1C205.7,96.3,205.7,96.5,205.7,96.5z"/>
	</g>
	<g>
		<path class="st7" d="M212.6,94.2c0,0,0.1-0.5,0.5-1.2c0.1-0.2,0.2-0.4,0.4-0.5c0.1-0.2,0.3-0.4,0.5-0.5c0.2-0.1,0.4-0.3,0.7-0.4
			c0.2-0.1,0.5-0.2,0.8-0.3c0.3,0,0.6-0.1,0.8,0c0.3,0,0.5,0.1,0.8,0.1c0.2,0.1,0.5,0.2,0.7,0.3c0.2,0.1,0.4,0.2,0.6,0.3
			c0.4,0.2,0.6,0.4,0.8,0.6c0.2,0.1,0.3,0.2,0.3,0.2s-0.1-0.1-0.3-0.1c-0.2-0.1-0.5-0.3-0.8-0.4c-0.2-0.1-0.4-0.1-0.6-0.2
			c-0.2-0.1-0.4-0.1-0.7-0.2c-0.2-0.1-0.5,0-0.7-0.1c-0.2,0-0.5,0-0.7,0.1c-0.2,0.1-0.5,0.1-0.7,0.2c-0.2,0.1-0.4,0.2-0.6,0.3
			c-0.2,0.1-0.4,0.3-0.5,0.4c-0.2,0.1-0.3,0.3-0.4,0.4C212.9,93.7,212.6,94.2,212.6,94.2z"/>
	</g>
	<path class="st7" d="M212.5,97.9c0,0-1-0.6-2.5,1c0,0,1.6,0.4,1.8,0.9C212.2,100.4,213.1,98.7,212.5,97.9z"/>
	<g>
		<path class="st7" d="M201.4,104.7c0.5,0.2,1,0.3,1.6,0.4c0.5,0.1,1.1,0.2,1.6,0.2c1.1,0.1,2.2,0,3.2-0.3c1-0.3,2-0.9,2.7-1.6
			c0.8-0.7,1.4-1.6,1.9-2.6l0.1-0.2l0.1,0.1c0.8,1,2,1.8,3.3,2c0.6,0.1,1.3-0.1,1.9-0.4c0.6-0.3,1.1-0.7,1.5-1.2
			c-0.4,0.5-0.9,1-1.5,1.3c-0.6,0.3-1.3,0.5-1.9,0.4c-0.7-0.1-1.3-0.3-1.9-0.7c-0.6-0.4-1.1-0.8-1.5-1.3l0.2,0
			c-0.4,1-1.1,1.9-1.9,2.7c-0.8,0.7-1.8,1.3-2.9,1.6c-1.1,0.3-2.2,0.4-3.3,0.2C203.4,105.5,202.4,105.1,201.4,104.7z"/>
	</g>
	<path class="st7" d="M215.7,103c0,0-0.3,2.6,0.1,4.2c0.2,0.9-3.1,3.1-5.6,1.7c-2.5-1.5-3.8-3.3-3.4-3.4c0.3,0,4.3-0.7,5.7-4.4
		C212.4,101,214.1,103.2,215.7,103z"/>
	<path class="st8" d="M212.7,101.6c0,0-0.7,1.5-1.3,1.7l0.2,0.9l2-0.4l-0.1-1.2C213.6,102.5,212.8,101.9,212.7,101.6z"/>
	<path class="st9" d="M210.6,108.2c0.2,0.7,1.4,0.9,2.7,0.6c1.3-0.3,2.2-1.1,2.1-1.8c-0.2-0.7-1.4-0.9-2.7-0.6
		C211.4,106.8,210.4,107.6,210.6,108.2z"/>
	<g>
		<path class="st7" d="M201.9,100.3c0,0-0.6,0.1-1.4,0.3c-0.8,0.2-1.9,0.3-3.1,0.5c-1.1,0.2-2.2,0.3-3.1,0.4
			c-0.8,0.1-1.4,0.1-1.4,0.1s0.6-0.1,1.4-0.3c0.8-0.2,1.9-0.3,3.1-0.5c1.1-0.2,2.2-0.3,3.1-0.4C201.4,100.3,201.9,100.3,201.9,100.3
			z"/>
	</g>
	<g>
		<path class="st7" d="M201.5,102.1c0,0-0.5,0.2-1.3,0.5c-0.8,0.3-1.9,0.6-3,1c-1.1,0.3-2.2,0.6-3,0.8c-0.8,0.2-1.4,0.3-1.4,0.3
			s0.5-0.2,1.3-0.5c0.8-0.3,1.9-0.6,3-1c1.1-0.3,2.2-0.6,3-0.8C201,102.3,201.5,102.1,201.5,102.1z"/>
	</g>
	<g>
		<path class="st7" d="M220.9,96.1c0,0,0.3-0.2,0.7-0.5c0.4-0.3,1.1-0.7,1.7-1c0.6-0.3,1.2-0.7,1.7-0.9c0.5-0.2,0.8-0.4,0.8-0.4
			s-0.3,0.2-0.7,0.5c-0.4,0.3-1.1,0.7-1.7,1c-0.6,0.3-1.2,0.7-1.7,0.9C221.2,95.9,220.9,96.1,220.9,96.1z"/>
	</g>
	<g>
		<path class="st7" d="M220.9,98.6c0,0,0.4-0.1,0.9-0.3c0.6-0.2,1.3-0.4,2.1-0.6c0.8-0.2,1.5-0.4,2.1-0.5c0.6-0.1,1-0.2,1-0.2
			s-0.4,0.1-0.9,0.3c-0.6,0.2-1.3,0.4-2.1,0.6c-0.8,0.2-1.5,0.4-2.1,0.5C221.3,98.5,220.9,98.6,220.9,98.6z"/>
	</g>
	<g>
		<path class="st7" d="M202.5,87.4c0,0-0.4-0.1-1-0.2c-0.6,0-1.5,0.1-2.2,0.4c-0.4,0.2-0.7,0.4-1,0.7c-0.3,0.3-0.5,0.5-0.7,0.8
			c-0.2,0.2-0.3,0.5-0.5,0.6c-0.1,0.1-0.2,0.2-0.2,0.2s0-0.1,0.1-0.3c0.1-0.2,0.2-0.4,0.4-0.7c0.2-0.3,0.4-0.6,0.7-0.8
			c0.3-0.3,0.7-0.5,1-0.7c0.2-0.1,0.4-0.2,0.6-0.2c0.2-0.1,0.4-0.1,0.6-0.1c0.4-0.1,0.8,0,1.1,0C202.1,87.2,202.5,87.4,202.5,87.4z"
			/>
	</g>
	<g>
		<path class="st7" d="M208.6,85.3c0,0,0.1-0.3,0.4-0.8c0.2-0.2,0.4-0.4,0.7-0.5c0.3-0.1,0.7-0.2,1-0.2c0.4,0,0.7,0,1,0.1
			c0.3,0.1,0.6,0.2,0.8,0.3c0.2,0.1,0.4,0.2,0.6,0.3c0.1,0.1,0.2,0.1,0.2,0.1s-0.3-0.1-0.8-0.3c-0.2-0.1-0.5-0.2-0.8-0.2
			c-0.3-0.1-0.6-0.1-1-0.1c-0.7,0-1.3,0.3-1.7,0.6C208.8,85,208.6,85.3,208.6,85.3z"/>
	</g>
	<path class="st10" d="M187.9,217.5c0,0-0.2-4.1-1.4-7.1c-1.2-3,6.1,6.7,6.1,6.7L187.9,217.5z"/>
	<path class="st10" d="M197,142.1l2.1-3.3c0,0-1.6,5.3-2.3,6.6C196,146.9,197,142.1,197,142.1z"/>
	<path class="st10" d="M194.1,120.5c0,0,15,1.4,20-1.3c0,0,1,1.2,0.7,1.5C211,124.1,209.4,125.1,194.1,120.5z"/>
	<g>
		<path class="st7" d="M148.1,133.3c0,0,0.1,0.7-0.2,1.7c-0.1,0.5-0.3,1.1-0.5,1.7c-0.3,0.6-0.6,1.2-0.9,1.8
			c-0.4,0.6-0.8,1.1-1.2,1.6c-0.4,0.5-0.9,0.9-1.3,1.2c-0.4,0.4-0.7,0.6-1,0.8c-0.2,0.2-0.4,0.3-0.4,0.3s0.1-0.1,0.3-0.3
			c0.2-0.2,0.5-0.5,0.9-0.9c0.4-0.4,0.8-0.8,1.2-1.3c0.4-0.5,0.8-1,1.2-1.6c0.4-0.6,0.7-1.1,1-1.7c0.3-0.6,0.5-1.1,0.6-1.6
			c0.1-0.5,0.2-0.9,0.3-1.2C148.1,133.5,148.1,133.3,148.1,133.3z"/>
	</g>
	<path class="st7" d="M147.6,141.4c-0.2,1.2-1.3,2.1-2.6,1.9l0,0c-1.2-0.2-2.1-1.3-1.9-2.6l2-13.7c0.2-1.2,1.3-2.1,2.6-1.9l0,0
		c1.2,0.2,2.1,1.3,1.9,2.6L147.6,141.4z"/>
	<path class="st7" d="M252.7,130.1c0.4,0.9-0.1,1.9-1,2.3l0,0c-0.9,0.4-1.9-0.1-2.3-1l-3.9-10c-0.4-0.9,0.1-1.9,1-2.3l0,0
		c0.9-0.4,1.9,0.1,2.3,1L252.7,130.1z"/>
	<path class="st11" d="M246.5,119.1c0,0-22-67.6-59.5-86.2C147.9,13.5,84.5,21.4,83.6,45.1c-0.8,23.7,19.6,23.2,39.7,42.8
		c21.2,20.6,24.7,24.7,24.4,37.3"/>
	<ellipse transform="matrix(0.613 -0.7901 0.7901 0.613 -52.807 165.2132)" class="st1" cx="142.3" cy="136.5" rx="8.3" ry="4.6"/>
	<ellipse transform="matrix(0.3812 -0.9245 0.9245 0.3812 38.6834 312.8)" class="st1" cx="253" cy="127.5" rx="3.3" ry="5.7"/>
</g>
</svg>
