<?xml version="1.0" encoding="utf-8"?>
<!-- Generator: Adobe Illustrator 19.2.0, SVG Export Plug-In . SVG Version: 6.00 Build 0)  -->
<svg version="1.1" id="Layer_1" xmlns="http://www.w3.org/2000/svg" xmlns:xlink="http://www.w3.org/1999/xlink" x="0px" y="0px"
	 viewBox="0 0 336.2 310.2" style="enable-background:new 0 0 336.2 310.2;" xml:space="preserve">
<style type="text/css">
	.st0{fill:#FFFFFF;stroke:#929497;stroke-width:1.3531;stroke-miterlimit:10;}
	.st1{fill:#E6B784;}
	.st2{opacity:0.5;fill:url(#SVGID_1_);}
	.st3{fill:#59422F;}
	.st4{opacity:0.5;fill:#8A5D3B;}
	.st5{fill:#404041;}
	.st6{clip-path:url(#SVGID_3_);}
	.st7{fill:#A7774C;}
	.st8{opacity:0.5;fill:#A7774C;}
	.st9{fill:#F89D1D;}
	.st10{fill:#603813;}
</style>
<g>
	<path class="st0" d="M268.8,173.9c-7.6-8.5-16.1-8.8-26.5-6.3c-5.3,1.3-11.9-5.1-16.9-6.3c-9-2.3-18.1-3.8-27.4-4.7
		c-3.5-0.3-14.2,1.3-15.9-2.1c-3.1-6.1-6.4-12.6-3.5-19.1c2.5-5.7,6.8-10.7,9.8-16.2c3.4-6.5,3-14.6,3.7-21.8
		c9.7,0.9,20.1-1.8,29.1-7.2c20.6-12.5,20.4-38.9,8-56.9c-13-18.9-38.6-21.7-56.4-8.5c-8.4,6.3-13,16.2-15.2,26.2
		c-1.1,4.8-0.7,10,1,14.6c0.9,2.7,2,5.3,3.1,7.9c0.2,0.5,0.4,1,0.6,1.5c0,4.1-0.7,8.5-3.1,11.6c-1.3,0-2.6,0.5-3.7,1.1
		c-15.3-1.3-30.5,6.2-36.8,22c-7.4,2.4-13.2,6.7-21.3,7.6c-6.1,0.7-11.3,3.7-12.3,10.1c-1.1,7.6,8,14.5,14,16.8
		c4.9,1.9,13.6-1.4,15.5,6.1c0.8,3,0.9,6.3,0.7,9.5c-19.8,3.1-52.4,14-37.8,37.5c3.6,5.9,7,9.9,8.9,16.8c2.9,10.1,5.4,20.2,6.6,30.7
		c0.7,6.3,0.6,12.7,1,19.1c0.4,6.5,3,12.7,3.1,19.1c0.1,4.1,5.7,7.2,9.2,5.2c4.3-2.4,7.6-5.7,11.4-8.7c-1,0.8,5.2,6.6,7.4,9
		c3.1,3.4,7.5,3.3,10.6,0c1.7-1.8,3.1-3.7,4.5-5.7c2.2-3.1,1.2-2,4,0.1c3.9,2.9,8.3,6.2,13.3,6.5c3.9,0.2,8.3-2.7,11.5-4.9
		c0.2,0.6,1.6,1.3,4.2,1.9c2.2,1.3,4.8,3.6,7.5,3.7c4.8,0.2,8.3-0.9,12.3-3.6c0.7-0.5,1.4-1.2,1.9-1.9c0.3,0.2,0.6,0.4,0.9,0.7
		c0.4,1.6,2.2,3,3.8,4.6c3,3,7.5,4.9,11.7,3.4c3.6-1.3,5.4-4.1,7.4-6.7c0.9,1.2,1.8,2.4,2.8,3.5c0.4,0.5,0.9,0.9,1.4,1.3
		c1.2,1.4,2.6,2.5,4.3,3.4c1.8,1,3.9,0.7,5.7-0.3c2.4,0,4.9-1.4,6.4-3.9c1.3-2.3,0.7-5.7,0.6-8.2c-0.3-5.5,0.7-10.7,1.5-16.2
		c2-13.5,0.8-27.5,1.1-41.1c0.2-10,0.7-32.9,14.3-33.9C264.2,190.8,276.1,182,268.8,173.9z"/>
	<path class="st1" d="M188.1,190.1c0,0-7.1,8.5-13.5,4.2c-6.3-4.3-1.4,4.6-1.4,4.6s5.3,8,13.8-0.6
		C198.3,187,188.1,190.1,188.1,190.1z"/>
	
		<linearGradient id="SVGID_1_" gradientUnits="userSpaceOnUse" x1="228.4709" y1="210.9606" x2="215.375" y2="211.5179" gradientTransform="matrix(0.9918 0.1277 -0.1277 0.9918 -10.1073 -42.0259)">
		<stop  offset="0" style="stop-color:#FFFFFF"/>
		<stop  offset="1" style="stop-color:#895E3B"/>
	</linearGradient>
	<path class="st2" d="M188.1,190.1c0,0-7.1,8.5-13.5,4.2c-6.3-4.3-1.4,4.6-1.4,4.6s5.3,8,13.8-0.6
		C198.3,187,188.1,190.1,188.1,190.1z"/>
	
		<ellipse transform="matrix(0.9149 -0.4038 0.4038 0.9149 -35.6261 71.3842)" class="st1" cx="151.5" cy="120.2" rx="24" ry="21.2"/>
	<path class="st1" d="M159.6,102.9c0,0,20.4-4.4,20.8-9.3c0,0,2.5-1.6,3.6,0.5c1.1,2-1.6,22.5-9,27.9
		C167.5,127.4,159.6,102.9,159.6,102.9z"/>
	<path class="st1" d="M131.7,133.1c0,0,8.1,95.3-11.6,117.4c0,0-4.7,12.3-1.4,22.9c3.3,10.5,48.4,0.1,58.2,7.5
		c9.7,7.4-16.4-48.7-11.4-58.8c5-10,22.9-19.5,7.8-60.3c-15.2-40.7-13.8-31-13.8-31l-27.6,0.4"/>
	<path class="st1" d="M145.2,194.6c0,0-11.3,9.3-18.6-1.5l5.7-2.6c0,0,8.7,5.5,13.5,0.5C150.6,185.9,145.2,194.6,145.2,194.6z"/>
	<path class="st1" d="M132.8,191.8c0,0,4.5-6.7,8.1-6.3c3.6,0.5-4.5-9.3-4.5-9.3s-13.5,12.3-10.4,17
		C129.2,198,132.8,191.8,132.8,191.8z"/>
	<path class="st1" d="M134.7,112.8c0,0-6.6,3.5-11.9,2.6c-5.2-1-8.1,10.8-20.7,8.3c-12.6-2.5-7.5,10-1.6,12.2
		c5.9,2.2,23.7-5.7,28.6-12.5c4.8-6.8,10-7.8,10-7.8L134.7,112.8z"/>
	<path class="st3" d="M178.4,98.2c-2-0.7,2-7.7,6.6-5.6c1.2,0.5,1.7,3.4,0.3,5.5C185.3,98.1,183.8,100.1,178.4,98.2z"/>
	<path class="st4" d="M128,124.6c0,0,5.9-7.9,8.9-8.3l-8,11.9C129.5,129.9,128.4,127.3,128,124.6z"/>
	<g>
		<path class="st5" d="M133.3,169.9c0,0-4.6,0.2-12.6,1.3c-4,0.6-8.8,1.4-14.2,2.8c-2.7,0.7-5.5,1.6-8.4,2.8c-1.4,0.6-2.9,1.3-4.3,2
			c-1.4,0.8-2.8,1.7-4,2.7c-1.2,1.1-2.3,2.3-3.1,3.7c-0.2,0.4-0.3,0.7-0.5,1.1l0,0.1c0,0,0.1-0.1,0,0l0,0.2l-0.1,0.3l0,0.2l0,0.1
			c0,0.1,0,0.1,0,0.2c0,0.5,0.1,1.1,0.6,1.6c0.8,1.1,2.4,2,4,2.8c1.6,0.7,3.4,1.4,5.3,1.9c7.5,2.1,15.7,3.1,24.3,4.1
			c8.6,0.9,17.5,1.4,26.5,1.9c4.5,0.2,9.1,0.4,13.7,0.5c2.3,0,4.6,0.1,6.9,0.1c2.1,0,4.5-0.2,6.8-0.3c9.2-0.5,18.3-1.3,27.3-2.4
			c9-1.1,17.8-2.3,26.1-4.3c4.1-1,8.2-2.2,11.6-4c1.7-0.9,3.2-2.1,3.5-3.2c0.2-0.5,0.2-1-0.1-1.7l-0.3-0.5c-0.1-0.2-0.2-0.3-0.3-0.5
			l-0.1-0.1c-0.1-0.1,0.1,0.1,0,0l-0.1-0.1l-0.3-0.3l-0.5-0.5c-1.2-1.1-2.8-2-4.4-2.9c-1.7-0.8-3.4-1.5-5.1-2
			c-3.5-1.2-6.9-2.1-10.3-2.8c-6.7-1.5-13-2.5-18.5-3.2c-5.6-0.7-10.4-1.3-14.4-1.7c-4-0.4-7.2-0.7-9.3-0.9
			c-2.2-0.2-3.3-0.3-3.3-0.3s1.2,0,3.3,0c2.2,0,5.3,0.1,9.4,0.2c4,0.2,9,0.4,14.6,0.9c5.6,0.5,12,1.2,18.8,2.4
			c3.4,0.6,7,1.4,10.7,2.5c1.8,0.5,3.7,1.2,5.5,2c0.9,0.5,1.8,0.8,2.7,1.4c0.5,0.3,0.9,0.5,1.4,0.9c0.4,0.3,1,0.7,1.3,1.1l0.5,0.5
			l0.3,0.3l0.1,0.1c0,0,0.2,0.2,0.2,0.2l0.1,0.2c0.2,0.2,0.4,0.5,0.5,0.7l0.5,0.8c0.6,1.1,0.9,2.8,0.4,4.2c-0.4,1.4-1.3,2.5-2.2,3.3
			c-0.9,0.8-1.9,1.5-2.8,2c-2,1.1-4,2-6.1,2.7c-2.1,0.7-4.2,1.4-6.3,1.9c-4.3,1.1-8.6,2-13.1,2.8c-4.4,0.8-8.9,1.4-13.5,2
			c-9.1,1.1-18.3,2-27.6,2.6c-2.3,0.1-4.6,0.3-7.1,0.3c-2.3,0-4.6-0.1-7-0.1c-4.6-0.1-9.2-0.3-13.8-0.6c-9.1-0.5-18.1-1.2-26.7-2.3
			c-8.6-1.1-17-2.4-24.8-4.8c-1.9-0.6-3.9-1.3-5.7-2.2c-1.8-0.9-3.7-2-5.1-3.9c-0.7-1-1.1-2.3-1-3.6l0.1-0.5l0-0.3l0.1-0.2l0.1-0.3
			l0.1-0.2c0,0.1,0.1-0.2,0.1-0.2l0-0.1c0.2-0.5,0.5-0.9,0.7-1.4c1-1.7,2.4-3.1,3.8-4.3c2.9-2.3,6.1-3.7,9.1-4.8
			c3-1.1,6-1.8,8.8-2.4c5.6-1.2,10.5-1.7,14.5-2c4-0.3,7.2-0.4,9.4-0.5C132.2,169.9,133.3,169.9,133.3,169.9z"/>
	</g>
	<path class="st5" d="M241.1,177.3c0,0,10.6-6.2,16.7-3.2c6.1,3,5.4,6,5.4,6s-10.3-1.6-19.7,8.4c-9.4,10,0.5-3.9,0.5-3.9
		L241.1,177.3z"/>
	<g>
		<defs>
			<path id="SVGID_2_" d="M87,190.4c0,0,18.2,76.8,16.1,91.3l9.7-4.8l9.6,5.5l10.7-3.2l9.1,4.2l8.8-4.3l9.1,4.8l11.2-2.8l11.7,3.3
				l2.7-6.9l10.4,6.2l4.7-4.8l12,6.1l4.8-7.8l8.2,6.2c0,0,9.7-83.4,14.3-89.3C240.2,194,182.7,218.1,87,190.4z"/>
		</defs>
		<clipPath id="SVGID_3_">
			<use xlink:href="#SVGID_2_"  style="overflow:visible;"/>
		</clipPath>
		<g class="st6">
			<g>
				<path class="st5" d="M288.5,201.6c0,0-5.5,5-13.8,12.5c-4.2,3.7-9,8.1-14.2,12.8c-5.2,4.6-10.8,9.6-16.4,14.6
					c-5.6,4.9-11.2,9.9-16.5,14.5c-5.3,4.6-10.2,8.9-14.4,12.6c-8.5,7.3-14.1,12.2-14.1,12.2s5.5-5,13.8-12.5
					c4.2-3.7,9-8.1,14.2-12.8c5.2-4.6,10.8-9.6,16.4-14.6c5.6-4.9,11.2-9.9,16.5-14.5c5.3-4.6,10.2-8.9,14.4-12.6
					C282.8,206.4,288.5,201.6,288.5,201.6z"/>
			</g>
			<g>
				<path class="st5" d="M299.5,205.8c0,0-5.5,5-13.8,12.5c-4.2,3.7-9,8.1-14.2,12.8c-5.2,4.6-10.8,9.6-16.4,14.6
					c-5.6,4.9-11.2,9.9-16.5,14.5c-5.3,4.6-10.2,8.9-14.4,12.6c-8.5,7.3-14.1,12.2-14.1,12.2s5.5-5,13.8-12.5
					c4.2-3.7,9-8.1,14.2-12.8c5.2-4.6,10.8-9.6,16.4-14.6c5.6-4.9,11.2-9.9,16.5-14.5c5.3-4.6,10.2-8.9,14.4-12.6
					C293.9,210.7,299.5,205.8,299.5,205.8z"/>
			</g>
			<g>
				<path class="st5" d="M275.3,201.3c0,0-5.5,5-13.8,12.5c-4.2,3.7-9,8.1-14.2,12.8c-5.2,4.6-10.8,9.6-16.4,14.6
					c-5.6,4.9-11.2,9.9-16.5,14.5c-5.3,4.6-10.2,8.9-14.4,12.6c-8.5,7.3-14.1,12.2-14.1,12.2s5.5-5,13.8-12.5
					c4.2-3.7,9-8.1,14.2-12.8c5.2-4.6,10.8-9.6,16.4-14.6c5.6-4.9,11.2-9.9,16.5-14.5c5.3-4.6,10.2-8.9,14.4-12.6
					C269.6,206.1,275.3,201.3,275.3,201.3z"/>
			</g>
			<g>
				<path class="st5" d="M262,201c0,0-5.5,5-13.8,12.5c-4.2,3.7-9,8.1-14.2,12.8c-5.2,4.6-10.8,9.6-16.4,14.6
					c-5.6,4.9-11.2,9.9-16.5,14.5c-5.3,4.6-10.2,8.9-14.4,12.6c-8.5,7.3-14.1,12.2-14.1,12.2s5.5-5,13.8-12.5
					c4.2-3.7,9-8.1,14.2-12.8c5.2-4.6,10.8-9.6,16.4-14.6c5.6-4.9,11.2-9.9,16.5-14.5c5.3-4.6,10.2-8.9,14.4-12.6
					C256.4,205.8,262,201,262,201z"/>
			</g>
			<g>
				<path class="st5" d="M248.8,200.7c0,0-5.5,5-13.8,12.5c-4.2,3.7-9,8.1-14.2,12.8c-5.2,4.6-10.8,9.6-16.4,14.6
					c-5.6,4.9-11.2,9.9-16.5,14.5c-5.3,4.6-10.2,8.9-14.4,12.6c-8.5,7.3-14.1,12.2-14.1,12.2s5.5-5,13.8-12.5
					c4.2-3.7,9-8.1,14.2-12.8c5.2-4.6,10.8-9.6,16.4-14.6c5.6-4.9,11.2-9.9,16.5-14.5c5.3-4.6,10.2-8.9,14.4-12.6
					C243.2,205.5,248.8,200.7,248.8,200.7z"/>
			</g>
			<g>
				<path class="st5" d="M235.6,200.4c0,0-5.5,5-13.8,12.5c-4.2,3.7-9,8.1-14.2,12.8c-5.2,4.6-10.8,9.6-16.4,14.6
					c-5.6,4.9-11.2,9.9-16.5,14.5c-5.3,4.6-10.2,8.9-14.4,12.6c-8.5,7.3-14.1,12.2-14.1,12.2s5.5-5,13.8-12.5
					c4.2-3.7,9-8.1,14.2-12.8c5.2-4.6,10.8-9.6,16.4-14.6c5.6-4.9,11.2-9.9,16.5-14.5c5.3-4.6,10.2-8.9,14.4-12.6
					C230,205.2,235.6,200.4,235.6,200.4z"/>
			</g>
			<g>
				<path class="st5" d="M222.4,200.1c0,0-5.5,5-13.8,12.5c-4.2,3.7-9,8.1-14.2,12.8c-5.2,4.6-10.8,9.6-16.4,14.6
					c-5.6,4.9-11.2,9.9-16.5,14.5c-5.3,4.6-10.2,8.9-14.4,12.6c-8.5,7.3-14.1,12.2-14.1,12.2s5.5-5,13.8-12.5
					c4.2-3.7,9-8.1,14.2-12.8c5.2-4.6,10.8-9.6,16.4-14.6c5.6-4.9,11.2-9.9,16.5-14.5c5.3-4.6,10.2-8.9,14.4-12.6
					C216.7,205,222.4,200.1,222.4,200.1z"/>
			</g>
			<g>
				<path class="st5" d="M209.2,199.8c0,0-5.5,5-13.8,12.5c-4.2,3.7-9,8.1-14.2,12.8c-5.2,4.6-10.8,9.6-16.4,14.6
					c-5.6,4.9-11.2,9.9-16.5,14.5c-5.3,4.6-10.2,8.9-14.4,12.6c-8.5,7.3-14.1,12.2-14.1,12.2s5.5-5,13.8-12.5
					c4.2-3.7,9-8.1,14.2-12.8c5.2-4.6,10.8-9.6,16.4-14.6c5.6-4.9,11.2-9.9,16.5-14.5c5.3-4.6,10.2-8.9,14.4-12.6
					C203.5,204.7,209.2,199.8,209.2,199.8z"/>
			</g>
			<g>
				<path class="st5" d="M196,199.5c0,0-5.5,5-13.8,12.5c-4.2,3.7-9,8.1-14.2,12.8c-5.2,4.6-10.8,9.6-16.4,14.6
					c-5.6,4.9-11.2,9.9-16.5,14.5c-5.3,4.6-10.2,8.9-14.4,12.6c-8.5,7.3-14.1,12.2-14.1,12.2s5.5-5,13.8-12.5
					c4.2-3.7,9-8.1,14.2-12.8c5.2-4.6,10.8-9.6,16.4-14.6c5.6-4.9,11.2-9.9,16.5-14.5c5.3-4.6,10.2-8.9,14.4-12.6
					C190.3,204.4,196,199.5,196,199.5z"/>
			</g>
			<g>
				<path class="st5" d="M182.7,199.2c0,0-5.5,5-13.8,12.5c-4.2,3.7-9,8.1-14.2,12.8c-5.2,4.6-10.8,9.6-16.4,14.6
					c-5.6,4.9-11.2,9.9-16.5,14.5c-5.3,4.6-10.2,8.9-14.4,12.6c-8.5,7.3-14.1,12.2-14.1,12.2s5.5-5,13.8-12.5
					c4.2-3.7,9-8.1,14.2-12.8c5.2-4.6,10.8-9.6,16.4-14.6c5.6-4.9,11.2-9.9,16.5-14.5c5.3-4.6,10.2-8.9,14.4-12.6
					C177.1,204.1,182.7,199.2,182.7,199.2z"/>
			</g>
			<g>
				<path class="st5" d="M169.5,198.9c0,0-5.5,5-13.8,12.5c-4.2,3.7-9,8.1-14.2,12.8c-5.2,4.6-10.8,9.6-16.4,14.6
					c-5.6,4.9-11.2,9.9-16.5,14.5c-5.3,4.6-10.2,8.9-14.4,12.6c-8.5,7.3-14.1,12.2-14.1,12.2s5.5-5,13.8-12.5
					c4.2-3.7,9-8.1,14.2-12.8c5.2-4.6,10.8-9.6,16.4-14.6c5.6-4.9,11.2-9.9,16.5-14.5c5.3-4.6,10.2-8.9,14.4-12.6
					C163.9,203.8,169.5,198.9,169.5,198.9z"/>
			</g>
			<g>
				<path class="st5" d="M156.3,198.6c0,0-5.5,5-13.8,12.5c-4.2,3.7-9,8.1-14.2,12.8c-5.2,4.6-10.8,9.6-16.4,14.6
					c-5.6,4.9-11.2,9.9-16.5,14.5c-5.3,4.6-10.2,8.9-14.4,12.6c-8.5,7.3-14.1,12.2-14.1,12.2s5.5-5,13.8-12.5
					c4.2-3.7,9-8.1,14.2-12.8c5.2-4.6,10.8-9.6,16.4-14.6c5.6-4.9,11.2-9.9,16.5-14.5c5.3-4.6,10.2-8.9,14.4-12.6
					C150.6,203.5,156.3,198.6,156.3,198.6z"/>
			</g>
			<g>
				<path class="st5" d="M143.1,198.3c0,0-5.5,5-13.8,12.5c-4.2,3.7-9,8.1-14.2,12.8c-5.2,4.6-10.8,9.6-16.4,14.6
					c-5.6,4.9-11.2,9.9-16.5,14.5c-5.3,4.6-10.2,8.9-14.4,12.6c-8.5,7.3-14.1,12.2-14.1,12.2s5.5-5,13.8-12.5
					c4.2-3.7,9-8.1,14.2-12.8c5.2-4.6,10.8-9.6,16.4-14.6c5.6-4.9,11.2-9.9,16.5-14.5c5.3-4.6,10.2-8.9,14.4-12.6
					C137.4,203.2,143.1,198.3,143.1,198.3z"/>
			</g>
			<g>
				<path class="st5" d="M129.9,198c0,0-5.5,5-13.8,12.5c-4.2,3.7-9,8.1-14.2,12.8C96.6,228,91,233,85.4,237.9
					c-5.6,4.9-11.2,9.9-16.5,14.5c-5.3,4.6-10.2,8.9-14.4,12.6c-8.5,7.3-14.1,12.2-14.1,12.2s5.5-5,13.8-12.5
					c4.2-3.7,9-8.1,14.2-12.8c5.2-4.6,10.8-9.6,16.4-14.6c5.6-4.9,11.2-9.9,16.5-14.5c5.3-4.6,10.2-8.9,14.4-12.6
					C124.2,202.9,129.9,198,129.9,198z"/>
			</g>
			<g>
				<path class="st5" d="M116.6,197.7c0,0-5.5,5-13.8,12.5c-4.2,3.7-9,8.1-14.2,12.8c-5.2,4.6-10.8,9.6-16.4,14.6
					c-5.6,4.9-11.2,9.9-16.5,14.5c-5.3,4.6-10.2,8.9-14.4,12.6c-8.5,7.3-14.1,12.2-14.1,12.2s5.5-5,13.8-12.5
					c4.2-3.7,9-8.1,14.2-12.8c5.2-4.6,10.8-9.6,16.4-14.6c5.6-4.9,11.2-9.9,16.5-14.5c5.3-4.6,10.2-8.9,14.4-12.6
					C111,202.6,116.6,197.7,116.6,197.7z"/>
			</g>
			<g>
				<path class="st5" d="M103.4,197.5c0,0-5.5,5-13.8,12.5c-4.2,3.7-9,8.1-14.2,12.8c-5.2,4.6-10.8,9.6-16.4,14.6
					c-5.6,4.9-11.2,9.9-16.5,14.5c-5.3,4.6-10.2,8.9-14.4,12.6c-8.5,7.3-14.1,12.2-14.1,12.2s5.5-5,13.8-12.5
					c4.2-3.7,9-8.1,14.2-12.8c5.2-4.6,10.8-9.6,16.4-14.6c5.6-4.9,11.2-9.9,16.5-14.5c5.3-4.6,10.2-8.9,14.4-12.6
					C97.8,202.3,103.4,197.5,103.4,197.5z"/>
			</g>
			<g>
				<path class="st5" d="M49.5,194.1c0,0,6,5.1,15.1,12.7c4.5,3.8,9.8,8.3,15.4,13.1c5.6,4.8,11.6,10,17.6,15.1
					c6,5.2,11.9,10.4,17.5,15.2c5.6,4.9,10.8,9.4,15.2,13.4c8.9,7.9,14.8,13.1,14.8,13.1s-6-5.1-15.1-12.7
					c-4.5-3.8-9.8-8.3-15.4-13.1c-5.6-4.8-11.6-10-17.6-15.1c-6-5.2-11.9-10.4-17.5-15.2c-5.6-4.9-10.8-9.4-15.2-13.4
					C55.4,199.3,49.5,194.1,49.5,194.1z"/>
			</g>
			<g>
				<path class="st5" d="M38.8,197.9c0,0,6,5.1,15.1,12.7c4.5,3.8,9.8,8.3,15.4,13.1c5.6,4.8,11.6,10,17.6,15.1
					c6,5.2,11.9,10.4,17.5,15.2c5.6,4.9,10.8,9.4,15.2,13.4c8.9,7.9,14.8,13.1,14.8,13.1s-6-5.1-15.1-12.7
					c-4.5-3.8-9.8-8.3-15.4-13.1c-5.6-4.8-11.6-10-17.6-15.1c-6-5.2-11.9-10.4-17.5-15.2c-5.6-4.9-10.8-9.4-15.2-13.4
					C44.7,203.1,38.8,197.9,38.8,197.9z"/>
			</g>
			<g>
				<path class="st5" d="M62.7,194.3c0,0,6,5.1,15.1,12.7c4.5,3.8,9.8,8.3,15.4,13.1c5.6,4.8,11.6,10,17.6,15.1
					c6,5.2,11.9,10.4,17.5,15.2c5.6,4.9,10.8,9.4,15.2,13.4c8.9,7.9,14.8,13.1,14.8,13.1s-6-5.1-15.1-12.7
					c-4.5-3.8-9.8-8.3-15.4-13.1c-5.6-4.8-11.6-10-17.6-15.1c-6-5.2-11.9-10.4-17.5-15.2c-5.6-4.9-10.8-9.4-15.2-13.4
					C68.6,199.5,62.7,194.3,62.7,194.3z"/>
			</g>
			<g>
				<path class="st5" d="M76,194.5c0,0,6,5.1,15.1,12.7c4.5,3.8,9.8,8.3,15.4,13.1c5.6,4.8,11.6,10,17.6,15.1
					c6,5.2,11.9,10.4,17.5,15.2c5.6,4.9,10.8,9.4,15.2,13.4c8.9,7.9,14.8,13.1,14.8,13.1s-6-5.1-15.1-12.7
					c-4.5-3.8-9.8-8.3-15.4-13.1c-5.6-4.8-11.6-10-17.6-15.1c-6-5.2-11.9-10.4-17.5-15.2c-5.6-4.9-10.8-9.4-15.2-13.4
					C81.9,199.8,76,194.5,76,194.5z"/>
			</g>
			<g>
				<path class="st5" d="M89.2,194.7c0,0,6,5.1,15.1,12.7c4.5,3.8,9.8,8.3,15.4,13.1c5.6,4.8,11.6,10,17.6,15.1
					c6,5.2,11.9,10.4,17.5,15.2c5.6,4.9,10.8,9.4,15.2,13.4c8.9,7.9,14.8,13.1,14.8,13.1s-6-5.1-15.1-12.7
					c-4.5-3.8-9.8-8.3-15.4-13.1c-5.6-4.8-11.6-10-17.6-15.1c-6-5.2-11.9-10.4-17.5-15.2c-5.6-4.9-10.8-9.4-15.2-13.4
					C95.1,200,89.2,194.7,89.2,194.7z"/>
			</g>
			<g>
				<path class="st5" d="M102.4,195c0,0,6,5.1,15.1,12.7c4.5,3.8,9.8,8.3,15.4,13.1c5.6,4.8,11.6,10,17.6,15.1
					c6,5.2,11.9,10.4,17.5,15.2c5.6,4.9,10.8,9.4,15.2,13.4c8.9,7.9,14.8,13.1,14.8,13.1s-6-5.1-15.1-12.7
					c-4.5-3.8-9.8-8.3-15.4-13.1c-5.6-4.8-11.6-10-17.6-15.1c-6-5.2-11.9-10.4-17.5-15.2c-5.6-4.9-10.8-9.4-15.2-13.4
					C108.3,200.2,102.4,195,102.4,195z"/>
			</g>
			<g>
				<path class="st5" d="M115.6,195.2c0,0,6,5.1,15.1,12.7c4.5,3.8,9.8,8.3,15.4,13.1c5.6,4.8,11.6,10,17.6,15.1
					c6,5.2,11.9,10.4,17.5,15.2c5.6,4.9,10.8,9.4,15.2,13.4c8.9,7.9,14.8,13.1,14.8,13.1s-6-5.1-15.1-12.7
					c-4.5-3.8-9.8-8.3-15.4-13.1c-5.6-4.8-11.6-10-17.6-15.1c-6-5.2-11.9-10.4-17.5-15.2c-5.6-4.9-10.8-9.4-15.2-13.4
					C121.5,200.5,115.6,195.2,115.6,195.2z"/>
			</g>
			<g>
				<path class="st5" d="M128.8,195.4c0,0,6,5.1,15.1,12.7c4.5,3.8,9.8,8.3,15.4,13.1c5.6,4.8,11.6,10,17.6,15.1
					c6,5.2,11.9,10.4,17.5,15.2c5.6,4.9,10.8,9.4,15.2,13.4c8.9,7.9,14.8,13.1,14.8,13.1s-6-5.1-15.1-12.7
					c-4.5-3.8-9.8-8.3-15.4-13.1c-5.6-4.8-11.6-10-17.6-15.1c-6-5.2-11.9-10.4-17.5-15.2c-5.6-4.9-10.8-9.4-15.2-13.4
					C134.7,200.7,128.8,195.4,128.8,195.4z"/>
			</g>
			<g>
				<path class="st5" d="M142,195.7c0,0,6,5.1,15.1,12.7c4.5,3.8,9.8,8.3,15.4,13.1c5.6,4.8,11.6,10,17.6,15.1
					c6,5.2,11.9,10.4,17.5,15.2c5.6,4.9,10.8,9.4,15.2,13.4c8.9,7.9,14.8,13.1,14.8,13.1s-6-5.1-15.1-12.7
					c-4.5-3.8-9.8-8.3-15.4-13.1c-5.6-4.8-11.6-10-17.6-15.1c-6-5.2-11.9-10.4-17.5-15.2c-5.6-4.9-10.8-9.4-15.2-13.4
					C147.9,200.9,142,195.7,142,195.7z"/>
			</g>
			<g>
				<path class="st5" d="M155.3,195.9c0,0,6,5.1,15.1,12.7c4.5,3.8,9.8,8.3,15.4,13.1c5.6,4.8,11.6,10,17.6,15.1
					c6,5.2,11.9,10.4,17.5,15.2c5.6,4.9,10.8,9.4,15.2,13.4c8.9,7.9,14.8,13.1,14.8,13.1s-6-5.1-15.1-12.7
					c-4.5-3.8-9.8-8.3-15.4-13.1c-5.6-4.8-11.6-10-17.6-15.1c-6-5.2-11.9-10.4-17.5-15.2c-5.6-4.9-10.8-9.4-15.2-13.4
					C161.2,201.1,155.3,195.9,155.3,195.9z"/>
			</g>
			<g>
				<path class="st5" d="M168.5,196.1c0,0,6,5.1,15.1,12.7c4.5,3.8,9.8,8.3,15.4,13.1c5.6,4.8,11.6,10,17.6,15.1
					c6,5.2,11.9,10.4,17.5,15.2c5.6,4.9,10.8,9.4,15.2,13.4c8.9,7.9,14.8,13.1,14.8,13.1s-6-5.1-15.1-12.7
					c-4.5-3.8-9.8-8.3-15.4-13.1c-5.6-4.8-11.6-10-17.6-15.1c-6-5.2-11.9-10.4-17.5-15.2c-5.6-4.9-10.8-9.4-15.2-13.4
					C174.4,201.4,168.5,196.1,168.5,196.1z"/>
			</g>
			<g>
				<path class="st5" d="M181.7,196.4c0,0,6,5.1,15.1,12.7c4.5,3.8,9.8,8.3,15.4,13.1c5.6,4.8,11.6,10,17.6,15.1
					c6,5.2,11.9,10.4,17.5,15.2c5.6,4.9,10.8,9.4,15.2,13.4c8.9,7.9,14.8,13.1,14.8,13.1s-6-5.1-15.1-12.7
					c-4.5-3.8-9.8-8.3-15.4-13.1c-5.6-4.8-11.6-10-17.6-15.1c-6-5.2-11.9-10.4-17.5-15.2c-5.6-4.9-10.8-9.4-15.2-13.4
					C187.6,201.6,181.7,196.4,181.7,196.4z"/>
			</g>
			<g>
				<path class="st5" d="M194.9,196.6c0,0,6,5.1,15.1,12.7c4.5,3.8,9.8,8.3,15.4,13.1c5.6,4.8,11.6,10,17.6,15.1
					c6,5.2,11.9,10.4,17.5,15.2c5.6,4.9,10.8,9.4,15.2,13.4c8.9,7.9,14.8,13.1,14.8,13.1s-6-5.1-15.1-12.7
					c-4.5-3.8-9.8-8.3-15.4-13.1c-5.6-4.8-11.6-10-17.6-15.1c-6-5.2-11.9-10.4-17.5-15.2c-5.6-4.9-10.8-9.4-15.2-13.4
					C200.8,201.8,194.9,196.6,194.9,196.6z"/>
			</g>
			<g>
				<path class="st5" d="M208.1,196.8c0,0,6,5.1,15.1,12.7c4.5,3.8,9.8,8.3,15.4,13.1c5.6,4.8,11.6,10,17.6,15.1
					c6,5.2,11.9,10.4,17.5,15.2c5.6,4.9,10.8,9.4,15.2,13.4c8.9,7.9,14.8,13.1,14.8,13.1s-6-5.1-15.1-12.7
					c-4.5-3.8-9.8-8.3-15.4-13.1c-5.6-4.8-11.6-10-17.6-15.1c-6-5.2-11.9-10.4-17.5-15.2c-5.6-4.9-10.8-9.4-15.2-13.4
					C214,202.1,208.1,196.8,208.1,196.8z"/>
			</g>
			<g>
				<path class="st5" d="M221.3,197c0,0,6,5.1,15.1,12.7c4.5,3.8,9.8,8.3,15.4,13.1c5.6,4.8,11.6,10,17.6,15.1
					c6,5.2,11.9,10.4,17.5,15.2c5.6,4.9,10.8,9.4,15.2,13.4c8.9,7.9,14.8,13.1,14.8,13.1s-6-5.1-15.1-12.7
					c-4.5-3.8-9.8-8.3-15.4-13.1c-5.6-4.8-11.6-10-17.6-15.1c-6-5.2-11.9-10.4-17.5-15.2c-5.6-4.9-10.8-9.4-15.2-13.4
					C227.2,202.3,221.3,197,221.3,197z"/>
			</g>
			<g>
				<path class="st5" d="M234.5,197.3c0,0,6,5.1,15.1,12.7c4.5,3.8,9.8,8.3,15.4,13.1c5.6,4.8,11.6,10,17.6,15.1
					c6,5.2,11.9,10.4,17.5,15.2c5.6,4.9,10.8,9.4,15.2,13.4c8.9,7.9,14.8,13.1,14.8,13.1s-6-5.1-15.1-12.7
					c-4.5-3.8-9.8-8.3-15.4-13.1c-5.6-4.8-11.6-10-17.6-15.1c-6-5.2-11.9-10.4-17.5-15.2c-5.6-4.9-10.8-9.4-15.2-13.4
					C240.4,202.5,234.5,197.3,234.5,197.3z"/>
			</g>
		</g>
	</g>
	<ellipse transform="matrix(0.1277 -0.9918 0.9918 0.1277 -28.3093 360.565)" class="st1" cx="190.8" cy="196.4" rx="7.2" ry="6"/>
	
		<ellipse transform="matrix(0.1276 -0.9918 0.9918 0.1276 -63.1135 320.5426)" class="st1" cx="150.7" cy="196.1" rx="8.1" ry="7.7"/>
	<path class="st4" d="M163.8,137.5c0,0-13.6,1.1-21.4-0.9c0,0,24.8,9,25.1,9.9C167.8,147.3,163.8,137.5,163.8,137.5z"/>
	<g>
		<path class="st7" d="M143.3,195.5c0,0,0,0.2-0.1,0.5c0,0.2-0.1,0.4-0.1,0.6c0,0.2,0,0.4,0,0.7c0,0.2,0,0.5,0.1,0.8
			c0,0.3,0.2,0.5,0.2,0.8c0.1,0.3,0.2,0.5,0.4,0.8c0.1,0.3,0.3,0.5,0.5,0.8c0.4,0.5,0.8,1,1.3,1.4c0.2,0.2,0.4,0.4,0.7,0.6
			c0.2,0.2,0.4,0.4,0.6,0.5c0.4,0.3,0.8,0.6,1,0.7c0.3,0.2,0.4,0.3,0.4,0.3s-0.2,0-0.5,0c-0.3,0-0.8-0.1-1.3-0.3
			c-0.5-0.2-1.1-0.5-1.7-0.9c-0.3-0.2-0.6-0.4-0.8-0.7c-0.3-0.3-0.5-0.6-0.8-0.9c-0.2-0.3-0.4-0.6-0.6-1c-0.2-0.3-0.3-0.7-0.4-1.1
			c-0.1-0.4-0.1-0.7-0.1-1.1c0-0.2,0-0.3,0-0.5c0-0.2,0.1-0.3,0.1-0.4c0.1-0.3,0.2-0.5,0.3-0.7c0.1-0.2,0.2-0.4,0.3-0.5
			C143.2,195.6,143.3,195.5,143.3,195.5z"/>
	</g>
	<path class="st8" d="M141.4,185.2l-6,2.1c-0.6,0.5,5.4,2.6,5.4,2.6L141.4,185.2z"/>
	<g>
		<path class="st7" d="M140.8,189.8c0,0,0.3-0.1,0.9-0.1c0.6-0.1,1.4-0.2,2.4-0.3c1-0.1,2.1-0.2,3.4-0.2c0.6,0,1.3,0,1.9,0.1
			c0.3,0,0.7,0.1,1,0.1l1,0.2c0.6,0.2,1.3,0.4,1.9,0.7l0.4,0.2l0.4,0.3c0.3,0.2,0.6,0.3,0.8,0.6c0.2,0.2,0.5,0.4,0.7,0.6
			c0.2,0.2,0.4,0.5,0.6,0.7c0.4,0.4,0.6,1,0.9,1.4c0.2,0.4,0.4,0.9,0.5,1.3c0.2,0.4,0.2,0.7,0.3,1c0.2,0.6,0.2,0.9,0.2,0.9
			s-0.1-0.3-0.4-0.8c-0.1-0.3-0.2-0.6-0.4-0.9c-0.2-0.3-0.4-0.8-0.6-1.2c-0.3-0.4-0.5-0.9-0.9-1.3c-0.2-0.2-0.4-0.4-0.6-0.6
			c-0.2-0.2-0.4-0.4-0.7-0.6c-0.2-0.2-0.5-0.3-0.7-0.5l-0.4-0.3l-0.4-0.2c-0.6-0.3-1.2-0.5-1.8-0.7l-0.9-0.2c-0.3,0-0.6-0.1-0.9-0.1
			c-0.6-0.1-1.3-0.1-1.9-0.1c-1.2,0-2.4,0-3.4,0c-1,0-1.8,0.1-2.4,0.1C141.1,189.8,140.8,189.8,140.8,189.8z"/>
	</g>
	<g>
		
			<ellipse transform="matrix(0.9635 -0.2678 0.2678 0.9635 -7.8959 55.0374)" class="st5" cx="197.8" cy="56.5" rx="31.9" ry="31.9"/>
		<g>
			<g>
				<g id="_x31_4_1_">
					<g>
						<path class="st9" d="M193.1,30c0.4-1.1-0.2-3-0.8-4.7c0-0.1,0-0.1-0.1-0.2c-1,0.2-2,0.4-3,0.7c-3.8,1.1-7.3,2.8-10.3,5
							c2.7,0.5,7,1.4,12,3.2C192,32.3,192.7,30.9,193.1,30z"/>
						<path class="st9" d="M213.6,43.2c-1.5,0.6-2.7,1.2-3.7,1.9c7.8,7.7,13,18.6,15.8,26.9c3.7-6.7,5-14.8,3.1-22.8
							C224.1,45.7,217.8,41.5,213.6,43.2z"/>
						<path class="st9" d="M180.3,43.9c3.5-1.8,6.4-4.6,8.6-7.3c-6.8-2.4-12.2-3.1-13.3-3.2c-5.1,4.9-8.4,11.3-9.4,18.3
							c3.2-2.4,6.9-4.3,10.5-6C177.9,45.1,179.1,44.5,180.3,43.9z"/>
						<path class="st9" d="M201.8,38.9c0.4,0.2,0.8,0.5,1.3,0.7c1.5,0.9,3,2,4.4,3.2c1.3-1,2.9-1.8,4.9-2.6c4.7-1.9,10,0.7,14.9,3.9
							C224.7,38,220.4,33,215,29.6c-2.1,0.9-4.5,2-6.8,3.5C206.7,34,204.4,36.1,201.8,38.9z"/>
						<path class="st9" d="M202.2,55.9c0.1-4.6,0.7-8.1,3-10.9c-1.2-1-2.4-1.9-3.7-2.6c-0.6-0.4-1.2-0.7-1.8-1
							c-9.2,10.9-20.8,29.4-18.8,42.1c6.2,3.9,13.6,5.6,21.2,4.6c1.2-6,0.7-17.4,0.4-24.2C202.3,60.6,202.2,57.8,202.2,55.9z"/>
						<path class="st9" d="M187.4,52.7c2.9-4.8,6.2-9.2,9.3-12.9c-1.6-0.8-3.2-1.5-4.7-2.1c-2.5,3.3-6,6.8-10.3,9
							c-1.2,0.6-2.4,1.2-3.6,1.8c-4.6,2.2-9,4.4-12.3,7.7c0,2.9,0.4,5.8,1.2,8.7c1.8,6.5,5.5,12,10.4,16
							C177.2,71.5,182.5,60.7,187.4,52.7z"/>
						<path class="st9" d="M198.9,37.4c3-3.4,5.7-5.8,7.6-7c1.7-1.1,3.4-2,5-2.7c-4.9-2.3-10.4-3.4-16-3c0.7,2.1,1.4,4.5,0.6,6.5
							c-0.4,1-1.1,2.4-2.1,4C195.6,35.8,197.2,36.5,198.9,37.4z"/>
						<path class="st9" d="M205.4,56c0,1.8,0.1,4.5,0.2,7.7c0.4,9.5,0.6,18-0.3,23.7c0.3-0.1,0.7-0.2,1-0.3
							c7.2-2,13.1-6.3,17.2-11.9c-2.6-8.7-8.2-20.5-16-28.2C205.9,49.3,205.4,52,205.4,56z"/>
					</g>
				</g>
			</g>
		</g>
	</g>
	<g>
		<path class="st10" d="M184.1,98.4c0,0-0.5,2.2-1.6,5.4c-0.6,1.6-1.3,3.5-2.2,5.4c-0.5,1-1,1.9-1.5,2.9c-0.6,1-1.2,1.9-1.8,2.9
			c-0.7,0.9-1.4,1.8-2.2,2.7c-0.8,0.8-1.6,1.6-2.4,2.3c-0.4,0.3-0.8,0.7-1.3,0.9c-0.4,0.3-0.9,0.5-1.3,0.7c-0.9,0.4-1.8,0.7-2.6,0.9
			c-0.8,0.2-1.6,0.3-2.3,0.3c-0.7,0-1.3-0.1-1.8-0.1c-0.5-0.1-0.9-0.2-1.1-0.3c-0.3-0.1-0.4-0.1-0.4-0.1s0.6,0.1,1.5,0.2
			c0.5,0,1.1,0.1,1.8,0c0.7,0,1.4-0.2,2.2-0.4c0.8-0.2,1.7-0.5,2.5-1c0.4-0.2,0.9-0.5,1.3-0.8c0.2-0.1,0.4-0.3,0.6-0.4
			c0.2-0.2,0.4-0.3,0.6-0.5c0.8-0.6,1.6-1.4,2.3-2.2c0.7-0.8,1.4-1.7,2.1-2.6c0.7-0.9,1.3-1.9,1.8-2.8c0.6-1,1.1-1.9,1.6-2.9
			c0.9-1.9,1.8-3.7,2.4-5.3C183.5,100.6,184.1,98.4,184.1,98.4z"/>
	</g>
	<g>
		<path class="st10" d="M156.6,108.1c0,0-0.6,0-1.3,0.3c-0.4,0.1-0.7,0.3-1.1,0.5c-0.2,0.1-0.4,0.3-0.6,0.4
			c-0.2,0.2-0.4,0.3-0.5,0.5c-0.2,0.2-0.3,0.3-0.5,0.5c-0.1,0.2-0.3,0.4-0.4,0.6c-0.1,0.2-0.3,0.4-0.3,0.6c-0.1,0.2-0.2,0.4-0.3,0.5
			c-0.2,0.3-0.3,0.6-0.4,0.8c-0.1,0.2-0.2,0.3-0.2,0.3s0-0.1,0-0.4c0-0.2,0-0.6,0.1-1c0.1-0.4,0.2-0.9,0.4-1.4
			c0.1-0.2,0.2-0.5,0.4-0.7c0.1-0.2,0.3-0.5,0.5-0.7c0.4-0.4,0.9-0.8,1.4-1c0.2-0.1,0.5-0.2,0.7-0.2c0.2,0,0.5-0.1,0.7-0.1
			C156.1,107.8,156.6,108.1,156.6,108.1z"/>
	</g>
	<g>
		<path class="st10" d="M160.4,102c0,0-0.1-0.4,0.1-1c0.1-0.3,0.3-0.7,0.6-1c0.3-0.3,0.6-0.6,1-0.7c0.4-0.2,0.8-0.3,1.2-0.3
			c0.4,0,0.8,0,1.1,0c0.3,0,0.5,0.1,0.7,0.2c0.2,0,0.3,0.1,0.3,0.1s-0.1,0-0.3,0.1c-0.2,0-0.4,0.1-0.7,0.1c-0.1,0-0.3,0.1-0.5,0.1
			c-0.2,0-0.3,0.1-0.5,0.1c-0.2,0-0.3,0.1-0.5,0.1c-0.2,0-0.3,0.1-0.5,0.2c-0.3,0.1-0.6,0.3-0.9,0.5c-0.1,0.1-0.2,0.2-0.3,0.3
			c-0.1,0.1-0.2,0.2-0.3,0.3C160.5,101.6,160.4,102,160.4,102z"/>
	</g>
	<g>
		<path class="st10" d="M146.9,101.2c0,0-0.1,0-0.4,0c-0.2,0-0.5,0.1-0.9,0.3c-0.2,0.1-0.3,0.2-0.5,0.3c-0.2,0.1-0.3,0.3-0.5,0.5
			c-0.3,0.3-0.6,0.8-0.9,1.2c-0.2,0.4-0.5,0.9-0.6,1.3c-0.2,0.4-0.3,0.9-0.5,1.2c-0.2,0.7-0.4,1.2-0.4,1.2s0.1-0.5,0.2-1.3
			c0.1-0.4,0.2-0.8,0.4-1.3c0.2-0.5,0.4-0.9,0.6-1.4c0.3-0.4,0.6-0.9,0.9-1.2c0.2-0.2,0.4-0.3,0.6-0.5c0.2-0.1,0.4-0.2,0.6-0.3
			c0.4-0.2,0.7-0.2,0.9-0.2C146.8,101.2,146.9,101.2,146.9,101.2z"/>
	</g>
	<g>
		<path class="st10" d="M153.9,96.9c0,0,0.1-0.4,0.5-0.9c0.2-0.3,0.4-0.5,0.8-0.8c0.3-0.2,0.8-0.4,1.2-0.5c0.2,0,0.4,0,0.7,0
			c0.2,0.1,0.4,0.1,0.6,0.2c0.4,0.1,0.7,0.3,1,0.5c0.3,0.2,0.4,0.4,0.6,0.5c0.1,0.1,0.2,0.2,0.2,0.2s-0.1-0.1-0.2-0.1
			c-0.2-0.1-0.4-0.2-0.6-0.4c-0.1-0.1-0.3-0.1-0.4-0.2c-0.2-0.1-0.3-0.1-0.5-0.2c-0.2-0.1-0.4-0.1-0.6-0.1c-0.2,0-0.4,0-0.6,0
			c-0.4,0-0.8,0.2-1.1,0.4c-0.1,0.1-0.3,0.2-0.4,0.3c-0.1,0.1-0.2,0.2-0.4,0.3C154.1,96.5,153.9,96.9,153.9,96.9z"/>
	</g>
</g>
</svg>
