<?xml version="1.0" encoding="utf-8"?>
<!-- Generator: Adobe Illustrator 19.2.0, SVG Export Plug-In . SVG Version: 6.00 Build 0)  -->
<svg version="1.1" id="Layer_1" xmlns="http://www.w3.org/2000/svg" xmlns:xlink="http://www.w3.org/1999/xlink" x="0px" y="0px"
	 viewBox="0 0 336.2 310.2" style="enable-background:new 0 0 336.2 310.2;" xml:space="preserve">
<style type="text/css">
	.st0{fill:#929497;stroke:#929497;stroke-width:1.3917;stroke-miterlimit:10;}
</style>
<path class="st0" d="M298.2,131.3c-4.7-7.5-12.3-4-19.4-6.5c-9.3-3.2-15.2-11.8-24.1-15.8c-7.4-3.4-15.5-6.1-23.8-5.8
	c-4.6,0.2-8.5,1.4-12.2,3.1c0-8.8-4-18.8-6.6-25.8C207.6,68,200,54.3,188.7,46.4c-6.3-5.1-14.5-7.7-22.9-6.4
	c-16.3,2.5-27.4,18.3-24.8,35.2c2.6,17,17.9,28.7,34.2,26.2c0.3-0.1,0.6-0.1,1-0.2c5.4,2.2,8,7.7,9.8,13.9c0.8,4.7,1.1,9.6,2,13.8
	c1.6,7.2,4.9,13.6,10.6,17.5c-4,2.7-7.8,5.8-11.2,8.8c-1.1-0.5-2.4-0.8-3.9-0.6c-4.8,0.6-9.1-5.1-12.4-7.9
	c-5.1-4.3-11.5-6.7-18.1-5.2c-8.9,2-6.8,16.2,2.2,14.1c5.2-1.2,8.9,3.8,12.5,7c2.3,2,4.7,3.5,7.4,4.6c-7.2,7.2-13.8,10.5-24.1,4.4
	c-7-4.2-9.8-14.8-14-21.5c-5.4-8.7-16.9-15.8-27.6-18c-0.3-8-1.1-16.5,5.1-21.9c4.8-4.2,8.4-10,5.5-16.4
	c-7.2-16.2-31.1,2.3-37.9,8.8c-14.3,13.7-21.2,54.5,1.9,60.5c0.6,4.9,0.8,9.8,1.2,14.7c0.4,4.4,2.1,8.2,3.7,12.1
	c-7.8,14.2-13.7,28.7-6.1,44.3c6.7,13.9,21.8,23.6,37.2,22.5c9.2-0.7,7-14.8-2.2-14.1c-9.4,0.7-17.4-6.6-22-14.2
	c-3.8-6.3-2.9-13.2-0.4-19.7c5.7,10.2,15.4,19.6,22.9,24.8c16.8,11.6,38.8,14,58.2,9.2c23.6-5.9,41.3-24.1,55-43.2
	c8.1-11.3,13.8-22.9,19.2-35.7c3-7.2,10.5-9.3,15.2-14.8c4.2,1.6,8,4,12.9,4.2c6.2,0.3,12.6-3.1,16.7-7.5
	C299.1,141.8,301.5,136.5,298.2,131.3z"/>
</svg>
