<?xml version="1.0" encoding="utf-8"?>
<!-- Generator: Adobe Illustrator 19.2.0, SVG Export Plug-In . SVG Version: 6.00 Build 0)  -->
<svg version="1.1" id="Layer_1" xmlns="http://www.w3.org/2000/svg" xmlns:xlink="http://www.w3.org/1999/xlink" x="0px" y="0px"
	 viewBox="0 0 336.2 310.2" style="enable-background:new 0 0 336.2 310.2;" xml:space="preserve">
<style type="text/css">
	.st0{fill:#929497;stroke:#929497;stroke-width:1.1914;stroke-miterlimit:10;}
</style>
<path class="st0" d="M259.8,125c-3.1-6-8.7-10.1-12.4-16c-4.4-7.1-8.2-14.5-12-21.9c-7.9-15.2-15.9-30.5-27-43.7
	c-23.6-28-61.5-31.6-95.6-28.9c-12,0.9-25.8,3.1-34.5,12.1C69.1,36,70.6,52,77.4,62.2c7.4,11.2,19.6,18.8,29.8,27.3
	c6.3,5.3,12.4,10.7,17.7,17.1c7,8.5,4.6,15.7,0.6,23.9c0,0,0,0,0,0c-0.5,0.8-0.8,1.5-1.2,2.3c-0.4,0.8-0.9,1.7-1.3,2.6
	c-0.5,1-0.7,1.9-0.7,2.7c-0.1,0.3-0.2,0.5-0.3,0.8c-1.5,3.5,0.9,6.7,3.8,8.2c4.4,2.2,9.3,2.8,14.1,3.4c2.6,0.4,5.1,0.8,7.3,2.3
	c1.7,1.1,1.3,0.2,0.4,1.8c-4.1,6.7-4.7,12.5-0.9,18.7c-2.9,18.5,2.1,35,10.9,51.2c-9.5,1.2-17.5,4.7-24.4,12.2
	c-17.4-3.9-15,21.1-11.7,32.9c1.8,6.4,3.7,15.7,9.8,19.4c3.8,2.3,8.7,1.9,13,1.9c8.4,0.1,15.5,3.5,23.3,6.1c9.4,3.1,19.2,1.9,23.4-8
	c5.1-12.2-13-22.9-1.8-35c8.3-9,19.8-12.5,25.8-24c3-5.8,5.1-12.4,5.9-19.2c17.5-10.9,20.2-35.1,14.9-55.5c2.1,0.4,4.2,0.2,6.4-0.9
	c3.6-1.8,6.2-4.1,8.7-7.2c2.7-3.4,1.8-11.8,6-13.7C259.9,132.1,261.3,128,259.8,125z"/>
</svg>
