<?xml version="1.0" encoding="utf-8"?>
<!-- Generator: Adobe Illustrator 19.2.0, SVG Export Plug-In . SVG Version: 6.00 Build 0)  -->
<svg version="1.1" id="Layer_1" xmlns="http://www.w3.org/2000/svg" xmlns:xlink="http://www.w3.org/1999/xlink" x="0px" y="0px"
	 viewBox="0 0 336.2 310.2" style="enable-background:new 0 0 336.2 310.2;" xml:space="preserve">
<style type="text/css">
	.st0{fill:#FFFFFF;stroke:#929497;stroke-width:1.1636;stroke-miterlimit:10;}
	.st1{fill:#E0C889;}
	.st2{opacity:0.3;fill:url(#SVGID_1_);enable-background:new    ;}
	.st3{opacity:0.3;fill:url(#SVGID_2_);enable-background:new    ;}
	.st4{fill:#663623;}
	.st5{opacity:0.3;fill:url(#SVGID_3_);enable-background:new    ;}
	.st6{fill:#A87C4F;}
	.st7{opacity:0.5;fill:url(#SVGID_4_);enable-background:new    ;}
	.st8{fill:#F1F1F2;}
	.st9{fill:#DEC789;}
	.st10{opacity:0.3;fill:#754C28;enable-background:new    ;}
	.st11{opacity:0.3;}
	.st12{fill:#754C28;}
	.st13{fill:#603813;}
	.st14{opacity:0.5;fill:url(#SVGID_5_);enable-background:new    ;}
	.st15{fill:#EEDAAE;}
	.st16{fill:#4F311A;}
	.st17{fill:url(#SVGID_6_);}
</style>
<g>
	<path class="st0" d="M289.1,99.5c-36,5.4-58.8,42.3-98,33.8c-0.5-0.1-1.1-0.1-1.5,0c-0.9-0.9-1.9-1.7-2.9-2.5
		c-8-6.6-18.2-7-28.5-6.2c-0.7-3.6-1.7-6.8-5-9.1c-7-5-5-8.6-5.8-16.3c-0.9-9.4-8-10.8-16.5-9.4c-5,0.9-23.6,12.9-22.8-1.7
		c0.4-8.2-0.1-13.3-3.8-20.6c-3.5-7.2-8.7-13.4-11.9-21c-2.5-6-4.7-11.9-11-14.6c-2.4-1.1-4.7-0.9-6.8,0.9c-1.9,1.7-3.6,3.1-3.6,5.8
		c-0.5,15.8-21.8,4.8-27.6,3.3c-2.7-0.7-6.4,0.8-7,3.9c-1.2,8.7,0,14.5,4.6,21.4c-2.5,6.6-3.9,13.4-5.9,20.2
		c-1.7,6.4-6.8,12.6-3.5,19.6c5.1,10.4,17.5,12.6,28.7,13.4c-1.2,3.8-2,7.6-1.5,11.3c0.8,5.1,6.7,18.1-1.6,12.3
		c-5.9-4.2-15.9-7.5-20.4,0.3c-0.5,0.9-0.8,2.3-0.7,3.5c-0.5,1.6-0.1,3.5,1.6,5.1c9,7.5,12.2,21.2,24,25.6c3.1,1.2,6.4-0.9,8.4-3.1
		c4.8-5.2,7.5-12.2,15.8-12.1c0.1,0,0.3,0,0.5,0c11.4,7,24.5,10.7,37.8,13c-3.9,5.4-14.3,10.7-18.9,13.7c-9,5.9-19.6,9.8-27.7,16.7
		c-8,6.8-13.4,9.6-23.7,11.1c-5.2,0.8-7.8,2-10.8,6.2c-4.2,5.8,0.3,10.4,7.6,13.9c0.8,0.7,1.7,1.1,2.8,1.2
		c12.1,4.8,29.3,6.7,34.2,5.1c11.8-4.2,7.2-19.2,18.6-25.7c20.5-11.9,46.6-36.3,71-25.9c15.5,6.6,25.3,12.3,41.7,5
		c9.8-4.3,17.7-12.7,26.8-18.1c16.6-9.6,18.3,5,28.4,8.4c1.9,0.7,4.2-0.1,5.5-1.5c11.7-11.5,0.4-32.9-9.5-41.7
		c-3.9-3.3-13-6.4-17.7-2.8c-3.2,2.4-4.3,3.5-6.3,7c-4.6,7.9-10.2,9.4-18.5,12.5c-5,1.9-9.4,5.9-13.5,9
		c-10.2,7.6-16.1-7.1-15.8-15.9c0-0.9,0-1.9-0.1-2.8c22.6,2.4,43.1-9.8,63.6-19.7c16.3-7.8,32-3.2,48.9-6.2
		c5.1-0.9,14.5-3.5,16.3-9.2C333.6,97.5,298.5,98.1,289.1,99.5z"/>
	<path class="st1" d="M180.9,137.8c0,0,44.1,7.9,68.8-16.3s67.8-18.2,72.5-11.3c4.7,7.1-2.5,9.2-9.5,10.7
		c-15.7,3.5-34.3-9.6-67.5,13.5c-13.4,9.4-52.2,15-60.7,7.4C175.9,134.4,180.9,137.8,180.9,137.8z"/>
	
		<linearGradient id="SVGID_1_" gradientUnits="userSpaceOnUse" x1="183.304" y1="182.9624" x2="220.9984" y2="185.454" gradientTransform="matrix(1 0 0 -1 0 312)">
		<stop  offset="0.2167" style="stop-color:#603813"/>
		<stop  offset="1" style="stop-color:#F1F1F2;stop-opacity:0"/>
	</linearGradient>
	<path class="st2" d="M180.9,137.8c0,0,44.1,7.9,68.8-16.3s67.8-18.2,72.5-11.3c4.7,7.1-2.5,9.2-9.5,10.7
		c-15.7,3.5-34.3-9.6-67.5,13.5c-13.4,9.4-52.2,15-60.7,7.4C175.9,134.4,180.9,137.8,180.9,137.8z"/>
	<path class="st1" d="M87.9,139.8c0,0-18.9,19.2-22.4,29.2c-1.9,5.5-5.2-3.6-5.2-3.6s15.3-25.9,17.4-28
		C80,135.2,87.9,139.8,87.9,139.8z"/>
	<path class="st1" d="M65.8,168.7c0,0-6.4-17.7-12.1-17.7s-4.4,4.8-2.9,5.2c2.4,0.7,6.6,11.3,10.3,15.8
		C62.1,173.1,64.8,174.4,65.8,168.7z"/>
	<path class="st1" d="M50.6,155.9l3.6-3.2c0,0,2.5-8-2.4-8c0,0-3.8-3.5-7-0.4c-3.1,3.1-1.7,7.4-0.3,8.3
		C45.9,153.5,50.6,155.9,50.6,155.9z"/>
	
		<linearGradient id="SVGID_2_" gradientUnits="userSpaceOnUse" x1="67.2373" y1="171.1876" x2="53.2185" y2="151.5611" gradientTransform="matrix(1 0 0 -1 0 312)">
		<stop  offset="0.2167" style="stop-color:#603813"/>
		<stop  offset="1" style="stop-color:#F1F1F2;stop-opacity:0"/>
	</linearGradient>
	<path class="st3" d="M87.9,139.8c0,0-7.9-4.6-10-2.4c-1.6,1.6-10.8,16.7-15.1,24.1c-2.1-4.4-5.2-9.5-8.2-10.3
		c0.4-2.3,0.8-6.4-2.8-6.4c0,0-3.8-3.5-7-0.4c-3.1,3.1-1.7,7.4-0.3,8.3c1.2,0.8,4.7,2.7,5.8,3.2c0.1,0.3,0.4,0.4,0.7,0.5
		c2.4,0.7,6.6,11.3,10.3,15.8c0.9,1.2,3.6,2.4,4.7-3.2c0,0,0-0.1-0.1-0.3C69.6,158.4,87.9,139.8,87.9,139.8z"/>
	<g>
		<path class="st4" d="M52.1,145.3c0,0-0.3,0.5-0.8,1.2c-0.3,0.4-0.4,0.8-0.7,1.3c-0.1,0.3-0.3,0.5-0.4,0.8
			c-0.1,0.3-0.3,0.5-0.3,0.8c-0.1,0.3-0.1,0.5-0.1,0.8c0,0.3,0.1,0.4,0.3,0.5c0.1,0.1,0.4,0,0.7,0c0.3-0.1,0.4-0.1,0.7-0.3
			c0.8-0.4,1.2-0.8,1.2-0.8s-0.4,0.5-1.1,1.1c-0.1,0.1-0.4,0.3-0.7,0.4s-0.5,0.3-0.9,0.1c-0.3-0.1-0.5-0.5-0.5-0.8
			c0-0.3,0-0.7,0.1-0.9c0.1-0.3,0.1-0.5,0.3-0.8c0.1-0.3,0.3-0.5,0.4-0.8c0.3-0.5,0.5-0.9,0.8-1.3C51.7,145.7,52.1,145.3,52.1,145.3
			z"/>
	</g>
	<g>
		<path class="st4" d="M49.2,150v0.1c0,0.1-0.1,0.3-0.3,0.4c-0.1,0.1-0.4,0.4-0.7,0.4c-0.3,0.1-0.5,0.3-0.8,0.3
			c-1.2,0.3-2.3,0.1-2.3,0.1s0.3-0.1,0.7-0.3c0.4-0.1,0.9-0.3,1.5-0.4c0.5-0.1,1.1-0.3,1.3-0.5c0.1-0.1,0.3-0.3,0.4-0.3
			C49.2,150,49.2,150,49.2,150z"/>
	</g>
	<g>
		<path class="st4" d="M51,146.5c0,0-0.1-0.4-0.1-0.8c0-0.4-0.1-0.7-0.1-0.8c0,0,0.1,0,0.3,0.1c0.1,0.1,0.3,0.3,0.3,0.5
			s0,0.4-0.1,0.5C51,146.5,51,146.5,51,146.5z"/>
	</g>
	<g>
		<g>
			<path class="st1" d="M245.9,163.2l2.8,4.2c0,0,20.6,2.3,23.6,8.4c2.9,6.2,6.2-2.4,6.2-2.4s-5.1-10.7-9.6-15.8
				c-4.6-5.1-3.1-6.7-5.4-8.7C258.7,144.9,251.8,146.9,245.9,163.2z"/>
			<path class="st1" d="M270.6,173.5c0,0,1.9,3.9,1.9,5.4s4,1.7,5.6,0.8c0,0,2.7-1.9-0.3-6.8C274.8,167.7,270.6,173.5,270.6,173.5z"
				/>
			<path class="st1" d="M268.6,171.4c0,0,1.9,3.9,1.9,5.4s4,1.7,5.6,0.8c0,0,2.7-1.9-0.4-6.8C272.8,165.5,268.6,171.4,268.6,171.4z"
				/>
		</g>
		<path class="st1" d="M186.5,164.7c0,0,7.5,12.3,21.2,25l-4.7,6.7c0,0-20.4-5.4-34.8-16.5C168.2,179.8,165.8,158.4,186.5,164.7z"/>
		<path class="st1" d="M204.3,186.8c0,0,19.2-23.3,41.5-23.6l2.8,4c0,0-32.4,20.1-39.8,26.1C207.3,194.8,204.3,186.8,204.3,186.8z"
			/>
		<path class="st1" d="M210.8,191.4c0,0-3.8,7.9-10.8,4.2c-7.1-3.8,5.2-5.4,5.2-5.4L210.8,191.4z"/>
	</g>
	<g>
		<g>
			<path class="st1" d="M245.9,163.2l2.8,4.2c0,0,20.6,2.3,23.6,8.4c2.9,6.2,6.2-2.4,6.2-2.4s-5.1-10.7-9.6-15.8
				c-4.6-5.1-3.1-6.7-5.4-8.7C258.7,144.9,251.8,146.9,245.9,163.2z"/>
			<path class="st1" d="M270.6,173.5c0,0,1.9,3.9,1.9,5.4s4,1.7,5.6,0.8c0,0,2.7-1.9-0.3-6.8C274.8,167.7,270.6,173.5,270.6,173.5z"
				/>
			<path class="st1" d="M268.6,171.4c0,0,1.9,3.9,1.9,5.4s4,1.7,5.6,0.8c0,0,2.7-1.9-0.4-6.8C272.8,165.5,268.6,171.4,268.6,171.4z"
				/>
		</g>
		<path class="st1" d="M186.5,164.7c0,0,7.5,12.3,21.2,25l-4.7,6.7c0,0-20.4-5.4-34.8-16.5C168.2,179.8,165.8,158.4,186.5,164.7z"/>
		<path class="st1" d="M204.3,186.8c0,0,19.2-23.3,41.5-23.6l2.8,4c0,0-32.4,20.1-39.8,26.1C207.3,194.8,204.3,186.8,204.3,186.8z"
			/>
		<path class="st1" d="M210.8,191.4c0,0-3.8,7.9-10.8,4.2c-7.1-3.8,5.2-5.4,5.2-5.4L210.8,191.4z"/>
	</g>
	
		<linearGradient id="SVGID_3_" gradientUnits="userSpaceOnUse" x1="168.2119" y1="140.2393" x2="279.2565" y2="140.2393" gradientTransform="matrix(1 0 0 -1 0 312)">
		<stop  offset="0.2167" style="stop-color:#603813"/>
		<stop  offset="1" style="stop-color:#F1F1F2;stop-opacity:0"/>
	</linearGradient>
	<path class="st5" d="M278.3,173.5L278.3,173.5c0-0.1-5.1-10.8-9.6-15.8c-4.6-5.1-3.1-6.7-5.4-8.7c-4.7-4.2-11.5-2.1-17.4,14.3
		c-21.6,0.1-40,21.7-41.4,23.3c-11.7-11.5-17.9-22-17.9-22c-20.8-6.3-18.2,15.1-18.2,15.1c11.3,8.7,26,13.8,32,15.7
		c0.9,0.4,1.9,0.7,2.7,0.8h0.1l0,0c3.3,0.3,5.6-2,6.7-3.6c8.6-6.7,38.2-25,38.8-25.4l0,0c0,0,14.3,1.6,20.8,5.8
		c0.5,1.2,1.1,2.8,1.2,3.6c0,0.7,0.8,1.1,1.9,1.2c0.1,0.3,0.1,0.7,0.1,0.8c0,1.5,4,1.7,5.6,0.8C278.1,179.6,280.6,178,278.3,173.5z"
		/>
	<g>
		<path class="st6" d="M64.4,56.2c0,0-9.9-0.1-17.4-6.4C40,44,46,75,55.4,71.1C65,67.3,64.4,56.2,64.4,56.2z"/>
		
			<linearGradient id="SVGID_4_" gradientUnits="userSpaceOnUse" x1="-33.6368" y1="241.4994" x2="-41.1662" y2="254.9447" gradientTransform="matrix(0.9646 -0.2635 -0.2635 -0.9646 151.0643 284.7365)">
			<stop  offset="0.2167" style="stop-color:#603813"/>
			<stop  offset="1" style="stop-color:#F1F1F2;stop-opacity:0"/>
		</linearGradient>
		<path class="st7" d="M64.4,56.2c0,0-9.9-0.1-17.4-6.4C40,44,46,75,55.4,71.1C65,67.3,64.4,56.2,64.4,56.2z"/>
	</g>
	<path class="st8" d="M46.3,85.3c0,0-1.2-4.6,1.7-5.6c2.8-1.2,5.4-0.7,6.8,1.9c1.7,2.8,0.1,7.4-2.9,8.3
		C47.5,91.2,46.3,85.3,46.3,85.3z"/>
	<path class="st1" d="M68.4,54.3c-9.5,1.1-17.7,4.3-23.2,22.2c-1.3,4.6-2.8,15.5-6,17.4c-3.2,1.9,2.3,17.3,11.8,13.9
		c0,0,4.7,2.3,22.4,2.4l20-6.8c0,0,13-15.3,2.7-32.8C85.5,53,76,53.4,68.4,54.3z"/>
	<path class="st9" d="M73.2,110.2c0,0-17.3,32.3,19.4,48.8c37.4,16.9,30.1-22.8,39.9-23.7c0,0-32.5-24.5-35-39.5
		C95.2,80.9,73.2,110.2,73.2,110.2z"/>
	<path class="st9" d="M125,131c0,0,53.4-10.3,64.3,13.5c10.7,23.8-20.8,35.6-20.8,35.6s-57.3-13.9-61.5-16.6s11.8-26.4,11.8-26.4
		L125,131z"/>
	<g>
		<g>
			<path class="st1" d="M85.8,216.1l-5.6-0.7c0,0-15.3,12.1-22.4,10c-7.1-2-2,5.6-2,5.6s12.2,3.6,19.3,3.9c7.1,0.3,7.6,2.3,10.7,2.1
				C92.2,236.5,95.4,230.5,85.8,216.1z"/>
			<path class="st1" d="M60.8,225.9c0,0-4.4-1.2-5.6-2.1c-1.2-0.9-4,1.5-4.3,3.1c0,0-0.3,2.9,5.9,4.3
				C62.9,232.5,60.8,225.9,60.8,225.9z"/>
			<path class="st1" d="M63.8,225.9c0,0-4.4-1.2-5.6-2.1c-1.2-0.9-4,1.5-4.3,3.2c0,0-0.3,2.9,5.9,4.3
				C66,232.5,63.8,225.9,63.8,225.9z"/>
		</g>
		<g>
			<path class="st1" d="M166.2,179c0,0-19.7,5.8-38,12.9l-4.6-7.2c0,0,13.8-16.5,30.9-25C154.4,159.6,181,162.6,166.2,179z"/>
			<path class="st1" d="M128,191.9c0,0-20,22.9-42.2,26.4l4.3-10.6c0,0,27.3-13.7,33.4-23C129.3,175.3,128,191.9,128,191.9z"/>
		</g>
		<path class="st1" d="M83.3,211.2"/>
		<path class="st1" d="M80.2,215.5c0,0,4.2-4.7,9.2-7.5c5.2-2.8,9.9,6,9.9,6s-12.3,2.4-12.7,3.3c-0.4,0.9-4.2,1.3-4.2,1.3
			L80.2,215.5z"/>
	</g>
	<path class="st1" d="M100.8,105.1c0,0,26.8-2,36-7.2c5.1-2.9,1.5,6.2,1.5,6.2s-28.5,9.4-31.5,9.5
		C103.8,113.8,100.8,105.1,100.8,105.1z"/>
	<path class="st1" d="M136.4,97.9c0,0-6.8,17.5-2.5,21.3c4.2,3.8,6.4-0.8,5.6-2c-1.3-2,2.4-12.7,2.5-18.6
		C142.2,96.9,141,94.3,136.4,97.9z"/>
	<ellipse class="st1" cx="140.3" cy="120.5" rx="7.1" ry="4.3"/>
	<path class="st1" d="M132.5,113.3c0,0-0.4,8.4,2.1,9.8c2.5,1.2,4.3-2.7,4.3-2.7l-3.2-7.6L132.5,113.3z"/>
	<path class="st10" d="M136.4,171.8c0,0,7.4-6,10.7-8c3.2-2-15.9,7-15.9,7L136.4,171.8z"/>
	<path class="st10" d="M108.4,113.5c0,0-5.6,1.3-7.6,1.3s11.9,3.1,11.9,3.1L108.4,113.5z"/>
	<path class="st8" d="M48.3,84.9c0,0-0.7-5.6,2.8-7.4c3.5-1.7,5.6,0.4,5.6,0.4S56.6,85,53,87.2c-3.6,2.1-4.7-1.9-4.7-1.9"/>
	<g class="st11">
		<path class="st12" d="M62.9,84.9c2.3,1.5,5,2.3,7.6,2.9c2.7,0.7,5.4,1.3,8,2.3l0.4,0.1v0.4c-0.7,4.2-1.6,8.2-3.2,12.1
			c-0.8,1.9-1.7,3.9-3.3,5.4c-0.4,0.4-0.8,0.7-1.3,0.9c-0.4,0.3-0.9,0.5-1.3,0.8c-0.5,0.3-0.9,0.4-1.5,0.5c-0.3,0-0.5,0.1-0.8,0
			c-0.3,0-0.5-0.3-0.7-0.4c0.4,0.4,0.9,0.3,1.3,0.1c0.4-0.1,0.9-0.4,1.3-0.7c0.4-0.3,0.8-0.5,1.2-0.9c0.4-0.3,0.8-0.7,1.2-0.9
			c1.5-1.3,2.4-3.2,3.1-5.1c0.8-1.9,1.3-3.9,1.9-5.9c0.5-2,0.9-4,1.3-6l0.3,0.5c-2.5-0.9-5.2-1.6-7.9-2.4c-1.3-0.4-2.7-0.8-3.9-1.5
			c-0.7-0.3-1.2-0.7-1.9-0.9C64,85.7,63.4,85.3,62.9,84.9z"/>
	</g>
	<g>
		<path class="st13" d="M49,70.3c0,0,0-0.3,0-0.5c0-0.4,0-0.9,0.1-1.5c0.1-0.7,0.3-1.3,0.8-2c0.1-0.4,0.4-0.7,0.8-1.1l0.5-0.4
			l0.5-0.4c0.4-0.3,0.8-0.4,1.2-0.5c0.4-0.1,0.8-0.1,1.2-0.3c0.8,0,1.6,0.1,2.1,0.3c0.7,0.1,1.1,0.4,1.5,0.5
			c0.3,0.1,0.5,0.3,0.5,0.3s-0.3,0-0.5-0.1c-0.4-0.1-0.8-0.1-1.5-0.1c-0.3,0-0.7,0-0.9,0c-0.4,0-0.7,0-1.1,0s-0.7,0.1-1.1,0.3
			c-0.4,0.1-0.7,0.3-1.1,0.4l-0.4,0.3l-0.4,0.4c-0.3,0.3-0.5,0.5-0.7,0.8c-0.4,0.5-0.7,1.2-0.9,1.7c-0.1,0.5-0.4,1.1-0.4,1.3
			C49,70,49,70.3,49,70.3z"/>
	</g>
	<g>
		<path class="st6" d="M65.8,57.6c0,0,9.5-5.1,13.8-15.9c4-10,13.3,28.1,2.1,28.5C70.7,70.6,65.8,57.6,65.8,57.6z"/>
		
			<linearGradient id="SVGID_5_" gradientUnits="userSpaceOnUse" x1="-82.6866" y1="263.7653" x2="-91.8346" y2="280.1009" gradientTransform="matrix(-0.9853 0.1708 -0.1708 -0.9853 38.3816 339.3192)">
			<stop  offset="0.2167" style="stop-color:#603813"/>
			<stop  offset="1" style="stop-color:#F1F1F2;stop-opacity:0"/>
		</linearGradient>
		<path class="st14" d="M65.8,57.6c0,0,9.5-5.1,13.8-15.9c4-10,13.3,28.1,2.1,28.5C70.7,70.6,65.8,57.6,65.8,57.6z"/>
		<path class="st15" d="M69.2,62.8c0,0,10.4-5.6,11.9-10.8c0,0-0.7,18.5-5.4,16.2C72.1,66.3,69.2,62.8,69.2,62.8z"/>
		<g>
			<path class="st16" d="M81.5,50.2c0,0,0,0.3-0.1,0.8c0,0.3-0.1,0.5-0.3,0.9c-0.1,0.3-0.3,0.8-0.4,1.1c-0.3,0.4-0.4,0.8-0.7,1.2
				c-0.3,0.4-0.5,0.9-0.9,1.3c-0.4,0.4-0.7,0.8-1.1,1.2s-0.8,0.8-1.2,1.2c-1.7,1.5-3.6,2.8-5.1,3.6c-1.5,0.8-2.5,1.2-2.5,1.2
				s0.9-0.7,2.3-1.7c0.7-0.5,1.5-1.1,2.3-1.7c0.8-0.7,1.7-1.3,2.5-2.1c0.8-0.7,1.6-1.5,2.3-2.3c0.4-0.4,0.7-0.8,0.9-1.1
				c0.3-0.4,0.5-0.8,0.8-1.1c0.3-0.4,0.4-0.7,0.5-0.9s0.3-0.5,0.4-0.8C81.4,50.5,81.5,50.2,81.5,50.2z"/>
		</g>
	</g>
	
		<linearGradient id="SVGID_6_" gradientUnits="userSpaceOnUse" x1="-14.5756" y1="194.9546" x2="-14.4972" y2="211.9532" gradientTransform="matrix(-0.9535 0.3014 -0.3089 -0.9773 96.3169 299.6235)">
		<stop  offset="0.2167" style="stop-color:#F1F1F2"/>
		<stop  offset="1" style="stop-color:#F1F1F2;stop-opacity:0"/>
	</linearGradient>
	<path class="st17" d="M40.8,91.4c0,0-0.5,1.5-2.5,3.5c-2,2,0.7,17.1,9.4,13.4s8.4-5.2,10.4-12.2c0,0-10.2-4.4-10.2-9.8
		c0-5.4-5.2-1.5-5.2-1.5S41.5,90.4,40.8,91.4z"/>
	<g>
		<path class="st12" d="M48,84.5c0,0.7,0,1.3,0.3,2c0.1,0.7,0.4,1.3,0.7,1.9c0.3,0.7,0.7,1.2,1.2,1.6c0.4,0.5,0.9,0.9,1.5,1.5
			c1.1,0.8,2.3,1.6,3.5,2.3c1.2,0.7,2.4,1.3,3.6,2l0.3,0.1v0.3c0,0.8-0.1,1.5-0.4,2.1c-0.1,0.7-0.4,1.3-0.7,2
			c-0.5,1.3-1.3,2.5-2.3,3.6c-0.5,0.5-0.9,1.1-1.6,1.5c-0.5,0.5-1.2,0.8-1.7,1.2c-0.7,0.4-1.2,0.7-1.9,0.9c-0.4,0.1-0.7,0.1-1.1,0.3
			c-0.4,0-0.8,0-0.9-0.4c0.3,0.3,0.7,0.3,0.9,0.1c0.3,0,0.7-0.3,0.9-0.4c0.5-0.3,1.2-0.7,1.7-1.1c0.5-0.4,1.1-0.8,1.6-1.2
			c0.5-0.4,1.1-0.9,1.5-1.3c0.9-1.1,1.6-2.1,2.1-3.3c0.3-0.7,0.4-1.2,0.7-1.9c0.1-0.7,0.3-1.3,0.4-2l0.3,0.4c-2.4-1.3-5-2.7-7.1-4.6
			c-0.5-0.5-1.1-0.9-1.5-1.6c-0.4-0.5-0.8-1.2-1.1-1.9C48,87.4,47.9,86,48,84.5z"/>
	</g>
	<g>
		<g>
			<path class="st13" d="M48.3,85.1c-0.4-1.2-0.5-2.5-0.4-3.9c0.1-1.3,0.7-2.7,1.6-3.6c0.9-1.1,2.3-1.6,3.6-1.6
				c1.3,0,2.7,0.4,3.8,1.2l0.3,0.3h-0.3c0,0-0.1,0-0.1,0.1l-0.1,0.1c0,0.1,0,0.3,0,0.4c0,0.3,0.1,0.7,0.1,0.9
				c-0.1-0.3-0.3-0.5-0.4-0.9c0-0.1,0-0.3,0-0.5c0-0.1,0-0.1,0.1-0.3c0-0.1,0.1-0.1,0.3-0.3v0.3c-1.1-0.5-2.3-0.8-3.5-0.8
				c-1.2,0.1-2.3,0.5-3.1,1.5c-0.8,0.8-1.3,2-1.6,3.1C48.3,82.6,48.3,83.9,48.3,85.1z"/>
		</g>
		<ellipse transform="matrix(0.9533 -0.3019 0.3019 0.9533 -23.0136 19.2321)" class="st13" cx="50.7" cy="84.1" rx="2.5" ry="4"/>
		<ellipse transform="matrix(0.9537 -0.3009 0.3009 0.9537 -22.606 18.6983)" class="st8" cx="49.4" cy="82.7" rx="0.5" ry="0.7"/>
	</g>
	<path class="st6" d="M37.7,95.6c0.5-0.3,2.7-0.9,2.7,0.7c0,0.4-0.4,0.4-0.5,0.5c-0.5,0.1-1.6,0.3-2.1,1.3l0,0c0,0,0,0.1,0,0V95.6z"
		/>
	<g>
		<ellipse class="st12" cx="67.5" cy="73.8" rx="1.6" ry="1.1"/>
		<ellipse class="st12" cx="83.7" cy="83.7" rx="2.1" ry="1.6"/>
		<path class="st12" d="M75.2,119.3c0,0.7-0.5,1.2-1.1,1.2c-0.7,0-1.1-0.5-1.1-1.2s0.5-1.2,1.1-1.2
			C74.7,118.1,75.2,118.6,75.2,119.3z"/>
		<ellipse class="st12" cx="84.7" cy="132.4" rx="1.1" ry="1.1"/>
		<ellipse class="st12" cx="90" cy="114.3" rx="2" ry="1.5"/>
		<ellipse class="st12" cx="126.5" cy="106" rx="1.6" ry="0.5"/>
		<ellipse class="st12" cx="68.3" cy="158.5" rx="0.8" ry="1.1"/>
		<ellipse class="st12" cx="79.2" cy="146.5" rx="0.8" ry="0.7"/>
		<ellipse class="st12" cx="150.2" cy="135.1" rx="1.2" ry="1.6"/>
		<ellipse class="st12" cx="116.2" cy="157.2" rx="0.9" ry="1.3"/>
		<ellipse class="st12" cx="105.8" cy="107.5" rx="1.2" ry="0.9"/>
		<ellipse class="st12" cx="96.3" cy="148.5" rx="1.5" ry="1.3"/>
		<ellipse class="st12" cx="107" cy="131.2" rx="2.4" ry="0.8"/>
		<ellipse class="st12" cx="119.4" cy="141.9" rx="0.7" ry="1.1"/>
		<path class="st12" d="M147,151.2c0,0.7-0.9,1.3-2,1.3c-1.1,0-2-0.5-2-1.3c0-0.7,0.9-1.3,2-1.3C146.2,150,147,150.5,147,151.2z"/>
		<ellipse class="st12" cx="173.4" cy="144.4" rx="1.7" ry="1.3"/>
		<ellipse class="st12" cx="178.8" cy="164.3" rx="2" ry="1.6"/>
		<path class="st12" d="M153.8,168.1c0,0.3-0.5,0.4-1.2,0.4s-1.2-0.3-1.2-0.4c0-0.3,0.5-0.4,1.2-0.4
			C153.3,167.7,153.8,167.8,153.8,168.1z"/>
		<ellipse class="st12" cx="132.7" cy="180.1" rx="1.6" ry="1.6"/>
		<ellipse class="st12" cx="150.8" cy="180.9" rx="0.7" ry="0.8"/>
		<ellipse class="st12" cx="104" cy="203.6" rx="0.9" ry="0.8"/>
		<ellipse class="st12" cx="81.7" cy="224.8" rx="1.6" ry="1.3"/>
		<ellipse class="st12" cx="181.2" cy="181.3" rx="0.4" ry="0.4"/>
		<ellipse class="st12" cx="201.7" cy="189" rx="1.3" ry="1.2"/>
		<ellipse class="st12" cx="235.7" cy="168.9" rx="1.1" ry="0.8"/>
		<ellipse class="st12" cx="190.8" cy="141" rx="0.8" ry="0.8"/>
		<ellipse class="st12" cx="209.7" cy="142.3" rx="0.9" ry="0.7"/>
		<ellipse class="st12" cx="233.7" cy="135.2" rx="0.9" ry="0.8"/>
		<ellipse class="st12" cx="257.5" cy="124" rx="0.7" ry="0.7"/>
		<ellipse class="st12" cx="264.6" cy="114.3" rx="0.8" ry="0.8"/>
	</g>
</g>
</svg>
