<?xml version="1.0" encoding="utf-8"?>
<!-- Generator: Adobe Illustrator 19.2.0, SVG Export Plug-In . SVG Version: 6.00 Build 0)  -->
<svg version="1.1" id="Layer_1" xmlns="http://www.w3.org/2000/svg" xmlns:xlink="http://www.w3.org/1999/xlink" x="0px" y="0px"
	 viewBox="0 0 336.2 310.2" style="enable-background:new 0 0 336.2 310.2;" xml:space="preserve">
<style type="text/css">
	.st0{fill:#FFFFFF;stroke:#929497;stroke-miterlimit:10;}
	.st1{fill:#5D5CA7;}
	.st2{fill:#2EADD0;}
	.st3{fill:#F89D1D;}
</style>
<g>
	<path class="st0" d="M446.5,747.5c-0.3-12.4-6.9-24.6-17.3-30.7c5.8-5.4,8-12.5,4.1-20.9c-4.2-9.1-16.9-10.4-25-6.7
		c-10.2,4.6-13.1,22.9-5.1,29.6c-6.6,5.4-11.9,12.6-16,20c-1.4,2.4-2.3,5.1-3.2,7.7c-0.6-3.7-2.8-7.2-6.6-9.1
		c-6.5-3.3-14.4-0.5-18,5.6c-2.9,4.9-1.8,10.8,1.8,14.6c-2.3,1.7-4.3,3.7-5.9,6.1c-2.8,4.3-3.1,9.8-3.2,14.7c0,3.7,3.6,5,6.2,4
		c-0.2,7.5-0.6,15-0.5,22.6c0,9.6,7,16.6,16.8,15c8.8-1.4,7.6-14.5,8-20.7c0.7-9,2.1-17.9,1.9-26.9c3.3-0.7,6.8-2.9,9.5-5.3
		c1.5-1.3,3-2.8,4.3-4.4c0.2,2.9,0.4,5.7,0.7,8.6c0.8,8.3,0.8,16.7,1.4,25c0.3,5.5-0.4,12.6,3.3,17.2c1.7,2.2,4.3,4,7.2,4
		c1.5,0,2.9-0.6,4-1.5c0.2-0.1,0.3-0.2,0.4-0.3c3.8,2.7,8.2,3.8,12.3,0.2c4.4-4,4.6-12.3,4.9-17.7c0.3-6.1-0.1-12.2-0.1-18.2
		c0-4.7-0.1-9.4-0.2-14.1c3,1,6.5,0.7,9.2-1.5C446.2,760.6,446.6,753.2,446.5,747.5z"/>
	<g>
		<g>
			<g>
				<circle class="st1" cx="417" cy="704.8" r="12.7"/>
				<path class="st1" d="M425.2,720.2c-0.4-0.3-0.9-0.4-1.4-0.6c-1.2-0.6-2.4-1.1-3.7-1.4l-3.2,3.2l-3.1-3.2c0,0,0,0,0,0
					c-1.6,0.4-3.2,1.1-4.6,2c-0.3,0.1-0.5,0.2-0.8,0.4c-9.6,5.9-15.3,18.1-22.4,33.6c-0.8,1.8-0.5,3.9,0.7,5.3
					c-3.9,3.4-13.5-2.2-14.3-2.4l-2,2l-2-2.1c0,0,0,0,0,0c-1.4,0.3-5.2,2.9-6.6,3.7c-0.1,0-0.3,0.1-0.4,0.2c-0.3,0.2-7,4.1-7,15.8
					c0,1.6,1.3,2.9,2.9,2.9c1.6,0,2.9-1.3,2.9-2.9c0-3.8,0.9-6.4,1.9-8.1V782c0,0.8,0.2,1.6,0.5,2.4c0,0.2,0,0.3,0,0.5l0,26.6
					c0,2.1,1.7,3.7,3.7,3.7c2.1,0,3.7-1.7,3.7-3.7l0-22.3c0.1,0,0.3,0,0.4,0c0,0,0.1,0,0.1,0l0,22.3c0,2.1,1.7,3.7,3.7,3.7
					c2.1,0,3.7-1.7,3.7-3.7l0-26.4c0.5-0.9,0.8-1.9,0.8-3v-14.8c1.2,0.4,2.4,0.7,3.7,0.7c2.8,0,5.9-1.2,9.5-4.6
					c0.8-0.7,1.1-1.7,0.9-2.7c0.9-0.5,1.6-1.2,2.1-2.2c3.2-6.9,6.1-13.1,9-18.1v17.1c0,1.3,0.3,2.6,0.7,3.7c0,0.3-0.1,0.5-0.1,0.8
					l0,47.2c0,3.2,2.6,5.8,5.8,5.8c3.2,0,5.8-2.6,5.8-5.8l0-40.5c0.2,0,0.5,0,0.7,0c0,0,0.1,0,0.1,0v40.5c0,3.2,2.6,5.8,5.8,5.8
					c0,0,0,0,0,0c3.2,0,5.8-2.6,5.8-5.8l0-46.9c0.8-1.4,1.2-3,1.2-4.8v-17.9c1.5,3.9,2,9,1.3,16.4c-0.3,2.7,1.7,5.1,4.4,5.4
					c0.2,0,0.3,0,0.5,0c2.5,0,4.6-1.9,4.9-4.4C443.4,734.6,434.8,726.1,425.2,720.2z"/>
				<circle class="st1" cx="370.5" cy="748.5" r="8.1"/>
			</g>
		</g>
	</g>
</g>
<g>
	<path class="st0" d="M272.1,122.1c-9.5,2.4-19.1,4.6-28.9,4.5c5.9-7.9,12.2-15.4,16.3-24.4c1.7-3.8-1.3-8.5-5-9.7
		c-4.3-1.4-8,1.1-9.7,5c-2.9,6.4-7.6,12-12.1,17.6c0.1-9.5,0.9-19.1,2-28.6c1.2-9.9-14.2-10.5-15.4-0.7c-1.3,10.9-2.1,21.8-2.1,32.8
		c-4.5,0.2-8.9,0.7-12.4,0.8c-21.9,0.4-43.2-4.2-65-4.2c-16.2,0-33.4,5.5-45.3,16.8c-2.7,2.5-4.9,5.5-6.5,8.8
		c-11.8-3.7-27.5,3.2-31.7,15.6c-3.2,9.6-0.1,22.5,7.7,28.9c6.3,5.2,13.9,5.3,21.2,3.1c2.8,6.4,7.4,12.1,12.4,16.3
		c10.9,9.2,25.1,14.5,39.4,14.2c34.9-0.7,52.2-41.3,84.5-49.7c5.9-1.5,12.3-2.7,16.5-7.5c4.8-5.5,4.9-12.8,4.5-19.7
		c11.2,0.3,22.2-2.1,33-4.8C285.1,134.8,281.8,119.7,272.1,122.1z"/>
	<g>
		<g>
			<path class="st2" d="M227,131l-89.5-5.7c-0.1,0-0.2,0-0.3,0c-9-0.5-17.8,1.7-25.5,6.4c-8.3,5.1-14.2,12.5-17.6,20.9
				c-5.7-7.3-16.2-9.3-24.3-4.3c-8.7,5.4-11.4,16.8-6.1,25.5c5.4,8.7,16.8,11.4,25.5,6.1c0.9-0.6,1.8-1.2,2.6-1.9
				c1,4.8,2.8,9.5,5.6,14c12.6,20.5,39.6,26.9,60.2,14.3c7.9-4.9,15-11.9,22.6-19.4c7.7-7.6,15.7-15.5,24.7-21.1
				c8.1-5,16-7.4,24.3-7.5c1.3,0,2.5-0.6,3.3-1.5c0.8-0.9,1.2-2.2,1.1-3.4l-2.4-18.5C230.8,132.8,229.1,131.2,227,131z M71.1,169.2
				c-2.8-4.6-1.4-10.6,3.2-13.4c4.6-2.8,10.6-1.4,13.4,3.2c2.8,4.6,1.4,10.6-3.2,13.4C80,175.2,73.9,173.8,71.1,169.2z"/>
		</g>
	</g>
	<g>
		<path class="st3" d="M224.3,124.9c0,0-0.1-0.5-0.3-1.5c-0.2-0.9-0.4-2.2-0.5-3.8c-0.4-3.2-0.5-7.4-0.5-11.6
			c0.1-4.2,0.4-8.4,0.8-11.6c0.2-1.6,0.4-2.9,0.6-3.8c0.2-0.9,0.3-1.4,0.3-1.4s0.1,0.5,0.3,1.5c0.2,0.9,0.4,2.2,0.5,3.8
			c0.4,3.2,0.5,7.4,0.5,11.6c-0.1,4.2-0.4,8.4-0.8,11.6c-0.2,1.6-0.4,2.9-0.6,3.8C224.5,124.4,224.3,124.9,224.3,124.9z"/>
	</g>
	<g>
		<path class="st3" d="M234.4,128.1c0,0,0.2-0.5,0.6-1.4c0.4-0.9,0.9-2.1,1.7-3.5c1.5-2.8,3.6-6.4,6-9.9c2.4-3.5,4.9-6.8,7.1-9.2
			c1-1.2,2-2.2,2.6-2.8c0.7-0.7,1.1-1,1.1-1s-0.2,0.5-0.6,1.4c-0.4,0.9-0.9,2.1-1.7,3.5c-1.5,2.8-3.6,6.4-6,9.9
			c-2.4,3.5-4.9,6.8-7.1,9.2c-1,1.2-2,2.2-2.6,2.8C234.8,127.8,234.4,128.1,234.4,128.1z"/>
	</g>
	<g>
		<path class="st3" d="M242,135.7c0,0,0.5-0.3,1.3-0.7c0.8-0.4,2-0.9,3.5-1.5c2.9-1.2,6.8-2.5,10.8-3.5c4-1.1,8-1.9,11.1-2.3
			c1.5-0.2,2.8-0.3,3.8-0.4c0.9-0.1,1.4-0.1,1.4-0.1s-0.5,0.3-1.3,0.7c-0.8,0.4-2,0.9-3.5,1.5c-2.9,1.2-6.8,2.5-10.8,3.5
			c-4,1.1-8,1.9-11.1,2.3c-1.5,0.2-2.8,0.3-3.7,0.4C242.5,135.7,242,135.7,242,135.7z"/>
	</g>
</g>
</svg>
