<?xml version="1.0" encoding="utf-8"?>
<!-- Generator: Adobe Illustrator 19.2.0, SVG Export Plug-In . SVG Version: 6.00 Build 0)  -->
<svg version="1.1" id="Layer_1" xmlns="http://www.w3.org/2000/svg" xmlns:xlink="http://www.w3.org/1999/xlink" x="0px" y="0px"
	 viewBox="0 0 336.2 310.2" style="enable-background:new 0 0 336.2 310.2;" xml:space="preserve">
<style type="text/css">
	.st0{fill:#929497;stroke:#929497;stroke-width:1.1636;stroke-miterlimit:10;}
</style>
<path class="st0" d="M288.5,97.5c-36,5.3-58.6,42.3-97.9,33.7c-0.5-0.1-1.1-0.1-1.5,0c-0.9-0.9-1.9-1.7-2.9-2.6
	c-8-6.5-18.1-6.9-28.5-6.2c-0.7-3.6-1.8-6.8-5-9.1c-7-4.9-5-8.6-5.8-16.3c-1-9.4-8-10.8-16.4-9.3c-4.9,0.9-23.5,12.9-22.8-1.8
	c0.4-8.1-0.2-13.2-3.7-20.6c-3.5-7.3-8.7-13.4-11.9-21c-2.6-6-4.7-11.8-10.9-14.6c-2.5-1.1-4.7-1-6.8,0.9c-1.9,1.7-3.6,3-3.7,5.8
	c-0.5,15.7-21.8,4.8-27.6,3.4c-2.7-0.7-6.4,0.8-6.9,3.9c-1.2,8.7-0.1,14.5,4.6,21.4c-2.6,6.5-3.9,13.3-5.8,20.2
	c-1.8,6.5-6.8,12.5-3.4,19.5c5.1,10.4,17.4,12.6,28.6,13.4c-1.2,3.7-2.1,7.6-1.5,11.2c0.8,5.1,6.7,18.1-1.6,12.2
	c-5.9-4.1-15.9-7.5-20.3,0.3c-0.6,1-0.8,2.3-0.7,3.5c-0.5,1.7-0.2,3.5,1.6,5.1c8.9,7.5,12.2,21.1,23.9,25.5c3.1,1.2,6.4-0.9,8.5-3.1
	c4.9-5.2,7.5-12.2,15.8-12.1c0.2,0,0.3,0,0.5,0c11.3,6.9,24.5,10.7,37.8,13c-3.9,5.3-14.3,10.7-18.8,13.6c-9,5.9-19.5,9.8-27.7,16.8
	c-8.1,6.8-13.3,9.6-23.7,11.2c-5.2,0.8-7.8,2-10.8,6.1c-4.1,5.7,0.2,10.5,7.6,14c0.8,0.6,1.8,1.1,2.8,1.2c12,4.8,29.3,6.7,34,5
	c11.7-4.2,7.3-19.1,18.6-25.6c20.5-11.9,46.5-36.3,70.9-25.8c15.4,6.6,25.2,12.2,41.6,5c9.7-4.3,17.7-12.7,26.8-18
	c16.5-9.7,18.3,4.9,28.3,8.5c1.9,0.6,4.1-0.1,5.4-1.4c11.6-11.6,0.4-32.9-9.4-41.6c-3.8-3.4-13-6.4-17.6-2.9c-3.2,2.4-4.3,3.5-6.3,7
	c-4.5,7.8-10.2,9.4-18.4,12.5c-5,1.9-9.3,5.8-13.5,9c-10.2,7.7-16-7.1-15.8-16c0-1,0-1.9-0.1-2.9c22.6,2.4,43.1-9.8,63.5-19.6
	c16.3-7.8,31.9-3.2,48.8-6.2c5.1-0.9,14.4-3.5,16.3-9.2C332.9,95.4,297.9,96.1,288.5,97.5z"/>
</svg>
