<?xml version="1.0" encoding="utf-8"?>
<!-- Generator: Adobe Illustrator 19.0.0, SVG Export Plug-In . SVG Version: 6.00 Build 0)  -->
<svg version="1.1" id="Layer_1" xmlns="http://www.w3.org/2000/svg" xmlns:xlink="http://www.w3.org/1999/xlink" x="0px" y="0px"
	 viewBox="0 0 50 50" style="enable-background:new 0 0 50 50;" xml:space="preserve">
<style type="text/css">
	.st0{fill:#F0CE17;}
</style>
<g id="XMLID_41_">
	<path id="XMLID_49_" class="st0" d="M48.2,36.2c0-0.3,0-0.7-0.1-1.2c-0.1-0.3-0.1-0.5-0.2-0.8c-0.1-0.3-0.2-0.6-0.3-1
		c-0.2-0.3-0.3-0.7-0.5-1c-0.2-0.3-0.4-0.7-0.7-1c-0.5-0.7-1.2-1.3-1.9-1.9c-0.7-0.6-1.6-1.1-2.5-1.6c-0.2-0.1-0.4-0.2-0.6-0.2
		c2.8-2.4,4.8-6,4.8-9.7c0-6.1-6.5-10.3-12.6-10.3c-5,0-10.3,4.4-10.3,11.8c0,4.1,2.2,7.6,5.5,9.5c-0.6,0.5-1.1,1.1-1.5,1.7
		c-0.6,0.8-1,1.6-1.3,2.3c-0.3,0.8-0.6,1.5-0.7,2.1c-0.1,0.3-0.1,0.6-0.2,0.9C25,36.2,25,36.5,25,36.7c0,0.1,0,0.3,0,0.4
		c0,0.1,0,0.2,0,0.3c0,0.2,0,0.3,0,0.4c0,0.2,0,0.3,0,0.3c0,0,0,0.1,0,0.1c0,1.3,1,2.4,2.3,2.5c1.3,0,2.4-1,2.5-2.3c0,0,0-0.1,0-0.3
		c0-0.1,0-0.2,0-0.4c0-0.1,0-0.2,0-0.2c0-0.1,0-0.1,0-0.2c0-0.1,0-0.3,0-0.5c0-0.2,0.1-0.4,0.1-0.6c0.1-0.4,0.2-0.9,0.4-1.4
		c0.2-0.5,0.5-1,0.8-1.5c0.3-0.5,0.7-1,1.2-1.4c0.5-0.4,1-0.7,1.6-0.9c0.6-0.2,1.2-0.3,1.9-0.3l0.7,0l0.5,0.1c0.3,0,0.7,0.1,1.1,0.2
		c0.7,0.2,1.4,0.4,2.1,0.7c0.6,0.3,1.2,0.6,1.7,1c0.5,0.4,0.9,0.8,1.3,1.2c0.2,0.2,0.3,0.4,0.4,0.6c0.1,0.2,0.2,0.4,0.3,0.6
		c0.1,0.2,0.1,0.4,0.2,0.5c0.1,0.2,0.1,0.3,0.1,0.4c0.1,0.3,0.1,0.5,0.1,0.6c0,0.2,0,0.2,0,0.2l0,0.3c0.1,1,1,1.7,2,1.7
		c1.1-0.1,1.9-1,1.8-2C48.2,36.6,48.2,36.5,48.2,36.2z M33.6,11.3c4.1,0,8.7,2.6,8.7,6.4c0,3.6-3,7.4-6.3,8.4l-0.1,0
		c-0.9,0-1.7,0-2.6,0.2c-3.5-0.5-6.2-3.5-6.2-7.1C27.2,15.4,29.6,11.3,33.6,11.3z"/>
	<path id="XMLID_55_" class="st0" d="M24.7,35.4c-0.2-0.9-0.6-2.2-1.6-3.4c-0.9-1.2-2.3-2.2-3.9-2.9c-0.2-0.1-0.4-0.2-0.6-0.3
		c2.3-2,3.8-5,3.8-8c0-5.2-5.4-8.6-10.5-8.6c-4.2,0-8.6,3.7-8.6,9.9c0,3.5,1.9,6.5,4.7,8.1c-1.2,0.9-2.2,2-2.9,3.1
		c-0.8,1.2-1.2,2.5-1.4,3.4c0,0.2-0.1,0.4-0.1,0.6c0,0.2,0,0.4,0,0.5c0,0.2,0,0.3,0,0.3c0,0,0,0.1,0,0.1c0,1.3,1,2.4,2.4,2.4
		c1.3,0,2.4-1,2.4-2.4c0,0,0-0.1,0-0.3c0-0.1,0-0.1,0-0.2c0,0,0-0.1,0-0.2c0.1-0.4,0.2-1,0.6-1.8c0.4-0.7,1.1-1.5,2-2.2
		c0.9-0.6,2-1.3,3-1.3c0,0,0.2-0.2,0.2-0.2h0.3c0.2,0,0.3,0.2,0.4,0.2c0.3,0,0.6,0.1,0.9,0.2c0.6,0.1,1.2,0.3,1.7,0.5
		c1.1,0.4,1.9,1.1,2.4,1.7c0.5,0.6,0.7,1.2,0.8,1.6c0,0.2,0.1,0.4,0.1,0.5c0,0.1,0,0.2,0,0.2l0,0.2c0.1,1,0.9,1.8,2,1.8
		c1.1,0,1.9-0.9,1.9-2c0,0,0-0.1,0-0.4C24.8,36.2,24.8,35.9,24.7,35.4z M12,16.1c3.1,0,6.6,2,6.6,4.8c0,3.1-3.2,6.6-6,6.6
		c-3,0-5.4-2.4-5.4-5.4C7.2,19.2,9,16.1,12,16.1z"/>
</g>
</svg>
