<?xml version="1.0" encoding="utf-8"?>
<!-- Generator: Adobe Illustrator 19.0.0, SVG Export Plug-In . SVG Version: 6.00 Build 0)  -->
<svg version="1.1" id="Layer_1" xmlns="http://www.w3.org/2000/svg" xmlns:xlink="http://www.w3.org/1999/xlink" x="0px" y="0px"
	 viewBox="0 0 50 50" style="enable-background:new 0 0 50 50;" xml:space="preserve">
<style type="text/css">
	.st0{fill:#FFFFFF;}
</style>
<path class="st0" d="M42.1,29.4c-1.3-0.6-2.8-0.1-3.4,1.2c-2.4,5-7.6,7.9-14,7.9c-8.2,0-13.8-5.9-13.8-14.6
	c0-9.1,5.7-15.5,13.8-15.5c3.7,0,7.1,1.3,9.8,3.5l-3.4,2.4c-0.7,0.5-0.5,1.5,0.3,1.7l4.3,1l5.4,1.3c0.6,0.1,1.1-0.3,1.2-0.8L43,12
	l0.5-4.4c0.1-0.8-0.8-1.4-1.5-0.9l-3.2,2.3C35.1,5.3,30,3.3,24.7,3.3C13.8,3.3,5.8,12,5.8,23.9c0,11.6,7.8,19.7,18.9,19.7
	c8.4,0,15.3-4,18.6-10.8C43.9,31.5,43.3,30,42.1,29.4z"/>
</svg>
