<?xml version="1.0" encoding="utf-8"?>
<!-- Generator: Adobe Illustrator 19.0.0, SVG Export Plug-In . SVG Version: 6.00 Build 0)  -->
<svg version="1.1" id="Layer_1" xmlns="http://www.w3.org/2000/svg" xmlns:xlink="http://www.w3.org/1999/xlink" x="0px" y="0px"
	 viewBox="0 0 50 50" style="enable-background:new 0 0 50 50;" xml:space="preserve">
<style type="text/css">
	.st0{fill:#FFFFFF;}
</style>
<path id="XMLID_4623_" class="st0" d="M36.7,19.7c0,0.1,0,0.4-0.1,0.6L19.9,37c-0.3,0.3-0.7,0.3-1,0l-5.1-5.3c-0.3-0.3-0.3-0.7,0-1
	L30.5,14c0.1-0.1,0.3-0.1,0.6-0.1c0.1,0,0.4,0,0.6,0.1l5.1,5.1C36.6,19.3,36.7,19.6,36.7,19.7z M30.8,6.1c-0.4,0-0.7,0.1-1,0.4
	L7.8,28.4c-0.3,0.3-0.4,0.6-0.4,1v12.3c0,0.9,0.6,1.4,1.4,1.4h12.3c0.4,0,0.7-0.1,1-0.4L44,20.7c0.3-0.3,0.4-0.6,0.4-1
	s-0.1-0.7-0.4-1L31.8,6.5l0,0C31.5,6.2,31.2,6.1,30.8,6.1L30.8,6.1z"/>
</svg>
