<?xml version="1.0" encoding="utf-8"?>
<!-- Generator: Adobe Illustrator 19.0.0, SVG Export Plug-In . SVG Version: 6.00 Build 0)  -->
<svg version="1.1" id="Layer_1" xmlns="http://www.w3.org/2000/svg" xmlns:xlink="http://www.w3.org/1999/xlink" x="0px" y="0px"
	 viewBox="0 0 50 50" style="enable-background:new 0 0 50 50;" xml:space="preserve">
<style type="text/css">
	.st0{fill:#8B8E90;}
	.st1{fill:#7D7D7D;}
</style>
<g id="XMLID_1484_">
	<g id="XMLID_1485_">
		<path id="XMLID_1486_" class="st0" d="M43.2,29h-24c-1.5,0-2.6-1.2-2.6-2.6s1.2-2.6,2.6-2.6h24c1.5,0,2.6,1.2,2.6,2.6
			S44.7,29,43.2,29z"/>
	</g>
	<g id="XMLID_1487_">
		<path id="XMLID_1488_" class="st0" d="M43.2,41.5h-24c-1.5,0-2.6-1.2-2.6-2.6c0-1.5,1.2-2.6,2.6-2.6h24c1.5,0,2.6,1.2,2.6,2.6
			C45.9,40.3,44.7,41.5,43.2,41.5z"/>
	</g>
	<g id="XMLID_1489_">
		<path id="XMLID_1490_" class="st0" d="M43.2,16.6h-24c-1.5,0-2.6-1.2-2.6-2.6s1.2-2.6,2.6-2.6h24c1.5,0,2.6,1.2,2.6,2.6
			S44.7,16.6,43.2,16.6z"/>
	</g>
	<g id="XMLID_1491_">
		<path id="XMLID_1492_" class="st1" d="M10.7,28.8H6.2c-1.5,0-2.6-1.2-2.6-2.6s1.2-2.6,2.6-2.6h4.5c1.5,0,2.6,1.2,2.6,2.6
			S12.2,28.8,10.7,28.8z"/>
	</g>
	<g id="XMLID_1493_">
		<path id="XMLID_1494_" class="st1" d="M10.7,41.2H6.2c-1.5,0-2.6-1.2-2.6-2.6S4.8,36,6.2,36h4.5c1.5,0,2.6,1.2,2.6,2.6
			S12.2,41.2,10.7,41.2z"/>
	</g>
	<g id="XMLID_1495_">
		<path id="XMLID_1496_" class="st1" d="M10.7,16.3H6.2c-1.5,0-2.6-1.2-2.6-2.6s1.2-2.6,2.6-2.6h4.5c1.5,0,2.6,1.2,2.6,2.6
			S12.2,16.3,10.7,16.3z"/>
	</g>
</g>
</svg>
