<?xml version="1.0" encoding="utf-8"?>
<!-- Generator: Adobe Illustrator 19.0.0, SVG Export Plug-In . SVG Version: 6.00 Build 0)  -->
<svg version="1.1" id="Layer_1" xmlns="http://www.w3.org/2000/svg" xmlns:xlink="http://www.w3.org/1999/xlink" x="0px" y="0px"
	 viewBox="0 0 50 50" style="enable-background:new 0 0 50 50;" xml:space="preserve">
<style type="text/css">
	.st0{fill:#5E5CA7;}
	.st1{fill:#FFFFFF;}
</style>
<g id="XMLID_974_">
	<path id="XMLID_53_" class="st0" d="M40.7,14.2c0.2,0.2,0.6,0.4,0.9,0.4c0.3,0,0.7-0.1,0.9-0.3l3.1-2.9c0.2-0.2,0.4-0.5,0.4-0.9
		c0-0.3-0.1-0.7-0.4-0.9l-5.8-6c-0.2-0.2-0.6-0.4-0.9-0.4c-0.3,0-0.7,0.1-0.9,0.3l-3.1,2.9c-0.5,0.5-0.5,1.3,0,1.8l0.9,0.9l-1,1.3
		c-9.6-5.8-24.4-3.3-28.7,8.9c-2.3,6.6-0.4,14.4,4.6,19.3c3.9,3.8,8.6,5.4,13.3,5.2c11.1-0.3,20.6-10.1,18.9-21.2
		c-0.5-3-1.6-5.6-3.2-7.7l0.8-0.9L40.7,14.2z M35.3,34c-2.4,3-5.8,4.9-9.6,5.3c-3.8,0.4-7.6-0.6-10.6-2.9c-3-2.3-5-5.7-5.4-9.4
		c-0.5-3.7,0.6-7.4,3-10.4c2.4-3,5.8-4.9,9.6-5.3c0.6-0.1,1.2-0.1,1.7-0.1c2.9,0,5.7,0.9,8.1,2.5L31.8,14c-0.2,0.3-0.3,0.6-0.3,0.9
		c0,0.3,0.2,0.6,0.5,0.8l3.3,2.6c0.3,0.2,0.6,0.3,0.9,0.3c0.1,0,0.2-0.1,0.4-0.1c0.9,1.6,1.4,3.3,1.7,5.1
		C38.8,27.4,37.7,31.1,35.3,34z"/>
	<g id="XMLID_1004_">
		<path id="XMLID_1005_" class="st1" d="M38.7,23.6c1,7.9-4.8,15.2-12.9,16.1C17.7,40.6,10.3,35,9.3,27s4.8-15.2,12.9-16.1
			C30.3,10,37.7,15.6,38.7,23.6z"/>
	</g>
	<path id="XMLID_42_" class="st0" d="M27.4,25.6c-0.1-0.6-0.4-1.1-0.8-1.5l-7.8-6.2c-0.6-0.4-1.4-0.4-1.9,0.1
		c-0.6,0.5-0.6,1.4-0.1,2l6.8,7.3l0,0c0.1,0.1,0.2,0.2,0.2,0.2c0.4,0.3,0.9,0.5,1.4,0.5c0.6,0,1.3-0.3,1.7-0.8
		C27.3,26.7,27.4,26.1,27.4,25.6z"/>
	<g id="XMLID_988_">
		
			<ellipse id="XMLID_989_" transform="matrix(5.608898e-02 -0.9984 0.9984 5.608898e-02 -14.0251 35.8601)" class="st0" cx="12" cy="25.3" rx="1.2" ry="1.3"/>
	</g>
	<g id="XMLID_986_">
		<path id="XMLID_987_" class="st0" d="M22.4,37.1c0.2-0.6,1-1,1.6-0.7c0.7,0.2,1,1,0.8,1.6c-0.2,0.6-1,1-1.6,0.7
			C22.5,38.4,22.2,37.7,22.4,37.1z"/>
	</g>
	<g id="XMLID_984_">
		<path id="XMLID_985_" class="st0" d="M35.2,26.6c-0.6-0.3-0.9-1-0.7-1.6c0.3-0.6,1-0.9,1.7-0.7c0.6,0.3,0.9,1,0.7,1.6
			C36.6,26.6,35.8,26.9,35.2,26.6z"/>
	</g>
	<g id="XMLID_982_">
		<path id="XMLID_983_" class="st0" d="M25.5,15.1c-0.4,0.6-1.2,0.7-1.8,0.4c-0.6-0.4-0.8-1.1-0.4-1.7c0.4-0.6,1.2-0.7,1.8-0.4
			C25.7,13.8,25.9,14.5,25.5,15.1z"/>
	</g>
</g>
</svg>
