<?xml version="1.0" encoding="utf-8"?>
<!-- Generator: Adobe Illustrator 19.2.0, SVG Export Plug-In . SVG Version: 6.00 Build 0)  -->
<svg version="1.1" id="Layer_1" xmlns="http://www.w3.org/2000/svg" xmlns:xlink="http://www.w3.org/1999/xlink" x="0px" y="0px"
	 viewBox="0 0 336.2 310.2" style="enable-background:new 0 0 336.2 310.2;" xml:space="preserve">
<style type="text/css">
	.st0{fill:#F2F2F2;}
	.st1{fill:#FFFFFF;stroke:#929497;stroke-miterlimit:10;}
	.st2{fill:#5D5CA7;}
	.st3{clip-path:url(#SVGID_2_);}
	.st4{fill:#E4A2AF;}
	.st5{opacity:0.5;fill:url(#SVGID_3_);}
	.st6{opacity:0.5;fill:url(#SVGID_4_);}
	.st7{opacity:0.3;fill:url(#SVGID_5_);}
	.st8{opacity:0.5;fill:url(#SVGID_6_);}
	.st9{opacity:0.5;fill:url(#SVGID_7_);}
	.st10{fill:#6C1B1D;}
	.st11{fill:#F1F1F2;}
	.st12{fill:#EE4036;}
	.st13{opacity:0.6;fill:#6C1B1D;}
</style>
<circle class="st0" cx="163" cy="150" r="147.4"/>
<g>
	<path class="st1" d="M446.5,747.5c-0.3-12.4-6.9-24.6-17.3-30.7c5.8-5.4,8-12.5,4.1-20.9c-4.2-9.1-16.9-10.4-25-6.7
		c-10.2,4.6-13.1,22.9-5.1,29.6c-6.6,5.4-11.9,12.6-16,20c-1.4,2.4-2.3,5.1-3.2,7.7c-0.6-3.7-2.8-7.2-6.6-9.1
		c-6.5-3.3-14.4-0.5-18,5.6c-2.9,4.9-1.8,10.8,1.8,14.6c-2.3,1.7-4.3,3.7-5.9,6.1c-2.8,4.3-3.1,9.8-3.2,14.7c0,3.7,3.6,5,6.2,4
		c-0.2,7.5-0.6,15-0.5,22.6c0,9.6,7,16.6,16.8,15c8.8-1.4,7.6-14.5,8-20.7c0.7-9,2.1-17.9,1.9-26.9c3.3-0.7,6.8-2.9,9.5-5.3
		c1.5-1.3,3-2.8,4.3-4.4c0.2,2.9,0.4,5.7,0.7,8.6c0.8,8.3,0.8,16.7,1.4,25c0.3,5.5-0.4,12.6,3.3,17.2c1.7,2.2,4.3,4,7.2,4
		c1.5,0,2.9-0.6,4-1.5c0.2-0.1,0.3-0.2,0.4-0.3c3.8,2.7,8.2,3.8,12.3,0.2c4.4-4,4.6-12.3,4.9-17.7c0.3-6.1-0.1-12.2-0.1-18.2
		c0-4.7-0.1-9.4-0.2-14.1c3,1,6.5,0.7,9.2-1.5C446.2,760.6,446.6,753.2,446.5,747.5z"/>
	<g>
		<g>
			<g>
				<circle class="st2" cx="417" cy="704.8" r="12.7"/>
				<path class="st2" d="M425.2,720.2c-0.4-0.3-0.9-0.4-1.4-0.6c-1.2-0.6-2.4-1.1-3.7-1.4l-3.2,3.2l-3.1-3.2c0,0,0,0,0,0
					c-1.6,0.4-3.2,1.1-4.6,2c-0.3,0.1-0.5,0.2-0.8,0.4c-9.6,5.9-15.3,18.1-22.4,33.6c-0.8,1.8-0.5,3.9,0.7,5.3
					c-3.9,3.4-13.5-2.2-14.3-2.4l-2,2l-2-2.1c0,0,0,0,0,0c-1.4,0.3-5.2,2.9-6.6,3.7c-0.1,0-0.3,0.1-0.4,0.2c-0.3,0.2-7,4.1-7,15.8
					c0,1.6,1.3,2.9,2.9,2.9c1.6,0,2.9-1.3,2.9-2.9c0-3.8,0.9-6.4,1.9-8.1V782c0,0.8,0.2,1.6,0.5,2.4c0,0.2,0,0.3,0,0.5l0,26.6
					c0,2.1,1.7,3.7,3.7,3.7c2.1,0,3.7-1.7,3.7-3.7l0-22.3c0.1,0,0.3,0,0.4,0c0,0,0.1,0,0.1,0l0,22.3c0,2.1,1.7,3.7,3.7,3.7
					c2.1,0,3.7-1.7,3.7-3.7l0-26.4c0.5-0.9,0.8-1.9,0.8-3v-14.8c1.2,0.4,2.4,0.7,3.7,0.7c2.8,0,5.9-1.2,9.5-4.6
					c0.8-0.7,1.1-1.7,0.9-2.7c0.9-0.5,1.6-1.2,2.1-2.2c3.2-6.9,6.1-13.1,9-18.1v17.1c0,1.3,0.3,2.6,0.7,3.7c0,0.3-0.1,0.5-0.1,0.8
					l0,47.2c0,3.2,2.6,5.8,5.8,5.8c3.2,0,5.8-2.6,5.8-5.8l0-40.5c0.2,0,0.5,0,0.7,0c0,0,0.1,0,0.1,0v40.5c0,3.2,2.6,5.8,5.8,5.8
					c0,0,0,0,0,0c3.2,0,5.8-2.6,5.8-5.8l0-46.9c0.8-1.4,1.2-3,1.2-4.8v-17.9c1.5,3.9,2,9,1.3,16.4c-0.3,2.7,1.7,5.1,4.4,5.4
					c0.2,0,0.3,0,0.5,0c2.5,0,4.6-1.9,4.9-4.4C443.4,734.6,434.8,726.1,425.2,720.2z"/>
				<circle class="st2" cx="370.5" cy="748.5" r="8.1"/>
			</g>
		</g>
	</g>
</g>
<g>
	<defs>
		<circle id="SVGID_1_" cx="163" cy="150.1" r="147.4"/>
	</defs>
	<clipPath id="SVGID_2_">
		<use xlink:href="#SVGID_1_"  style="overflow:visible;"/>
	</clipPath>
	<g class="st3">
		<path class="st4" d="M136.3,73.6c0,0,1.2-19.5,10.1-28.8c8.9-9.3,65.8-25.8,79-38.8c13.2-13-36.7,37.6-56.3,41.6
			C153,50.9,139.2,65.7,136.3,73.6z"/>
		<path class="st4" d="M114.8,77.1c0,0-9.8-33.8-3-44C118.5,23,147.9,7.8,153.9-2c6-9.8-22.4,39.4-31.7,48.6
			C112.9,55.8,114.8,77.1,114.8,77.1z"/>
		
			<linearGradient id="SVGID_3_" gradientUnits="userSpaceOnUse" x1="199.9857" y1="75.7825" x2="190.6394" y2="103.823" gradientTransform="matrix(0.9968 7.990000e-002 -7.990000e-002 0.9968 -19.8819 -37.2217)">
			<stop  offset="0" style="stop-color:#FFFFFF"/>
			<stop  offset="1" style="stop-color:#6C1B1D"/>
		</linearGradient>
		<path class="st5" d="M136.3,73.6c0,0,1.2-19.5,10.1-28.8c8.9-9.3,65.8-25.8,79-38.8c13.2-13-36.7,37.6-56.3,41.6
			C153,50.9,139.2,65.7,136.3,73.6z"/>
		
			<linearGradient id="SVGID_4_" gradientUnits="userSpaceOnUse" x1="150.2188" y1="59.1957" x2="140.8724" y2="87.2364" gradientTransform="matrix(0.9968 7.990000e-002 -7.990000e-002 0.9968 -19.8819 -37.2217)">
			<stop  offset="0" style="stop-color:#FFFFFF"/>
			<stop  offset="1" style="stop-color:#6C1B1D"/>
		</linearGradient>
		<path class="st6" d="M114.8,77.1c0,0-9.8-33.8-3-44C118.5,23,147.9,7.8,153.9-2c6-9.8-22.4,39.4-31.7,48.6
			C112.9,55.8,114.8,77.1,114.8,77.1z"/>
		<path class="st4" d="M221.7,202c0,0,0.5-24.9,13.7-22c0,0-2.7,3.9,0.9,9c3.7,5.1,8.6,27.7-3.8,27.1
			C220.1,215.4,221.7,202,221.7,202z"/>
		
			<linearGradient id="SVGID_5_" gradientUnits="userSpaceOnUse" x1="270.4419" y1="196.7555" x2="268.9663" y2="229.219" gradientTransform="matrix(0.9968 7.990000e-002 -7.990000e-002 0.9968 -19.8819 -37.2217)">
			<stop  offset="0" style="stop-color:#FFFFFF"/>
			<stop  offset="1" style="stop-color:#6C1B1D"/>
		</linearGradient>
		<path class="st7" d="M221.7,202c0,0,0.5-24.9,13.7-22c0,0-2.7,3.9,0.9,9c3.7,5.1,8.6,27.7-3.8,27.1
			C220.1,215.4,221.7,202,221.7,202z"/>
		<path class="st4" d="M183.9,265.6c0,0-28.8,27.6-30.8,38.5c-2,10.9-15.3,10.3-18.3,6.7c-3-3.6,0.6-57.7,14.8-59.9
			C163.8,248.7,183.9,265.6,183.9,265.6z"/>
		<path class="st4" d="M152.3,306.7c0,0,12.7,30.6-0.1,57.5l-13.1-1.1c0,0,2.3-35.8-3.6-50.5C129.8,298.4,152.3,306.7,152.3,306.7z"
			/>
		<path class="st4" d="M121.3,389.6c-0.3,3.5-4.3,6-8.9,5.6c-4.6-0.4-8.2-3.5-7.9-6.9c0.3-3.5,4.2-4.9,8.8-4.6
			C117.9,384.1,121.6,386.2,121.3,389.6z"/>
		<path class="st4" d="M116.6,394.6c0,0,27.5-6.2,37.1-6.6c13.8-0.6,1.2-23.7-1.4-23.9c-2.6-0.2-13.1-1.1-13.1-1.1
			s-13.9,17.7-23,20.2C110.6,384.8,116.6,394.6,116.6,394.6z"/>
		
			<linearGradient id="SVGID_6_" gradientUnits="userSpaceOnUse" x1="186.1079" y1="416.9712" x2="197.1763" y2="302.966" gradientTransform="matrix(0.9968 7.990000e-002 -7.990000e-002 0.9968 -19.8819 -37.2217)">
			<stop  offset="0" style="stop-color:#FFFFFF"/>
			<stop  offset="1" style="stop-color:#6C1B1D"/>
		</linearGradient>
		<path class="st8" d="M152.2,364.2c12.8-26.9,0.1-57.5,0.1-57.5s0,0,0,0c0.3-0.8,0.6-1.6,0.8-2.6c2-10.9,30.8-38.5,30.8-38.5
			s-20.1-16.9-34.3-14.7c-14.2,2.2-17.8,56.3-14.8,59.9c0.1,0.1,0.1,0.1,0.2,0.2c0.1,0.5,0.3,1.1,0.6,1.7
			c5.8,14.6,3.6,50.5,3.6,50.5s-13.9,17.7-23,20.2c-0.5,0.1-0.9,0.4-1.2,0.6c-0.5-0.1-1-0.2-1.6-0.2c-4.6-0.4-8.5,1.1-8.8,4.6
			c-0.3,3.5,3.3,6.6,7.9,6.9c1.8,0.1,3.5-0.1,4.9-0.7c4.1-0.9,27.7-6.1,36.4-6.4C167.5,387.5,154.8,364.4,152.2,364.2z"/>
		<path class="st4" d="M162.9,93.9c-1.4,17.5-12.6,26.7-30.9,31.8c-17.6,4.9-36.9-8.5-35.5-26c1.4-17.5,17.4-35.6,35.7-34.2
			C150.4,67,164.3,76.3,162.9,93.9z"/>
		<path class="st4" d="M150.8,117c0,0-4.7,42.9-0.7,48.7c4,5.7,58.1,20.9,71.6,36.3c10.9,12.5,14.2,23.3,3.4,46.4
			c-3.3,7.2-14.5,23.8-50.8,15.4c-36.3-8.3-57.5-27.3-63.1-44.5c-5.5-17.2-14.3-67.8,16-92.3C157.6,102.6,150.8,117,150.8,117z"/>
		<path class="st4" d="M192.1,257.4c0,0,0.8,39.5,7.7,46c6.9,6.5,9.8,0.8,9.8,0.8s17.6-32.4,16.6-58
			C225.2,220.5,192.1,257.4,192.1,257.4z"/>
		<path class="st4" d="M196.9,298c0,0-16.6,29.3-2.9,62.3l9,0.7c0,0,2.2-47.7,6.6-56.8C214,295.1,196.9,298,196.9,298z"/>
		<path class="st4" d="M193.9,360.3c0,0-5.2,19.9-8.6,21.5c-3.3,1.6,2,6.6,2,6.6s31.2,5.4,30.2,0.3c-1.5-7.8-14.6-28.4-14.6-28.4
			L193.9,360.3z"/>
		<path class="st4" d="M144.5,129.9c0,0,39.4-2.9,46.4-9.3c7-6.4,1,9.2,1,9.2s-41.9,13.9-46.1,19.4
			C141.6,154.6,144.5,129.9,144.5,129.9z"/>
		<path class="st4" d="M190.9,120.6c0,0,23-14.8,28.2-21.1l5,2.2c0,0-23.1,28.2-32.2,28.1C182.7,129.7,190.9,120.6,190.9,120.6z"/>
		
			<ellipse transform="matrix(0.1537 -0.9881 0.9881 0.1537 96.9922 297.0166)" class="st4" cx="221.9" cy="91.9" rx="13.4" ry="6.4"/>
		<ellipse transform="matrix(0.6721 -0.7405 0.7405 0.6721 3.5215 200.3714)" class="st4" cx="228" cy="96.2" rx="5.1" ry="2.1"/>
		<g>
			<ellipse transform="matrix(0.816 -0.578 0.578 0.816 -67.1687 61.1672)" class="st4" cx="62.5" cy="136.1" rx="1.7" ry="3.7"/>
			<path class="st4" d="M118.1,136.8c0,0-17.9,14.5-23.3,14c-5.4-0.4-0.6,7.9-0.6,7.9s13.9,2.4,15.5-2.6
				C111.3,151.2,118.1,136.8,118.1,136.8z"/>
			<path class="st4" d="M94.8,150.8c0,0-17.8-5.6-21.9-10.1l-6.4,1.5c0,0,14.6,19.6,28.9,16.8"/>
			
				<ellipse transform="matrix(8.002530e-002 -0.9968 0.9968 8.002530e-002 -67.9974 190.4604)" class="st4" cx="69.2" cy="132.1" rx="10.8" ry="6.9"/>
		</g>
		
			<linearGradient id="SVGID_7_" gradientUnits="userSpaceOnUse" x1="100.3461" y1="153.7957" x2="139.083" y2="176.4844" gradientTransform="matrix(0.9968 7.990000e-002 -7.990000e-002 0.9968 -19.8819 -37.2217)">
			<stop  offset="0" style="stop-color:#FFFFFF"/>
			<stop  offset="1" style="stop-color:#6C1B1D"/>
		</linearGradient>
		<path class="st9" d="M94.8,150.8c0,0-17.8-5.6-21.9-10.1l0,0c1.7-1.8,3-4.7,3.3-8.1c0.5-5.9-2.2-11-6-11.3
			c-3.8-0.3-7.3,4.3-7.7,10.2c-0.1,0.7-0.1,1.3,0,2c-0.7-0.5-1.5-0.7-1.9-0.4c-0.8,0.6-0.5,2.3,0.7,4c0.8,1.1,1.8,1.9,2.6,2.1
			c0.7,1.4,1.7,2.4,2.8,3l-0.1,0c0,0,14.6,19.6,28.9,16.8l0-0.1c3.4,0.4,13,1.3,14.3-2.8c1.6-5,8.4-19.4,8.4-19.4
			S100.2,151.2,94.8,150.8z"/>
		<path class="st4" d="M192.1,391.5c0.2-0.7,0.4-1.5,0.4-2.3c0.4-4.8-2-9-5.3-9.2c-3.3-0.3-6.3,3.4-6.7,8.3c-0.1,0.8,0,1.6,0.1,2.4
			L192.1,391.5z"/>
		<path class="st4" d="M203.2,392.4c0.2-0.7,0.4-1.5,0.4-2.3c0.4-4.8-2-9-5.3-9.2c-3.3-0.3-6.3,3.4-6.7,8.3c-0.1,0.8,0,1.6,0.1,2.4
			L203.2,392.4z"/>
		<path class="st4" d="M214.4,393.3c0.2-0.7,0.4-1.5,0.4-2.3c0.4-4.8-2-9-5.3-9.2c-3.3-0.3-6.3,3.4-6.7,8.3c-0.1,0.8,0,1.6,0.1,2.4
			L214.4,393.3z"/>
		<path class="st4" d="M225.5,394.2c0.2-0.7,0.4-1.5,0.4-2.3c0.4-4.8-2-9-5.3-9.2c-3.3-0.3-6.3,3.4-6.7,8.3c-0.1,0.8,0,1.6,0.1,2.4
			L225.5,394.2z"/>
		<path class="st10" d="M126,86.7c0,0,0-0.3,0-0.8c0-0.5,0.1-1.3,0.5-2.1c0.2-0.4,0.4-0.8,0.8-1.2c0.2-0.2,0.3-0.4,0.6-0.6
			c0.2-0.2,0.4-0.4,0.7-0.5c0.2-0.2,0.5-0.3,0.7-0.5c0.3-0.1,0.5-0.2,0.8-0.3c0.6-0.3,1.2-0.3,1.7-0.5c0.6-0.1,1.2-0.1,1.8-0.2
			c0.6-0.1,1.2,0.1,1.7,0.1c0.6,0,1.1,0.1,1.6,0.2c0.5,0.1,1,0.2,1.4,0.3c0.8,0.2,1.5,0.5,2,0.6c0.5,0.2,0.8,0.3,0.8,0.3
			s-0.3,0-0.8-0.1c-0.5-0.1-1.2-0.2-2.1-0.3c-0.9-0.1-1.9-0.2-2.9-0.2c-0.5,0-1.1-0.1-1.6,0c-0.5,0.1-1.1,0-1.7,0.2
			c-0.5,0.1-1.1,0.2-1.6,0.4c-0.2,0.1-0.5,0.2-0.7,0.3c-0.2,0.1-0.5,0.2-0.7,0.4c-0.2,0.1-0.4,0.3-0.6,0.4c-0.2,0.1-0.4,0.3-0.5,0.5
			c-0.3,0.3-0.6,0.7-0.8,1c-0.2,0.4-0.4,0.7-0.5,1c-0.1,0.3-0.2,0.6-0.3,0.9C126,86.4,126,86.7,126,86.7z"/>
		<path class="st10" d="M113.3,86.9c0,0-0.2-0.2-0.5-0.4c-0.3-0.3-0.8-0.6-1.3-0.9c-0.3-0.2-0.6-0.3-0.9-0.5
			c-0.3-0.2-0.7-0.3-1.1-0.4c-0.4-0.1-0.8-0.2-1.2-0.2c-0.4-0.1-0.8,0-1.2,0.1c-0.4,0.1-0.8,0.2-1.2,0.3c-0.4,0.2-0.8,0.3-1.1,0.6
			c-0.3,0.2-0.7,0.4-1,0.7c-0.3,0.2-0.6,0.5-0.8,0.7c-0.5,0.4-0.9,0.9-1.1,1.1c-0.3,0.3-0.4,0.4-0.4,0.4s0.1-0.2,0.3-0.5
			c0.2-0.3,0.5-0.8,0.9-1.3c0.2-0.3,0.5-0.5,0.7-0.8c0.3-0.3,0.6-0.5,1-0.8c0.3-0.3,0.8-0.4,1.2-0.7c0.4-0.2,0.9-0.3,1.4-0.4
			c0.5,0,1-0.1,1.4,0c0.5,0,0.9,0.2,1.3,0.3c0.4,0.2,0.8,0.3,1.1,0.5c0.4,0.2,0.7,0.4,0.9,0.6C112.9,86.1,113.3,86.9,113.3,86.9z"/>
		<path class="st10" d="M115.7,92.9c0,0,1.2-1.5,4.6,0.1c0,0-2.4,1.6-2.5,2.5C117.7,96.8,115.1,94.6,115.7,92.9z"/>
		<path class="st10" d="M137.8,97.7l-1.1,0.9l-1.1,0.8c-0.8,0.5-1.6,1-2.4,1.4c-1.7,0.8-3.5,1.4-5.4,1.5c-1.9,0.1-3.8-0.3-5.6-1
			c-0.9-0.4-1.7-0.8-2.5-1.4c-0.8-0.5-1.5-1.1-2.2-1.9l0.3-0.1c-0.4,1.1-1,2.1-1.7,3c-0.7,0.9-1.6,1.7-2.7,2.2
			c-1.1,0.5-2.3,0.6-3.4,0.4c-0.6-0.1-1.1-0.3-1.7-0.5c-0.5-0.2-1-0.5-1.5-0.8c0.5,0.3,1,0.5,1.6,0.7c0.5,0.2,1.1,0.3,1.6,0.4
			c1.1,0.2,2.3,0,3.3-0.5c1-0.5,1.9-1.3,2.6-2.1c0.7-0.9,1.3-1.9,1.6-2.9l0.1-0.3l0.2,0.2c0.6,0.7,1.3,1.3,2.1,1.8
			c0.8,0.5,1.6,1,2.4,1.3c1.7,0.7,3.6,1.1,5.4,1c1.8-0.1,3.7-0.6,5.4-1.3c0.9-0.4,1.7-0.8,2.5-1.3l1.2-0.8L137.8,97.7z"/>
		<path class="st10" d="M113.4,103c0,0,2,4.1,2.3,6.9c0.2,1.7,6.8,3.4,10.1-0.5c3.3-3.9,4.2-7.6,3.7-7.5c-0.5,0.1-7.5,1.3-11.8-4
			C117.6,98,116,102.5,113.4,103z"/>
		<path class="st11" d="M117.5,99.1c0,0,2,2,3.1,2l0.2,1.6l-3.6,0.4l-0.6-2.1C116.6,101,117.6,99.7,117.5,99.1z"/>
		
			<ellipse transform="matrix(0.9955 -9.432157e-002 9.432157e-002 0.9955 -9.754 11.8514)" class="st12" cx="120.5" cy="109.1" rx="4.2" ry="2.1"/>
		<path class="st10" d="M134.3,90.7c0,0,0.9-0.3,2.4-0.6c0.7-0.2,1.5-0.4,2.4-0.5c0.9-0.2,1.9-0.4,2.8-0.6c1.9-0.4,3.8-0.7,5.3-0.9
			c1.5-0.2,2.4-0.3,2.4-0.3s-0.9,0.3-2.4,0.6c-1.4,0.3-3.3,0.7-5.3,1.1c-1,0.2-1.9,0.4-2.8,0.5c-0.9,0.2-1.8,0.3-2.5,0.4
			C135.3,90.6,134.3,90.7,134.3,90.7z"/>
		<path class="st10" d="M136,93.5c0,0,1-0.1,2.4-0.2c0.7-0.1,1.6-0.1,2.5-0.2c0.9,0,1.9-0.1,2.9-0.2c2-0.1,3.9-0.1,5.4-0.1
			c1.5,0,2.4,0,2.4,0s-1,0.1-2.4,0.2c-1.5,0.1-3.4,0.2-5.4,0.3c-1,0-2,0.1-2.9,0.1c-0.9,0-1.8,0-2.5,0C137,93.6,136,93.5,136,93.5z"
			/>
		<path class="st10" d="M100.9,94.7c0,0-0.6-0.1-1.5-0.2c-0.9-0.1-2.1-0.3-3.3-0.5c-1.2-0.2-2.4-0.5-3.3-0.7
			c-0.9-0.2-1.5-0.4-1.5-0.4s0.6,0.1,1.5,0.2c0.9,0.1,2.1,0.3,3.3,0.5c1.2,0.2,2.4,0.5,3.3,0.7C100.3,94.6,100.9,94.7,100.9,94.7z"
			/>
		<path class="st10" d="M102.3,98.9c0,0-0.7,0.1-1.7,0.2c-1,0.1-2.4,0.2-3.8,0.4c-1.4,0.1-2.7,0.2-3.8,0.2c-1,0-1.7,0-1.7,0
			s0.7-0.1,1.7-0.2c1-0.1,2.4-0.2,3.8-0.4c1.4-0.1,2.7-0.2,3.8-0.2C101.6,98.9,102.3,98.9,102.3,98.9z"/>
		<path class="st10" d="M126,70.1c0,0,0.1-0.1,0.4-0.3c0.3-0.2,0.6-0.5,1.1-0.7c0.2-0.1,0.5-0.2,0.8-0.4c0.3-0.1,0.6-0.2,1-0.3
			c0.3-0.1,0.7-0.1,1.1-0.1c0.4,0,0.7,0,1.1,0c0.4,0.1,0.7,0.1,1.1,0.2c0.3,0.1,0.7,0.2,1,0.3c0.3,0.2,0.6,0.3,0.9,0.4
			c0.3,0.2,0.5,0.3,0.7,0.5c0.5,0.3,0.8,0.6,1,0.8c0.2,0.2,0.4,0.3,0.4,0.3s-0.1-0.1-0.4-0.3c-0.3-0.2-0.6-0.5-1.1-0.7
			c-0.2-0.1-0.5-0.3-0.8-0.4c-0.3-0.1-0.6-0.3-0.9-0.4c-0.3-0.1-0.6-0.2-1-0.3c-0.3-0.1-0.7-0.1-1-0.2c-0.4,0-0.7-0.1-1.1,0
			c-0.3,0-0.7,0-1,0.1c-0.7,0.1-1.3,0.3-1.7,0.5C126.6,69.6,126,70.1,126,70.1z"/>
		<path class="st10" d="M114.7,70.1c0,0-0.4-0.5-1.2-0.8c-0.2-0.1-0.4-0.2-0.7-0.2c-0.2-0.1-0.5-0.1-0.8-0.1c-0.3,0-0.5,0-0.8,0
			c-0.3,0.1-0.6,0.1-0.8,0.2c-0.3,0.1-0.5,0.2-0.8,0.3c-0.3,0.1-0.5,0.3-0.7,0.4c-0.5,0.3-0.9,0.6-1.2,0.9c-0.2,0.1-0.3,0.3-0.5,0.4
			c-0.1,0.1-0.3,0.2-0.4,0.3c-0.2,0.2-0.3,0.3-0.3,0.3s0.1-0.1,0.3-0.3c0.1-0.1,0.2-0.2,0.3-0.4c0.1-0.1,0.2-0.3,0.4-0.4
			c0.3-0.3,0.7-0.7,1.2-1c0.2-0.2,0.5-0.3,0.8-0.4c0.3-0.1,0.5-0.3,0.8-0.4c0.3-0.1,0.6-0.2,0.9-0.2c0.3,0,0.6,0,0.9,0
			c0.3,0,0.6,0.1,0.8,0.2c0.3,0.1,0.5,0.2,0.7,0.3c0.4,0.2,0.7,0.5,0.9,0.7C114.6,70,114.7,70.1,114.7,70.1z"/>
		<path class="st13" d="M148.6,146.8c0,0-1.6,1.2-4.4,3.1c0,0,4.3,0.4,4.3,2.8C148.5,155.1,148.6,146.8,148.6,146.8z"/>
		<path class="st10" d="M187.2,379.9c1.3-0.3,2.7-0.1,3.9,0.4c0.2,0.1,0.3,0.1,0.5,0.2c0.2,0.1,0.3,0.1,0.4,0.2
			c0.3,0.2,0.6,0.4,0.8,0.6c0.5,0.4,1,0.9,1.4,1.4l-0.3,0c0.4-0.4,0.7-0.7,1.2-1c0.4-0.3,0.8-0.6,1.3-0.9c0.5-0.3,0.9-0.5,1.5-0.6
			c0.3-0.1,0.5-0.1,0.8-0.2c0.3,0,0.5-0.1,0.8,0c0.3,0,0.5,0,0.8,0.1c0.3,0.1,0.5,0.1,0.8,0.2l0.7,0.3c0.2,0.1,0.4,0.3,0.7,0.5
			c0.2,0.1,0.4,0.3,0.6,0.5l0.6,0.6c0.3,0.4,0.6,0.8,0.9,1.3l-0.5-0.1c0.4-0.5,0.9-0.8,1.4-1.2c0.5-0.4,1-0.7,1.6-0.9
			c0.3-0.1,0.6-0.2,0.9-0.3c0.3-0.1,0.6-0.1,0.9-0.2c0.3-0.1,0.6,0,0.9-0.1c0.3,0,0.6,0.1,0.9,0.1c0.3,0,0.6,0.2,0.9,0.3l0.4,0.2
			l0.4,0.3c0.3,0.2,0.5,0.3,0.7,0.5l0.7,0.6c0.2,0.2,0.4,0.5,0.6,0.7l0.5,0.7l0.8,1.6l-0.3,0c0.7-0.9,1.4-1.7,2.3-2.4
			c0.4-0.3,0.9-0.6,1.4-0.8c0.1,0,0.3-0.1,0.4-0.1c0.1,0,0.3-0.1,0.4,0c0.3,0,0.5,0.1,0.8,0.1c-0.3-0.1-0.5-0.1-0.8-0.1
			c-0.1,0-0.3,0-0.4,0.1c-0.1,0-0.3,0.1-0.4,0.1c-0.5,0.2-0.9,0.5-1.3,0.9c-0.8,0.7-1.5,1.5-2.1,2.4l-0.2,0.3l-0.2-0.3l-0.9-1.5
			l-0.5-0.7c-0.2-0.2-0.3-0.5-0.6-0.7l-0.6-0.6c-0.2-0.2-0.5-0.3-0.7-0.5l-0.4-0.2l-0.4-0.1c-0.3-0.1-0.5-0.2-0.8-0.2
			c-0.3,0-0.5-0.1-0.8-0.1c-0.3,0-0.6,0-0.8,0.1c-0.3,0.1-0.6,0.1-0.8,0.2c-0.3,0.1-0.5,0.2-0.8,0.3c-0.5,0.2-1,0.5-1.5,0.9
			c-0.5,0.3-0.9,0.7-1.3,1.1l-0.3,0.3l-0.2-0.3c-0.3-0.4-0.6-0.8-0.9-1.2l-0.5-0.5c-0.2-0.2-0.3-0.4-0.5-0.5
			c-0.2-0.1-0.4-0.3-0.6-0.4l-0.6-0.3c-0.2-0.1-0.5-0.1-0.7-0.2c-0.2-0.1-0.5-0.1-0.7-0.1c-0.2,0-0.5,0-0.7,0
			c-0.2,0-0.5,0.1-0.7,0.1c-0.5,0.1-0.9,0.3-1.4,0.5c-0.9,0.4-1.7,1-2.4,1.7l-0.2,0.2l-0.2-0.2c-0.4-0.5-0.8-1-1.3-1.4
			c-0.2-0.2-0.5-0.4-0.8-0.6c-0.1-0.1-0.3-0.2-0.4-0.3c-0.1-0.1-0.3-0.2-0.4-0.2C189.9,380,188.5,379.7,187.2,379.9z"/>
		<path class="st13" d="M127.9,126.5c0,0,18.5-5.6,22.8-9.5l-0.8,5.9C150,122.9,131.5,127.1,127.9,126.5z"/>
		<path class="st10" d="M109.7,213.8c0,0-1.5,0.6-4.3,1.8c-2.8,1.2-6.8,3.1-11.8,5.8c-2.5,1.3-5.2,2.9-8,4.7
			c-2.8,1.8-5.8,3.9-8.7,6.5c-1.5,1.3-2.9,2.6-4.2,4.2c-1.3,1.5-2.5,3.2-3.3,5.1c-0.8,1.8-1.3,3.8-1,5.8l0,0.4l0,0.1
			c0,0.1,0-0.2,0,0l0.1,0.2c0.1,0.3,0.1,0.6,0.2,0.7c0.1,0.1,0.1,0.3,0.3,0.4l0.2,0.2l0.2,0.2c0.6,0.6,1.4,1.1,2.4,1.4
			c2,0.7,4.4,0.9,6.7,1c2.4,0.1,4.9-0.1,7.5-0.3c5.1-0.4,10.4-1.3,15.8-2.3c10.8-2.2,22.1-5,33.7-8.4c5.8-1.7,11.7-3.5,17.6-5.4
			c5.9-1.9,11.9-3.8,17.9-5.9c6-2.1,12-4.3,17.9-6.6c5.9-2.4,11.8-4.9,17.6-7.7c11.7-5.4,23.2-11.3,34.4-17.2c5.6-3,11.1-6,16.5-9.1
			c5.4-3.1,10.6-6.3,15.5-9.6c2.5-1.7,4.9-3.4,7-5.2c0.5-0.5,1.1-0.9,1.5-1.4l0.7-0.7c0.2-0.2,0.4-0.5,0.6-0.7
			c0.1-0.1,0.2-0.2,0.3-0.3l0.2-0.3l0.2-0.3c0,0,0.1-0.1,0,0l0.1-0.1l0.1-0.2c0.2-0.3,0.3-0.7,0.4-0.9c0.1-0.3,0.2-0.5,0.3-0.8
			c0.4-1.1,0.5-2.3,0.3-3.1c-0.2-0.9-0.7-1.6-1.5-2.2c-1.7-1.3-4.4-1.9-6.9-2.1c-2.6-0.3-5.3-0.2-7.9-0.1c-2.6,0.1-5.2,0.4-7.8,0.7
			c-5.1,0.7-10,1.6-14.8,2.6c-9.4,2-18.1,4-25.7,6c-7.6,1.9-14.2,3.8-19.7,5.3c-5.4,1.5-9.7,2.8-12.6,3.6c-2.9,0.9-4.5,1.3-4.5,1.3
			s1.5-0.6,4.4-1.6c2.9-1,7-2.5,12.4-4.3c5.4-1.8,11.9-3.9,19.5-6.2c7.6-2.3,16.1-4.8,25.6-7.1c4.7-1.1,9.7-2.3,14.9-3.1
			c5.2-0.8,10.7-1.5,16.6-1.1c1.5,0.1,3,0.3,4.5,0.7c1.5,0.4,3.1,1,4.6,2c1.5,1,2.8,2.8,3.2,4.7c0.5,2,0.2,3.8-0.3,5.4
			c-0.2,0.8-0.6,1.7-0.9,2.3l-0.1,0.3l-0.1,0.1c-0.1,0.2-0.1,0.1-0.1,0.2l-0.4,0.6l-0.4,0.6c-0.1,0.2-0.3,0.3-0.4,0.5
			c-0.3,0.3-0.5,0.7-0.8,1l-0.8,0.9c-0.6,0.6-1.2,1.1-1.7,1.6c-2.3,2.1-4.8,3.9-7.3,5.7c-5.1,3.5-10.3,6.8-15.7,10
			c-5.4,3.2-10.9,6.3-16.5,9.4c-11.2,6.1-22.8,12-34.5,17.6c-5.9,2.8-11.8,5.5-17.9,7.8c-6.1,2.4-12.1,4.5-18.2,6.6
			c-6.1,2.1-12.1,4-18.1,5.9c-6,1.8-11.9,3.5-17.8,5.1c-11.8,3.2-23.2,5.9-34.3,7.8c-5.5,0.9-11,1.6-16.3,2c-2.7,0.2-5.3,0.2-7.9,0
			c-2.6-0.2-5.2-0.5-7.8-1.6c-1.3-0.5-2.6-1.2-3.6-2.4l-0.4-0.4l-0.3-0.5c-0.2-0.3-0.4-0.7-0.6-1.1c-0.2-0.5-0.2-0.7-0.3-1l0-0.2
			c0,0.1,0-0.2,0-0.2l0-0.1l0-0.5c-0.2-2.7,0.5-5.2,1.6-7.3c1.1-2.2,2.5-3.9,4-5.5c1.5-1.6,3.1-3,4.6-4.2c6.4-5,12.6-8.1,17.7-10.5
			c5.2-2.4,9.3-4,12.2-5C108.1,214.2,109.7,213.8,109.7,213.8z"/>
	</g>
</g>
</svg>
