<?xml version="1.0" encoding="utf-8"?>
<!-- Generator: Adobe Illustrator 19.2.0, SVG Export Plug-In . SVG Version: 6.00 Build 0)  -->
<svg version="1.1" id="Layer_1" xmlns="http://www.w3.org/2000/svg" xmlns:xlink="http://www.w3.org/1999/xlink" x="0px" y="0px"
	 viewBox="0 0 336.2 310.2" style="enable-background:new 0 0 336.2 310.2;" xml:space="preserve">
<style type="text/css">
	.st0{fill:#F2F2F2;}
	.st1{fill:#FFFFFF;stroke:#929497;stroke-miterlimit:10;}
	.st2{fill:#5D5CA7;}
	.st3{clip-path:url(#SVGID_2_);}
	.st4{fill:#E6B784;}
	.st5{opacity:0.5;fill:url(#SVGID_3_);}
	.st6{fill:#59422F;}
	.st7{opacity:0.5;fill:#8A5D3B;}
	.st8{fill:#404041;}
	.st9{clip-path:url(#SVGID_5_);}
	.st10{fill:#A7774C;}
	.st11{opacity:0.5;fill:#A7774C;}
	.st12{fill:#F89D1D;}
	.st13{fill:#603813;}
</style>
<circle class="st0" cx="163" cy="150" r="147.4"/>
<g>
	<path class="st1" d="M446.5,747.5c-0.3-12.4-6.9-24.6-17.3-30.7c5.8-5.4,8-12.5,4.1-20.9c-4.2-9.1-16.9-10.4-25-6.7
		c-10.2,4.6-13.1,22.9-5.1,29.6c-6.6,5.4-11.9,12.6-16,20c-1.4,2.4-2.3,5.1-3.2,7.7c-0.6-3.7-2.8-7.2-6.6-9.1
		c-6.5-3.3-14.4-0.5-18,5.6c-2.9,4.9-1.8,10.8,1.8,14.6c-2.3,1.7-4.3,3.7-5.9,6.1c-2.8,4.3-3.1,9.8-3.2,14.7c0,3.7,3.6,5,6.2,4
		c-0.2,7.5-0.6,15-0.5,22.6c0,9.6,7,16.6,16.8,15c8.8-1.4,7.6-14.5,8-20.7c0.7-9,2.1-17.9,1.9-26.9c3.3-0.7,6.8-2.9,9.5-5.3
		c1.5-1.3,3-2.8,4.3-4.4c0.2,2.9,0.4,5.7,0.7,8.6c0.8,8.3,0.8,16.7,1.4,25c0.3,5.5-0.4,12.6,3.3,17.2c1.7,2.2,4.3,4,7.2,4
		c1.5,0,2.9-0.6,4-1.5c0.2-0.1,0.3-0.2,0.4-0.3c3.8,2.7,8.2,3.8,12.3,0.2c4.4-4,4.6-12.3,4.9-17.7c0.3-6.1-0.1-12.2-0.1-18.2
		c0-4.7-0.1-9.4-0.2-14.1c3,1,6.5,0.7,9.2-1.5C446.2,760.6,446.6,753.2,446.5,747.5z"/>
	<g>
		<g>
			<g>
				<circle class="st2" cx="417" cy="704.8" r="12.7"/>
				<path class="st2" d="M425.2,720.2c-0.4-0.3-0.9-0.4-1.4-0.6c-1.2-0.6-2.4-1.1-3.7-1.4l-3.2,3.2l-3.1-3.2c0,0,0,0,0,0
					c-1.6,0.4-3.2,1.1-4.6,2c-0.3,0.1-0.5,0.2-0.8,0.4c-9.6,5.9-15.3,18.1-22.4,33.6c-0.8,1.8-0.5,3.9,0.7,5.3
					c-3.9,3.4-13.5-2.2-14.3-2.4l-2,2l-2-2.1c0,0,0,0,0,0c-1.4,0.3-5.2,2.9-6.6,3.7c-0.1,0-0.3,0.1-0.4,0.2c-0.3,0.2-7,4.1-7,15.8
					c0,1.6,1.3,2.9,2.9,2.9c1.6,0,2.9-1.3,2.9-2.9c0-3.8,0.9-6.4,1.9-8.1V782c0,0.8,0.2,1.6,0.5,2.4c0,0.2,0,0.3,0,0.5l0,26.6
					c0,2.1,1.7,3.7,3.7,3.7c2.1,0,3.7-1.7,3.7-3.7l0-22.3c0.1,0,0.3,0,0.4,0c0,0,0.1,0,0.1,0l0,22.3c0,2.1,1.7,3.7,3.7,3.7
					c2.1,0,3.7-1.7,3.7-3.7l0-26.4c0.5-0.9,0.8-1.9,0.8-3v-14.8c1.2,0.4,2.4,0.7,3.7,0.7c2.8,0,5.9-1.2,9.5-4.6
					c0.8-0.7,1.1-1.7,0.9-2.7c0.9-0.5,1.6-1.2,2.1-2.2c3.2-6.9,6.1-13.1,9-18.1v17.1c0,1.3,0.3,2.6,0.7,3.7c0,0.3-0.1,0.5-0.1,0.8
					l0,47.2c0,3.2,2.6,5.8,5.8,5.8c3.2,0,5.8-2.6,5.8-5.8l0-40.5c0.2,0,0.5,0,0.7,0c0,0,0.1,0,0.1,0v40.5c0,3.2,2.6,5.8,5.8,5.8
					c0,0,0,0,0,0c3.2,0,5.8-2.6,5.8-5.8l0-46.9c0.8-1.4,1.2-3,1.2-4.8v-17.9c1.5,3.9,2,9,1.3,16.4c-0.3,2.7,1.7,5.1,4.4,5.4
					c0.2,0,0.3,0,0.5,0c2.5,0,4.6-1.9,4.9-4.4C443.4,734.6,434.8,726.1,425.2,720.2z"/>
				<circle class="st2" cx="370.5" cy="748.5" r="8.1"/>
			</g>
		</g>
	</g>
</g>
<g>
	<defs>
		<circle id="SVGID_1_" cx="163" cy="150.1" r="147.4"/>
	</defs>
	<clipPath id="SVGID_2_">
		<use xlink:href="#SVGID_1_"  style="overflow:visible;"/>
	</clipPath>
	<g class="st3">
		<path class="st4" d="M203.2,309.8c0,0-11.8,14.1-22.3,7c-10.5-7.2-2.4,7.6-2.4,7.6s8.8,13.2,23-1
			C220.2,304.6,203.2,309.8,203.2,309.8z"/>
		
			<linearGradient id="SVGID_3_" gradientUnits="userSpaceOnUse" x1="260.2218" y1="331.7675" x2="238.4676" y2="332.6932" gradientTransform="matrix(0.9918 0.1277 -0.1277 0.9918 -10.1073 -42.0259)">
			<stop  offset="0" style="stop-color:#FFFFFF"/>
			<stop  offset="1" style="stop-color:#895E3B"/>
		</linearGradient>
		<path class="st5" d="M203.2,309.8c0,0-11.8,14.1-22.3,7c-10.5-7.2-2.4,7.6-2.4,7.6s8.8,13.2,23-1
			C220.2,304.6,203.2,309.8,203.2,309.8z"/>
		<path class="st4" d="M178.8,177.5c7.9,17.8-2.1,39.4-22.3,48.3c-20.2,8.9-42.9,1.7-50.7-16.1c-7.8-17.8,2.1-39.4,22.3-48.3
			C148.3,152.6,171,159.8,178.8,177.5z"/>
		<path class="st4" d="M155.9,164.9c0,0,33.9-7.3,34.5-15.5c0,0,4.1-2.6,6,0.8c1.9,3.4-2.6,37.3-15,46.4
			C168.9,205.7,155.9,164.9,155.9,164.9z"/>
		<path class="st4" d="M109.5,215.1c0,0,13.5,158.2-19.2,195.1c0,0-7.7,20.5-2.3,38c5.4,17.5,80.5,0.1,96.6,12.4
			c16.1,12.3-27.2-81-18.9-97.6c8.4-16.7,38.1-32.4,12.9-100.1c-25.2-67.6-22.9-51.5-22.9-51.5l-45.8,0.6"/>
		<path class="st4" d="M131.9,317.3c0,0-18.7,15.5-30.8-2.5l9.4-4.4c0,0,14.5,9.1,22.4,0.8C140.8,302.9,131.9,317.3,131.9,317.3z"/>
		<path class="st4" d="M111.4,312.7c0,0,7.5-11.2,13.5-10.4c6,0.8-7.5-15.4-7.5-15.4s-22.5,20.5-17.2,28.2
			C105.4,322.9,111.4,312.7,111.4,312.7z"/>
		<path class="st4" d="M114.5,181.5c0,0-11,5.8-19.7,4.3c-8.7-1.6-13.5,17.9-34.4,13.8c-20.9-4.1-12.4,16.6-2.6,20.2
			c9.8,3.6,39.4-9.5,47.5-20.8c8-11.3,16.6-12.9,16.6-12.9L114.5,181.5z"/>
		<path class="st6" d="M187.2,157.2c-3.4-1.2,3.3-12.7,10.9-9.3c2,0.9,2.7,5.7,0.4,9.1C198.5,157.1,196,160.3,187.2,157.2z"/>
		<path class="st7" d="M103.4,201.1c0,0,9.8-13.1,14.7-13.7l-13.3,19.8C105.8,209.8,104,205.5,103.4,201.1z"/>
		<g>
			<path class="st8" d="M112.2,276.2c0,0-1.9,0.1-5.5,0.3c-3.6,0.3-8.8,0.8-15.5,1.6c-6.6,0.9-14.7,2.1-23.7,4.4
				c-4.5,1.2-9.2,2.6-14,4.5c-2.4,0.9-4.8,2.1-7.2,3.3c-2.3,1.3-4.7,2.8-6.8,4.6c-2.1,1.8-4,3.9-5.4,6.3c-0.3,0.6-0.6,1.3-0.9,1.9
				l-0.1,0.1c0,0.1,0-0.1,0,0l-0.1,0.3l-0.2,0.5l-0.1,0.3l0,0.2l0,0.4c-0.1,1.1,0.3,2.3,1.1,3.3c1.6,2.1,4.2,3.7,7,5
				c2.8,1.3,5.8,2.3,8.9,3.2c6.2,1.8,12.8,3.1,19.6,4.2c6.8,1.1,13.8,2,20.9,2.8c14.2,1.5,29,2.5,44.1,3.2
				c7.5,0.4,15.1,0.6,22.7,0.8c3.8,0.1,7.6,0.2,11.4,0.2l1.4,0l1.4,0l2.8-0.1l5.7-0.3c15.3-0.9,30.5-2.2,45.5-4
				c14.9-1.8,29.6-3.9,43.4-7.3c3.5-0.9,6.8-1.8,10.1-2.9c3.3-1.1,6.5-2.4,9.3-3.9c1.5-0.8,2.8-1.7,3.9-2.7c1.1-1,2-2.1,2.4-3.3
				c0.4-1.2,0.3-2.4-0.3-3.6c-0.6-1.2-1.6-2.4-2.6-3.5c-2.2-2-5-3.6-7.7-4.9c-2.8-1.3-5.7-2.4-8.6-3.4c-5.8-1.9-11.6-3.4-17.2-4.6
				c-11.2-2.4-21.6-3.9-30.9-5.1c-9.3-1.2-17.4-2-24-2.6c-6.7-0.6-11.9-1-15.5-1.2c-3.6-0.2-5.5-0.3-5.5-0.3s1.9,0,5.5,0.1
				c3.6,0.1,8.9,0.2,15.6,0.6c6.7,0.4,14.8,0.9,24.2,1.8c9.3,0.9,19.8,2.1,31.2,4.3c5.7,1.1,11.6,2.4,17.6,4.2c3,0.9,6,2,9,3.4
				c3,1.4,6,3,8.7,5.4c0.3,0.3,0.7,0.7,1,1l0.4,0.5l0.1,0.1c0,0,0.2,0.2,0.2,0.2l0.2,0.3c0.3,0.4,0.6,0.7,0.8,1.1l0.7,1.3
				c0.2,0.5,0.4,0.9,0.6,1.4c0.1,0.5,0.3,1,0.3,1.5c0.1,1.1,0,2.2-0.3,3.2c-0.6,2.1-2,3.6-3.4,4.9c-1.4,1.3-2.9,2.3-4.5,3.2
				c-3.2,1.8-6.5,3.1-9.9,4.3c-3.4,1.2-6.9,2.2-10.4,3.1c-7,1.8-14.3,3.3-21.6,4.5c-7.3,1.3-14.8,2.3-22.3,3.2
				c-15,1.8-30.4,3.2-45.7,4.2l-5.8,0.3l-2.9,0.1l-1.5,0l-1.5,0c-3.9,0-7.7-0.1-11.5-0.2c-7.7-0.2-15.3-0.5-22.8-0.9
				c-15.1-0.8-30-2-44.3-3.6c-7.2-0.8-14.2-1.8-21.1-3.1c-6.9-1.2-13.5-2.7-19.9-4.7c-3.2-1-6.3-2.1-9.3-3.6
				c-2.9-1.5-5.9-3.2-8.1-6.1c-1-1.5-1.7-3.4-1.5-5.3l0.1-0.7l0.1-0.4l0.1-0.3l0.2-0.5l0.1-0.3c0,0,0.1-0.2,0.1-0.2l0.1-0.1
				c0.4-0.7,0.7-1.5,1.1-2.2c1.6-2.8,3.8-5,6.1-6.9c0.6-0.5,1.2-0.9,1.8-1.3c0.6-0.4,1.2-0.8,1.8-1.2l0.9-0.6l0.9-0.5
				c0.6-0.3,1.2-0.7,1.9-1c2.5-1.2,5-2.4,7.5-3.2c5-1.8,9.8-3.1,14.4-4.1c9.2-2,17.3-3,24-3.7c6.7-0.7,12-0.9,15.6-1
				C110.3,276.2,112.2,276.2,112.2,276.2z"/>
		</g>
		<path class="st8" d="M291.2,288.6c0,0,17.7-10.3,27.7-5.3c10.1,5,9,10,9,10s-17.1-2.7-32.7,14c-15.6,16.7,0.8-6.4,0.8-6.4
			L291.2,288.6z"/>
		<g>
			<defs>
				<path id="SVGID_4_" d="M35.3,310.2c0,0,30.3,127.5,26.7,151.7l16.2-8l16,9.1l17.8-5.2l15.1,7l14.6-7.2l15.2,8l18.6-4.6l19.4,5.5
					l4.4-11.5l17.3,10.3l7.9-8l19.9,10.1l7.9-13l13.6,10.3c0,0,16.1-138.5,23.8-148.3C289.7,316.3,194.3,356.4,35.3,310.2z"/>
			</defs>
			<clipPath id="SVGID_5_">
				<use xlink:href="#SVGID_4_"  style="overflow:visible;"/>
			</clipPath>
			<g class="st9">
				<g>
					<path class="st8" d="M370,328.9c0,0-9.2,8.3-23,20.7c-6.9,6.2-15,13.4-23.7,21.1c-8.7,7.7-18,15.9-27.2,24.2
						c-9.3,8.2-18.6,16.4-27.3,24.1c-8.7,7.7-16.9,14.8-23.9,20.9c-14,12.2-23.4,20.3-23.4,20.3s9.2-8.3,23-20.7
						c6.9-6.2,15-13.4,23.7-21.1c8.7-7.7,18-15.9,27.2-24.2c9.3-8.2,18.6-16.4,27.3-24.1c8.7-7.7,16.9-14.8,23.9-20.9
						C360.6,337,370,328.9,370,328.9z"/>
				</g>
				<g>
					<path class="st8" d="M388.3,335.9c0,0-9.2,8.3-23,20.7c-6.9,6.2-15,13.4-23.7,21.1c-8.7,7.7-18,15.9-27.2,24.2
						c-9.3,8.2-18.6,16.4-27.3,24.1c-8.7,7.7-16.9,14.8-23.9,20.9c-14,12.2-23.4,20.3-23.4,20.3s9.2-8.3,23-20.7
						c6.9-6.2,15-13.4,23.7-21.1c8.7-7.7,18-15.9,27.2-24.2c9.3-8.2,18.6-16.4,27.3-24.1c8.7-7.7,16.9-14.8,23.9-20.9
						C379,344,388.3,335.9,388.3,335.9z"/>
				</g>
				<g>
					<path class="st8" d="M348,328.4c0,0-9.2,8.3-23,20.7c-6.9,6.2-15,13.4-23.7,21.1c-8.7,7.7-18,15.9-27.2,24.2
						c-9.3,8.2-18.6,16.4-27.3,24.1c-8.7,7.7-16.9,14.8-23.9,20.9c-14,12.2-23.4,20.3-23.4,20.3s9.2-8.3,23-20.7
						c6.9-6.2,15-13.4,23.7-21.1c8.7-7.7,18-15.9,27.2-24.2c9.3-8.2,18.6-16.4,27.3-24.1c8.7-7.7,16.9-14.8,23.9-20.9
						C338.6,336.5,348,328.4,348,328.4z"/>
				</g>
				<g>
					<path class="st8" d="M326,327.9c0,0-9.2,8.3-23,20.7c-6.9,6.2-15,13.4-23.7,21.1c-8.7,7.7-18,15.9-27.2,24.2
						c-9.3,8.2-18.6,16.4-27.3,24.1c-8.7,7.7-16.9,14.8-23.9,20.9c-14,12.2-23.4,20.3-23.4,20.3s9.2-8.3,23-20.7
						c6.9-6.2,15-13.4,23.7-21.1c8.7-7.7,18-15.9,27.2-24.2c9.3-8.2,18.6-16.4,27.3-24.1c8.7-7.7,16.9-14.8,23.9-20.9
						C316.7,336,326,327.9,326,327.9z"/>
				</g>
				<g>
					<path class="st8" d="M304.1,327.4c0,0-9.2,8.3-23,20.7c-6.9,6.2-15,13.4-23.7,21.1c-8.7,7.7-18,15.9-27.2,24.2
						c-9.3,8.2-18.6,16.4-27.3,24.1c-8.7,7.7-16.9,14.8-23.9,20.9c-14,12.2-23.4,20.3-23.4,20.3s9.2-8.3,23-20.7
						c6.9-6.2,15-13.4,23.7-21.1c8.7-7.7,18-15.9,27.2-24.2c9.3-8.2,18.6-16.4,27.3-24.1c8.7-7.7,16.9-14.8,23.9-20.9
						C294.7,335.5,304.1,327.4,304.1,327.4z"/>
				</g>
				<g>
					<path class="st8" d="M282.1,326.9c0,0-9.2,8.3-23,20.7c-6.9,6.2-15,13.4-23.7,21.1c-8.7,7.7-18,15.9-27.2,24.2
						c-9.3,8.2-18.6,16.4-27.3,24.1c-8.7,7.7-16.9,14.8-23.9,20.9c-14,12.2-23.4,20.3-23.4,20.3s9.2-8.3,23-20.7
						c6.9-6.2,15-13.4,23.7-21.1c8.7-7.7,18-15.9,27.2-24.2c9.3-8.2,18.6-16.4,27.3-24.1c8.7-7.7,16.9-14.8,23.9-20.9
						C272.8,335,282.1,326.9,282.1,326.9z"/>
				</g>
				<g>
					<path class="st8" d="M260.2,326.4c0,0-9.2,8.3-23,20.7c-6.9,6.2-15,13.4-23.7,21.1c-8.7,7.7-18,15.9-27.2,24.2
						c-9.3,8.2-18.6,16.4-27.3,24.1c-8.7,7.7-16.9,14.8-23.9,20.9c-14,12.2-23.4,20.3-23.4,20.3s9.2-8.3,23-20.7
						c6.9-6.2,15-13.4,23.7-21.1c8.7-7.7,18-15.9,27.2-24.2c9.3-8.2,18.6-16.4,27.3-24.1c8.7-7.7,16.9-14.8,23.9-20.9
						C250.8,334.5,260.2,326.4,260.2,326.4z"/>
				</g>
				<g>
					<path class="st8" d="M238.2,325.9c0,0-9.2,8.3-23,20.7c-6.9,6.2-15,13.4-23.7,21.1c-8.7,7.7-18,15.9-27.2,24.2
						c-9.3,8.2-18.6,16.4-27.3,24.1c-8.7,7.7-16.9,14.8-23.9,20.9c-14,12.2-23.4,20.3-23.4,20.3s9.2-8.3,23-20.7
						c6.9-6.2,15-13.4,23.7-21.1c8.7-7.7,18-15.9,27.2-24.2c9.3-8.2,18.6-16.4,27.3-24.1c8.7-7.7,16.9-14.8,23.9-20.9
						C228.9,334.1,238.2,325.9,238.2,325.9z"/>
				</g>
				<g>
					<path class="st8" d="M216.3,325.4c0,0-9.2,8.3-23,20.7c-6.9,6.2-15,13.4-23.7,21.1c-8.7,7.7-18,15.9-27.2,24.2
						c-9.3,8.2-18.6,16.4-27.3,24.1c-8.7,7.7-16.9,14.8-23.9,20.9c-14,12.2-23.4,20.3-23.4,20.3s9.2-8.3,23-20.7
						c6.9-6.2,15-13.4,23.7-21.1c8.7-7.7,18-15.9,27.2-24.2c9.3-8.2,18.6-16.4,27.3-24.1c8.7-7.7,16.9-14.8,23.9-20.9
						C206.9,333.6,216.3,325.4,216.3,325.4z"/>
				</g>
				<g>
					<path class="st8" d="M194.3,325c0,0-9.2,8.3-23,20.7c-6.9,6.2-15,13.4-23.7,21.1c-8.7,7.7-18,15.9-27.2,24.2
						c-9.3,8.2-18.6,16.4-27.3,24.1c-8.7,7.7-16.9,14.8-23.9,20.9c-14,12.2-23.4,20.3-23.4,20.3s9.2-8.3,23-20.7
						c6.9-6.2,15-13.4,23.7-21.1c8.7-7.7,18-15.9,27.2-24.2c9.3-8.2,18.6-16.4,27.3-24.1c8.7-7.7,16.9-14.8,23.9-20.9
						C184.9,333.1,194.3,325,194.3,325z"/>
				</g>
				<g>
					<path class="st8" d="M172.3,324.5c0,0-9.2,8.3-23,20.7c-6.9,6.2-15,13.4-23.7,21.1c-8.7,7.7-18,15.9-27.2,24.2
						c-9.3,8.2-18.6,16.4-27.3,24.1c-8.7,7.7-16.9,14.8-23.9,20.9c-14,12.2-23.4,20.3-23.4,20.3s9.2-8.3,23-20.7
						c6.9-6.2,15-13.4,23.7-21.1c8.7-7.7,18-15.9,27.2-24.2c9.3-8.2,18.6-16.4,27.3-24.1c8.7-7.7,16.9-14.8,23.9-20.9
						C163,332.6,172.3,324.5,172.3,324.5z"/>
				</g>
				<g>
					<path class="st8" d="M150.4,324c0,0-9.2,8.3-23,20.7c-6.9,6.2-15,13.4-23.7,21.1c-8.7,7.7-18,15.9-27.2,24.2
						c-9.3,8.2-18.6,16.4-27.3,24.1c-8.7,7.7-16.9,14.8-23.9,20.9c-14,12.2-23.4,20.3-23.4,20.3s9.2-8.3,23-20.7
						c6.9-6.2,15-13.4,23.7-21.1c8.7-7.7,18-15.9,27.2-24.2c9.3-8.2,18.6-16.4,27.3-24.1c8.7-7.7,16.9-14.8,23.9-20.9
						C141,332.1,150.4,324,150.4,324z"/>
				</g>
				<g>
					<path class="st8" d="M128.4,323.5c0,0-9.2,8.3-23,20.7c-6.9,6.2-15,13.4-23.7,21.1c-8.7,7.7-18,15.9-27.2,24.2
						c-9.3,8.2-18.6,16.4-27.3,24.1c-8.7,7.7-16.9,14.8-23.9,20.9c-14,12.2-23.4,20.3-23.4,20.3s9.2-8.3,23-20.7
						c6.9-6.2,15-13.4,23.7-21.1c8.7-7.7,18-15.9,27.2-24.2c9.3-8.2,18.6-16.4,27.3-24.1c8.7-7.7,16.9-14.8,23.9-20.9
						C119.1,331.6,128.4,323.5,128.4,323.5z"/>
				</g>
				<g>
					<path class="st8" d="M106.5,323c0,0-9.2,8.3-23,20.7c-6.9,6.2-15,13.4-23.7,21.1c-8.7,7.7-18,15.9-27.2,24.2
						c-9.3,8.2-18.6,16.4-27.3,24.1c-8.7,7.7-16.9,14.8-23.9,20.9c-14,12.2-23.4,20.3-23.4,20.3s9.2-8.3,23-20.7
						c6.9-6.2,15-13.4,23.7-21.1c8.7-7.7,18-15.9,27.2-24.2c9.3-8.2,18.6-16.4,27.3-24.1c8.7-7.7,16.9-14.8,23.9-20.9
						C97.1,331.1,106.5,323,106.5,323z"/>
				</g>
				<g>
					<path class="st8" d="M84.5,322.5c0,0-9.2,8.3-23,20.7c-6.9,6.2-15,13.4-23.7,21.1c-8.7,7.7-18,15.9-27.2,24.2
						c-9.3,8.2-18.6,16.4-27.3,24.1c-8.7,7.7-16.9,14.8-23.9,20.9c-14,12.2-23.4,20.3-23.4,20.3s9.2-8.3,23-20.7
						c6.9-6.2,15-13.4,23.7-21.1c8.7-7.7,18-15.9,27.2-24.2c9.3-8.2,18.6-16.4,27.3-24.1c8.7-7.7,16.9-14.8,23.9-20.9
						C75.2,330.7,84.5,322.5,84.5,322.5z"/>
				</g>
				<g>
					<path class="st8" d="M62.6,322c0,0-9.2,8.3-23,20.7c-6.9,6.2-15,13.4-23.7,21.1c-8.7,7.7-18,15.9-27.2,24.2
						c-9.3,8.2-18.6,16.4-27.3,24.1c-8.7,7.7-16.9,14.8-23.9,20.9c-14,12.2-23.4,20.3-23.4,20.3s9.2-8.3,23-20.7
						c6.9-6.2,15-13.4,23.7-21.1c8.7-7.7,18-15.9,27.2-24.2c9.3-8.2,18.6-16.4,27.3-24.1c8.7-7.7,16.9-14.8,23.9-20.9
						C53.2,330.2,62.6,322,62.6,322z"/>
				</g>
				<g>
					<path class="st8" d="M-27,316.4c0,0,10,8.5,25,21.3c7.5,6.4,16.2,13.9,25.5,21.9c9.3,8,19.2,16.6,29.2,25.2
						c9.9,8.6,19.8,17.2,29.1,25.3c9.3,8.1,17.9,15.6,25.3,22.1c14.8,13,24.6,21.7,24.6,21.7s-10-8.5-25-21.3
						c-7.5-6.4-16.2-13.9-25.5-21.9c-9.3-8-19.2-16.6-29.2-25.2c-9.9-8.6-19.8-17.2-29.1-25.3c-9.3-8.1-17.9-15.6-25.3-22.1
						C-17.1,325.1-27,316.4-27,316.4z"/>
				</g>
				<g>
					<path class="st8" d="M-44.8,322.7c0,0,10,8.5,25,21.3c7.5,6.4,16.2,13.9,25.5,21.9c9.3,8,19.2,16.6,29.2,25.2
						c9.9,8.6,19.8,17.2,29.1,25.3c9.3,8.1,17.9,15.6,25.3,22.1c14.8,13,24.6,21.7,24.6,21.7s-10-8.5-25-21.3
						c-7.5-6.4-16.2-13.9-25.5-21.9c-9.3-8-19.2-16.6-29.2-25.2c-9.9-8.6-19.8-17.2-29.1-25.3c-9.3-8.1-17.9-15.6-25.3-22.1
						C-35,331.4-44.8,322.7-44.8,322.7z"/>
				</g>
				<g>
					<path class="st8" d="M-5,316.8c0,0,10,8.5,25,21.3c7.5,6.4,16.2,13.9,25.5,21.9c9.3,8,19.2,16.6,29.2,25.2
						c9.9,8.6,19.8,17.2,29.1,25.3c9.3,8.1,17.9,15.6,25.3,22.1c14.8,13,24.6,21.7,24.6,21.7s-10-8.5-25-21.3
						c-7.5-6.4-16.2-13.9-25.5-21.9c-9.3-8-19.2-16.6-29.2-25.2c-9.9-8.6-19.8-17.2-29.1-25.3c-9.3-8.1-17.9-15.6-25.3-22.1
						C4.8,325.4-5,316.8-5,316.8z"/>
				</g>
				<g>
					<path class="st8" d="M16.9,317.2c0,0,10,8.5,25,21.3c7.5,6.4,16.2,13.9,25.5,21.9c9.3,8,19.2,16.6,29.2,25.2
						c9.9,8.6,19.8,17.2,29.1,25.3c9.3,8.1,17.9,15.6,25.3,22.1c14.8,13,24.6,21.7,24.6,21.7s-10-8.5-25-21.3
						c-7.5-6.4-16.2-13.9-25.5-21.9c-9.3-8-19.2-16.6-29.2-25.2c-9.9-8.6-19.8-17.2-29.1-25.3c-9.3-8.1-17.9-15.6-25.3-22.1
						C26.8,325.8,16.9,317.2,16.9,317.2z"/>
				</g>
				<g>
					<path class="st8" d="M38.9,317.5c0,0,10,8.5,25,21.3c7.5,6.4,16.2,13.9,25.5,21.9c9.3,8,19.2,16.6,29.2,25.2
						c9.9,8.6,19.8,17.2,29.1,25.3c9.3,8.1,17.9,15.6,25.3,22.1c14.8,13,24.6,21.7,24.6,21.7s-10-8.5-25-21.3
						c-7.5-6.4-16.2-13.9-25.5-21.9c-9.3-8-19.2-16.6-29.2-25.2c-9.9-8.6-19.8-17.2-29.1-25.3c-9.3-8.1-17.9-15.6-25.3-22.1
						C48.7,326.2,38.9,317.5,38.9,317.5z"/>
				</g>
				<g>
					<path class="st8" d="M60.8,317.9c0,0,10,8.5,25,21.3c7.5,6.4,16.2,13.9,25.5,21.9c9.3,8,19.2,16.6,29.2,25.2
						c9.9,8.6,19.8,17.2,29.1,25.3c9.3,8.1,17.9,15.6,25.3,22.1c14.8,13,24.6,21.7,24.6,21.7s-10-8.5-25-21.3
						c-7.5-6.4-16.2-13.9-25.5-21.9c-9.3-8-19.2-16.6-29.2-25.2c-9.9-8.6-19.8-17.2-29.1-25.3c-9.3-8.1-17.9-15.6-25.3-22.1
						C70.7,326.6,60.8,317.9,60.8,317.9z"/>
				</g>
				<g>
					<path class="st8" d="M82.8,318.3c0,0,10,8.5,25,21.3c7.5,6.4,16.2,13.9,25.5,21.9c9.3,8,19.2,16.6,29.2,25.2
						c9.9,8.6,19.8,17.2,29.1,25.3c9.3,8.1,17.9,15.6,25.3,22.1c14.8,13,24.6,21.7,24.6,21.7s-10-8.5-25-21.3
						c-7.5-6.4-16.2-13.9-25.5-21.9c-9.3-8-19.2-16.6-29.2-25.2c-9.9-8.6-19.8-17.2-29.1-25.3c-9.3-8.1-17.9-15.6-25.3-22.1
						C92.6,327,82.8,318.3,82.8,318.3z"/>
				</g>
				<g>
					<path class="st8" d="M104.7,318.7c0,0,10,8.5,25,21.3c7.5,6.4,16.2,13.9,25.5,21.9c9.3,8,19.2,16.6,29.2,25.2
						c9.9,8.6,19.8,17.2,29.1,25.3c9.3,8.1,17.9,15.6,25.3,22.1c14.8,13,24.6,21.7,24.6,21.7s-10-8.5-25-21.3
						c-7.5-6.4-16.2-13.9-25.5-21.9c-9.3-8-19.2-16.6-29.2-25.2c-9.9-8.6-19.8-17.2-29.1-25.3c-9.3-8.1-17.9-15.6-25.3-22.1
						C114.6,327.3,104.7,318.7,104.7,318.7z"/>
				</g>
				<g>
					<path class="st8" d="M126.7,319.1c0,0,10,8.5,25,21.3c7.5,6.4,16.2,13.9,25.5,21.9c9.3,8,19.2,16.6,29.2,25.2
						c9.9,8.6,19.8,17.2,29.1,25.3c9.3,8.1,17.9,15.6,25.3,22.1c14.8,13,24.6,21.7,24.6,21.7s-10-8.5-25-21.3
						c-7.5-6.4-16.2-13.9-25.5-21.9c-9.3-8-19.2-16.6-29.2-25.2c-9.9-8.6-19.8-17.2-29.1-25.3c-9.3-8.1-17.9-15.6-25.3-22.1
						C136.5,327.7,126.7,319.1,126.7,319.1z"/>
				</g>
				<g>
					<path class="st8" d="M148.6,319.4c0,0,10,8.5,25,21.3c7.5,6.4,16.2,13.9,25.5,21.9c9.3,8,19.2,16.6,29.2,25.2
						c9.9,8.6,19.8,17.2,29.1,25.3c9.3,8.1,17.9,15.6,25.3,22.1c14.8,13,24.6,21.7,24.6,21.7s-10-8.5-25-21.3
						c-7.5-6.4-16.2-13.9-25.5-21.9c-9.3-8-19.2-16.6-29.2-25.2c-9.9-8.6-19.8-17.2-29.1-25.3c-9.3-8.1-17.9-15.6-25.3-22.1
						C158.5,328.1,148.6,319.4,148.6,319.4z"/>
				</g>
				<g>
					<path class="st8" d="M170.6,319.8c0,0,10,8.5,25,21.3c7.5,6.4,16.2,13.9,25.5,21.9c9.3,8,19.2,16.6,29.2,25.2
						c9.9,8.6,19.8,17.2,29.1,25.3c9.3,8.1,17.9,15.6,25.3,22.1c14.8,13,24.6,21.7,24.6,21.7s-10-8.5-25-21.3
						c-7.5-6.4-16.2-13.9-25.5-21.9c-9.3-8-19.2-16.6-29.2-25.2c-9.9-8.6-19.8-17.2-29.1-25.3c-9.3-8.1-17.9-15.6-25.3-22.1
						C180.5,328.5,170.6,319.8,170.6,319.8z"/>
				</g>
				<g>
					<path class="st8" d="M192.6,320.2c0,0,10,8.5,25,21.3c7.5,6.4,16.2,13.9,25.5,21.9c9.3,8,19.2,16.6,29.2,25.2
						c9.9,8.6,19.8,17.2,29.1,25.3c9.3,8.1,17.9,15.6,25.3,22.1c14.8,13,24.6,21.7,24.6,21.7s-10-8.5-25-21.3
						c-7.5-6.4-16.2-13.9-25.5-21.9c-9.3-8-19.2-16.6-29.2-25.2c-9.9-8.6-19.8-17.2-29.1-25.3c-9.3-8.1-17.9-15.6-25.3-22.1
						C202.4,328.9,192.6,320.2,192.6,320.2z"/>
				</g>
				<g>
					<path class="st8" d="M214.5,320.6c0,0,10,8.5,25,21.3c7.5,6.4,16.2,13.9,25.5,21.9c9.3,8,19.2,16.6,29.2,25.2
						c9.9,8.6,19.8,17.2,29.1,25.3c9.3,8.1,17.9,15.6,25.3,22.1c14.8,13,24.6,21.7,24.6,21.7s-10-8.5-25-21.3
						c-7.5-6.4-16.2-13.9-25.5-21.9c-9.3-8-19.2-16.6-29.2-25.2c-9.9-8.6-19.8-17.2-29.1-25.3c-9.3-8.1-17.9-15.6-25.3-22.1
						C224.4,329.2,214.5,320.6,214.5,320.6z"/>
				</g>
				<g>
					<path class="st8" d="M236.5,321c0,0,10,8.5,25,21.3c7.5,6.4,16.2,13.9,25.5,21.9c9.3,8,19.2,16.6,29.2,25.2
						c9.9,8.6,19.8,17.2,29.1,25.3c9.3,8.1,17.9,15.6,25.3,22.1c14.8,13,24.6,21.7,24.6,21.7s-10-8.5-25-21.3
						c-7.5-6.4-16.2-13.9-25.5-21.9c-9.3-8-19.2-16.6-29.2-25.2c-9.9-8.6-19.8-17.2-29.1-25.3c-9.3-8.1-17.9-15.6-25.3-22.1
						C246.3,329.6,236.5,321,236.5,321z"/>
				</g>
				<g>
					<path class="st8" d="M258.4,321.3c0,0,10,8.5,25,21.3c7.5,6.4,16.2,13.9,25.5,21.9c9.3,8,19.2,16.6,29.2,25.2
						c9.9,8.6,19.8,17.2,29.1,25.3c9.3,8.1,17.9,15.6,25.3,22.1c14.8,13,24.6,21.7,24.6,21.7s-10-8.5-25-21.3
						c-7.5-6.4-16.2-13.9-25.5-21.9c-9.3-8-19.2-16.6-29.2-25.2c-9.9-8.6-19.8-17.2-29.1-25.3c-9.3-8.1-17.9-15.6-25.3-22.1
						C268.3,330,258.4,321.3,258.4,321.3z"/>
				</g>
				<g>
					<path class="st8" d="M280.4,321.7c0,0,10,8.5,25,21.3c7.5,6.4,16.2,13.9,25.5,21.9c9.3,8,19.2,16.6,29.2,25.2
						c9.9,8.6,19.8,17.2,29.1,25.3c9.3,8.1,17.9,15.6,25.3,22.1c14.8,13,24.6,21.7,24.6,21.7s-10-8.5-25-21.3
						c-7.5-6.4-16.2-13.9-25.5-21.9c-9.3-8-19.2-16.6-29.2-25.2c-9.9-8.6-19.8-17.2-29.1-25.3c-9.3-8.1-17.9-15.6-25.3-22.1
						C290.2,330.4,280.4,321.7,280.4,321.7z"/>
				</g>
			</g>
		</g>
		
			<ellipse transform="matrix(0.1277 -0.9918 0.9918 0.1277 -136.4148 485.3847)" class="st4" cx="207.7" cy="320.2" rx="12" ry="10"/>
		
			<ellipse transform="matrix(0.1276 -0.9918 0.9918 0.1276 -194.2361 418.9008)" class="st4" cx="141" cy="319.9" rx="13.4" ry="12.8"/>
		<path class="st7" d="M162.8,222.5c0,0-22.6,1.9-35.6-1.4c0,0,41.2,15,41.7,16.4C169.4,238.7,162.8,222.5,162.8,222.5z"/>
		<g>
			<path class="st10" d="M128.8,318.7c0,0-0.1,0.3-0.2,0.8c-0.1,0.2-0.1,0.6-0.2,0.9c0,0.3-0.1,0.7-0.1,1.1c0,0.2,0,0.4,0,0.7
				c0,0.2,0.1,0.5,0.1,0.7c0,0.5,0.2,0.9,0.3,1.4c0.2,0.5,0.4,1,0.6,1.4c0.2,0.5,0.6,0.9,0.9,1.4c0.3,0.4,0.7,0.9,1.1,1.3
				c0.4,0.4,0.8,0.8,1.2,1.1c0.4,0.3,0.8,0.7,1.2,1c0.4,0.3,0.8,0.6,1.1,0.8c0.7,0.5,1.3,0.9,1.8,1.1c0.5,0.2,0.7,0.4,0.7,0.4
				s-0.3,0-0.8-0.1c-0.3,0-0.6-0.1-0.9-0.2c-0.4-0.1-0.7-0.2-1.2-0.4c-0.2-0.1-0.4-0.2-0.7-0.3c-0.2-0.1-0.4-0.2-0.7-0.4
				c-0.5-0.2-0.9-0.6-1.4-0.9c-0.4-0.4-0.9-0.7-1.3-1.2c-0.4-0.4-0.8-0.9-1.2-1.4c-0.3-0.5-0.7-1-0.9-1.6c-0.3-0.5-0.4-1.1-0.6-1.7
				c-0.1-0.6-0.2-1.1-0.2-1.7c0-0.3,0-0.5,0-0.8c0-0.2,0.1-0.5,0.1-0.7c0.1-0.5,0.2-0.9,0.4-1.2c0.1-0.4,0.3-0.6,0.4-0.8
				C128.6,319,128.8,318.7,128.8,318.7z"/>
		</g>
		<path class="st11" d="M125.6,301.6l-9.9,3.4c-1,0.8,8.9,4.3,8.9,4.3L125.6,301.6z"/>
		<g>
			<path class="st10" d="M124.6,309.4c0,0,0.5-0.1,1.5-0.2c1-0.1,2.3-0.3,4-0.5c0.8-0.1,1.7-0.2,2.7-0.2c0.9-0.1,1.9-0.1,3-0.1
				c0.5,0,1,0,1.6,0.1c0.5,0,1.1,0,1.6,0.1c0.5,0.1,1.1,0.1,1.6,0.2l1.6,0.4c1.1,0.3,2.1,0.7,3.1,1.2l0.7,0.4l0.7,0.5
				c0.4,0.3,0.9,0.6,1.3,0.9c0.4,0.4,0.8,0.7,1.1,1c0.3,0.4,0.6,0.8,0.9,1.1c0.1,0.2,0.3,0.4,0.4,0.6c0.1,0.2,0.2,0.4,0.4,0.6
				c0.2,0.4,0.5,0.8,0.7,1.1c0.4,0.7,0.7,1.4,0.9,2.1c0.3,0.6,0.4,1.2,0.6,1.6c0.3,0.9,0.4,1.4,0.4,1.4s-0.2-0.5-0.6-1.4
				c-0.2-0.4-0.3-1-0.7-1.6c-0.3-0.6-0.6-1.3-1-2c-0.2-0.3-0.5-0.7-0.7-1.1c-0.1-0.2-0.2-0.4-0.4-0.6c-0.1-0.2-0.3-0.3-0.5-0.5
				c-0.3-0.3-0.6-0.7-0.9-1.1c-0.4-0.3-0.7-0.6-1.1-1c-0.4-0.4-0.8-0.6-1.2-0.9l-0.7-0.4L145,311c-0.9-0.5-2-0.8-3-1.1l-1.6-0.4
				c-0.5-0.1-1.1-0.2-1.6-0.2c-0.5-0.1-1.1-0.1-1.6-0.1c-0.5,0-1-0.1-1.6-0.1c-1,0-2,0-2.9,0c-0.9,0-1.8,0.1-2.6,0.1
				C126.8,309.3,124.6,309.4,124.6,309.4z"/>
		</g>
		<g>
			
				<ellipse transform="matrix(0.9635 -0.2678 0.2678 0.9635 -15.5106 61.9437)" class="st8" cx="219.3" cy="87.8" rx="53" ry="53.1"/>
			<g>
				<g>
					<g id="_x31_4_1_">
						<g>
							<path class="st12" d="M211.5,43.8c0.7-1.9-0.4-5-1.3-7.9c0-0.1-0.1-0.2-0.1-0.4c-1.7,0.3-3.3,0.7-5,1.1
								c-6.4,1.8-12.1,4.6-17.2,8.3c4.5,0.8,11.7,2.4,19.9,5.4C209.7,47.7,210.9,45.4,211.5,43.8z"/>
							<path class="st12" d="M245.5,65.8c-2.4,1-4.5,2-6.1,3.1c12.9,12.7,21.6,31,26.3,44.6c6.2-11.2,8.3-24.5,5.2-37.8
								C263,70,252.5,62.9,245.5,65.8z"/>
							<path class="st12" d="M190.3,67c5.7-3,10.6-7.6,14.3-12.1c-11.4-3.9-20.3-5.1-22-5.3c-8.4,8.1-14,18.8-15.7,30.4
								c5.3-4.1,11.5-7.1,17.5-10C186.3,69,188.3,68,190.3,67z"/>
							<path class="st12" d="M226,58.7c0.7,0.4,1.4,0.8,2.1,1.2c2.6,1.5,5,3.3,7.3,5.3c2.2-1.6,4.8-3,8.1-4.3
								c7.8-3.1,16.6,1.2,24.7,6.5c-4.3-10.2-11.5-18.5-20.3-24.2c-3.6,1.5-7.5,3.4-11.3,5.8C234.1,50.5,230.3,54,226,58.7z"/>
							<path class="st12" d="M226.6,87c0.1-7.7,1.1-13.5,4.9-18.1c-2-1.6-4-3.1-6.2-4.4c-1-0.6-2-1.2-2.9-1.7
								c-15.3,18.1-34.6,48.9-31.3,70c10.2,6.4,22.6,9.3,35.2,7.6c2-10,1.2-29,0.7-40.2C226.8,94.7,226.6,90,226.6,87z"/>
							<path class="st12" d="M202.1,81.6c4.9-7.9,10.3-15.3,15.5-21.4c-2.6-1.3-5.2-2.4-7.8-3.4c-4.2,5.4-10,11.3-17.1,14.9
								c-2,1-4,2-6,3c-7.6,3.7-14.9,7.3-20.4,12.7c0,4.8,0.6,9.7,1.9,14.5c3,10.9,9.2,20,17.3,26.6
								C185.1,112.8,193.9,94.8,202.1,81.6z"/>
							<path class="st12" d="M221.1,56.1c5-5.6,9.5-9.7,12.6-11.7c2.8-1.8,5.6-3.3,8.3-4.5c-8.1-3.9-17.3-5.7-26.6-5
								c1.2,3.5,2.4,7.4,1,10.9c-0.6,1.6-1.9,4-3.5,6.6C215.6,53.5,218.4,54.7,221.1,56.1z"/>
							<path class="st12" d="M231.9,87c0,2.9,0.1,7.5,0.4,12.9c0.7,15.8,1.1,29.9-0.4,39.4c0.5-0.1,1.1-0.3,1.7-0.4
								c11.9-3.3,21.7-10.4,28.5-19.7c-4.4-14.4-13.6-34-26.6-46.8C232.7,75.9,232,80.4,231.9,87z"/>
						</g>
					</g>
				</g>
			</g>
		</g>
		<g>
			<path class="st13" d="M196.6,157.5c0,0-0.2,0.9-0.7,2.5c-0.5,1.6-1.1,3.8-2.1,6.5c-1,2.7-2.2,5.7-3.8,8.9
				c-0.8,1.6-1.6,3.2-2.6,4.8c-0.9,1.6-1.9,3.2-3,4.8c-1.1,1.6-2.3,3-3.5,4.4c-1.3,1.4-2.6,2.6-4,3.7c-0.4,0.3-0.7,0.5-1,0.8
				c-0.4,0.2-0.7,0.5-1.1,0.7c-0.7,0.5-1.5,0.9-2.2,1.2c-0.7,0.4-1.5,0.6-2.2,0.9c-0.7,0.3-1.5,0.4-2.1,0.6
				c-1.4,0.3-2.7,0.5-3.9,0.5c-0.3,0-0.6,0-0.8,0c-0.3,0-0.5,0-0.8-0.1c-0.5,0-1-0.1-1.4-0.1c-0.8-0.1-1.4-0.3-1.9-0.4
				c-0.4-0.1-0.7-0.1-0.7-0.1s0.2,0,0.7,0.1c0.4,0.1,1.1,0.2,1.9,0.3c0.4,0,0.9,0,1.4,0.1c0.2,0,0.5,0,0.8,0c0.3,0,0.5,0,0.8-0.1
				c1.1,0,2.4-0.3,3.8-0.6c0.7-0.2,1.4-0.4,2.1-0.7c0.7-0.3,1.4-0.6,2.1-1c0.7-0.4,1.4-0.8,2.1-1.3c0.3-0.2,0.7-0.5,1.1-0.7
				c0.3-0.3,0.7-0.5,1-0.8c1.4-1.1,2.7-2.4,3.9-3.7c1.2-1.4,2.4-2.8,3.5-4.4c1.1-1.5,2.1-3.1,3.1-4.7c0.9-1.6,1.8-3.2,2.6-4.8
				c0.8-1.6,1.5-3.1,2.2-4.6c0.7-1.5,1.2-2.9,1.8-4.2c1-2.6,1.8-4.8,2.4-6.4C196.4,158.4,196.6,157.5,196.6,157.5z"/>
		</g>
		<g>
			<path class="st13" d="M150.8,173.6c0,0-0.9,0-2.1,0.3c-0.3,0.1-0.6,0.2-1,0.3c-0.3,0.1-0.7,0.3-1,0.5c-0.4,0.2-0.6,0.4-1,0.6
				c-0.3,0.3-0.6,0.5-0.9,0.8c-0.3,0.3-0.6,0.6-0.8,0.9c-0.2,0.3-0.5,0.6-0.7,1c-0.2,0.4-0.4,0.7-0.6,1c-0.1,0.3-0.3,0.6-0.4,0.9
				c-0.3,0.6-0.4,1.1-0.6,1.5c-0.2,0.4-0.2,0.6-0.2,0.6s0-0.2,0-0.6c0.1-0.4,0.1-0.9,0.2-1.6c0.1-0.3,0.2-0.7,0.3-1
				c0.1-0.4,0.3-0.7,0.5-1.1c0.2-0.4,0.4-0.8,0.6-1.1c0.2-0.4,0.6-0.7,0.8-1.1c0.3-0.3,0.7-0.6,1-0.9c0.4-0.2,0.8-0.5,1.2-0.7
				c0.4-0.2,0.8-0.3,1.2-0.4c0.4-0.1,0.8-0.1,1.1-0.2c0.7-0.1,1.2,0.1,1.6,0.1C150.6,173.5,150.8,173.6,150.8,173.6z"/>
		</g>
		<g>
			<path class="st13" d="M157.1,163.4c0,0-0.1-0.7,0.3-1.7c0.1-0.2,0.2-0.5,0.4-0.7c0.2-0.3,0.3-0.5,0.6-0.7
				c0.2-0.2,0.5-0.5,0.8-0.7c0.3-0.2,0.6-0.4,0.9-0.5c0.3-0.1,0.6-0.3,1-0.3c0.3-0.1,0.6-0.2,1-0.2c0.3,0,0.6-0.1,0.9-0.1
				c0.3,0,0.6,0,0.8,0c0.5,0,0.9,0.1,1.2,0.2c0.3,0.1,0.4,0.1,0.4,0.1s-0.2,0-0.5,0c-0.3,0-0.7,0-1.2,0.1c-0.2,0-0.5,0.1-0.8,0.1
				c-0.3,0-0.6,0.1-0.8,0.2c-0.3,0-0.6,0.1-0.9,0.2c-0.3,0.1-0.6,0.2-0.9,0.3c-0.3,0.1-0.5,0.3-0.8,0.4c-0.2,0.2-0.5,0.3-0.7,0.5
				c-0.2,0.2-0.4,0.4-0.6,0.6c-0.2,0.2-0.3,0.4-0.4,0.6c-0.2,0.4-0.4,0.8-0.5,1C157.2,163.2,157.1,163.4,157.1,163.4z"/>
		</g>
		<g>
			<path class="st13" d="M134.8,162.2c0,0-0.2,0-0.6,0c-0.4,0-0.9,0.1-1.5,0.4c-0.3,0.1-0.6,0.3-0.9,0.5c-0.3,0.2-0.6,0.5-0.8,0.8
				c-0.3,0.3-0.5,0.6-0.8,0.9c-0.2,0.3-0.4,0.7-0.7,1.1c-0.2,0.4-0.4,0.8-0.6,1.1c-0.2,0.4-0.3,0.8-0.5,1.1
				c-0.3,0.7-0.5,1.5-0.7,2.1c-0.4,1.2-0.6,2.1-0.6,2.1s0-0.2,0.1-0.6c0.1-0.4,0.2-0.9,0.3-1.5c0.2-0.6,0.3-1.4,0.6-2.1
				c0.2-0.4,0.3-0.8,0.5-1.2c0.2-0.4,0.4-0.8,0.6-1.2c0.2-0.4,0.5-0.7,0.7-1.1c0.3-0.3,0.5-0.7,0.8-1c0.3-0.3,0.6-0.5,0.9-0.8
				c0.3-0.2,0.6-0.4,0.9-0.5c0.6-0.3,1.2-0.3,1.5-0.3C134.5,162.2,134.8,162.2,134.8,162.2z"/>
		</g>
		<g>
			<path class="st13" d="M146.3,155c0,0,0.2-0.7,0.8-1.5c0.2-0.2,0.3-0.4,0.6-0.6c0.2-0.2,0.5-0.4,0.7-0.6c0.3-0.2,0.6-0.4,0.9-0.5
				c0.3-0.2,0.7-0.2,1-0.3c0.4,0,0.7,0,1.1,0c0.3,0.1,0.7,0.1,1,0.3c0.3,0.1,0.6,0.2,0.9,0.4c0.3,0.2,0.5,0.3,0.7,0.5
				c0.5,0.3,0.7,0.6,1,0.8c0.2,0.2,0.4,0.3,0.4,0.3s-0.1-0.1-0.4-0.3c-0.3-0.2-0.6-0.4-1.1-0.7c-0.2-0.1-0.5-0.3-0.7-0.4
				c-0.3-0.1-0.6-0.2-0.9-0.3c-0.3-0.1-0.6-0.1-0.9-0.2c-0.3,0-0.7,0-1,0c-0.3,0.1-0.7,0.1-1,0.2c-0.3,0.1-0.6,0.3-0.9,0.4
				c-0.2,0.2-0.5,0.3-0.7,0.6c-0.2,0.2-0.4,0.4-0.6,0.6C146.7,154.4,146.3,155,146.3,155z"/>
		</g>
	</g>
</g>
</svg>
