<?xml version="1.0" encoding="utf-8"?>
<!-- Generator: Adobe Illustrator 19.2.0, SVG Export Plug-In . SVG Version: 6.00 Build 0)  -->
<svg version="1.1" id="Layer_1" xmlns="http://www.w3.org/2000/svg" xmlns:xlink="http://www.w3.org/1999/xlink" x="0px" y="0px"
	 viewBox="0 0 336.2 310.2" style="enable-background:new 0 0 336.2 310.2;" xml:space="preserve">
<style type="text/css">
	.st0{fill:#F2F2F2;}
	.st1{fill:#FFFFFF;stroke:#929497;stroke-miterlimit:10;}
	.st2{fill:#5D5CA7;}
	.st3{clip-path:url(#SVGID_2_);}
	.st4{fill:#E4A2AF;}
	.st5{opacity:0.3;fill:url(#SVGID_3_);}
	.st6{opacity:0.3;fill:url(#SVGID_4_);}
	.st7{opacity:0.5;fill:url(#SVGID_5_);}
	.st8{opacity:0.5;fill:url(#SVGID_6_);}
	.st9{opacity:0.5;fill:url(#SVGID_7_);}
	.st10{fill:#6C1B1D;}
	.st11{fill:#F1F1F2;}
	.st12{fill:#EE4036;}
	.st13{opacity:0.5;fill:#6C1B1D;}
	.st14{fill:none;stroke:#6C1B1D;stroke-width:1.1914;stroke-miterlimit:10;}
</style>
<circle class="st0" cx="163" cy="150" r="147.4"/>
<g>
	<path class="st1" d="M446.5,747.5c-0.3-12.4-6.9-24.6-17.3-30.7c5.8-5.4,8-12.5,4.1-20.9c-4.2-9.1-16.9-10.4-25-6.7
		c-10.2,4.6-13.1,22.9-5.1,29.6c-6.6,5.4-11.9,12.6-16,20c-1.4,2.4-2.3,5.1-3.2,7.7c-0.6-3.7-2.8-7.2-6.6-9.1
		c-6.5-3.3-14.4-0.5-18,5.6c-2.9,4.9-1.8,10.8,1.8,14.6c-2.3,1.7-4.3,3.7-5.9,6.1c-2.8,4.3-3.1,9.8-3.2,14.7c0,3.7,3.6,5,6.2,4
		c-0.2,7.5-0.6,15-0.5,22.6c0,9.6,7,16.6,16.8,15c8.8-1.4,7.6-14.5,8-20.7c0.7-9,2.1-17.9,1.9-26.9c3.3-0.7,6.8-2.9,9.5-5.3
		c1.5-1.3,3-2.8,4.3-4.4c0.2,2.9,0.4,5.7,0.7,8.6c0.8,8.3,0.8,16.7,1.4,25c0.3,5.5-0.4,12.6,3.3,17.2c1.7,2.2,4.3,4,7.2,4
		c1.5,0,2.9-0.6,4-1.5c0.2-0.1,0.3-0.2,0.4-0.3c3.8,2.7,8.2,3.8,12.3,0.2c4.4-4,4.6-12.3,4.9-17.7c0.3-6.1-0.1-12.2-0.1-18.2
		c0-4.7-0.1-9.4-0.2-14.1c3,1,6.5,0.7,9.2-1.5C446.2,760.6,446.6,753.2,446.5,747.5z"/>
	<g>
		<g>
			<g>
				<circle class="st2" cx="417" cy="704.8" r="12.7"/>
				<path class="st2" d="M425.2,720.2c-0.4-0.3-0.9-0.4-1.4-0.6c-1.2-0.6-2.4-1.1-3.7-1.4l-3.2,3.2l-3.1-3.2c0,0,0,0,0,0
					c-1.6,0.4-3.2,1.1-4.6,2c-0.3,0.1-0.5,0.2-0.8,0.4c-9.6,5.9-15.3,18.1-22.4,33.6c-0.8,1.8-0.5,3.9,0.7,5.3
					c-3.9,3.4-13.5-2.2-14.3-2.4l-2,2l-2-2.1c0,0,0,0,0,0c-1.4,0.3-5.2,2.9-6.6,3.7c-0.1,0-0.3,0.1-0.4,0.2c-0.3,0.2-7,4.1-7,15.8
					c0,1.6,1.3,2.9,2.9,2.9c1.6,0,2.9-1.3,2.9-2.9c0-3.8,0.9-6.4,1.9-8.1V782c0,0.8,0.2,1.6,0.5,2.4c0,0.2,0,0.3,0,0.5l0,26.6
					c0,2.1,1.7,3.7,3.7,3.7c2.1,0,3.7-1.7,3.7-3.7l0-22.3c0.1,0,0.3,0,0.4,0c0,0,0.1,0,0.1,0l0,22.3c0,2.1,1.7,3.7,3.7,3.7
					c2.1,0,3.7-1.7,3.7-3.7l0-26.4c0.5-0.9,0.8-1.9,0.8-3v-14.8c1.2,0.4,2.4,0.7,3.7,0.7c2.8,0,5.9-1.2,9.5-4.6
					c0.8-0.7,1.1-1.7,0.9-2.7c0.9-0.5,1.6-1.2,2.1-2.2c3.2-6.9,6.1-13.1,9-18.1v17.1c0,1.3,0.3,2.6,0.7,3.7c0,0.3-0.1,0.5-0.1,0.8
					l0,47.2c0,3.2,2.6,5.8,5.8,5.8c3.2,0,5.8-2.6,5.8-5.8l0-40.5c0.2,0,0.5,0,0.7,0c0,0,0.1,0,0.1,0v40.5c0,3.2,2.6,5.8,5.8,5.8
					c0,0,0,0,0,0c3.2,0,5.8-2.6,5.8-5.8l0-46.9c0.8-1.4,1.2-3,1.2-4.8v-17.9c1.5,3.9,2,9,1.3,16.4c-0.3,2.7,1.7,5.1,4.4,5.4
					c0.2,0,0.3,0,0.5,0c2.5,0,4.6-1.9,4.9-4.4C443.4,734.6,434.8,726.1,425.2,720.2z"/>
				<circle class="st2" cx="370.5" cy="748.5" r="8.1"/>
			</g>
		</g>
	</g>
</g>
<g>
	<defs>
		<circle id="SVGID_1_" cx="163" cy="150.1" r="147.4"/>
	</defs>
	<clipPath id="SVGID_2_">
		<use xlink:href="#SVGID_1_"  style="overflow:visible;"/>
	</clipPath>
	<g class="st3">
		<path class="st4" d="M162.1,123.4c0,0-23.7,8-31.1,17.3c-7.5,9.3-36.5,40.4-58.7,39.2c-22.2-1.2,48.8,8.7,59-10.5
			C141.4,150.2,158.3,124.4,162.1,123.4z"/>
		<path class="st4" d="M177.4,115c0,0-22-8.9-33.1-6.9c-11.2,2.1-51.5,6.4-66.6-8.2c-15.1-14.6,29.4,36.5,48.8,29
			C145.7,121.5,174.1,113.3,177.4,115z"/>
		
			<linearGradient id="SVGID_3_" gradientUnits="userSpaceOnUse" x1="138.9823" y1="197.591" x2="171.0415" y2="151.6579" gradientTransform="matrix(0.9968 7.990000e-002 -7.990000e-002 0.9968 -19.8819 -37.2217)">
			<stop  offset="0" style="stop-color:#FFFFFF"/>
			<stop  offset="1" style="stop-color:#6C1B1D"/>
		</linearGradient>
		<path class="st5" d="M162.1,123.4c0,0-23.7,8-31.1,17.3c-7.5,9.3-36.5,40.4-58.7,39.2c-22.2-1.2,48.8,8.7,59-10.5
			C141.4,150.2,158.3,124.4,162.1,123.4z"/>
		
			<linearGradient id="SVGID_4_" gradientUnits="userSpaceOnUse" x1="99.3182" y1="139.9777" x2="206.5908" y2="143.0608" gradientTransform="matrix(0.9968 7.990000e-002 -7.990000e-002 0.9968 -19.8819 -37.2217)">
			<stop  offset="0" style="stop-color:#FFFFFF"/>
			<stop  offset="1" style="stop-color:#6C1B1D"/>
		</linearGradient>
		<path class="st6" d="M177.4,115c0,0-22-8.9-33.1-6.9c-11.2,2.1-51.5,6.4-66.6-8.2c-15.1-14.6,29.4,36.5,48.8,29
			C145.7,121.5,174.1,113.3,177.4,115z"/>
		<path class="st4" d="M111.4,259.4c0,0-7.7-13.1-1.1-17.2c6.6-4.1,8.9-6.2,5.8-9c-3-2.8,18.9,9.9,14.4,14.5
			C126,252.2,111.4,259.4,111.4,259.4z"/>
		
			<linearGradient id="SVGID_5_" gradientUnits="userSpaceOnUse" x1="142.3564" y1="255.2846" x2="173.1787" y2="286.4139" gradientTransform="matrix(0.9968 7.990000e-002 -7.990000e-002 0.9968 -19.8819 -37.2217)">
			<stop  offset="0" style="stop-color:#FFFFFF"/>
			<stop  offset="1" style="stop-color:#6C1B1D"/>
		</linearGradient>
		<path class="st7" d="M111.4,259.4c0,0-7.7-13.1-1.1-17.2c6.6-4.1,8.9-6.2,5.8-9c-3-2.8,18.9,9.9,14.4,14.5
			C126,252.2,111.4,259.4,111.4,259.4z"/>
		<path class="st4" d="M214.4,185.1c0,0,25.3,26.4,31.3,27.1c6,0.7-0.9,10.9-0.9,10.9s-24.6-6.7-31.7-21.2
			C205.9,187.4,214.4,185.1,214.4,185.1z"/>
		<path class="st4" d="M245.6,212.2c0,0,18.2-7.6,21-19.4c2.8-11.8,7.9,2.1,7.9,2.1s-18.5,33.3-29.8,28.2
			C233,217.7,245.6,212.2,245.6,212.2z"/>
		<path class="st4" d="M282.9,188c-1.2,2.9-6.2,3.5-11.3,1.4c-5-2.1-8.2-6.1-7-9c1.2-2.9,6.2-3.5,11.3-1.4
			C281,181.1,284.1,185.1,282.9,188z"/>
		<path class="st4" d="M270.6,186.3c-0.2,0.8-2.2,0.9-4.3,0.2c-2.1-0.7-3.7-1.8-3.4-2.6c0.2-0.8,2.2-0.9,4.3-0.2
			C269.3,184.3,270.8,185.5,270.6,186.3z"/>
		<path class="st4" d="M266.6,186.6c0,0,0.8,4.4-0.1,6.7c-0.8,2.2,5.6,3.5,5.6,3.5s16.7-4.2,8.1-15.2L266.6,186.6z"/>
		
			<linearGradient id="SVGID_6_" gradientUnits="userSpaceOnUse" x1="315.0466" y1="198.4636" x2="262.6414" y2="224.6661" gradientTransform="matrix(0.9968 7.990000e-002 -7.990000e-002 0.9968 -19.8819 -37.2217)">
			<stop  offset="0" style="stop-color:#FFFFFF"/>
			<stop  offset="1" style="stop-color:#6C1B1D"/>
		</linearGradient>
		<path class="st8" d="M280.2,182C280.2,181.9,280.2,181.9,280.2,182L280.2,182c-1.2-1-2.6-2-4.3-2.6c-5-2.1-10.1-1.4-11.3,1.4
			c-0.4,0.9-0.3,1.8,0.1,2.8c-1,0-1.8,0.2-1.9,0.6c-0.2,0.8,1.3,1.9,3.4,2.6c0.1,0,0.2,0,0.3,0.1l0,0c0,0,0.7,3.9,0,6.2
			c-2.9,11.8-21,19.3-21,19.3c-6-0.7-31.3-27.1-31.3-27.1s-8.5,2.3-1.3,16.7c7.2,14.5,31.7,21.2,31.7,21.2
			c9.9,4.5,25.2-20.4,28.9-26.8c2.7-1,8.2-3.4,8.9-7.8c0.1-0.2,0.2-0.3,0.3-0.5C283.7,186.4,282.6,184,280.2,182z"/>
		<path class="st4" d="M174.5,334.4c8.7,14.3,2.6,41.9,16.2,47c13.7,5.2,28.4-41.5,22.8-59.9c-5.6-18.4-41.2,9-41.2,9"/>
		<path class="st4" d="M182.8,371.7c0,0-28.9,3.4-41.1,36.2l1.6,7.7l6.1-1.2c0,0,28.5-31.7,43.5-32.5L182.8,371.7z"/>
		<path class="st4" d="M163,457.4c-0.4,4.5-3.3,8-6.4,7.7c-3.1-0.3-5.3-4.2-4.9-8.7c0.4-4.5,3.3-8,6.4-7.7
			C161.2,448.9,163.4,452.8,163,457.4z"/>
		<path class="st4" d="M157.2,458.5c-0.4,4.5-3.3,8-6.4,7.7c-3.1-0.3-5.3-4.2-4.9-8.7c0.4-4.5,3.3-8,6.4-7.7
			C155.4,450,157.6,453.9,157.2,458.5z"/>
		<path class="st4" d="M151.3,459.6c-0.4,4.5-3.3,8-6.4,7.7c-3.1-0.3-5.3-4.2-4.9-8.7c0.4-4.5,3.3-8,6.4-7.7
			C149.6,451.2,151.8,455.1,151.3,459.6z"/>
		<path class="st4" d="M145.5,460.8c-0.4,4.5-3.3,8-6.4,7.7c-3.1-0.3-5.3-4.2-4.9-8.7c0.4-4.5,3.3-8,6.4-7.7
			C143.7,452.3,145.9,456.2,145.5,460.8z"/>
		<path class="st4" d="M159,454.3c0,0-11.5-33.6-9.9-38.3c1.6-4.7-2.8-5.8-4-7.2c-2.2-2.6-0.7-6.2-11-2c-12,5,2.2,49.6,2.2,49.6
			L159,454.3z"/>
		
			<linearGradient id="SVGID_7_" gradientUnits="userSpaceOnUse" x1="189.873" y1="501.4175" x2="241.6595" y2="353.4557" gradientTransform="matrix(0.9968 7.990000e-002 -7.990000e-002 0.9968 -19.8819 -37.2217)">
			<stop  offset="0" style="stop-color:#FFFFFF"/>
			<stop  offset="1" style="stop-color:#6C1B1D"/>
		</linearGradient>
		<path class="st9" d="M213.5,321.5c-5.6-18.4-41.2,9-41.2,9l2.2,3.9c6.1,10,4.9,26.6,8.4,37.4l0,0c0,0-27.3,3.3-40,33.7
			c-1.1-0.8-3.3-0.8-8.6,1.4c-10.6,4.4-0.8,39.6,1.7,47.9c-0.9,1.3-1.5,3-1.7,5c-0.4,4.5,1.8,8.5,4.9,8.7c1.5,0.1,2.9-0.6,4-1.8
			c0.6,0.4,1.2,0.6,1.8,0.7c1.5,0.1,2.9-0.6,4-1.8c0.6,0.4,1.2,0.6,1.8,0.7c1.5,0.1,2.9-0.6,4-1.8c0.6,0.4,1.2,0.6,1.8,0.7
			c3.1,0.3,6-3.1,6.4-7.7c0.4-4.5-1.8-8.5-4.9-8.8c-0.3,0-0.7,0-1,0c-3.2-9.8-9.2-29.1-8-32.6c0.2-0.7,0.3-1.2,0.3-1.8
			c0.6-0.7,28.6-31.6,43.5-32.4l-0.1-0.1C205.9,381.7,218.8,338.9,213.5,321.5z"/>
		<path class="st4" d="M227,137.1c3.1,17.1-4.3,27.3-26.5,35.3c-20.3,7.4-46.7-4.4-49.5-21.9c-2.8-17.1,6.4-33.5,27.7-38.3
			C201.7,107,223.8,119.9,227,137.1z"/>
		<path class="st4" d="M177.3,170.3c0,0,5.7,48.2-8.1,58.7c-13.8,10.5-79.7,9.5-61,70.7c19.2,62.8,92.9,37,112.3,15.6
			c22.1-24.4,27.9-66.6-14.4-146.7L177.3,170.3z"/>
		<path class="st4" d="M109.2,302.9c0,0,21.5,75.6,36.2,82.8c14.7,7.2,20.6-25.5,16.2-46.6c-4.3-21.1-53.5-39.4-53.5-39.4"/>
		<path class="st4" d="M134.4,371.2c0,0-34.4-8.2-57.8,23.4l-0.7,8.8l6.9,0.6c0,0,49-21.1,65.4-17.2L134.4,371.2z"/>
		<path class="st4" d="M101.3,446.3c-0.3,5.1-3.3,9.1-6.8,8.9c-3.5-0.2-6.2-4.5-5.9-9.6c0.2-5.1,3.3-9.1,6.8-8.9
			C98.9,436.9,101.6,441.2,101.3,446.3z"/>
		<path class="st4" d="M94.9,447.8c-0.2,5.1-3.3,9.1-6.8,8.9c-3.5-0.2-6.2-4.4-6-9.6c0.2-5.1,3.3-9.1,6.8-8.9
			C92.4,438.5,95.1,442.7,94.9,447.8z"/>
		<path class="st4" d="M88.4,449.4c-0.2,5.1-3.3,9.1-6.8,8.9c-3.5-0.2-6.2-4.5-6-9.6c0.2-5.1,3.3-9.1,6.8-8.9
			C86,440,88.6,444.3,88.4,449.4z"/>
		<path class="st4" d="M81.9,451c-0.2,5.1-3.3,9.1-6.8,8.9c-3.5-0.2-6.2-4.5-6-9.6c0.2-5.1,3.3-9.1,6.8-8.9
			C79.5,441.6,82.1,445.9,81.9,451z"/>
		<path class="st4" d="M96.7,443.1c0,0-13.9-34.5-12.3-39.9c1.6-5.3-3.5-7.3-3.5-7.3s-3.5-10.6-14.4-4.8c-12.9,6.8,5,55.5,5,55.5
			L96.7,443.1z"/>
		<path class="st4" d="M178.7,184.8c0,0-29.4,38-34.6,38.9c-5.2,1,4.3,8.7,4.3,8.7s24.8-13,32.6-28.6
			C188.7,188.2,178.7,184.8,178.7,184.8z"/>
		<path class="st4" d="M144,223.7c0,0-43.2-13.6-48.2-17.8c-4.6-3.9-4.4,3.4-4.4,3.4s49.7,36.1,59.6,20.5
			C162.7,211.4,144,223.7,144,223.7z"/>
		
			<ellipse transform="matrix(0.613 -0.7901 0.7901 0.613 -125.5895 143.0093)" class="st4" cx="83.2" cy="199.7" rx="14.3" ry="7.9"/>
		
			<ellipse transform="matrix(0.8243 -0.5662 0.5662 0.8243 -94.4567 88.0792)" class="st4" cx="94.7" cy="196.2" rx="5.3" ry="2.4"/>
		<path class="st4" d="M80.1,209.8c0,0,11.6-0.3,13.4,1c1.8,1.3,3.6-4,3.6-4l-5-11.5L80.1,209.8z"/>
		<g>
			<path class="st10" d="M264.7,183.3c0,0,0.8,0.6,2,1.5c0.6,0.4,1.3,0.9,2.1,1.4c0.4,0.2,0.8,0.5,1.2,0.7c0.4,0.2,0.9,0.4,1.3,0.6
				c0.4,0.2,0.9,0.4,1.4,0.6c0.5,0.1,0.9,0.3,1.4,0.4c0.5,0.1,0.9,0.2,1.3,0.3c0.4,0,0.8,0.1,1.2,0.1c0.4,0,0.7,0,1,0
				c0.3,0,0.6,0,0.8-0.1c0.4,0,0.7-0.1,0.7-0.1s-0.2,0-0.7,0.1c-0.2,0-0.5,0.1-0.8,0.1c-0.3,0-0.6,0-1,0c-0.4,0-0.8-0.1-1.2-0.1
				c-0.4,0-0.9-0.2-1.3-0.2c-0.5-0.1-0.9-0.3-1.4-0.4c-0.5-0.2-0.9-0.3-1.4-0.5c-0.4-0.2-0.9-0.4-1.3-0.7c-0.4-0.2-0.9-0.5-1.3-0.7
				c-0.8-0.5-1.5-1-2.1-1.4C265.4,184,264.7,183.3,264.7,183.3z"/>
		</g>
		<g>
			<path class="st10" d="M192.4,130.8c0,0-0.1-0.3-0.4-0.7c-0.1-0.2-0.3-0.5-0.5-0.7c-0.2-0.3-0.5-0.5-0.8-0.8
				c-0.3-0.3-0.7-0.5-1.1-0.7c-0.2-0.1-0.4-0.2-0.7-0.3c-0.2-0.1-0.5-0.2-0.7-0.2c-0.3,0-0.5-0.1-0.8-0.1c-0.3,0-0.5,0-0.8,0
				c-0.5,0-1.1,0.1-1.7,0.2c-0.6,0.1-1.1,0.3-1.6,0.4c-0.5,0.1-1,0.4-1.5,0.6c-1,0.4-1.9,0.9-2.7,1.2c-1.5,0.8-2.5,1.4-2.5,1.4
				s0.2-0.2,0.6-0.5c0.4-0.3,1-0.7,1.7-1.2c0.4-0.2,0.8-0.5,1.2-0.7c0.4-0.3,0.9-0.5,1.4-0.7c0.5-0.2,1-0.5,1.6-0.6
				c0.6-0.1,1.1-0.4,1.7-0.4c0.6-0.1,1.2-0.2,1.8-0.1c0.3,0,0.6,0,0.9,0c0.3,0.1,0.6,0.1,0.8,0.2c0.3,0,0.5,0.2,0.8,0.3
				c0.3,0.1,0.5,0.2,0.7,0.4c0.5,0.2,0.8,0.6,1.2,0.9c0.3,0.3,0.6,0.6,0.8,0.9c0.2,0.3,0.3,0.6,0.5,0.8
				C192.3,130.5,192.4,130.8,192.4,130.8z"/>
		</g>
		<g>
			<path class="st10" d="M204.3,126.8c0,0,0.2-0.9,1-2c0.2-0.3,0.4-0.6,0.7-0.9c0.2-0.3,0.6-0.6,0.9-0.9c0.4-0.2,0.7-0.5,1.1-0.7
				c0.4-0.2,0.9-0.3,1.3-0.4c0.5-0.1,0.9-0.1,1.4-0.1c0.4,0.1,0.9,0.1,1.3,0.2c0.4,0.1,0.8,0.3,1.2,0.4c0.3,0.2,0.7,0.4,1,0.5
				c0.3,0.1,0.6,0.3,0.8,0.5c0.2,0.2,0.4,0.3,0.6,0.4c0.3,0.2,0.5,0.4,0.5,0.4s-0.2-0.1-0.5-0.3c-0.4-0.2-0.8-0.5-1.4-0.7
				c-0.3-0.1-0.6-0.3-1-0.4c-0.4-0.1-0.7-0.2-1.1-0.3c-0.4-0.1-0.8-0.1-1.2-0.2c-0.4,0-0.8,0-1.3,0.1c-0.4,0.1-0.8,0.2-1.2,0.4
				c-0.4,0.1-0.7,0.4-1.1,0.6c-0.3,0.3-0.6,0.5-0.9,0.8c-0.3,0.3-0.5,0.5-0.7,0.8c-0.4,0.5-0.7,1-0.9,1.3
				C204.4,126.6,204.3,126.8,204.3,126.8z"/>
		</g>
		<path class="st10" d="M204.1,133.2c0,0-1.6-1-4.3,1.7c0,0,2.8,0.7,3.2,1.5C203.5,137.5,205.2,134.6,204.1,133.2z"/>
		<g>
			<path class="st10" d="M184.9,145l1.3,0.4l1.4,0.4c0.9,0.2,1.8,0.4,2.8,0.4c1.8,0.2,3.7,0,5.5-0.5c1.8-0.5,3.4-1.5,4.8-2.7
				c1.4-1.2,2.5-2.8,3.3-4.4l0.1-0.2l0.1,0.1c0.7,0.9,1.6,1.6,2.5,2.2c0.9,0.6,2,1,3.1,1.2c1.1,0.1,2.3-0.1,3.3-0.7
				c0.5-0.3,1-0.6,1.4-1c0.4-0.4,0.8-0.8,1.2-1.2c-0.4,0.4-0.8,0.9-1.2,1.2c-0.4,0.4-0.9,0.7-1.4,1c-1,0.6-2.2,0.8-3.3,0.7
				c-1.2-0.1-2.3-0.5-3.2-1.1c-1-0.6-1.9-1.4-2.6-2.2l0.2,0c-0.4,0.9-0.9,1.7-1.4,2.4c-0.5,0.8-1.2,1.5-1.9,2.1
				c-1.4,1.3-3.1,2.2-4.9,2.7c-1.8,0.5-3.7,0.6-5.6,0.4c-0.9-0.1-1.9-0.3-2.8-0.5l-1.3-0.4L184.9,145z"/>
		</g>
		<path class="st10" d="M209.6,142c0,0-0.5,4.5,0.1,7.2c0.4,1.6-5.3,5.4-9.6,2.8c-4.3-2.6-6.5-5.7-5.9-5.8c0.6-0.1,7.5-1.3,9.8-7.6
			C204,138.6,206.9,142.3,209.6,142z"/>
		<path class="st11" d="M204.4,139.6c0,0-1.2,2.6-2.2,2.9l0.4,1.6l3.5-0.8l-0.1-2.1C205.9,141.1,204.5,140.2,204.4,139.6z"/>
		<path class="st12" d="M200.8,151c0.3,1.1,2.3,1.6,4.6,1c2.3-0.6,3.9-1.9,3.6-3c-0.3-1.1-2.3-1.6-4.6-1
			C202.2,148.6,200.6,149.9,200.8,151z"/>
		<g>
			<path class="st10" d="M185.9,137.3c0,0-1,0.2-2.4,0.4c-1.4,0.3-3.4,0.6-5.3,0.9c-1.9,0.3-3.9,0.5-5.3,0.7
				c-1.5,0.2-2.4,0.3-2.4,0.3s1-0.2,2.4-0.4c1.4-0.3,3.4-0.6,5.3-0.9c1.9-0.3,3.9-0.5,5.3-0.7C184.9,137.4,185.9,137.3,185.9,137.3z
				"/>
		</g>
		<g>
			<path class="st10" d="M185.2,140.5c0,0-0.9,0.3-2.3,0.8c-1.4,0.5-3.2,1.1-5.1,1.6c-1.9,0.6-3.7,1.1-5.1,1.5
				c-1.4,0.4-2.4,0.6-2.4,0.6s0.9-0.3,2.3-0.8c1.4-0.5,3.2-1.1,5.1-1.6c1.9-0.6,3.7-1.1,5.1-1.5
				C184.3,140.8,185.2,140.5,185.2,140.5z"/>
		</g>
		<g>
			<path class="st10" d="M218.6,130.1c0,0,0.5-0.3,1.3-0.8c0.8-0.5,1.8-1.1,2.9-1.7c1.1-0.6,2.1-1.2,2.9-1.6
				c0.8-0.4,1.4-0.7,1.4-0.7s-0.5,0.3-1.3,0.8c-0.8,0.5-1.8,1.1-2.9,1.7c-1.1,0.6-2.1,1.2-2.9,1.6
				C219.1,129.8,218.6,130.1,218.6,130.1z"/>
		</g>
		<g>
			<path class="st10" d="M218.6,134.5c0,0,0.7-0.2,1.6-0.5c1-0.3,2.3-0.7,3.6-1.1c1.3-0.4,2.6-0.7,3.6-0.9c1-0.2,1.7-0.4,1.7-0.4
				s-0.7,0.2-1.6,0.5c-1,0.3-2.3,0.7-3.6,1.1c-1.3,0.4-2.6,0.7-3.6,0.9C219.3,134.3,218.6,134.5,218.6,134.5z"/>
		</g>
		<g>
			<path class="st10" d="M186.8,115.2c0,0-0.7-0.3-1.8-0.3c-0.3,0-0.6,0-0.9,0c-0.3,0-0.6,0-1,0.1c-0.3,0-0.7,0.1-1,0.2
				c-0.3,0.1-0.7,0.3-1,0.4c-0.3,0.2-0.6,0.3-0.9,0.5c-0.3,0.2-0.6,0.4-0.8,0.6c-0.2,0.2-0.5,0.5-0.7,0.7c-0.2,0.2-0.4,0.5-0.6,0.7
				c-0.4,0.4-0.6,0.8-0.8,1c-0.2,0.3-0.3,0.4-0.3,0.4s0.1-0.2,0.2-0.4c0.2-0.3,0.3-0.7,0.7-1.1c0.2-0.2,0.3-0.5,0.5-0.7
				c0.2-0.2,0.5-0.5,0.7-0.7c0.3-0.2,0.5-0.4,0.8-0.7c0.3-0.2,0.6-0.4,0.9-0.5c0.3-0.1,0.7-0.3,1-0.4c0.3-0.1,0.7-0.2,1-0.2
				c0.3-0.1,0.7-0.1,1-0.1c0.3,0,0.6,0,0.9,0.1c0.5,0.1,1,0.2,1.3,0.3C186.7,115.2,186.8,115.2,186.8,115.2z"/>
		</g>
		<g>
			<path class="st10" d="M197.5,111.5c0,0,0-0.1,0.2-0.4c0.1-0.2,0.3-0.6,0.6-0.9c0.2-0.2,0.3-0.3,0.5-0.5c0.2-0.2,0.4-0.3,0.7-0.4
				c0.3-0.1,0.5-0.2,0.8-0.3c0.3-0.1,0.6-0.1,0.9-0.1c0.3,0,0.6,0,0.9,0.1c0.3,0,0.6,0.1,0.8,0.2c0.6,0.1,1,0.3,1.4,0.5
				c0.2,0.1,0.4,0.2,0.5,0.3c0.2,0.1,0.3,0.2,0.4,0.2c0.2,0.1,0.4,0.2,0.4,0.2s-0.1-0.1-0.4-0.2c-0.1,0-0.3-0.1-0.4-0.2
				c-0.2-0.1-0.3-0.2-0.6-0.2c-0.4-0.1-0.9-0.3-1.4-0.4c-0.3-0.1-0.5-0.1-0.8-0.1c-0.3,0-0.6-0.1-0.9,0c-0.3,0-0.6,0-0.9,0.1
				c-0.3,0.1-0.5,0.1-0.8,0.2c-0.2,0.1-0.5,0.2-0.7,0.4c-0.2,0.1-0.4,0.3-0.5,0.4C197.7,111,197.5,111.5,197.5,111.5z"/>
		</g>
		<path class="st13" d="M161.7,339.1c0,0-0.4-7-2.4-12.2c-2.1-5.1,10.5,11.6,10.5,11.6L161.7,339.1z"/>
		<path class="st13" d="M177.3,209.4l3.6-5.6c0,0-2.8,9.1-4,11.4C175.7,217.6,177.3,209.4,177.3,209.4z"/>
		<path class="st13" d="M172.4,172.1c0,0,25.8,2.5,34.4-2.2c0,0,1.8,2.1,1.3,2.6C201.6,178.3,198.8,180.1,172.4,172.1z"/>
		<g>
			<path class="st10" d="M93.3,194.2c0,0,0.1,1.2-0.3,2.9c-0.1,0.4-0.2,0.9-0.4,1.4c-0.2,0.5-0.3,1-0.6,1.5c-0.2,0.5-0.5,1-0.7,1.5
				c-0.3,0.5-0.6,1-0.9,1.5c-0.3,0.5-0.7,1-1,1.4c-0.4,0.4-0.7,0.9-1.1,1.3c-0.4,0.4-0.7,0.8-1.1,1.2c-0.4,0.3-0.7,0.7-1,1
				c-0.6,0.6-1.2,1-1.6,1.4c-0.4,0.3-0.6,0.5-0.6,0.5s0.2-0.2,0.6-0.5c0.4-0.3,0.9-0.8,1.6-1.4c0.3-0.3,0.6-0.6,1-1
				c0.3-0.4,0.7-0.8,1-1.2c0.4-0.4,0.7-0.9,1-1.3c0.4-0.4,0.7-0.9,1-1.4c0.3-0.5,0.6-1,0.9-1.5c0.3-0.5,0.5-1,0.7-1.5
				c0.2-0.5,0.4-1,0.6-1.5c0.2-0.5,0.3-0.9,0.4-1.3c0.2-0.8,0.4-1.6,0.4-2.1C93.3,194.5,93.3,194.2,93.3,194.2z"/>
		</g>
		<path class="st10" d="M92.4,208.2c-0.3,2.1-2.3,3.6-4.5,3.3l0,0c-2.1-0.3-3.6-2.3-3.3-4.5l3.5-23.5c0.3-2.1,2.3-3.6,4.5-3.3l0,0
			c2.1,0.3,3.6,2.3,3.3,4.5L92.4,208.2z"/>
		<path class="st10" d="M273.2,188.7c0.6,1.6-0.2,3.3-1.7,3.9l0,0c-1.6,0.6-3.3-0.2-4-1.7l-6.7-17.2c-0.6-1.6,0.2-3.3,1.7-4l0,0
			c1.6-0.6,3.3,0.2,4,1.7L273.2,188.7z"/>
		<path class="st14" d="M262.6,169.7c0,0-37.8-116.4-102.4-148.4C93-12-16.3,1.7-17.7,42.4C-19.1,83.1,16,82.3,50.6,116
			c36.4,35.5,42.5,42.6,41.9,64.3"/>
		
			<ellipse transform="matrix(0.613 -0.7901 0.7901 0.613 -125.5895 143.0093)" class="st4" cx="83.2" cy="199.7" rx="14.3" ry="7.9"/>
		<path class="st4" d="M282.9,188c-1.2,2.9-6.2,3.5-11.3,1.4c-5-2.1-8.2-6.1-7-9c1.2-2.9,6.2-3.5,11.3-1.4
			C281,181.1,284.1,185.1,282.9,188z"/>
	</g>
</g>
</svg>
