<?xml version="1.0" encoding="utf-8"?>
<!-- Generator: Adobe Illustrator 19.2.0, SVG Export Plug-In . SVG Version: 6.00 Build 0)  -->
<svg version="1.1" id="Layer_1" xmlns="http://www.w3.org/2000/svg" xmlns:xlink="http://www.w3.org/1999/xlink" x="0px" y="0px"
	 viewBox="0 0 336.2 310.2" style="enable-background:new 0 0 336.2 310.2;" xml:space="preserve">
<style type="text/css">
	.st0{fill:#F2F2F2;}
	.st1{fill:#FFFFFF;stroke:#929497;stroke-miterlimit:10;}
	.st2{fill:#5D5CA7;}
	.st3{clip-path:url(#SVGID_2_);}
	.st4{fill:#E0C889;}
	.st5{opacity:0.3;fill:url(#SVGID_3_);}
	.st6{opacity:0.3;fill:url(#SVGID_4_);}
	.st7{fill:#663623;}
	.st8{opacity:0.3;fill:url(#SVGID_5_);}
	.st9{fill:#A87C4F;}
	.st10{opacity:0.5;fill:url(#SVGID_6_);}
	.st11{fill:#F1F1F2;}
	.st12{fill:#DEC789;}
	.st13{opacity:0.3;fill:#754C28;}
	.st14{opacity:0.3;}
	.st15{fill:#754C28;}
	.st16{fill:#603813;}
	.st17{opacity:0.5;fill:url(#SVGID_7_);}
	.st18{fill:#EEDAAE;}
	.st19{fill:#4F311A;}
	.st20{fill:url(#SVGID_8_);}
</style>
<circle class="st0" cx="163" cy="150" r="147.4"/>
<g>
	<path class="st1" d="M446.5,747.5c-0.3-12.4-6.9-24.6-17.3-30.7c5.8-5.4,8-12.5,4.1-20.9c-4.2-9.1-16.9-10.4-25-6.7
		c-10.2,4.6-13.1,22.9-5.1,29.6c-6.6,5.4-11.9,12.6-16,20c-1.4,2.4-2.3,5.1-3.2,7.7c-0.6-3.7-2.8-7.2-6.6-9.1
		c-6.5-3.3-14.4-0.5-18,5.6c-2.9,4.9-1.8,10.8,1.8,14.6c-2.3,1.7-4.3,3.7-5.9,6.1c-2.8,4.3-3.1,9.8-3.2,14.7c0,3.7,3.6,5,6.2,4
		c-0.2,7.5-0.6,15-0.5,22.6c0,9.6,7,16.6,16.8,15c8.8-1.4,7.6-14.5,8-20.7c0.7-9,2.1-17.9,1.9-26.9c3.3-0.7,6.8-2.9,9.5-5.3
		c1.5-1.3,3-2.8,4.3-4.4c0.2,2.9,0.4,5.7,0.7,8.6c0.8,8.3,0.8,16.7,1.4,25c0.3,5.5-0.4,12.6,3.3,17.2c1.7,2.2,4.3,4,7.2,4
		c1.5,0,2.9-0.6,4-1.5c0.2-0.1,0.3-0.2,0.4-0.3c3.8,2.7,8.2,3.8,12.3,0.2c4.4-4,4.6-12.3,4.9-17.7c0.3-6.1-0.1-12.2-0.1-18.2
		c0-4.7-0.1-9.4-0.2-14.1c3,1,6.5,0.7,9.2-1.5C446.2,760.6,446.6,753.2,446.5,747.5z"/>
	<g>
		<g>
			<g>
				<circle class="st2" cx="417" cy="704.8" r="12.7"/>
				<path class="st2" d="M425.2,720.2c-0.4-0.3-0.9-0.4-1.4-0.6c-1.2-0.6-2.4-1.1-3.7-1.4l-3.2,3.2l-3.1-3.2c0,0,0,0,0,0
					c-1.6,0.4-3.2,1.1-4.6,2c-0.3,0.1-0.5,0.2-0.8,0.4c-9.6,5.9-15.3,18.1-22.4,33.6c-0.8,1.8-0.5,3.9,0.7,5.3
					c-3.9,3.4-13.5-2.2-14.3-2.4l-2,2l-2-2.1c0,0,0,0,0,0c-1.4,0.3-5.2,2.9-6.6,3.7c-0.1,0-0.3,0.1-0.4,0.2c-0.3,0.2-7,4.1-7,15.8
					c0,1.6,1.3,2.9,2.9,2.9c1.6,0,2.9-1.3,2.9-2.9c0-3.8,0.9-6.4,1.9-8.1V782c0,0.8,0.2,1.6,0.5,2.4c0,0.2,0,0.3,0,0.5l0,26.6
					c0,2.1,1.7,3.7,3.7,3.7c2.1,0,3.7-1.7,3.7-3.7l0-22.3c0.1,0,0.3,0,0.4,0c0,0,0.1,0,0.1,0l0,22.3c0,2.1,1.7,3.7,3.7,3.7
					c2.1,0,3.7-1.7,3.7-3.7l0-26.4c0.5-0.9,0.8-1.9,0.8-3v-14.8c1.2,0.4,2.4,0.7,3.7,0.7c2.8,0,5.9-1.2,9.5-4.6
					c0.8-0.7,1.1-1.7,0.9-2.7c0.9-0.5,1.6-1.2,2.1-2.2c3.2-6.9,6.1-13.1,9-18.1v17.1c0,1.3,0.3,2.6,0.7,3.7c0,0.3-0.1,0.5-0.1,0.8
					l0,47.2c0,3.2,2.6,5.8,5.8,5.8c3.2,0,5.8-2.6,5.8-5.8l0-40.5c0.2,0,0.5,0,0.7,0c0,0,0.1,0,0.1,0v40.5c0,3.2,2.6,5.8,5.8,5.8
					c0,0,0,0,0,0c3.2,0,5.8-2.6,5.8-5.8l0-46.9c0.8-1.4,1.2-3,1.2-4.8v-17.9c1.5,3.9,2,9,1.3,16.4c-0.3,2.7,1.7,5.1,4.4,5.4
					c0.2,0,0.3,0,0.5,0c2.5,0,4.6-1.9,4.9-4.4C443.4,734.6,434.8,726.1,425.2,720.2z"/>
				<circle class="st2" cx="370.5" cy="748.5" r="8.1"/>
			</g>
		</g>
	</g>
</g>
<g>
	<defs>
		<circle id="SVGID_1_" cx="163" cy="150.1" r="147.4"/>
	</defs>
	<clipPath id="SVGID_2_">
		<use xlink:href="#SVGID_1_"  style="overflow:visible;"/>
	</clipPath>
	<g class="st3">
		<path class="st4" d="M283.1,199.4c0,0,65.8,11.8,102.8-24.5c37-36.3,101.2-27.3,108.2-16.8c7,10.5-3.7,13.8-14.2,16.1
			c-23.3,5.2-51.2-14.4-100.7,20.2c-20,14-77.9,22.4-90.7,11.1C275.7,194.3,283.1,199.4,283.1,199.4z"/>
		<linearGradient id="SVGID_3_" gradientUnits="userSpaceOnUse" x1="286.6988" y1="186.2974" x2="343.0012" y2="182.5759">
			<stop  offset="0.2167" style="stop-color:#603813"/>
			<stop  offset="1" style="stop-color:#F1F1F2;stop-opacity:0"/>
		</linearGradient>
		<path class="st5" d="M283.1,199.4c0,0,65.8,11.8,102.8-24.5c37-36.3,101.2-27.3,108.2-16.8c7,10.5-3.7,13.8-14.2,16.1
			c-23.3,5.2-51.2-14.4-100.7,20.2c-20,14-77.9,22.4-90.7,11.1C275.7,194.3,283.1,199.4,283.1,199.4z"/>
		<path class="st4" d="M144.2,202.3c0,0-28.1,28.6-33.4,43.5c-2.9,8.2-7.7-5.4-7.7-5.4s22.8-38.6,26.1-41.8
			C132.5,195.5,144.2,202.3,144.2,202.3z"/>
		<path class="st4" d="M111.3,245.5c0,0-9.6-26.4-18-26.4c-8.4-0.1-6.6,7.2-4.4,7.8c3.5,1,9.7,16.7,15.4,23.5
			C105.7,252.1,109.7,254,111.3,245.5z"/>
		<path class="st4" d="M88.4,226.4l5.4-4.8c0,0,3.7-12-3.7-12c0,0-5.7-5.2-10.3-0.6c-4.6,4.6-2.5,11-0.5,12.4
			C81.4,222.7,88.4,226.4,88.4,226.4z"/>
		<linearGradient id="SVGID_4_" gradientUnits="userSpaceOnUse" x1="113.2922" y1="203.8012" x2="92.3528" y2="233.1163">
			<stop  offset="0.2167" style="stop-color:#603813"/>
			<stop  offset="1" style="stop-color:#F1F1F2;stop-opacity:0"/>
		</linearGradient>
		<path class="st6" d="M144.2,202.3c0,0-11.8-6.9-15-3.7c-2.5,2.4-16.1,25.1-22.6,36c-3.3-6.7-7.8-14.2-12.2-15.3
			c0.7-3.5,1.1-9.6-4.2-9.6c0,0-5.7-5.2-10.3-0.6c-4.6,4.6-2.5,11-0.5,12.4c1.7,1.1,7,3.9,8.6,4.8c0.3,0.3,0.6,0.6,0.9,0.7
			c3.5,1,9.7,16.7,15.4,23.5c1.4,1.7,5.5,3.6,7-4.9c0,0,0-0.1-0.1-0.3C116.9,230.1,144.2,202.3,144.2,202.3z"/>
		<g>
			<path class="st7" d="M90.7,210.5c0,0-0.5,0.7-1.2,1.8c-0.3,0.6-0.7,1.2-1.1,2c-0.2,0.4-0.4,0.8-0.6,1.1c-0.2,0.4-0.3,0.8-0.5,1.2
				c-0.1,0.4-0.2,0.8-0.2,1.2c0,0.4,0.2,0.8,0.5,1c0.3,0.1,0.7,0,1.1-0.1c0.3-0.1,0.7-0.3,0.9-0.5c1.1-0.7,1.7-1.3,1.7-1.3
				s-0.6,0.7-1.6,1.5c-0.3,0.2-0.6,0.4-0.9,0.5c-0.4,0.1-0.8,0.3-1.2,0.1c-0.5-0.2-0.6-0.7-0.7-1.2c-0.1-0.5,0-0.9,0.1-1.4
				c0.1-0.4,0.3-0.9,0.5-1.2c0.2-0.4,0.4-0.8,0.6-1.1c0.4-0.7,0.8-1.4,1.2-1.9C90,211.1,90.7,210.5,90.7,210.5z"/>
		</g>
		<g>
			<path class="st7" d="M86.5,217.5c0,0,0,0.1-0.1,0.3c-0.1,0.2-0.2,0.4-0.5,0.6c-0.2,0.2-0.6,0.5-0.9,0.6c-0.4,0.2-0.8,0.3-1.2,0.4
				c-0.8,0.2-1.7,0.3-2.3,0.4c-0.6,0.1-1.1,0.1-1.1,0.1s0.4-0.1,1-0.3c0.6-0.1,1.5-0.3,2.3-0.5c0.8-0.2,1.6-0.5,2.1-0.9
				c0.2-0.2,0.4-0.4,0.5-0.5C86.4,217.5,86.5,217.5,86.5,217.5z"/>
		</g>
		<g>
			<path class="st7" d="M89,212.3c0,0,0-0.2,0-0.4c0-0.2-0.1-0.5-0.1-0.8c0-0.3-0.1-0.5-0.2-0.8c-0.1-0.2-0.1-0.4-0.1-0.4
				s0.1,0.1,0.3,0.3c0.2,0.2,0.3,0.5,0.3,0.8c0,0.3,0,0.6,0,0.8C89.1,212.2,89,212.3,89,212.3z"/>
		</g>
		<g>
			<g>
				<path class="st4" d="M380.1,237.4l4.1,6.2c0,0,30.8,3.4,35.2,12.7c4.5,9.3,9.1-3.6,9.1-3.6s-7.6-16-14.4-23.5
					c-6.8-7.5-4.7-10.1-8-13.1C399.3,209.9,388.9,212.9,380.1,237.4z"/>
				<path class="st4" d="M417.2,252.6c0,0,2.8,5.8,2.9,7.9c0.1,2.1,6,2.7,8.3,1.2c0,0,4-2.8-0.5-10.3
					C423.4,243.9,417.2,252.6,417.2,252.6z"/>
				<path class="st4" d="M414.1,249.5c0,0,2.8,5.8,2.9,7.9c0.1,2.1,6,2.7,8.4,1.2c0,0,4-2.8-0.5-10.3
					C420.3,240.8,414.1,249.5,414.1,249.5z"/>
			</g>
			<path class="st4" d="M291.4,239.6c0,0,11.1,18.3,31.7,37.4l-6.9,9.9c0,0-30.3-8-52-24.7C264.2,262.2,260.5,230.2,291.4,239.6z"/>
			<path class="st4" d="M318,272.6c0,0,28.7-34.9,62.1-35.2l4.2,6.1c0,0-48.5,30.1-59.4,39.1C322.5,284.5,318,272.6,318,272.6z"/>
			<path class="st4" d="M327.7,279.2c0,0-5.7,11.9-16.2,6.2c-10.5-5.7,7.9-7.9,7.9-7.9L327.7,279.2z"/>
		</g>
		<g>
			<g>
				<path class="st4" d="M380.1,237.4l4.1,6.2c0,0,30.8,3.4,35.2,12.7c4.5,9.3,9.1-3.6,9.1-3.6s-7.6-16-14.4-23.5
					c-6.8-7.5-4.7-10.1-8-13.1C399.3,209.9,388.9,212.9,380.1,237.4z"/>
				<path class="st4" d="M417.2,252.6c0,0,2.8,5.8,2.9,7.9c0.1,2.1,6,2.7,8.3,1.2c0,0,4-2.8-0.5-10.3
					C423.4,243.9,417.2,252.6,417.2,252.6z"/>
				<path class="st4" d="M414.1,249.5c0,0,2.8,5.8,2.9,7.9c0.1,2.1,6,2.7,8.4,1.2c0,0,4-2.8-0.5-10.3
					C420.3,240.8,414.1,249.5,414.1,249.5z"/>
			</g>
			<path class="st4" d="M291.4,239.6c0,0,11.1,18.3,31.7,37.4l-6.9,9.9c0,0-30.3-8-52-24.7C264.2,262.2,260.5,230.2,291.4,239.6z"/>
			<path class="st4" d="M318,272.6c0,0,28.7-34.9,62.1-35.2l4.2,6.1c0,0-48.5,30.1-59.4,39.1C322.5,284.5,318,272.6,318,272.6z"/>
			<path class="st4" d="M327.7,279.2c0,0-5.7,11.9-16.2,6.2c-10.5-5.7,7.9-7.9,7.9-7.9L327.7,279.2z"/>
		</g>
		<linearGradient id="SVGID_5_" gradientUnits="userSpaceOnUse" x1="264.0469" y1="250.114" x2="429.9947" y2="250.114">
			<stop  offset="0.2167" style="stop-color:#603813"/>
			<stop  offset="1" style="stop-color:#F1F1F2;stop-opacity:0"/>
		</linearGradient>
		<path class="st8" d="M428.6,252.8c0-0.1,0.1-0.1,0.1-0.1s-7.6-16-14.4-23.5c-6.8-7.5-4.7-10.1-8-13.1c-7-6.2-17.3-3.2-26.1,21.4
			c-32.1,0.3-59.7,32.3-61.9,34.9c-17.4-17.3-26.8-32.7-26.8-32.7c-31-9.4-27.2,22.6-27.2,22.6c16.8,13,38.9,20.7,47.8,23.5
			c1.4,0.7,2.8,1.1,4,1.2c0,0,0.1,0,0.1,0l0,0c4.9,0.4,8.3-3,10.1-5.4c12.8-9.9,57.1-37.4,58-38l0,0c0,0,21.3,2.4,31,8.5
			c0.8,1.8,1.7,4.1,1.7,5.3c0,1,1.3,1.6,2.8,1.8c0.1,0.5,0.2,0.9,0.2,1.3c0.1,2.1,6,2.7,8.3,1.2
			C428.4,261.8,431.9,259.3,428.6,252.8z"/>
		<g>
			<path class="st9" d="M109,77.5c0,0-14.7-0.2-25.9-9.5c-10.4-8.7-1.5,37.7,12.7,31.9C110,94.1,109,77.5,109,77.5z"/>
			
				<linearGradient id="SVGID_6_" gradientUnits="userSpaceOnUse" x1="42.4345" y1="26.1086" x2="31.1884" y2="6.0262" gradientTransform="matrix(0.9646 -0.2635 0.2635 0.9646 47.1877 70.1194)">
				<stop  offset="0.2167" style="stop-color:#603813"/>
				<stop  offset="1" style="stop-color:#F1F1F2;stop-opacity:0"/>
			</linearGradient>
			<path class="st10" d="M109,77.5c0,0-14.7-0.2-25.9-9.5c-10.4-8.7-1.5,37.7,12.7,31.9C110,94.1,109,77.5,109,77.5z"/>
		</g>
		<path class="st11" d="M82.1,120.9c0,0-1.7-6.7,2.5-8.5c4.2-1.7,7.9-1,10.2,2.8c2.6,4.1,0.1,11-4.5,12.4
			C83.8,129.7,82.1,120.9,82.1,120.9z"/>
		<path class="st4" d="M115,74.6c-14.2,1.6-26.4,6.4-34.7,33.1c-2.1,6.8-4.3,23.1-9.1,26c-4.8,2.8,3.4,25.8,17.6,20.8
			c0,0,7.1,3.4,33.4,3.7l29.9-10.2c0,0,19.4-22.7,4-49C140.7,72.7,126.4,73.3,115,74.6z"/>
		<path class="st12" d="M122.2,158.1c0,0-25.7,48.3,28.9,72.9c55.8,25.1,45-34,59.7-35.4c0,0-48.7-36.6-52.2-59
			C155.2,114.3,122.2,158.1,122.2,158.1z"/>
		<path class="st12" d="M199.8,189.1c0,0,79.9-15.3,96,20.3c16.1,35.6-31,53.2-31,53.2s-85.6-20.8-91.8-24.7
			c-6.3-4,17.7-39.4,17.7-39.4L199.8,189.1z"/>
		<g>
			<g>
				<path class="st4" d="M141.1,316.3l-8.5-1c0,0-22.8,18-33.4,14.9c-10.6-3.1-3,8.3-3,8.3s18.2,5.3,28.8,5.7
					c10.6,0.4,11.4,3.5,16,3.2C150.6,346.8,155.5,337.8,141.1,316.3z"/>
				<path class="st4" d="M103.7,331c0,0-6.6-1.9-8.4-3.2c-1.8-1.3-6.1,2.2-6.4,4.7c0,0-0.4,4.4,8.8,6.3
					C106.8,340.7,103.7,331,103.7,331z"/>
				<path class="st4" d="M108.2,331c0,0-6.6-1.9-8.4-3.2c-1.8-1.3-6.1,2.2-6.4,4.7c0,0-0.4,4.4,8.8,6.3
					C111.4,340.7,108.2,331,108.2,331z"/>
			</g>
			<g>
				<path class="st4" d="M261.1,260.9c0,0-29.5,8.6-56.9,19.2l-6.9-10.9c0,0,20.6-24.7,46.1-37.3
					C243.5,231.9,283.3,236.3,261.1,260.9z"/>
				<path class="st4" d="M204.2,280.1c0,0-29.8,34.2-63,39.5l6.5-15.9c0,0,40.8-20.4,49.7-34.4C206.2,255.3,204.2,280.1,204.2,280.1
					z"/>
			</g>
			<path class="st4" d="M137.3,308.9"/>
			<path class="st4" d="M132.6,315.3c0,0,6.1-6.9,13.9-11.2c7.8-4.2,14.9,9,14.9,9s-18.4,3.6-19.1,5c-0.7,1.4-6.3,2.1-6.3,2.1
				L132.6,315.3z"/>
		</g>
		<path class="st4" d="M163.5,150.5c0,0,40-3,53.8-10.8c7.6-4.3,2.2,9.2,2.2,9.2s-42.5,14-47.1,14.3
			C167.8,163.4,163.5,150.5,163.5,150.5z"/>
		<path class="st4" d="M216.7,139.7c0,0-10.1,26.2-3.8,31.8c6.3,5.6,9.7-1.1,8.4-3c-2-3.1,3.7-19,3.9-27.8
			C225.3,138.4,223.5,134.3,216.7,139.7z"/>
		<ellipse class="st4" cx="222.5" cy="173.5" rx="10.6" ry="6.3"/>
		<path class="st4" d="M210.9,162.7c0,0-0.7,12.7,3.1,14.6c3.8,1.9,6.4-4,6.4-4l-4.8-11.3L210.9,162.7z"/>
		<path class="st13" d="M216.6,250.1c0,0,11.1-9,15.9-12c4.8-3-23.8,10.4-23.8,10.4L216.6,250.1z"/>
		<path class="st13" d="M174.9,163.2c0,0-8.4,2-11.4,2c-3,0,17.8,4.7,17.8,4.7L174.9,163.2z"/>
		<path class="st11" d="M85.1,120.2c0,0-1.1-8.5,4.2-11.1c5.3-2.6,8.5,0.7,8.5,0.7s-0.3,10.6-5.7,13.8c-5.4,3.2-7.1-2.9-7.1-2.9"/>
		<g class="st14">
			<path class="st15" d="M106.9,120.3c0.8,0.6,1.7,1.1,2.6,1.6c0.9,0.5,1.9,0.9,2.8,1.2c1,0.4,1.9,0.7,2.9,1c1,0.3,2,0.6,3,0.9
				l6,1.6c2,0.6,4,1.1,5.9,1.8l0.3,0.1l0,0.3c-0.5,3.1-1.1,6.1-1.9,9.1c-0.8,3-1.7,6-2.9,8.9c-0.3,0.7-0.6,1.4-1,2.1
				c-0.3,0.7-0.7,1.4-1.1,2.1c-0.4,0.7-0.8,1.3-1.3,2c-0.5,0.6-1,1.2-1.6,1.8c-0.6,0.6-1.2,1-1.9,1.4c-0.6,0.4-1.3,0.9-2,1.2
				c-0.7,0.4-1.4,0.7-2.2,0.9c-0.4,0.1-0.8,0.1-1.2,0.1c-0.4,0-0.8-0.2-1-0.6c0.2,0.3,0.6,0.5,1,0.5c0.4,0,0.8-0.1,1.1-0.2
				c0.7-0.3,1.4-0.6,2-1c0.7-0.4,1.3-0.9,1.9-1.3c0.6-0.5,1.2-1,1.8-1.5c0.6-0.5,1.1-1.1,1.5-1.7c0.5-0.6,0.9-1.2,1.3-1.9
				c0.4-0.7,0.7-1.3,1.1-2c0.3-0.7,0.6-1.4,0.9-2.1c1.2-2.8,2.1-5.8,2.8-8.8c0.8-3,1.4-6,1.9-9.1l0.2,0.4c-3.9-1.3-7.9-2.4-11.8-3.6
				c-2-0.6-3.9-1.2-5.8-2.1c-0.9-0.4-1.9-0.9-2.8-1.4C108.6,121.5,107.7,120.9,106.9,120.3z"/>
		</g>
		<g>
			<path class="st16" d="M86,98.4c0,0,0-0.3,0.1-0.8c0-0.3,0-0.6,0.1-1c0.1-0.4,0.1-0.8,0.2-1.3c0.1-0.4,0.3-0.9,0.5-1.4
				c0.2-0.5,0.4-1,0.7-1.5c0.3-0.5,0.7-1,1.1-1.5l0.7-0.7l0.8-0.6c0.6-0.3,1.1-0.6,1.8-0.7c0.3-0.1,0.6-0.2,0.9-0.2
				c0.3,0,0.6-0.1,0.9-0.1c0.3,0,0.6,0,0.9,0c0.3,0,0.6,0,0.8,0.1c0.5,0,1,0.2,1.5,0.2c0.5,0.1,0.9,0.2,1.2,0.3
				c0.4,0.1,0.7,0.2,0.9,0.3c0.5,0.2,0.8,0.3,0.8,0.3s-0.3-0.1-0.8-0.2c-0.3-0.1-0.6-0.2-0.9-0.2c-0.4-0.1-0.8-0.2-1.2-0.2
				c-0.5,0-0.9-0.1-1.5-0.1c-0.3,0-0.5,0-0.8,0c-0.3,0-0.5,0-0.8,0.1c-0.3,0-0.6,0.1-0.8,0.1c-0.3,0-0.6,0.1-0.8,0.2
				c-0.6,0.2-1.1,0.4-1.6,0.7l-0.7,0.5l-0.7,0.6c-0.4,0.4-0.8,0.8-1.1,1.3c-0.3,0.5-0.6,0.9-0.8,1.4c-0.2,0.5-0.4,0.9-0.5,1.4
				c-0.1,0.4-0.2,0.8-0.3,1.2c-0.1,0.4-0.2,0.7-0.2,0.9C86.1,98.1,86,98.4,86,98.4z"/>
		</g>
		<g>
			<path class="st9" d="M111.3,79.6c0,0,14.2-7.7,20.7-23.9c6-15.1,19.8,42,3.2,42.5C118.5,98.8,111.3,79.6,111.3,79.6z"/>
			
				<linearGradient id="SVGID_7_" gradientUnits="userSpaceOnUse" x1="468.7837" y1="30.8602" x2="455.1198" y2="6.4602" gradientTransform="matrix(-0.9853 0.1708 0.1708 0.9853 581.3411 -19.3904)">
				<stop  offset="0.2167" style="stop-color:#603813"/>
				<stop  offset="1" style="stop-color:#F1F1F2;stop-opacity:0"/>
			</linearGradient>
			<path class="st17" d="M111.3,79.6c0,0,14.2-7.7,20.7-23.9c6-15.1,19.8,42,3.2,42.5C118.5,98.8,111.3,79.6,111.3,79.6z"/>
			<path class="st18" d="M116.3,87.2c0,0,15.6-8.4,17.9-16.3c0,0-1,27.5-8.1,24.2C120.6,92.5,116.3,87.2,116.3,87.2z"/>
			<g>
				<path class="st19" d="M134.6,68.5c0,0-0.1,0.4-0.2,1.1c-0.1,0.4-0.2,0.8-0.4,1.3c-0.2,0.5-0.3,1.1-0.7,1.6
					c-0.3,0.5-0.6,1.2-1,1.8c-0.4,0.6-0.8,1.3-1.4,1.8c-0.5,0.6-1,1.2-1.6,1.8c-0.6,0.6-1.2,1.2-1.8,1.8c-0.6,0.6-1.3,1.1-1.9,1.6
					c-0.6,0.5-1.3,1-1.9,1.5c-1.3,0.9-2.5,1.7-3.6,2.4c-1.1,0.7-2,1.1-2.7,1.5c-0.7,0.3-1,0.5-1,0.5s1.4-0.9,3.5-2.4
					c1-0.7,2.2-1.6,3.5-2.5c0.6-0.5,1.3-1,1.9-1.5c0.6-0.5,1.3-1.1,1.9-1.6c0.6-0.5,1.2-1.1,1.8-1.7c0.6-0.6,1.1-1.2,1.6-1.8
					c0.5-0.6,1-1.2,1.4-1.7c0.5-0.6,0.8-1.2,1.1-1.7c0.4-0.5,0.5-1.1,0.8-1.5c0.3-0.4,0.4-0.9,0.5-1.2
					C134.5,68.9,134.6,68.5,134.6,68.5z"/>
			</g>
		</g>
		
			<linearGradient id="SVGID_8_" gradientUnits="userSpaceOnUse" x1="533.2692" y1="87.3287" x2="533.3864" y2="61.9386" gradientTransform="matrix(-0.9535 0.3014 0.3089 0.9773 569.175 -96.2147)">
			<stop  offset="0.2167" style="stop-color:#F1F1F2"/>
			<stop  offset="1" style="stop-color:#F1F1F2;stop-opacity:0"/>
		</linearGradient>
		<path class="st20" d="M73.9,130c0,0-0.8,2.1-3.8,5.2c-3,3.1,1,25.6,14.1,20c13-5.6,12.5-7.8,15.6-18.2c0,0-15.2-6.6-15.2-14.6
			c0-8-7.8-2.2-7.8-2.2S74.8,128.5,73.9,130z"/>
		<g>
			<path class="st15" d="M84.7,119.7c0,2.1,0.2,4.2,1.2,6c0.9,1.9,2.3,3.4,3.9,4.7c1.6,1.3,3.3,2.5,5.1,3.5c1.8,1.1,3.6,2,5.5,3
				l0.2,0.1l0,0.2c-0.1,1.1-0.3,2.1-0.5,3.1c-0.3,1-0.6,2-1,3c-0.8,1.9-1.9,3.7-3.3,5.3c-0.7,0.8-1.5,1.5-2.3,2.2
				c-0.8,0.7-1.7,1.2-2.6,1.8c-0.4,0.3-0.9,0.5-1.4,0.8c-0.5,0.2-0.9,0.5-1.4,0.6c-0.5,0.2-1,0.3-1.5,0.4c-0.5,0-1.1,0-1.4-0.5
				c0.3,0.4,0.9,0.4,1.4,0.3c0.5-0.1,1-0.3,1.4-0.5c0.5-0.2,0.9-0.5,1.4-0.7c0.4-0.3,0.9-0.5,1.3-0.8c0.8-0.6,1.7-1.2,2.5-1.8
				c0.8-0.6,1.5-1.3,2.2-2.1c1.3-1.5,2.4-3.3,3.2-5.2c0.4-0.9,0.7-1.9,1-2.9c0.3-1,0.4-2,0.5-3l0.2,0.3c-3.7-1.9-7.4-4-10.6-6.7
				c-1.6-1.4-3-3-3.9-5C84.8,124,84.6,121.8,84.7,119.7z"/>
		</g>
		<g>
			<g>
				<path class="st16" d="M85.1,120.7c-0.1-0.5-0.2-0.9-0.3-1.4c-0.1-0.5-0.1-0.9-0.2-1.4c0-0.5,0-1,0-1.4c0-0.5,0-1,0.1-1.4
					c0.2-1.9,1-3.8,2.4-5.2c0.7-0.7,1.5-1.3,2.4-1.7c0.9-0.4,1.9-0.6,2.8-0.6c2-0.1,3.9,0.6,5.4,1.7l0.2,0.1l-0.2,0.1
					c-0.1,0-0.2,0.1-0.2,0.2c-0.1,0.1-0.1,0.2-0.1,0.3c-0.1,0.2-0.1,0.4-0.1,0.7c0,0.5,0.2,0.9,0.3,1.4c-0.2-0.4-0.4-0.9-0.5-1.4
					c0-0.2,0-0.5,0-0.7c0-0.1,0.1-0.2,0.1-0.4c0.1-0.1,0.1-0.2,0.3-0.3l0,0.2c-0.8-0.5-1.7-0.8-2.6-1.1c-0.9-0.2-1.8-0.3-2.7-0.3
					c-0.9,0.1-1.8,0.3-2.6,0.6c-0.8,0.4-1.6,0.9-2.2,1.5c-0.3,0.3-0.6,0.7-0.9,1.1c-0.3,0.4-0.5,0.8-0.7,1.2
					c-0.2,0.4-0.4,0.8-0.5,1.3c-0.1,0.4-0.2,0.9-0.3,1.3C84.9,117,84.9,118.9,85.1,120.7z"/>
			</g>
			<path class="st16" d="M85,120.2c1,3.1,3.4,5.2,5.4,4.5c2-0.6,2.8-3.7,1.8-6.8c-1-3.1-3.4-5.2-5.4-4.5
				C84.9,114.1,84.1,117.1,85,120.2z"/>
			<path class="st11" d="M85.8,117.3c0.1,0.5,0.6,0.7,1.1,0.6c0.5-0.2,0.7-0.7,0.6-1.1c-0.2-0.5-0.6-0.7-1.1-0.6
				C85.9,116.3,85.7,116.8,85.8,117.3z"/>
		</g>
		<path class="st9" d="M69.3,136.4c0.8-0.3,4-1.5,4,1c0,0.5-0.5,0.7-0.7,0.8c-0.8,0.3-2.5,0.4-3.2,2.1l0,0c0,0,0,0.1,0,0.1
			L69.3,136.4z"/>
		<g>
			<ellipse class="st15" cx="113.6" cy="103.7" rx="2.3" ry="1.6"/>
			<path class="st15" d="M141.1,118.4c0,1.3-1.5,2.3-3.3,2.3c-1.8,0-3.3-1-3.3-2.3c0-1.3,1.5-2.3,3.3-2.3
				C139.7,116.1,141.1,117.1,141.1,118.4z"/>
			<path class="st15" d="M125.2,171.7c0,1-0.8,1.8-1.7,1.8c-0.9,0-1.7-0.8-1.7-1.8c0-1,0.8-1.8,1.7-1.8
				C124.5,169.8,125.2,170.7,125.2,171.7z"/>
			<ellipse class="st15" cx="139.5" cy="191.2" rx="1.6" ry="1.6"/>
			<path class="st15" d="M150.1,164.3c0,1.2-1.3,2.2-3,2.2c-1.6,0-3-1-3-2.2c0-1.2,1.3-2.2,3-2.2C148.8,162,150.1,163,150.1,164.3z"
				/>
			<ellipse class="st15" cx="201.9" cy="151.8" rx="2.4" ry="0.8"/>
			<ellipse class="st15" cx="114.8" cy="230.3" rx="1.2" ry="1.6"/>
			<ellipse class="st15" cx="131.3" cy="212.3" rx="1.3" ry="1"/>
			<path class="st15" d="M239.1,195.3c0,1.4-0.8,2.5-1.8,2.5c-1,0-1.8-1.1-1.8-2.5c0-1.4,0.8-2.5,1.8-2.5
				C238.3,192.8,239.1,194,239.1,195.3z"/>
			<ellipse class="st15" cx="186.4" cy="228.3" rx="1.4" ry="1.9"/>
			<ellipse class="st15" cx="170.9" cy="154" rx="1.9" ry="1.3"/>
			<ellipse class="st15" cx="156.7" cy="215.4" rx="2.3" ry="2.1"/>
			<ellipse class="st15" cx="172.8" cy="189.4" rx="3.7" ry="1.1"/>
			<path class="st15" d="M192.4,205.5c0,0.9-0.5,1.6-1,1.6c-0.6,0-1-0.7-1-1.6c0-0.9,0.5-1.6,1-1.6
				C191.9,203.9,192.4,204.6,192.4,205.5z"/>
			<path class="st15" d="M232.6,219.4c0,1.1-1.3,1.9-3,1.9c-1.6,0-3-0.9-3-1.9c0-1.1,1.3-1.9,3-1.9
				C231.2,217.5,232.6,218.3,232.6,219.4z"/>
			<ellipse class="st15" cx="271.8" cy="209.2" rx="2.6" ry="2"/>
			<ellipse class="st15" cx="279.8" cy="238.8" rx="3" ry="2.4"/>
			<path class="st15" d="M242.7,244.6c0,0.4-0.8,0.7-1.8,0.7c-1,0-1.8-0.3-1.8-0.7c0-0.4,0.8-0.7,1.8-0.7
				C241.9,243.9,242.7,244.2,242.7,244.6z"/>
			<ellipse class="st15" cx="211" cy="262.5" rx="2.3" ry="2.4"/>
			<ellipse class="st15" cx="238.2" cy="263.7" rx="0.9" ry="1.3"/>
			<ellipse class="st15" cx="168.3" cy="297.6" rx="1.4" ry="1.2"/>
			<ellipse class="st15" cx="134.9" cy="329.4" rx="2.4" ry="1.9"/>
			<ellipse class="st15" cx="283.5" cy="264.3" rx="0.7" ry="0.6"/>
			<ellipse class="st15" cx="314" cy="275.8" rx="1.9" ry="1.7"/>
			<ellipse class="st15" cx="365" cy="245.7" rx="1.6" ry="1.1"/>
			<path class="st15" d="M299.1,204c0,0.7-0.6,1.2-1.2,1.2c-0.7,0-1.2-0.5-1.2-1.2c0-0.7,0.6-1.2,1.2-1.2
				C298.5,202.8,299.1,203.3,299.1,204z"/>
			<ellipse class="st15" cx="326.2" cy="206.2" rx="1.5" ry="1"/>
			<ellipse class="st15" cx="362" cy="195.5" rx="1.5" ry="1.3"/>
			<path class="st15" d="M398.4,178.8c0,0.6-0.4,1.1-0.9,1.1c-0.5,0-0.9-0.5-0.9-1.1c0-0.6,0.4-1.1,0.9-1.1
				C398,177.7,398.4,178.2,398.4,178.8z"/>
			<path class="st15" d="M409.4,164.3c0,0.6-0.6,1.1-1.3,1.1c-0.7,0-1.3-0.5-1.3-1.1c0-0.6,0.6-1.1,1.3-1.1
				C408.8,163.2,409.4,163.7,409.4,164.3z"/>
		</g>
	</g>
</g>
</svg>
