<?xml version="1.0" encoding="utf-8"?>
<!-- Generator: Adobe Illustrator 19.2.0, SVG Export Plug-In . SVG Version: 6.00 Build 0)  -->
<svg version="1.1" id="Layer_1" xmlns="http://www.w3.org/2000/svg" xmlns:xlink="http://www.w3.org/1999/xlink" x="0px" y="0px"
	 viewBox="0 0 336.2 310.2" style="enable-background:new 0 0 336.2 310.2;" xml:space="preserve">
<style type="text/css">
	.st0{fill:#F2F2F2;}
	.st1{fill:#FFFFFF;stroke:#929497;stroke-miterlimit:10;}
	.st2{fill:#5D5CA7;}
	.st3{clip-path:url(#SVGID_2_);}
	.st4{fill:#333642;}
	.st5{fill:#ECE7E1;}
	.st6{fill:none;stroke:#58595B;stroke-width:1.5189;stroke-miterlimit:10;}
	.st7{fill:#FFFFFF;stroke:#C1C1E0;stroke-miterlimit:10;}
	.st8{opacity:0.5;clip-path:url(#SVGID_4_);fill:#B2B1B1;}
	.st9{opacity:0.5;fill:#B2B1B1;}
	.st10{opacity:0.3;fill:#7A7B7B;}
	.st11{fill:#2DADD1;}
	.st12{fill:#B4D034;}
	.st13{fill:#F89E1C;}
	.st14{fill:#F1F1F2;}
</style>
<circle class="st0" cx="163" cy="150" r="147.4"/>
<g>
	<path class="st1" d="M446.5,747.5c-0.3-12.4-6.9-24.6-17.3-30.7c5.8-5.4,8-12.5,4.1-20.9c-4.2-9.1-16.9-10.4-25-6.7
		c-10.2,4.6-13.1,22.9-5.1,29.6c-6.6,5.4-11.9,12.6-16,20c-1.4,2.4-2.3,5.1-3.2,7.7c-0.6-3.7-2.8-7.2-6.6-9.1
		c-6.5-3.3-14.4-0.5-18,5.6c-2.9,4.9-1.8,10.8,1.8,14.6c-2.3,1.7-4.3,3.7-5.9,6.1c-2.8,4.3-3.1,9.8-3.2,14.7c0,3.7,3.6,5,6.2,4
		c-0.2,7.5-0.6,15-0.5,22.6c0,9.6,7,16.6,16.8,15c8.8-1.4,7.6-14.5,8-20.7c0.7-9,2.1-17.9,1.9-26.9c3.3-0.7,6.8-2.9,9.5-5.3
		c1.5-1.3,3-2.8,4.3-4.4c0.2,2.9,0.4,5.7,0.7,8.6c0.8,8.3,0.8,16.7,1.4,25c0.3,5.5-0.4,12.6,3.3,17.2c1.7,2.2,4.3,4,7.2,4
		c1.5,0,2.9-0.6,4-1.5c0.2-0.1,0.3-0.2,0.4-0.3c3.8,2.7,8.2,3.8,12.3,0.2c4.4-4,4.6-12.3,4.9-17.7c0.3-6.1-0.1-12.2-0.1-18.2
		c0-4.7-0.1-9.4-0.2-14.1c3,1,6.5,0.7,9.2-1.5C446.2,760.6,446.6,753.2,446.5,747.5z"/>
	<g>
		<g>
			<g>
				<circle class="st2" cx="417" cy="704.8" r="12.7"/>
				<path class="st2" d="M425.2,720.2c-0.4-0.3-0.9-0.4-1.4-0.6c-1.2-0.6-2.4-1.1-3.7-1.4l-3.2,3.2l-3.1-3.2c0,0,0,0,0,0
					c-1.6,0.4-3.2,1.1-4.6,2c-0.3,0.1-0.5,0.2-0.8,0.4c-9.6,5.9-15.3,18.1-22.4,33.6c-0.8,1.8-0.5,3.9,0.7,5.3
					c-3.9,3.4-13.5-2.2-14.3-2.4l-2,2l-2-2.1c0,0,0,0,0,0c-1.4,0.3-5.2,2.9-6.6,3.7c-0.1,0-0.3,0.1-0.4,0.2c-0.3,0.2-7,4.1-7,15.8
					c0,1.6,1.3,2.9,2.9,2.9c1.6,0,2.9-1.3,2.9-2.9c0-3.8,0.9-6.4,1.9-8.1V782c0,0.8,0.2,1.6,0.5,2.4c0,0.2,0,0.3,0,0.5l0,26.6
					c0,2.1,1.7,3.7,3.7,3.7c2.1,0,3.7-1.7,3.7-3.7l0-22.3c0.1,0,0.3,0,0.4,0c0,0,0.1,0,0.1,0l0,22.3c0,2.1,1.7,3.7,3.7,3.7
					c2.1,0,3.7-1.7,3.7-3.7l0-26.4c0.5-0.9,0.8-1.9,0.8-3v-14.8c1.2,0.4,2.4,0.7,3.7,0.7c2.8,0,5.9-1.2,9.5-4.6
					c0.8-0.7,1.1-1.7,0.9-2.7c0.9-0.5,1.6-1.2,2.1-2.2c3.2-6.9,6.1-13.1,9-18.1v17.1c0,1.3,0.3,2.6,0.7,3.7c0,0.3-0.1,0.5-0.1,0.8
					l0,47.2c0,3.2,2.6,5.8,5.8,5.8c3.2,0,5.8-2.6,5.8-5.8l0-40.5c0.2,0,0.5,0,0.7,0c0,0,0.1,0,0.1,0v40.5c0,3.2,2.6,5.8,5.8,5.8
					c0,0,0,0,0,0c3.2,0,5.8-2.6,5.8-5.8l0-46.9c0.8-1.4,1.2-3,1.2-4.8v-17.9c1.5,3.9,2,9,1.3,16.4c-0.3,2.7,1.7,5.1,4.4,5.4
					c0.2,0,0.3,0,0.5,0c2.5,0,4.6-1.9,4.9-4.4C443.4,734.6,434.8,726.1,425.2,720.2z"/>
				<circle class="st2" cx="370.5" cy="748.5" r="8.1"/>
			</g>
		</g>
	</g>
</g>
<g>
	<defs>
		<circle id="SVGID_1_" cx="163" cy="150.1" r="147.4"/>
	</defs>
	<clipPath id="SVGID_2_">
		<use xlink:href="#SVGID_1_"  style="overflow:visible;"/>
	</clipPath>
	<g class="st3">
		<ellipse class="st4" cx="156.7" cy="164.2" rx="106.1" ry="96"/>
		<path class="st5" d="M212.8,144.8c-0.7,41.8-39.9,74.5-79.1,64.7c-42.5-9.8-65.4-52.3-49-91.5c9.8-22.9,32.7-32.7,55.6-36
			c29.4-3.3,55.6,13.1,67.5,38.7C210.9,128.1,212.7,136.2,212.8,144.8z"/>
		<path class="st6" d="M128.2,65.6c0,0,8.8,20.8,9.3,40.3"/>
		<path class="st7" d="M128.4,70.6c0,0-11.4-26.8-15.7-28.8c-4.3-2,29.2-33.6,41.9-30.9C163.8,13,175,42,174.7,43
			C174.5,44,147.4,41.4,128.4,70.6z"/>
		<g>
			<defs>
				<path id="SVGID_3_" d="M212.8,144.8c-0.7,41.8-39.9,74.5-79.1,64.7c-42.5-9.8-65.4-52.3-49-91.5c9.8-22.9,32.7-32.7,55.6-36
					c29.4-3.3,55.6,13.1,67.5,38.7C210.9,128.1,212.7,136.2,212.8,144.8z"/>
			</defs>
			<clipPath id="SVGID_4_">
				<use xlink:href="#SVGID_3_"  style="overflow:visible;"/>
			</clipPath>
			<path class="st8" d="M188.2,176.9c-17.2,5.4-29.8,10.6-48.2,7c-5.3-1-10.3-2.8-15-5.3c0.6-0.5,1-1.3,1-2.3v-1.2
				c0-4.2-6.5-4.2-6.5,0v0.4c-9.7-6.1-18.3-14.4-26-22.8c-3-9.1-4.1-18.8-2.4-27.1c5.1-26.3-33.9-35.1-39.1-8.7
				c-3.6,18.4-1.2,36.2,5.2,52.7c0.2,0.7,0.4,1.4,0.8,2.1c0.2,0.4,0.4,0.9,0.6,1.3c3.6,8.4,8.1,16.4,13.5,23.9
				c5.6,7.9,12,13.5,19.1,17.9c16.9,13.4,37.5,21.7,59.5,22.9c8.4,0.5,14.4-5.2,17.2-12.4c10.7-2,21.4-5.4,32.3-8.8
				C224.9,208.6,213,169.1,188.2,176.9z"/>
		</g>
		<path class="st9" d="M138.2,105.1c-1.3,0.6-2.1,0.7-2.7-0.6c-0.9-1.9-3.7-0.3-2.8,1.6c1.4,3.1,4.4,3.1,7.1,1.8
			C141.7,107.1,140.1,104.2,138.2,105.1z"/>
		<path class="st9" d="M178.4,122.7c-1.6-1-3.7-0.3-4.6,1.2c-0.7,1.3-0.5,2.8,0.3,3.8c0.4,1.4,1.6,2.5,3.2,2.5
			c1.8,0,3.5-1.5,3.4-3.4C180.6,125.1,179.9,123.7,178.4,122.7z"/>
		<path class="st9" d="M114,110.3c0-1.2-1.1-2.4-2.3-1.5c-1.5,1.1-1.6,2.5-1.6,4.3c0,1.6,1.9,2,2.8,1.2c0.6-0.1,1.1-0.4,1.3-1.1
			c0.1-0.4,0.3-0.8,0.4-1.2C114.6,111.2,114.4,110.6,114,110.3z"/>
		<path class="st10" d="M151.9,94.9c0.4-0.6,0-1.6-0.9-1.3c-0.6,0.3-0.8,0.6-0.8,1.2c0,0.4,0.2,0.6,0.4,0.7c0.1,0.1,0.3,0.2,0.5,0.2
			c0.3,0,0.6-0.2,0.7-0.4C151.9,95.2,151.9,95,151.9,94.9z"/>
		<path class="st10" d="M117.3,154.1v0.8c0,2.1,3.3,2.1,3.3,0v-0.8C120.6,152,117.3,152,117.3,154.1z"/>
		<path class="st10" d="M195.4,136.3c-2.2,0-2.2,4.9,0,4.9C197.6,141.1,197.6,136.3,195.4,136.3z"/>
		<path class="st10" d="M102,114.5v0.3c0,2.1,3.3,2.1,3.3,0v-0.3C105.3,112.4,102,112.4,102,114.5z"/>
		<path class="st10" d="M163.1,154.5c-2.1,0-2.1,3.3,0,3.3C165.2,157.8,165.2,154.5,163.1,154.5z"/>
		<g>
			<path class="st11" d="M131.1,42.7c0,0-1.2-7.4,3.2-12.9c1-1.2,3.5-3.7,6.1-1.8c0,0,1.2,0.7,2,1.7c0.9,1,2.4,2.7,2.7,2.9
				c0.3,0.2,1.7,1.1,2.7,0.4c1-0.8,0.4-2.1,0.2-2.9c-0.2-0.8-2.4-4.9-1.2-6.1c1.3-1.2,4.8,1.9,4.8,1.9s2.3,2.2,2.6,2.7
				c0.3,0.5,2,2.4,3.2,4.7c1.2,2.3,1.7,5.1,0.8,5.8c-0.3,0.2-0.5,0.2-1-1.3c-0.5-1.5-1.3-3.9-2.3-3.7c-1,0.2-1.2,2.8-1,4.6
				c0.3,1.8-0.4,3.1-2,4c-1.7,0.9-2.6-0.4-3.8-2.9c-1.2-2.5-3-4.8-5.8-4.3c-2.8,0.5-1.2,8.8-1.2,9.2c0,0.4,2,5.1-2,6.7
				C135,52.8,131.7,49.1,131.1,42.7z"/>
			<g>
				<path class="st12" d="M133.2,49.8c0,0-0.3-0.3-0.7-0.9c-0.2-0.3-0.4-0.7-0.7-1.2c-0.2-0.5-0.5-1-0.7-1.6
					c-0.1-0.3-0.2-0.6-0.3-0.9c-0.1-0.3-0.2-0.7-0.3-1c-0.1-0.7-0.3-1.5-0.3-2.3c-0.1-0.8-0.1-1.6,0-2.5c0-0.4,0-0.8,0.1-1.3
					c0.1-0.4,0.1-0.8,0.2-1.3l0.3-1.2c0.1-0.4,0.2-0.8,0.3-1.2c0.1-0.4,0.2-0.8,0.4-1.2c0.1-0.4,0.3-0.8,0.5-1.1
					c0.6-1.5,1.5-2.7,2.5-3.6c0.5-0.4,1-0.7,1.4-1c0.5-0.2,0.9-0.4,1.3-0.4c0.7-0.1,1.2-0.1,1.2-0.1s-0.4,0-1.1,0.1
					c-0.4,0.1-0.8,0.2-1.2,0.5c-0.4,0.2-0.9,0.6-1.4,1c-0.9,0.8-1.8,2.1-2.4,3.5c-0.2,0.4-0.3,0.7-0.4,1.1c-0.1,0.4-0.3,0.8-0.4,1.2
					c-0.1,0.4-0.2,0.8-0.3,1.2l-0.2,1.2c-0.1,0.4-0.1,0.8-0.2,1.2c-0.1,0.4-0.1,0.8-0.1,1.2c-0.1,0.8,0,1.6,0,2.4
					c0.1,0.8,0.2,1.5,0.3,2.2c0.1,0.4,0.2,0.7,0.2,1c0.1,0.3,0.2,0.6,0.3,0.9c0.2,0.6,0.4,1.1,0.6,1.6c0.2,0.5,0.4,0.9,0.6,1.2
					C133,49.5,133.2,49.8,133.2,49.8z"/>
			</g>
			<g>
				<path class="st13" d="M132.8,49.7c0,0-0.9-0.7-1.8-2.2c-0.2-0.4-0.4-0.8-0.6-1.2c-0.2-0.4-0.4-0.9-0.5-1.4
					c-0.2-0.5-0.3-1-0.4-1.6c-0.1-0.6-0.2-1.1-0.2-1.7c0-0.6-0.1-1.1,0-1.7c0.1-0.6,0-1.1,0.2-1.6c0.1-0.5,0.2-1,0.3-1.5
					c0.1-0.5,0.2-0.9,0.4-1.3c0.2-0.8,0.5-1.5,0.7-1.9c0.2-0.5,0.3-0.7,0.3-0.7s-0.1,0.3-0.2,0.7c-0.1,0.2-0.2,0.5-0.3,0.8
					c-0.1,0.3-0.2,0.7-0.3,1.1c-0.1,0.4-0.2,0.9-0.3,1.3c-0.1,0.5-0.2,1-0.2,1.5c-0.1,0.5-0.1,1.1-0.1,1.6c-0.1,0.5,0,1.1,0,1.7
					c0,0.6,0.1,1.1,0.2,1.7c0.1,0.5,0.2,1.1,0.4,1.6c0.1,0.5,0.3,1,0.5,1.4c0.2,0.5,0.4,0.8,0.6,1.2c0.4,0.7,0.8,1.3,1.1,1.7
					C132.5,49.5,132.8,49.7,132.8,49.7z"/>
			</g>
			<g>
				<path class="st12" d="M146.5,32.8c0,0,0.2,0.1,0.5,0c0.2,0,0.3-0.1,0.4-0.3c0.1-0.2,0.2-0.4,0.2-0.7c0-1.1-0.6-2.5-1.2-3.9
					c-0.3-0.7-0.5-1.4-0.7-2.2c-0.1-0.7-0.1-1.5,0.3-1.9c0.2-0.2,0.5-0.3,0.7-0.3c0.2,0,0.4,0,0.6,0c0.3,0,0.5,0.1,0.5,0.1l0,0
					c0,0-0.2,0-0.5-0.1c-0.3,0-0.8,0-1.2,0.4c-0.4,0.4-0.3,1.1-0.2,1.8c0.1,0.7,0.4,1.4,0.7,2.1c0.6,1.4,1.2,2.8,1.1,4
					c0,0.3-0.1,0.6-0.2,0.8c-0.1,0.2-0.3,0.3-0.5,0.3C146.7,32.9,146.5,32.8,146.5,32.8z"/>
			</g>
			<g>
				<path class="st13" d="M146.8,32.6c0,0,0.1-0.1,0.2-0.2c0.1-0.2,0.2-0.5,0.1-0.8c-0.1-0.7-0.5-1.6-0.9-2.4
					c-0.4-0.9-0.8-1.7-1-2.4c-0.1-0.4-0.1-0.7-0.1-0.9c0-0.2,0-0.3,0-0.3s-0.1,0.5,0.1,1.2c0.2,0.7,0.6,1.5,1,2.4
					c0.4,0.8,0.8,1.8,0.8,2.5c0,0.4-0.1,0.7-0.2,0.8C146.9,32.6,146.8,32.6,146.8,32.6z"/>
			</g>
			<g>
				<path class="st12" d="M154.5,34.3c0,0,0.1,0,0.2-0.1c0.2,0,0.4,0,0.7,0.2c0.5,0.4,0.8,1,1,1.7c0.3,0.7,0.5,1.4,0.6,1.9
					c0.2,0.5,0.3,0.9,0.3,0.9s-0.1-0.3-0.3-0.8c-0.2-0.5-0.4-1.2-0.7-1.9c-0.3-0.7-0.6-1.3-1-1.6C154.9,34.2,154.5,34.3,154.5,34.3z
					"/>
			</g>
			<g>
				<path class="st13" d="M154,34.5c0,0,0.4-0.1,0.7,0.1c0.3,0.2,0.7,0.5,0.9,1c0.2,0.4,0.4,0.9,0.5,1.2c0.1,0.3,0.2,0.6,0.2,0.6
					l0,0c0,0-0.1-0.2-0.2-0.5c-0.1-0.3-0.3-0.8-0.5-1.1c-0.2-0.4-0.7-0.8-1-0.9C154.4,34.5,154,34.5,154,34.5L154,34.5z"/>
			</g>
			<g>
				<path class="st12" d="M142.2,35.8c0,0,0,0,0.1,0c0.1,0,0.2-0.1,0.3-0.1c0.3-0.1,0.8,0,1.3,0.1c1,0.3,2.2,1.3,2.9,2.6
					c0.2,0.3,0.3,0.6,0.5,0.9c0.1,0.3,0.3,0.6,0.5,0.9c0.3,0.6,0.7,1.1,1,1.5c0.3,0.4,0.6,0.7,0.9,0.9c0.2,0.2,0.4,0.3,0.4,0.3
					s-0.2-0.1-0.4-0.2c-0.3-0.2-0.6-0.5-1-0.9c-0.4-0.4-0.7-0.9-1.1-1.5c-0.2-0.3-0.3-0.6-0.5-0.9c-0.2-0.3-0.3-0.6-0.5-0.9
					c-0.7-1.2-1.7-2.2-2.7-2.6c-0.5-0.2-0.9-0.2-1.2-0.2c-0.2,0-0.3,0-0.4,0C142.2,35.8,142.2,35.8,142.2,35.8L142.2,35.8z"/>
			</g>
			<g>
				<path class="st13" d="M143.4,36.3c0,0,0.1,0,0.4,0.1c0.2,0.1,0.6,0.3,0.9,0.6c0.3,0.3,0.6,0.7,0.9,1.1c0.3,0.5,0.5,1,0.8,1.5
					c0.5,1,1.3,1.9,1.9,2.4c0.3,0.3,0.4,0.5,0.6,0.6c0.2,0.1,0.2,0.1,0.2,0.1v0c0,0,0,0-0.2-0.1c-0.2-0.1-0.4-0.3-0.8-0.6
					c-0.7-0.5-1.3-1.4-1.9-2.4c-0.3-0.5-0.5-1-0.8-1.4c-0.3-0.4-0.6-0.8-0.9-1.1c-0.3-0.3-0.6-0.5-0.8-0.6
					C143.5,36.4,143.4,36.4,143.4,36.3L143.4,36.3z"/>
			</g>
		</g>
		<ellipse class="st14" cx="183.4" cy="221.4" rx="1.4" ry="1.4"/>
		<ellipse class="st14" cx="59.5" cy="159.3" rx="1" ry="1.5"/>
		<ellipse class="st14" cx="93" cy="201.1" rx="1.2" ry="0.8"/>
		<ellipse class="st14" cx="100" cy="231.2" rx="2" ry="1"/>
		<ellipse class="st14" cx="131.6" cy="221.4" rx="1.2" ry="1.6"/>
		<ellipse class="st14" cx="147.3" cy="247.6" rx="1.2" ry="0.8"/>
		<ellipse class="st14" cx="164.7" cy="231.2" rx="0.7" ry="1"/>
		<ellipse class="st14" cx="226" cy="159.3" rx="1.1" ry="0.9"/>
		<path class="st14" d="M219.2,185.4c0,0.5-0.7,1-1.6,1c-0.9,0-1.6-0.4-1.6-1c0-0.6,0.7-1,1.6-1
			C218.5,184.4,219.2,184.8,219.2,185.4z"/>
		<ellipse class="st14" cx="237.9" cy="195.2" rx="1.2" ry="1.8"/>
		<ellipse class="st14" cx="210.2" cy="230.2" rx="1.6" ry="1"/>
		<ellipse class="st14" cx="213.4" cy="211.3" rx="1.5" ry="1.5"/>
		<ellipse class="st14" cx="184.8" cy="78.8" rx="1.2" ry="1.1"/>
		<ellipse class="st14" cx="205.3" cy="110.2" rx="1.1" ry="1.4"/>
		<ellipse class="st14" cx="224.9" cy="95.8" rx="1.1" ry="1.2"/>
		<ellipse class="st14" cx="226.8" cy="127" rx="0.8" ry="0.8"/>
		<ellipse class="st14" cx="251" cy="150.9" rx="1.2" ry="1.6"/>
		<ellipse class="st14" cx="242.9" cy="168.2" rx="1.1" ry="1"/>
		<ellipse class="st14" cx="85.6" cy="102.8" rx="1" ry="0.9"/>
		<ellipse class="st14" cx="78.7" cy="173.1" rx="0.6" ry="0.6"/>
	</g>
</g>
</svg>
