<?xml version="1.0" encoding="utf-8"?>
<!-- Generator: Adobe Illustrator 19.2.0, SVG Export Plug-In . SVG Version: 6.00 Build 0)  -->
<svg version="1.1" xmlns="http://www.w3.org/2000/svg" xmlns:xlink="http://www.w3.org/1999/xlink" x="0px" y="0px"
	 viewBox="0 0 366.1 439.6" style="enable-background:new 0 0 366.1 439.6;" xml:space="preserve">
<style type="text/css">
	.st0{fill:#BA9F7A;}
	.st1{fill:#EEE3C8;}
	.st2{fill:#433630;}
	.st3{fill:#221512;}
	.st4{fill:#40322D;}
	.st5{fill:#F1F1F2;}
	.st6{opacity:0.9;fill:url(#SVGID_1_);}
	.st7{opacity:0.8;fill:url(#SVGID_2_);}
	.st8{opacity:0.8;fill:url(#SVGID_3_);}
	.st9{fill:#8A614D;}
	.st10{fill:url(#SVGID_4_);}
	.st11{fill:url(#SVGID_5_);}
	.st12{fill:url(#SVGID_6_);}
	.st13{fill:url(#SVGID_7_);}
</style>
<g id="Layer_1">
	<ellipse class="st0" cx="181.1" cy="286.1" rx="100.4" ry="82"/>
	<path class="st0" d="M84.7,263c0,0,57.9-76.8,56.9-144.7l70.1-1.9c0,0,12.1,71.1,65.8,146.6H84.7z"/>
	<g>
		<path class="st0" d="M280.4,273.7c0,0,19.1,41.6-26.5,120.8l-42,4.4c0,0-9.2-32.4-4.8-38C211.5,355.3,280.4,273.7,280.4,273.7z"/>
		<path class="st0" d="M211.9,399c0,0,14,28,58,8.8c0,0,12.4-12-16-13.2C225.5,393.4,211.9,399,211.9,399z"/>
	</g>
	<g>
		<path class="st0" d="M82.7,273.7c0,0-19.2,41.6,26.5,120.8l42,4.4c0,0,9.2-32.4,4.8-38C151.5,355.3,82.7,273.7,82.7,273.7z"/>
		<path class="st0" d="M151.1,399c0,0-14,28-58,8.8c0,0-12.4-12,16-13.2C137.5,393.4,151.1,399,151.1,399z"/>
	</g>
	<path class="st0" d="M247.2,74.1c-4.1,41.9-55.3,53.1-90.5,47.4c-5.2-0.6-10.3-1.6-15.1-3.2c-14.4-4.6-26.4-13.9-33-29.5
		c-14.4-36.8,30.4-67.2,64-66.4c5.2-0.3,10.5-0.1,15.7,0.4c22.7,3.5,46.8,14.7,56.1,37.8C246.1,65,247.1,69.5,247.2,74.1z"/>
	<path class="st1" d="M237.3,75.5c-9.2,34.2-49.2,40.6-79.1,36.9c-4.6-0.6-9-1.6-13.2-2.8c-20.8-6.4-35.2-28.8-27.2-49.6
		c6.4-15.2,18.4-24,32.4-28.6c4.7-1.5,9.6-2.6,14.5-3.3c28.3-4.9,60.3,6.3,70.8,35.3C236.8,67.4,237.5,71.4,237.3,75.5z"/>
	<path class="st2" d="M130.3,59.6c0,0-12-0.4-14.8,13c0,0,10.4-11.2,18.4-6.5C141.9,70.9,130.3,59.6,130.3,59.6z"/>
	<circle class="st3" cx="136.7" cy="62.4" r="7.2"/>
	<path class="st2" d="M222.6,59.6c0,0,12-0.4,14.8,13c0,0-10.4-11.2-18.4-6.5C211,70.9,222.6,59.6,222.6,59.6z"/>
	<circle class="st3" cx="216.1" cy="62.4" r="7.2"/>
	<path class="st4" d="M177.3,62l-2.8,0l0,0c-10.7-0.1-14.1,5.7-14.2,10.1c-0.1,3.2,10.7,8.7,15.4,10.9c0,0,0.5,0.6,1.7,0
		c4.7-2.2,15.5-7.8,15.4-10.9C192.5,67.5,188.9,61.5,177.3,62z"/>
	<g>
		<path class="st4" d="M136.7,83.3c0,0,1.1,0.7,3.1,1.8c2,1.1,4.9,2.4,8.6,3.7c1.8,0.7,3.8,1.3,6,1.8c2.1,0.6,4.4,1,6.8,1.4
			c2.4,0.4,4.9,0.7,7.4,0.8c2.5,0.2,5.1,0.2,7.7,0.1c1.3-0.1,2.6-0.1,3.9-0.2c1.3-0.1,2.6-0.2,3.8-0.4c2.5-0.3,5-0.7,7.4-1.2
			c1.2-0.3,2.3-0.5,3.5-0.8c1.1-0.3,2.2-0.6,3.3-0.8c1.1-0.3,2.1-0.6,3.1-0.9c1-0.3,2-0.6,2.9-0.9c1.8-0.6,3.5-1.2,5-1.8
			c1.5-0.6,2.8-1,3.8-1.5c2.1-0.9,3.3-1.4,3.3-1.4s-1.2,0.6-3.2,1.6c-1,0.5-2.3,1.1-3.7,1.7c-1.4,0.7-3.1,1.3-4.9,2
			c-0.9,0.4-1.9,0.7-2.9,1c-1,0.3-2,0.7-3.1,1c-1.1,0.3-2.2,0.6-3.3,0.9c-1.1,0.3-2.3,0.5-3.5,0.8c-2.4,0.5-4.9,0.9-7.4,1.2
			c-1.3,0.2-2.6,0.3-3.9,0.4c-1.3,0.1-2.6,0.1-3.9,0.2c-2.6,0-5.2,0-7.8-0.2c-2.6-0.2-5.1-0.5-7.5-0.9c-2.4-0.4-4.7-1-6.9-1.6
			c-2.2-0.6-4.2-1.3-6-2c-3.7-1.4-6.5-2.9-8.5-4.1C137.7,84.1,136.7,83.3,136.7,83.3z"/>
	</g>
	<g>
		<path class="st4" d="M176.4,93.6c0,0-0.1-0.5-0.1-1.4c0-0.4-0.1-0.9-0.1-1.4c0-0.5,0-1.1,0-1.6c0-0.5,0-1.1,0.1-1.6
			c0-0.5,0.1-1,0.1-1.4c0.1-0.8,0.2-1.4,0.2-1.4s0.1,0.5,0.1,1.4c0,0.4,0.1,0.9,0.1,1.4c0,0.5,0,1.1,0,1.6c0,0.5,0,1.1-0.1,1.6
			c0,0.5-0.1,1-0.1,1.4C176.5,93,176.4,93.6,176.4,93.6z"/>
	</g>
	<g>
		<path class="st3" d="M129.5,30.6c0,0,0.2-0.3,0.5-0.9c0.2-0.3,0.4-0.6,0.6-1c0.3-0.4,0.5-0.8,1-1.2c0.4-0.4,0.8-0.9,1.3-1.3
			c0.5-0.5,1-0.9,1.7-1.3c0.3-0.2,0.6-0.4,1-0.5c0.3-0.2,0.7-0.4,1-0.5c0.7-0.3,1.5-0.5,2.2-0.7c0.8-0.1,1.5-0.2,2.3-0.2
			c0.4,0,0.8,0,1.1,0c0.4,0,0.7,0,1.1,0.1c0.7,0.1,1.4,0.3,2,0.5c0.6,0.2,1.2,0.4,1.7,0.6c0.5,0.2,1,0.5,1.4,0.7
			c0.4,0.2,0.8,0.4,1,0.6c0.6,0.4,0.9,0.6,0.9,0.6s-0.4-0.1-1-0.4c-0.3-0.1-0.7-0.3-1.1-0.4c-0.4-0.1-0.9-0.4-1.4-0.5
			c-0.5-0.2-1.1-0.3-1.7-0.5c-0.6-0.2-1.3-0.2-2-0.3c-0.3-0.1-0.7,0-1-0.1c-0.4,0-0.7,0-1.1,0c-0.7,0-1.4,0.1-2.1,0.2
			c-0.7,0.2-1.4,0.3-2.1,0.6c-0.3,0.1-0.7,0.3-1,0.4c-0.3,0.2-0.6,0.3-0.9,0.5c-0.6,0.4-1.1,0.7-1.6,1.1c-0.5,0.4-0.9,0.8-1.4,1.2
			c-0.4,0.4-0.7,0.8-1.1,1.1c-0.3,0.3-0.6,0.6-0.8,0.9C129.8,30.4,129.5,30.6,129.5,30.6z"/>
	</g>
	<g>
		<path class="st3" d="M219.4,30.6c0,0-0.2-0.3-0.7-0.8c-0.2-0.3-0.4-0.6-0.8-0.9c-0.3-0.3-0.6-0.7-1.1-1.1
			c-0.4-0.4-0.8-0.8-1.4-1.2c-0.5-0.4-1.1-0.7-1.6-1.1c-0.3-0.2-0.6-0.3-0.9-0.5c-0.3-0.2-0.6-0.3-1-0.4c-0.7-0.3-1.4-0.4-2.1-0.6
			c-0.7-0.1-1.4-0.2-2.1-0.2c-0.4,0-0.7,0-1.1,0c-0.3,0-0.7,0-1,0.1c-0.7,0.1-1.3,0.2-2,0.3c-0.6,0.1-1.2,0.3-1.7,0.5
			c-0.5,0.1-1,0.4-1.4,0.5c-0.4,0.1-0.8,0.3-1.1,0.4c-0.6,0.3-1,0.4-1,0.4s0.3-0.2,0.9-0.6c0.3-0.2,0.6-0.4,1-0.6
			c0.4-0.2,0.9-0.5,1.4-0.7c0.5-0.2,1.1-0.5,1.7-0.6c0.6-0.2,1.3-0.4,2-0.5c0.4-0.1,0.7-0.1,1.1-0.1c0.4,0,0.7-0.1,1.1,0
			c0.8,0,1.5,0.1,2.3,0.2c0.8,0.2,1.5,0.4,2.2,0.7c0.4,0.1,0.7,0.3,1,0.5c0.3,0.2,0.7,0.3,1,0.5c0.6,0.4,1.2,0.8,1.7,1.3
			c0.5,0.4,0.9,0.9,1.3,1.3c0.4,0.4,0.7,0.9,1,1.2c0.3,0.4,0.5,0.7,0.6,1C219.2,30.3,219.4,30.6,219.4,30.6z"/>
	</g>
	<ellipse class="st5" cx="139.6" cy="59.4" rx="1.5" ry="1.4"/>
	<ellipse class="st5" cx="219.4" cy="59.4" rx="1.5" ry="1.4"/>
	<g>
		<g>
			<path class="st3" d="M249.8,409.8c0,0,0.4-0.2,1.2-0.4c0.7-0.2,1.8-0.5,3.1-0.7c1.3-0.2,2.9-0.4,4.5-0.4c1.7,0,3.5,0.1,5.2,0.4
				c0.9,0.2,1.8,0.4,2.6,0.7c0.9,0.3,1.7,0.6,2.4,1c1.5,0.8,2.8,1.8,3.6,2.9c0.2,0.3,0.4,0.5,0.6,0.8c0.2,0.3,0.3,0.5,0.5,0.7
				c0.3,0.5,0.5,0.9,0.6,1.3c0.3,0.7,0.4,1.1,0.4,1.1s-0.2-0.4-0.6-1c-0.2-0.3-0.5-0.7-0.8-1.1c-0.3-0.4-0.7-0.9-1.2-1.3
				c-0.5-0.4-1-0.9-1.6-1.3c-0.6-0.4-1.3-0.8-2-1.1c-0.7-0.3-1.5-0.6-2.3-0.9c-0.8-0.3-1.6-0.4-2.5-0.6c-0.8-0.2-1.7-0.3-2.5-0.4
				c-0.8-0.1-1.7-0.1-2.5-0.2c-1.6-0.1-3.2,0-4.5,0.1c-1.3,0.1-2.4,0.2-3.2,0.3C250.2,409.8,249.8,409.8,249.8,409.8z"/>
		</g>
		<g>
			<path class="st3" d="M260,405.6c0,0,1.4-0.6,3.6-1c1.1-0.2,2.5-0.4,3.9-0.4c1.4,0,3,0.1,4.5,0.5c0.8,0.2,1.5,0.5,2.2,0.8
				c0.7,0.3,1.4,0.7,2,1.1c1.2,0.9,2.1,1.9,2.7,2.9c0.3,0.5,0.5,1,0.7,1.4c0.2,0.4,0.3,0.8,0.4,1.1c0.2,0.6,0.3,1,0.3,1
				s-0.2-0.3-0.5-0.9c-0.1-0.3-0.4-0.6-0.6-1c-0.3-0.4-0.5-0.8-0.9-1.2c-0.7-0.9-1.6-1.8-2.7-2.5c-0.6-0.4-1.2-0.7-1.8-1
				c-0.7-0.3-1.3-0.5-2-0.7c-0.7-0.2-1.4-0.3-2.1-0.4c-0.7-0.1-1.4-0.2-2.1-0.2c-1.4-0.1-2.7,0-3.8,0.1c-1.1,0.1-2,0.2-2.7,0.3
				C260.3,405.6,260,405.6,260,405.6z"/>
		</g>
		<g>
			<path class="st3" d="M270.1,401.5c0,0,0.3-0.2,0.9-0.3c0.6-0.2,1.4-0.5,2.4-0.7c0.5-0.1,1.1-0.2,1.7-0.3c0.6-0.1,1.2-0.1,1.9-0.1
				c0.7,0,1.3,0.1,2,0.1c0.7,0.1,1.4,0.3,2,0.5c0.7,0.3,1.3,0.5,1.9,0.9c0.3,0.2,0.6,0.4,0.9,0.5c0.3,0.2,0.5,0.4,0.8,0.7
				c0.2,0.2,0.5,0.4,0.7,0.7c0.2,0.3,0.4,0.5,0.6,0.7c0.2,0.2,0.4,0.5,0.5,0.7c0.1,0.3,0.3,0.5,0.4,0.7c0.2,0.5,0.5,0.9,0.6,1.3
				c0.1,0.4,0.2,0.8,0.3,1c0.2,0.6,0.2,0.9,0.2,0.9s-0.2-0.3-0.4-0.8c-0.1-0.3-0.3-0.6-0.4-1c-0.2-0.4-0.5-0.7-0.7-1.2
				c-0.1-0.2-0.3-0.4-0.4-0.6c-0.2-0.2-0.4-0.4-0.5-0.6c-0.2-0.2-0.4-0.4-0.6-0.6c-0.2-0.2-0.5-0.4-0.7-0.6
				c-0.2-0.2-0.5-0.4-0.7-0.6c-0.3-0.2-0.6-0.3-0.8-0.5c-0.5-0.4-1.2-0.5-1.8-0.8c-0.6-0.2-1.3-0.4-1.9-0.5
				c-0.6-0.1-1.3-0.2-1.9-0.2c-0.6-0.1-1.2,0-1.8,0c-0.6,0-1.1,0.1-1.6,0.1c-0.5,0.1-1,0.1-1.4,0.2c-0.4,0.1-0.8,0.1-1.1,0.2
				C270.5,401.4,270.1,401.5,270.1,401.5z"/>
		</g>
	</g>
	<g>
		<path class="st3" d="M112.1,409.8c0,0-0.4-0.1-1.2-0.1c-0.8-0.1-1.9-0.2-3.2-0.3c-1.3-0.1-2.8-0.1-4.5-0.1c-0.8,0-1.7,0.1-2.5,0.2
			c-0.8,0.1-1.7,0.2-2.5,0.4c-0.8,0.2-1.7,0.3-2.5,0.6c-0.8,0.2-1.6,0.5-2.3,0.9c-0.7,0.4-1.4,0.7-2,1.1c-0.6,0.4-1.1,0.9-1.6,1.3
			c-0.5,0.4-0.9,0.9-1.2,1.3c-0.3,0.4-0.6,0.8-0.8,1.1c-0.4,0.7-0.6,1-0.6,1s0.1-0.4,0.4-1.1c0.2-0.3,0.4-0.8,0.6-1.3
			c0.1-0.2,0.3-0.5,0.5-0.7c0.2-0.3,0.4-0.5,0.6-0.8c0.9-1,2.1-2.1,3.6-2.9c0.8-0.4,1.6-0.8,2.4-1c0.8-0.3,1.7-0.5,2.6-0.7
			c1.8-0.3,3.6-0.4,5.2-0.4c1.7,0,3.2,0.2,4.5,0.4c1.3,0.2,2.4,0.5,3.1,0.7C111.6,409.7,112.1,409.8,112.1,409.8z"/>
	</g>
	<g>
		<path class="st3" d="M101.9,405.6c0,0-0.4-0.1-1-0.2c-0.6-0.1-1.6-0.2-2.7-0.3c-1.1-0.1-2.4-0.1-3.8-0.1c-0.7,0-1.4,0.1-2.1,0.2
			c-0.7,0.1-1.4,0.2-2.1,0.4c-0.7,0.2-1.4,0.4-2,0.7c-0.7,0.3-1.3,0.6-1.8,1c-1.1,0.7-2.1,1.6-2.7,2.5c-0.4,0.4-0.6,0.9-0.9,1.2
			c-0.2,0.4-0.4,0.7-0.6,1c-0.3,0.6-0.5,0.9-0.5,0.9s0.1-0.4,0.3-1c0.1-0.3,0.3-0.7,0.4-1.1c0.2-0.4,0.4-0.9,0.7-1.4
			c0.6-1,1.5-2,2.7-2.9c0.6-0.4,1.2-0.8,2-1.1c0.7-0.3,1.4-0.6,2.2-0.8c1.5-0.4,3.1-0.5,4.5-0.5c1.4,0,2.8,0.2,3.9,0.4
			C100.5,405.1,101.9,405.6,101.9,405.6z"/>
	</g>
	<g>
		<path class="st3" d="M91.7,401.5c0,0-0.3-0.1-0.9-0.2c-0.3-0.1-0.6-0.1-1.1-0.2c-0.4-0.1-0.9-0.1-1.4-0.2c-0.5,0-1-0.1-1.6-0.1
			c-0.6,0-1.2,0-1.8,0c-0.6,0-1.3,0.1-1.9,0.2c-0.6,0.1-1.3,0.3-1.9,0.5c-0.6,0.3-1.2,0.4-1.8,0.8c-0.3,0.2-0.6,0.3-0.8,0.5
			c-0.2,0.2-0.5,0.4-0.7,0.6c-0.2,0.2-0.5,0.4-0.7,0.6c-0.2,0.2-0.4,0.4-0.6,0.6c-0.2,0.2-0.4,0.4-0.5,0.6c-0.1,0.2-0.3,0.4-0.4,0.6
			c-0.3,0.4-0.6,0.8-0.7,1.2c-0.2,0.4-0.3,0.7-0.4,1c-0.3,0.5-0.4,0.8-0.4,0.8s0.1-0.3,0.2-0.9c0.1-0.3,0.2-0.6,0.3-1
			c0.1-0.4,0.4-0.8,0.6-1.3c0.1-0.2,0.2-0.5,0.4-0.7c0.1-0.2,0.3-0.5,0.5-0.7c0.2-0.2,0.4-0.5,0.6-0.7c0.2-0.3,0.5-0.4,0.7-0.7
			c0.3-0.2,0.5-0.4,0.8-0.7c0.3-0.2,0.6-0.4,0.9-0.5c0.6-0.4,1.3-0.6,1.9-0.9c0.7-0.2,1.4-0.4,2-0.5c0.7-0.1,1.4-0.2,2-0.1
			c0.7,0,1.3,0,1.9,0.1c0.6,0,1.1,0.2,1.7,0.3c1,0.2,1.8,0.5,2.4,0.7C91.4,401.3,91.7,401.5,91.7,401.5z"/>
	</g>
	<linearGradient id="SVGID_1_" gradientUnits="userSpaceOnUse" x1="177.4064" y1="119.0054" x2="177.4064" y2="133.2967">
		<stop  offset="0.2167" style="stop-color:#8C614D"/>
		<stop  offset="1" style="stop-color:#F1F1F2;stop-opacity:0"/>
	</linearGradient>
	<path class="st6" d="M141.6,118.4c0,0,40.1,11.2,70.1-1.9l2.1,8.4c0,0-34.1,27.7-72.9,0L141.6,118.4z"/>
	<linearGradient id="SVGID_2_" gradientUnits="userSpaceOnUse" x1="130.6856" y1="170.5541" x2="130.6856" y2="192.556">
		<stop  offset="0.2167" style="stop-color:#8C614D"/>
		<stop  offset="1" style="stop-color:#F1F1F2;stop-opacity:0"/>
	</linearGradient>
	<path class="st7" d="M132.7,171.2c0,0,0.8-1.4,4.1,0l-12.1,21.4L132.7,171.2z"/>
	
		<linearGradient id="SVGID_3_" gradientUnits="userSpaceOnUse" x1="353.3806" y1="162.0878" x2="353.3806" y2="184.5885" gradientTransform="matrix(-0.992 0.1262 0.1262 0.992 559.3461 -34.5127)">
		<stop  offset="0.2167" style="stop-color:#8C614D"/>
		<stop  offset="1" style="stop-color:#F1F1F2;stop-opacity:0"/>
	</linearGradient>
	<path class="st8" d="M228.4,171.6c0,0-0.9-1.3-4,0.5l12.8,20.4L228.4,171.6z"/>
	<g>
		<path class="st9" d="M130.7,236.2c0,0,1.3-0.8,3.7-1.9c1.2-0.6,2.7-1.3,4.4-2c1.7-0.7,3.7-1.5,5.8-2.3c2.2-0.8,4.5-1.6,7.1-2.3
			c2.5-0.7,5.2-1.4,8.1-2c2.8-0.6,5.8-1.1,8.8-1.5c3-0.4,6.1-0.7,9.2-0.8c1.5-0.1,3.1-0.1,4.6-0.1c1.5,0,3.1,0.1,4.6,0.2
			c3,0.2,6,0.6,8.9,1c1.4,0.2,2.8,0.6,4.2,0.8c1.4,0.3,2.7,0.7,3.9,1c2.5,0.8,4.9,1.6,7,2.5c0.5,0.2,1.1,0.4,1.6,0.6
			c0.5,0.2,1,0.5,1.5,0.7c0.9,0.5,1.8,0.9,2.7,1.3c1.6,0.9,3.1,1.7,4.2,2.4c2.2,1.5,3.5,2.3,3.5,2.3s-1.4-0.7-3.7-2
			c-1.2-0.6-2.7-1.3-4.3-2.1c-0.9-0.3-1.8-0.7-2.7-1.1c-0.5-0.2-1-0.4-1.5-0.6c-0.5-0.2-1-0.4-1.6-0.5c-2.1-0.8-4.5-1.4-7-2.1
			c-1.3-0.3-2.6-0.6-3.9-0.9c-1.3-0.2-2.7-0.5-4.1-0.7c-2.8-0.4-5.7-0.7-8.7-0.8c-1.5-0.1-3-0.1-4.5-0.1c-0.8,0-1.5,0-2.3,0
			l-2.3,0.1c-3,0.1-6,0.4-9,0.7c-3,0.4-5.9,0.8-8.7,1.3c-2.8,0.5-5.5,1.1-8,1.7c-2.5,0.6-4.9,1.3-7.1,1.9c-4.4,1.3-8,2.6-10.5,3.5
			c-1.2,0.5-2.2,0.9-2.9,1.1C131,236.1,130.7,236.2,130.7,236.2z"/>
	</g>
	<linearGradient id="SVGID_4_" gradientUnits="userSpaceOnUse" x1="157.2081" y1="368.0329" x2="146.7643" y2="375.7287">
		<stop  offset="0.2167" style="stop-color:#8C614D"/>
		<stop  offset="1" style="stop-color:#F1F1F2;stop-opacity:0"/>
	</linearGradient>
	<path class="st10" d="M157.1,365.8c0,0-4.2-1.6-17-4.8c0,0,14,26.1,13.3,29.2C152.6,393.3,158.3,370.6,157.1,365.8z"/>
	
		<linearGradient id="SVGID_5_" gradientUnits="userSpaceOnUse" x1="291.8939" y1="368.0329" x2="281.45" y2="375.7287" gradientTransform="matrix(-1 0 0 1 497.8594 0)">
		<stop  offset="0.2167" style="stop-color:#8C614D"/>
		<stop  offset="1" style="stop-color:#F1F1F2;stop-opacity:0"/>
	</linearGradient>
	<path class="st11" d="M206.1,365.8c0,0,4.2-1.6,17-4.8c0,0-14,26.1-13.3,29.2C210.5,393.3,204.9,370.6,206.1,365.8z"/>
	<linearGradient id="SVGID_6_" gradientUnits="userSpaceOnUse" x1="170.3627" y1="72.7081" x2="166.652" y2="76.9687">
		<stop  offset="0.2167" style="stop-color:#8C614D"/>
		<stop  offset="1" style="stop-color:#F1F1F2;stop-opacity:0"/>
	</linearGradient>
	<path class="st12" d="M164.7,73.6c0,0,4.9-2.3,6.6,3.7"/>
	
		<linearGradient id="SVGID_7_" gradientUnits="userSpaceOnUse" x1="339.2404" y1="72.7081" x2="335.5297" y2="76.9687" gradientTransform="matrix(-1 0 0 1 521.25 0)">
		<stop  offset="0.2167" style="stop-color:#8C614D"/>
		<stop  offset="1" style="stop-color:#F1F1F2;stop-opacity:0"/>
	</linearGradient>
	<path class="st13" d="M187.7,73.6c0,0-4.9-2.3-6.6,3.7"/>
</g>
<g id="braco1">
	<g>
		<g>
			<g>
				<path class="st3" d="M291.5,302.5c0,0-0.6,1.3-1.4,3.1c-0.2,0.5-0.4,1-0.6,1.5c-0.2,0.5-0.4,1.1-0.6,1.7
					c-0.2,0.6-0.4,1.2-0.6,1.8c-0.2,0.6-0.4,1.3-0.5,1.9c-0.1,0.6-0.3,1.3-0.4,1.9c-0.1,0.6-0.3,1.3-0.3,1.9
					c-0.1,0.6-0.2,1.2-0.1,1.8c0,0.6-0.1,1.1,0,1.6c0,0.5,0,1,0,1.4c0.1,0.4,0.1,0.8,0.1,1.1c0.1,0.6,0.1,1,0.1,1s-0.2-0.3-0.5-0.8
					c-0.1-0.3-0.3-0.6-0.5-1c-0.1-0.4-0.3-0.9-0.4-1.4c-0.2-0.5-0.2-1.1-0.3-1.7c-0.1-0.6-0.1-1.3-0.1-1.9c0-0.7,0-1.4,0.1-2.1
					c0.1-0.7,0.3-1.4,0.4-2.1c0.2-0.7,0.4-1.4,0.6-2c0.3-0.6,0.5-1.3,0.8-1.9c0.3-0.6,0.6-1.2,0.9-1.7c0.3-0.5,0.6-1,0.9-1.4
					C290.4,303.4,291.5,302.5,291.5,302.5z"/>
			</g>
			<g>
				<path class="st3" d="M304.9,325c0,0,0.9,1.2,1.6,3.2c0.2,0.5,0.4,1.1,0.5,1.7c0.1,0.6,0.3,1.2,0.4,1.9c0.1,0.7,0.2,1.3,0.3,2.1
					c0.1,0.7,0.1,1.4,0.1,2.1c0,0.7-0.1,1.4-0.1,2.1c-0.1,0.7-0.2,1.4-0.3,2c-0.1,0.7-0.3,1.3-0.4,1.9c-0.1,0.6-0.4,1.1-0.5,1.6
					c-0.2,0.5-0.3,1-0.5,1.4c-0.2,0.4-0.4,0.7-0.5,1c-0.3,0.6-0.5,0.9-0.5,0.9s0-0.4,0.1-1c0-0.3,0.1-0.7,0.1-1.1
					c0.1-0.4,0.1-0.9,0.2-1.4c0-0.5,0.1-1.1,0.2-1.7c0.1-0.6,0.1-1.2,0.2-1.8c0-0.6,0.1-1.3,0.1-2c0-0.7,0.1-1.3,0-2
					c0-0.7,0-1.4,0-2c0-0.7,0-1.3-0.1-2c0-0.6-0.1-1.3-0.1-1.8c-0.1-0.6-0.1-1.1-0.2-1.6C305.2,326.4,304.9,325,304.9,325z"/>
			</g>
			<g>
				<path class="st3" d="M326.7,321.8c0,0,0.9,1.2,1.6,3.2c0.2,0.5,0.4,1.1,0.5,1.7c0.1,0.6,0.3,1.2,0.4,1.9
					c0.1,0.7,0.2,1.3,0.3,2.1c0.1,0.7,0.1,1.4,0.1,2.1c0,0.7-0.1,1.4-0.1,2.1c-0.1,0.7-0.2,1.4-0.3,2c-0.1,0.7-0.3,1.3-0.4,1.9
					c-0.1,0.6-0.4,1.1-0.5,1.6c-0.2,0.5-0.3,1-0.5,1.4c-0.2,0.4-0.4,0.7-0.5,1c-0.3,0.6-0.5,0.9-0.5,0.9s0-0.4,0.1-1
					c0-0.3,0.1-0.7,0.1-1.1c0.1-0.4,0.1-0.9,0.2-1.4c0-0.5,0.1-1.1,0.2-1.7c0.1-0.6,0.1-1.2,0.2-1.8c0-0.6,0.1-1.3,0.1-2
					c0-0.7,0.1-1.3,0-2c0-0.7,0-1.4,0-2c0-0.7,0-1.3-0.1-2c0-0.6-0.1-1.3-0.1-1.8c-0.1-0.6-0.1-1.1-0.2-1.6
					C326.9,323.2,326.7,321.8,326.7,321.8z"/>
			</g>
			<g>
				<path class="st3" d="M334.6,314.9c0,0,1.1,0.9,2.1,2.8c0.3,0.4,0.5,0.9,0.8,1.5c0.2,0.5,0.5,1.1,0.7,1.7
					c0.2,0.6,0.5,1.3,0.6,1.9c0.2,0.7,0.3,1.4,0.5,2c0.1,0.7,0.2,1.4,0.3,2.1c0.1,0.7,0.1,1.4,0.1,2c0,0.7-0.1,1.3-0.1,1.9
					c0,0.6-0.1,1.2-0.2,1.7c-0.1,0.5-0.2,1-0.3,1.4c-0.1,0.4-0.2,0.8-0.3,1.1c-0.2,0.6-0.3,0.9-0.3,0.9s0-0.4-0.1-1
					c0-0.3,0-0.7-0.1-1.1c0-0.4-0.1-0.9-0.1-1.4c0-0.5-0.1-1-0.1-1.6c-0.1-0.6-0.1-1.2-0.2-1.8c-0.1-0.6-0.2-1.3-0.2-1.9
					c-0.1-0.6-0.2-1.3-0.3-1.9c-0.1-0.6-0.2-1.3-0.4-1.9c-0.1-0.6-0.3-1.3-0.4-1.9c-0.2-0.6-0.3-1.2-0.5-1.7
					c-0.2-0.5-0.3-1.1-0.5-1.6C335.1,316.2,334.6,314.9,334.6,314.9z"/>
			</g>
			<g>
				<path class="st3" d="M315.5,324.4c0,0,0.9,1.5,1.6,4c0.2,0.6,0.4,1.3,0.5,2c0.1,0.7,0.3,1.5,0.4,2.3c0.1,0.8,0.2,1.6,0.3,2.5
					c0.1,0.8,0.1,1.7,0.1,2.6c0,0.9-0.1,1.7-0.1,2.6c0,0.8-0.2,1.7-0.3,2.5c-0.1,0.8-0.3,1.6-0.4,2.3c-0.1,0.7-0.4,1.4-0.5,2
					c-0.2,0.6-0.3,1.2-0.5,1.7c-0.2,0.5-0.4,0.9-0.5,1.3c-0.3,0.7-0.5,1.1-0.5,1.1s0-0.4,0.1-1.2c0-0.4,0.1-0.8,0.1-1.3
					c0.1-0.5,0.1-1.1,0.2-1.7c0-0.6,0.1-1.3,0.2-2c0.1-0.7,0.1-1.5,0.2-2.2c0.1-1.6,0.2-3.2,0.2-4.9c0-0.8,0-1.7,0-2.5
					c0-0.4,0-0.8,0-1.2c0-0.4,0-0.8-0.1-1.2c-0.1-1.6-0.2-3-0.3-4.3C315.8,326.1,315.5,324.4,315.5,324.4z"/>
			</g>
		</g>
		<path class="st0" d="M213.4,125.1c0,0,74.9,57.2,98.7,88.1c12.7,16.5,60.2,105.7,3.4,114.8c-33.8,5.4-26.3-44.4-30.2-72.8
			c-3.4-24.2-46.1-82.7-57.4-83.2C216.7,171.5,208.8,126.6,213.4,125.1z"/>
	</g>
</g>
<g id="braco2">
	<g>
		<g>
			<g>
				<path class="st3" d="M73.3,313.5c0,0,1.1,0.9,2.4,2.6c0.3,0.4,0.7,0.9,0.9,1.4c0.3,0.5,0.6,1.1,0.9,1.7c0.3,0.6,0.6,1.2,0.8,1.9
					c0.2,0.7,0.5,1.3,0.6,2c0.1,0.7,0.3,1.4,0.4,2.1c0.1,0.7,0.2,1.4,0.1,2.1c0,0.7,0,1.3-0.1,1.9c-0.1,0.6-0.1,1.2-0.3,1.7
					c-0.1,0.5-0.3,1-0.4,1.4c-0.2,0.4-0.4,0.7-0.5,1c-0.3,0.5-0.5,0.8-0.5,0.8s0-0.4,0.1-1c0-0.3,0.1-0.7,0.1-1.1c0-0.4,0-0.9,0-1.4
					c0-0.5,0-1,0-1.6c0-0.6-0.1-1.2-0.1-1.8c0-0.6-0.2-1.2-0.3-1.9c-0.1-0.6-0.3-1.3-0.4-1.9c-0.2-0.6-0.4-1.3-0.5-1.9
					c-0.2-0.6-0.4-1.2-0.6-1.8c-0.2-0.6-0.4-1.2-0.6-1.7c-0.2-0.5-0.4-1-0.6-1.5C73.9,314.7,73.3,313.5,73.3,313.5z"/>
			</g>
			<g>
				<path class="st3" d="M59.8,335.9c0,0-0.2,1.4-0.5,3.5c-0.1,0.5-0.1,1.1-0.2,1.6c0,0.6-0.1,1.2-0.1,1.8c-0.1,0.6-0.1,1.3-0.1,2
					c0,0.7,0,1.3,0,2c0,0.7,0,1.4,0,2c0,0.7,0.1,1.3,0.1,2c0.1,0.6,0.1,1.3,0.2,1.8c0,0.6,0.1,1.1,0.2,1.7c0.1,0.5,0.1,1,0.2,1.4
					c0.1,0.4,0.1,0.8,0.1,1.1c0.1,0.6,0.1,1,0.1,1s-0.2-0.3-0.5-0.9c-0.1-0.3-0.3-0.6-0.5-1c-0.2-0.4-0.4-0.9-0.5-1.4
					c-0.2-0.5-0.4-1-0.5-1.6c-0.1-0.6-0.3-1.2-0.4-1.9c-0.1-0.7-0.2-1.3-0.3-2c0-0.7-0.1-1.4-0.1-2.1c0-0.7,0-1.4,0.1-2.1
					c0-0.7,0.2-1.4,0.3-2.1c0.1-0.7,0.3-1.3,0.4-1.9c0.2-0.6,0.3-1.2,0.5-1.7C59,337.1,59.8,335.9,59.8,335.9z"/>
			</g>
			<g>
				<path class="st3" d="M38.1,332.7c0,0-0.2,1.4-0.5,3.5c-0.1,0.5-0.1,1.1-0.2,1.6c0,0.6-0.1,1.2-0.1,1.8c-0.1,0.6-0.1,1.3-0.1,2
					c0,0.7,0,1.3,0,2c0,0.7,0,1.4,0,2c0,0.7,0.1,1.3,0.1,2c0.1,0.6,0.1,1.3,0.2,1.8c0,0.6,0.1,1.1,0.2,1.7c0.1,0.5,0.1,1,0.2,1.4
					c0.1,0.4,0.1,0.8,0.1,1.1c0.1,0.6,0.1,1,0.1,1s-0.2-0.3-0.5-0.9c-0.1-0.3-0.3-0.6-0.5-1c-0.2-0.4-0.4-0.9-0.5-1.4
					c-0.2-0.5-0.4-1-0.5-1.6c-0.1-0.6-0.3-1.2-0.4-1.9c-0.1-0.7-0.2-1.3-0.3-2c0-0.7-0.1-1.4-0.1-2.1c0-0.7,0-1.4,0.1-2.1
					c0-0.7,0.2-1.4,0.3-2.1c0.1-0.7,0.3-1.3,0.4-1.9c0.2-0.6,0.3-1.2,0.5-1.7C37.2,333.9,38.1,332.7,38.1,332.7z"/>
			</g>
			<g>
				<path class="st3" d="M30.2,325.9c0,0-0.5,1.3-1.1,3.2c-0.2,0.5-0.3,1-0.5,1.6c-0.1,0.6-0.3,1.1-0.5,1.7
					c-0.2,0.6-0.3,1.2-0.4,1.9c-0.2,0.6-0.3,1.3-0.4,1.9c-0.1,0.6-0.2,1.3-0.3,1.9c-0.1,0.6-0.2,1.3-0.2,1.9
					c-0.1,0.6-0.1,1.2-0.2,1.8c-0.1,0.6-0.1,1.1-0.1,1.6c0,0.5-0.1,1-0.1,1.4c0,0.4,0,0.8-0.1,1.1c0,0.6-0.1,1-0.1,1
					s-0.1-0.3-0.3-0.9c-0.1-0.3-0.2-0.6-0.3-1.1c-0.1-0.4-0.2-0.9-0.3-1.4c-0.1-0.5-0.2-1.1-0.2-1.7c0-0.6-0.1-1.2-0.1-1.9
					c0-0.7,0-1.3,0.1-2c0.1-0.7,0.1-1.4,0.3-2.1c0.1-0.7,0.3-1.4,0.5-2c0.2-0.7,0.4-1.3,0.6-1.9c0.2-0.6,0.5-1.2,0.7-1.7
					c0.3-0.5,0.5-1,0.8-1.5C29.1,326.8,30.2,325.9,30.2,325.9z"/>
			</g>
			<g>
				<path class="st3" d="M49.2,335.4c0,0-0.3,1.7-0.5,4.2c-0.1,1.3-0.2,2.7-0.3,4.3c0,0.4,0,0.8-0.1,1.2c0,0.4,0,0.8,0,1.2
					c0,0.8,0,1.6,0,2.5c0,1.7,0.1,3.3,0.2,4.9c0.1,0.8,0.1,1.5,0.2,2.2c0,0.7,0.1,1.4,0.2,2c0.1,0.6,0.1,1.2,0.2,1.7
					c0.1,0.5,0.1,1,0.1,1.3c0.1,0.7,0.1,1.2,0.1,1.2s-0.2-0.4-0.5-1.1c-0.1-0.3-0.3-0.8-0.5-1.3c-0.2-0.5-0.4-1.1-0.5-1.7
					c-0.2-0.6-0.4-1.3-0.5-2c-0.1-0.7-0.3-1.5-0.4-2.3c-0.1-0.8-0.2-1.6-0.3-2.5c0-0.8-0.1-1.7-0.1-2.6c0-0.9,0-1.7,0.1-2.6
					c0-0.8,0.1-1.7,0.3-2.5c0.1-0.8,0.3-1.6,0.4-2.3c0.2-0.7,0.3-1.4,0.5-2C48.3,336.9,49.2,335.4,49.2,335.4z"/>
			</g>
		</g>
		<path class="st0" d="M141.6,124.9c0,0-71.5,61.4-93.5,93.7c-11.7,17.2-54,109,3.2,114.8c34,3.5,23.7-45.9,26-74.4
			c2-24.4,42.9-87.9,55.4-87.8C143.9,171.3,146.2,126,141.6,124.9z"/>
	</g>
</g>
</svg>
