<?xml version="1.0" encoding="utf-8"?>
<!-- Generator: Adobe Illustrator 19.2.0, SVG Export Plug-In . SVG Version: 6.00 Build 0)  -->
<svg version="1.1" id="Layer_1" xmlns="http://www.w3.org/2000/svg" xmlns:xlink="http://www.w3.org/1999/xlink" x="0px" y="0px"
	 viewBox="0 0 336.2 310.2" style="enable-background:new 0 0 336.2 310.2;" xml:space="preserve">
<style type="text/css">
	.st0{fill:#F2F2F2;}
	.st1{fill:#FFFFFF;stroke:#929497;stroke-miterlimit:10;}
	.st2{fill:#5D5CA7;}
	.st3{clip-path:url(#SVGID_2_);}
	.st4{fill:#E0C889;}
	.st5{fill:url(#SVGID_3_);}
	.st6{fill:url(#SVGID_4_);}
	.st7{opacity:0.8;}
	.st8{fill:#3B2416;}
	.st9{fill:url(#SVGID_5_);}
	.st10{fill:url(#SVGID_6_);}
	.st11{fill:url(#SVGID_7_);}
	.st12{fill:url(#SVGID_8_);}
	.st13{fill:url(#SVGID_9_);}
	.st14{fill:url(#SVGID_10_);}
	.st15{fill:#A87C4F;}
	.st16{fill:#EEDAAE;}
	.st17{fill:#4F311A;}
	.st18{opacity:0.5;fill:url(#SVGID_11_);}
	.st19{opacity:0.5;fill:url(#SVGID_12_);}
	.st20{fill:url(#SVGID_13_);}
	.st21{fill:#663623;}
	.st22{fill:#3B2314;}
	.st23{fill:#603813;}
	.st24{fill:#BE1E2D;}
	.st25{fill:#F1F1F2;}
	.st26{fill:#754C28;}
	.st27{fill:#492316;}
</style>
<circle class="st0" cx="163" cy="150" r="147.4"/>
<g>
	<path class="st1" d="M446.5,747.5c-0.3-12.4-6.9-24.6-17.3-30.7c5.8-5.4,8-12.5,4.1-20.9c-4.2-9.1-16.9-10.4-25-6.7
		c-10.2,4.6-13.1,22.9-5.1,29.6c-6.6,5.4-11.9,12.6-16,20c-1.4,2.4-2.3,5.1-3.2,7.7c-0.6-3.7-2.8-7.2-6.6-9.1
		c-6.5-3.3-14.4-0.5-18,5.6c-2.9,4.9-1.8,10.8,1.8,14.6c-2.3,1.7-4.3,3.7-5.9,6.1c-2.8,4.3-3.1,9.8-3.2,14.7c0,3.7,3.6,5,6.2,4
		c-0.2,7.5-0.6,15-0.5,22.6c0,9.6,7,16.6,16.8,15c8.8-1.4,7.6-14.5,8-20.7c0.7-9,2.1-17.9,1.9-26.9c3.3-0.7,6.8-2.9,9.5-5.3
		c1.5-1.3,3-2.8,4.3-4.4c0.2,2.9,0.4,5.7,0.7,8.6c0.8,8.3,0.8,16.7,1.4,25c0.3,5.5-0.4,12.6,3.3,17.2c1.7,2.2,4.3,4,7.2,4
		c1.5,0,2.9-0.6,4-1.5c0.2-0.1,0.3-0.2,0.4-0.3c3.8,2.7,8.2,3.8,12.3,0.2c4.4-4,4.6-12.3,4.9-17.7c0.3-6.1-0.1-12.2-0.1-18.2
		c0-4.7-0.1-9.4-0.2-14.1c3,1,6.5,0.7,9.2-1.5C446.2,760.6,446.6,753.2,446.5,747.5z"/>
	<g>
		<g>
			<g>
				<circle class="st2" cx="417" cy="704.8" r="12.7"/>
				<path class="st2" d="M425.2,720.2c-0.4-0.3-0.9-0.4-1.4-0.6c-1.2-0.6-2.4-1.1-3.7-1.4l-3.2,3.2l-3.1-3.2c0,0,0,0,0,0
					c-1.6,0.4-3.2,1.1-4.6,2c-0.3,0.1-0.5,0.2-0.8,0.4c-9.6,5.9-15.3,18.1-22.4,33.6c-0.8,1.8-0.5,3.9,0.7,5.3
					c-3.9,3.4-13.5-2.2-14.3-2.4l-2,2l-2-2.1c0,0,0,0,0,0c-1.4,0.3-5.2,2.9-6.6,3.7c-0.1,0-0.3,0.1-0.4,0.2c-0.3,0.2-7,4.1-7,15.8
					c0,1.6,1.3,2.9,2.9,2.9c1.6,0,2.9-1.3,2.9-2.9c0-3.8,0.9-6.4,1.9-8.1V782c0,0.8,0.2,1.6,0.5,2.4c0,0.2,0,0.3,0,0.5l0,26.6
					c0,2.1,1.7,3.7,3.7,3.7c2.1,0,3.7-1.7,3.7-3.7l0-22.3c0.1,0,0.3,0,0.4,0c0,0,0.1,0,0.1,0l0,22.3c0,2.1,1.7,3.7,3.7,3.7
					c2.1,0,3.7-1.7,3.7-3.7l0-26.4c0.5-0.9,0.8-1.9,0.8-3v-14.8c1.2,0.4,2.4,0.7,3.7,0.7c2.8,0,5.9-1.2,9.5-4.6
					c0.8-0.7,1.1-1.7,0.9-2.7c0.9-0.5,1.6-1.2,2.1-2.2c3.2-6.9,6.1-13.1,9-18.1v17.1c0,1.3,0.3,2.6,0.7,3.7c0,0.3-0.1,0.5-0.1,0.8
					l0,47.2c0,3.2,2.6,5.8,5.8,5.8c3.2,0,5.8-2.6,5.8-5.8l0-40.5c0.2,0,0.5,0,0.7,0c0,0,0.1,0,0.1,0v40.5c0,3.2,2.6,5.8,5.8,5.8
					c0,0,0,0,0,0c3.2,0,5.8-2.6,5.8-5.8l0-46.9c0.8-1.4,1.2-3,1.2-4.8v-17.9c1.5,3.9,2,9,1.3,16.4c-0.3,2.7,1.7,5.1,4.4,5.4
					c0.2,0,0.3,0,0.5,0c2.5,0,4.6-1.9,4.9-4.4C443.4,734.6,434.8,726.1,425.2,720.2z"/>
				<circle class="st2" cx="370.5" cy="748.5" r="8.1"/>
			</g>
		</g>
	</g>
</g>
<g>
	<defs>
		<circle id="SVGID_1_" cx="163" cy="150.1" r="147.4"/>
	</defs>
	<clipPath id="SVGID_2_">
		<use xlink:href="#SVGID_1_"  style="overflow:visible;"/>
	</clipPath>
	<g class="st3">
		<g>
			<g>
				<path class="st4" d="M203.9,332.1c0,0,0.5,0.7,1.6,2c1.1,1.3,2.7,3.1,5,5.2c2.3,2.1,5.2,4.5,8.9,6.8c1.8,1.2,3.9,2.2,6.1,3.2
					c2.2,1,4.6,1.9,7.1,2.6c5.1,1.4,10.8,2.2,16.8,1.6c6-0.5,12.2-2.1,18.3-4.7c6.1-2.6,11.9-6.1,17.5-10.3c1.4-1.1,2.8-2.1,4.2-3.2
					c1.3-1.1,2.7-2.3,4-3.4c2.7-2.3,5.3-4.8,8.1-7.1c5.4-4.8,11-9.4,16.6-13.8c5.6-4.4,11.3-8.5,17.2-12.2
					c5.8-3.6,11.8-6.8,17.9-9.1c3-1.1,6.1-2,9.1-2.6c3-0.6,6-1,8.9-1c5.8-0.1,11.1,0.6,15.5,1.7c4.5,1.1,8.2,2.3,11.3,3.4
					c3,1.1,5.4,2,7,2.6c1.6,0.6,2.4,0.9,2.4,0.9l-3.2,7.8c0,0-0.8-0.3-2.4-1c-1.5-0.7-3.8-1.6-6.6-2.7c-2.9-1.1-6.3-2.4-10.3-3.5
					c-4-1.1-8.6-1.9-13.6-2c-2.5,0-5.1,0.2-7.8,0.6c-2.7,0.5-5.4,1.2-8.2,2.1c-5.6,1.9-11.3,4.6-17,7.9
					c-11.4,6.7-22.8,15.3-33.9,24.3c-2.8,2.2-5.5,4.6-8.3,6.8c-1.4,1.1-2.8,2.3-4.3,3.4c-1.5,1.1-2.9,2.1-4.4,3.2
					c-5.9,4.1-12.2,7.5-18.6,10c-6.4,2.5-13,4-19.3,4.3c-6.3,0.4-12.3-0.6-17.5-2.3c-2.6-0.8-5-1.9-7.3-2.9
					c-2.2-1.1-4.3-2.3-6.1-3.5c-3.7-2.5-6.6-5-8.9-7.2c-2.3-2.2-3.9-4.1-4.9-5.5c-1-1.3-1.5-2.1-1.5-2.1L203.9,332.1z"/>
			</g>
			<ellipse class="st4" cx="405.6" cy="298.4" rx="10.9" ry="11.5"/>
		</g>
		<linearGradient id="SVGID_3_" gradientUnits="userSpaceOnUse" x1="249.4872" y1="341.8552" x2="302.7003" y2="341.8552">
			<stop  offset="0.2167" style="stop-color:#D2B37B"/>
			<stop  offset="1" style="stop-color:#F1F1F2;stop-opacity:0"/>
		</linearGradient>
		<path class="st5" d="M249.8,350.4c0,0-0.3,6.4-0.4,7.4c-0.1,0.9,26.6,0.6,53.2-23.5l-8.1-8.4C294.6,325.7,265.5,354.4,249.8,350.4
			z"/>
		<path class="st4" d="M241.5,250c3.8-9.2,6-19.7,6-31c0-22.3-3.6-43.1-16.5-54.5c0,0,0,0,0,0c-3.2-3.1-6-17.3-6-17.3s-9.9-1.3-20-2
			c-10.1,0.6-20,2-20,2s-2.8,14.2-6,17.3c0,0,0,0,0,0c-12.9,11.5-15.8,32.2-15.8,54.5c0,11.2,2.2,21.8,6,31
			c-4.8,28.1-16.5,78.2-8.8,93.7c7.2,14.5,30.7,16.5,44.6,16.3c13.9,0.2,37.4-1.8,44.6-16.3C257.4,328.2,246.3,278,241.5,250z"/>
		<g>
			<path class="st4" d="M191.6,359.3c0,0-7.6,6.4-12.6,32h-11.4c0,0-8.7-27.1-6.2-52.2C161.5,339.1,183.7,331,191.6,359.3z"/>
			<path class="st4" d="M179,391.3c0,0,13.9,39.9-2.3,65.4h-6.9c0,0,4.2-52-2.1-65.4C161.4,378.1,179,391.3,179,391.3z"/>
			<path class="st4" d="M169.8,456.7h6.9l6.8,24.2h-21.9C161.5,480.9,171,462,169.8,456.7z"/>
			<linearGradient id="SVGID_4_" gradientUnits="userSpaceOnUse" x1="172.312" y1="479.0166" x2="170.7895" y2="464.1">
				<stop  offset="0.2167" style="stop-color:#D2B37B"/>
				<stop  offset="1" style="stop-color:#F1F1F2;stop-opacity:0"/>
			</linearGradient>
			<path class="st6" d="M169.8,456.7h6.9l6.8,24.2h-21.9C161.5,480.9,171,462,169.8,456.7z"/>
			<path class="st4" d="M167.8,489.1c0.1-0.5,0.2-1,0.2-1.5v-0.8c0,0.8,0.1,1.6,0.4,2.4h11c0.2-0.7,0.4-1.5,0.4-2.4v0.8
				c0,0.5,0.1,1,0.2,1.5h11.4c0.1-0.5,0.2-1,0.2-1.5v-5.1c0-3.3-2.6-5.9-5.9-5.9c-3.3,0-5.9,2.7-5.9,5.9v-1.6c0-3.7-2.7-6.8-5.9-6.8
				c-3.3,0-5.9,3-5.9,6.8v1.6c0-3.3-2.7-5.9-5.9-5.9c-3.3,0-5.9,2.7-5.9,5.9v5.1c0,0.5,0.1,1,0.2,1.5H167.8z"/>
		</g>
		<g>
			<path class="st4" d="M219.2,359.3c0,0,7.6,6.4,12.6,32h11.4c0,0,8.7-27.1,6.2-52.2C249.4,339.1,227.1,331,219.2,359.3z"/>
			<path class="st4" d="M231.8,391.3c0,0-13.9,39.9,2.3,65.4h6.9c0,0-4.2-52,2.1-65.4C249.4,378.1,231.8,391.3,231.8,391.3z"/>
		</g>
		<g>
			<path class="st4" d="M238.3,186.8c0,0-10.8-19.9-9-23.6c1.9-3.7,52.6,44.3,53.1,51.5c0.5,7.2-4.2,8.8-6.1,7.4
				C274,220.3,241.1,187.6,238.3,186.8z"/>
			<path class="st4" d="M277.6,209.1l-7.2,7.5c0,0,38.3,39,40,42.2c1.7,3.2,8.6-1.9,8.5-3.4C318.9,253.9,284.8,214.4,277.6,209.1z"
				/>
			<path class="st4" d="M310.8,260.2c0,0,2.9,18.4,9.3,18.2c6.5-0.2-0.3-10.1,1.2-11.6c1.6-1.5,9.7,8.7,11.4,11.1
				c1.5,2.1,13.3,6.3,10.1-8.2c-3.2-14.5-32.8-17.5-32.8-17.5L310.8,260.2z"/>
		</g>
		<g>
			<path class="st4" d="M174.3,186.8c0,0,10.8-19.9,9-23.6c-1.9-3.7-52.6,44.3-53.1,51.5c-0.5,7.2,4.2,8.8,6.1,7.4
				C138.5,220.3,171.4,187.6,174.3,186.8z"/>
			<path class="st4" d="M134.9,209.1l7.2,7.5c0,0-28.2,27.9-30,31c-1.7,3.2-13.5,2.6-13.4,1C98.8,247.2,127.7,214.4,134.9,209.1z"/>
		</g>
		<g class="st7">
			<path class="st8" d="M256.8,353.9c-0.7,0-1.8,1.1-0.7,1.1C256.9,355,258,353.9,256.8,353.9z"/>
			<path class="st8" d="M268.8,347.1c-1,0-1.3,1.3-0.2,1.3C269.6,348.4,270,347.1,268.8,347.1z"/>
			<path class="st8" d="M276.9,347.2c-0.7,0-1.9,1-0.7,1C276.9,348.2,278.1,347.2,276.9,347.2z"/>
			<path class="st8" d="M309.8,314.3c-0.7,0-1.9,1.1-0.7,1.1C309.9,315.4,311,314.3,309.8,314.3z"/>
			<path class="st8" d="M295.5,330.6c-1,0-1.3,1.4-0.1,1.4C296.4,332,296.7,330.6,295.5,330.6z"/>
			<path class="st8" d="M329.3,310.1c-0.7,0-1.9,1-0.7,1C329.3,311.1,330.5,310.1,329.3,310.1z"/>
		</g>
		<linearGradient id="SVGID_5_" gradientUnits="userSpaceOnUse" x1="205.15" y1="147.938" x2="205.15" y2="157.5087">
			<stop  offset="0.2167" style="stop-color:#D2B37B"/>
			<stop  offset="1" style="stop-color:#F1F1F2;stop-opacity:0"/>
		</linearGradient>
		<path class="st9" d="M185.1,147.2c0,0,31.6,1.4,40,0c0,0,3.1,9.4-18,10.7C186,159.1,185.1,147.2,185.1,147.2z"/>
		<linearGradient id="SVGID_6_" gradientUnits="userSpaceOnUse" x1="167.9765" y1="193.4939" x2="167.9765" y2="200.9601">
			<stop  offset="0.2167" style="stop-color:#D2B37B"/>
			<stop  offset="1" style="stop-color:#F1F1F2;stop-opacity:0"/>
		</linearGradient>
		<path class="st10" d="M165.1,194.6c0,0,5-4.8,7.1-6.3c2.1-1.5-8,15.2-8.5,19.2C163,212,165.1,194.6,165.1,194.6z"/>
		
			<linearGradient id="SVGID_7_" gradientUnits="userSpaceOnUse" x1="355.6205" y1="190.8533" x2="355.6205" y2="198.6108" gradientTransform="matrix(-1 0 0 1 598.2383 0)">
			<stop  offset="0.2167" style="stop-color:#D2B37B"/>
			<stop  offset="1" style="stop-color:#F1F1F2;stop-opacity:0"/>
		</linearGradient>
		<path class="st11" d="M245.5,193.1c0,0-5-4.8-7.1-6.3c-2.1-1.5,8,15.2,8.5,19.2C247.6,210.5,245.5,193.1,245.5,193.1z"/>
		<linearGradient id="SVGID_8_" gradientUnits="userSpaceOnUse" x1="183.1241" y1="357.9767" x2="180.3456" y2="364.9953">
			<stop  offset="0.2167" style="stop-color:#D2B37B"/>
			<stop  offset="1" style="stop-color:#F1F1F2;stop-opacity:0"/>
		</linearGradient>
		<path class="st12" d="M191.6,359.3c0,0-10.1-2.9-15.3-7l8.1,19.5C184.4,371.8,186.3,364.5,191.6,359.3z"/>
		
			<linearGradient id="SVGID_9_" gradientUnits="userSpaceOnUse" x1="337.5351" y1="357.9766" x2="334.7568" y2="364.9948" gradientTransform="matrix(-1 0 0 1 565.2354 0)">
			<stop  offset="0.2167" style="stop-color:#D2B37B"/>
			<stop  offset="1" style="stop-color:#F1F1F2;stop-opacity:0"/>
		</linearGradient>
		<path class="st13" d="M226.4,371.8c0,0-1.8-7.3-7.2-12.5c0,0,10.1-2.9,15.3-7"/>
		<path class="st4" d="M241.1,456.7h-6.9l-6.8,24.2h21.9C249.3,480.9,239.9,462,241.1,456.7z"/>
		
			<linearGradient id="SVGID_10_" gradientUnits="userSpaceOnUse" x1="395.6683" y1="479.0164" x2="394.1458" y2="464.0999" gradientTransform="matrix(-1 0 0 1 634.2021 0)">
			<stop  offset="0.2167" style="stop-color:#D2B37B"/>
			<stop  offset="1" style="stop-color:#F1F1F2;stop-opacity:0"/>
		</linearGradient>
		<path class="st14" d="M241.1,456.7h-6.9l-6.8,24.2h21.9C249.3,480.9,239.9,462,241.1,456.7z"/>
		<path class="st4" d="M243.1,489.1c-0.1-0.5-0.2-1-0.2-1.5v-0.8c0,0.8-0.1,1.6-0.4,2.4h-11.1c-0.2-0.7-0.4-1.5-0.4-2.4v0.8
			c0,0.5-0.1,1-0.2,1.5h-11.4c-0.1-0.5-0.2-1-0.2-1.5v-5.1c0-3.3,2.6-5.9,5.9-5.9c3.3,0,5.9,2.7,5.9,5.9v-1.6c0-3.7,2.7-6.8,5.9-6.8
			c3.3,0,5.9,3,5.9,6.8v1.6c0-3.3,2.7-5.9,5.9-5.9c3.3,0,5.9,2.7,5.9,5.9v5.1c0,0.5-0.1,1-0.2,1.5H243.1z"/>
		<g>
			<path class="st15" d="M187.6,54.7c0,0-21.1-6.1-33.6-23.9c-11.6-16.6-17,53.6,5.7,50.9C182.5,78.9,187.6,54.7,187.6,54.7z"/>
			<path class="st16" d="M166.7,61.9c0,0-11-2.2-16-11c0,0,1.1,16.8,11.7,17.7C173.1,69.5,166.7,61.9,166.7,61.9z"/>
			<g>
				<path class="st17" d="M149.4,49c0,0,0.2,0.3,0.5,0.8c0.2,0.3,0.3,0.6,0.6,1c0.3,0.3,0.6,0.7,0.9,1.1c0.3,0.4,0.8,0.8,1.2,1.3
					c0.4,0.5,0.9,0.8,1.4,1.3c0.5,0.5,1.1,0.8,1.6,1.3c0.6,0.4,1.2,0.8,1.8,1.2c0.6,0.4,1.2,0.8,1.8,1.1c0.6,0.3,1.2,0.7,1.8,0.9
					c0.6,0.3,1.2,0.6,1.8,0.8c0.6,0.3,1.1,0.5,1.6,0.7c1,0.4,1.8,0.7,2.4,0.9c0.6,0.2,0.9,0.3,0.9,0.3s-1.4-0.2-3.5-0.9
					c-0.5-0.2-1.1-0.3-1.7-0.6c-0.6-0.2-1.2-0.4-1.8-0.7c-0.6-0.3-1.2-0.6-1.9-0.9c-0.6-0.3-1.3-0.7-1.9-1.1
					c-0.6-0.4-1.2-0.8-1.8-1.2c-0.6-0.5-1.1-0.9-1.6-1.3c-0.5-0.5-1-0.9-1.4-1.4c-0.4-0.5-0.8-0.9-1.1-1.4c-0.3-0.5-0.6-0.9-0.8-1.2
					c-0.2-0.4-0.4-0.7-0.5-1C149.5,49.3,149.4,49,149.4,49z"/>
			</g>
			<linearGradient id="SVGID_11_" gradientUnits="userSpaceOnUse" x1="171.7338" y1="71.0073" x2="154.9512" y2="41.0383">
				<stop  offset="0.2167" style="stop-color:#603813"/>
				<stop  offset="1" style="stop-color:#F1F1F2;stop-opacity:0"/>
			</linearGradient>
			<path class="st18" d="M187.6,54.7c0,0-21.1-6.1-33.6-23.9c-11.6-16.6-17,53.6,5.7,50.9C182.5,78.9,187.6,54.7,187.6,54.7z"/>
		</g>
		<g>
			<path class="st15" d="M219.7,54.7c0,0,21.1-6.1,33.6-23.9c11.6-16.6,17,53.6-5.7,50.9C224.9,78.9,219.7,54.7,219.7,54.7z"/>
			<path class="st16" d="M240.6,61.9c0,0,11-2.2,16-11c0,0-1.1,16.8-11.7,17.7C234.2,69.5,240.6,61.9,240.6,61.9z"/>
			<g>
				<path class="st17" d="M258,49c0,0-0.2,0.3-0.4,0.9c-0.1,0.3-0.3,0.6-0.5,1c-0.2,0.4-0.5,0.8-0.8,1.2c-0.3,0.5-0.7,0.9-1.1,1.4
					c-0.4,0.5-0.9,0.9-1.4,1.4c-0.5,0.5-1.1,0.9-1.6,1.3c-0.6,0.4-1.2,0.8-1.8,1.2c-0.6,0.4-1.2,0.7-1.9,1.1
					c-0.6,0.3-1.3,0.7-1.9,0.9c-0.6,0.3-1.2,0.5-1.8,0.7c-0.6,0.2-1.1,0.4-1.7,0.6c-2.1,0.7-3.5,0.9-3.5,0.9s0.3-0.1,0.9-0.3
					c0.6-0.2,1.4-0.5,2.4-0.9c0.5-0.2,1-0.4,1.6-0.7c0.6-0.2,1.1-0.5,1.8-0.8c0.6-0.3,1.2-0.6,1.8-0.9c0.6-0.3,1.2-0.7,1.8-1.1
					c0.6-0.4,1.2-0.8,1.8-1.2c0.5-0.4,1.1-0.8,1.6-1.3c0.5-0.5,1-0.8,1.4-1.3c0.4-0.4,0.8-0.8,1.2-1.3c0.3-0.4,0.6-0.8,0.9-1.1
					c0.3-0.3,0.4-0.7,0.6-1C257.8,49.3,258,49,258,49z"/>
			</g>
			
				<linearGradient id="SVGID_12_" gradientUnits="userSpaceOnUse" x1="309.7686" y1="71.0071" x2="292.9863" y2="41.0386" gradientTransform="matrix(-1 0 0 1 545.3955 0)">
				<stop  offset="0.2167" style="stop-color:#603813"/>
				<stop  offset="1" style="stop-color:#F1F1F2;stop-opacity:0"/>
			</linearGradient>
			<path class="st19" d="M219.7,54.7c0,0,21.1-6.1,33.6-23.9c11.6-16.6,17,53.6-5.7,50.9C224.9,78.9,219.7,54.7,219.7,54.7z"/>
		</g>
		<path class="st4" d="M261.1,99.4c-3.4-6.2-4.5-8.9-5-12c-2.8-15.5-10.4-36.2-51-34.6c-40.6-1.6-48.2,19.1-51,34.6
			c-0.5,3.1-1.6,5.8-5,12c-3.4,6.2-15.5,7.4-15.5,7.4c13.7,48.3,71.4,41.6,71.4,41.6l-7.1-8l3.5,7.9c0,0,61.4,6.8,75.1-41.4
			C276.6,106.9,264.5,105.6,261.1,99.4z"/>
		<linearGradient id="SVGID_13_" gradientUnits="userSpaceOnUse" x1="206.8685" y1="117.3889" x2="206.9752" y2="94.2664">
			<stop  offset="0.2167" style="stop-color:#F1F1F2"/>
			<stop  offset="1" style="stop-color:#F1F1F2;stop-opacity:0"/>
		</linearGradient>
		<path class="st20" d="M224.6,89.3l-3.3-0.1c-16.9,5.3-32.4-0.5-32.4-0.5c2.8,6.8,11.2,9-8.8,23.2c0,0,3.5,10.1,13.2,8.9
			c9.7-1.2,13.6-3.4,13.6-3.4s3.5,2.2,13.2,3.4c9.7,1.2,13.5-8,13.5-8C218.6,100.9,221.8,96.1,224.6,89.3z"/>
		<g class="st7">
			<path class="st8" d="M181.2,186.2c-3.1,0-4,4.1-0.4,4.1C183.9,190.3,184.8,186.2,181.2,186.2z"/>
			<path class="st8" d="M218.4,207.6c-3.1,0-4,3.9-0.5,3.9C221,211.5,222,207.6,218.4,207.6z"/>
			<path class="st8" d="M209.8,182.5c-3.1,0-4,4.1-0.4,4.1C212.6,186.7,213.4,182.5,209.8,182.5z"/>
			<path class="st8" d="M221.6,151.9c-2.2,0-5.6,3.3-2,3.3C221.8,155.2,225.2,151.9,221.6,151.9z"/>
			<path class="st8" d="M188.2,156.5c-1.7,0-5.7,2.6-2.2,2.6C187.7,159.1,191.8,156.5,188.2,156.5z"/>
			<path class="st8" d="M241.7,201.3c-2.1,0-5.6,3.1-2,3.1C241.7,204.4,245.3,201.3,241.7,201.3z"/>
			<path class="st8" d="M188.8,215.4c-1.9,0-5.7,2.8-2.1,2.8C188.5,218.3,192.3,215.4,188.8,215.4z"/>
			<path class="st8" d="M173,233.1c-1.8,0-5.7,2.8-2.1,2.8C172.7,235.9,176.5,233.1,173,233.1z"/>
			<path class="st8" d="M198.5,249.6c-1.8,0-5.7,2.8-2.1,2.8C198.2,252.3,202.1,249.6,198.5,249.6z"/>
			<path class="st8" d="M227,232.1c-2.3,0-5.5,3.6-1.9,3.6C227.5,235.7,230.6,232.1,227,232.1z"/>
			<path class="st8" d="M236.6,278.2c-3.1,0-4,4-0.4,4C239.3,282.1,240.2,278.2,236.6,278.2z"/>
			<path class="st8" d="M176.6,283.7c-1.7,0-5.7,2.6-2.2,2.6C176.2,286.4,180.2,283.7,176.6,283.7z"/>
			<path class="st8" d="M217.4,264.7c-1.9,0-5.7,2.9-2.1,2.9C217.2,267.6,221,264.7,217.4,264.7z"/>
			<path class="st8" d="M216.1,308.9c-2.3,0-5.5,3.5-1.9,3.5C216.4,312.3,219.7,308.9,216.1,308.9z"/>
			<path class="st8" d="M174.8,331.7c-1.8,0-5.7,2.8-2.1,2.8C174.5,334.5,178.3,331.7,174.8,331.7z"/>
			<path class="st8" d="M201.5,291.2c-2.3,0-5.5,3.6-1.9,3.6C201.9,294.7,205,291.2,201.5,291.2z"/>
			<path class="st8" d="M234.2,346.3c-3.1,0-4,4-0.4,4C236.9,350.4,237.8,346.3,234.2,346.3z"/>
			<path class="st8" d="M170.5,370c-2,0-5.6,3.1-2,3.1C170.5,373,174.1,370,170.5,370z"/>
			<path class="st8" d="M178.8,402.3c-3.1,0-4,4-0.4,4C181.5,406.4,182.4,402.3,178.8,402.3z"/>
			<path class="st8" d="M176.7,440.9c-1.6,0-5.8,2.4-2.2,2.4C176,443.3,180.2,440.9,176.7,440.9z"/>
			<path class="st8" d="M233.2,368.7c-2.1,0-5.6,3.1-2,3.1C233.2,371.8,236.8,368.7,233.2,368.7z"/>
			<path class="st8" d="M237.5,409.3c-1.2,0-6.1,2.3-3.4,2.3C235.3,411.6,240.2,409.3,237.5,409.3z"/>
			<path class="st8" d="M230,437.1c-3,0-4.1,3.9-0.5,3.9C232.5,441,233.6,437.1,230,437.1z"/>
			<path class="st8" d="M157.2,188.2c-0.7,0-4,1.4-2.3,1.4C155.6,189.6,158.9,188.2,157.2,188.2z"/>
			<path class="st8" d="M153.8,202.6c-1.1,0-3.8,1.6-1.5,1.6C153.4,204.3,156.1,202.6,153.8,202.6z"/>
			<path class="st8" d="M137.2,209.7c-1.5,0-3.7,2.2-1.3,2.2C137.4,211.9,139.6,209.7,137.2,209.7z"/>
			<path class="st8" d="M127.5,224.9c-1.4,0-3.7,2.2-1.3,2.2C127.6,227.1,129.9,224.9,127.5,224.9z"/>
			<path class="st8" d="M109.3,240.3c-1.2,0-3.8,1.8-1.4,1.8C109,242.1,111.7,240.3,109.3,240.3z"/>
			<path class="st8" d="M229.2,167c-1.5,0-3.7,2.3-1.3,2.3C229.4,169.3,231.5,167,229.2,167z"/>
			<path class="st8" d="M244.3,181.5c-0.7,0-4,1.3-2.3,1.3C242.6,182.8,246,181.5,244.3,181.5z"/>
			<path class="st8" d="M263.3,192.9c-1.1,0-3.8,1.7-1.5,1.7C263,194.6,265.7,192.9,263.3,192.9z"/>
			<path class="st8" d="M267,205.6c-1.2,0-3.8,1.9-1.4,1.9C266.8,207.4,269.3,205.6,267,205.6z"/>
			<path class="st8" d="M282.8,221.4c-1.3,0-3.8,1.9-1.4,1.9C282.7,223.3,285.2,221.4,282.8,221.4z"/>
			<path class="st8" d="M299.8,237.2c-1.3,0-3.8,2-1.4,2C299.7,239.2,302.2,237.2,299.8,237.2z"/>
			<path class="st8" d="M152.4,123.8c-1.5,0-3.7,2.3-1.3,2.3C152.7,126.1,154.8,123.8,152.4,123.8z"/>
			<path class="st8" d="M202.4,54.6c-1.2,0-3.8,1.8-1.4,1.8C202.2,56.4,204.8,54.6,202.4,54.6z"/>
			<path class="st8" d="M213.5,58.5c-2,0-2.7,2.5-0.3,2.5C215.1,61.1,215.8,58.5,213.5,58.5z"/>
			<path class="st8" d="M262,113.5c-1.4,0-3.7,2.2-1.3,2.2C262.2,115.7,264.4,113.5,262,113.5z"/>
			<path class="st8" d="M253.4,124.2c-0.7,0-4,1.4-2.3,1.4C251.8,125.7,255.1,124.2,253.4,124.2z"/>
		</g>
		<g>
			<path class="st4" d="M97.7,258.1l2.2-10.3c0,0-5.8-17.2-14.5-10.9c0,0-11.1-1.2-12.7,8.1c-1.6,9.3,6.4,15.1,10,14.9
				C86.3,259.7,97.7,258.1,97.7,258.1z"/>
			<g>
				<path class="st21" d="M86.8,237.5c0,0-0.1,1.3,0.1,3.2c0.1,1,0.2,2.1,0.4,3.2c0.1,0.6,0.2,1.2,0.3,1.8c0.1,0.6,0.3,1.2,0.5,1.8
					c0.2,0.6,0.5,1.2,0.9,1.6c0.4,0.4,0.9,0.8,1.4,0.7c0.5-0.1,0.9-0.6,1.2-1c0.3-0.4,0.5-0.9,0.7-1.4c0.4-0.9,0.6-1.6,0.7-2.2
					c0.1-0.5,0.2-0.9,0.2-0.9s-0.1,1.3-0.7,3.1c-0.2,0.5-0.4,0.9-0.7,1.4c-0.3,0.5-0.7,1-1.4,1.2c-0.7,0.1-1.3-0.3-1.8-0.8
					c-0.5-0.5-0.7-1.1-1-1.7c-0.2-0.6-0.4-1.2-0.5-1.9c-0.1-0.6-0.2-1.2-0.3-1.8c-0.2-1.2-0.3-2.3-0.3-3.3
					C86.6,238.8,86.8,237.5,86.8,237.5z"/>
			</g>
			<g>
				<path class="st21" d="M87.7,249.2c0,0,0,0.2,0.1,0.4c0,0.1,0,0.3,0,0.5c0,0.2,0,0.4-0.1,0.7c0,0.2-0.1,0.5-0.2,0.7
					c-0.1,0.2-0.2,0.5-0.4,0.8c-0.3,0.5-0.7,1-1,1.5c-0.4,0.5-0.8,0.9-1.3,1.3c-0.4,0.4-0.8,0.8-1.2,1.1c-0.7,0.6-1.2,1-1.2,1
					s0.4-0.5,1-1.2c0.3-0.3,0.7-0.7,1.1-1.2c0.4-0.4,0.8-0.9,1.2-1.4c0.4-0.5,0.8-0.9,1.1-1.4c0.3-0.5,0.5-1,0.7-1.4
					c0.1-0.2,0.1-0.4,0.1-0.6c0-0.2,0.1-0.3,0-0.5C87.7,249.4,87.7,249.2,87.7,249.2z"/>
			</g>
			<g>
				<path class="st21" d="M86.3,241.1c0,0-0.1-0.2-0.3-0.4c-0.1-0.1-0.2-0.3-0.4-0.4c-0.1-0.1-0.3-0.3-0.4-0.4
					c-0.1-0.1-0.3-0.3-0.4-0.4c-0.2-0.1-0.3-0.2-0.4-0.3c-0.2-0.2-0.4-0.3-0.4-0.3s0.2,0,0.6,0.1c0.2,0.1,0.3,0.1,0.5,0.2
					c0.2,0.1,0.4,0.3,0.5,0.4c0.2,0.2,0.3,0.3,0.4,0.5c0.1,0.2,0.2,0.4,0.3,0.5C86.3,240.9,86.3,241.1,86.3,241.1z"/>
			</g>
		</g>
		<path class="st4" d="M96.9,258.2c0,0,9.7-3.5,15.2-10.5c5.5-7-10.8-2.6-10.8-2.6s-3.9,4.2-4.5,4.1
			C96.3,249.1,96.9,258.2,96.9,258.2z"/>
		<g>
			<path class="st22" d="M192,121.4c0,0,13.7,24.7,30.6-0.5c0,0-9.3,0-15.7-3.5C206.9,117.4,204.8,119.4,192,121.4z"/>
			<path class="st15" d="M207.1,108.6c-0.9-0.3-4.5-1.6-4.6,1c0,0.6,0.6,0.7,0.8,0.8c0.9,0.3,2.8,0.4,3.7,2.2l0,0.2c0,0,0,0,0-0.1
				c0,0,0,0,0,0.1l0-0.2c0.9-1.8,2.7-1.9,3.7-2.2c0.3-0.1,0.8-0.2,0.8-0.8C211.7,107,208,108.3,207.1,108.6z"/>
			<g>
				<g>
					<g>
						<path class="st23" d="M222.2,96.1c0,0,0.1-0.5,0.2-1.3c0.1-0.4,0.1-0.9,0.3-1.4c0.2-0.5,0.4-1.2,0.7-1.8
							c0.3-0.6,0.7-1.3,1.1-2c0.3-0.3,0.5-0.7,0.8-1c0.1-0.2,0.3-0.4,0.4-0.5l0.5-0.5c0.3-0.3,0.7-0.6,1-0.9
							c0.4-0.3,0.8-0.5,1.2-0.8c0.4-0.3,0.9-0.4,1.3-0.6c0.2-0.1,0.4-0.2,0.7-0.3l0.7-0.2c0.9-0.3,1.9-0.4,2.8-0.5
							c0.9,0,1.9-0.1,2.8,0.1c0.9,0,1.7,0.3,2.5,0.5c0.8,0.3,1.5,0.5,2.1,0.8c0.6,0.3,1.2,0.6,1.7,1c0.5,0.3,0.9,0.6,1.2,0.9
							c0.6,0.6,1,0.9,1,0.9s-0.4-0.3-1-0.8c-0.3-0.3-0.8-0.5-1.2-0.8c-0.5-0.3-1.1-0.5-1.7-0.8c-0.6-0.3-1.4-0.5-2.1-0.7
							c-0.8-0.1-1.6-0.3-2.5-0.4c-0.9-0.1-1.7,0-2.6,0c-0.9,0.1-1.8,0.3-2.7,0.6l-0.7,0.2c-0.2,0.1-0.4,0.2-0.6,0.3
							c-0.4,0.2-0.8,0.3-1.2,0.6c-0.4,0.2-0.8,0.5-1.1,0.7c-0.4,0.2-0.7,0.6-1,0.8l-0.5,0.4c-0.1,0.2-0.3,0.3-0.4,0.5
							c-0.3,0.3-0.5,0.6-0.8,0.9c-0.4,0.6-0.8,1.3-1.2,1.9c-0.3,0.6-0.5,1.2-0.8,1.7c-0.2,0.5-0.3,1-0.5,1.4
							C222.3,95.6,222.2,96.1,222.2,96.1z"/>
					</g>
				</g>
				<g>
					<g>
						<path class="st23" d="M222.2,95.1c0,0,0.1-0.4,0.3-1.1c0.1-0.3,0.2-0.8,0.5-1.2c0.2-0.4,0.5-1,0.8-1.5
							c0.2-0.2,0.4-0.5,0.6-0.8c0.2-0.3,0.4-0.6,0.7-0.8c0.3-0.3,0.5-0.5,0.8-0.8c0.3-0.3,0.6-0.5,0.9-0.7c0.6-0.5,1.4-0.8,2.1-1.2
							c0.8-0.3,1.5-0.6,2.4-0.8c0.8-0.2,1.6-0.3,2.5-0.3c0.4,0,0.8,0,1.2,0l0.6,0l0.6,0.1c0.4,0.1,0.8,0.1,1.1,0.2
							c0.4,0.1,0.7,0.2,1.1,0.3c0.7,0.2,1.3,0.5,1.9,0.7c0.5,0.3,1.1,0.5,1.5,0.9c0.4,0.3,0.8,0.6,1,0.8c0.5,0.5,0.8,0.8,0.8,0.8
							s-0.3-0.3-0.8-0.8c-0.2-0.3-0.6-0.5-1-0.7c-0.4-0.3-0.9-0.5-1.5-0.8c-0.6-0.2-1.2-0.5-1.9-0.6c-0.3-0.1-0.7-0.1-1-0.2
							c-0.4-0.1-0.7-0.1-1.1-0.1l-0.6-0.1l-0.6,0c-0.4,0-0.8,0-1.2,0c-0.8,0.1-1.6,0.1-2.4,0.4c-0.8,0.1-1.5,0.4-2.3,0.7
							c-0.7,0.4-1.4,0.7-2,1.1c-0.6,0.4-1.2,0.9-1.7,1.3c-0.3,0.2-0.5,0.5-0.7,0.7c-0.2,0.3-0.4,0.5-0.6,0.7c-0.4,0.5-0.6,1-0.9,1.4
							c-0.3,0.4-0.4,0.8-0.6,1.2C222.4,94.7,222.2,95.1,222.2,95.1z"/>
					</g>
				</g>
			</g>
			<g>
				<g>
					<g>
						<path class="st23" d="M192,96.1c0,0-0.1-0.4-0.4-1.2c-0.1-0.4-0.2-0.9-0.5-1.4c-0.2-0.5-0.5-1.1-0.8-1.7
							c-0.4-0.6-0.7-1.2-1.2-1.9c-0.3-0.3-0.5-0.6-0.8-0.9c-0.1-0.2-0.3-0.3-0.4-0.5l-0.5-0.4c-0.3-0.3-0.6-0.6-1-0.8
							c-0.4-0.2-0.7-0.5-1.1-0.7c-0.4-0.3-0.8-0.4-1.2-0.6l-0.6-0.3l-0.7-0.2c-0.9-0.3-1.8-0.4-2.7-0.6c-0.9,0-1.8-0.1-2.6,0
							c-0.9,0-1.7,0.2-2.5,0.4c-0.8,0.2-1.5,0.4-2.1,0.7c-0.6,0.3-1.2,0.5-1.7,0.8c-0.5,0.3-0.9,0.5-1.2,0.8c-0.7,0.5-1,0.8-1,0.8
							s0.3-0.3,1-0.9c0.3-0.3,0.7-0.6,1.2-0.9c0.5-0.4,1.1-0.6,1.7-1c0.6-0.3,1.4-0.5,2.1-0.8c0.8-0.2,1.6-0.4,2.5-0.5
							c0.9-0.1,1.8-0.1,2.8-0.1c0.9,0.1,1.9,0.2,2.8,0.5l0.7,0.2c0.2,0.1,0.4,0.2,0.7,0.3c0.4,0.2,0.9,0.4,1.3,0.6
							c0.4,0.3,0.8,0.5,1.2,0.8c0.4,0.3,0.7,0.6,1,0.9l0.5,0.5c0.2,0.2,0.3,0.3,0.4,0.5c0.3,0.3,0.5,0.7,0.8,1
							c0.4,0.7,0.8,1.4,1.1,2c0.3,0.7,0.5,1.3,0.7,1.8c0.2,0.5,0.2,1,0.3,1.4C191.9,95.6,192,96.1,192,96.1z"/>
					</g>
				</g>
				<g>
					<g>
						<path class="st23" d="M192,95.1c0,0-0.2-0.4-0.5-1c-0.2-0.3-0.3-0.8-0.6-1.2c-0.3-0.4-0.5-0.9-0.9-1.4
							c-0.2-0.2-0.4-0.5-0.6-0.7c-0.2-0.3-0.4-0.5-0.7-0.7c-0.5-0.5-1.1-1-1.7-1.3c-0.6-0.5-1.3-0.8-2-1.1c-0.7-0.3-1.5-0.6-2.3-0.7
							c-0.8-0.2-1.6-0.3-2.4-0.4c-0.4,0-0.8,0-1.2,0l-0.6,0l-0.6,0.1c-0.4,0-0.7,0.1-1.1,0.1c-0.4,0.1-0.7,0.2-1,0.2
							c-0.7,0.2-1.3,0.4-1.9,0.6c-0.5,0.3-1.1,0.5-1.5,0.8c-0.4,0.3-0.8,0.5-1,0.7c-0.5,0.5-0.8,0.8-0.8,0.8s0.3-0.3,0.8-0.8
							c0.2-0.3,0.6-0.5,1-0.8c0.4-0.3,0.9-0.6,1.5-0.9c0.6-0.2,1.2-0.5,1.9-0.7c0.3-0.1,0.7-0.2,1.1-0.3c0.4-0.1,0.8-0.1,1.1-0.2
							l0.6-0.1l0.6,0c0.4,0,0.8,0,1.2,0c0.8,0.1,1.7,0.1,2.5,0.3c0.8,0.1,1.6,0.5,2.4,0.8c0.7,0.4,1.5,0.7,2.1,1.2
							c0.3,0.2,0.7,0.4,0.9,0.7c0.3,0.3,0.5,0.5,0.8,0.8c0.3,0.2,0.5,0.5,0.7,0.8c0.2,0.3,0.4,0.5,0.6,0.8c0.4,0.5,0.6,1.1,0.8,1.5
							c0.3,0.4,0.3,0.9,0.5,1.2C191.9,94.7,192,95.1,192,95.1z"/>
					</g>
				</g>
			</g>
			<g>
				<path class="st23" d="M193.6,71.4c0,0-0.2-0.3-0.5-0.8c-0.2-0.3-0.3-0.6-0.6-1c-0.2-0.4-0.5-0.7-0.8-1.2c-0.3-0.4-0.6-0.9-1-1.3
					c-0.4-0.4-0.8-0.9-1.3-1.3c-0.5-0.4-1-0.8-1.6-1.1c-0.3-0.1-0.6-0.3-0.9-0.4l-1-0.3c-0.7-0.1-1.3-0.3-2-0.2c-0.3,0-0.7,0-1,0.1
					c-0.3,0-0.6,0.1-1,0.1c-0.3,0.1-0.6,0.1-0.9,0.2c-0.3,0.1-0.6,0.2-0.9,0.3c-0.6,0.2-1.1,0.4-1.5,0.6c-0.5,0.2-0.9,0.5-1.3,0.7
					c-0.4,0.2-0.7,0.4-0.9,0.6c-0.5,0.3-0.8,0.5-0.8,0.5s0.3-0.2,0.7-0.6c0.2-0.2,0.5-0.4,0.9-0.7c0.4-0.2,0.7-0.5,1.2-0.8
					c0.5-0.2,1-0.6,1.5-0.8c0.3-0.1,0.6-0.2,0.9-0.4c0.3-0.1,0.6-0.2,1-0.3c0.3-0.1,0.7-0.1,1-0.2c0.3-0.1,0.7-0.1,1-0.1
					c0.7,0,1.4,0.1,2.1,0.2l1,0.3c0.3,0.2,0.6,0.3,1,0.5c0.6,0.4,1.2,0.7,1.7,1.2c0.5,0.4,0.9,0.9,1.3,1.4c0.4,0.5,0.7,1,1,1.4
					c0.3,0.5,0.5,0.9,0.7,1.3c0.2,0.4,0.3,0.7,0.4,1C193.5,71.1,193.6,71.4,193.6,71.4z"/>
			</g>
			<g>
				<path class="st23" d="M224,71.3c0,0,0.1-0.3,0.4-0.9c0.1-0.3,0.2-0.6,0.5-1c0.2-0.4,0.4-0.8,0.7-1.3c0.3-0.4,0.6-0.9,1-1.4
					c0.4-0.5,0.8-1,1.3-1.4c0.5-0.5,1.1-0.8,1.7-1.2c0.3-0.1,0.7-0.3,1-0.5l1-0.3c0.7-0.1,1.4-0.2,2.1-0.2c0.4,0,0.7,0,1,0.1
					c0.3,0.1,0.7,0.1,1,0.2c0.3,0.1,0.6,0.2,0.9,0.3c0.3,0.1,0.6,0.2,0.9,0.4c0.6,0.2,1.1,0.5,1.5,0.8c0.5,0.2,0.8,0.6,1.2,0.8
					c0.4,0.2,0.6,0.5,0.9,0.7c0.5,0.4,0.7,0.6,0.7,0.6s-0.3-0.2-0.8-0.5c-0.3-0.2-0.6-0.4-0.9-0.6c-0.4-0.2-0.8-0.5-1.2-0.7
					c-0.5-0.2-1-0.5-1.5-0.7c-0.3-0.1-0.6-0.2-0.9-0.3c-0.3-0.1-0.6-0.2-0.9-0.2c-0.3-0.1-0.6-0.1-1-0.2c-0.3-0.1-0.7-0.1-1-0.1
					c-0.7,0-1.3,0.1-2,0.2l-1,0.3c-0.3,0.1-0.6,0.3-0.9,0.4c-0.6,0.3-1.2,0.6-1.6,1.1c-0.5,0.4-0.9,0.8-1.4,1.2
					c-0.4,0.4-0.7,0.9-1.1,1.3c-0.3,0.4-0.6,0.8-0.8,1.2c-0.3,0.3-0.4,0.7-0.6,0.9C224.2,71,224,71.3,224,71.3z"/>
			</g>
			<ellipse class="st24" cx="206.7" cy="128.4" rx="6.2" ry="2.2"/>
			<path class="st25" d="M211.7,119.7c0,0,1.2,2.1,0.6,3.2c-0.5,1,3.4-2.1,2.1-3.1C213.1,118.8,211.7,119.7,211.7,119.7z"/>
			<path class="st25" d="M201.6,119.7c0,0-1.2,2.1-0.6,3.2c0.5,1-3.4-2.1-2.1-3.1C200.2,118.8,201.6,119.7,201.6,119.7z"/>
			<g>
				<path class="st26" d="M191.5,94.1c0.4,0.9,0.8,1.8,1,2.7c0.2,0.9,0.3,2,0,2.9c-0.3,1-0.9,1.8-1.5,2.5c-0.6,0.7-1.3,1.4-2,2.1
					c-2.8,2.7-5.8,5.1-8.7,7.7l0.1-0.3c0.5,1.2,1.1,2.3,1.8,3.3c0.7,1,1.6,2,2.6,2.8c1,0.8,2.1,1.5,3.2,1.9c1.2,0.5,2.4,0.7,3.7,0.7
					c0.6,0,1.3,0,1.9-0.1l1.9-0.2c1.3-0.2,2.6-0.4,3.8-0.6c1.3-0.3,2.5-0.5,3.8-0.9c0.6-0.2,1.2-0.4,1.9-0.6
					c0.6-0.2,1.2-0.4,1.8-0.8c-1.1,0.7-2.4,1.1-3.6,1.6c-1.2,0.4-2.5,0.8-3.8,1.1c-1.3,0.3-2.6,0.5-3.9,0.8
					c-0.6,0.1-1.3,0.2-1.9,0.3c-0.7,0.1-1.3,0.1-2,0.1c-1.3,0-2.7-0.3-3.9-0.7c-1.3-0.5-2.4-1.2-3.4-2c-1-0.9-1.9-1.9-2.7-2.9
					c-0.8-1.1-1.4-2.2-1.9-3.5l-0.1-0.2l0.2-0.1l4.4-3.8c1.5-1.3,3-2.5,4.4-3.8c0.7-0.6,1.4-1.3,2.1-2c0.6-0.7,1.2-1.5,1.5-2.4
					c0.3-0.9,0.3-1.9,0.1-2.8C192.2,95.9,191.9,95,191.5,94.1z"/>
			</g>
			<g>
				<path class="st26" d="M206.9,117.4c1.2,0.5,2.5,0.9,3.7,1.2c1.3,0.3,2.6,0.6,3.8,0.9c1.3,0.2,2.6,0.5,3.9,0.6
					c0.6,0.1,1.3,0.2,2,0.3c0.6,0.1,1.3,0.1,1.9,0.1c0.6,0,1.3-0.1,1.9-0.2c0.6-0.1,1.2-0.3,1.9-0.5c1.2-0.4,2.3-1.1,3.3-1.9
					c1-0.8,1.9-1.8,2.6-2.8c0.7-1.1,1.4-2.2,1.9-3.4l0.1,0.3l-4.3-3.9c-1.4-1.3-2.9-2.6-4.3-3.9c-0.7-0.7-1.4-1.3-2-2.1
					c-0.6-0.7-1.2-1.6-1.5-2.5c-0.3-0.9-0.2-2,0-2.9c0.2-0.9,0.6-1.8,1-2.7c-0.3,0.9-0.7,1.8-0.9,2.8c-0.2,0.9-0.2,1.9,0.1,2.8
					c0.3,0.9,0.9,1.7,1.5,2.4c0.6,0.7,1.3,1.4,2.1,2c2.9,2.6,5.9,5,8.8,7.6l0.1,0.1l-0.1,0.2c-0.5,1.3-1.1,2.4-1.9,3.5
					c-0.8,1.1-1.7,2.1-2.7,3c-1,0.9-2.2,1.6-3.5,2c-0.6,0.2-1.3,0.4-2,0.5c-0.7,0.1-1.3,0.2-2,0.2c-0.7,0-1.3-0.1-2-0.2
					c-0.7-0.1-1.3-0.2-2-0.3c-1.3-0.2-2.6-0.5-3.9-0.8c-1.3-0.3-2.6-0.6-3.8-1.1C209.3,118.5,208.1,118.1,206.9,117.4z"/>
			</g>
		</g>
		<g>
			<path class="st27" d="M72.6,174.1c0,0,0.3,1.2,1,3.4c0.6,2.2,1.5,5.5,2.6,9.7c1.1,4.2,2.4,9.3,3.8,15.2c1.4,5.9,3,12.5,4.5,19.9
				c0.7,3.7,1.5,7.5,2.2,11.4c0.4,2,0.6,4,1,6.1c0.2,2.1,0.5,4.2,0.7,6.3c1,8.5,2.1,17.4,3.2,26.7c2.2,18.5,4.5,38.2,6.8,58
				c2.2,19.8,4.3,39.5,6.2,58.1c1,9.3,1.8,18.2,2.5,26.7c0.8,8.5,1.4,16.6,2,24c0.6,7.4,1.1,14.2,1.4,20.3c0.3,6,0.6,11.3,0.7,15.7
				c0.1,4.3,0.1,7.8-0.1,10.1c-0.1,1.2-0.2,2.1-0.4,2.6c-0.1,0.3-0.2,0.5-0.2,0.6c-0.1,0.1-0.1,0.2-0.1,0.2s0-0.1,0.1-0.2
				c0.1-0.1,0.2-0.3,0.2-0.6c0.1-0.6,0.2-1.5,0.3-2.6c0.1-2.3,0-5.7-0.2-10.1c-0.4-8.7-1.6-21-3.1-35.9c-0.7-7.4-1.6-15.4-2.5-23.9
				c-0.9-8.5-1.9-17.4-2.9-26.7c-2-18.5-4.2-38.3-6.5-58c-2.2-19.7-4.4-39.5-6.4-58c-1-9.3-2-18.2-2.8-26.7
				c-0.7-8.5-2.1-16.4-3.4-23.7c-2.8-14.6-5.4-26.8-7.4-35.2C73.7,178.9,72.6,174.1,72.6,174.1z"/>
		</g>
		<g>
			<path class="st27" d="M83.9,222.5c0,0,0.1-1,0.3-2.7c0.2-1.7,0.6-4.1,1.1-7c0.3-1.4,0.6-3,0.9-4.6c0.4-1.6,0.7-3.4,1.2-5.1
				c0.2-0.9,0.5-1.8,0.8-2.7c0.3-0.9,0.5-1.8,0.9-2.7c0.3-0.9,0.6-1.8,1-2.7c0.3-0.9,0.8-1.8,1.2-2.7c0.4-0.9,1-1.8,1.4-2.6l0.7-1.3
				c0.2-0.4,0.4-0.8,0.6-1.3c0.7-1.7,1.2-3.5,1.3-5.2c0.2-1.8,0.2-3.5,0-5.1c-0.1-1.6-0.4-3.2-0.7-4.6c-0.7-2.8-1.4-5.1-2-6.7
				c-0.6-1.6-0.9-2.5-0.9-2.5s0.1,0.2,0.3,0.6c0.2,0.4,0.5,1,0.9,1.8c0.7,1.6,1.7,3.8,2.5,6.6c0.4,1.4,0.7,3,0.9,4.7
				c0.2,1.7,0.3,3.5,0.2,5.4c-0.1,1.9-0.6,3.8-1.3,5.6c-0.2,0.5-0.4,0.9-0.6,1.4l-0.7,1.3c-0.5,0.9-1,1.7-1.4,2.5
				c-0.4,0.9-0.8,1.7-1.2,2.6c-0.4,0.9-0.7,1.8-1,2.7c-0.6,1.8-1.2,3.6-1.7,5.3c-0.5,1.7-1,3.4-1.4,5c-0.4,1.6-0.8,3.1-1.1,4.6
				c-0.7,2.8-1.2,5.2-1.6,6.9C84.1,221.5,83.9,222.5,83.9,222.5z"/>
		</g>
	</g>
</g>
</svg>
