<?xml version="1.0" encoding="utf-8"?>
<!-- Generator: Adobe Illustrator 19.2.0, SVG Export Plug-In . SVG Version: 6.00 Build 0)  -->
<svg version="1.1" id="Layer_1" xmlns="http://www.w3.org/2000/svg" xmlns:xlink="http://www.w3.org/1999/xlink" x="0px" y="0px"
	 viewBox="0 0 336.2 310.2" style="enable-background:new 0 0 336.2 310.2;" xml:space="preserve">
<style type="text/css">
	.st0{fill:#F2F2F2;}
	.st1{fill:#FFFFFF;stroke:#929497;stroke-miterlimit:10;}
	.st2{fill:#5D5CA7;}
	.st3{clip-path:url(#SVGID_2_);}
	.st4{fill:#E8B786;}
	.st5{opacity:0.5;fill:url(#SVGID_3_);}
	.st6{opacity:0.5;fill:url(#SVGID_4_);}
	.st7{fill:#E6B784;}
	.st8{fill:#B17946;}
	.st9{fill:#59422F;}
	.st10{opacity:0.5;fill:#8A5D3B;}
	.st11{fill:#F1F1F2;}
	.st12{fill:#404041;}
	.st13{fill:#603813;}
	.st14{fill:#73553B;}
</style>
<circle class="st0" cx="163" cy="150" r="147.4"/>
<g>
	<path class="st1" d="M446.5,747.5c-0.3-12.4-6.9-24.6-17.3-30.7c5.8-5.4,8-12.5,4.1-20.9c-4.2-9.1-16.9-10.4-25-6.7
		c-10.2,4.6-13.1,22.9-5.1,29.6c-6.6,5.4-11.9,12.6-16,20c-1.4,2.4-2.3,5.1-3.2,7.7c-0.6-3.7-2.8-7.2-6.6-9.1
		c-6.5-3.3-14.4-0.5-18,5.6c-2.9,4.9-1.8,10.8,1.8,14.6c-2.3,1.7-4.3,3.7-5.9,6.1c-2.8,4.3-3.1,9.8-3.2,14.7c0,3.7,3.6,5,6.2,4
		c-0.2,7.5-0.6,15-0.5,22.6c0,9.6,7,16.6,16.8,15c8.8-1.4,7.6-14.5,8-20.7c0.7-9,2.1-17.9,1.9-26.9c3.3-0.7,6.8-2.9,9.5-5.3
		c1.5-1.3,3-2.8,4.3-4.4c0.2,2.9,0.4,5.7,0.7,8.6c0.8,8.3,0.8,16.7,1.4,25c0.3,5.5-0.4,12.6,3.3,17.2c1.7,2.2,4.3,4,7.2,4
		c1.5,0,2.9-0.6,4-1.5c0.2-0.1,0.3-0.2,0.4-0.3c3.8,2.7,8.2,3.8,12.3,0.2c4.4-4,4.6-12.3,4.9-17.7c0.3-6.1-0.1-12.2-0.1-18.2
		c0-4.7-0.1-9.4-0.2-14.1c3,1,6.5,0.7,9.2-1.5C446.2,760.6,446.6,753.2,446.5,747.5z"/>
	<g>
		<g>
			<g>
				<circle class="st2" cx="417" cy="704.8" r="12.7"/>
				<path class="st2" d="M425.2,720.2c-0.4-0.3-0.9-0.4-1.4-0.6c-1.2-0.6-2.4-1.1-3.7-1.4l-3.2,3.2l-3.1-3.2c0,0,0,0,0,0
					c-1.6,0.4-3.2,1.1-4.6,2c-0.3,0.1-0.5,0.2-0.8,0.4c-9.6,5.9-15.3,18.1-22.4,33.6c-0.8,1.8-0.5,3.9,0.7,5.3
					c-3.9,3.4-13.5-2.2-14.3-2.4l-2,2l-2-2.1c0,0,0,0,0,0c-1.4,0.3-5.2,2.9-6.6,3.7c-0.1,0-0.3,0.1-0.4,0.2c-0.3,0.2-7,4.1-7,15.8
					c0,1.6,1.3,2.9,2.9,2.9c1.6,0,2.9-1.3,2.9-2.9c0-3.8,0.9-6.4,1.9-8.1V782c0,0.8,0.2,1.6,0.5,2.4c0,0.2,0,0.3,0,0.5l0,26.6
					c0,2.1,1.7,3.7,3.7,3.7c2.1,0,3.7-1.7,3.7-3.7l0-22.3c0.1,0,0.3,0,0.4,0c0,0,0.1,0,0.1,0l0,22.3c0,2.1,1.7,3.7,3.7,3.7
					c2.1,0,3.7-1.7,3.7-3.7l0-26.4c0.5-0.9,0.8-1.9,0.8-3v-14.8c1.2,0.4,2.4,0.7,3.7,0.7c2.8,0,5.9-1.2,9.5-4.6
					c0.8-0.7,1.1-1.7,0.9-2.7c0.9-0.5,1.6-1.2,2.1-2.2c3.2-6.9,6.1-13.1,9-18.1v17.1c0,1.3,0.3,2.6,0.7,3.7c0,0.3-0.1,0.5-0.1,0.8
					l0,47.2c0,3.2,2.6,5.8,5.8,5.8c3.2,0,5.8-2.6,5.8-5.8l0-40.5c0.2,0,0.5,0,0.7,0c0,0,0.1,0,0.1,0v40.5c0,3.2,2.6,5.8,5.8,5.8
					c0,0,0,0,0,0c3.2,0,5.8-2.6,5.8-5.8l0-46.9c0.8-1.4,1.2-3,1.2-4.8v-17.9c1.5,3.9,2,9,1.3,16.4c-0.3,2.7,1.7,5.1,4.4,5.4
					c0.2,0,0.3,0,0.5,0c2.5,0,4.6-1.9,4.9-4.4C443.4,734.6,434.8,726.1,425.2,720.2z"/>
				<circle class="st2" cx="370.5" cy="748.5" r="8.1"/>
			</g>
		</g>
	</g>
</g>
<g>
	<defs>
		<circle id="SVGID_1_" cx="163" cy="150.1" r="147.4"/>
	</defs>
	<clipPath id="SVGID_2_">
		<use xlink:href="#SVGID_1_"  style="overflow:visible;"/>
	</clipPath>
	<g class="st3">
		<g>
			<g>
				<path class="st4" d="M46.1,177.5l-0.8-7c0,0-21.6-12.5-21.7-21.1c-0.2-8.7-8-0.1-8-0.1s0.2,14.9,2.7,23c2.5,8.1,0,9.4,1.5,12.7
					C22.8,192.1,31.3,193.8,46.1,177.5z"/>
				<path class="st4" d="M24,153c0,0-0.1-5.4,0.5-7.1c0.7-1.7-3.5-4-5.8-3.6c0,0-3.9,0.9-3.1,8.2C16.5,157.8,24,153,24,153z"/>
				<path class="st4" d="M25.2,156.4c0,0-0.1-5.4,0.5-7.1c0.7-1.7-3.5-4-5.8-3.6c0,0-3.9,0.9-3.1,8.2
					C17.7,161.2,25.2,156.4,25.2,156.4z"/>
			</g>
			<path class="st4" d="M86.2,217.7c0,0,9.9-37.7-40.4-39.6l-2.8-7.9c0,0,45.2-13,72.6,39.4C115.6,209.5,113.2,239.9,86.2,217.7z"/>
		</g>
		
			<linearGradient id="SVGID_3_" gradientUnits="userSpaceOnUse" x1="-7.0285" y1="56.5137" x2="55.1984" y2="111.8264" gradientTransform="matrix(0.9737 -0.2281 0.2281 0.9737 16.9297 109.2226)">
			<stop  offset="0" style="stop-color:#FFFFFF"/>
			<stop  offset="1" style="stop-color:#895E3B"/>
		</linearGradient>
		<path class="st5" d="M44.1,169.9c-3.6-2.2-14.6-9.3-18.9-15.9c0-1.7,0.2-3.8,0.5-4.7c0.3-0.8-0.4-1.6-1.4-2.3
			c0.1-0.4,0.2-0.8,0.3-1.1c0.7-1.7-3.5-4-5.8-3.6c0,0-3.4,0.8-3.2,6.9c-0.1,0.1-0.1,0.1-0.1,0.1s0.2,14.9,2.7,23
			c2.5,8.1,0,9.4,1.5,12.7c3,7,11.4,8.8,26-7.2l0.1,0.2c50.3,1.9,40.4,39.6,40.4,39.6c27,22.2,29.4-8.2,29.4-8.2
			C90.7,161.9,51.2,168.3,44.1,169.9z"/>
		<path class="st4" d="M167.7,170.9c12.9,12,20.1,19.5,39.3,16.3l-4.7,7.5c0,0-20.4,6.4-36.4-18.4
			C166,176.2,166.7,169.9,167.7,170.9z"/>
		<path class="st4" d="M167.8,171.7c0.3,2.6-4.8,5.3-11.4,5.9c-6.5,0.6-12.1-1-12.3-3.6c-0.3-2.6,4.8-5.3,11.4-5.9
			C162,167.4,167.5,169.1,167.8,171.7z"/>
		<path class="st4" d="M163.6,174.7c0.4,0.8-1.3,2.7-3.9,4.1c-2.6,1.4-5.1,1.9-5.6,1.1c-0.5-0.8,1.3-2.7,3.9-4.1
			C160.7,174.3,163.2,173.8,163.6,174.7z"/>
		<path class="st4" d="M163.9,175.8c0,0,1.6-0.1,3,1.9c1.4,2,0.4-3.2,0.4-3.2l-2.9-1.7L163.9,175.8z"/>
		
			<linearGradient id="SVGID_4_" gradientUnits="userSpaceOnUse" x1="109.022" y1="107.0281" x2="167.3503" y2="107.0281" gradientTransform="matrix(0.9737 -0.2281 0.2281 0.9737 16.9297 109.2226)">
			<stop  offset="0" style="stop-color:#FFFFFF"/>
			<stop  offset="1" style="stop-color:#895E3B"/>
		</linearGradient>
		<path class="st6" d="M167.7,170.9c-0.1-0.1-0.2,0-0.2,0c-1.2-2.1-6.2-3.3-12-2.8c-6.5,0.6-11.6,3.3-11.4,5.9
			c0.3,2.5,5.3,4.1,11.4,3.7c-1,0.9-1.6,1.8-1.3,2.3c0.4,0.8,2.9,0.3,5.6-1.1c1.6-0.9,2.8-1.9,3.4-2.7c0.3-0.1,0.5-0.2,0.8-0.3l0,0
			c0,0,1.6-0.1,3,1.9c0.1,0.1,0.1,0.1,0.2,0.2c15.8,22.8,35.2,16.7,35.2,16.7l4.7-7.5C187.8,190.4,180.6,182.9,167.7,170.9z"/>
		<path class="st7" d="M319,141.6c-2.3,19.3-22.1,32.8-44.2,30.1c-22-2.7-32.5-21.8-35.7-39.8c-3.3-19,22.1-32.8,44.2-30.1
			C305.4,104.4,321.4,122.3,319,141.6z"/>
		<path class="st7" d="M252.4,160.4c0,0-52.3,17.6-71.5,62.7c0,0-44.5,31-66.1-15.1c0,0-80.5-1.7-75.9,20.9
			c4.6,22.6,53.1,101.1,128.6,84c86.7-19.6,110.5-85.6,126.6-143.7L252.4,160.4z"/>
		<path class="st7" d="M39,231.2c0,0-10.2-51.6,5.8-90.2l10.3,6.6c0,0-13,53.5,0.8,73.4C63.4,232.1,39,231.2,39,231.2"/>
		<g>
			<path class="st4" d="M46,143.8l7.9-4.6c0,0-4.4-28.2,3.4-34.3c7.8-6.1-5-7-5-7S38.7,108.4,33,116c-5.8,7.7-8.6,6.5-10.7,10.1
				C17.7,133.6,21.6,142.2,46,143.8z"/>
			<path class="st4" d="M54.3,107.8c0,0,4.9-3.8,6.9-4.4c2-0.6,1.4-5.8-0.4-7.5c0,0-3.3-2.8-9.5,2.9
				C45.1,104.6,54.3,107.8,54.3,107.8z"/>
			<path class="st4" d="M52,111.2c0,0,4.9-3.8,6.9-4.4c2-0.6,1.4-5.8-0.4-7.5c0,0-3.3-2.8-9.5,2.9C42.7,107.9,52,111.2,52,111.2z"/>
		</g>
		<path class="st4" d="M53.2,137.7c0,0,2.8,5.6,1.8,9.9c-1,4.4-10.2-3-10.2-3l-4.4-6.4L53.2,137.7z"/>
		<g>
			<path class="st8" d="M210.9,200.9c-0.1,0-0.2,0-0.2,0.1l0,0c-0.7-0.5-1.7-0.7-2.6-0.7c-0.9,0-1.8,0.1-2.7,0.2l0,0l0,0
				c-0.1-0.3-0.4-0.4-0.7-0.5c-0.3-0.1-0.6-0.2-0.9-0.2c-0.6-0.1-1.2-0.1-1.8,0c-1.2,0.1-2.4,0.3-3.6,0.7c-0.6,0.2-1.1,0.4-1.7,0.6
				c-0.5,0.3-1.1,0.5-1.5,1c-0.2,0.2-0.4,0.5-0.3,0.7c0,0.3,0.3,0.4,0.6,0.5c0.5,0.2,1.1,0.3,1.7,0.3l0.4,0l-0.3,0.2
				c-0.6,0.4-1.2,0.7-1.8,1.1c-0.6,0.4-1.1,0.8-1.7,1.3c-1.1,0.9-2,1.9-2.8,3.1c-0.4,0.6-0.7,1.2-0.8,1.8c-0.1,0.6-0.1,1.3,0.4,1.8
				c0.4,0.4,1,0.7,1.7,0.8c0.7,0.1,1.3,0.1,2,0.1c0.7,0,1.4-0.2,2-0.3c0.7-0.1,1.3-0.3,2-0.5c0.7-0.2,1.3-0.5,1.9-0.7
				c0.6-0.3,1.3-0.6,1.9-0.9c2.5-1.2,4.8-2.8,6.6-4.8l0.7-0.7l0.3,1l0,0.1l-0.8-0.4c0.1-0.1,0.2-0.1,0.3-0.1c0.1,0,0.2,0,0.3-0.1
				c0.2,0,0.4-0.1,0.6-0.1c0.4,0,0.8,0,1.1,0.1c0.4,0.1,0.7,0.2,1.1,0.4c0.2,0.1,0.3,0.2,0.5,0.3l0.1,0.1l0.1,0l0,0
				c-0.1-0.1,0,0-0.1,0l0,0l0,0l0,0l0,0l0,0l0.2,0.1l0,0l0.1,0l2.2,1.3c0.7,0.4,1.5,0.9,2.2,1.3l2.3,1.1c0.8,0.4,1.5,0.8,2.3,1
				l2.4,0.8c0.8,0.3,1.6,0.4,2.5,0.7c0.8,0.2,1.6,0.4,2.5,0.5l2.5,0.4l2.5,0.1c0.8,0.1,1.7,0,2.5-0.1c0.8,0,1.7-0.1,2.5-0.3
				c0.4-0.1,0.8-0.1,1.3-0.2l1.2-0.3c0.8-0.2,1.6-0.4,2.4-0.7c0.8-0.2,1.6-0.6,2.4-0.9c0.8-0.4,1.5-0.7,2.3-1.1
				c0.7-0.4,1.5-0.9,2.1-1.3l-0.2,0.3l1.6-8.6l0.7,0.4l-2.5,1.4c-0.8,0.5-1.7,0.8-2.5,1.3c-0.8,0.4-1.7,0.8-2.6,1.1
				c-0.4,0.2-0.9,0.4-1.3,0.5l-1.4,0.4c-0.5,0.1-0.9,0.3-1.4,0.4l-1.4,0.3c-0.9,0.2-1.9,0.3-2.8,0.4c-0.9,0.1-1.9,0.1-2.8,0.2
				c-0.9,0-1.9-0.1-2.8-0.1c-0.9-0.1-1.9-0.2-2.8-0.4c-0.9-0.2-1.8-0.3-2.7-0.6c-0.9-0.2-1.8-0.4-2.7-0.7c-0.9-0.3-1.8-0.5-2.7-0.9
				c-1.8-0.6-3.5-1.3-5.3-1.9L210.9,200.9z M210.9,200.9l5.2,2c1.8,0.6,3.5,1.3,5.3,1.9c0.9,0.3,1.8,0.6,2.7,0.8
				c0.9,0.3,1.8,0.5,2.7,0.7c0.9,0.2,1.8,0.4,2.7,0.5c0.9,0.1,1.8,0.2,2.8,0.3c0.9,0,1.9,0.1,2.8,0c0.9-0.1,1.9-0.1,2.8-0.2
				c0.9-0.1,1.8-0.3,2.7-0.5l1.4-0.3c0.4-0.1,0.9-0.3,1.3-0.4l1.3-0.4c0.4-0.2,0.9-0.4,1.3-0.5c0.9-0.4,1.7-0.7,2.5-1.2
				c0.8-0.4,1.7-0.8,2.5-1.3l2.4-1.4l0.8-0.5l-0.2,0.9l-1.4,8.7l0,0.2l-0.2,0.1c-0.7,0.6-1.5,1.1-2.2,1.5c-0.8,0.5-1.6,0.8-2.4,1.2
				c-0.8,0.3-1.6,0.7-2.5,1c-0.8,0.3-1.7,0.6-2.5,0.7l-1.3,0.3c-0.4,0.1-0.9,0.1-1.3,0.2c-0.9,0.1-1.7,0.3-2.6,0.3
				c-0.9,0-1.8,0.2-2.6,0.1l-2.6-0.1l-2.6-0.4c-0.9-0.1-1.7-0.4-2.6-0.6c-0.8-0.2-1.7-0.4-2.5-0.7L222,213c-0.8-0.3-1.6-0.7-2.4-1.1
				l-2.4-1.1c-0.8-0.4-1.5-0.9-2.3-1.3l-2.2-1.3l0.1,0l-0.2-0.1l0,0l0,0l-0.1,0l0,0l-0.1-0.1c-0.1-0.1-0.3-0.2-0.4-0.2
				c-0.3-0.1-0.5-0.2-0.8-0.3c-0.3-0.1-0.6-0.1-0.8-0.1c-0.1,0-0.3,0-0.4,0c-0.1,0-0.1,0-0.2,0l-0.2,0l-0.6,0.2l-0.1-0.6l0-0.1
				l0.9,0.3c-1,1-2.1,1.9-3.3,2.8c-1.2,0.8-2.4,1.5-3.7,2.1c-0.6,0.3-1.3,0.6-2,0.8c-0.7,0.3-1.3,0.5-2,0.7
				c-0.7,0.2-1.4,0.4-2.1,0.5c-0.7,0.1-1.4,0.2-2.1,0.3c-0.7,0-1.5,0-2.2-0.1c-0.7-0.2-1.5-0.4-2-1.1c-0.5-0.6-0.6-1.5-0.4-2.2
				c0.2-0.7,0.5-1.4,0.9-2c0.8-1.2,1.9-2.2,3-3.1c0.6-0.4,1.1-0.9,1.7-1.3c0.6-0.4,1.2-0.8,1.8-1.1l0.1,0.2c-0.6,0-1.2-0.1-1.8-0.3
				c-0.3-0.1-0.6-0.3-0.7-0.7c0-0.4,0.2-0.6,0.4-0.9c0.4-0.4,1-0.7,1.6-1c0.6-0.3,1.1-0.5,1.7-0.6c1.2-0.3,2.4-0.5,3.6-0.6
				c0.6,0,1.2,0,1.8,0.1c0.3,0,0.6,0.1,0.9,0.2c0.3,0.1,0.6,0.3,0.7,0.6l0,0c0.9-0.2,1.8-0.3,2.7-0.2c0.9,0,1.9,0.2,2.6,0.8l0,0
				C210.7,201,210.8,200.9,210.9,200.9z"/>
		</g>
		<path class="st7" d="M260,117.7c0,0-34.6,8.8-42.6,4.9c0,0-9.2,1.1-6.9,6.3c2.3,5.3,6.6,20.3,29.9,29.1
			C263.8,166.7,260,117.7,260,117.7z"/>
		<path class="st9" d="M219.2,124.5c2.6-2.3-5.3-9.5-10.9-3.7c-1.5,1.5-1.2,5.8,1.4,7.9C209.8,128.6,212.5,130.4,219.2,124.5z"/>
		<g>
			<path class="st7" d="M50.3,254c0,0-0.2,0.4-0.6,1.2c-0.4,0.8-0.9,1.9-1.6,3.4c-0.6,1.5-1.4,3.3-2.2,5.4c-0.8,2.1-1.6,4.5-2.4,7.2
				c-0.7,2.7-1.5,5.6-2.1,8.7c-0.3,1.5-0.5,3.2-0.7,4.8c-0.1,1.6-0.4,3.3-0.4,5c0,0.9-0.1,1.7-0.1,2.6c0,0.9,0.1,1.7,0.1,2.6
				c0,0.9,0.2,1.7,0.2,2.6c0.1,0.9,0.2,1.8,0.4,2.6c0.5,3.5,1.7,7,3.1,10.2l1.2,2.4c0.4,0.8,0.9,1.5,1.4,2.3
				c0.9,1.6,2.1,2.9,3.2,4.3c0.5,0.7,1.2,1.3,1.8,1.9c0.6,0.6,1.2,1.3,1.8,1.9c1.4,1.1,2.6,2.3,4,3.3c1.4,0.9,2.8,2,4.2,2.8
				c1.4,0.8,2.8,1.6,4.2,2.4c2.9,1.3,5.5,2.7,8.1,3.6c1.3,0.5,2.5,1,3.7,1.4c1.2,0.4,2.4,0.7,3.4,1.1c1.1,0.3,2.1,0.7,3,1
				c0.9,0.2,1.8,0.5,2.6,0.7c3.2,0.8,5,1.3,5,1.3s-1.8-0.3-5.1-0.8c-0.8-0.1-1.7-0.3-2.7-0.4c-1-0.2-2-0.5-3.1-0.7
				c-1.1-0.3-2.3-0.5-3.5-0.8c-1.2-0.3-2.5-0.8-3.9-1.2c-2.7-0.8-5.5-2-8.5-3.2c-1.4-0.7-2.9-1.5-4.4-2.3c-0.8-0.4-1.5-0.9-2.2-1.4
				c-0.7-0.5-1.5-1-2.2-1.4c-1.5-1-2.8-2.2-4.3-3.4c-0.7-0.6-1.3-1.3-2-1.9c-0.6-0.7-1.4-1.3-1.9-2.1c-1.2-1.5-2.4-2.9-3.4-4.6
				c-0.5-0.8-1.1-1.6-1.5-2.5l-1.3-2.6c-1.5-3.5-2.7-7.2-3.2-11c-0.6-3.7-0.7-7.4-0.4-11c0.1-1.8,0.3-3.5,0.6-5.2
				c0.3-1.7,0.6-3.3,1-4.9c0.7-3.2,1.7-6.1,2.6-8.7c1-2.6,2-5,2.9-7.1c1-2.1,1.9-3.8,2.7-5.3C49.2,255.5,50.3,254,50.3,254z"/>
		</g>
		<path class="st10" d="M302.9,119.1c0,0,14.6,27.6,11.8,33.2c-2.8,5.6,4.9-3.6,5.6-13.1C321.1,129.7,302.9,119.1,302.9,119.1z"/>
		<polygon class="st7" points="232.6,205.5 257.6,211.7 266,195 249.1,193 		"/>
		<path class="st10" d="M52.6,214.6l4.6,9.4l1.3-10.8C58.4,213.2,56.7,212.8,52.6,214.6z"/>
		<path class="st7" d="M307.8,116.6c0,0,5.8,1.7,12.4,0.8c6.6-0.9,32.1,26,46.7,16.1c14.6-9.9-4.3,17.6-17.5,19.3
			c-13.1,1.7-33.5-10.4-35.8-18.7c-2.3-8.3-9.6-15-10.6-15.1C301.9,119,307.8,116.6,307.8,116.6z"/>
		<path class="st10" d="M250.2,157.9c0,0,25.9,8.7,34.7,5.7c0,0-47.9,11.4-48.4,4.4c-0.1-1.1,15.4-7.4,15.4-7.4L250.2,157.9z"/>
		<g>
			<path class="st11" d="M198.3,30.8c5,21.4-8.3,42.9-29.7,47.9c-21.4,5-42.9-8.3-47.9-29.7c-5-21.4,8.3-42.9,29.7-47.9
				C171.9-4,193.3,9.3,198.3,30.8z"/>
			<g>
				<g>
					<g>
						<path class="st12" d="M180.5,6c-4.4-2.7-9.2-4.5-14.3-5.4c-5.3-0.9-10.6-0.7-15.8,0.5c-5.2,1.2-10.1,3.4-14.4,6.6
							c-4.2,3-7.7,6.8-10.4,11.2c-2.7,4.4-4.6,9.2-5.4,14.3c-0.9,5.3-0.7,10.6,0.5,15.8c1.2,5.2,3.4,10.1,6.6,14.4
							c3,4.2,6.8,7.7,11.2,10.4c4.4,2.7,9.2,4.6,14.3,5.4c5.3,0.9,10.6,0.7,15.8-0.5c5.2-1.2,10.1-3.4,14.4-6.6
							c4.2-3,7.7-6.8,10.4-11.2c2.7-4.4,4.6-9.2,5.4-14.3c0.9-5.3,0.7-10.6-0.5-15.8c-1.2-5.2-3.4-10.1-6.6-14.4
							C188.7,12.2,184.9,8.7,180.5,6z M131,14.9c0.3-0.4,0.6-0.7,0.9-1c1.6-1.8,3.4-3.3,5.3-4.7c4.1-2.9,8.8-5.1,13.7-6.2
							c3.3-0.8,6.7-1.1,10.1-1c-1.1,0.8-2.4,2.1-4.5,4.9c-2.2,0.3-4.3,0.8-6.4,1.5c-2.8,0.9-5.4,2.2-8,3.8c-2.3,1.5-4,2.9-5.2,4
							c-2.2-0.3-5.1-0.5-6.5-0.6C130.6,15.5,130.9,15,131,14.9z M168.6,16.3l-2.4,19.7L151,42.7l-16.3-10.5
							c-0.6-6.4,2.4-12.8,2.4-12.8c0,0,2.3-2.7,6.4-5.2c2.4-1.5,4.9-2.7,7.4-3.6c2.1-0.7,4.2-1.2,6.4-1.4L168.6,16.3z M123.6,46.9
							c0.2,2.7,0.8,5.5,1.6,8.2c-0.5-0.6-0.8-1-1.1-1.4c-0.6-1.6-1.2-3.4-1.6-5.1c-1.3-5.5-1.3-10.9-0.3-16.1c0.3,2.5,1,5,1.7,6.9
							C123.5,41.8,123.4,44.4,123.6,46.9z M130.1,60.3c-0.7-1.3-1.6-3.2-2.4-5.5c-0.9-2.7-1.4-5.4-1.6-8.1c-0.2-2.1-0.1-4.1,0.1-6.1
							c2.2-2.9,5.4-5.1,7.2-6.1l16,10.3l2.1,14.9L140,66.9C136.2,65.2,132.8,62.7,130.1,60.3z M173.5,72.5
							c-2.4,2.5-9.4,4.6-12.2,5.4c-3.3,0.1-6.6-0.1-9.9-0.9c-2.8-0.6-5.6-1.6-8.2-2.8c0-0.1-1.3-3.9-1.6-5.3l11.8-7.2l16.2,2.9
							L173.5,72.5C173.5,72.4,173.5,72.5,173.5,72.5z M194.9,53.8c-1.5,3.7-3.4,7.2-6,10.2c-2.5,2.8-6.3,4.4-9.7,5.8
							c-0.3,0.1-3.5,1.4-3.6,1.3l-4-7.9l7.8-13.2l13.4-4.5c0.7,2.1,1.7,5.3,2.4,7.2C195.1,53.1,195,53.5,194.9,53.8z M192.5,42.8
							c0,0.1-0.1,0.2-0.1,0.3l-13.4,4.5l-10.4-11.1l2.4-19.7l9.5-1.6c2.4,1.2,4.6,2.7,6.6,4.3c2.5,2.1,4.6,4.5,6.3,7.2
							C194.5,35.9,193.2,41,192.5,42.8z M192.6,21.3c-1.2-1.4-2.5-2.6-3.9-3.8c-2.2-1.9-4.7-3.5-7.4-4.8c-0.9-2-2.8-4.9-6.7-7.6
							c0.1,0,0.1,0.1,0.2,0.1c0.2,0.1,0.4,0.2,0.7,0.3c2.5,1.2,4.9,2.6,7.1,4.3C186.7,12.8,190.1,16.7,192.6,21.3
							C192.6,21.2,192.6,21.2,192.6,21.3z"/>
					</g>
				</g>
			</g>
		</g>
		<g>
			<path class="st13" d="M210.3,128.4c0,0,1.7,3.1,4.9,7.3c0.8,1,1.7,2.2,2.7,3.3c1,1.1,2.1,2.3,3.3,3.4c1.2,1.1,2.5,2.3,3.9,3.3
				c1.4,1.1,2.9,2,4.4,2.8c1.5,0.8,3.1,1.6,4.8,2.1c1.6,0.6,3.3,0.9,4.9,1.2c0.8,0.1,1.6,0.2,2.4,0.2c0.8,0,1.6,0,2.3,0
				c0.8-0.1,1.5-0.1,2.2-0.2c0.7-0.1,1.4-0.2,2-0.3c0.7-0.1,1.3-0.3,1.8-0.4c0.6-0.2,1.1-0.2,1.7-0.4c1-0.4,1.9-0.6,2.6-0.9
				c1.4-0.6,2.2-1,2.2-1s-0.8,0.4-2.2,1.1c-0.7,0.4-1.6,0.6-2.6,1.1c-0.5,0.2-1.1,0.3-1.6,0.5c-0.6,0.2-1.2,0.4-1.9,0.5
				c-0.7,0.1-1.3,0.3-2.1,0.4c-0.7,0.1-1.5,0.1-2.2,0.2c-0.8,0-1.6,0-2.4,0c-0.8-0.1-1.6-0.1-2.5-0.2c-1.7-0.3-3.4-0.6-5-1.2
				c-1.7-0.5-3.3-1.3-4.9-2.1c-1.5-0.9-3.1-1.9-4.4-2.9c-1.4-1.1-2.7-2.2-3.9-3.4c-1.2-1.2-2.3-2.3-3.3-3.5c-1-1.2-1.9-2.3-2.7-3.4
				c-1.6-2.2-2.7-4.1-3.5-5.4C210.7,129.2,210.3,128.4,210.3,128.4z"/>
		</g>
		<path class="st11" d="M242.8,113.3c0,0,2.3-3.3,4.4-1.9c2.1,1.5,2.9,3.6,2.1,6.1c-0.9,2.8-4.6,4.1-6.7,2.4
			C239.6,117.4,242.8,113.3,242.8,113.3z"/>
		<g>
			<g>
				<path class="st14" d="M248.8,118.8c0,0,0-0.2,0.1-0.6c0-0.2,0.1-0.4,0.1-0.7c0-0.3,0.1-0.6,0.1-0.9c0-0.3,0-0.7,0-1.1
					c-0.1-0.4,0-0.8-0.2-1.2c-0.1-0.4-0.2-0.8-0.4-1.2l-0.3-0.6c-0.1-0.2-0.3-0.3-0.4-0.5c-0.2-0.2-0.4-0.3-0.5-0.4
					c-0.2-0.1-0.4-0.1-0.6-0.2c-0.2,0-0.4,0-0.6,0c-0.2,0-0.4,0.1-0.6,0.1c-0.2,0-0.4,0.2-0.6,0.2c-0.2,0.1-0.4,0.2-0.5,0.3
					c-0.3,0.2-0.6,0.4-0.9,0.7c-0.2,0.2-0.5,0.5-0.7,0.7c-0.2,0.2-0.3,0.4-0.5,0.6c-0.3,0.3-0.4,0.5-0.4,0.5s0.1-0.2,0.4-0.5
					c0.1-0.2,0.3-0.4,0.4-0.6c0.2-0.2,0.4-0.4,0.6-0.7c0.2-0.3,0.5-0.5,0.9-0.7c0.2-0.1,0.3-0.2,0.5-0.3c0.2-0.1,0.4-0.2,0.6-0.3
					c0.2-0.1,0.4-0.1,0.7-0.2c0.2,0,0.5,0,0.7,0c0.2,0.1,0.5,0.1,0.7,0.2c0.2,0.1,0.4,0.3,0.6,0.4c0.2,0.2,0.3,0.4,0.5,0.6l0.3,0.6
					c0.2,0.4,0.3,0.9,0.4,1.3c0.1,0.4,0.1,0.9,0.1,1.3c0,0.4,0,0.8-0.1,1.1c-0.1,0.3-0.1,0.7-0.2,0.9c0,0.3-0.1,0.5-0.2,0.7
					C248.8,118.6,248.8,118.8,248.8,118.8z"/>
			</g>
			<path class="st14" d="M245,115.2c-1.2,2-1.5,4.1-0.7,4.8c0.8,0.7,2.4-0.4,3.6-2.3c1.2-2,1.5-4.1,0.7-4.8
				C247.8,112.2,246.2,113.3,245,115.2z"/>
			<path class="st11" d="M246.7,114.5c-0.2,0.3-0.2,0.6,0,0.8c0.2,0.2,0.5,0.1,0.6-0.2c0.2-0.3,0.1-0.6,0-0.8
				C247.1,114.1,246.8,114.2,246.7,114.5z"/>
		</g>
		<path class="st11" d="M276.4,130.6c0,0,1.3-5.1-3.6-7.2c-4.9-2.1-9-2.1-11.3,0.5c-2.5,2.9,0.8,8.8,6.1,10.7
			C275.3,137.4,276.4,130.6,276.4,130.6z"/>
		<g>
			<g>
				<path class="st14" d="M260.5,125.3c0,0,0.3-0.3,0.7-0.7c0.1-0.1,0.2-0.2,0.4-0.4c0.2-0.1,0.3-0.2,0.5-0.4
					c0.4-0.3,0.8-0.6,1.3-0.8c0.3-0.1,0.5-0.3,0.8-0.4c0.3-0.1,0.6-0.2,0.9-0.3c0.6-0.3,1.3-0.3,2-0.5c0.7,0,1.5-0.1,2.2,0
					c0.8,0,1.5,0.3,2.2,0.5l1.1,0.5c0.3,0.2,0.6,0.4,1,0.6c0.3,0.2,0.6,0.5,0.9,0.7c0.3,0.3,0.5,0.5,0.7,0.8
					c0.2,0.3,0.4,0.6,0.6,0.9c0.1,0.3,0.3,0.6,0.4,0.9c0.1,0.3,0.2,0.6,0.2,0.9c0.1,0.3,0.1,0.6,0.2,0.9c0,0.6,0,1.1,0,1.6
					c0,0.5-0.1,0.8-0.2,1.2c-0.1,0.6-0.2,1-0.2,1s0-0.4,0.1-1c0-0.3,0.1-0.7,0.1-1.2c0-0.5,0-1-0.1-1.5c-0.1-0.3-0.1-0.5-0.2-0.8
					c-0.1-0.3-0.1-0.6-0.3-0.9c-0.1-0.3-0.3-0.6-0.4-0.9c-0.2-0.3-0.4-0.5-0.6-0.8c-0.2-0.3-0.4-0.5-0.7-0.8
					c-0.3-0.2-0.5-0.5-0.8-0.7c-0.3-0.2-0.6-0.4-0.9-0.6l-1-0.4c-0.7-0.2-1.4-0.4-2.1-0.5c-0.7-0.1-1.4,0-2.1,0
					c-0.7,0.1-1.4,0.2-1.9,0.4c-0.3,0.1-0.6,0.2-0.9,0.3c-0.3,0.1-0.5,0.2-0.8,0.4c-0.5,0.2-0.9,0.5-1.3,0.7
					c-0.2,0.1-0.4,0.2-0.5,0.3c-0.1,0.1-0.3,0.2-0.4,0.4C260.8,125.1,260.5,125.3,260.5,125.3z"/>
			</g>
			
				<ellipse transform="matrix(0.3402 -0.9403 0.9403 0.3402 56.5033 334.5702)" class="st14" cx="266.7" cy="127" rx="5.4" ry="3.9"/>
			
				<ellipse transform="matrix(0.3382 -0.9411 0.9411 0.3382 59.6053 335.4272)" class="st11" cx="268.3" cy="125.3" rx="0.8" ry="0.9"/>
		</g>
		<g>
			<path class="st14" d="M269.7,110.2c0,0,0.2-0.1,0.5-0.3c0.3-0.2,0.9-0.4,1.5-0.5c0.3-0.1,0.7-0.1,1.1-0.2c0.4,0,0.8-0.1,1.2,0
				c0.4,0,0.9,0.1,1.3,0.2c0.4,0.1,0.9,0.3,1.3,0.4c0.4,0.2,0.8,0.4,1.2,0.7c0.3,0.3,0.7,0.5,1,0.8c0.3,0.3,0.6,0.6,0.8,0.9
				c0.2,0.3,0.4,0.6,0.6,0.9c0.2,0.3,0.4,0.5,0.5,0.8c0.1,0.2,0.2,0.4,0.3,0.6c0.2,0.3,0.3,0.5,0.3,0.5s-0.1-0.2-0.3-0.5
				c-0.2-0.3-0.5-0.8-0.9-1.3c-0.2-0.3-0.4-0.5-0.7-0.8c-0.3-0.3-0.5-0.5-0.8-0.8c-0.3-0.3-0.7-0.5-1-0.8c-0.4-0.2-0.7-0.4-1.1-0.6
				c-0.4-0.1-0.8-0.3-1.2-0.4c-0.4-0.1-0.8-0.2-1.2-0.2c-0.8,0-1.6,0-2.2,0.1c-0.6,0.1-1.2,0.3-1.5,0.4
				C269.9,110.1,269.7,110.2,269.7,110.2z"/>
		</g>
		<g>
			<path class="st14" d="M256,106.4c0,0-0.1-0.1-0.2-0.3c-0.1-0.2-0.3-0.4-0.6-0.7c-0.1-0.1-0.3-0.3-0.4-0.4
				c-0.2-0.1-0.4-0.3-0.6-0.4c-0.2-0.1-0.4-0.2-0.7-0.3c-0.2-0.1-0.5-0.1-0.7-0.1c-0.2,0-0.5,0-0.7,0c-0.2,0-0.5,0.1-0.7,0.2
				c-0.2,0.1-0.4,0.1-0.6,0.2c-0.2,0.1-0.4,0.2-0.6,0.3c-0.3,0.2-0.6,0.3-0.8,0.4c-0.2,0.1-0.3,0.2-0.3,0.2s0.1-0.1,0.3-0.2
				c0.2-0.1,0.4-0.4,0.8-0.6c0.2-0.1,0.4-0.2,0.5-0.3c0.2-0.1,0.4-0.2,0.7-0.3c0.2-0.1,0.5-0.1,0.7-0.2c0.3-0.1,0.5-0.1,0.8-0.1
				c0.3,0,0.5,0.1,0.8,0.1c0.3,0.1,0.5,0.2,0.7,0.3c0.2,0.1,0.4,0.3,0.6,0.4c0.2,0.2,0.3,0.3,0.4,0.5
				C255.9,105.8,256,106.4,256,106.4z"/>
		</g>
	</g>
</g>
</svg>
