<?xml version="1.0" encoding="utf-8"?>
<!-- Generator: Adobe Illustrator 19.0.0, SVG Export Plug-In . SVG Version: 6.00 Build 0)  -->
<svg version="1.1" id="Layer_1" xmlns="http://www.w3.org/2000/svg" xmlns:xlink="http://www.w3.org/1999/xlink" x="0px" y="0px"
	 viewBox="0 0 50 50" style="enable-background:new 0 0 50 50;" xml:space="preserve">
<style type="text/css">
	.st0{fill:#F0CE17;}
</style>
<path id="XMLID_48_" class="st0" d="M41.2,28.7c-1-1.8-1.3-2.6-1.5-3.5c-0.1-0.7-0.3-1.5-0.5-2.2c4.3-3.1,2.7-18.8-0.3-14.5
	c-2.9,4.1-7.3,6.1-9.1,6.8c-1.5-0.2-3.2-0.3-5.1-0.3c-2.2-0.1-4.1,0-5.7,0.4c-1.6-0.6-6.3-2.6-9.3-6.9C6.5,4,5,21.5,10.1,23.3
	C10,24,9.8,24.6,9.7,25.2c-0.2,0.9-0.5,1.7-1.5,3.5c-1,1.8-4.6,2.2-4.6,2.2c3.8,13.6,19.5,12.4,20.9,12.3c3.7,0.2,17.7,0,21.2-12.3
	C45.8,30.9,42.2,30.5,41.2,28.7z"/>
</svg>
