<?xml version="1.0" encoding="utf-8"?>
<!-- Generator: Adobe Illustrator 19.0.0, SVG Export Plug-In . SVG Version: 6.00 Build 0)  -->
<svg version="1.1" id="Layer_1" xmlns="http://www.w3.org/2000/svg" xmlns:xlink="http://www.w3.org/1999/xlink" x="0px" y="0px"
	 viewBox="0 0 50 50" style="enable-background:new 0 0 50 50;" xml:space="preserve">
<style type="text/css">
	.st0{fill:#5D5CA7;}
	.st1{fill:#B4D034;}
	.st2{fill:#D14286;}
</style>
<g id="XMLID_4773_">
	<path id="XMLID_4782_" class="st0" d="M5,23.5c0,0,4.3-10.5,14.5-14.2c2.3-0.8,7.4-2,9.3,2.6c0,0,0.9,1.8,1.3,3.8
		c0.3,2,0.9,5.4,1.1,5.9c0.2,0.5,1.3,2.8,3.2,2.6c1.8-0.2,2.2-2.4,2.5-3.6c0.3-1.2,0.7-8.3,3.3-8.8c2.6-0.5,4.7,6.3,4.7,6.3
		s1.2,4.7,1.3,5.5c0.1,0.9,0.7,4.7,0.4,8.7c-0.4,3.9-1.8,8-3.7,8.1c-0.6,0-0.8-0.1-0.2-2.4c0.6-2.3,1.4-6.1,0-6.7
		c-1.5-0.5-3.8,2.6-4.9,5.1c-1.1,2.5-2.9,3.7-5.8,3.5c-2.9-0.2-3.1-2.7-2.7-6.8c0.4-4.1,0-8.6-4-10.1s-8.6,10.4-8.9,11
		c-0.3,0.5-1.5,8.2-8,7C1.8,39.8,0.5,32.3,5,23.5z"/>
	<path id="XMLID_4781_" class="st1" d="M2,34.4c0,0,0-0.2-0.1-0.5c0-0.3-0.1-0.7-0.1-1.3c-0.1-1.1,0-2.8,0.3-4.7
		c0.2-1,0.4-2,0.8-3.1c0.4-1.1,0.8-2.2,1.3-3.3c0.6-1.1,1.2-2.2,1.9-3.3c0.7-1.1,1.5-2.1,2.4-3.1c0.9-1,1.8-1.9,2.7-2.7
		c1-0.9,2-1.6,3-2.3c1-0.7,2.1-1.3,3.1-1.7c1-0.4,2.1-0.7,3.1-0.9c1-0.2,1.9-0.2,2.7-0.1c0.8,0.1,1.5,0.3,2,0.5
		c0.5,0.2,0.9,0.4,1.2,0.6C26.5,8.9,26.7,9,26.7,9s-0.1-0.1-0.4-0.2c-0.3-0.1-0.7-0.3-1.2-0.5c-0.5-0.2-1.2-0.3-2-0.3
		c-0.8,0-1.6,0-2.6,0.2c-0.9,0.2-1.9,0.5-2.9,1c-1,0.5-2,1.1-2.9,1.7c-1,0.7-1.9,1.5-2.8,2.3C11,14.1,10.1,15,9.3,16
		c-0.8,0.9-1.6,1.9-2.4,2.9C6.2,19.9,5.6,21,5,22c-0.6,1-1,2.1-1.4,3.1c-0.4,1-0.7,2-0.9,2.9C2.2,29.9,2,31.5,2,32.6
		c0,0.6,0,1,0,1.3C2,34.2,2,34.4,2,34.4z"/>
	<path id="XMLID_4780_" class="st2" d="M1.4,33.9c0,0-0.2-0.4-0.3-1.1C1,32.4,1,32,0.9,31.4c-0.1-0.5-0.1-1.1-0.1-1.8
		c0-0.6,0-1.4,0.1-2.1c0.1-0.7,0.2-1.5,0.4-2.3c0.2-0.8,0.5-1.6,0.8-2.4c0.3-0.8,0.7-1.6,1.1-2.3L3.6,20l0.3-0.6
		c0.1-0.2,0.2-0.4,0.3-0.6c0.1-0.2,0.2-0.4,0.4-0.5C4.7,18.2,4.8,18,5,17.8c0.1-0.2,0.3-0.3,0.4-0.5c0.1-0.2,0.3-0.3,0.4-0.5
		c0.1-0.2,0.3-0.3,0.4-0.5c0.5-0.6,1.1-1.2,1.6-1.7c0.5-0.5,1-1,1.5-1.4c0.2-0.2,0.5-0.4,0.7-0.6c0.2-0.2,0.4-0.4,0.7-0.5
		c0.2-0.2,0.4-0.3,0.6-0.4c0.2-0.1,0.4-0.2,0.5-0.4c0.6-0.4,1-0.7,1-0.7s-0.3,0.3-0.9,0.8c-0.1,0.1-0.3,0.3-0.5,0.4
		c-0.2,0.2-0.3,0.3-0.5,0.5c-0.2,0.2-0.4,0.4-0.6,0.6c-0.2,0.2-0.4,0.4-0.6,0.7c-0.5,0.4-0.9,1-1.4,1.5c-0.5,0.5-1,1.1-1.5,1.7
		c-0.1,0.2-0.2,0.3-0.4,0.5c-0.1,0.2-0.2,0.3-0.4,0.5c-0.1,0.2-0.2,0.3-0.4,0.5c-0.1,0.2-0.2,0.3-0.3,0.5C5.1,19,5,19.1,4.9,19.3
		c-0.1,0.2-0.2,0.4-0.3,0.5l-0.3,0.5l-0.3,0.5c-0.4,0.7-0.8,1.5-1.1,2.2c-0.3,0.8-0.6,1.5-0.8,2.3c-0.2,0.8-0.4,1.5-0.5,2.2
		c-0.1,0.7-0.2,1.4-0.3,2c-0.1,1.3,0,2.3,0,3.1C1.3,33.5,1.4,33.9,1.4,33.9z"/>
	<path id="XMLID_4779_" class="st1" d="M32.7,23.1c0,0,0.1,0.1,0.2,0.1c0.1,0.1,0.3,0.2,0.5,0.2c0.2,0.1,0.5,0.1,0.8-0.1
		c0.3-0.2,0.5-0.4,0.7-0.8c0.2-0.4,0.4-0.8,0.5-1.2c0.1-0.5,0.3-1,0.4-1.5c0.1-0.5,0.2-1.1,0.3-1.6c0.1-0.6,0.1-1.1,0.2-1.7
		c0.1-0.6,0.2-1.2,0.4-1.7c0.1-0.6,0.3-1.1,0.5-1.6c0.2-0.5,0.5-1,0.8-1.4c0.2-0.2,0.4-0.4,0.6-0.6c0.2-0.2,0.5-0.3,0.7-0.3
		c0.5-0.1,1,0,1.3,0.2c0.3,0.2,0.6,0.4,0.8,0.5c0.2,0.2,0.3,0.3,0.4,0.4c0.1,0.1,0.1,0.2,0.1,0.2l0,0c0,0-0.1,0-0.2-0.1
		c-0.1-0.1-0.3-0.2-0.5-0.3c-0.2-0.1-0.5-0.3-0.8-0.4c-0.3-0.1-0.7-0.1-1,0c-0.3,0.1-0.6,0.4-0.9,0.8c-0.3,0.4-0.5,0.8-0.6,1.3
		c-0.2,0.5-0.3,1-0.4,1.5c-0.1,0.5-0.2,1.1-0.3,1.7c-0.1,0.6-0.2,1.1-0.3,1.7c-0.1,0.6-0.2,1.1-0.4,1.6c-0.1,0.5-0.3,1-0.5,1.5
		c-0.2,0.5-0.4,0.9-0.7,1.3c-0.3,0.4-0.6,0.7-1,0.8c-0.4,0.1-0.7,0.1-1,0c-0.2-0.1-0.4-0.2-0.5-0.3C32.8,23.2,32.7,23.1,32.7,23.1z"
		/>
	<path id="XMLID_4778_" class="st2" d="M33.3,23.1c0,0,0,0,0.1,0c0.1,0,0.2,0,0.3-0.1c0.1-0.1,0.3-0.2,0.4-0.3
		c0.1-0.2,0.2-0.4,0.3-0.6c0.2-0.5,0.3-1.1,0.5-1.7c0.1-0.3,0.1-0.7,0.2-1c0-0.4,0.1-0.7,0.1-1.1c0-0.4,0.1-0.7,0.1-1.1
		c0.1-0.4,0.1-0.7,0.2-1c0.1-0.3,0.1-0.7,0.2-1c0.1-0.3,0.2-0.6,0.3-0.9c0.1-0.3,0.2-0.5,0.3-0.7c0.1-0.2,0.2-0.4,0.3-0.5
		c0.1-0.1,0.2-0.2,0.2-0.3c0.1-0.1,0.1-0.1,0.1-0.1s0,0-0.1,0.1c0,0.1-0.1,0.2-0.2,0.3c0,0.1-0.1,0.1-0.1,0.2c0,0.1-0.1,0.2-0.1,0.3
		c-0.1,0.2-0.1,0.4-0.2,0.7c-0.1,0.3-0.1,0.5-0.2,0.8c0,0.3-0.1,0.6-0.1,1c-0.1,0.7-0.2,1.4-0.2,2.1c0,0.4-0.1,0.7-0.1,1.1
		c-0.1,0.4-0.1,0.7-0.2,1c-0.2,0.7-0.4,1.3-0.6,1.8c-0.1,0.2-0.3,0.5-0.5,0.6c-0.2,0.2-0.4,0.3-0.5,0.3c-0.2,0-0.3,0-0.4,0
		C33.3,23.1,33.3,23.1,33.3,23.1z"/>
	<path id="XMLID_4777_" class="st1" d="M41.9,31.4c0,0,0,0,0.1,0c0.1,0,0.2,0,0.3,0c0.1,0,0.1,0,0.2,0.1c0.1,0,0.2,0.1,0.2,0.2
		c0.1,0.1,0.3,0.3,0.3,0.5c0.2,0.4,0.2,0.9,0.2,1.5c0,0.5-0.1,1.1-0.2,1.6c-0.2,1.1-0.5,2.1-0.8,2.9c-0.2,0.8-0.4,1.3-0.4,1.3
		s0.1-0.5,0.2-1.4c0.1-0.4,0.2-0.9,0.3-1.4c0.1-0.5,0.2-1,0.3-1.6c0-0.3,0.1-0.5,0.1-0.8c0-0.3,0-0.5,0-0.8c0-0.5,0-1-0.2-1.3
		c-0.1-0.2-0.1-0.3-0.2-0.4c0-0.1-0.1-0.1-0.1-0.2c0,0-0.1-0.1-0.1-0.1c0,0-0.1-0.1-0.1-0.1C42,31.5,42,31.5,41.9,31.4
		C41.9,31.4,41.9,31.4,41.9,31.4z"/>
	<path id="XMLID_4776_" class="st2" d="M41.5,31.6C41.5,31.6,41.5,31.6,41.5,31.6c0.1,0,0.2,0.1,0.2,0.1c0.1,0,0.2,0.1,0.2,0.2
		c0.1,0.1,0.2,0.2,0.3,0.3c0.2,0.2,0.3,0.6,0.3,0.9c0.1,0.3,0,0.7,0,1.1c0,0.4-0.1,0.7-0.2,1c-0.1,0.3-0.2,0.6-0.2,0.9
		c-0.1,0.3-0.1,0.5-0.2,0.6c-0.1,0.1-0.1,0.2-0.1,0.2l0,0c0,0,0-0.1,0-0.2c0-0.2,0-0.4,0.1-0.6c0-0.3,0.1-0.6,0.1-0.9
		c0-0.3,0.1-0.7,0.1-1c0-0.3,0-0.7,0-1c0-0.2,0-0.3-0.1-0.4c0-0.1-0.1-0.3-0.1-0.4c0-0.1-0.1-0.2-0.1-0.3c-0.1-0.1-0.1-0.2-0.1-0.2
		C41.6,31.7,41.5,31.6,41.5,31.6C41.5,31.6,41.5,31.6,41.5,31.6L41.5,31.6z"/>
	<path id="XMLID_4775_" class="st1" d="M24.8,23.4c0,0,0.1,0,0.2,0c0.1,0,0.1,0,0.2,0.1c0.1,0,0.2,0.1,0.3,0.1
		c0.2,0.1,0.5,0.2,0.8,0.4c0.3,0.2,0.6,0.4,0.9,0.8c0.3,0.3,0.6,0.7,0.8,1.1c0.2,0.4,0.4,0.9,0.6,1.4c0.3,1,0.5,2.1,0.4,3.2
		c0,0.3,0,0.6-0.1,0.8l-0.1,0.4c0,0.1,0,0.3,0,0.4c-0.1,0.5-0.1,1-0.1,1.5c0,0.5,0,1,0,1.4c0,0.4,0,0.9,0,1.3
		c0.1,0.8,0.2,1.4,0.3,1.9c0.1,0.2,0.1,0.4,0.2,0.5c0,0.1,0.1,0.2,0.1,0.2s0,0-0.1-0.2c-0.1-0.1-0.2-0.3-0.3-0.5
		c-0.2-0.4-0.5-1.1-0.7-1.9c-0.2-0.8-0.3-1.8-0.3-2.8c0-0.5,0-1,0.1-1.6c0-0.1,0-0.3,0-0.4l0-0.4c0-0.2,0.1-0.5,0.1-0.8
		c0-0.5,0-1,0-1.5c0-0.5-0.1-1-0.2-1.5c-0.1-0.5-0.2-0.9-0.4-1.3c-0.2-0.4-0.4-0.8-0.6-1.1c-0.2-0.3-0.4-0.6-0.7-0.8
		c-0.2-0.2-0.4-0.4-0.6-0.5c-0.1-0.1-0.2-0.1-0.3-0.2c-0.1,0-0.1-0.1-0.2-0.1C24.8,23.5,24.8,23.5,24.8,23.4L24.8,23.4z"/>
	<path id="XMLID_4774_" class="st2" d="M25.9,25.1c0,0,0,0,0.1,0.1c0.1,0.1,0.2,0.2,0.3,0.3c0.3,0.3,0.6,0.8,0.8,1.4
		c0.2,0.7,0.3,1.4,0.3,2.3c0,0.4,0,0.8-0.1,1.3c0,0.4-0.1,0.8-0.1,1.3c0,0.4,0,0.8,0,1.2c0,0.4,0,0.8,0.1,1.2
		c0.1,0.8,0.2,1.5,0.3,2.1c0.1,0.3,0.2,0.6,0.2,0.8c0.1,0.2,0.2,0.4,0.3,0.6c0.1,0.2,0.2,0.3,0.2,0.3c0,0,0.1,0.1,0.1,0.1
		c0,0,0,0,0,0l-0.1,0.1c0,0,0,0,0,0c0,0-0.1,0-0.1-0.1c-0.1-0.1-0.2-0.2-0.3-0.3c-0.2-0.3-0.5-0.8-0.7-1.4c-0.1-0.3-0.2-0.6-0.3-1
		c-0.1-0.4-0.2-0.8-0.2-1.2c-0.1-0.4-0.1-0.8-0.1-1.3c0-0.4,0-0.9,0-1.3c0-0.4,0-0.9,0.1-1.3c0-0.4,0-0.8,0-1.2c0-0.4,0-0.8-0.1-1.1
		c0-0.3-0.1-0.7-0.2-1c-0.1-0.6-0.3-1.1-0.4-1.4c-0.1-0.2-0.1-0.3-0.2-0.4C25.8,25.2,25.8,25.2,25.9,25.1L25.9,25.1z"/>
</g>
</svg>
