<?xml version="1.0" encoding="utf-8"?>
<!-- Generator: Adobe Illustrator 19.0.0, SVG Export Plug-In . SVG Version: 6.00 Build 0)  -->
<svg version="1.1" id="Layer_1" xmlns="http://www.w3.org/2000/svg" xmlns:xlink="http://www.w3.org/1999/xlink" x="0px" y="0px"
	 viewBox="0 0 90 90" style="enable-background:new 0 0 90 90;" xml:space="preserve">
<style type="text/css">
	.st0{fill:#2EADCF;}
</style>
<path id="XMLID_15_" class="st0" d="M73.6,24.7l0.3-0.3c1.7-1.7,1.4-4.6-0.7-6.7c-1.2-1.2-2.7-1.9-4.1-1.9c-1,0-2,0.4-2.7,1.1
	L66.2,17c-2.7-1.8-5.5-2.8-7.9-2.8c-1.9,0-3.5,0.6-4.7,1.8l-0.3,0.3C52.6,16,51.8,16,51,16c-2.4,0-4.4,0.8-5.8,2.2l-4.7,4.7
	c0,0,0,0,0,0c0,0,0,0-0.1,0.1L40.4,23c-0.1,0.1-0.1,0.1-0.2,0.2c-3.3,3.7-2.2,10.6,2.7,17.2l-5.3,5.3c-3.9-3-8.1-4.6-11.6-4.6
	c-2.4,0-4.4,0.8-5.8,2.2L15.4,48c-0.2,0.2-0.3,0.3-0.4,0.5c-1.3,1.9-1.6,4.4-1.1,7.3c-2.8,3-1.9,8.3,2.1,13.6v0
	c0,1.5,0.4,3.2,1.8,4.5c1.2,1.2,2.6,1.9,4.1,1.9c0.3,0,0.6,0,1-0.1c2.4,1.5,4.9,2.2,7,2.2c1.8,0,3.3-0.6,4.5-1.6
	c0.8,0.2,1.7,0.2,2.4,0.2c1.9,0,3.6-0.5,4.9-1.4c0.2-0.1,0.4-0.2,0.5-0.4l0.3-0.3c0,0,0,0,0,0l4.5-4.5c3.4-3.4,2.5-10-1.9-16.6
	l5.6-5.6c3.7,2.6,7.6,4,10.9,4c2.2,0,4.1-0.7,5.5-1.9c0.1-0.1,0.1-0.1,0.2-0.2l0.1-0.1c0,0,0,0,0,0l4.7-4.7c1.9-1.9,2.5-4.7,1.8-8.1
	l0.4-0.4C76.6,33.9,76.4,29.5,73.6,24.7z"/>
</svg>
